<svg xmlns="http://www.w3.org/2000/svg" viewBox="0 0 3891 1239"><path fill="#ffffff" fill-rule="evenodd" d="M1824 11 C1739 30 1739 154 1825 172 C1866 181 1900 160 1920 112 C1922 107 1924 102 1925 99 L1927 95 1934 95 C1977 99 2000 103 2025 111 C2040 115 2040 115 2050 119 C2110 140 2158 170 2206 218 C2228 239 2231 244 2249 266 C2262 283 2281 312 2289 327 C2291 329 2294 336 2297 341 C2329 399 2350 466 2359 543 C2365 592 2362 665 2352 719 C2351 726 2350 735 2349 738 C2348 744 2340 775 2337 786 C2336 789 2335 794 2334 796 C2331 804 2319 837 2314 850 C2260 970 2164 1069 2062 1109 C2059 1110 2053 1112 2050 1113 C2048 1114 2044 1116 2042 1116 C2041 1116 2037 1118 2034 1119 C2018 1125 1983 1132 1966 1134 C1927 1138 1925 1138 1924 1130 C1915 1072 1856 1040 1804 1066 C1784 1076 1769 1094 1763 1114 C1759 1129 1759 1155 1763 1164 C1763 1165 1765 1169 1766 1172 C1778 1201 1809 1221 1841 1221 C1881 1221 1910 1198 1921 1158 C1924 1147 1927 1146 1949 1145 C1959 1144 1968 1143 1981 1141 C1992 1139 1998 1138 2016 1134 C2018 1134 2022 1132 2026 1132 C2029 1131 2034 1129 2036 1128 C2038 1128 2042 1127 2043 1126 C2046 1125 2052 1123 2060 1119 C2070 1116 2090 1106 2099 1101 C2102 1099 2108 1096 2110 1094 C2177 1057 2246 990 2288 920 C2299 902 2322 855 2322 852 C2322 852 2323 849 2325 845 C2326 842 2328 838 2328 837 C2328 836 2330 832 2331 829 C2335 818 2344 791 2346 781 C2347 780 2349 773 2351 765 C2356 743 2360 724 2365 690 C2367 682 2368 672 2371 638 C2371 635 2371 630 2372 626 C2372 623 2372 619 2373 618 C2373 616 2636 615 2638 617 C2638 618 2638 621 2639 624 C2639 627 2639 634 2640 640 C2641 647 2641 655 2641 660 C2643 677 2646 705 2649 724 C2650 729 2651 735 2652 738 C2659 778 2680 840 2700 878 C2709 896 2714 904 2721 917 C2753 969 2792 1016 2833 1050 C2868 1079 2911 1104 2950 1119 C2955 1121 2961 1123 2963 1123 C2967 1125 2973 1127 2982 1129 C2995 1133 3000 1134 3020 1138 C3046 1143 3046 1143 3070 1147 C3085 1150 3085 1150 3087 1155 C3107 1202 3130 1222 3166 1221 C3237 1221 3275 1145 3233 1088 C3209 1055 3158 1047 3123 1071 C3104 1083 3090 1106 3086 1128 C3085 1138 3086 1137 3070 1137 C3035 1135 2989 1126 2960 1114 C2950 1110 2948 1109 2942 1107 C2939 1105 2936 1104 2935 1104 C2933 1104 2907 1090 2894 1082 C2809 1028 2736 943 2697 852 C2676 802 2661 747 2654 691 C2653 685 2652 676 2651 672 C2649 658 2648 618 2650 617 C2651 616 2801 616 3182 616 L3713 616 3715 623 C3729 668 3756 692 3795 692 C3837 692 3869 666 3877 625 C3886 575 3849 529 3798 529 C3758 529 3728 551 3719 586 C3716 596 3713 601 3709 604 L3705 606 3179 606 C2669 606 2653 606 2651 605 C2650 604 2649 601 2648 599 C2646 590 2652 530 2657 503 C2664 466 2673 431 2683 405 C2687 397 2689 390 2690 388 C2691 387 2694 380 2697 372 C2713 335 2736 298 2768 256 C2811 200 2878 150 2944 125 C2950 122 2957 119 2959 119 C2962 117 2977 113 2988 110 C3006 104 3022 102 3054 97 C3061 97 3069 95 3073 95 C3084 93 3085 93 3087 104 C3093 138 3119 165 3149 171 C3162 174 3185 173 3195 169 C3196 169 3200 167 3203 166 C3223 158 3240 138 3247 116 C3251 105 3251 78 3247 68 C3228 11 3161-9 3116 28 C3102 40 3095 51 3088 74 C3085 86 3081 88 3063 88 C3053 88 3049 88 3029 92 C2997 97 2970 104 2938 117 C2932 119 2926 121 2925 122 C2924 122 2916 126 2908 131 C2816 176 2734 265 2688 371 C2680 388 2672 409 2670 416 C2670 418 2668 424 2666 430 C2663 440 2656 465 2654 477 C2646 511 2642 542 2640 580 C2639 599 2638 602 2633 605 C2629 608 2378 608 2373 605 C2372 604 2371 595 2369 574 C2366 528 2363 506 2356 473 C2345 427 2326 374 2304 334 C2258 251 2198 187 2128 145 C2117 139 2088 124 2081 121 C2080 121 2075 119 2070 117 C2056 111 2049 109 2042 107 C2038 106 2034 104 2032 103 C2020 100 1992 94 1976 92 C1954 89 1942 87 1936 86 C1926 85 1925 84 1922 77 C1906 27 1868 1 1824 11 M1824 20 C1750 40 1750 142 1824 163 C1867 176 1916 137 1915 91 C1915 45 1868 8 1824 20 M3151 20 C3124 27 3101 51 3096 79 C3087 122 3124 165 3169 165 C3214 165 3249 123 3241 79 C3233 37 3191 10 3151 20 M298 374 C280 377 273 385 273 401 C273 418 281 439 305 488 C311 502 323 525 329 538 C335 551 348 577 357 594 C389 660 406 696 406 698 C405 699 370 699 209 699 C30 699 12 699 12 701 C10 704 11 739 12 740 C14 742 427 741 433 739 C451 733 456 723 451 705 C448 695 451 701 380 559 C313 425 312 423 315 419 C318 415 323 415 435 415 C502 416 547 416 549 415 L551 414 551 397 C551 377 551 376 544 374 C537 372 308 373 298 374 M836 374 C805 378 780 385 752 400 C673 441 630 503 620 595 C618 613 618 1072 620 1074 C621 1076 623 1076 640 1076 L658 1076 659 845 C659 718 659 609 659 602 C664 517 724 443 807 419 C862 403 921 412 970 444 C1014 473 1047 520 1057 568 C1058 572 1059 578 1060 581 C1062 591 1062 621 1061 636 C1051 708 1009 765 942 796 C936 799 930 801 929 801 C929 801 927 802 925 802 C912 809 882 813 842 813 C818 813 810 813 809 814 C807 816 808 856 810 857 C811 858 817 858 866 856 C1032 851 1141 694 1089 536 C1068 472 1010 412 948 390 C915 378 891 373 859 373 C850 373 839 374 836 374 M1898 374 C1877 377 1856 382 1834 390 C1828 392 1812 399 1810 400 C1810 400 1806 402 1802 404 C1700 460 1654 582 1693 697 C1710 749 1750 798 1798 824 C1810 831 1814 833 1823 837 C1858 852 1889 858 1932 857 C1958 857 1971 856 1972 854 C1973 853 1973 845 1973 834 C1973 817 1973 816 1971 816 C1969 815 1955 815 1938 815 C1910 815 1891 814 1882 811 C1881 811 1878 810 1876 809 C1873 809 1866 807 1860 805 C1766 774 1710 685 1721 586 C1728 529 1762 475 1814 442 C1826 434 1850 423 1860 420 C1862 420 1868 418 1873 417 C1894 411 1930 409 1948 413 C1951 414 1957 415 1961 416 C1980 420 2003 428 2018 437 C2022 439 2025 441 2026 441 C2026 441 2029 443 2033 446 C2080 478 2109 524 2119 583 C2121 595 2121 598 2122 725 L2122 855 2124 855 C2129 857 2159 856 2160 855 C2162 854 2162 844 2162 762 C2163 612 2161 582 2153 550 C2132 467 2066 403 1977 380 C1955 374 1923 372 1898 374 M1141 376 C1138 378 1138 852 1141 854 C1142 856 1170 857 1176 855 L1178 855 1178 615 L1178 375 1176 375 C1170 373 1142 374 1141 376 M1220 376 C1218 378 1219 854 1220 855 C1222 858 1291 857 1293 855 C1295 853 1295 850 1295 615 C1295 442 1295 377 1294 376 C1293 375 1221 374 1220 376 M1555 376 C1528 378 1512 381 1492 388 C1381 424 1313 541 1334 660 C1349 743 1411 815 1493 844 C1507 849 1529 853 1552 856 C1577 858 1639 857 1641 855 C1643 852 1643 816 1641 814 C1640 814 1628 813 1610 813 C1551 813 1537 811 1508 802 C1417 773 1362 685 1373 586 C1383 504 1446 434 1528 416 C1543 413 1555 412 1594 412 C1616 412 1635 412 1637 411 C1640 411 1640 410 1640 394 C1640 377 1640 377 1629 376 C1625 376 1608 376 1590 376 C1573 375 1557 375 1555 376 M843 449 C833 451 825 453 820 454 C818 455 816 456 814 456 C772 466 730 503 712 544 C702 569 699 583 698 624 C696 686 697 1070 699 1073 L701 1076 737 1076 C771 1076 772 1076 774 1074 C776 1072 776 1069 776 838 C776 596 776 599 779 588 C794 537 853 511 900 535 C973 573 961 675 881 697 C877 698 867 698 843 699 L810 700 810 737 C810 758 810 775 811 775 C812 777 874 776 885 774 C989 759 1049 660 1017 558 C1011 539 998 517 981 499 C944 461 893 443 843 449 M1906 450 C1881 452 1854 459 1840 469 C1838 470 1836 471 1835 471 C1835 471 1830 474 1825 478 C1801 494 1774 529 1767 552 C1767 553 1765 556 1765 559 C1737 635 1770 719 1843 758 C1869 772 1890 776 1935 776 C1967 776 1968 776 1971 769 C1973 764 1974 716 1972 708 C1970 699 1971 699 1938 699 C1904 699 1893 697 1878 689 C1826 660 1817 594 1858 552 C1911 500 1995 529 2004 603 C2006 611 2006 640 2006 730 C2006 860 2006 853 2012 856 C2018 858 2075 857 2079 855 C2084 852 2084 852 2084 739 C2084 607 2083 591 2077 567 C2059 503 2000 454 1933 450 C1927 449 1922 449 1921 449 C1920 448 1913 449 1906 450 M446 451 C407 451 375 452 375 452 C374 453 376 458 395 498 C400 507 407 521 411 530 C419 548 425 561 435 582 C439 590 442 596 442 596 C442 597 446 605 451 615 C456 626 462 639 465 645 C474 664 480 677 481 679 C483 682 493 705 495 710 C500 723 501 745 498 754 C494 767 484 771 456 774 C451 775 445 775 442 776 C440 776 343 776 226 777 C55 777 12 777 12 778 C11 780 11 856 12 856 C14 858 453 857 466 856 C535 848 568 826 580 780 C589 745 583 714 561 673 C559 670 557 666 555 663 C554 660 551 655 549 652 C547 648 544 643 543 640 C541 637 539 633 537 630 C535 626 533 622 531 618 C529 615 527 611 525 608 C523 604 521 599 519 596 C517 593 515 589 513 586 C512 584 510 579 507 576 C505 572 501 564 499 560 C496 555 492 546 489 542 C483 529 482 530 516 530 C554 531 551 534 551 490 C551 449 552 450 529 450 C523 450 486 451 446 451 M1557 451 C1555 451 1549 451 1544 452 C1511 456 1483 470 1457 495 C1422 528 1406 569 1407 615 C1408 630 1408 634 1412 650 C1421 696 1453 738 1494 758 C1522 772 1548 776 1606 776 L1635 776 1637 773 C1641 769 1642 765 1642 736 C1642 696 1644 698 1613 699 C1566 701 1545 698 1527 687 C1467 651 1472 563 1535 535 C1551 528 1556 527 1600 527 C1634 527 1636 527 1638 525 C1640 523 1640 521 1640 489 C1640 450 1640 452 1631 451 C1600 451 1560 450 1557 451 M3788 538 C3749 545 3725 571 3723 607 C3721 661 3778 700 3826 678 C3882 651 3885 576 3831 546 C3820 540 3799 536 3788 538 M1825 1068 C1792 1075 1766 1109 1768 1143 C1773 1207 1849 1236 1894 1190 C1945 1138 1897 1052 1825 1068 M3151 1068 C3103 1081 3080 1135 3106 1177 C3140 1231 3217 1222 3238 1161 C3257 1109 3205 1054 3151 1068"/></svg>
