<?xml version="1.0" encoding="UTF-8"?><svg id="a" xmlns="http://www.w3.org/2000/svg" xmlns:xlink="http://www.w3.org/1999/xlink" viewBox="0 0 96 96"><defs><radialGradient id="b" cx="64.748316" cy="31.10938" fx="64.748316" fy="31.10938" r="48.969707" gradientTransform="translate(122.597499 -12.138899) rotate(116.911863) scale(1 1.028929)" gradientUnits="userSpaceOnUse"><stop offset=".032118" stop-color="#b9d9eb"/><stop offset=".38268" stop-color="#41b6e6"/><stop offset=".70711" stop-color="#0084ca"/><stop offset=".92388" stop-color="#004b87"/><stop offset="1" stop-color="#002554"/></radialGradient><radialGradient id="c" cx="70.569035" cy="35.141559" fx="70.569035" fy="35.141559" r="82.517684" gradientTransform="translate(137.97679 113.760118) rotate(-166.795807) scale(.966844) skewX(.157531)" gradientUnits="userSpaceOnUse"><stop offset=".023053" stop-color="#c63527"/><stop offset=".5" stop-color="#e35205"/><stop offset=".86603" stop-color="#ff8f1c"/><stop offset="1" stop-color="#ffb549"/></radialGradient><radialGradient id="d" cx="71.190525" cy="28.450067" fx="71.190525" fy="28.450067" r="52.636984" gradientUnits="userSpaceOnUse"><stop offset="0" stop-color="#0084ca"/><stop offset=".8" stop-color="#002554"/></radialGradient><radialGradient id="e" cx="105.505746" cy="-52.332221" fx="105.505746" fy="-52.332221" r="155.481301" gradientUnits="userSpaceOnUse"><stop offset=".464122" stop-color="#0084ca"/><stop offset=".784598" stop-color="#004b87"/><stop offset=".879357" stop-color="#002554"/></radialGradient><linearGradient id="f" x1="69.492688" y1="25.342912" x2="76.126788" y2="85.522412" gradientUnits="userSpaceOnUse"><stop offset=".539432" stop-color="#ffb549"/><stop offset=".677609" stop-color="#ff8f1c"/><stop offset=".878845" stop-color="#e35205"/><stop offset="1" stop-color="#c63527"/></linearGradient><linearGradient id="g" x1="48.138924" y1="22.474536" x2="88.193493" y2="68.357375" gradientUnits="userSpaceOnUse"><stop offset="0" stop-color="#c63527"/><stop offset=".14271" stop-color="#e35205"/><stop offset=".393828" stop-color="#ff8f1c"/><stop offset=".740616" stop-color="#ffb549"/></linearGradient><linearGradient id="h" x1="44.129131" y1="73.454168" x2="44.999491" y2="73.454168" gradientUnits="userSpaceOnUse"><stop offset=".161671" stop-color="#d5411f"/><stop offset=".282391" stop-color="#df581f"/><stop offset=".448579" stop-color="#ec731f"/><stop offset=".597172" stop-color="#f3831f"/><stop offset=".712333" stop-color="#f6891f"/><stop offset="1" stop-color="#f6891f"/></linearGradient><linearGradient id="i" x1="48.941407" y1="75.768199" x2="49.056533" y2="75.768199" xlink:href="#h"/><linearGradient id="j" x1="34.832588" y1="72.007592" x2="53.481673" y2="28.420415" gradientUnits="userSpaceOnUse"><stop offset="0" stop-color="#c63527"/><stop offset=".239118" stop-color="#e35205"/><stop offset=".690522" stop-color="#ff8f1c"/><stop offset="1" stop-color="#ffb549"/></linearGradient><linearGradient id="k" x1="44.228887" y1="74.848555" x2="94.239487" y2="36.397252" gradientUnits="userSpaceOnUse"><stop offset="0" stop-color="#ffb549"/><stop offset=".267571" stop-color="#ff8f1c"/><stop offset=".741744" stop-color="#e35205"/><stop offset="1" stop-color="#c63527"/></linearGradient><linearGradient id="l" x1="44.520577" y1="74.610024" x2="49.673861" y2="74.610024" gradientUnits="userSpaceOnUse"><stop offset="0" stop-color="#f6891f"/><stop offset=".207151" stop-color="#f4841f"/><stop offset=".428995" stop-color="#ee771f"/><stop offset=".657681" stop-color="#e4621f"/><stop offset=".889726" stop-color="#d6441f"/><stop offset=".91464" stop-color="#d5411f"/></linearGradient></defs><path d="M92.293289,48.481c-.073696,1.381513-.207233,2.753835-.409856,4.130738-.036848.280901-.082887.552611-.128927.833512,0,.009219-.00461.02302-.00461.032239-.009219.046039-.013829.096688-.018438.142755-.046039.28551-.101297.566411-.156556.847312-.985486,5.171482-2.896562,10.213982-5.678026,14.832854-.174994.29012-.349988.584849-.543392.874969-.01841.027629-.032239.050649-.050649.078278-.184213.29012-.373007.58024-.566439.874941-2.505116,3.743902-5.59972,7.165474-9.269926,10.094275-.658546.524982-1.312454,1.026916-1.984772,1.492029q-.009219.00461-.013829.00461c-.299339.216424-.584849.423656-.88877.61706-.069087.046067-.119736.092106-.188823.138174h-.01841c-.30392.207204-.59404.405218-.902599.59865h-.01841c-1.878865,1.188081-3.817571,2.201196-5.793152,3.048536-1.165061.501934-2.343951.939419-3.53206,1.317036-.00461,0-.009219.00461-.013801.009219-.621698.202623-1.243367.386808-1.869646.552611-.824321.221033-1.648613.414437-2.472934.580212,0,0-.009191.00461-.013801.00461-.105907.018438-.202623.036848-.303949.050649,0,0-.009191.009219-.013801.009219-.27171.050649-.538782.096716-.810492.142755-.119736.018438-.225643.036848-.345378.050649h-.013801c-.262491.046067-.515763.092106-.782863.128955h-.00461c-.128955.01841-.253272.032239-.382226.046039h-.009191c-.179603.023048-.354597.046067-.529591.064477h-.00461c-.409856.050649-.815102.092106-1.22032.119736-.101326.013801-.198042.01841-.299339.027629-3.983373.29473-7.93909-.036848-11.73825-.985486-.262491-.064477-.524982-.128927-.787472-.202623-.198013-.055258-.391417-.110517-.589431-.165775-.018438-.00461-.046067-.013829-.064477-.01841-.202623-.059868-.400636-.115126-.60326-.188823-.02302-.00461-.050649-.013801-.078278-.02302-2.841332-.88877-5.572119-2.132137-8.123303-3.725492-.00461,0-.013829-.004581-.01841-.009191-.147365-.092106-.299339-.188823-.446704-.28551-.01841-.009219-.032239-.023048-.050649-.036848-.142755-.092106-.29012-.193404-.432875-.29012-2.205805-1.455181-4.268884-3.195901-6.147721-5.189893-.128955-.138146-.257881-.271682-.382226-.414437-.202623-.225643-.405246-.451313-.60326-.681565-.128955-.147337-.257881-.299311-.382226-.451285-.036848-.046039-.073668-.087497-.110517-.133536-.165775-.193432-.326968-.386836-.483524-.58024-.474333-.59404-.934837-1.206519-1.376903-1.837408-9.154828-13.027685-9.177876-30.51302-1.409142-44.516971v-.004581s0-.00461.004581-.009219c.216452-.396027.442094-.782863.676956-1.169671.00461,0,.00461-.00461.00461-.009219,2.693939-4.535956,6.225999-8.666694,10.550141-12.120477.244081-.193404.488133-.386836.736824-.571021l.004581-.00461.087497-.064477c.110517-.087497.221061-.170384.331578-.248662,4.029413-3.007107,8.371965-5.171454,12.815815-6.525338.174994-.059868.359207-.110545.53881-.165803.110517-.032211.225643-.064449.336159-.096688h.009219c.105907-.027629.207204-.055258.30853-.082887l.00461-.00461c.133536-.036848.253272-.064477.377617-.092106.124317-.027629.244053-.059868.377589-.096716-.008601.004104-.016302.0095-.024875.01366,4.533764-1.132766,9.152607-1.437052,13.618971-.92084h.00461c.133536.013801.2671.032239.400636.050649.184213.02302.368398.046067.552611.069087.128927.01841.257881.03682.386808.059868h.00461c.84734.128927,1.690071.28551,2.518973.478914.363788.078278.727577.165775,1.082174.262491.571021.147365,1.13746.30853,1.699262.478914.340769.105935.681537.216452,1.017725.336187.01841,0,.03682.009191.050649.01841,6.239828,2.150547,11.894834,6.032595,16.283425,11.567866.156584.193404.317749.391417.469723.59404l.571021.769062c.096716.128927.188794.262491.276291.391417,1.238758,1.75913,2.307131,3.601147,3.214339,5.503032.828902,1.73611,1.524268,3.527451,2.08146,5.355667.179603.584821.340797,1.17428.492743,1.768321.069087.244081.128955.483552.184213.727605.01841.073668.036848.147365.050649.221033.055258.24869.110517.497353.165775.746015.105935.515791.207233,1.040744.29473,1.565726.069087.405246.142755.819711.188823,1.224929.101297.727605.179575,1.455209.239443,2.187395.165803,1.915714.202623,3.854447.096716,5.788542Z" fill="url(#b)"/><path d="M86.471104,21.316085c.835927,1.200926,1.617798,2.463762,2.3262,3.757854l.120058-.064314c-2.023068-5.856169-5.918087-11.440056-10.990691-15.749085l-.979578-.804224-1.007652-.762751c-.701533-.518718-1.40456-1.004979-2.08698-1.442554-.679732-.438176-1.414714-.899192-2.186431-1.306714l-.085713-.044479c-.716765-.373862-1.458318-.760346-2.206739-1.089729-2.87781-1.356602-6.09041-2.382619-9.555967-3.051603-5.720977-1.104155-11.689238-1.000772-17.260292.296926l-.001195.000601-.001493-.006011-.426176.096771-.001493-.007213c-.956582.226-1.914956.484458-2.858398.770564-5.700071,1.729863-10.993678,4.447274-15.309199,7.857713l-1.212228.965309c-.545338.432766-1.03453.825862-1.50879,1.257426-1.806844,1.535719-3.562619,3.328694-5.533722,5.648802-1.863887,2.210714-3.378948,4.309631-4.630599,6.416962-1.475341,2.455347-2.657704,4.764636-3.616078,7.060702-1.010937,2.382018-1.859109,4.914902-2.522116,7.530734-.624481,2.460757-1.084405,5.097626-1.366631,7.837277-.230858,2.241369-.284018,4.552461-.162467,7.064909.535782,11.055976,4.515618,21.227786,11.206318,28.643115,6.972926,7.728484,16.211725,12.557434,26.01408,13.596674,9.007642.953288,18.493724-1.363815,26.070525-6.366472l-.125434-.267474c-8.680618,4.346296-18.978138,5.311004-28.305935,2.641677-.805166-.230208-1.618992-.493474-2.419081-.781384-9.388722-3.381587-17.224454-10.449502-22.063511-19.900035l-.112592-.247037c-.440512-.968314-.895956-1.969688-1.271361-2.992699-.833538-2.194486-1.494156-4.461099-1.962442-6.732521-.451562-2.277432-.733788-4.622184-.839809-6.971744-.111099-2.275629-.033449-4.637211.230559-7.019228.993914-9.257591,4.77873-18.33847,10.656798-25.56747,1.596295-1.957666,3.167801-3.626822,4.804713-5.101833,1.909581-1.736475,3.705674-3.15739,5.489522-4.343891,1.91645-1.297097,3.962514-2.460156,6.079061-3.456119,2.012018-.946676,4.173363-1.761118,6.425796-2.422289l-.001493-.021037.160973-.023442.326725-.092564-.001195-.019234.149027-.019234v.001202c5.025118-1.350591,10.121017-1.746693,15.143745-1.175081l.000299-.000601c.026281.001803.050771.004809.073468.009016l.369134.046883c.252062.031255.503229.062511.724231.099777,11.279488,2.070666,20.352534,7.689415,26.24225,16.249171Z" fill="url(#c)"/><path d="M67.791223,56.646458c-.097607.064222-.197338.124599-.295506.187835.000952.008076.00246.01629.003412.024367.099177-.067861.193538-.143339.292094-.212201Z" fill="none"/><path d="M67.683937,10.070349c-.013829-.009219-.032239-.01841-.050649-.01841-.336187-.119736-.676956-.230252-1.017725-.336187,2.003182.736824,3.974154,1.685461,5.880649,2.868961.009191,0,.013801-.00461.01841-.00461-1.570307-.994705-3.186682-1.832826-4.830686-2.509754Z" fill="url(#d)"/><path d="M83.81543,53.813632c.967051-5.240531,1.220348-10.49029.805845-15.482137,3.103883.405183,5.45701.184183,6.852314-.617141-.055273-.248591-.110546-.497275-.165727-.745958-.013841-.073728-.032297-.147365-.050659-.221093-1.363099.805937-3.661045,1.031552-6.71879.635504h-.004614c-.511116-4.950416-1.694646-9.629079-3.536657-13.750581,1.703874.216387,2.970268.087478,3.702477-.377685.046046-.032204.087478-.059887.128909-.092091h.004614c.064501-.050659.124296-.105933.174955-.161114l-.571003-.769119c-.055273.064501-.124296.124388-.19341.179661h-.004614c-.041432.032204-.073636.055181-.119682.082864h-.004614c-.686163.43748-1.883443.571003-3.476862.35923h-.004614c-1.593327-3.343339-3.628748-6.299766-6.106263-8.71278-.013749,0-.022977-.004614-.036818-.004614,2.385423,2.399173,4.324139,5.34185,5.829989,8.671256-1.206507-.184183-2.620266-.54332-4.213593-1.09596-.584844-.202638-1.174303-.428252-1.763761-.663094.170434-2.836745.013841-5.254372-.492753-7.105611-.013841-.004614-.032204-.009228-.046046-.018455.382207,1.800579.405276,4.163026.119774,6.949019-2.182786-.911778-4.342595-2.040035-6.285924-3.260383,2.040035-1.874215,3.895887-3.260383,5.493828-4.034024-.013841-.013749-.02759-.018363-.041432-.02759-1.703874.700005-3.670273,2.017058-5.816148,3.836-1.920353-1.224962-3.601158-2.528174-4.844575-3.771499,3.499839-.755278,6.921428-.948688,10.140287-.469776-.009135-.004614-.013749-.018363-.02759-.02759-3.287974-.548026-6.783199-.43748-10.347539.262525-.621663-.640118-1.119029-1.266394-1.46894-1.855852-.322412-.543413-.497367-1.022324-.538891-1.432214,4.126208.221093,8.220027,1.096053,12.138983,2.675539v-.022977c-3.92357-1.625624-8.026616-2.542016-12.152732-2.809062v-.004614c-.009228-.690777.391434-1.178916,1.137392-1.436828-.128909-.023069-.257819-.041432-.38682-.059887-.184183-.022977-.368365-.046046-.552548-.069022-.759892.290115-1.15594.801231-1.146712,1.514985,0,.050752,0,.110546.009228.170434.046046.43748.234842.948688.575617,1.524305.373071.626276.902643,1.289371,1.561123,1.975534-4.333367.948596-8.744984,2.749175-13.01385,5.249759h-.004614v-.004614c-1.215735-1.26178-2.196627-2.482129-2.882698-3.64259-.63089-1.063756-.976279-2.003217-1.059142-2.813676,4.793824-1.639373,9.822489-2.436083,14.818951-2.288718-.004614-.059887-.004614-.115068-.004614-.170434-5.005689-.202546-10.043582.543505-14.837406,2.145968-.018455-1.197279.834174-2.25836,1.9855-2.806386-.262525.073728-.493584.122635-.756016.191749-1.229576.557162-2.16433,1.679882-2.141262,2.937049.004614.101319.009228.207252.018363.317706.082956.833528.442094,1.795965,1.091439,2.878177.699912,1.188052,1.708488,2.449924,2.951813,3.739295.07825.082864.156592.161206.230228.239456-.07825-.07825-.156592-.156592-.234842-.239456-4.250411,2.588061-8.344322,5.862194-12.046799,9.688966-1.625532-1.680805-2.928744-3.320178-3.854363-4.862846-.842755-1.418372-1.298691-2.675539-1.413759-3.753136,4.001728-3.338725,8.51005-5.935922,13.271669-7.690455-.004522-.110454-.013749-.211773-.018363-.317706-4.761619,1.713009-9.269941,4.268866-13.276375,7.584523-.018455-1.142098.645839-2.973774,1.437843-3.673779l-.449568.33856c-.856597.718368-1.761915,2.782579-1.74346,3.979858,0,.138137.009228.28098.02759.423731.110546,1.086733.575617,2.357741,1.4276,3.794476.925619,1.556509,2.247194,3.214338,3.891273,4.918211.101319.105933.202546.211865.303864.317798-.101319-.101319-.207159-.207252-.308478-.313184-3.647204,3.895887-6.893746,8.330573-9.495648,13.161215-1.786738-1.851238-3.218859-3.651817-4.222821-5.346464-.930233-1.561123-1.436735-2.937971-1.561123-4.121502,2.615652-4.807665,6.0234-8.975212,9.960719-12.410551-.018363-.142751-.022977-.285594-.022977-.423731-3.932705,3.407748-7.345067,7.56616-9.960719,12.369211-.013841-.663187.184183-3.020927.409797-3.64259-.234842.38682-.460457.773641-.676936,1.169689-.004522.004614-.004522.009135-.004522.009135v.004614c-.211865,1.252553-.336253,2.288718-.239548,3.421589-2.500491,4.862938-3.969523,9.914673-4.489867,14.92027,0-.087478.004614-.174955.004614-.262433l-.073728.801231c-.013749.138229-.013749.276366-.013749.419117,0,.138137.013749.276274.02759.419025.110546,1.086825.575617,2.339378,1.418372,3.771499.921005,1.551896,2.238059,3.200588,3.872818,4.895235.202638.202546.405276.414411.612527.621663,3.287974,3.269611,7.708818,6.700335,12.751325,9.9239-1.436735,3.928091-2.339378,7.326612-2.698608,10.071173-3.891181-2.486742-7.308156-5.129985-9.845558-7.658159-.847277-3.688636-.939461-7.860797-.207159-12.336914-.211865-.207252-.414503-.419117-.617141-.621663-.690777,4.508322-.561775,8.735756.354616,12.475051-1.26178-1.307826-2.274877-2.57422-2.988723-3.771499-.34991-.594072-.621663-1.146712-.805845-1.667056l.253297.769027c.179569.524957.446615,1.086825.805845,1.690033.695391,1.169689,1.690033,2.413014,2.919608,3.688636.534185,1.934102,1.275622,3.734681,2.228831,5.364919.036818.046046.073728.087478.110546.133523.128909.156592.262433.317706.396048.474298-.004614-.009228-.009228-.013841-.013841-.022977-.980892-1.653214-1.731464-3.485998-2.256514-5.479987,2.472901,2.468287,5.802399,5.042507,9.601581,7.47859-.207252,1.888057-.133615,3.430724.221001,4.577344.018455.013841.032297.027683.050659.03691.147365.096613.299343.19341.446707.285502.004614.004614.013841.009135.018455.009135-.285594-1.09596-.28098-2.597197-.009228-4.453049,3.858977,2.413014,8.150912,4.6603,12.4888,6.470107-1.091347.95321-2.09983,1.662442-3.020835,2.104536.262433.073636.524957.138137.787482.202546.95321-.423639,1.980148-1.082119,3.062267-1.966306,1.165075.469684,2.33015.916392,3.495225,1.317053,1.961785.676936,3.794568,1.215735,5.480079,1.607169.405183-.027683.810459-.069115,1.220256-.119774-1.888057-.414411-3.969523-1.008483-6.21681-1.791351-1.192666-.409797-2.380717-.861118-3.578089-1.344644,2.132126-1.828169,4.485345-4.480732,6.944405-7.879252h.004614c1.551896.626276,3.094563,1.211121,4.637324,1.745306,4.195138,1.459804,7.934433,2.417628,11.121088,2.901153-2.311695,2.178264-4.73855,3.95116-7.2252,5.291283.626276-.16582,1.247939-.350002,1.869601-.55264.004614-.004614.009228-.009228.013841-.009228,2.113671-1.243417,4.181389-2.786085,6.152309-4.618869,1.137485.147365,2.196627.230228,3.172906.253297h.018363c.308571-.19341.598686-.391434.902643-.598686-1.050007-.009228-2.205855-.092091-3.44918-.257911,3.338633-3.241928,6.382537-7.31277,8.938302-12.152639,2.721677.350002,5.033372.363751,6.875383.064409.19341-.294637.382207-.584844.566389-.87496.018455-.02759.032297-.050567.050659-.07825-1.864988.331547-4.222821.32232-7.004292-.041432h-.004522c2.472901-4.895143,4.232048-10.094242,5.281963-15.325545-.133523-.018455-.267139-.03691-.405276-.055366.133523.018455.271752.03691.405276.050752,3.375451.437388,6.074059.313092,7.948274-.336253.055273-.280888.110546-.561775.156592-.847277.004614-.046046.009228-.096705.018455-.142751,0-.009228.004614-.023069.004614-.032204-1.855852.672322-4.549846.805845-7.939139.368365ZM83.009492,53.693858c-3.172813-.478912-6.893653-1.432121-11.065907-2.878084-1.538054-.538799-3.076108-1.119029-4.614255-1.740692,1.888149-4.964257,3.458407-9.836423,4.637324-14.372428h.004614c1.174303.478912,2.362354.921005,3.536657,1.335509,3.20511,1.109802,6.064831,1.842011,8.491687,2.210468.336161,4.978006.018455,10.218537-.99012,15.445227ZM34.329635,69.277406c1.547282-3.955774,3.601158-8.431892,6.124718-13.285603,5.590533,3.490612,11.811957,6.750995,18.107017,9.380488-2.542016,4.839869-5.083939,9.071917-7.487818,12.580984-5.816148-2.436083-11.572501-5.438555-16.739304-8.671256h-.004614v-.004614ZM59.040282,64.442059c-6.29506-2.629493-12.507256-5.880649-18.097789-9.375874h-.004614c2.564992-4.858324,5.36944-9.633785,8.256845-14.128266h.004614c5.139212,3.209724,10.872496,6.207582,16.65644,8.629916-1.993989,4.950416-4.291935,9.992831-6.815496,14.874224ZM49.747272,40.081414h-.004614c2.892018-4.457755,5.857672-8.616075,8.735849-12.281641,3.909636,2.445218,8.252231,4.715574,12.650006,6.557585-1.280143,4.485253-2.937971,9.329828-4.890529,14.266403-5.72867-2.394651-11.402068-5.355691-16.490713-8.542346ZM76.17102,22.416399c1.69926.589458,3.20511.976279,4.489959,1.169689,1.740692,4.112366,2.832131,8.768053,3.264997,13.713855-2.376196-.35923-5.157667-1.072984-8.284527-2.159717-1.14662-.400662-2.297946-.828914-3.453793-1.303304h-.004522c1.123551-4.485253,1.851146-8.606847,2.113671-12.125049.63089.253297,1.252553.488139,1.874215.704526ZM67.163603,18.060055c2.063012,1.289463,4.370185,2.491356,6.695722,3.467635-.405276,3.458407-1.257166,7.533863-2.486742,11.977684-4.287229-1.791351-8.533119-4.010955-12.341528-6.396379h-.004614c2.859721-3.59193,5.627352-6.681972,8.132549-9.048941h.004614ZM61.619116,13.809644v-.004614c1.330803,1.321667,3.117632,2.703129,5.14844,4.006341-2.629493,2.297946-5.503056,5.305032-8.459482,8.846303-3.753136-2.403786-7.050338-4.95503-9.495556-7.395634,4.213593-2.555857,8.551574-4.425551,12.806599-5.452396ZM48.001966,19.759315h.004614c2.505198,2.500584,5.885263,5.116235,9.73049,7.575295-2.970268,3.605772-6.004944,7.713432-8.956849,12.13889-5.019438-3.209724-9.417306-6.617472-12.682211-9.873241,3.660953-3.858977,7.713432-7.188382,11.903956-9.840944ZM35.402619,30.34631h.004614c3.297201,3.287974,7.745636,6.732632,12.811212,9.97456-2.928836,4.462276-5.770102,9.214668-8.330481,14.077606-5.50767-3.522908-10.343017-7.257589-13.92572-10.840292,2.597289-4.830642,5.825376-9.279169,9.440375-13.211874ZM15.946344,53.067582c-.861211-1.441349-1.330895-2.716971-1.441441-3.808317v-.023069c.52505-4.978006,2.003217-10.029741,4.508322-14.892679.018455.138137.041524.276274.064501.419025.225614,1.317053.819687,2.551243,1.492009,3.693249,1.008575,1.694646,2.44531,3.495225,4.232048,5.346464-2.514333,4.867552-4.149092,9.670603-4.945802,14.21113-1.648601-1.708395-2.984017-3.375451-3.909636-4.945802ZM20.477643,58.644274l-.004522-.004614c.833436-4.512936,2.482036-9.288304,4.991848-14.155856,3.596452,3.578089,8.427186,7.317384,13.934856,10.840292-2.528174,4.853711-4.549846,9.348191-6.051082,13.331556-5.088553-3.246542-9.555443-6.704949-12.871099-10.011378ZM43.917374,86.587713c-4.443914-1.860466-8.846303-4.153706-12.792849-6.626607.451321-2.684766,1.432214-6.037241,2.910381-9.933128h.004614c5.120849,3.200496,10.817223,6.175378,16.573576,8.583778-2.399265,3.421589-4.669528,6.110877-6.695722,7.975957ZM68.093836,83.101716c-3.214338-.488139-6.990451-1.45519-11.227113-2.924222-1.561123-.543413-3.122246-1.132871-4.687891-1.768282,2.463673-3.48609,5.037893-7.699683,7.579817-12.54878,1.690125.686163,3.384771,1.330803,5.065576,1.911033,4.586664,1.588806,8.675869,2.638721,12.148118,3.168292-2.560379,4.839962-5.58592,8.915418-8.878507,12.161959ZM77.455869,70.009523c-3.485998-.524957-7.566067-1.570258-12.152732-3.1682-1.680805-.580231-3.370837-1.220348-5.06087-1.901898h-.004614c2.52356-4.886007,4.779982-9.942263,6.723312-14.915748h.004614c1.556509.626276,3.113019,1.215735,4.655687,1.754533,4.222821,1.464418,7.985184,2.426855,11.185681,2.910381-1.091439,5.22669-2.873563,10.425789-5.351078,15.320931Z" fill="url(#e)"/><path d="M80.260309,79.721625c-2.33476,2.670919-7.298982,6.327325-11.309985,7.777924,1.455181-3.20973,2.855132-7.110188,2.855132-14.353939,0-1.823579.01841-4.208988-.078306-5.249732,1.229567-.819711,2.426867-1.671633,3.578127-2.509754,1.855846-1.321645,5.111615-4.42544,5.461574-4.849124.511181,5.364886.778253,11.374462-.506543,19.184625Z" fill="url(#f)"/><path d="M78.46894,48.421133c-.921009.953247-1.874256,1.892694-2.859714,2.790655-.994705.907208-2.03084,1.772958-3.103823,2.592641-.736796.566439-1.492029,1.100612-2.251845,1.634813-2.353198-11.070541-11.973112-20.437183-17.641919-24.839603-.009219.004581-.013829.009191-.018438.013801-2.6479-2.689329-7.91607-7.03191-11.844157-3.932697,2.297912-2.786045,4.812276-5.116196,7.469366-6.727961h.00461c3.24194-1.970972,7.100969.847312,8.551568,1.906466,4.512937,3.297227,14.639422,12.963207,20.045766,23.089693l.009191-.00461s.059868.119736.170384.349988c.520372.999286,1.049963,2.127528,1.46901,3.126814Z" fill="url(#g)"/><path d="M44.520577,73.43112c.156556.101326.317749.207233.478914.308558-.188794-.110517-.368398-.230252-.543392-.345378-.110517-.073696-.221033-.151974-.326968-.225643.128955.087497.257881.179575.391446.262463Z" fill="url(#h)"/><path d="M49.056533,75.784319c-.013801.00461-.02302.00461-.036848.00461-.027629-.013829-.055258-.023048-.078278-.036848.013829,0,.02302,0,.032239-.00461.027629.013829.055258.027629.082887.036848Z" fill="url(#i)"/><path d="M38.096536,61.356711c-.036848.607869-.050649,1.211129-.01841,1.814388.01841.326968.046039.653908.101297.976267.036848.211842.073696.423656.115126.635498.013829.078278.032239.156584.050677.234862v.00461c.133536.653908.31314,1.303207.557192,1.924905.442094,1.114413,1.072983,2.145938,1.823607,3.080775.33155.409827.686147.801273,1.059154,1.17428.174994.170384.354569.345378.543392.520372.073668.064477.142755.128927.216424.198013.128955.110517.262491.225643.400636.340769.096716.082887.198042.161193.303949.248662.142755.115126.29473.225671.446676.340797.018438.01841.041458.032239.059868.046039.124345.092106.244081.184213.373007.27171.105935.073668.216452.151946.326968.225643.174994.115126.354597.234862.543392.345378.474333.299311.980876.584821,1.519659.87036.746015.396027,1.565726.773644,2.454496,1.137432-.009219.00461-.01841.00461-.032239.00461.02302.013801.050649.02302.078278.036848h-.013801c-3.039317.409827-5.793152.455895-8.252229.110517-3.421544-.478942-6.276676-1.680852-8.53774-3.605757-2.804484-2.390018-4.305732-6.046424-4.462288-10.863309-.326968-10.011359,5.037918-25.115895,12.995418-34.749637,3.928087-3.099213,9.196257,1.243367,11.844157,3.932697-.732186.594069-1.418333,1.234148-2.072269,1.911104-.686147.709167-1.330836,1.455181-1.938705,2.228825-.635498.801273-1.229567,1.630203-1.795978,2.477515-.58024.87036-1.128241,1.763739-1.644004,2.675529-.524982.921009-1.022306,1.860455-1.492029,2.813703-.469723.948638-.91179,1.915686-1.330864,2.891952-.409856.957857-.796663,1.929514-1.160452,2.910391-.349988.948638-.681565,1.911104-.985486,2.873542-.29012.921009-.56183,1.846627-.805883,2.781436-.230252.87036-.437485,1.745329-.617088,2.62488-.165775.801273-.30853,1.607156-.428266,2.413038-.101297.713804-.179575,1.42758-.225643,2.141356Z" fill="url(#j)"/><path d="M92.122904,43.783879c-.432875,1.086783-.893379,2.155157-1.395342,3.191291-2.500535,5.125415-5.935879,9.615332-9.992921,13.478942,0,.00461-.009219.023048-.032239.046067-.349988.423656-3.605757,3.527451-5.461602,4.849096-1.151261.838121-2.348561,1.690071-3.578099,2.509754-.101326.073696-.207233.142755-.31314.211842-5.341867,3.048536-11.72445,5.28658-15.132193,6.230609-2.541965.709195-4.922792,1.197328-7.160836,1.501249-.013801-.00461-.02302-.009219-.036848-.013801-.027629-.013829-.055258-.023048-.078278-.036848.013829,0,.02302,0,.032239-.00461.00461.00461.013829,0,.01841,0-.893379-.363788-1.717672-.746015-2.472906-1.137432-.538782-.285539-1.045326-.571049-1.519659-.87036-.188794-.110517-.368398-.230252-.543392-.345378-.110517-.073696-.221033-.151974-.326968-.225643-.128927-.087497-.248662-.179603-.373007-.27171-.01841-.013801-.04143-.027629-.059868-.046039-.151946-.115126-.30392-.225671-.446676-.340797-.105907-.087469-.207233-.165775-.303949-.248662-.138146-.115126-.271682-.230252-.400636-.340769-.073668-.069087-.142755-.133536-.216424-.198013-.188823-.174994-.368398-.349988-.543392-.520372-.373007-.373007-.727605-.764453-1.059154-1.17428-.750624-.934837-1.381513-1.966362-1.823607-3.080775-.244053-.621698-.423656-1.270996-.557192-1.924905v-.00461c0-.00461.004581-.00461.004581-.00461.769062.396027,2.670919.838121,5.954317.589431,3.932725-.31314,8.266058-1.450572,12.240212-2.914972,0,0,3.412325-1.340083,5.083957-2.118337.156584-.064449.299339-.133536.437485-.211814.736824-.349988,1.482838-.718386,2.196615-1.105222.119736-.064477.239471-.128927.368398-.198013.446704-.248662.88877-.501962,1.317036-.750624,1.211129-.699976,2.32096-1.547288,3.453782-2.348561.262491-.184213.524982-.368426.787472-.552611.759843-.534201,1.515049-1.068373,2.251873-1.634785,1.072955-.819711,2.109089-1.685461,3.103795-2.592641.985486-.897989,1.938705-1.837408,2.859714-2.790655.009219-.009219.013829-.013829.023048-.02302.087497-.101326.174994-.216452.262491-.317749,1.901857-2.192005,3.578099-4.605043,4.950421-7.229923,1.984772-3.831399,4.844486-9.288392,5.526052-13.409883,2.35778,2.37619,4.526737,9.463358,2.95643,16.380141Z" fill="url(#k)"/><path d="M49.056533,75.784319c-.01841.00461-.032239.00461-.050649.00461-1.77293-.722995-3.251159-1.524268-4.485307-2.357808,1.247949.82893,2.744588,1.625594,4.535956,2.353198Z" fill="url(#l)"/></svg>