<svg xmlns="http://www.w3.org/2000/svg" viewBox="0 0 342 96"><path fill="#fff" d="M153.988 34.78c-.463-2.032-1.46-3.823-2.965-5.332-1.789-1.844-4.231-3.101-7.258-3.734-2.82-.596-7.185-.885-13.343-.885-7.98 0-13.392.737-16.544 2.252-3.278 1.571-5.122 4.535-5.332 8.57l-.101 1.941h10.431l.373-1.355c.185-.673.52-1.062 1.12-1.302.785-.317 3.186-.844 10.496-.844 4.322 0 7.405.19 9.164.565 1.465.312 2.527.859 3.158 1.626.101.126.184.247.248.362.387.672.828 1.919.903 4.224a12.045 12.045 0 0 0-2.592-.806c-2.45-.479-7.22-.712-14.584-.712-9.633 0-12.62.793-14.029 1.389-2.222.967-3.825 2.41-4.779 4.295-.897 1.786-1.332 4.126-1.332 7.16 0 2.481.278 4.411.851 5.902.626 1.613 1.741 3 3.318 4.129 1.587 1.175 3.713 1.917 6.5 2.266 2.529.316 6.925.476 13.064.476 5.61 0 9.415-.306 11.633-.936.682-.194 1.334-.45 1.953-.768l-.04 1.586h10.297V43.98c0-3.907-.158-6.705-.483-8.553-.035-.214-.08-.438-.127-.647Zm-11.506 20.009c-1.042.414-3.722.91-10.556.91-10.599 0-12.633-.565-13.004-.738-.574-.274-1.246-.829-1.246-2.657 0-1.486.348-2.444 1.036-2.849.138-.078.812-.387 2.882-.58 1.681-.15 4.779-.226 9.201-.226 7.246 0 10.196.534 11.395.983 1.249.463 1.756 1.193 1.756 2.522 0 1.807-.739 2.346-1.462 2.634ZM162.552 9.143v55.74H172.842V8.574h-10.29v.569zM229.537 34.443c-1.072-2.873-3.067-5.191-5.921-6.867-1.839-1.061-4.044-1.765-6.753-2.161-2.562-.368-6.174-.547-11.045-.547-5.793 0-9.806.36-12.267 1.1-.787.24-1.524.544-2.206.911v-1.72h-10.289v63.79h10.289V63.004c.724.372 1.506.679 2.344.917 2.457.704 6.233 1.047 11.543 1.047 7.162 0 12.121-.433 15.163-1.324 3.275-.957 5.912-2.956 7.834-5.939 1.853-2.875 2.754-7.054 2.754-12.773 0-3.976-.399-7.253-1.186-9.74a13.84 13.84 0 0 0-.26-.747Zm-9.957 16.996c-.437 1.269-1.081 2.181-1.967 2.779-.508.336-1.577.808-3.704 1.093-1.873.257-4.842.387-8.827.387-7.044 0-9.84-.731-10.945-1.343l-.014-.008-.014-.008c-1.003-.534-1.707-1.412-2.152-2.684-.528-1.508-.795-3.893-.795-7.09 0-2.689.248-4.775.739-6.201a6.577 6.577 0 0 1 .777-1.571c.334-.491.716-.88 1.173-1.197.487-.327 1.556-.795 3.765-1.079 2.006-.258 5.196-.388 9.482-.388 6.537 0 9.195.727 10.274 1.336l.017.009.017.009a4.108 4.108 0 0 1 1.478 1.312c.269.386.49.828.659 1.319.517 1.474.777 3.816.777 6.965 0 2.765-.25 4.905-.742 6.36ZM274.615 36.585c.124.157.233.313.312.45l.015.026.017.026c.375.595.63 1.292.78 2.13.223 1.224.335 3.612.335 7.099v18.565h10.296v-20.29c0-3.97-.177-6.85-.542-8.805a9.123 9.123 0 0 0-.109-.547c-.474-2.125-1.437-3.971-2.859-5.478l-.014-.015-.014-.015c-1.691-1.714-4.011-2.919-6.895-3.581-2.72-.623-6.484-.925-11.51-.925-5.983 0-10.248.428-13.039 1.309-.976.311-1.869.706-2.676 1.182V8.574h-10.29v56.309h10.29V46.318c0-3.894.188-5.611.345-6.366.193-.906.609-1.707 1.27-2.442.036-.04.062-.071.09-.099l.015-.016.02-.022c.867-.917 2.231-1.618 4.056-2.083 2.108-.532 5.213-.802 9.222-.802 3.549 0 6.218.199 7.933.591 1.417.329 2.412.837 2.951 1.507ZM339.838 35.436a11.976 11.976 0 0 0-.128-.656c-.453-2.02-1.45-3.816-2.966-5.34-1.783-1.835-4.229-3.094-7.258-3.727-2.812-.595-7.176-.885-13.335-.885-7.978 0-13.391.736-16.549 2.251-3.28 1.576-5.124 4.54-5.334 8.571l-.101 1.941h10.437l.373-1.356c.186-.675.519-1.064 1.113-1.302.786-.317 3.187-.844 10.503-.844 4.322 0 7.405.19 9.164.565 1.464.312 2.527.859 3.158 1.626.085.106.169.231.242.362.387.672.828 1.919.902 4.223a12.13 12.13 0 0 0-2.591-.805c-2.451-.479-7.218-.712-14.578-.712-9.633 0-12.62.793-14.029 1.389-2.232.972-3.836 2.416-4.782 4.301-.898 1.789-1.336 4.129-1.336 7.154 0 2.469.281 4.4.859 5.902.615 1.607 1.729 2.997 3.311 4.129 1.588 1.176 3.716 1.917 6.507 2.266 2.522.316 6.918.476 13.064.476 5.613 0 9.416-.306 11.628-.936a10.69 10.69 0 0 0 1.951-.766l-.04 1.585h10.304V43.979c0-3.91-.159-6.705-.488-8.544Zm-11.627 19.353c-1.042.414-3.722.91-10.556.91-10.599 0-12.633-.565-13.004-.738-.574-.274-1.247-.829-1.247-2.657 0-2.243.775-2.699 1.029-2.849.18-.102.876-.393 2.887-.58 1.675-.15 4.771-.226 9.195-.226 7.245 0 10.199.535 11.402.984 1.243.461 1.748 1.191 1.748 2.521 0 1.809-.736 2.347-1.456 2.634Z"/><path fill="#fff" d="M210.315 80.954a5.26 5.26 0 0 0-1.481-.91 12.005 12.005 0 0 0-1.692-.548 20.63 20.63 0 0 1-1.574-.432c-.459-.147-.844-.326-1.155-.536s-.547-.451-.711-.723c-.163-.272-.244-.602-.244-.991 0-.265.054-.528.163-.794.109-.264.28-.501.513-.711.234-.21.529-.381.886-.513.358-.132.785-.198 1.284-.198s.936.058 1.318.175a4.61 4.61 0 0 1 1.003.432c.287.171.525.346.711.524.186.179.327.323.42.432l1.492-1.376a10.45 10.45 0 0 0-.537-.606 4.29 4.29 0 0 0-.933-.723 6.141 6.141 0 0 0-1.411-.595c-.551-.163-1.209-.245-1.97-.245-.856 0-1.609.116-2.263.35-.652.233-1.197.544-1.633.933-.436.389-.761.84-.979 1.353s-.327 1.057-.327 1.632c0 .622.109 1.178.327 1.668.218.49.525.921.921 1.294s.866.685 1.411.933c.543.249 1.15.443 1.819.583 1.229.265 2.17.61 2.822 1.038.654.428.979 1.069.979 1.924 0 .793-.287 1.423-.862 1.889-.575.467-1.376.7-2.402.7-.499 0-.957-.062-1.377-.187a5.07 5.07 0 0 1-2.063-1.178 10.952 10.952 0 0 1-.735-.758l-1.587 1.446c.234.311.533.626.899.944.365.319.793.611 1.282.875.49.265 1.034.482 1.633.653a7.249 7.249 0 0 0 1.994.257c.777 0 1.5-.113 2.17-.338a5.297 5.297 0 0 0 1.738-.956 4.54 4.54 0 0 0 1.154-1.458c.281-.559.42-1.174.42-1.842 0-.793-.129-1.466-.385-2.018a4.167 4.167 0 0 0-1.038-1.4ZM229.233 79.145c-.513-.528-1.12-.944-1.819-1.248s-1.462-.455-2.287-.455a5.75 5.75 0 0 0-2.309.455c-.7.303-1.302.719-1.807 1.248a5.9 5.9 0 0 0-1.189 1.831c-.289.692-.432 1.435-.432 2.228s.143 1.536.432 2.228a5.889 5.889 0 0 0 1.189 1.831 5.482 5.482 0 0 0 1.807 1.248 5.75 5.75 0 0 0 2.309.455c.824 0 1.587-.152 2.287-.455s1.306-.719 1.819-1.248a5.756 5.756 0 0 0 1.633-4.059c0-.794-.144-1.535-.432-2.228a5.794 5.794 0 0 0-1.201-1.831Zm-.735 5.517c-.163.474-.4.895-.711 1.26a3.571 3.571 0 0 1-1.143.886c-.45.226-.956.338-1.516.338s-1.061-.112-1.504-.338a3.674 3.674 0 0 1-1.143-.898 3.932 3.932 0 0 1-.723-1.259 4.453 4.453 0 0 1 0-2.905c.164-.475.4-.894.711-1.259a3.588 3.588 0 0 1 1.143-.887c.452-.225.957-.338 1.516-.338s1.062.113 1.504.338c.444.226.824.525 1.143.898.319.373.56.797.723 1.271a4.39 4.39 0 0 1 0 2.893ZM244.836 72.623c-.497 0-.971.081-1.423.245-.45.163-.851.416-1.201.758-.349.342-.629.781-.839 1.318-.21.536-.315 1.17-.315 1.901v.887h-1.96v1.749h1.96v9.486h2.099v-9.486h3.102v-1.749h-3.102v-.7c0-.948.182-1.617.549-2.006.365-.389.851-.583 1.457-.583.654 0 1.268.241 1.843.723l1.05-1.353a4.087 4.087 0 0 0-1.528-.921 5.457 5.457 0 0 0-1.692-.268ZM261.258 86.999c-.265.125-.6.186-1.004.186-.497 0-.882-.163-1.154-.49-.273-.327-.408-.925-.408-1.796v-5.342h3.173v-1.749h-3.173v-3.545h-2.099v3.545h-1.96v1.749h1.96v5.552c0 1.322.268 2.294.805 2.915.536.622 1.38.933 2.531.933.652 0 1.216-.097 1.691-.291.474-.194.937-.509 1.387-.945l-.956-1.282a3.129 3.129 0 0 1-.793.56ZM282.422 86.47l-2.614-8.35h-1.795l-2.612 8.28-2.426-8.28h-2.31l3.662 10.846h1.96l2.495-7.581 2.52 7.581h2.075l3.593-10.846h-2.17l-2.378 8.35zM304.23 86.517v-5.131c0-1.244-.4-2.205-1.201-2.881-.801-.676-1.901-1.015-3.3-1.015-.592 0-1.112.043-1.563.129s-.856.194-1.213.326a5.872 5.872 0 0 0-.933.432c-.264.156-.49.311-.676.467l.979 1.423a7.668 7.668 0 0 1 1.213-.688c.482-.225 1.135-.338 1.96-.338.84 0 1.504.175 1.994.524.49.35.735.93.735 1.738v.396a4.289 4.289 0 0 0-.396-.047 39.705 39.705 0 0 0-.654-.047 234.81 234.81 0 0 0-.793-.047c-.28-.015-.545-.023-.793-.023-1.54 0-2.717.35-3.534 1.049s-1.225 1.633-1.225 2.799c0 .622.113 1.147.339 1.575.224.428.52.778.886 1.049.365.272.769.467 1.213.583.444.117.89.175 1.341.175.7 0 1.38-.133 2.041-.396a3.619 3.619 0 0 0 1.597-1.213l.015 1.609h1.99c-.016-.265-.024-.89-.024-1.271v-1.178Zm-2.006-1.75c0 .326-.085.645-.256.956a2.86 2.86 0 0 1-.677.816c-.28.233-.603.42-.967.56-.366.14-.751.21-1.155.21-.715 0-1.275-.152-1.679-.455s-.606-.75-.606-1.341c0-.233.038-.478.117-.734.077-.257.221-.49.431-.7.21-.209.497-.385.864-.524.365-.14.843-.21 1.435-.21.248 0 .504.008.769.023.264.016.513.031.747.047.232.015.438.035.618.058.179.024.299.043.361.058v1.237ZM320.057 77.514c-.499 0-.937.066-1.318.198a4.61 4.61 0 0 0-1.004.478 3.582 3.582 0 0 0-.734.618 5.642 5.642 0 0 0-.491.618l-.07-1.749h-2.006c.016.358.024.704.024 1.038v1.178l-.024 9.073h2.099l.024-6.157a3.465 3.465 0 0 1 .909-2.344c.279-.303.61-.54.991-.711a3.013 3.013 0 0 1 1.248-.257c.436 0 .793.055 1.072.163l.467-1.96a3.084 3.084 0 0 0-.549-.14 4.077 4.077 0 0 0-.641-.047ZM339.878 81.431a6.085 6.085 0 0 0-.944-2.029 4.794 4.794 0 0 0-1.645-1.423c-.669-.358-1.47-.537-2.402-.537a5.28 5.28 0 0 0-2.182.444c-.66.295-1.233.696-1.714 1.201s-.856 1.105-1.12 1.796a6.199 6.199 0 0 0-.396 2.228c0 .871.136 1.664.408 2.379a5.313 5.313 0 0 0 1.155 1.842c.497.513 1.096.91 1.796 1.19.7.28 1.469.42 2.309.42a6.9 6.9 0 0 0 1.831-.222 7.43 7.43 0 0 0 1.399-.525c.396-.201.719-.411.969-.629.248-.218.434-.396.559-.537l-1.189-1.259c-.265.295-.692.599-1.282.91-.592.311-1.345.467-2.263.467-.466 0-.91-.085-1.33-.257-.42-.171-.793-.404-1.12-.7s-.587-.645-.781-1.049a3.26 3.26 0 0 1-.315-1.33h8.56c0-.824-.101-1.617-.303-2.379Zm-8.257.816c.016-.388.101-.766.256-1.131.156-.366.374-.688.654-.968s.618-.505 1.015-.677a3.351 3.351 0 0 1 1.341-.257c.963 0 1.71.296 2.239.887.528.591.823 1.306.886 2.146h-6.391ZM36.596 91.797a37.976 37.976 0 0 1-2.419-.781c-9.389-3.382-17.224-10.45-22.063-19.9l-.113-.247c-.44-.968-.896-1.97-1.271-2.993a43.998 43.998 0 0 1-1.962-6.733 46.732 46.732 0 0 1-.84-6.972 44.338 44.338 0 0 1 .231-7.019c.994-9.258 4.779-18.338 10.657-25.567 1.596-1.958 3.168-3.627 4.805-5.102 1.91-1.736 3.706-3.157 5.49-4.344a45.279 45.279 0 0 1 6.079-3.456 44.638 44.638 0 0 1 6.426-2.422l-.002-.021.161-.023.327-.093v-.019l.148-.019c5.025-1.349 10.121-1.745 15.144-1.174a.526.526 0 0 1 .073.008l.369.047c.252.031.503.062.724.1 11.279 2.071 20.353 7.689 26.242 16.249a41.294 41.294 0 0 1 2.326 3.758l.12-.064c-2.023-5.856-5.918-11.44-10.991-15.749l-.98-.804-1.008-.763a38.837 38.837 0 0 0-2.087-1.443 29.85 29.85 0 0 0-2.186-1.307L69.91 4.9c-.717-.374-1.458-.76-2.207-1.09-2.878-1.357-6.09-2.383-9.556-3.052-5.721-1.104-11.689-1.001-17.26.297h-.001l-.001-.005-.426.097V1.14c-.958.226-1.916.484-2.86.771-5.7 1.73-10.994 4.447-15.309 7.858l-1.212.965c-.545.433-1.035.826-1.509 1.257-1.807 1.536-3.563 3.329-5.534 5.649-1.864 2.211-3.379 4.31-4.631 6.417-1.475 2.455-2.658 4.765-3.616 7.061a52.075 52.075 0 0 0-2.522 7.531 55.03 55.03 0 0 0-1.367 7.837c-.231 2.241-.284 4.552-.162 7.065.536 11.056 4.516 21.228 11.206 28.643 6.973 7.728 16.212 12.557 26.014 13.597 9.008.953 18.494-1.364 26.07-6.367l-.125-.267c-8.681 4.346-18.978 5.311-28.306 2.642Z"/><path fill="#fff" d="M74.015 65.92a111.794 111.794 0 0 1-3.279 2.307c.055 1.013.055 2.671.051 4.154v.764c0 5.139-.695 8.611-1.584 11.282a30.678 30.678 0 0 1-.686 1.851c3.569-1.649 7.469-4.633 9.459-6.848.129-.806.244-1.593.341-2.362.764-5.945.617-10.767.253-15.082-1.211 1.165-3.205 2.97-4.554 3.933ZM87.453 30.267c-1.133 3.564-3.187 7.529-4.775 10.596l-.129.249a38.049 38.049 0 0 1-5.029 7.345c0 .005-.005.009-.009.014l-.12.147c-.046.055-.092.115-.138.17l-.041.042a61.86 61.86 0 0 1-2.897 2.827 48.826 48.826 0 0 1-3.15 2.629 67.362 67.362 0 0 1-2.27 1.649l-.76.534-.028.018c-.249.175-.497.355-.746.534-.875.631-1.787 1.285-2.758 1.847-.428.249-.875.507-1.326.755l-.378.203c-.631.341-1.349.705-2.201 1.11a4.148 4.148 0 0 1-.493.235c-1.644.769-4.95 2.068-5.093 2.123-3.113 1.147-7.787 2.588-12.424 2.956-1.828.14-3.192.067-4.185-.076-1.078-.288-1.868-.602-2.433-.88-.011-.05-.025-.095-.036-.145l-.005-.023c-.018-.078-.032-.157-.046-.23-.041-.207-.078-.424-.115-.64a8.314 8.314 0 0 1-.111-1.05 15.464 15.464 0 0 1 .018-1.888v-.005c.046-.695.12-1.414.23-2.192.124-.824.267-1.644.438-2.455.175-.857.382-1.755.622-2.657.23-.884.497-1.801.815-2.809.299-.944.631-1.92.995-2.906.373-.995.764-1.985 1.174-2.943a63.594 63.594 0 0 1 1.345-2.924c.479-.967.99-1.93 1.51-2.846a43.168 43.168 0 0 1 1.667-2.712 38.93 38.93 0 0 1 1.828-2.524c.64-.81 1.308-1.575 1.98-2.275a26.7 26.7 0 0 1 1.391-1.334c.468-.323.93-.622 1.387-.897 1.307 1.115 2.622 2.221 3.889 3.382a64.708 64.708 0 0 1 3.042 2.977 58.882 58.882 0 0 1 3.239 3.678 49.061 49.061 0 0 1 3.111 4.295 39.265 39.265 0 0 1 2.66 4.828 30.861 30.861 0 0 1 1.884 5.276c.005.023.014.046.018.069a46.513 46.513 0 0 0 4.499-3.619 60.415 60.415 0 0 0 2.528-2.45l-.032-.074a43.971 43.971 0 0 0-1.243-2.606c-.032-.069-.06-.124-.083-.17l-.097-.17C69.041 34.894 58.809 25.37 54.72 22.386c-1.359-.99-4.96-3.62-7.829-1.879l-.161.097c-1.581.981-3.15 2.26-4.69 3.797-.019.008-.042.023-.061.035l-.005.004c-.108.111-.213.23-.32.344-.067.069-.135.13-.201.2.005 0 .011 0 .017-.002a46.531 46.531 0 0 0-1.877 2.128c-.018.01-.038.026-.055.038l-.005.005c-.235.285-.461.591-.691.886-.141.178-.28.357-.419.538-.137.181-.275.357-.41.541-.139.185-.281.365-.419.553l.027.002c-6.615 9.268-11.193 22.351-10.886 31.738.152 4.623 1.575 8.119 4.232 10.384 2.155 1.833 4.914 2.998 8.206 3.458 1.369.193 2.864.255 4.46.198l.027.025c.205-.013.421-.043.628-.058.205-.011.405-.016.613-.031h.023l-.044-.023a52.75 52.75 0 0 0 2.542-.272c.016.007.034.015.049.019h.018l.097.005a50.39 50.39 0 0 0 2.432-.418l.021-.003a53.725 53.725 0 0 0 1.551-.31v-.016a57.215 57.215 0 0 0 2.779-.693c3.744-1.041 9.915-3.279 14.985-6.171.074-.051.166-.11.253-.17a109.419 109.419 0 0 0 3.578-2.51c1.713-1.22 4.573-3.933 5.227-4.614l.659-.668c.18-.175.359-.35.534-.53 3.716-3.735 6.691-7.875 8.865-12.323a47.41 47.41 0 0 0 1.358-3.099c.235-1.05.378-2.095.451-3.127.327-4.789-.953-9.219-2.436-11.554-.111.442-.244.898-.391 1.359Z"/></svg>