<?xml version="1.0" encoding="UTF-8"?><svg id="a" xmlns="http://www.w3.org/2000/svg" width="342" height="96" xmlns:xlink="http://www.w3.org/1999/xlink" viewBox="0 0 342 96"><defs><radialGradient id="b" cx="63.421885605" cy="31.003762742" fx="63.421885605" fy="31.003762742" r="48.969707374" gradientTransform="translate(120.573797275 -11.110920948) rotate(116.911862727) scale(1 1.028928612)" gradientUnits="userSpaceOnUse"><stop offset=".045453813" stop-color="#8dc8e8"/><stop offset=".471572325" stop-color="#62b5e5"/><stop offset=".804889509" stop-color="#009cde"/><stop offset=".932770199" stop-color="#004c97"/><stop offset="1" stop-color="#003865"/></radialGradient><radialGradient id="c" cx="56.442238354" cy="35.449927077" fx="56.442238354" fy="35.449927077" r="82.517683801" gradientTransform="translate(123.286383104 110.822331892) rotate(-166.7958071) scale(.966844278) skewX(.157531344)" gradientUnits="userSpaceOnUse"><stop offset=".338609272" stop-color="#c63527"/><stop offset=".430556785" stop-color="#e35205"/><stop offset=".728254361" stop-color="#ff8f1c"/><stop offset=".960000441" stop-color="#ffb549"/></radialGradient><radialGradient id="d" cx="69.864095331" cy="28.344450047" fx="69.864095331" fy="28.344450047" r="52.636984452" gradientUnits="userSpaceOnUse"><stop offset="0" stop-color="#0084ca"/><stop offset=".8" stop-color="#002554"/></radialGradient><radialGradient id="e" cx="104.179315843" cy="-52.437838557" fx="104.179315843" fy="-52.437838557" r="155.481301329" gradientUnits="userSpaceOnUse"><stop offset=".464121458" stop-color="#009cde"/><stop offset=".793488736" stop-color="#004c97"/><stop offset=".879357656" stop-color="#003865"/></radialGradient><linearGradient id="f" x1="68.166257593" y1="25.237294608" x2="74.800357426" y2="85.416794344" gradientUnits="userSpaceOnUse"><stop offset=".539432329" stop-color="#ffb549"/><stop offset=".66872033" stop-color="#ff8f1c"/><stop offset=".887734053" stop-color="#e35205"/><stop offset="1" stop-color="#c63527"/></linearGradient><linearGradient id="g" x1="46.812493743" y1="22.368919261" x2="86.8670631" y2="68.251758072" gradientUnits="userSpaceOnUse"><stop offset="0" stop-color="#c63527"/><stop offset=".102710893" stop-color="#e35205"/><stop offset=".443889321" stop-color="#ff8f1c"/><stop offset=".74061571" stop-color="#ffb549"/></linearGradient><linearGradient id="h" x1="42.802700939" y1="73.348550714" x2="43.673060819" y2="73.348550714" gradientUnits="userSpaceOnUse"><stop offset=".161670918" stop-color="#d5411f"/><stop offset=".282391264" stop-color="#df581f"/><stop offset=".448579182" stop-color="#ec731f"/><stop offset=".597172191" stop-color="#f3831f"/><stop offset=".712332589" stop-color="#f6891f"/><stop offset="1" stop-color="#f6891f"/></linearGradient><linearGradient id="i" x1="47.614976539" y1="75.662582032" x2="47.730102615" y2="75.662582032" xlink:href="#h"/><linearGradient id="j" x1="33.506157973" y1="71.901975132" x2="52.155243238" y2="28.314797622" gradientUnits="userSpaceOnUse"><stop offset="0" stop-color="#c63527"/><stop offset=".199118763" stop-color="#e35205"/><stop offset=".621673626" stop-color="#ff8f1c"/><stop offset=".99999983" stop-color="#ffb549"/></linearGradient><linearGradient id="k" x1="42.902457352" y1="74.742937371" x2="92.913056986" y2="36.291634627" gradientUnits="userSpaceOnUse"><stop offset="0" stop-color="#ffb549"/><stop offset=".310555606" stop-color="#ff8f1c"/><stop offset=".750633748" stop-color="#e35205"/><stop offset=".999999915" stop-color="#c63527"/></linearGradient><linearGradient id="l" x1="43.194146461" y1="74.504406961" x2="48.347431363" y2="74.504406961" gradientUnits="userSpaceOnUse"><stop offset="0" stop-color="#f6891f"/><stop offset=".207151394" stop-color="#f4841f"/><stop offset=".428995308" stop-color="#ee771f"/><stop offset=".657680819" stop-color="#e4621f"/><stop offset=".889725858" stop-color="#d6441f"/><stop offset=".914640466" stop-color="#d5411f"/></linearGradient></defs><path d="M153.987808272,34.779622509c-.462880439-2.031824252-1.45970595-3.822604956-2.964867655-5.331848075-1.78878001-1.844319261-4.230586366-3.100594699-7.257555546-3.733934221-2.820177504-.595486402-7.18521047-.885266843-13.342864779-.885266843-7.98036608,0-13.391521644.736575305-16.543974318,2.251900533-3.277936168,1.571424673-5.122415484,4.535251967-5.332408269,8.570090485l-.10051484,1.940752686h10.430495321l.37260915-1.355509834c.185024131-.67271317.519860189-1.062048117,1.119748117-1.301811222.784912059-.316509706,3.185744213-.844292641,10.496438177-.844292641,4.321497877,0,7.404806585.189985851,9.163496165.56475575,1.464827725.312028152,2.52695587.859097772,3.157574449,1.62600359.101155061.126123716.184383909.247205684.2484061.361965461.387334254.672393059.828447149,1.919145196.90271289,4.22442423-.791314278-.352762271-1.656254075-.621895556-2.591618282-.806039382-2.450129241-.478966015-7.220422675-.71160665-14.584255058-.71160665-9.633419046,0-12.620054245.792834805-14.029182664,1.389121484-2.222210242.967135219-3.824685677,2.409875288-4.779256541,4.295328807-.896950893,1.786139095-1.331661568,4.126310223-1.331661568,7.160001733,0,2.480699837.27849653,4.411128944.851495137,5.901645573.625496804,1.612879041,1.741403589,3.000399971,3.317629926,4.128871111,1.587110109,1.175367395,3.713287065,1.916584309,6.499532807,2.265825359,2.529516757.316109567,6.924640154.476405127,13.064368249.476405127,5.610264577,0,9.415103375-.3061061,11.633472285-.935764346.682476554-.193827183,1.334222456-.450396112,1.95331704-.768346317l-.04033398,1.586469887h10.297329164v-20.868993415c0-3.907194275-.158134811-6.704964012-.48336754-8.553204632-.034571983-.213674062-.080027738-.43807184-.126763938-.646944238ZM143.944006984,52.154524835c0,1.807026335-.738816082,2.34577307-1.462266837,2.634433123-1.042281266.414543685-3.72160995.909835359-10.555978815.909835359-10.598873683,0-12.632858683-.564675723-13.00418739-.737695693-.573638829-.27353481-1.246512054-.828927315-1.246512054-2.656840889,0-1.48587502.348280718-2.444207188,1.035879047-2.848507323.13764771-.078507211.812441601-.387014143,2.881638807-.580041048,1.680582508-.149971982,4.778616319-.226318444,9.200629036-.226318444,7.246031552,0,10.196174103.534505265,11.394669514.982980712,1.249072942.46320055,1.756128693,1.193373636,1.756128693,2.522154206Z" fill="#e35205"/><polygon points="162.552056732 8.573974651 162.552056732 9.143376713 162.552056732 63.037657045 162.552056732 64.8825365 164.39717627 64.8825365 170.996583695 64.8825365 172.841703233 64.8825365 172.841703233 63.037657045 172.841703233 9.143376713 172.841703233 8.573974651 162.552056732 8.573974651" fill="#e35205"/><path d="M229.537194494,34.442865786c-1.072371695-2.873475977-3.06730316-5.1908392-5.921412425-6.867260266-1.838717319-1.060607618-4.043641569-1.7650918-6.753060683-2.161389161-2.562168075-.368047569-6.173659856-.546589454-11.045108352-.546589454-5.793368043,0-9.805638739.35988474-12.266651752,1.100061293-.787472947.240403326-1.52372814.544508733-2.205564472.910795691v-1.720196238h-10.289006279v63.790027779h10.289006279v-25.945230369c.724090978.372529123,1.506442149.67871525,2.343852404.916717744,2.45653146.703923988,6.233200494,1.046602764,11.542560775,1.046602764,7.16152226,0,12.121321379-.433030093,15.163015663-1.323978905,3.27537528-.957291808,5.911809096-2.955584437,7.833755263-5.939178583,1.853442423-2.875476671,2.754234647-7.053724896,2.754234647-12.773227337,0-3.976098158-.398858249-7.25315402-1.185690973-9.740176049-.080027738-.246165324-.163256586-.497772533-.259930095-.746978911ZM220.322480576,45.079672616c0,2.76543853-.249686544,4.905140174-.742017191,6.35964432-.436631341,1.268759766-1.08069458,2.180595818-1.966761701,2.779203301-.508336195.336276557-1.576866559.808120103-3.703683736,1.09309888-1.873289302.257129124-4.841998288.387174199-8.827379664.387174199-7.044361651,0-9.8395705-.730573224-10.944593513-1.343425646l-.014084882-.007842718-.014084882-.007602635c-1.003227729-.53362496-1.706831606-1.411529251-2.151785832-2.683890265-.527542852-1.507482509-.794515387-3.893029365-.794515387-7.090457628,0-2.688932012.2484061-4.775335182.738816082-6.201349454.211913451-.603809287.467361993-1.12102856.777229396-1.571184589.334195836-.491450342.715768093-.879904984,1.172886535-1.197054912.48656865-.327473506,1.555739236-.794755471,3.765145039-1.078773915,2.005815237-.257769346,5.196041003-.388454643,9.482326675-.388454643,6.536665678,0,9.194867039.726731893,10.274281175,1.336463232l.01664577.009363245.01664577.009123162c.612692366.329234116,1.096059906.758262822,1.478272385,1.311574606.268893201.386293894.489769759.828287093.659428565,1.319017185.51665908,1.474030915.777229396,3.815562515.777229396,6.965374273Z" fill="#e35205"/><path d="M285.719868007,35.240422227c-.473764212-2.124896512-1.436657961-3.970576244-2.85923104-5.478138781l-.014084882-.014965187-.014084882-.014645076c-1.69146628-1.713954075-4.010990252-2.91869165-6.895189946-3.580921185-2.719662664-.622775861-6.484167482-.925440768-11.509909457-.925440768-5.982873728,0-10.248032077.428308456-13.038759373,1.309253801-.976338409.311307903-1.869447971.706004709-2.676127574,1.182009697V8.573974651h-10.289646501v56.308561849h10.289646501v-18.565394964c0-3.894309809.187585019-5.611464994.345079608-6.366206595.192706794-.905913999.608851034-1.707231745,1.270200265-2.44236655.035852427-.040173925.062101525-.071384743.089631067-.098754229l.015365326-.015605409.020487101-.021687517c.866860463-.916637716,2.231173348-1.61752065,4.055805785-2.083282088,2.108250742-.531624267,5.212686773-.801797912,9.221756359-.801797912,3.549390256,0,6.217835168.198948958,7.932989659.59132496,1.416811082.329314144,2.411715926.836690006,2.950782773,1.506522177.12420305.157014423.233040774.313468652.312428291.449595835l.015365326.026489181.01664577.026009015c.374529816.595326346.629978357,1.292207893.780430506,2.130418426.222797224,1.224424399.33547628,3.611971948.33547628,7.099340707v18.565394964h10.29604872v-20.290232811c0-3.969615911-.177341468-6.850054302-.541627734-8.804491731-.032011095-.194707488-.07042441-.374849927-.109477946-.547389731Z" fill="#e35205"/><path d="M339.83846609,35.435609881c-.037773093-.233280858-.082588626-.451836611-.128044382-.655587234-.452636889-2.020300258-1.450102621-3.815882626-2.966148099-5.339850849-1.783018013-1.835436182-4.229305922-3.094512591-7.257555546-3.726571669-2.811854619-.595166291-7.175607142-.88502676-13.335182116-.88502676-7.977805192,0-13.390881422.736335222-16.549096093,2.251180283-3.279856833,1.576306365-5.123695928,4.539893575-5.333688713,8.570810734l-.10051484,1.940752686h10.43689754l.37260915-1.355589862c.185664353-.674713863.518579745-1.063968783,1.112705676-1.301731194.785552281-.316509706,3.187024657-.844292641,10.503480618-.844292641,4.321497877,0,7.404806585.189985851,9.163496165.56475575,1.464187503.312028152,2.52695587.859097772,3.157574449,1.62600359.085149514.106356864.169018584.231040081.242003881.361965461.387334254.672233003.827806927,1.918585002.902072668,4.222983731-.790033834-.351561855-1.654973631-.620295001-2.590978061-.804598883-2.450769463-.478966015-7.217861788-.71160665-14.577852839-.71160665-9.633419046,0-12.620054245.792834805-14.029182664,1.389121484-2.232453792.9716968-3.836209671,2.416277508-4.782457651,4.301010776-.898231337,1.789260177-1.3355029,4.129431305-1.3355029,7.154319763,0,2.469175843.281057417,4.39960495.858537578,5.901565545.615253253,1.606636877,1.729239373,2.996798722,3.311227707,4.129111194,1.587750331,1.175847561,3.716488174,1.916904419,6.506575248,2.265665304,2.521834095.316109567,6.917597713.476405127,13.063728027.476405127,5.612825465,0,9.416383819-.306266155,11.62835051-.936164485.682476554-.193827183,1.333582234-.449595835,1.951396375-.76610554l-.039693758,1.584629249h10.303731383v-20.868993415c0-3.910315357-.159415255-6.705364151-.488489316-8.544161497ZM329.66662042,52.154524835c0,1.809267111-.735614972,2.347053514-1.455864618,2.634433123-1.042281266.414543685-3.72160995.909835359-10.555978815.909835359-10.598873683,0-12.632858683-.564595695-13.00418739-.737695693-.573638829-.27353481-1.246512054-.828927315-1.246512054-2.656840889,0-2.243097481.774668508-2.698775424,1.029476828-2.848507323.179902356-.1015552.876463792-.393096251,2.887400804-.579961021,1.675460733-.15005201,4.770933656-.226398472,9.194867039-.226398472,7.244751108,0,10.199375212.534905404,11.402352177.983620933,1.242670723.460879746,1.74844603,1.191052832,1.74844603,2.521513984Z" fill="#e35205"/><path d="M202.035216052,84.791108438c.217895682.24874236.462043856.501422594.735069772.758040702.271713291.256618108.578867445.485671099.921462464.687815286.341282394.202144187.721943526.365565949,1.141983395.489608973.42003987.124699336.878145852.187049004,1.376943197.187049004,1.026472431,0,1.827173432-.233647177,2.402103004-.70028522.574929571-.46598173.862394357-1.096041535.862394357-1.888866788,0-.855174922-.325530899-1.496392035-.979217946-1.924307652-.652374422-.427915617-1.593526255-.773792197-2.822142873-1.038286052-.669438542-.139794519-1.275871104-.334062959-1.819297685-.582805319-.544739206-.24874236-1.01465881-.559834389-1.411071437-.933276085s-.703566781-.804638875-.921462464-1.294247848c-.217895682-.490265285-.326843523-1.0461618-.326843523-1.668345857,0-.574929571.108947841-1.119012465.326843523-1.63224868s.543426581-.964122763.979217946-1.353315955c.435791365-.388536879.98053057-.699628908,1.632904993-.932619773.653687047-.233647177,1.407133563-.349814454,2.262964797-.349814454.761322264,0,1.418947184.081382725,1.970249513.244804486.552614953.163421762,1.022534557.361628075,1.411071437.59461894s.700941532.47451379.933276085.72325615c.233647177.24874236.412164122.450886547.536863458.606432562l-1.492454161,1.376286885c-.093196346-.108947841-.233647177-.252680234-.42003987-.431853491-.186392692-.178516945-.423977743-.353096015-.711442529-.524393525s-.622184057-.315029902-1.002845188-.431853491c-.381973756-.116823589-.82039037-.174579071-1.317875091-.174579071-.498797345,0-.925400338.066287542-1.283746851.198206313-.357033889.131918772-.652374422.303216281-.8860216.513236216-.233647177.209363622-.404288374.446948674-.513236216.710786217-.108947841.265150168-.162765449.528987711-.162765449.793481566,0,.388536879.081382725.719318277.244148174.991031567.164078074.272369603.400350501.513236216.711442529.72325615s.695691034.389193192,1.155109641.536207146c.458105983.148326579.98315582.292058972,1.573836886.431853491.576242196.139794519,1.139358146.32290565,1.691973099.548020767.551302329.22577143,1.044849175.528987711,1.48064054.909648842.435791365.381317444.781011632.847955487,1.038286052,1.399914128.255961795.551958641.384599006,1.224022432.384599006,2.017503998,0,.66878223-.139138207,1.283090539-.42003987,1.842268615-.279589038.559834389-.664188044,1.0461618-1.153797017,1.458325922s-1.069789043.731131898-1.73791496.956247015c-.669438542.225115118-1.392694692.338000832-2.169768451.338000832-.731131898,0-1.395319942-.085320598-1.993876756-.256618108-.598556814-.170641197-1.14329602-.388536879-1.632904993-.653030735-.489608973-.263837543-.91752459-.555896515-1.282434227-.874864291-.366222261-.318311464-.665500668-.633341366-.899147846-.944433394l1.586963132-1.445855988Z" fill="#004c97"/><path d="M225.126770275,88.965910954c-.840079739,0-1.60927775-.15160814-2.308906658-.454824421s-1.302123595-.719318277-1.807484064-1.248305987c-.505360468-.528331398-.901773095-1.138701834-1.189237881-1.831111306-.28877741-.69175316-.431853491-1.434042367-.431853491-2.227523933,0-.792825254.143076081-1.535114461.431853491-2.227523933.287464786-.69175316.683877413-1.302123596,1.189237881-1.831111306.505360468-.528331398,1.107855156-.944433394,1.807484064-1.247649675s1.468826919-.454824421,2.308906658-.454824421c.824328244,0,1.586963132.15160814,2.28659204.454824421s1.306061469.719318277,1.819297685,1.247649675c.513236216.528987711.913586716,1.139358146,1.201051502,1.831111306.287464786.692409472.431853491,1.434698679.431853491,2.227523933,0,.793481566-.144388705,1.535770773-.431853491,2.227523933-.287464786.692409472-.687815286,1.302779908-1.201051502,1.831111306-.513236216.528987711-1.119668777.945089706-1.819297685,1.248305987s-1.462263796.454824421-2.28659204.454824421ZM225.126770275,87.145956957c.560490701,0,1.065851169-.112229403,1.516081404-.338000833.45154286-.225115118.832203991-.520455651,1.14329602-.8860216s.54867708-.785605818.711442529-1.260119609c.162765449-.473857478.245460799-.959528577.245460799-1.45766961,0-.481733225-.082695349-.960184889-.245460799-1.434698679-.162765449-.473857478-.404288374-.897835221-.72325615-1.270620605-.318967776-.373441696-.699628908-.672720104-1.14329602-.898491533-.442354488-.225115118-.943777082-.338000833-1.504267783-.338000833-.559178076,0-1.064538544.112885715-1.516081404.338000833-.45154286.22577143-.832203991.521111963-1.14329602.886677912s-.547364455.784949506-.711442529,1.259463296c-.162765449.47451379-.244148174.960184889-.244148174,1.45766961,0,.498141033.081382725.979874258.244148174,1.446512301.164078074.46598173.404288374.8860216.72325615,1.259463296.318967776.372785384.699628908.672720104,1.14329602.897835221.443667112.22577143.945089706.338000833,1.504267783.338000833Z" fill="#004c97"/><path d="M241.058094951,79.480285664h-1.959748516v-1.749072269h1.959748516v-.886677912c0-.730475586.105009967-1.364473264.315029902-1.90068041.210019935-.536863458.489608973-.975936384.838767114-1.317875091.350470766-.341938706.750821267-.59461894,1.201051502-.758040702.45154286-.163421762.925400338-.244804486,1.422885058-.244804486.576242196,0,1.139358146.089258472,1.691973099.267775417.551302329.179173257,1.060600671.486327411,1.527895025.921462464l-1.050099674,1.353315955c-.574929571-.482389538-1.189237881-.72325615-1.842924928-.72325615-.606432562,0-1.092103661.19426844-1.457013297.582805319-.366222261.389193192-.54867708,1.057975421-.54867708,2.006346689v.699628908h3.101731911v1.749072269h-3.101731911v9.48562529h-2.098886723v-9.48562529Z" fill="#004c97"/><path d="M256.592709115,79.557617864h-1.959748516v-1.749072269h1.959748516v-3.545399024h2.098886723v3.545399024h3.172613639v1.749072269h-3.172613639v5.341725778c0,.870926417.135200333,1.469483231.408226248,1.796326754.271713291.326187211.656312296.489608973,1.153797017.489608973.404288374,0,.739007645-.061693356,1.004157813-.186392692.263837543-.124699336.527675086-.311092028.792825254-.559834389l.955590703,1.282434227c-.450230235.435791365-.913586716.750821267-1.387444194.945089706-.475170102.19426844-1.038286052.291402659-1.690660475.291402659-1.151171767,0-1.99518938-.311092028-2.530740214-.933276085-.536863458-.621527744-.804638875-1.593526255-.804638875-2.915339219v-5.551745713Z" fill="#004c97"/><path d="M270.664628627,78.119693948h2.310219282l2.425730246,8.28069224,2.612122939-8.28069224h1.795670442l2.613435563,8.350261344,2.378475761-8.350261344h2.169768451l-3.592653509,10.846217006h-2.07525948l-2.520239217-7.58040702-2.49529935,7.58040702h-1.959748516l-3.662222612-10.846217006Z" fill="#004c97"/><path d="M302.247688941,87.356633204c-.404288374.544082893-.937213959.948371268-1.597464129,1.212865123-.661562794.263837543-1.341502333.396412627-2.041131241.396412627-.45154286,0-.897835221-.058411794-1.341502333-.175235383-.443667112-.116167276-.847955487-.310435716-1.212865123-.582805319-.366222261-.271713291-.661562794-.621527744-.8860216-1.049443361-.22577143-.427915617-.338657145-.952309142-.338657145-1.574493198,0-1.16626695.408226248-2.099543035,1.224678745-2.799171943s1.993876756-1.049443362,3.533585402-1.049443362c.248086048,0,.513236216.007875748.792825254.02297093.279589038.015751495.544739206.03150299.792825254.046598173.249398673.015751495.467294355.03150299.653687047.046598173.186392692.015751495.318967776.03150299.396412627.046598173v-.396412627c0-.807920437-.245460799-1.387444194-.735069772-1.73791496-.489608973-.349814454-1.153797017-.524393525-1.993876756-.524393525-.824328244,0-1.478015291.112885715-1.959748516.338000833-.481733225.22577143-.8860216.454824421-1.212865123.688471599l-.979217946-1.422885058c.186392692-.155546014.412164122-.311092028.676001665-.466638043.265150168-.155546014.574929571-.299278407.933276085-.431853491.357033889-.131918772.761322264-.240866613,1.212865123-.326187211s.971342198-.12863721,1.563335889-.12863721c1.399257815,0,2.499237224.338657145,3.299938225,1.01465881.800701001.676657977,1.201051502,1.636842867,1.201051502,2.88121098v6.309130103c0,.381317444.007875748,1.006783062.023627243,1.271276918h-1.990354415l-.015335962-1.60927775ZM302.224061699,83.53098883c-.061693356-.015095183-.182454818-.034784552-.360971763-.058411794-.179829569-.02297093-.38591163-.042660299-.618246183-.057755482-.233647177-.015751495-.48304585-.03150299-.746883393-.047254485-.265150168-.015095183-.521111963-.02297093-.769198011-.02297093-.591993691,0-1.069789043.070225416-1.434698679.210019935-.366222261.139794519-.653687047.315029902-.863706982.524393525-.210019935.210019935-.353096015.443667112-.430540866.70028522-.078757476.256618108-.116823589.501422594-.116823589.734413459,0,.591337379.202144187,1.038286052.606432562,1.341502333s.963466451.454824421,1.678846853.454824421c.404288374,0,.78888738-.070225416,1.155109641-.210019935.364909637-.139794519.687815286-.326843523.967404324-.559834389.279589038-.233647177.505360468-.505360468.67731429-.816452496.170641197-.311092028.255961795-.630059804.255961795-.956247015v-1.236492366Z" fill="#004c97"/><path d="M314.458307577,79.893245362v-1.178080572c0-.334062959-.007875748-.679939539-.023627243-1.03762974h2.005690377l.069569103,1.749072269c.124699336-.186392692.28877741-.392474753.490921598-.617589871.200831563-.22577143.446292361-.431853491.733757147-.618246183.287464786-.187049004.622184057-.34587658,1.004157813-.478451664.380661132-.131918772.819077746-.198206313,1.317875091-.198206313.232334553,0,.446292361.015751495.640560801.046598173.19426844.03150299.376723258.078101163.54867708.139794519l-.467294355,1.959748516c-.279589038-.108947841-.636622927-.163421762-1.072414292-.163421762-.45154286,0-.867644855.085976911-1.248305987.256618108-.380661132.171297509-.711442529.408226248-.991031567.711442529s-.501422594.656968608-.664188044,1.061256983c-.164078074.404288374-.245460799.832203991-.245460799,1.283090539l-.023627243,6.15667006h-2.098886723l.023627243-9.072665592Z" fill="#004c97"/><path d="M339.901408837,87.02867748c-.124699336.140450831-.311092028.318967776-.559178076.536863458-.249398673.217895682-.572304322.427915617-.968716949.629403492-.396412627.202144187-.862394357.37737957-1.399257815.525049837s-1.147233894.221833556-1.831111306.221833556c-.840079739,0-1.60927775-.140450831-2.308906658-.42003987-.699628908-.28024535-1.298185722-.676657977-1.795670442-1.189894193-.498797345-.513236216-.883396351-1.126888212-1.155109641-1.842268615s-.408226248-1.508205656-.408226248-2.379132073c0-.793481566.132575084-1.535770773.396412627-2.228180245.263837543-.691096848.637935552-1.290309974,1.119668777-1.795670442s1.054037548-.905710969,1.714287717-1.201051502c.661562794-.295340533,1.387444194-.443667112,2.181582072-.443667112.93196346,0,1.732664462.179173257,2.402103004.536863458.668125917.357690201,1.216802997.832203991,1.644718614,1.422885058.426602992.590681067.741632895,1.267339044.943777082,2.02931762s.303216281,1.55480383.303216281,2.379132073h-8.559624966c.015751495.481733225.119448838.925400338.315029902,1.329688712.19426844.404288374.454168109.754102828.781011632,1.049443362s.699628908.528987711,1.119668777.699628908c.42003987.171297509.863706982.256618108,1.329688712.256618108.91752459,0,1.670971106-.155546014,2.262964797-.466638043.590681066-.311092028,1.017284059-.614308309,1.282434227-.909648842l1.189237881,1.259463296ZM338.012542049,82.247442403c-.06300598-.840079739-.358346514-1.55480383-.8860216-2.146141208-.528987711-.590681067-1.275871104-.886677912-2.239337554-.886677912-.498797345,0-.945089706.085976911-1.341502333.256618108-.396412627.171297509-.735069772.397068939-1.01465881.676657977s-.49748472.602494688-.653687047.968060637c-.154889702.365565949-.2402103.742945519-.255961795,1.131482399h6.39116914Z" fill="#004c97"/><path d="M66.120833996,56.646458155c-.097607364.064221663-.197337823.124599174-.295505658.18783481.000951999.00807644.002460075.016290087.003412074.024366527.099177486-.067860982.193538356-.143339083.292093584-.212201337Z" fill="none"/><path d="M90.966858481,48.375383185c-.073696429,1.381512913-.207232558,2.753834852-.409855576,4.130738224-.036848214.28090088-.082887402.552610786-.12892659.833511666,0,.00921908-.00460954.023019594-.00460954.032238674-.00921908.046039188-.01382862.096687915-.018438161.14275521-.046039188.28551042-.101297456.5664113-.156555724.84731218-.985485957,5.171482449-2.896561955,10.213982094-5.678025941,14.832853756-.174993884.29011996-.349987768.584849461-.543391706.874969421-.018410054.027629134-.032238674.050648728-.050648728.078277862-.184212964.29011996-.373007362.58023992-.566439407.874941314-2.505116432,3.743902242-5.599719972,7.165473956-9.269925785,10.094274585-.658545889.524981652-1.312454131,1.026915604-1.984772427,1.492029448q-.00921908.00460954-.01382862.00460954c-.299339041.216423532-.584849461.42365609-.888769934.617060028-.069086888.046067295-.119735616.092106482-.188822505.138173777h-.018410054c-.303920474.207204451-.594040434.405217929-.902598555.598649974h-.018410054c-1.878865431,1.188080868-3.817570563,2.201195958-5.793152017,3.048536245-1.165061274.501933952-2.343951168.939418662-3.532060143,1.317035564-.00460954,0-.00921908.00460954-.013800514.00921908-.621697675.202623018-1.243367243.386807876-1.869646351.552610786-.824320693.221033072-1.648613279.41443701-2.472933972.580211813,0,0-.009190973.00460954-.013800514.00460954-.105906996.018438161-.202623018.036848214-.303948581.050648728,0,0-.009190973.00921908-.013800514.00921908-.271709907.050648728-.538782166.096716022-.810492072.14275521-.119735616.018438161-.225642612.036848214-.345378228.050648728h-.013800514c-.262490826.046067295-.515762572.092106482-.782862939.128954697h-.00460954c-.128954697.018410054-.253271746.032238674-.382226442.046039188h-.009190973c-.179603424.023047701-.354597308.046067295-.529591193.064477348h-.00460954c-.409855576.050648728-.815101613.092106482-1.220319542.119735616-.101325563.013800514-.198041585.018410054-.29933904.027629134-3.983373474.2947295-7.939089707-.036848214-11.738250217-.985485957-.262490826-.064477348-.524981652-.12892659-.787472479-.202623018-.198013478-.055258268-.391417416-.110516536-.589430894-.165774804-.018438161-.00460954-.046067295-.01382862-.064477348-.018410054-.202623018-.059867808-.400636496-.115126076-.603259514-.188822505-.023019594-.00460954-.050648728-.013800514-.078277862-.023019594-2.841331794-.888769934-5.572118945-2.132137177-8.123302672-3.725492188-.00460954,0-.01382862-.004581433-.018410054-.009190973-.14736475-.092106482-.299339041-.188822505-.446703791-.28551042-.018410054-.00921908-.032238674-.023047701-.050648728-.036848214-.14275521-.092106482-.29011996-.193403938-.43287517-.29011996-2.205805499-1.455181234-4.268883894-3.195900995-6.147721218-5.189892502-.128954697-.13814567-.257881286-.2716818-.382226442-.41443701-.202623018-.225642612-.405246036-.451313331-.603259514-.681565483-.128954697-.147336643-.257881286-.299310934-.382226442-.451285224-.036848214-.046039188-.073668322-.087496942-.110516536-.13353613-.165774804-.193432045-.326968174-.386835983-.483523898-.58023992-.474332925-.594040434-.934837229-1.206519028-1.376903372-1.837407677-9.154827816-13.027684754-9.177875517-30.513019693-1.409142047-44.516971323v-.004581433s0-.00460954.004581433-.00921908c.216451639-.396026956.442094251-.782862939.676955943-1.169670814.00460954,0,.00460954-.00460954.00460954-.00921908,2.693938937-4.535956153,6.22599908-8.666694378,10.550141242-12.120476659.244080773-.193403938.488133438-.386835983.736823751-.57102084l.004581433-.00460954.087496942-.064477348c.110516536-.087496942.221061179-.170384344.331577715-.248662206,4.029412662-3.007106598,8.371964877-5.171454342,12.815814549-6.52533812.174993884-.059867808.359206849-.110544643.538810273-.165802911.110516536-.032210567.225642612-.064449241.336159148-.096687915h.00921908c.105906996-.027629134.207204451-.055258268.308530014-.082887402l.00460954-.00460954c.13353613-.036848214.253271746-.064477348.377616902-.092106482.124317049-.027629134.244052666-.059867808.377588795-.096716022-.008600727.004103615-.016302032.00950015-.024874653.013659979,4.533763811-1.132766386,9.152607367-1.43705225,13.618970707-.920839967h.00460954c.13353613.013800514.267100366.032238674.400636496.050648728.184212964.023019594.368397822.046067295.552610786.069086888.12892659.018410054.257881286.036820107.386807876.059867808h.00460954c.847340287.12892659,1.690071033.28551042,2.51897316.478914358.363788282.078277862.727576564.165774804,1.082173872.262490826.57102084.14736475,1.137460247.308530014,1.699262007.478914358.340768688.105935103.681537376.216451639,1.017724631.336187255.018410054,0,.036820107.009190973.050648728.018410054,6.2398277,2.150547231,11.894834047,6.032595142,16.28342545,11.567865873.15658383.193403938.317749094.391417416.469723384.594040434l.57102084.769062425c.096716022.12892659.188794398.262490826.27629134.391417416,1.238757703,1.759129815,2.307131061,3.601147032,3.214339156,5.503032056.828902126,1.736110221,1.524268123,3.527450603,2.081460342,5.355667306.179603424.584821354.340796795,1.174280354.492742978,1.768320788.069086888.244080773.128954697.483552005.184212964.727604671.018410054.073668322.036848214.14736475.050648728.221033072.055258268.248690313.110516536.497352518.165774804.746014724.105935103.515790679.207232558,1.040744225.2947295,1.565725877.069086888.405246036.14275521.819711153.188822505,1.224929082.101297456.727604671.179575317,1.455209341.239443125,2.187395445.165802911,1.915713645.202623018,3.854446884.096716022,5.788542476Z" fill="url(#b)"/><path d="M85.14467405,21.210467702c.835926858,1.20092635,1.61779771,2.463762316,2.326200178,3.757853623l.120058091-.064313874c-2.023068431-5.856168881-5.918087397-11.440055662-10.990691072-15.749085192l-.979578455-.804223952-1.00765174-.762750519c-.701533473-.518718438-1.404560205-1.004979408-2.086979952-1.442554174-.679731879-.43817583-1.414714372-.899192102-2.186431057-1.306713656l-.085713115-.044478754c-.716764723-.373861957-1.458317559-.760346262-2.206739391-1.089729465-2.877810363-1.356601988-6.090409582-2.382618644-9.555967018-3.051603142-5.720977098-1.104155007-11.689238025-1.000771958-17.260291835.296925734l-.001194608.000601064-.00149326-.006010642-.426176358.096771342-.00149326-.007212771c-.956582253.226000154-1.914956418.484457777-2.858397985.770564355-5.70007146,1.72986288-10.993677592,4.447274305-15.309198528,7.857712797l-1.212228338.965309168c-.545338493.432766252-1.034530417.825862264-1.508789742,1.257426388-1.806844406,1.535719131-3.562619326,3.328693756-5.533722314,5.648801719-1.863886932,2.210714271-3.378948365,4.309630594-4.630598763,6.416961816-1.475340722,2.455347417-2.657703863,4.764636223-3.616078028,7.060701616-1.010936911,2.382017579-1.8591085,4.914902283-2.522115869,7.530733851-.624481265,2.460756995-1.084405296,5.097625812-1.366631405,7.837276613-.230857971,2.241368547-.284018022,4.552460547-.162466671,7.064909066.53578163,11.055975614,4.515617755,21.227785731,11.206317793,28.643115249,6.972926147,7.728483986,16.211724776,12.557434083,26.014079667,13.596674152,9.007642005.953287883,18.493724463-1.363814758,26.070524889-6.36647242l-.125433827-.267473586c-8.6806181,4.346295513-18.978137955,5.311003616-28.305934869,2.641677331-.805165706-.230207604-1.618992318-.49347374-2.41908094-.781383511-9.388721916-3.381587409-17.224453599-10.449501796-22.063511435-19.900034827l-.112591792-.247037402c-.440511653-.968314489-.895955904-1.969687511-1.271361428-2.992698846-.833537642-2.194485537-1.494155796-4.461098782-1.962442081-6.732520542-.451561776-2.277432402-.733787885-4.622183999-.839809334-6.971744109-.111098532-2.275629209-.03344902-4.637210604.230559319-7.019228184.993913749-9.25759141,4.778730139-18.338469934,10.656798172-25.567469538,1.596294769-1.957666227,3.167801424-3.626821619,4.80471286-5.101833261,1.909580683-1.736474587,3.705673618-3.157390448,5.489521823-4.343891256,1.916449678-1.297096628,3.962514311-2.460155931,6.079060807-3.456119375,2.012018308-.946676177,4.1733626-1.76111822,6.425795742-2.422288883l-.00149326-.021037248.160973411-.023441505.326725253-.092563893-.001194608-.019234056.149027332-.019234056v.001202128c5.025118013-1.350591345,10.121016541-1.746692679,15.143745338-1.175080587l.000298652-.000601064c.026281373.001803193.050770835.004808514.073468384.009015964l.369133832.046883011c.252062261.03125534.503228566.062510681.724231022.099776664,11.279487525,2.070666304,20.352534311,7.68941481,26.242249771,16.249170639Z" fill="url(#c)"/><path d="M66.464793244,56.540840988c-.097607364.064221663-.197337823.124599174-.295505658.18783481.000951999.00807644.002460075.016290087.003412074.024366527.099177486-.067860982.193538356-.143339083.292093584-.212201337Z" fill="none"/><path d="M66.357507341,9.96473154c-.01382862-.00921908-.032238674-.018410054-.050648728-.018410054-.336187255-.119735616-.676955943-.230252152-1.017724631-.336187255,2.00318248.736823751,3.974154394,1.685461493,5.880648959,2.868960928.009190973,0,.013800514-.00460954.018410054-.00460954-1.57030731-.994705037-3.186681915-1.832826243-4.830685654-2.509754079Z" fill="url(#d)"/><path d="M82.488999468,53.708014797c.967051093-5.240531077,1.22034835-10.490289742.805845152-15.482137356,3.103883361.405183335,5.457010263.184182632,6.852313658-.617141003-.055273245-.248591188-.110546489-.497274651-.165727458-.745958114-.01384138-.073728418-.032296554-.147364561-.050659451-.221092979-1.363099117.805937428-3.66104505,1.031551925-6.718790478.635503901h-.004613793c-.511116031-4.950415749-1.69464631-9.629079069-3.536657181-13.750580699,1.703873897.21638691,2.970267905.087477523,3.702476915-.377685126.046045658-.032204278.087477523-.059887038.128909387-.092091316h.004613793c.064500832-.050659451.124295594-.105932696.174955045-.161113665l-.571003069-.769119357c-.055273245.064500832-.124295594.12438787-.193410219.179661114h-.004613793c-.041431865.032204278-.073636142.055180969-.1196818.082863729h-.004613793c-.686163352.437479889-1.883442735.571003069-3.476862418.359229953h-.004613793c-1.593327407-3.343339238-3.628748497-6.299765763-6.106263268-8.712779703-.013749104,0-.022976691-.004613793-.036818071-.004613793,2.385423455,2.39917256,4.324139435,5.34184998,5.82998932,8.671255562-1.20650697-.184182632-2.620265539-.543320309-4.213592946-1.09596048-.584844449-.202637805-1.174302692-.428252302-1.763760935-.663094385.170433528-2.836744724.01384138-5.254372458-.492753133-7.105610915-.01384138-.004613793-.032204278-.009227587-.046045658-.018455174.382206644,1.800579006.405275611,4.163025771.119774076,6.949018768-2.18278565-.911777849-4.342594609-2.040034883-6.285924382-3.260383233,2.040034883-1.874215149,3.895887134-3.260383233,5.493828334-4.034024108-.01384138-.013749104-.027590484-.018362898-.041431865-.027590484-1.703873897.700004732-3.670272637,2.017058192-5.81614794,3.836000095-1.920353082-1.224962143-3.601158012-2.528174223-4.844575329-3.771499264,3.499839109-.755277977,6.921428283-.948688196,10.140287376-.469776442-.009135311-.004613793-.013749104-.018362898-.027590484-.027590484-3.287973717-.548026378-6.783199033-.437479889-10.347538974.262524844-.621662521-.640117694-1.119029447-1.266394008-1.468939538-1.855852251-.322411882-.543412585-.497366927-1.022324338-.538891067-1.432213742,4.126207699.221092979,8.220026569,1.096052756,12.13898267,2.675538783v-.022976691c-3.923569894-1.625623961-8.02661635-2.542015603-12.152731774-2.809061964v-.004613793c-.009227587-.690777145.391434231-1.178916486,1.137392345-1.436827536-.128909387-.023068967-.257818774-.041431865-.386820437-.059887038-.184182632-.022976691-.368365264-.046045658-.552547896-.069022349-.75989177.290115328-1.155939794.801231359-1.146712208,1.514985196,0,.050751727,0,.110546489.009227587.170433528.046045658.437479889.234842083.948688196.575616863,1.524305058.373071333.626276314.902642538,1.289370699,1.561123129,1.975534051-4.333367022.94859592-8.74498398,2.749174926-13.013850171,5.249758664h-.004613793v-.004613793c-1.215734557-1.261780215-2.19662703-2.482128565-2.882698106-3.642589877-.630890107-1.063756203-.97627868-2.003216812-1.059142409-2.813675757,4.793823602-1.639373065,9.822489287-2.436082907,14.818950695-2.288718346-.004613793-.059887038-.004613793-.115068007-.004613793-.170433528-5.005688994-.20254553-10.043582266.543504861-14.837405868,2.145967579-.018455174-1.197279383.834173844-2.258359586,1.985499845-2.806385964-.262524844.073728418-.493583616.122634628-.756016184.191749253-1.229575937.557161689-2.164330477,1.679882171-2.14126151,2.937048592.004613793.101318903.009227587.207251599.018362898.317705812.082956005.833527913.442093682,1.795965213,1.091438963,2.878176589.699912456,1.188051796,1.70848769,2.449924287,2.951812731,3.739294986.078249936.082863729.156592147.161205941.23022829.239455877-.078249936-.078249936-.156592147-.156592147-.234842083-.239455877-4.250411017,2.588061261-8.344322163,5.862193598-12.046799078,9.688966107-1.625531685-1.68080493-2.928743764-3.320177995-3.854362993-4.862845951-.8427555-1.418372362-1.298690562-2.675538783-1.413758569-3.753136366,4.001727554-3.338725445,8.510049621-5.935922016,13.271668945-7.690455364-.004521518-.110454214-.013749104-.211773116-.018362898-.317705812-4.761619324,1.713009208-9.269941392,4.268866191-13.276375015,7.584522668-.018455174-1.142098414.645838798-2.973774388,1.43784257-3.67377912l-.449568027.338560159c-.85659688.71836763-1.761915418,2.78257879-1.743460244,3.979858173,0,.138136974.009227587.280980017.027590484.423730784.110546489,1.086732894.575616863,2.357740695,1.427599949,3.794475955.925619229,1.556509336,2.247194206,3.214337575,3.89127334,4.918211472.101318903.105932696.20254553.211865392.303864432.317798088-.101318903-.101318903-.207159323-.207251599-.308478226-.313184295-3.64720367,3.895887134-6.893745523,8.330573059-9.495648164,13.161214732-1.786737626-1.851238457-3.218859092-3.651817464-4.222820533-5.346463774-.930233022-1.561123129-1.43673526-2.937971351-1.561123129-4.12150163,2.615651745-4.807664982,6.023399539-8.97521227,9.960718537-12.410550548-.018362898-.142750767-.022976691-.28559381-.022976691-.423730784-3.932705205,3.407747794-7.345066792,7.566159771-9.960718537,12.369210959-.01384138-.663186661.184182632-3.020927356.409797128-3.642589877-.234842083.386820437-.46045658.773640875-.676935765,1.169688899-.004521518.004613793-.004521518.009135311-.004521518.009135311v.004613793c-.211865392,1.252552628-.336253262,2.288718346-.239548153,3.421589174-2.500491462,4.862938227-3.969523276,9.914672879-4.489866894,14.920269597,0-.087477523.004613793-.174955045.004613793-.262432568l-.073728418.801231359c-.013749104.13822925-.013749104.276366224-.013749104.419116991,0,.138136974.013749104.276273948.027590484.419024715.110546489,1.08682517.575616863,2.339377798,1.418372362,3.771499264.921005435,1.551895543,2.238058895,3.200588471,3.872818167,4.895234781.202637805.20254553.405275611.414410922.61252721.621662521,3.287973717,3.26961082,7.708818262,6.700335304,12.751325328,9.923900466-1.43673526,3.928091411-2.339377798,7.326611618-2.69860775,10.071172751-3.891181064-2.486742358-7.308156445-5.129984588-9.845558254-7.658158811-.847277017-3.688635535-.939460609-7.860796616-.207159323-12.336914406-.211865392-.207251599-.414503198-.419116991-.617141003-.621662521-.690777145,4.508322067-.561775482,8.735756394.35461616,12.47505138-1.261780215-1.307825873-2.274876966-2.574219881-2.988723078-3.771499264-.34991009-.594072036-.621662521-1.146712208-.805845152-1.667055826l.253297257.769027081c.179568839.524957411.4466152,1.08682517.805845152,1.690032517.695390939,1.169688899,1.690032517,2.41301394,2.919608453,3.688635535.534184998,1.934102187,1.275621595,3.734681193,2.228831308,5.364918947.036818071.046045658.073728418.087477523.110546489.133523181.128909387.156592147.262432568.317705812.396048024.47429796-.004613793-.009227587-.009227587-.01384138-.01384138-.022976691-.980892473-1.653214445-1.731464381-3.485997729-2.256514068-5.479986954,2.472900978,2.468287185,5.802398836,5.042507065,9.60158086,7.478589972-.207251599,1.888056529-.133615456,3.430724485.221000703,4.577344416.018455174.01384138.032296554.02768276.050659451.036910347.147364561.096612833.299342915.193410219.446707475.285501535.004613793.004613793.01384138.009135311.018455174.009135311-.28559381-1.09596048-.280980017-2.597196572-.009227587-4.453048823,3.858976787,2.41301394,8.150911944,4.660300421,12.488800484,6.470107014-1.091346687.953209713-2.099829645,1.662442032-3.02083508,2.104535714.262432568.073636142.524957411.138136974.787482255.20254553.953209713-.423638509,1.980147845-1.0821191,3.062266945-1.966306464,1.165075105.469684167,2.330150211.916391642,3.495225316,1.317053459,1.961784947.676935765,3.794568231,1.215734557,5.48007923,1.607168787.405183335-.02768276.810458946-.069114625,1.220256074-.119774076-1.888056529-.414410922-3.969523276-1.008482958-6.216809758-1.791351419-1.19266559-.409797128-2.380717386-.861118397-3.578089045-1.344643944,2.132126199-1.828169491,4.485345376-4.480731583,6.944404974-7.87925179h.004613793c1.551895543.626276314,3.094563499,1.211120763,4.63732373,1.745305761,4.195137772,1.459804227,7.934432759,2.417627733,11.121087573,2.90115328-2.311695037,2.178264133-4.738550357,3.951160378-7.22520044,5.291282805.626276314-.165819734,1.247938835-.350002366,1.869601355-.552640172.004613793-.004613793.009227587-.009227587.01384138-.009227587,2.113671025-1.243417317,4.181388668-2.786085273,6.152308926-4.618868557,1.137484621.147364561,2.19662703.23022829,3.17290571.253297257h.018362898c.308570502-.193410219.59868583-.391434231.902642538-.59868583-1.050007098-.009227587-2.205854617-.092091316-3.449179658-.25791105,3.338633169-3.241928059,6.382537216-7.312770238,8.938301923-12.152639498,2.721676717.350002366,5.033371755.36375147,6.875382625.064408556.193410219-.294636846.382206644-.584844449.566389276-.874959777.018455174-.027590484.032296554-.050567175.050659451-.078249936-1.864987562.331547193-4.222820533.322319606-7.004292012-.041431865h-.004521518c2.472900978-4.895142505,4.23204812-10.094241718,5.281962942-15.325545208-.133523181-.018455174-.267138637-.036910347-.405275611-.055365521.133523181.018455174.27175243.036910347.405275611.050751727,3.37545124.437387613,6.07405899.313092019,7.948274139-.336253262.055273245-.280887741.110546489-.561775482.156592147-.847277017.004613793-.046045658.009227587-.096705109.018455174-.142750767,0-.009227587.004613793-.023068967.004613793-.032204278-1.855852251.672321972-4.549846208.805845152-7.939138828.368365264ZM81.68306204,53.588240721c-3.172813434-.478911753-6.893653247-1.432121466-11.065906604-2.878084313-1.538054163-.538798791-3.076108325-1.119029447-4.614254763-1.740691968,1.888148805-4.96425713,3.458407245-9.836422943,4.63732373-14.372427771h.004613793c1.174302692.478911753,2.362354489.921005435,3.536657181,1.335508633,3.205109988,1.109801861,6.064831403,1.842010871,8.491686724,2.21046841.336160986,4.978006234.018455174,10.218537311-.99012006,15.445227009ZM33.003204871,69.171789255c1.547281749-3.955774172,3.601158012-8.431891961,6.124718442-13.285602601,5.590533444,3.490611523,11.811956995,6.750994756,18.107016688,9.380487881-2.542015603,4.83986926-5.08393893,9.07191738-7.487817559,12.580984076-5.81614794-2.436082907-11.572501118-5.43855509-16.739303777-8.671255562h-.004613793v-.004613793ZM57.713851754,64.336441513c-6.295059693-2.629493125-12.507255658-5.880648772-18.097789101-9.375874088h-.004613793c2.564992294-4.858324434,5.369440465-9.633785138,8.25684464-14.128265825h.004613793c5.139212175,3.209723781,10.872496386,6.207582171,16.656440048,8.629915973-1.993989225,4.950415749-4.291935158,9.992830539-6.815495587,14.874223939ZM48.420841395,39.975796996h-.004613793c2.892017969-4.457754892,5.857672081-8.616074593,8.735848669-12.281641161,3.909636238,2.445218218,8.252230847,4.715573666,12.650006425,6.557584537-1.280143112,4.4852531-2.937971351,9.32982843-4.890528711,14.266402799-5.728670418-2.394651042-11.40206759-5.35569136-16.49071259-8.542346175ZM74.844589762,22.310781715c1.699260103.589458243,3.205109988.97627868,4.48995917,1.169688899,1.740691968,4.112366319,2.832130931,8.768052947,3.264997026,13.713854903-2.376195869-.359229953-5.157667348-1.072983789-8.284527401-2.159716683-1.146619932-.400661817-2.297945933-.828914119-3.453793452-1.303304355h-.004521518c1.123550965-4.4852531,1.851146182-8.606847006,2.113671025-12.125049014.630890107.253297257,1.252552628.48813934,1.874215149.70452625ZM65.837173214,17.954438001c2.063011574,1.289462975,4.370185093,2.491356152,6.695721511,3.467634832-.405275611,3.458407245-1.257166421,7.533863217-2.486742358,11.977684453-4.287229088-1.791351419-8.533118588-4.010955141-12.341528199-6.396378596h-.004613793c2.859721415-3.591930425,5.627351515-6.681972407,8.132549047-9.048940688h.004613793ZM60.292685428,13.704026984v-.004613793c1.330802564,1.321667253,3.117632466,2.703129268,5.148439762,4.006341347-2.629493125,2.297945933-5.503055921,5.305031909-8.459482446,8.846302883-3.753136366-2.403786353-7.05033767-4.955029543-9.495555888-7.395633967,4.213592946-2.555856983,8.551573762-4.425550614,12.806598572-5.45239647ZM46.675535634,19.653698105h.004613793c2.505197532,2.500583738,5.885262565,5.116235484,9.730490247,7.575295082-2.970267905,3.605771806-6.004944365,7.713432056-8.956849373,12.138890394-5.019438098-3.209723781-9.417305952-6.617471575-12.682210703-9.873241014,3.660952774-3.858976787,7.713432056-7.188382368,11.903956035-9.840944461ZM34.07618866,30.240692956h.004613793c3.297201304,3.287973717,7.745636333,6.732631858,12.811212366,9.974559917-2.92883604,4.462276409-5.770102282,9.214668147-8.330480783,14.077606374-5.507669714-3.522908076-10.343017457-7.257589269-13.925720296-10.840292108,2.597288848-4.830641673,5.825375527-9.279168978,9.440374919-13.211874183ZM14.619914235,52.961964407c-.861210673-1.441349053-1.33089484-2.716970648-1.441441329-3.808317335v-.023068967c.525049687-4.978006234,2.003216812-10.029740886,4.508322067-14.892679113.018455174.138136974.04152414.276273948.064500832.419024715.225614496,1.317053459.819686533,2.55124319,1.492008505,3.693249328,1.008575234,1.69464631,2.445310494,3.495225316,4.23204812,5.346463774-2.514332843,4.86755202-4.149092115,9.670603209-4.945801956,14.211129554-1.648600652-1.708395414-2.984017009-3.37545124-3.909636238-4.945801956ZM19.151212994,58.538656471l-.004521518-.004613793c.833435637-4.512935861,2.482036289-9.288304289,4.991847614-14.15585631,3.596451943,3.578089045,8.427185892,7.317384031,13.934855606,10.840292108-2.528174223,4.85371064-4.549846208,9.348191327-6.051082299,13.331555984-5.088552723-3.246541853-9.555442926-6.704949098-12.871099404-10.011377988ZM42.590944351,86.482096102c-4.443913512-1.860466044-8.846302883-4.153705908-12.792849468-6.626606886.451321269-2.68476637,1.432213742-6.037240919,2.910380867-9.933128053h.004613793c5.120849277,3.200496195,10.817223141,6.175377893,16.573576319,8.583778039-2.399264836,3.421589174-4.669528008,6.110877061-6.695721511,7.975956899ZM66.767406236,82.996098372c-3.214337575-.48813934-6.990450632-1.455190433-11.227112545-2.924222247-1.561123129-.543412585-3.122246259-1.132870828-4.687890906-1.768282452,2.463673391-3.486090005,5.037893272-7.699682951,7.579816599-12.548779798,1.690124792.686163352,3.384771102,1.330802564,5.065576032,1.91103322,4.586664279,1.58880589,8.675869355,2.638720712,12.14811798,3.168291917-2.560378501,4.839961536-5.58591965,8.915417508-8.878507161,12.161959361ZM76.129438943,69.90390599c-3.485997729-.524957411-7.566067495-1.57025844-12.152731774-3.168199641-1.68080493-.580230656-3.370837446-1.22034835-5.060869963-1.901897909h-.004613793c2.523560429-4.886007194,4.779982222-9.942263364,6.723311995-14.91574808h.004613793c1.556509336.626276314,3.113018672,1.215734557,4.655686628,1.754533348,4.222820533,1.46441802,7.985184486,2.42685532,11.185680681,2.910380867-1.091438963,5.226689697-2.873562796,10.42578891-5.351077567,15.320931415Z" fill="url(#e)"/><path d="M78.933878764,79.616007548c-2.334760195,2.670919343-7.298981979,6.327324642-11.309984587,7.777924443,1.455181234-3.209729616,2.855132307-7.110187581,2.855132307-14.353939399,0-1.823579056.018410054-4.208987979-.078305969-5.249732204,1.229566729-.819711153,2.426866677-1.671632873,3.578127438-2.509754079,1.855845837-1.321645104,5.111614641-4.425439618,5.461574302-4.849123814.511181139,5.364886387.778253398,11.374461935-.506543492,19.184625052Z" fill="url(#f)"/><path d="M77.142510275,48.315515377c-.921008608.953247283-1.874255891,1.892694051-2.859713741,2.790654959-.994705037.907208095-2.030839721,1.772958435-3.10382262,2.592641481-.736795644.566439407-1.492029448,1.100612033-2.251844686,1.634812765-2.353198356-11.070541461-11.973111909-20.437183268-17.641918769-24.839603292-.00921908.004581433-.01382862.009190973-.018438161.013800514-2.647899749-2.689329397-7.916070113-7.031909719-11.844157212-3.932696639,2.297911981-2.786045419,4.8122756-5.116196074,7.469366323-6.727961139h.00460954c3.241940183-1.970971913,7.100968501.84731218,8.551568302,1.906466458,4.51293656,3.297226558,14.639421712,12.963207406,20.045765853,23.089692558l.009190973-.00460954s.059867808.119735616.170384344.349987768c.520372112.99928647,1.049963305,2.127527637,1.469009855,3.126814107Z" fill="url(#g)"/><path d="M43.194146461,73.325503013c.156555724.101325563.317749094.207232558.478914358.308558121-.188794398-.110516536-.368397822-.230252152-.543391706-.345378228-.110516536-.073696429-.221033072-.15197429-.326968174-.225642612.128954697.087496942.257881286.179575317.391445523.262462719Z" fill="url(#h)"/><path d="M47.730102615,75.678701369c-.013800514.00460954-.023019594.00460954-.036848214.00460954-.027629134-.01382862-.055258268-.023047701-.078277862-.036848214.01382862,0,.023019594,0,.032238674-.00460954.027629134.01382862.055258268.027629134.082887402.036848214Z" fill="url(#i)"/><path d="M36.770105797,61.251093649c-.036848214.607869054-.050648728,1.211128569-.018410054,1.814388083.018410054.326968174.046039188.653908242.101297456.976266876.036848214.211842098.073696429.42365609.115126076.635498188.01382862.078277862.032238674.15658383.050676835.234861692v.00460954c.13353613.653908242.313139554,1.303206944.55719222,1.924904619.442094251,1.114412546,1.072982899,2.14593769,1.823607163,3.080774919.331549608.409827469.686146916.801272992,1.059154278,1.174280354.174993884.170384344.354569202.345378228.543391706.520372112.073668322.064477348.14275521.12892659.216423532.198013478.128954697.110516536.262490826.225642612.400636496.340768688.096716022.082887402.198041585.161193371.303948581.248662206.14275521.115126076.2947295.225670719.446675684.340796795.018438161.018410054.041457754.032238674.059867808.046039188.124345156.092106482.244080773.184212964.373007362.271709907.105935103.073668322.216451639.151946183.326968174.225642612.174993884.115126076.354597308.234861692.543391706.345378228.474332925.299310934.980876416.584821354,1.519658582.870359881.746014724.396026956,1.565725877.773643858,2.454495811,1.13743214-.00921908.00460954-.018410054.00460954-.032238674.00460954.023019594.013800514.050648728.023019594.078277862.036848214h-.013800514c-3.039317165.409827469-5.793152017.455894764-8.252229261.110516536-3.421543607-.478942465-6.276675915-1.680851953-8.537739681-3.605756572-2.80448358-2.390018463-4.305732108-6.046423763-4.462287832-10.863308903-.326968174-10.011359076,5.037918212-25.115894632,12.995417973-34.749636806,3.928087099-3.09921308,9.196257463,1.243367243,11.844157212,3.932696639-.732186104.594068541-1.41833302,1.234148162-2.072269369,1.911104105-.686146916.70916651-1.330836078,1.455181234-1.938705132,2.228825092-.635498188.801272992-1.229566729,1.630203225-1.795978029,2.477515405-.58023992.870359881-1.128241167,1.763739355-1.644003739,2.675528883-.524981652.921008608-1.022306064,1.860455377-1.492029448,2.81370266-.469723384.948637742-.911789528,1.915685538-1.330864185,2.891952415-.409855576.957856823-.796663452,1.929514159-1.160451734,2.910390575-.349987768.948637742-.681565483,1.911104105-.985485957,2.873542361-.29011996.921008608-.561829867,1.846626757-.805882532,2.781435879-.230252152.870359881-.43748471,1.745329301-.617088135,2.624880155-.165774804.801272992-.308530014,1.607155525-.42826563,2.413038057-.101297456.713804157-.179575317,1.427580207-.225642612,2.141356257Z" fill="url(#j)"/><path d="M90.796474137,43.678261768c-.43287517,1.086783412-.893379474,2.155156771-1.395341533,3.191291455-2.500534999,5.125415154-5.93587912,9.61533212-9.992920915,13.478941871,0,.00460954-.00921908.023047701-.032238674.046067295-.349987768.42365609-3.605756572,3.527450603-5.461602409,4.849095707-1.15126076.838121206-2.348560709,1.690071033-3.578099331,2.509754079-.101325563.073696429-.207232558.14275521-.313139554.211842098-5.341866793,3.048536245-11.724449703,5.286580418-15.132192797,6.23060862-2.541964646.709194617-4.922792136,1.197328055-7.160836309,1.501248529-.013800514-.00460954-.023019594-.00921908-.036848214-.013800514-.027629134-.01382862-.055258268-.023047701-.078277862-.036848214.01382862,0,.023019594,0,.032238674-.00460954.00460954.00460954.01382862,0,.018410054,0-.893379474-.363788282-1.71767206-.746014724-2.472905865-1.13743214-.538782166-.285538527-1.045325658-.571048947-1.519658582-.870359881-.188794398-.110516536-.368397822-.230252152-.543391706-.345378228-.110516536-.073696429-.221033072-.15197429-.326968174-.225642612-.12892659-.087496942-.248662206-.179603424-.373007362-.271709907-.018410054-.013800514-.041429647-.027629134-.059867808-.046039188-.151946183-.115126076-.303920474-.225670719-.446675684-.340796795-.105906996-.087468835-.207232558-.165774804-.303948581-.248662206-.13814567-.115126076-.2716818-.230252152-.400636496-.340768688-.073668322-.069086888-.14275521-.13353613-.216423532-.198013478-.188822505-.174993884-.368397822-.349987768-.543391706-.520372112-.373007362-.373007362-.727604671-.764452885-1.059154278-1.174280354-.750624264-.934837229-1.381512913-1.966362373-1.823607163-3.080774919-.244052666-.621697675-.42365609-1.270996377-.55719222-1.924904619v-.00460954c0-.00460954.004581433-.00460954.004581433-.00460954.769062425.396026956,2.670919343.838121206,5.95431728.589430894,3.932724746-.313139554,8.266057882-1.450571694,12.240212275-2.914972009,0,0,3.412324527-1.340083265,5.0839574-2.118336663.15658383-.064449241.299339041-.13353613.43748471-.211813991.736823751-.349987768,1.482838475-.71838559,2.196614525-1.105221573.119735616-.064477348.239471232-.12892659.368397822-.198013478.446703791-.248662206.888769934-.501962059,1.317035564-.750624264,1.211128569-.699975537,2.320959682-1.547287716,3.453782281-2.348560709.262490826-.184212964.524981652-.368425929.787472479-.552610786.759843345-.534200733,1.515049042-1.068373359,2.251872793-1.634784658,1.072954792-.819711153,2.109089476-1.685461493,3.103794513-2.592641481.985485957-.897989015,1.938705132-1.837407677,2.859713741-2.790654959.00921908-.00921908.01382862-.01382862.023047701-.023019594.087496942-.101325563.174993884-.216451639.262490826-.317749094,1.901856918-2.192004985,3.578099331-4.605043042,4.95042127-7.229923197,1.984772427-3.831399184,4.844486167-9.288392052,5.52605165-13.409883089,2.357779789,2.376189843,4.526737073,9.46335783,2.956429763,16.380141473Z" fill="url(#k)"/><path d="M47.730102615,75.678701369c-.018410054.00460954-.032238674.00460954-.050648728.00460954-1.772930328-.72299513-3.251159263-1.524268123-4.485307426-2.357807896,1.247948676.828930233,2.744587665,1.625593685,4.535956153,2.353198356Z" fill="url(#l)"/></svg>