<?xml version="1.0" encoding="UTF-8"?><svg id="a" xmlns="http://www.w3.org/2000/svg" width="342" height="96" xmlns:xlink="http://www.w3.org/1999/xlink" viewBox="0 0 342 96"><defs><radialGradient id="b" cx="63.42188561" cy="31.00376274" fx="63.42188561" fy="31.00376274" r="48.96970737" gradientTransform="translate(120.57379727 -11.11092095) rotate(116.91186273) scale(1 1.02892861)" gradientUnits="userSpaceOnUse"><stop offset=".04545381" stop-color="#8dc8e8"/><stop offset=".47157232" stop-color="#62b5e5"/><stop offset=".80488951" stop-color="#009cde"/><stop offset=".9327702" stop-color="#004c97"/><stop offset="1" stop-color="#003865"/></radialGradient><radialGradient id="c" cx="56.44223835" cy="35.44992708" fx="56.44223835" fy="35.44992708" r="82.5176838" gradientTransform="translate(123.2863831 110.82233189) rotate(-166.7958071) scale(.96684428) skewX(.15753134)" gradientUnits="userSpaceOnUse"><stop offset=".33860927" stop-color="#c63527"/><stop offset=".43055678" stop-color="#e35205"/><stop offset=".72825436" stop-color="#ff8f1c"/><stop offset=".96000044" stop-color="#ffb549"/></radialGradient><radialGradient id="d" cx="69.86409533" cy="28.34445005" fx="69.86409533" fy="28.34445005" r="52.63698445" gradientUnits="userSpaceOnUse"><stop offset="0" stop-color="#0084ca"/><stop offset=".8" stop-color="#002554"/></radialGradient><radialGradient id="e" cx="104.17931584" cy="-52.43783856" fx="104.17931584" fy="-52.43783856" r="155.48130133" gradientUnits="userSpaceOnUse"><stop offset=".46412146" stop-color="#009cde"/><stop offset=".79348874" stop-color="#004c97"/><stop offset=".87935766" stop-color="#003865"/></radialGradient><linearGradient id="f" x1="68.16625759" y1="25.23729461" x2="74.80035743" y2="85.41679434" gradientUnits="userSpaceOnUse"><stop offset=".53943233" stop-color="#ffb549"/><stop offset=".66872033" stop-color="#ff8f1c"/><stop offset=".88773405" stop-color="#e35205"/><stop offset="1" stop-color="#c63527"/></linearGradient><linearGradient id="g" x1="46.81249374" y1="22.36891926" x2="86.8670631" y2="68.25175807" gradientUnits="userSpaceOnUse"><stop offset="0" stop-color="#c63527"/><stop offset=".10271089" stop-color="#e35205"/><stop offset=".44388932" stop-color="#ff8f1c"/><stop offset=".74061571" stop-color="#ffb549"/></linearGradient><linearGradient id="h" x1="42.80270094" y1="73.34855071" x2="43.67306082" y2="73.34855071" gradientUnits="userSpaceOnUse"><stop offset=".16167092" stop-color="#d5411f"/><stop offset=".28239126" stop-color="#df581f"/><stop offset=".44857918" stop-color="#ec731f"/><stop offset=".59717219" stop-color="#f3831f"/><stop offset=".71233259" stop-color="#f6891f"/><stop offset="1" stop-color="#f6891f"/></linearGradient><linearGradient id="i" x1="47.61497654" y1="75.66258203" x2="47.73010261" y2="75.66258203" xlink:href="#h"/><linearGradient id="j" x1="33.50615797" y1="71.90197513" x2="52.15524324" y2="28.31479762" gradientUnits="userSpaceOnUse"><stop offset="0" stop-color="#c63527"/><stop offset=".19911876" stop-color="#e35205"/><stop offset=".62167363" stop-color="#ff8f1c"/><stop offset=".99999983" stop-color="#ffb549"/></linearGradient><linearGradient id="k" x1="42.90245735" y1="74.74293737" x2="92.91305699" y2="36.29163463" gradientUnits="userSpaceOnUse"><stop offset="0" stop-color="#ffb549"/><stop offset=".31055561" stop-color="#ff8f1c"/><stop offset=".75063375" stop-color="#e35205"/><stop offset=".99999992" stop-color="#c63527"/></linearGradient><linearGradient id="l" x1="43.19414646" y1="74.50440696" x2="48.34743136" y2="74.50440696" gradientUnits="userSpaceOnUse"><stop offset="0" stop-color="#f6891f"/><stop offset=".20715139" stop-color="#f4841f"/><stop offset=".42899531" stop-color="#ee771f"/><stop offset=".65768082" stop-color="#e4621f"/><stop offset=".88972586" stop-color="#d6441f"/><stop offset=".91464047" stop-color="#d5411f"/></linearGradient></defs><path d="M153.98780827,34.77962251c-.46288044-2.03182425-1.45970595-3.82260496-2.96486765-5.33184808-1.78878001-1.84431926-4.23058637-3.1005947-7.25755555-3.73393422-2.8201775-.5954864-7.18521047-.88526684-13.34286478-.88526684-7.98036608,0-13.39152164.7365753-16.54397432,2.25190053-3.27793617,1.57142467-5.12241548,4.53525197-5.33240827,8.57009048l-.10051484,1.94075269h10.43049532l.37260915-1.35550983c.18502413-.67271317.51986019-1.06204812,1.11974812-1.30181122.78491206-.31650971,3.18574421-.84429264,10.49643818-.84429264,4.32149788,0,7.40480658.18998585,9.16349617.56475575,1.46482772.31202815,2.52695587.85909777,3.15757445,1.62600359.10115506.12612372.18438391.24720568.2484061.36196546.38733425.67239306.82844715,1.9191452.90271289,4.22442423-.79131428-.35276227-1.65625408-.62189556-2.59161828-.80603938-2.45012924-.47896601-7.22042268-.71160665-14.58425506-.71160665-9.63341905,0-12.62005425.7928348-14.02918266,1.38912148-2.22221024.96713522-3.82468568,2.40987529-4.77925654,4.29532881-.89695089,1.78613909-1.33166157,4.12631022-1.33166157,7.16000173,0,2.48069984.27849653,4.41112894.85149514,5.90164557.6254968,1.61287904,1.74140359,3.00039997,3.31762993,4.12887111,1.58711011,1.17536739,3.71328706,1.91658431,6.49953281,2.26582536,2.52951676.31610957,6.92464015.47640513,13.06436825.47640513,5.61026458,0,9.41510338-.3061061,11.63347229-.93576435.68247655-.19382718,1.33422246-.45039611,1.95331704-.76834632l-.04033398,1.58646989h10.29732916v-20.86899342c0-3.90719428-.15813481-6.70496401-.48336754-8.55320463-.03457198-.21367406-.08002774-.43807184-.12676394-.64694424ZM143.94400698,52.15452484c0,1.80702633-.73881608,2.34577307-1.46226684,2.63443312-1.04228127.41454369-3.72160995.90983536-10.55597881.90983536-10.59887368,0-12.63285868-.56467572-13.00418739-.73769569-.57363883-.27353481-1.24651205-.82892732-1.24651205-2.65684089,0-1.48587502.34828072-2.44420719,1.03587905-2.84850732.13764771-.07850721.8124416-.38701414,2.88163881-.58004105,1.68058251-.14997198,4.77861632-.22631844,9.20062904-.22631844,7.24603155,0,10.1961741.53450527,11.39466951.98298071,1.24907294.46320055,1.75612869,1.19337364,1.75612869,2.52215421Z" fill="#e35205"/><polygon points="162.55205673 8.57397465 162.55205673 9.14337671 162.55205673 63.03765704 162.55205673 64.8825365 164.39717627 64.8825365 170.9965837 64.8825365 172.84170323 64.8825365 172.84170323 63.03765704 172.84170323 9.14337671 172.84170323 8.57397465 162.55205673 8.57397465" fill="#e35205"/><path d="M229.53719449,34.44286579c-1.0723717-2.87347598-3.06730316-5.1908392-5.92141242-6.86726027-1.83871732-1.06060762-4.04364157-1.7650918-6.75306068-2.16138916-2.56216807-.36804757-6.17365986-.54658945-11.04510835-.54658945-5.79336804,0-9.80563874.35988474-12.26665175,1.10006129-.78747295.24040333-1.52372814.54450873-2.20556447.91079569v-1.72019624h-10.28900628v63.79002778h10.28900628v-25.94523037c.72409098.37252912,1.50644215.67871525,2.3438524.91671774,2.45653146.70392399,6.23320049,1.04660276,11.54256077,1.04660276,7.16152226,0,12.12132138-.43303009,15.16301566-1.32397891,3.27537528-.95729181,5.9118091-2.95558444,7.83375526-5.93917858,1.85344242-2.87547667,2.75423465-7.0537249,2.75423465-12.77322734,0-3.97609816-.39885825-7.25315402-1.18569097-9.74017605-.08002774-.24616532-.16325659-.49777253-.25993009-.74697891ZM220.32248058,45.07967262c0,2.76543853-.24968654,4.90514017-.74201719,6.35964432-.43663134,1.26875977-1.08069458,2.18059582-1.9667617,2.7792033-.50833619.33627656-1.57686656.8081201-3.70368374,1.09309888-1.8732893.25712912-4.84199829.3871742-8.82737966.3871742-7.04436165,0-9.8395705-.73057322-10.94459351-1.34342565l-.01408488-.00784272-.01408488-.00760264c-1.00322773-.53362496-1.70683161-1.41152925-2.15178583-2.68389026-.52754285-1.50748251-.79451539-3.89302937-.79451539-7.09045763,0-2.68893201.2484061-4.77533518.73881608-6.20134945.21191345-.60380929.46736199-1.12102856.7772294-1.57118459.33419584-.49145034.71576809-.87990498,1.17288653-1.19705491.48656865-.32747351,1.55573924-.79475547,3.76514504-1.07877391,2.00581524-.25776935,5.196041-.38845464,9.48232668-.38845464,6.53666568,0,9.19486704.72673189,10.27428118,1.33646323l.01664577.00936325.01664577.00912316c.61269237.32923412,1.09605991.75826282,1.47827238,1.31157461.2688932.38629389.48976976.82828709.65942856,1.31901719.51665908,1.47403091.7772294,3.81556251.7772294,6.96537427Z" fill="#e35205"/><path d="M285.71986801,35.24042223c-.47376421-2.12489651-1.43665796-3.97057624-2.85923104-5.47813878l-.01408488-.01496519-.01408488-.01464508c-1.69146628-1.71395407-4.01099025-2.91869165-6.89518995-3.58092119-2.71966266-.62277586-6.48416748-.92544077-11.50990946-.92544077-5.98287373,0-10.24803208.42830846-13.03875937,1.3092538-.97633841.3113079-1.86944797.70600471-2.67612757,1.1820097V8.57397465h-10.2896465v56.30856185h10.2896465v-18.56539496c0-3.89430981.18758502-5.61146499.34507961-6.3662066.19270679-.905914.60885103-1.70723174,1.27020026-2.44236655.03585243-.04017392.06210153-.07138474.08963107-.09875423l.01536533-.01560541.0204871-.02168752c.86686046-.91663772,2.23117335-1.61752065,4.05580579-2.08328209,2.10825074-.53162427,5.21268677-.80179791,9.22175636-.80179791,3.54939026,0,6.21783517.19894896,7.93298966.59132496,1.41681108.32931414,2.41171593.83669001,2.95078277,1.50652218.12420305.15701442.23304077.31346865.31242829.44959583l.01536533.02648918.01664577.02600902c.37452982.59532635.62997836,1.29220789.78043051,2.13041843.22279722,1.2244244.33547628,3.61197195.33547628,7.09934071v18.56539496h10.29604872v-20.29023281c0-3.96961591-.17734147-6.8500543-.54162773-8.80449173-.0320111-.19470749-.07042441-.37484993-.10947795-.54738973Z" fill="#e35205"/><path d="M339.83846609,35.43560988c-.03777309-.23328086-.08258863-.45183661-.12804438-.65558723-.45263689-2.02030026-1.45010262-3.81588263-2.9661481-5.33985085-1.78301801-1.83543618-4.22930592-3.09451259-7.25755555-3.72657167-2.81185462-.59516629-7.17560714-.88502676-13.33518212-.88502676-7.97780519,0-13.39088142.73633522-16.54909609,2.25118028-3.27985683,1.57630636-5.12369593,4.53989358-5.33368871,8.57081073l-.10051484,1.94075269h10.43689754l.37260915-1.35558986c.18566435-.67471386.51857975-1.06396878,1.11270568-1.30173119.78555228-.31650971,3.18702466-.84429264,10.50348062-.84429264,4.32149788,0,7.40480658.18998585,9.16349617.56475575,1.4641875.31202815,2.52695587.85909777,3.15757445,1.62600359.08514951.10635686.16901858.23104008.24200388.36196546.38733425.672233.82780693,1.918585.90207267,4.22298373-.79003383-.35156186-1.65497363-.620295-2.59097806-.80459888-2.45076946-.47896601-7.21786179-.71160665-14.57785284-.71160665-9.63341905,0-12.62005425.7928348-14.02918266,1.38912148-2.23245379.9716968-3.83620967,2.41627751-4.78245765,4.30101078-.89823134,1.78926018-1.3355029,4.1294313-1.3355029,7.15431976,0,2.46917584.28105742,4.39960495.85853758,5.90156555.61525325,1.60663688,1.72923937,2.99679872,3.31122771,4.12911119,1.58775033,1.17584756,3.71648817,1.91690442,6.50657525,2.2656653,2.52183409.31610957,6.91759771.47640513,13.06372803.47640513,5.61282547,0,9.41638382-.30626616,11.62835051-.93616448.68247655-.19382718,1.33358223-.44959583,1.95139637-.76610554l-.03969376,1.58462925h10.30373138v-20.86899342c0-3.91031536-.15941526-6.70536415-.48848932-8.5441615ZM329.66662042,52.15452484c0,1.80926711-.73561497,2.34705351-1.45586462,2.63443312-1.04228127.41454369-3.72160995.90983536-10.55597881.90983536-10.59887368,0-12.63285868-.56459569-13.00418739-.73769569-.57363883-.27353481-1.24651205-.82892732-1.24651205-2.65684089,0-2.24309748.77466851-2.69877542,1.02947683-2.84850732.17990236-.1015552.87646379-.39309625,2.8874008-.57996102,1.67546073-.15005201,4.77093366-.22639847,9.19486704-.22639847,7.24475111,0,10.19937521.5349054,11.40235218.98362093,1.24267072.46087975,1.74844603,1.19105283,1.74844603,2.52151398Z" fill="#e35205"/><path d="M202.03521605,84.79110844c.21789568.24874236.46204386.50142259.73506977.7580407.27171329.25661811.57886745.4856711.92146246.68781529.34128239.20214419.72194353.36556595,1.1419834.48960897.42003987.12469934.87814585.187049,1.3769432.187049,1.02647243,0,1.82717343-.23364718,2.402103-.70028522.57492957-.46598173.86239436-1.09604153.86239436-1.88886679,0-.85517492-.3255309-1.49639204-.97921795-1.92430765-.65237442-.42791562-1.59352625-.7737922-2.82214287-1.03828605-.66943854-.13979452-1.2758711-.33406296-1.81929768-.58280532-.54473921-.24874236-1.01465881-.55983439-1.41107144-.93327609s-.70356678-.80463888-.92146246-1.29424785c-.21789568-.49026529-.32684352-1.0461618-.32684352-1.66834586,0-.57492957.10894784-1.11901246.32684352-1.63224868s.54342658-.96412276.97921795-1.35331595c.43579136-.38853688.98053057-.69962891,1.63290499-.93261977.65368705-.23364718,1.40713356-.34981445,2.2629648-.34981445.76132226,0,1.41894718.08138272,1.97024951.24480449.55261495.16342176,1.02253456.36162808,1.41107144.59461894s.70094153.47451379.93327609.72325615c.23364718.24874236.41216412.45088655.53686346.60643256l-1.49245416,1.37628688c-.09319635-.10894784-.23364718-.25268023-.42003987-.43185349-.18639269-.17851694-.42397774-.35309602-.71144253-.52439352s-.62218406-.3150299-1.00284519-.43185349c-.38197376-.11682359-.82039037-.17457907-1.31787509-.17457907-.49879735,0-.92540034.06628754-1.28374685.19820631-.35703389.13191877-.65237442.30321628-.8860216.51323622-.23364718.20936362-.40428837.44694867-.51323622.71078622-.10894784.26515017-.16276545.52898771-.16276545.79348157,0,.38853688.08138272.71931828.24414817.99103157.16407807.2723696.4003505.51323622.71144253.72325615s.69569103.38919319,1.15510964.53620715c.45810598.14832658.98315582.29205897,1.57383689.43185349.5762422.13979452,1.13935815.32290565,1.6919731.54802077.55130233.22577143,1.04484918.52898771,1.48064054.90964884.43579136.38131744.78101163.84795549,1.03828605,1.39991413.2559618.55195864.38459901,1.22402243.38459901,2.017504,0,.66878223-.13913821,1.28309054-.42003987,1.84226862-.27958904.55983439-.66418804,1.0461618-1.15379702,1.45832592s-1.06978904.7311319-1.73791496.95624702c-.66943854.22511512-1.39269469.33800083-2.16976845.33800083-.7311319,0-1.39531994-.0853206-1.99387676-.25661811-.59855681-.1706412-1.14329602-.38853688-1.63290499-.65303073-.48960897-.26383754-.91752459-.55589651-1.28243423-.87486429-.36622226-.31831146-.66550067-.63334137-.89914785-.94443339l1.58696313-1.44585599Z" fill="#004c97"/><path d="M225.12677028,88.96591095c-.84007974,0-1.60927775-.15160814-2.30890666-.45482442s-1.3021236-.71931828-1.80748406-1.24830599c-.50536047-.5283314-.90177309-1.13870183-1.18923788-1.83111131-.28877741-.69175316-.43185349-1.43404237-.43185349-2.22752393,0-.79282525.14307608-1.53511446.43185349-2.22752393.28746479-.69175316.68387741-1.3021236,1.18923788-1.83111131.50536047-.5283314,1.10785516-.94443339,1.80748406-1.24764967s1.46882692-.45482442,2.30890666-.45482442c.82432824,0,1.58696313.15160814,2.28659204.45482442s1.30606147.71931828,1.81929768,1.24764967c.51323622.52898771.91358672,1.13935815,1.2010515,1.83111131.28746479.69240947.43185349,1.43469868.43185349,2.22752393,0,.79348157-.14438871,1.53577077-.43185349,2.22752393-.28746479.69240947-.68781529,1.30277991-1.2010515,1.83111131-.51323622.52898771-1.11966878.94508971-1.81929768,1.24830599s-1.4622638.45482442-2.28659204.45482442ZM225.12677028,87.14595696c.5604907,0,1.06585117-.1122294,1.5160814-.33800083.45154286-.22511512.83220399-.52045565,1.14329602-.8860216s.54867708-.78560582.71144253-1.26011961c.16276545-.47385748.2454608-.95952858.2454608-1.45766961,0-.48173323-.08269535-.96018489-.2454608-1.43469868-.16276545-.47385748-.40428837-.89783522-.72325615-1.27062061-.31896778-.3734417-.69962891-.6727201-1.14329602-.89849153-.44235449-.22511512-.94377708-.33800083-1.50426778-.33800083-.55917808,0-1.06453854.11288571-1.5160814.33800083-.45154286.22577143-.83220399.52111196-1.14329602.88667791s-.54736445.78494951-.71144253,1.2594633c-.16276545.47451379-.24414817.96018489-.24414817,1.45766961,0,.49814103.08138272.97987426.24414817,1.4465123.16407807.46598173.40428837.8860216.72325615,1.2594633.31896778.37278538.69962891.6727201,1.14329602.89783522.44366711.22577143.94508971.33800083,1.50426778.33800083Z" fill="#004c97"/><path d="M241.05809495,79.48028566h-1.95974852v-1.74907227h1.95974852v-.88667791c0-.73047559.10500997-1.36447326.3150299-1.90068041.21001993-.53686346.48960897-.97593638.83876711-1.31787509.35047077-.34193871.75082127-.59461894,1.2010515-.7580407.45154286-.16342176.92540034-.24480449,1.42288506-.24480449.5762422,0,1.13935815.08925847,1.6919731.26777542.55130233.17917326,1.06060067.48632741,1.52789503.92146246l-1.05009967,1.35331595c-.57492957-.48238954-1.18923788-.72325615-1.84292493-.72325615-.60643256,0-1.09210366.19426844-1.4570133.58280532-.36622226.38919319-.54867708,1.05797542-.54867708,2.00634669v.69962891h3.10173191v1.74907227h-3.10173191v9.48562529h-2.09888672v-9.48562529Z" fill="#004c97"/><path d="M256.59270912,79.55761786h-1.95974852v-1.74907227h1.95974852v-3.54539902h2.09888672v3.54539902h3.17261364v1.74907227h-3.17261364v5.34172578c0,.87092642.13520033,1.46948323.40822625,1.79632675.27171329.32618721.6563123.48960897,1.15379702.48960897.40428837,0,.73900765-.06169336,1.00415781-.18639269.26383754-.12469934.52767509-.31109203.79282525-.55983439l.9555907,1.28243423c-.45023024.43579136-.91358672.75082127-1.38744419.94508971-.4751701.19426844-1.03828605.29140266-1.69066047.29140266-1.15117177,0-1.99518938-.31109203-2.53074021-.93327609-.53686346-.62152774-.80463888-1.59352625-.80463888-2.91533922v-5.55174571Z" fill="#004c97"/><path d="M270.66462863,78.11969395h2.31021928l2.42573025,8.28069224,2.61212294-8.28069224h1.79567044l2.61343556,8.35026134,2.37847576-8.35026134h2.16976845l-3.59265351,10.84621701h-2.07525948l-2.52023922-7.58040702-2.49529935,7.58040702h-1.95974852l-3.66222261-10.84621701Z" fill="#004c97"/><path d="M302.24768894,87.3566332c-.40428837.54408289-.93721396.94837127-1.59746413,1.21286512-.66156279.26383754-1.34150233.39641263-2.04113124.39641263-.45154286,0-.89783522-.05841179-1.34150233-.17523538-.44366711-.11616728-.84795549-.31043572-1.21286512-.58280532-.36622226-.27171329-.66156279-.62152774-.8860216-1.04944336-.22577143-.42791562-.33865714-.95230914-.33865714-1.5744932,0-1.16626695.40822625-2.09954304,1.22467874-2.79917194s1.99387676-1.04944336,3.5335854-1.04944336c.24808605,0,.51323622.00787575.79282525.02297093.27958904.0157515.54473921.03150299.79282525.04659817.24939867.0157515.46729435.03150299.65368705.04659817.18639269.0157515.31896778.03150299.39641263.04659817v-.39641263c0-.80792044-.2454608-1.38744419-.73506977-1.73791496-.48960897-.34981445-1.15379702-.52439352-1.99387676-.52439352-.82432824,0-1.47801529.11288571-1.95974852.33800083-.48173323.22577143-.8860216.45482442-1.21286512.6884716l-.97921795-1.42288506c.18639269-.15554601.41216412-.31109203.67600167-.46663804.26515017-.15554601.57492957-.29927841.93327609-.43185349.35703389-.13191877.76132226-.24086661,1.21286512-.32618721s.9713422-.12863721,1.56333589-.12863721c1.39925782,0,2.49923722.33865714,3.29993822,1.01465881.800701.67665798,1.2010515,1.63684287,1.2010515,2.88121098v6.3091301c0,.38131744.00787575,1.00678306.02362724,1.27127692h-1.99035441l-.01533596-1.60927775ZM302.2240617,83.53098883c-.06169336-.01509518-.18245482-.03478455-.36097176-.05841179-.17982957-.02297093-.38591163-.0426603-.61824618-.05775548-.23364718-.0157515-.48304585-.03150299-.74688339-.04725449-.26515017-.01509518-.52111196-.02297093-.76919801-.02297093-.59199369,0-1.06978904.07022542-1.43469868.21001993-.36622226.13979452-.65368705.3150299-.86370698.52439352-.21001993.21001993-.35309602.44366711-.43054087.70028522-.07875748.25661811-.11682359.50142259-.11682359.73441346,0,.59133738.20214419,1.03828605.60643256,1.34150233s.96346645.45482442,1.67884685.45482442c.40428837,0,.78888738-.07022542,1.15510964-.21001993.36490964-.13979452.68781529-.32684352.96740432-.55983439.27958904-.23364718.50536047-.50536047.67731429-.8164525.1706412-.31109203.2559618-.6300598.2559618-.95624702v-1.23649237Z" fill="#004c97"/><path d="M314.45830758,79.89324536v-1.17808057c0-.33406296-.00787575-.67993954-.02362724-1.03762974h2.00569038l.0695691,1.74907227c.12469934-.18639269.28877741-.39247475.4909216-.61758987.20083156-.22577143.44629236-.43185349.73375715-.61824618.28746479-.187049.62218406-.34587658,1.00415781-.47845166.38066113-.13191877.81907775-.19820631,1.31787509-.19820631.23233455,0,.44629236.0157515.6405608.04659817.19426844.03150299.37672326.07810116.54867708.13979452l-.46729435,1.95974852c-.27958904-.10894784-.63662293-.16342176-1.07241429-.16342176-.45154286,0-.86764486.08597691-1.24830599.25661811-.38066113.17129751-.71144253.40822625-.99103157.71144253s-.50142259.65696861-.66418804,1.06125698c-.16407807.40428837-.2454608.83220399-.2454608,1.28309054l-.02362724,6.15667006h-2.09888672l.02362724-9.07266559Z" fill="#004c97"/><path d="M339.90140884,87.02867748c-.12469934.14045083-.31109203.31896778-.55917808.53686346-.24939867.21789568-.57230432.42791562-.96871695.62940349-.39641263.20214419-.86239436.37737957-1.39925782.52504984s-1.14723389.22183356-1.83111131.22183356c-.84007974,0-1.60927775-.14045083-2.30890666-.42003987-.69962891-.28024535-1.29818572-.67665798-1.79567044-1.18989419-.49879735-.51323622-.88339635-1.12688821-1.15510964-1.84226862s-.40822625-1.50820566-.40822625-2.37913207c0-.79348157.13257508-1.53577077.39641263-2.22818025.26383754-.69109685.63793555-1.29030997,1.11966878-1.79567044s1.05403755-.90571097,1.71428772-1.2010515c.66156279-.29534053,1.38744419-.44366711,2.18158207-.44366711.93196346,0,1.73266446.17917326,2.402103.53686346.66812592.3576902,1.216803.83220399,1.64471861,1.42288506.42660299.59068107.74163289,1.26733904.94377708,2.02931762s.30321628,1.55480383.30321628,2.37913207h-8.55962497c.0157515.48173323.11944884.92540034.3150299,1.32968871.19426844.40428837.45416811.75410283.78101163,1.04944336s.69962891.52898771,1.11966878.69962891c.42003987.17129751.86370698.25661811,1.32968871.25661811.91752459,0,1.67097111-.15554601,2.2629648-.46663804.59068107-.31109203,1.01728406-.61430831,1.28243423-.90964884l1.18923788,1.2594633ZM338.01254205,82.2474424c-.06300598-.84007974-.35834651-1.55480383-.8860216-2.14614121-.52898771-.59068107-1.2758711-.88667791-2.23933755-.88667791-.49879735,0-.94508971.08597691-1.34150233.25661811-.39641263.17129751-.73506977.39706894-1.01465881.67665798s-.49748472.60249469-.65368705.96806064c-.1548897.36556595-.2402103.74294552-.2559618,1.1314824h6.39116914Z" fill="#004c97"/><path d="M66.120834,56.64645816c-.09760736.06422166-.19733782.12459917-.29550566.18783481.000952.00807644.00246007.01629009.00341207.02436653.09917749-.06786098.19353836-.14333908.29209358-.21220134Z" fill="none"/><path d="M90.96685848,48.37538319c-.07369643,1.38151291-.20723256,2.75383485-.40985558,4.13073822-.03684821.28090088-.0828874.55261079-.12892659.83351167,0,.00921908-.00460954.02301959-.00460954.03223867-.00921908.04603919-.01382862.09668792-.01843816.14275521-.04603919.28551042-.10129746.5664113-.15655572.84731218-.98548596,5.17148245-2.89656195,10.21398209-5.67802594,14.83285376-.17499388.29011996-.34998777.58484946-.54339171.87496942-.01841005.02762913-.03223867.05064873-.05064873.07827786-.18421296.29011996-.37300736.58023992-.56643941.87494131-2.50511643,3.74390224-5.59971997,7.16547396-9.26992578,10.09427458-.65854589.52498165-1.31245413,1.0269156-1.98477243,1.49202945q-.00921908.00460954-.01382862.00460954c-.29933904.21642353-.58484946.42365609-.88876993.61706003-.06908689.04606729-.11973562.09210648-.1888225.13817378h-.01841005c-.30392047.20720445-.59404043.40521793-.90259855.59864997h-.01841005c-1.87886543,1.18808087-3.81757056,2.20119596-5.79315202,3.04853625-1.16506127.50193395-2.34395117.93941866-3.53206014,1.31703556-.00460954,0-.00921908.00460954-.01380051.00921908-.62169767.20262302-1.24336724.38680788-1.86964635.55261079-.82432069.22103307-1.64861328.41443701-2.47293397.58021181,0,0-.00919097.00460954-.01380051.00460954-.105907.01843816-.20262302.03684821-.30394858.05064873,0,0-.00919097.00921908-.01380051.00921908-.27170991.05064873-.53878217.09671602-.81049207.14275521-.11973562.01843816-.22564261.03684821-.34537823.05064873h-.01380051c-.26249083.04606729-.51576257.09210648-.78286294.1289547h-.00460954c-.1289547.01841005-.25327175.03223867-.38222644.04603919h-.00919097c-.17960342.0230477-.35459731.04606729-.52959119.06447735h-.00460954c-.40985558.05064873-.81510161.09210648-1.22031954.11973562-.10132556.01380051-.19804158.01841005-.29933904.02762913-3.98337347.2947295-7.93908971-.03684821-11.73825022-.98548596-.26249083-.06447735-.52498165-.12892659-.78747248-.20262302-.19801348-.05525827-.39141742-.11051654-.58943089-.1657748-.01843816-.00460954-.04606729-.01382862-.06447735-.01841005-.20262302-.05986781-.4006365-.11512608-.60325951-.1888225-.02301959-.00460954-.05064873-.01380051-.07827786-.02301959-2.84133179-.88876993-5.57211894-2.13213718-8.12330267-3.72549219-.00460954,0-.01382862-.00458143-.01841005-.00919097-.14736475-.09210648-.29933904-.1888225-.44670379-.28551042-.01841005-.00921908-.03223867-.0230477-.05064873-.03684821-.14275521-.09210648-.29011996-.19340394-.43287517-.29011996-2.2058055-1.45518123-4.26888389-3.195901-6.14772122-5.1898925-.1289547-.13814567-.25788129-.2716818-.38222644-.41443701-.20262302-.22564261-.40524604-.45131333-.60325951-.68156548-.1289547-.14733664-.25788129-.29931093-.38222644-.45128522-.03684821-.04603919-.07366832-.08749694-.11051654-.13353613-.1657748-.19343204-.32696817-.38683598-.4835239-.58023992-.47433292-.59404043-.93483723-1.20651903-1.37690337-1.83740768-9.15482782-13.02768475-9.17787552-30.51301969-1.40914205-44.51697132v-.00458143s0-.00460954.00458143-.00921908c.21645164-.39602696.44209425-.78286294.67695594-1.16967081.00460954,0,.00460954-.00460954.00460954-.00921908,2.69393894-4.53595615,6.22599908-8.66669438,10.55014124-12.12047666.24408077-.19340394.48813344-.38683598.73682375-.57102084l.00458143-.00460954.08749694-.06447735c.11051654-.08749694.22106118-.17038434.33157771-.24866221,4.02941266-3.0071066,8.37196488-5.17145434,12.81581455-6.52533812.17499388-.05986781.35920685-.11054464.53881027-.16580291.11051654-.03221057.22564261-.06444924.33615915-.09668792h.00921908c.105907-.02762913.20720445-.05525827.30853001-.0828874l.00460954-.00460954c.13353613-.03684821.25327175-.06447735.3776169-.09210648.12431705-.02762913.24405267-.05986781.3775888-.09671602-.00860073.00410362-.01630203.00950015-.02487465.01365998,4.53376381-1.13276639,9.15260737-1.43705225,13.61897071-.92083997h.00460954c.13353613.01380051.26710037.03223867.4006365.05064873.18421296.02301959.36839782.04606729.55261079.06908689.12892659.01841005.25788129.03682011.38680788.05986781h.00460954c.84734029.12892659,1.69007103.28551042,2.51897316.47891436.36378828.07827786.72757656.1657748,1.08217387.26249083.57102084.14736475,1.13746025.30853001,1.69926201.47891436.34076869.1059351.68153738.21645164,1.01772463.33618725.01841005,0,.03682011.00919097.05064873.01841005,6.2398277,2.15054723,11.89483405,6.03259514,16.28342545,11.56786587.15658383.19340394.31774909.39141742.46972338.59404043l.57102084.76906242c.09671602.12892659.1887944.26249083.27629134.39141742,1.2387577,1.75912981,2.30713106,3.60114703,3.21433916,5.50303206.82890213,1.73611022,1.52426812,3.5274506,2.08146034,5.35566731.17960342.58482135.34079679,1.17428035.49274298,1.76832079.06908689.24408077.1289547.483552.18421296.72760467.01841005.07366832.03684821.14736475.05064873.22103307.05525827.24869031.11051654.49735252.1657748.74601472.1059351.51579068.20723256,1.04074422.2947295,1.56572588.06908689.40524604.14275521.81971115.1888225,1.22492908.10129746.72760467.17957532,1.45520934.23944313,2.18739544.16580291,1.91571365.20262302,3.85444688.09671602,5.78854248Z" fill="url(#b)"/><path d="M85.14467405,21.2104677c.83592686,1.20092635,1.61779771,2.46376232,2.32620018,3.75785362l.12005809-.06431387c-2.02306843-5.85616888-5.9180874-11.44005566-10.99069107-15.74908519l-.97957845-.80422395-1.00765174-.76275052c-.70153347-.51871844-1.40456021-1.00497941-2.08697995-1.44255417-.67973188-.43817583-1.41471437-.8991921-2.18643106-1.30671366l-.08571311-.04447875c-.71676472-.37386196-1.45831756-.76034626-2.20673939-1.08972947-2.87781036-1.35660199-6.09040958-2.38261864-9.55596702-3.05160314-5.7209771-1.10415501-11.68923803-1.00077196-17.26029183.29692573l-.00119461.00060106-.00149326-.00601064-.42617636.09677134-.00149326-.00721277c-.95658225.22600015-1.91495642.48445778-2.85839799.77056435-5.70007146,1.72986288-10.99367759,4.4472743-15.30919853,7.8577128l-1.21222834.96530917c-.54533849.43276625-1.03453042.82586226-1.50878974,1.25742639-1.80684441,1.53571913-3.56261933,3.32869376-5.53372231,5.64880172-1.86388693,2.21071427-3.37894837,4.30963059-4.63059876,6.41696182-1.47534072,2.45534742-2.65770386,4.76463622-3.61607803,7.06070162-1.01093691,2.38201758-1.8591085,4.91490228-2.52211587,7.53073385-.62448126,2.46075699-1.0844053,5.09762581-1.36663141,7.83727661-.23085797,2.24136855-.28401802,4.55246055-.16246667,7.06490907.53578163,11.05597561,4.51561776,21.22778573,11.20631779,28.64311525,6.97292615,7.72848399,16.21172478,12.55743408,26.01407967,13.59667415,9.007642.95328788,18.49372446-1.36381476,26.07052489-6.36647242l-.12543383-.26747359c-8.6806181,4.34629551-18.97813795,5.31100362-28.30593487,2.64167733-.80516571-.2302076-1.61899232-.49347374-2.41908094-.78138351-9.38872192-3.38158741-17.2244536-10.4495018-22.06351144-19.90003483l-.11259179-.2470374c-.44051165-.96831449-.8959559-1.96968751-1.27136143-2.99269885-.83353764-2.19448554-1.4941558-4.46109878-1.96244208-6.73252054-.45156178-2.2774324-.73378789-4.622184-.83980933-6.97174411-.11109853-2.27562921-.03344902-4.6372106.23055932-7.01922818.99391375-9.25759141,4.77873014-18.33846993,10.65679817-25.56746954,1.59629477-1.95766623,3.16780142-3.62682162,4.80471286-5.10183326,1.90958068-1.73647459,3.70567362-3.15739045,5.48952182-4.34389126,1.91644968-1.29709663,3.96251431-2.46015593,6.07906081-3.45611937,2.01201831-.94667618,4.1733626-1.76111822,6.42579574-2.42228888l-.00149326-.02103725.16097341-.02344151.32672525-.09256389-.00119461-.01923406.14902733-.01923406v.00120213c5.02511801-1.35059135,10.12101654-1.74669268,15.14374534-1.17508059l.00029865-.00060106c.02628137.00180319.05077083.00480851.07346838.00901596l.36913383.04688301c.25206226.03125534.50322857.06251068.72423102.09977666,11.27948753,2.0706663,20.35253431,7.68941481,26.24224977,16.24917064Z" fill="url(#c)"/><path d="M66.46479324,56.54084099c-.09760736.06422166-.19733782.12459917-.29550566.18783481.000952.00807644.00246007.01629009.00341207.02436653.09917749-.06786098.19353836-.14333908.29209358-.21220134Z" fill="none"/><path d="M66.35750734,9.96473154c-.01382862-.00921908-.03223867-.01841005-.05064873-.01841005-.33618725-.11973562-.67695594-.23025215-1.01772463-.33618725,2.00318248.73682375,3.97415439,1.68546149,5.88064896,2.86896093.00919097,0,.01380051-.00460954.01841005-.00460954-1.57030731-.99470504-3.18668192-1.83282624-4.83068565-2.50975408Z" fill="url(#d)"/><path d="M82.48899947,53.7080148c.96705109-5.24053108,1.22034835-10.49028974.80584515-15.48213736,3.10388336.40518333,5.45701026.18418263,6.85231366-.617141-.05527324-.24859119-.11054649-.49727465-.16572746-.74595811-.01384138-.07372842-.03229655-.14736456-.05065945-.22109298-1.36309912.80593743-3.66104505,1.03155192-6.71879048.6355039h-.00461379c-.51111603-4.95041575-1.69464631-9.62907907-3.53665718-13.7505807,1.7038739.21638691,2.9702679.08747752,3.70247691-.37768513.04604566-.03220428.08747752-.05988704.12890939-.09209132h.00461379c.06450083-.05065945.12429559-.1059327.17495505-.16111366l-.57100307-.76911936c-.05527324.06450083-.12429559.12438787-.19341022.17966111h-.00461379c-.04143186.03220428-.07363614.05518097-.1196818.08286373h-.00461379c-.68616335.43747989-1.88344274.57100307-3.47686242.35922995h-.00461379c-1.59332741-3.34333924-3.6287485-6.29976576-6.10626327-8.7127797-.0137491,0-.02297669-.00461379-.03681807-.00461379,2.38542346,2.39917256,4.32413944,5.34184998,5.82998932,8.67125556-1.20650697-.18418263-2.62026554-.54332031-4.21359295-1.09596048-.58484445-.20263781-1.17430269-.4282523-1.76376093-.66309439.17043353-2.83674472.01384138-5.25437246-.49275313-7.10561092-.01384138-.00461379-.03220428-.00922759-.04604566-.01845517.38220664,1.80057901.40527561,4.16302577.11977408,6.94901877-2.18278565-.91177785-4.34259461-2.04003488-6.28592438-3.26038323,2.04003488-1.87421515,3.89588713-3.26038323,5.49382833-4.03402411-.01384138-.0137491-.02759048-.0183629-.04143186-.02759048-1.7038739.70000473-3.67027264,2.01705819-5.81614794,3.8360001-1.92035308-1.22496214-3.60115801-2.52817422-4.84457533-3.77149926,3.49983911-.75527798,6.92142828-.9486882,10.14028738-.46977644-.00913531-.00461379-.0137491-.0183629-.02759048-.02759048-3.28797372-.54802638-6.78319903-.43747989-10.34753897.26252484-.62166252-.64011769-1.11902945-1.26639401-1.46893954-1.85585225-.32241188-.54341258-.49736693-1.02232434-.53889107-1.43221374,4.1262077.22109298,8.22002657,1.09605276,12.13898267,2.67553878v-.02297669c-3.92356989-1.62562396-8.02661635-2.5420156-12.15273177-2.80906196v-.00461379c-.00922759-.69077715.39143423-1.17891649,1.13739235-1.43682754-.12890939-.02306897-.25781877-.04143186-.38682044-.05988704-.18418263-.02297669-.36836526-.04604566-.5525479-.06902235-.75989177.29011533-1.15593979.80123136-1.14671221,1.5149852,0,.05075173,0,.11054649.00922759.17043353.04604566.43747989.23484208.9486882.57561686,1.52430506.37307133.62627631.90264254,1.2893707,1.56112313,1.97553405-4.33336702.94859592-8.74498398,2.74917493-13.01385017,5.24975866h-.00461379v-.00461379c-1.21573456-1.26178021-2.19662703-2.48212856-2.88269811-3.64258988-.63089011-1.0637562-.97627868-2.00321681-1.05914241-2.81367576,4.7938236-1.63937307,9.82248929-2.43608291,14.81895069-2.28871835-.00461379-.05988704-.00461379-.11506801-.00461379-.17043353-5.00568899-.20254553-10.04358227.54350486-14.83740587,2.14596758-.01845517-1.19727938.83417384-2.25835959,1.98549984-2.80638596-.26252484.07372842-.49358362.12263463-.75601618.19174925-1.22957594.55716169-2.16433048,1.67988217-2.14126151,2.93704859.00461379.1013189.00922759.2072516.0183629.31770581.08295601.83352791.44209368,1.79596521,1.09143896,2.87817659.69991246,1.1880518,1.70848769,2.44992429,2.95181273,3.73929499.07824994.08286373.15659215.16120594.23022829.23945588-.07824994-.07824994-.15659215-.15659215-.23484208-.23945588-4.25041102,2.58806126-8.34432216,5.8621936-12.04679908,9.68896611-1.62553169-1.68080493-2.92874376-3.320178-3.85436299-4.86284595-.8427555-1.41837236-1.29869056-2.67553878-1.41375857-3.75313637,4.00172755-3.33872544,8.51004962-5.93592202,13.27166895-7.69045536-.00452152-.11045421-.0137491-.21177312-.0183629-.31770581-4.76161932,1.71300921-9.26994139,4.26886619-13.27637501,7.58452267-.01845517-1.14209841.6458388-2.97377439,1.43784257-3.67377912l-.44956803.33856016c-.85659688.71836763-1.76191542,2.78257879-1.74346024,3.97985817,0,.13813697.00922759.28098002.02759048.42373078.11054649,1.08673289.57561686,2.3577407,1.42759995,3.79447595.92561923,1.55650934,2.24719421,3.21433757,3.89127334,4.91821147.1013189.1059327.20254553.21186539.30386443.31779809-.1013189-.1013189-.20715932-.2072516-.30847823-.31318429-3.64720367,3.89588713-6.89374552,8.33057306-9.49564816,13.16121473-1.78673763-1.85123846-3.21885909-3.65181746-4.22282053-5.34646377-.93023302-1.56112313-1.43673526-2.93797135-1.56112313-4.12150163,2.61565175-4.80766498,6.02339954-8.97521227,9.96071854-12.41055055-.0183629-.14275077-.02297669-.28559381-.02297669-.42373078-3.9327052,3.40774779-7.34506679,7.56615977-9.96071854,12.36921096-.01384138-.66318666.18418263-3.02092736.40979713-3.64258988-.23484208.38682044-.46045658.77364087-.67693577,1.1696889-.00452152.00461379-.00452152.00913531-.00452152.00913531v.00461379c-.21186539,1.25255263-.33625326,2.28871835-.23954815,3.42158917-2.50049146,4.86293823-3.96952328,9.91467288-4.48986689,14.9202696,0-.08747752.00461379-.17495505.00461379-.26243257l-.07372842.80123136c-.0137491.13822925-.0137491.27636622-.0137491.41911699,0,.13813697.0137491.27627395.02759048.41902472.11054649,1.08682517.57561686,2.3393778,1.41837236,3.77149926.92100544,1.55189554,2.23805889,3.20058847,3.87281817,4.89523478.20263781.20254553.40527561.41441092.61252721.62166252,3.28797372,3.26961082,7.70881826,6.7003353,12.75132533,9.92390047-1.43673526,3.92809141-2.3393778,7.32661162-2.69860775,10.07117275-3.89118106-2.48674236-7.30815644-5.12998459-9.84555825-7.65815881-.84727702-3.68863553-.93946061-7.86079662-.20715932-12.33691441-.21186539-.2072516-.4145032-.41911699-.617141-.62166252-.69077715,4.50832207-.56177548,8.73575639.35461616,12.47505138-1.26178021-1.30782587-2.27487697-2.57421988-2.98872308-3.77149926-.34991009-.59407204-.62166252-1.14671221-.80584515-1.66705583l.25329726.76902708c.17956884.52495741.4466152,1.08682517.80584515,1.69003252.69539094,1.1696889,1.69003252,2.41301394,2.91960845,3.68863553.534185,1.93410219,1.27562159,3.73468119,2.22883131,5.36491895.03681807.04604566.07372842.08747752.11054649.13352318.12890939.15659215.26243257.31770581.39604802.47429796-.00461379-.00922759-.00922759-.01384138-.01384138-.02297669-.98089247-1.65321445-1.73146438-3.48599773-2.25651407-5.47998695,2.47290098,2.46828718,5.80239884,5.04250707,9.60158086,7.47858997-.2072516,1.88805653-.13361546,3.43072448.2210007,4.57734442.01845517.01384138.03229655.02768276.05065945.03691035.14736456.09661283.29934291.19341022.44670748.28550153.00461379.00461379.01384138.00913531.01845517.00913531-.28559381-1.09596048-.28098002-2.59719657-.00922759-4.45304882,3.85897679,2.41301394,8.15091194,4.66030042,12.48880048,6.47010701-1.09134669.95320971-2.09982965,1.66244203-3.02083508,2.10453571.26243257.07363614.52495741.13813697.78748225.20254553.95320971-.42363851,1.98014784-1.0821191,3.06226694-1.96630646,1.16507511.46968417,2.33015021.91639164,3.49522532,1.31705346,1.96178495.67693577,3.79456823,1.21573456,5.48007923,1.60716879.40518333-.02768276.81045895-.06911462,1.22025607-.11977408-1.88805653-.41441092-3.96952328-1.00848296-6.21680976-1.79135142-1.19266559-.40979713-2.38071739-.8611184-3.57808905-1.34464394,2.1321262-1.82816949,4.48534538-4.48073158,6.94440497-7.87925179h.00461379c1.55189554.62627631,3.0945635,1.21112076,4.63732373,1.74530576,4.19513777,1.45980423,7.93443276,2.41762773,11.12108757,2.90115328-2.31169504,2.17826413-4.73855036,3.95116038-7.22520044,5.2912828.62627631-.16581973,1.24793883-.35000237,1.86960136-.55264017.00461379-.00461379.00922759-.00922759.01384138-.00922759,2.11367103-1.24341732,4.18138867-2.78608527,6.15230893-4.61886856,1.13748462.14736456,2.19662703.23022829,3.17290571.25329726h.0183629c.3085705-.19341022.59868583-.39143423.90264254-.59868583-1.0500071-.00922759-2.20585462-.09209132-3.44917966-.25791105,3.33863317-3.24192806,6.38253722-7.31277024,8.93830192-12.1526395,2.72167672.35000237,5.03337175.36375147,6.87538263.06440856.19341022-.29463685.38220664-.58484445.56638928-.87495978.01845517-.02759048.03229655-.05056718.05065945-.07824994-1.86498756.33154719-4.22282053.32231961-7.00429201-.04143186h-.00452152c2.47290098-4.8951425,4.23204812-10.09424172,5.28196294-15.32554521-.13352318-.01845517-.26713864-.03691035-.40527561-.05536552.13352318.01845517.27175243.03691035.40527561.05075173,3.37545124.43738761,6.07405899.31309202,7.94827414-.33625326.05527324-.28088774.11054649-.56177548.15659215-.84727702.00461379-.04604566.00922759-.09670511.01845517-.14275077,0-.00922759.00461379-.02306897.00461379-.03220428-1.85585225.67232197-4.54984621.80584515-7.93913883.36836526ZM81.68306204,53.58824072c-3.17281343-.47891175-6.89365325-1.43212147-11.0659066-2.87808431-1.53805416-.53879879-3.07610833-1.11902945-4.61425476-1.74069197,1.8881488-4.96425713,3.45840724-9.83642294,4.63732373-14.37242777h.00461379c1.17430269.47891175,2.36235449.92100544,3.53665718,1.33550863,3.20510999,1.10980186,6.0648314,1.84201087,8.49168672,2.21046841.33616099,4.97800623.01845517,10.21853731-.99012006,15.44522701ZM33.00320487,69.17178926c1.54728175-3.95577417,3.60115801-8.43189196,6.12471844-13.2856026,5.59053344,3.49061152,11.81195699,6.75099476,18.10701669,9.38048788-2.5420156,4.83986926-5.08393893,9.07191738-7.48781756,12.58098408-5.81614794-2.43608291-11.57250112-5.43855509-16.73930378-8.67125556h-.00461379v-.00461379ZM57.71385175,64.33644151c-6.29505969-2.62949313-12.50725566-5.88064877-18.0977891-9.37587409h-.00461379c2.56499229-4.85832443,5.36944046-9.63378514,8.25684464-14.12826583h.00461379c5.13921217,3.20972378,10.87249639,6.20758217,16.65644005,8.62991597-1.99398922,4.95041575-4.29193516,9.99283054-6.81549559,14.87422394ZM48.4208414,39.975797h-.00461379c2.89201797-4.45775489,5.85767208-8.61607459,8.73584867-12.28164116,3.90963624,2.44521822,8.25223085,4.71557367,12.65000642,6.55758454-1.28014311,4.4852531-2.93797135,9.32982843-4.89052871,14.2664028-5.72867042-2.39465104-11.40206759-5.35569136-16.49071259-8.54234617ZM74.84458976,22.31078171c1.6992601.58945824,3.20510999.97627868,4.48995917,1.1696889,1.74069197,4.11236632,2.83213093,8.76805295,3.26499703,13.7138549-2.37619587-.35922995-5.15766735-1.07298379-8.2845274-2.15971668-1.14661993-.40066182-2.29794593-.82891412-3.45379345-1.30330436h-.00452152c1.12355096-4.4852531,1.85114618-8.60684701,2.11367103-12.12504901.63089011.25329726,1.25255263.48813934,1.87421515.70452625ZM65.83717321,17.954438c2.06301157,1.28946298,4.37018509,2.49135615,6.69572151,3.46763483-.40527561,3.45840724-1.25716642,7.53386322-2.48674236,11.97768445-4.28722909-1.79135142-8.53311859-4.01095514-12.3415282-6.3963786h-.00461379c2.85972142-3.59193043,5.62735151-6.68197241,8.13254905-9.04894069h.00461379ZM60.29268543,13.70402698v-.00461379c1.33080256,1.32166725,3.11763247,2.70312927,5.14843976,4.00634135-2.62949313,2.29794593-5.50305592,5.30503191-8.45948245,8.84630288-3.75313637-2.40378635-7.05033767-4.95502954-9.49555589-7.39563397,4.21359295-2.55585698,8.55157376-4.42555061,12.80659857-5.45239647ZM46.67553563,19.6536981h.00461379c2.50519753,2.50058374,5.88526256,5.11623548,9.73049025,7.57529508-2.9702679,3.60577181-6.00494437,7.71343206-8.95684937,12.13889039-5.0194381-3.20972378-9.41730595-6.61747158-12.6822107-9.87324101,3.66095277-3.85897679,7.71343206-7.18838237,11.90395603-9.84094446ZM34.07618866,30.24069296h.00461379c3.2972013,3.28797372,7.74563633,6.73263186,12.81121237,9.97455992-2.92883604,4.46227641-5.77010228,9.21466815-8.33048078,14.07760637-5.50766971-3.52290808-10.34301746-7.25758927-13.9257203-10.84029211,2.59728885-4.83064167,5.82537553-9.27916898,9.44037492-13.21187418ZM14.61991424,52.96196441c-.86121067-1.44134905-1.33089484-2.71697065-1.44144133-3.80831734v-.02306897c.52504969-4.97800623,2.00321681-10.02974089,4.50832207-14.89267911.01845517.13813697.04152414.27627395.06450083.41902472.2256145,1.31705346.81968653,2.55124319,1.4920085,3.69324933,1.00857523,1.69464631,2.44531049,3.49522532,4.23204812,5.34646377-2.51433284,4.86755202-4.14909211,9.67060321-4.94580196,14.21112955-1.64860065-1.70839541-2.98401701-3.37545124-3.90963624-4.94580196ZM19.15121299,58.53865647l-.00452152-.00461379c.83343564-4.51293586,2.48203629-9.28830429,4.99184761-14.15585631,3.59645194,3.57808905,8.42718589,7.31738403,13.93485561,10.84029211-2.52817422,4.85371064-4.54984621,9.34819133-6.0510823,13.33155598-5.08855272-3.24654185-9.55544293-6.7049491-12.8710994-10.01137799ZM42.59094435,86.4820961c-4.44391351-1.86046604-8.84630288-4.15370591-12.79284947-6.62660689.45132127-2.68476637,1.43221374-6.03724092,2.91038087-9.93312805h.00461379c5.12084928,3.20049619,10.81722314,6.17537789,16.57357632,8.58377804-2.39926484,3.42158917-4.66952801,6.11087706-6.69572151,7.9759569ZM66.76740624,82.99609837c-3.21433757-.48813934-6.99045063-1.45519043-11.22711255-2.92422225-1.56112313-.54341258-3.12224626-1.13287083-4.68789091-1.76828245,2.46367339-3.48609001,5.03789327-7.69968295,7.5798166-12.5487798,1.69012479.68616335,3.3847711,1.33080256,5.06557603,1.91103322,4.58666428,1.58880589,8.67586936,2.63872071,12.14811798,3.16829192-2.5603785,4.83996154-5.58591965,8.91541751-8.87850716,12.16195936ZM76.12943894,69.90390599c-3.48599773-.52495741-7.56606749-1.57025844-12.15273177-3.16819964-1.68080493-.58023066-3.37083745-1.22034835-5.06086996-1.90189791h-.00461379c2.52356043-4.88600719,4.77998222-9.94226336,6.723312-14.91574808h.00461379c1.55650934.62627631,3.11301867,1.21573456,4.65568663,1.75453335,4.22282053,1.46441802,7.98518449,2.42685532,11.18568068,2.91038087-1.09143896,5.2266897-2.8735628,10.42578891-5.35107757,15.32093141Z" fill="url(#e)"/><path d="M78.93387876,79.61600755c-2.3347602,2.67091934-7.29898198,6.32732464-11.30998459,7.77792444,1.45518123-3.20972962,2.85513231-7.11018758,2.85513231-14.3539394,0-1.82357906.01841005-4.20898798-.07830597-5.2497322,1.22956673-.81971115,2.42686668-1.67163287,3.57812744-2.50975408,1.85584584-1.3216451,5.11161464-4.42543962,5.4615743-4.84912381.51118114,5.36488639.7782534,11.37446193-.50654349,19.18462505Z" fill="url(#f)"/><path d="M77.14251027,48.31551538c-.92100861.95324728-1.87425589,1.89269405-2.85971374,2.79065496-.99470504.90720809-2.03083972,1.77295844-3.10382262,2.59264148-.73679564.56643941-1.49202945,1.10061203-2.25184469,1.63481277-2.35319836-11.07054146-11.97311191-20.43718327-17.64191877-24.83960329-.00921908.00458143-.01382862.00919097-.01843816.01380051-2.64789975-2.6893294-7.91607011-7.03190972-11.84415721-3.93269664,2.29791198-2.78604542,4.8122756-5.11619607,7.46936632-6.72796114h.00460954c3.24194018-1.97097191,7.1009685.84731218,8.5515683,1.90646646,4.51293656,3.29722656,14.63942171,12.96320741,20.04576585,23.08969256l.00919097-.00460954s.05986781.11973562.17038434.34998777c.52037211.99928647,1.0499633,2.12752764,1.46900985,3.12681411Z" fill="url(#g)"/><path d="M43.19414646,73.32550301c.15655572.10132556.31774909.20723256.47891436.30855812-.1887944-.11051654-.36839782-.23025215-.54339171-.34537823-.11051654-.07369643-.22103307-.15197429-.32696817-.22564261.1289547.08749694.25788129.17957532.39144552.26246272Z" fill="url(#h)"/><path d="M47.73010261,75.67870137c-.01380051.00460954-.02301959.00460954-.03684821.00460954-.02762913-.01382862-.05525827-.0230477-.07827786-.03684821.01382862,0,.02301959,0,.03223867-.00460954.02762913.01382862.05525827.02762913.0828874.03684821Z" fill="url(#i)"/><path d="M36.7701058,61.25109365c-.03684821.60786905-.05064873,1.21112857-.01841005,1.81438808.01841005.32696817.04603919.65390824.10129746.97626688.03684821.2118421.07369643.42365609.11512608.63549819.01382862.07827786.03223867.15658383.05067683.23486169v.00460954c.13353613.65390824.31313955,1.30320694.55719222,1.92490462.44209425,1.11441255,1.0729829,2.14593769,1.82360716,3.08077492.33154961.40982747.68614692.80127299,1.05915428,1.17428035.17499388.17038434.3545692.34537823.54339171.52037211.07366832.06447735.14275521.12892659.21642353.19801348.1289547.11051654.26249083.22564261.4006365.34076869.09671602.0828874.19804158.16119337.30394858.24866221.14275521.11512608.2947295.22567072.44667568.34079679.01843816.01841005.04145775.03223867.05986781.04603919.12434516.09210648.24408077.18421296.37300736.27170991.1059351.07366832.21645164.15194618.32696817.22564261.17499388.11512608.35459731.23486169.54339171.34537823.47433292.29931093.98087642.58482135,1.51965858.87035988.74601472.39602696,1.56572588.77364386,2.45449581,1.13743214-.00921908.00460954-.01841005.00460954-.03223867.00460954.02301959.01380051.05064873.02301959.07827786.03684821h-.01380051c-3.03931716.40982747-5.79315202.45589476-8.25222926.11051654-3.42154361-.47894246-6.27667591-1.68085195-8.53773968-3.60575657-2.80448358-2.39001846-4.30573211-6.04642376-4.46228783-10.8633089-.32696817-10.01135908,5.03791821-25.11589463,12.99541797-34.74963681,3.9280871-3.09921308,9.19625746,1.24336724,11.84415721,3.93269664-.7321861.59406854-1.41833302,1.23414816-2.07226937,1.91110411-.68614692.70916651-1.33083608,1.45518123-1.93870513,2.22882509-.63549819.80127299-1.22956673,1.63020323-1.79597803,2.47751541-.58023992.87035988-1.12824117,1.76373935-1.64400374,2.67552888-.52498165.92100861-1.02230606,1.86045538-1.49202945,2.81370266-.46972338.94863774-.91178953,1.91568554-1.33086418,2.89195241-.40985558.95785682-.79666345,1.92951416-1.16045173,2.91039058-.34998777.94863774-.68156548,1.91110411-.98548596,2.87354236-.29011996.92100861-.56182987,1.84662676-.80588253,2.78143588-.23025215.87035988-.43748471,1.7453293-.61708813,2.62488016-.1657748.80127299-.30853001,1.60715552-.42826563,2.41303806-.10129746.71380416-.17957532,1.42758021-.22564261,2.14135626Z" fill="url(#j)"/><path d="M90.79647414,43.67826177c-.43287517,1.08678341-.89337947,2.15515677-1.39534153,3.19129146-2.500535,5.12541515-5.93587912,9.61533212-9.99292092,13.47894187,0,.00460954-.00921908.0230477-.03223867.04606729-.34998777.42365609-3.60575657,3.5274506-5.46160241,4.84909571-1.15126076.83812121-2.34856071,1.69007103-3.57809933,2.50975408-.10132556.07369643-.20723256.14275521-.31313955.2118421-5.34186679,3.04853625-11.7244497,5.28658042-15.1321928,6.23060862-2.54196465.70919462-4.92279214,1.19732806-7.16083631,1.50124853-.01380051-.00460954-.02301959-.00921908-.03684821-.01380051-.02762913-.01382862-.05525827-.0230477-.07827786-.03684821.01382862,0,.02301959,0,.03223867-.00460954.00460954.00460954.01382862,0,.01841005,0-.89337947-.36378828-1.71767206-.74601472-2.47290586-1.13743214-.53878217-.28553853-1.04532566-.57104895-1.51965858-.87035988-.1887944-.11051654-.36839782-.23025215-.54339171-.34537823-.11051654-.07369643-.22103307-.15197429-.32696817-.22564261-.12892659-.08749694-.24866221-.17960342-.37300736-.27170991-.01841005-.01380051-.04142965-.02762913-.05986781-.04603919-.15194618-.11512608-.30392047-.22567072-.44667568-.34079679-.105907-.08746884-.20723256-.1657748-.30394858-.24866221-.13814567-.11512608-.2716818-.23025215-.4006365-.34076869-.07366832-.06908689-.14275521-.13353613-.21642353-.19801348-.1888225-.17499388-.36839782-.34998777-.54339171-.52037211-.37300736-.37300736-.72760467-.76445288-1.05915428-1.17428035-.75062426-.93483723-1.38151291-1.96636237-1.82360716-3.08077492-.24405267-.62169767-.42365609-1.27099638-.55719222-1.92490462v-.00460954c0-.00460954.00458143-.00460954.00458143-.00460954.76906243.39602696,2.67091934.83812121,5.95431728.58943089,3.93272475-.31313955,8.26605788-1.45057169,12.24021228-2.91497201,0,0,3.41232453-1.34008327,5.0839574-2.11833666.15658383-.06444924.29933904-.13353613.43748471-.21181399.73682375-.34998777,1.48283848-.71838559,2.19661453-1.10522157.11973562-.06447735.23947123-.12892659.36839782-.19801348.44670379-.24866221.88876993-.50196206,1.31703556-.75062426,1.21112857-.69997554,2.32095968-1.54728772,3.45378228-2.34856071.26249083-.18421296.52498165-.36842593.78747248-.55261079.75984334-.53420073,1.51504904-1.06837336,2.25187279-1.63478466,1.07295479-.81971115,2.10908948-1.68546149,3.10379451-2.59264148.98548596-.89798901,1.93870513-1.83740768,2.85971374-2.79065496.00921908-.00921908.01382862-.01382862.0230477-.02301959.08749694-.10132556.17499388-.21645164.26249083-.31774909,1.90185692-2.19200499,3.57809933-4.60504304,4.95042127-7.2299232,1.98477243-3.83139918,4.84448617-9.28839205,5.52605165-13.40988309,2.35777979,2.37618984,4.52673707,9.46335783,2.95642976,16.38014147Z" fill="url(#k)"/><path d="M47.73010261,75.67870137c-.01841005.00460954-.03223867.00460954-.05064873.00460954-1.77293033-.72299513-3.25115926-1.52426812-4.48530743-2.3578079,1.24794868.82893023,2.74458766,1.62559369,4.53595615,2.35319836Z" fill="url(#l)"/></svg>