<?xml version="1.0" standalone="yes"?>
<svg xmlns="http://www.w3.org/2000/svg" width="2200" height="624">
<path style="fill:#fff;stroke:none" d="M412 581C405.721 582.119 399.88 585.563 394 587.989C384.211 592.028 374.245 595.422 364 598.116C321.628 609.256 276.484 610.58 234 598.989C198.172 589.214 165.664 572.436 137 548.75C116.443 531.763 98.6658 511.239 84.0031 489C72.8312 472.056 64.0724 454.115 57.3086 435C7.42932 294.036 78.222 131.33 209 62.7029C232.073 50.5953 257.314 41.2166 283 36.5756C310.221 31.6573 338.51 29.1118 366 33.439C402.064 39.1158 436.785 52.2233 468 71C505.129 93.3341 533.206 126.045 555 163C556.365 158.08 552.288 151.483 550.23 147C543.988 133.403 536.858 120.188 528.14 108C492.033 57.5197 438.111 20.6603 377 8.00311C355.19 3.48596 332.326 0.0617676 310 1.03937C190.832 6.25745 83.0353 81.703 33.3086 190C-15.233 295.716 -10.6265 426.794 61.8873 521C78.6237 542.743 98.9274 560.972 121 577.115C184.504 623.558 266.091 634.132 341 614.629C359.109 609.914 376.412 602.304 393 593.742C399.031 590.628 408.284 586.79 412 581M1046 57L1046 423L1095 423C1098.94 423 1109.25 424.829 1111.97 421.397C1113.47 419.508 1113 416.236 1113 414L1113 396L1113 327L1113 57L1046 57M1538 57L1538 327L1538 396L1538 414C1538 416.236 1537.53 419.508 1539.03 421.397C1541.75 424.829 1552.06 423 1556 423L1605 423L1605 307C1605 298.602 1605.78 290.346 1605.99 282C1606.24 271.778 1605.63 261.223 1610.96 252C1618.87 238.289 1634.19 232.145 1649 229.2C1675.96 223.84 1702.82 225.859 1730 226.001C1745.68 226.082 1766.74 228.689 1775.87 243C1781.61 252.007 1781.59 262.746 1782.04 273C1782.43 282.03 1783 290.919 1783 300L1783 423L1850 423L1850 294C1850 267.753 1851.57 237.221 1839.89 213C1826.6 185.44 1798.97 172.943 1770 168.87C1740.68 164.747 1710.54 163.887 1681 165.91C1662.48 167.179 1644.09 167.325 1626 172.428C1618.61 174.513 1611.95 177.855 1605 181L1605 57L1538 57M560 190C555.789 210.142 545.384 229.726 536.247 248C525.89 268.713 515.063 288.832 500.551 307C461.316 356.117 404.051 390.751 346 412.808C317.474 423.646 285.653 432.012 255 432C246.356 431.997 226.727 432.272 223.863 421.995C218.978 404.47 224.042 384.301 227.551 367C236.519 322.78 254.708 278.606 279.667 241C288.065 228.348 297.729 215.418 309.001 205.17C311.784 202.639 317.025 196.097 321 196.052C324.518 196.011 328.503 200.832 331 202.92C339.288 209.85 346.861 217.505 355 224.576C393.419 257.95 424.121 305.092 438 354C450.789 346.872 462.463 336.037 473 325.961C476.069 323.026 482.366 318.565 482.759 314C483.153 309.431 478.547 302.886 476.459 299C469.8 286.607 462.836 274.698 454.999 263C430.638 226.638 400.338 194.256 368 164.925C353.644 151.904 335.791 135.176 316 131.468C301.449 128.741 291.111 135.682 280 144.13C260.8 158.729 245.096 177.084 231.67 197C194.868 251.592 166.873 317.579 163.961 384C162.333 421.122 170.18 457.653 205 477.573C237.034 495.899 275.19 492.848 310 487.145C340.275 482.185 369.824 472.444 398 460.421C412.96 454.038 428.162 447.565 442 438.935C478.515 416.162 511.643 384.602 537.116 350C551.419 330.57 566.816 307.504 573.405 284C578.165 267.023 577.388 248.232 575 231C573.302 218.749 569.761 198.369 560 190M694 245L737 245C744.015 245 751.978 246.056 758.892 244.852C763.95 243.971 763.731 237.648 766.005 234.015C768.765 229.607 773.103 227.568 778 226.428C794.857 222.503 812.802 223 830 223C845.973 223 862.111 222.293 878 223.83C890.354 225.026 904.504 225.12 914.985 232.789C925.331 240.359 927 254.156 927 266C907.364 259.613 888.352 259.304 868 257.91C837.725 255.837 806.275 255.837 776 257.91C757.184 259.199 737.298 259.105 720 267.809C687.493 284.168 682.331 322.279 685.834 355C687.738 372.785 692.187 388.437 706.001 400.826C727.894 420.462 759.259 421.335 787 422.015C822.789 422.891 859.335 425.108 895 420.714C906.487 419.298 916.832 414.983 928 413C927.438 416.025 927.064 418.922 927 422L994 422L994 277C994 247.686 993.354 215.587 971.91 193.015C952.402 172.481 924.828 167.426 898 164.83C857.468 160.908 815.46 160.746 775 165.715C753.346 168.375 729.512 172.641 713.039 188.171C704.187 196.516 698.167 209.01 696.296 221C695.051 228.986 695.471 237.077 694 245M1901 245L1944 245C1950.73 245 1958.3 245.969 1964.95 244.852C1970.3 243.952 1969.82 237.858 1972.09 234.015C1974.51 229.93 1978.57 227.953 1983 226.757C1998.65 222.536 2015.93 223 2032 223C2049.69 223 2067.38 222.62 2085 223.911C2097.85 224.853 2112.71 225.363 2122.96 234.329C2132.35 242.547 2131.92 254.809 2134 266C2127.92 264.594 2122.17 262.169 2116 261.084C2102.1 258.639 2088.01 258.87 2074 257.91C2043.53 255.824 2012.48 256.626 1982 257.961C1956.5 259.077 1928.1 260.369 1909.17 280.09C1896.21 293.598 1892.75 312.086 1891.96 330C1890.89 354.426 1891.43 381.895 1911.01 399.826C1916.37 404.731 1922.48 408.595 1929 411.742C1949.15 421.474 1972.21 421.085 1994 422.039C2039.44 424.029 2089.41 427.747 2133 413L2133 422L2200 422L2200 275C2200 241.734 2198.05 208.248 2170 185.808C2146.94 167.357 2117.97 166.492 2090 163.83C2051.75 160.19 2012.07 161.713 1974 166.718C1954.46 169.288 1932.49 174.478 1918.29 189.171C1903.47 204.508 1901 224.738 1901 245M1233 175L1233 165L1166 165L1166 579L1233 579L1233 411C1277.88 428.406 1330.83 424.338 1378 421.09C1407.34 419.069 1437.01 414.489 1458.99 392.961C1471 381.191 1479.1 366.099 1483.58 350C1488.76 331.377 1490 312.237 1490 293C1490 254.079 1485.73 211.578 1452 186.478C1416.52 160.075 1366.97 163 1325 163C1293.63 163 1262.57 163.53 1233 175M1299 223.285C1307.83 222.243 1317.11 223 1326 223C1343.12 223 1359.99 223.034 1377 224.95C1388.76 226.274 1402.06 228.673 1410.1 238.174C1416.19 245.36 1418 254.955 1419.41 264C1422.3 282.569 1421.7 302.421 1419.28 321C1417.95 331.259 1415.3 342.215 1407.82 349.895C1400.35 357.562 1388.15 359.484 1378 360.715C1346.87 364.488 1313.16 365.012 1282 361.285C1269.44 359.783 1255.2 359.332 1245.17 350.482C1237.81 343.985 1234.92 333.364 1233.44 324C1231.76 313.382 1232 302.715 1232 292C1232 280.822 1231.76 270.006 1234 259C1235.85 249.961 1238.97 240.638 1246.09 234.329C1259.42 222.51 1282.62 225.218 1299 223.285M803 317.285C810.861 316.358 819.091 317 827 317C841.059 317 855.001 316.952 869 317.91C883.096 318.876 897.296 318.587 911 322.721C923.596 326.522 930.88 342.96 920.606 353.66C917.821 356.561 913.811 357.856 910 358.764C899.775 361.201 889.421 361.375 879 362.09C853.891 363.811 828.109 363.809 803 362.09C790.465 361.231 774.769 363.688 763.001 358.347C751.785 353.257 750.181 330.195 760.213 323.005C763.528 320.629 768.086 320.203 772 319.59C782.322 317.974 792.678 318.503 803 317.285M2009 317.285C2016.86 316.358 2025.09 317 2033 317C2047.06 317 2061 316.952 2075 317.91C2089.31 318.89 2104.12 318.444 2118 322.775C2129.97 326.509 2136.24 342.522 2127.58 352.895C2124.39 356.724 2119.67 358.051 2115 359.112C2105.19 361.34 2094.97 361.407 2085 362.09C2059.89 363.809 2034.11 363.809 2009 362.09C1996.5 361.234 1981.92 363.193 1970 358.597C1957.66 353.839 1956.39 330.015 1967.04 322.728C1971.41 319.741 1977.88 319.325 1983 318.975C1991.64 318.385 2000.41 318.299 2009 317.285M499 405C488.593 412.93 479.698 422.619 469 430.29C463.653 434.124 454.306 438.322 451.028 444.174C449.06 447.686 450 453.119 450 457C450 466.308 450.368 475.701 449.961 485C448.816 511.128 444.44 536.528 435 561C452.031 556.094 468.623 542.438 482 531.246C486.939 527.114 493.778 522.135 496.272 516C498.577 510.332 498.434 503.026 499.155 497C501.03 481.329 502 465.786 502 450C502 439.283 502.185 428.658 501.17 418C500.734 413.425 501.442 409.077 499 405M1303 552C1298.57 554.068 1295.44 557.564 1292 561C1301.79 574.893 1321.39 581.853 1338 578.331C1356.13 574.486 1370.33 558.167 1363.9 539C1357.61 520.292 1339.15 520.63 1324 514.121C1317.89 511.498 1309.63 505.84 1311.69 498C1314.95 485.634 1330.97 483.702 1341 487.955C1344.55 489.462 1348.15 493.739 1352 494.093C1355.95 494.456 1359.53 489.464 1362 487C1349.14 468.9 1312.38 466.554 1300.22 487C1297.15 492.162 1296.71 498.133 1297.04 504C1298 520.995 1315.12 527.057 1329 530.63C1336.39 532.533 1345.8 535.223 1348.99 543.004C1353.88 554.924 1343.06 564.526 1332 565.815C1320.85 567.114 1309.71 560.421 1303 552M1556 506L1543 506L1543 517C1546.32 517 1551.81 516.019 1554.4 518.603C1557.66 521.87 1556 530.759 1556 535L1556 579L1569 579L1569 517L1589 517L1589 506L1569 506C1569.01 496.239 1571.45 484.036 1584 485.109C1587.96 485.447 1591.34 487.669 1595 489L1601 481C1591.39 469.789 1569.59 469.97 1560.79 482.015C1555.51 489.238 1556 497.513 1556 506M1657 483C1657 488.331 1657.1 493.671 1657 499C1656.95 501.484 1657 504.424 1654.68 505.972C1651.91 507.82 1647.17 507 1644 507L1644 518L1657 518L1657 550C1657 564.497 1659.22 578.606 1677 578.985C1680.04 579.049 1683.06 578.87 1686 578.073C1690.43 576.872 1694.12 574.337 1698 572C1696.74 568.725 1694.83 565.985 1693 563C1687.94 564.837 1682.64 568.528 1677.02 566.397C1672.01 564.5 1670.28 558.864 1670.04 554C1669.45 542.058 1670 529.957 1670 518L1691 518L1691 507L1670 507L1670 483L1657 483M1446 504.465C1440.67 505.424 1435.51 507.354 1431 510.363C1413.53 522.029 1409.71 548.441 1422.53 564.999C1430.96 575.89 1445.51 580.968 1459 578.536C1488.82 573.159 1499.73 533.201 1476.99 513.21C1472.16 508.968 1466.23 506.364 1460 505.015C1455.4 504.019 1450.66 503.626 1446 504.465M2144 546L2199 546C2199 532.258 2195.94 518.162 2184 509.638C2164.33 495.6 2136.3 508.755 2130.9 531C2124.79 556.146 2141.73 579.503 2168 578.985C2175.65 578.834 2184.64 576.526 2191 572.15C2193.22 570.615 2196.45 568.118 2195.65 565.004C2192.94 554.406 2181.37 564.606 2176 565.956C2161.45 569.613 2145.42 562.088 2144 546M1908 513C1909.52 515.719 1911.58 520.496 1915.09 520.978C1918.74 521.479 1923.43 517.679 1927 516.761C1939.86 513.451 1952.69 518.65 1953 533C1941.9 532.969 1930.76 530.159 1920 534.478C1905.53 540.291 1898.81 561.226 1911.1 572.787C1923.1 584.073 1942.37 579.142 1953 569L1953 579L1966 579L1966 542C1966 534.356 1966.81 526.25 1963.87 519C1955.53 498.4 1922.55 502.652 1908 513M2047 516C2045.37 512.619 2045.03 509.733 2045 506L2032 506L2032 579L2046 579L2046 549C2046 537.341 2046.52 524.756 2059 519.367C2063.65 517.361 2069.05 518 2074 518C2074.24 515.028 2076.64 509.207 2074.88 506.603C2073.4 504.408 2069.25 504.96 2067 505.015C2058.91 505.209 2050.95 508.726 2047 516M1748 509C1754.31 528.377 1760.89 547.668 1767.33 567C1769.64 573.908 1770.62 579.291 1779 578.98C1780.53 578.923 1782.19 578.879 1783.5 577.972C1787.01 575.55 1787.75 568.785 1789 565C1792.69 553.826 1795.51 541.416 1801 531C1804.74 542.68 1808.47 554.362 1812.33 566C1813.53 569.589 1814.47 576.64 1818.28 578.397C1822 580.118 1829.24 579.616 1831.43 575.852C1836.1 567.81 1837.85 556.823 1840.74 548C1844.87 535.386 1851.06 522.142 1853 509L1839 509C1836.36 526.941 1826.58 543.922 1825 562C1818.78 551.267 1815.91 536.902 1812.42 525C1811.21 520.865 1810.24 512.66 1806.49 510.028C1803.64 508.023 1798.32 509 1795 509C1790.92 526.62 1784.02 543.632 1779 561C1773.37 549.788 1770.86 536.061 1767.42 524C1766.35 520.254 1765.49 512.528 1762.27 510.028C1759.13 507.591 1751.79 509 1748 509M1448 516.329C1478.32 511.024 1486.27 561.527 1457 566.671C1425.63 572.184 1417.69 521.632 1448 516.329M2185 535L2144 535C2146.2 509.927 2182.78 509.725 2185 535M1935 542.301C1938.49 541.956 1949.66 541.686 1951.97 544.603C1953.27 546.246 1953.06 549.044 1952.96 551C1952.51 559.746 1945.63 566.726 1937 567.815C1932.23 568.416 1926.12 568.335 1922.13 565.297C1916.32 560.871 1917.15 551.213 1922.34 546.638C1925.73 543.654 1930.64 542.731 1935 542.301z"/>
</svg>
