<?xml version="1.0" encoding="UTF-8"?><svg id="a" xmlns="http://www.w3.org/2000/svg" xmlns:xlink="http://www.w3.org/1999/xlink" viewBox="0 0 224 64"><defs><radialGradient id="b" cx="40.615782" cy="20.82783" fx="40.615782" fy="20.82783" r="32.390633" gradientTransform="translate(78.108797 -5.689627) rotate(116.911863) scale(1 1.028929)" gradientUnits="userSpaceOnUse"><stop offset=".032118" stop-color="#b9d9eb"/><stop offset=".38268" stop-color="#41b6e6"/><stop offset=".70711" stop-color="#0084ca"/><stop offset=".92388" stop-color="#004b87"/><stop offset="1" stop-color="#002554"/></radialGradient><radialGradient id="c" cx="30.835871" cy="12.640603" fx="30.835871" fy="12.640603" r="54.580681" gradientTransform="translate(76.433151 62.104633) rotate(-166.795807) scale(.966844) skewX(.157531)" gradientUnits="userSpaceOnUse"><stop offset=".023053" stop-color="#c63527"/><stop offset=".5" stop-color="#e35205"/><stop offset=".86603" stop-color="#ff8f1c"/><stop offset="1" stop-color="#ffb549"/></radialGradient><radialGradient id="d" cx="44.876932" cy="19.068849" fx="44.876932" fy="19.068849" r="34.816325" gradientUnits="userSpaceOnUse"><stop offset="0" stop-color="#0084ca"/><stop offset=".8" stop-color="#002554"/></radialGradient><radialGradient id="e" cx="67.574468" cy="-34.363969" fx="67.574468" fy="-34.363969" r="102.8419" gradientUnits="userSpaceOnUse"><stop offset=".464122" stop-color="#0084ca"/><stop offset=".784598" stop-color="#004b87"/><stop offset=".879357" stop-color="#002554"/></radialGradient><linearGradient id="f" x1="43.75391" y1="17.013645" x2="48.141984" y2="56.818908" gradientUnits="userSpaceOnUse"><stop offset=".539432" stop-color="#ffb549"/><stop offset=".646498" stop-color="#ff8f1c"/><stop offset=".878845" stop-color="#e35205"/><stop offset="1" stop-color="#c63527"/></linearGradient><linearGradient id="g" x1="29.629629" y1="15.11638" x2="56.123413" y2="45.465228" gradientUnits="userSpaceOnUse"><stop offset="0" stop-color="#c63527"/><stop offset=".10271" stop-color="#e35205"/><stop offset=".442717" stop-color="#ff8f1c"/><stop offset=".740616" stop-color="#ffb549"/></linearGradient><linearGradient id="h" x1="26.977383" y1="48.836462" x2="27.553075" y2="48.836462" gradientUnits="userSpaceOnUse"><stop offset=".161671" stop-color="#d5411f"/><stop offset=".282391" stop-color="#df581f"/><stop offset=".448579" stop-color="#ec731f"/><stop offset=".597172" stop-color="#f3831f"/><stop offset=".712333" stop-color="#f6891f"/><stop offset="1" stop-color="#f6891f"/></linearGradient><linearGradient id="i" x1="30.160425" y1="50.36706" x2="30.236574" y2="50.36706" xlink:href="#h"/><linearGradient id="j" x1="20.828257" y1="47.879636" x2="33.163549" y2="19.049235" gradientUnits="userSpaceOnUse"><stop offset="0" stop-color="#c63527"/><stop offset=".185785" stop-color="#e35205"/><stop offset=".6683" stop-color="#ff8f1c"/><stop offset="1" stop-color="#ffb549"/></linearGradient><linearGradient id="k" x1="27.043366" y1="49.758768" x2="60.122489" y2="24.325452" gradientUnits="userSpaceOnUse"><stop offset="0" stop-color="#ffb549"/><stop offset=".183127" stop-color="#ff8f1c"/><stop offset=".723966" stop-color="#e35205"/><stop offset="1" stop-color="#c63527"/></linearGradient><linearGradient id="l" x1="27.236301" y1="49.600994" x2="30.644902" y2="49.600994" gradientUnits="userSpaceOnUse"><stop offset="0" stop-color="#f6891f"/><stop offset=".207151" stop-color="#f4841f"/><stop offset=".428995" stop-color="#ee771f"/><stop offset=".657681" stop-color="#e4621f"/><stop offset=".889726" stop-color="#d6441f"/><stop offset=".91464" stop-color="#d5411f"/></linearGradient></defs><path d="M58.835191,32.318154c-.048746.913791-.137072,1.821503-.271096,2.732245-.024373.1858-.054825.36552-.085277.55132,0,.006098-.003049.015226-.003049.021324-.006098.030452-.009147.063953-.012196.094424-.030452.188849-.067002.374648-.103553.560448-.651842,3.420637-1.915908,6.755959-3.755686,9.811076-.115748.191898-.231497.386844-.359422.578742-.012177.018275-.021324.033501-.033501.051776-.121846.191898-.246723.383795-.374667.578723-1.65699,2.476375-3.703891,4.739547-6.13152,6.67678-.43559.347245-.868113.679245-1.312812.986891q-.006098.003049-.009147.003049c-.197995.143152-.386844.280224-.58787.40815-.045697.030471-.079198.060923-.124895.091394h-.012177c-.201026.137054-.392923.268028-.597017.395972h-.012177c-1.242761.785847-2.525102,1.455964-3.831835,2.016431-.770621.332-1.550388.621371-2.336254.871143-.003049,0-.006098.003049-.009128.006098-.411217.134023-.822416.255851-1.236663.36552-.545241.146201-1.090462.274126-1.635703.383777,0,0-.006079.003049-.009128.003049-.070051.012196-.134023.024373-.201044.033501,0,0-.006079.006098-.009128.006098-.17972.033501-.356373.063972-.536094.094424-.079198.012196-.14925.024373-.228448.033501h-.009128c-.173623.030471-.341147.060923-.517819.085296h-.003049c-.085296.012177-.167525.021324-.252821.030452h-.006079c-.118797.015245-.234546.030471-.350294.042648h-.003049c-.271096.033501-.539143.060923-.807171.079198-.067021.009128-.130993.012177-.197995.018275-2.634771.194947-5.251249-.024373-7.764174-.651842-.173623-.042648-.347245-.085277-.520868-.134023-.130974-.03655-.2589-.0731-.389874-.10965-.012196-.003049-.030471-.009147-.042648-.012177-.134023-.039599-.264998-.076149-.399021-.124895-.015226-.003049-.033501-.009128-.051776-.015226-1.879377-.58787-3.685635-1.410286-5.373095-2.464198-.003049,0-.009147-.00303-.012177-.006079-.097473-.060923-.197995-.124895-.295469-.188849-.012177-.006098-.021324-.015245-.033501-.024373-.094424-.060923-.191898-.127926-.286322-.191898-1.459013-.962518-2.82362-2.113904-4.066362-3.432814-.085296-.091375-.170574-.179702-.252821-.274126-.134023-.14925-.268047-.298518-.399021-.450816-.085296-.097455-.170574-.197977-.252821-.298499-.024373-.030452-.048727-.057874-.0731-.088326-.10965-.127944-.216271-.25587-.319823-.383795-.313744-.392923-.618341-.798043-.910742-1.215339-6.05539-8.617061-6.070635-20.1826-.932066-29.445405v-.00303s0-.003049.00303-.006098c.14317-.261949.29242-.517819.447767-.77367.003049,0,.003049-.003049.003049-.006098,1.781885-3.000273,4.118139-5.732518,6.978309-8.016995.161445-.127926.322872-.25587.487366-.377697l.00303-.003049.057874-.042648c.0731-.057874.146219-.112699.21932-.164476,2.665224-1.989027,5.537571-3.420618,8.476921-4.316134.115748-.039599.237595-.073119.356392-.109669.0731-.021305.14925-.042629.22235-.063953h.006098c.070051-.018275.137054-.03655.204075-.054825l.003049-.003049c.088326-.024373.167525-.042648.249772-.060923.082229-.018275.161427-.039599.249753-.063972-.005689.002714-.010783.006284-.016453.009035,2.998823-.74926,6.053921-.950527,9.008162-.609082h.003049c.088326.009128.176671.021324.264998.033501.121846.015226.243674.030471.36552.045697.085277.012177.170574.024354.255851.039599h.003049c.560467.085277,1.117884.188849,1.666155.316774.240625.051776.48125.10965.715796.173623.377697.097473.752364.204075,1.123964.316774.225399.07007.450798.14317.673166.222368.012177,0,.024354.006079.033501.012177,4.127286,1.422463,7.867746,3.990213,10.770545,7.651475.103571.127926.210173.2589.310695.392923l.377697.50869c.063972.085277.124877.173623.182751.2589.819367,1.163563,1.526034,2.381951,2.1261,3.639938.548271,1.148337,1.008215,2.333205,1.376766,3.542465.118797.386826.225417.776719.325921,1.169642.045697.161445.085296.319842.121846.481268.012177.048727.024373.097473.033501.146201.03655.164494.0731.32897.10965.493446.07007.341166.137072.688392.194947,1.035637.045697.268047.094424.542192.124895.81022.067002.481268.118779.962537.158378,1.446836.109669,1.267134.134023,2.549494.063972,3.828786Z" fill="url(#b)"/><path d="M100.747418,23.255484c-.306169-1.343934-.965511-2.528432-1.961089-3.52671-1.183175-1.219911-2.798289-2.050864-4.800454-2.469782-1.865385-.39388-4.752602-.585553-8.825534-.585553-5.278551,0-8.857718.487202-10.942883,1.489502-2.168165,1.039407-3.388182,2.999807-3.52708,5.66862l-.066485,1.283696h6.89917l.246459-.896591c.122383-.444961.343857-.702483.740649-.861073.519174-.209353,2.107186-.558451,6.942788-.558451,2.858421,0,4.897852.125665,6.061123.373553.968899.206389,1.671435.568244,2.088553,1.075507.066908.083424.121959.163512.164306.239419.256199.444749.54797,1.269404.597092,2.794213-.523409-.233332-1.095516-.411348-1.714206-.533148-1.620619-.316808-4.775893-.470687-9.646642-.470687-6.37195,0-8.347437.524414-9.279494.918824-1.469864.639704-2.529809,1.593993-3.161202,2.841112-.593281,1.181428-.880817,2.729316-.880817,4.735928,0,1.64084.184209,2.917707.563215,3.903598.41373,1.066826,1.151838,1.984591,2.194421,2.73101,1.049782.777438,2.456125,1.26771,4.299066,1.498713,1.673129.209088,4.580249.315114,8.641325.315114,3.710866,0,6.227547-.202472,7.69487-.618954.451419-.128205.882511-.297911,1.292006-.508217l-.026679,1.049358h6.811088v-13.803634c0-2.584383-.104597-4.434946-.31972-5.657451-.022867-.141333-.052934-.289759-.083847-.427916ZM94.104023,34.747978c0,1.195244-.488684,1.551593-.967205,1.742525-.689409.274197-2.46163.601804-6.98217.601804-7.010543,0-8.355906-.3735-8.601519-.487943-.379429-.180927-.824496-.548288-.824496-1.757347,0-.98282.230368-1.616702.685174-1.884123.091046-.051928.537383-.255988,1.906038-.383664,1.111608-.099198,3.160779-.149697,6.085685-.149697,4.792831,0,6.74418.353544,7.536916.650185.82619.30638,1.161578.789348,1.161578,1.668259Z" fill="#e35205"/><polygon points="106.412174 5.921962 106.412174 6.298588 106.412174 41.946542 106.412174 43.166823 107.632614 43.166823 111.99774 43.166823 113.21818 43.166823 113.21818 41.946542 113.21818 6.298588 113.21818 5.921962 106.412174 5.921962" fill="#e35205"/><path d="M150.718973,23.032739c-.709312-1.900638-2.028844-3.43344-3.916672-4.542296-1.216205-.701531-2.674635-1.167506-4.46676-1.429634-1.694726-.243442-4.083519-.361537-7.305701-.361537-3.831978,0-6.485864.238043-8.113682.727627-.520868.159013-1.007858.360161-1.458853.602439v-1.13781h-6.805583v42.193419h6.805583v-17.161271c.478944.246406.996424.448931,1.550323.606356,1.624854.465605,4.122902.692267,7.634737.692267,4.736933,0,8.017554-.286424,10.029459-.875736,2.166472-.633193,3.91032-1.954948,5.181577-3.928424,1.225945-1.901962,1.821767-4.665632,1.821767-8.448752,0-2.629959-.263822-4.797542-.784266-6.442564-.052934-.162824-.107985-.329248-.171929-.494083ZM144.623972,30.068372c0,1.829178-.165153,3.244467-.490802,4.206537-.288806.839211-.714817,1.442338-1.300899,1.838282-.336235.222428-1.043006.534525-2.449773.723022-1.239073.170076-3.202702.256093-5.838802.256093-4.659438,0-6.508308-.483232-7.239216-.888598l-.009316-.005188-.009316-.005029c-.663577-.352962-1.128971-.933645-1.423282-1.775238-.348939-.997113-.525526-2.575014-.525526-4.689928,0-1.778573.164306-3.158608.488684-4.101834.140169-.399385.309133-.741496.514092-1.039248.221051-.325066.473439-.582006.775797-.791783.321837-.216605,1.029032-.525685,2.490426-.713547,1.326731-.1705,3.436881-.25694,6.272011-.25694,4.323627,0,6.081873.480691,6.795844.883993l.01101.006193.01101.006034c.405261.217769.72498.501547.977792.867531.177857.255511.323954.547864.436174.872454.34174.974986.514092,2.523774.514092,4.607193Z" fill="#e35205"/><path d="M187.880566,23.560276c-.313368-1.405496-.950266-2.626307-1.891216-3.623472l-.009316-.009899-.009316-.009687c-1.118807-1.133682-2.653038-1.930546-4.56077-2.368573-1.7989-.41193-4.288902-.612126-7.61314-.612126-3.957325,0-6.778481.283301-8.624386.865996-.645791.205912-1.236532.466981-1.770104.781831V5.921962h-6.806007v37.244861h6.806007v-12.279936c0-2.575861.124077-3.71166.22825-4.210878.127464-.59921.40272-1.129235.840164-1.615484.023714-.026573.041077-.047217.059286-.06532l.010163-.010322.013551-.014345c.573378-.606303,1.475792-1.069896,2.682681-1.377971,1.394486-.351639,3.447891-.530343,6.099659-.530343,2.347717,0,4.112739.131593,5.247214.391127.937139.217822,1.595211.553422,1.951772.996477.082153.103856.154143.207341.206653.297382l.010163.017521.01101.017203c.24773.393774.416694.854721.51621,1.409149.147367.809886.221898,2.389111.221898,4.695804v12.279936h6.810241v-13.420817c0-2.625672-.117301-4.530915-.358255-5.823663-.021173-.128788-.046582-.247942-.072413-.362067Z" fill="#e35205"/><path d="M223.676893,23.689382c-.024985-.154302-.054628-.298864-.084694-.433633-.299393-1.336312-.959159-2.523986-1.961936-3.532003-1.179363-1.214035-2.797442-2.046841-4.800454-2.464912-1.859879-.393668-4.74625-.585394-8.820453-.585394-5.276857,0-8.857295.487043-10.946271,1.489026-2.169436,1.042636-3.389029,3.002877-3.527927,5.669096l-.066485,1.283696h6.903405l.246459-.896644c.122806-.446284.343011-.703754.735991-.86102.519597-.209353,2.108033-.558451,6.947446-.558451,2.858421,0,4.897852.125665,6.061123.373553.968475.206389,1.671435.568244,2.088553,1.075507.056321.070349.111796.15282.160072.239419.256199.444643.547546,1.269033.596669,2.79326-.522562-.232538-1.094669-.410289-1.713782-.532196-1.621042-.316808-4.774199-.470687-9.642408-.470687-6.37195,0-8.347437.524414-9.279494.918824-1.476639.642721-2.537431,1.598228-3.163319,2.84487-.594128,1.183492-.883358,2.73138-.883358,4.732169,0,1.633217.185903,2.910085.567873,3.903545.406954,1.062697,1.143792,1.982209,2.190186,2.731169,1.050205.777755,2.458242,1.267922,4.303724,1.498607,1.668048.209088,4.575591.315114,8.640901.315114,3.71256,0,6.228394-.202577,7.691482-.619219.451419-.128205.882088-.297382,1.290736-.506735l-.026255,1.048141h6.815323v-13.803634c0-2.586448-.105444-4.435211-.323107-5.651469ZM216.948804,34.747978c0,1.196726-.486567,1.55244-.96297,1.742525-.689409.274197-2.46163.601804-6.98217.601804-7.010543,0-8.355906-.373447-8.601519-.487943-.379429-.180927-.824496-.548288-.824496-1.757347,0-1.483679.512398-1.785084.680939-1.884123.118995-.067173.57973-.26001,1.909849-.383611,1.10822-.099251,3.155697-.14975,6.081873-.14975,4.791984,0,6.746298.353809,7.541997.650608.821955.304845,1.156496.787813,1.156496,1.667836Z" fill="#e35205"/><path d="M132.528003,56.335193c.144125.164529.305615.331662.486206.5014.179723.169738.382887.321243.609494.45495.225739.133707.477524.241801.755356.323848.277832.082481.580843.123722.910768.123722.678952,0,1.20857-.154544,1.588852-.463198.380283-.30822.570424-.724968.570424-1.249376,0-.565649-.21532-.989777-.647696-1.272818-.431508-.283041-1.054026-.511819-1.866684-.686766-.442795-.092466-.843915-.220963-1.20336-.385492-.360314-.164529-.671138-.370298-.933342-.617308s-.465369-.532222-.609494-.85607c-.144125-.324282-.216188-.691976-.216188-1.103514,0-.380283.072063-.740162.216188-1.079638s.359445-.637712.647696-.89514c.288251-.256995.648564-.462764,1.080072-.616874.432376-.154544.930738-.231382,1.49682-.231382.503571,0,.938552.05383,1.303206.161924.365523.108094.676348.239196.933342.393306s.463632.313863.617308.478392c.154544.164529.272623.298235.355104.40112l-.987172.910334c-.061644-.072063-.154544-.167133-.277832-.285646-.123288-.118079-.280437-.233553-.470578-.346856s-.411539-.208374-.663324-.285646c-.252654-.077272-.542641-.115474-.871698-.115474-.329926,0-.612099.043845-.849124.131102-.236157.087257-.431508.20056-.586052.339476-.154544.138482-.267413.295631-.339476.470144-.072063.175382-.10766.349895-.10766.524842,0,.256995.05383.475787.16149.65551.108528.180157.264809.339476.470578.478392s.460159.257429.764038.35467c.303011.098109.650301.19318,1.041002.285646.381151.092466.75362.213583,1.119142.362484.364655.149335.691107.349895.979358.60168.288251.252219.516594.560874.686766.925962.169304.365089.25439.80962.25439,1.334462,0,.442361-.092032.84869-.277832,1.218554-.184932.370298-.439322.691976-.76317.964598s-.707604.483602-1.14953.632502c-.442795.148901-.921187.223568-1.435176.223568-.483602,0-.922924-.056435-1.318834-.169738-.395911-.112869-.756224-.256995-1.080072-.431942-.323848-.174513-.60689-.367693-.848256-.578672-.242235-.210545-.44019-.418919-.594734-.624688l1.049684-.95635Z" fill="#004b87"/><path d="M147.801732,59.096584c-.555664,0-1.064444-.10028-1.527208-.30084s-.86128-.475787-1.195546-.825682c-.334267-.349461-.596471-.753185-.786612-1.211174-.19101-.457555-.285646-.948536-.285646-1.473378,0-.524408.094637-1.01539.285646-1.473378.190141-.457555.452345-.86128.786612-1.211174.334267-.349461.732782-.624688,1.195546-.825248s.971544-.30084,1.527208-.30084c.545246,0,1.049684.10028,1.512449.30084s.863884.475787,1.20336.825248c.339476.349895.604285.75362.794426,1.211174.190141.457989.285646.94897.285646,1.473378,0,.524842-.095505,1.015824-.285646,1.473378-.190141.457989-.45495.861714-.794426,1.211174-.339476.349895-.740596.625122-1.20336.825682s-.967203.30084-1.512449.30084ZM147.801732,57.892789c.370732,0,.704999-.074233,1.0028-.223568.29867-.148901.550455-.344251.756224-.586052s.362918-.519633.470578-.833496c.10766-.313429.162358-.634673.162358-.964164,0-.318639-.054698-.635107-.162358-.94897-.10766-.313429-.267413-.593866-.478392-.840442-.210979-.24701-.462764-.444965-.756224-.5943-.292592-.148901-.624254-.223568-.994986-.223568-.369864,0-.704131.074667-1.0028.223568-.29867.149335-.550455.344685-.756224.586486s-.36205.519199-.470578.833062c-.10766.313863-.16149.635107-.16149.964164,0,.329492.05383.64813.16149.956784.108528.30822.267413.586052.478392.833062.210979.246576.462764.444965.756224.593866.29346.149335.625122.223568.994986.223568Z" fill="#004b87"/><path d="M158.339383,52.822391h-1.29626v-1.15691h1.29626v-.586486c0-.483167.069458-.90252.208374-1.25719.138916-.355104.323848-.645526.554796-.871698.231816-.226173.496625-.393306.794426-.5014.29867-.108094.612099-.161924.941156-.161924.381151,0,.75362.059039,1.119142.177118.364655.118513.701526.321677,1.010614.609494l-.69458.89514c-.380283-.319073-.786612-.478392-1.218988-.478392-.40112,0-.722363.128497-.96373.385492-.242235.257429-.362918.69979-.362918,1.327082v.462764h2.051616v1.15691h-2.051616v6.274193h-1.388292v-6.274193Z" fill="#004b87"/><path d="M168.614633,52.873541h-1.29626v-1.15691h1.29626v-2.345077h1.388292v2.345077h2.098501v1.15691h-2.098501v3.533243c0,.576068.089427.971978.270018,1.188166.179723.215754.434113.323848.76317.323848.267413,0,.488811-.040807.664192-.123288.174513-.082481.349027-.205769.524408-.370298l.632068.848256c-.297801.288251-.604285.496625-.917714.625122-.314298.128497-.686766.192746-1.118274.192746-.761434,0-1.319703-.205769-1.673938-.617308-.355104-.411105-.532222-1.054026-.532222-1.928328v-3.672159Z" fill="#004b87"/><path d="M177.922395,51.922438h1.528077l1.60448,5.4772,1.727768-5.4772h1.187732l1.728637,5.523216,1.573224-5.523216h1.435176l-2.376333,7.174146h-1.372664l-1.666993-5.014001-1.650496,5.014001h-1.29626l-2.422349-7.174146Z" fill="#004b87"/><path d="M198.812765,58.032139c-.267413.359879-.619913.627293-1.05663.80224-.437586.174513-.887326.262204-1.35009.262204-.29867,0-.593866-.038636-.887326-.115908-.29346-.076838-.560874-.205335-.80224-.385492-.242235-.179723-.437586-.411105-.586052-.694146-.149335-.283041-.224002-.629897-.224002-1.041436,0-.771418.270018-1.388726.810054-1.851491s1.318834-.694146,2.337263-.694146c.164095,0,.339476.005209.524408.015194.184932.010419.360314.020837.524408.030822.164963.010419.309088.020837.432376.030822.123288.010419.210979.020837.262204.030822v-.262204c0-.534393-.162358-.917714-.486206-1.14953-.323848-.231382-.76317-.346856-1.318834-.346856-.545246,0-.977622.074667-1.29626.223568-.318639.149335-.586052.30084-.80224.455384l-.647696-.941156c.123288-.102885.272623-.205769.447136-.308654.175382-.102885.380283-.197955.617308-.285646.236157-.087257.503571-.159319.80224-.215754s.642487-.085086,1.034056-.085086c.925528,0,1.653101.224002,2.182719.671138.529617.44757.794426,1.082677.794426,1.905755v4.173125c0,.252219.005209.665929.015628.840876h-1.316504l-.010144-1.064444ZM198.797137,55.501697c-.040807-.009985-.120683-.023008-.238762-.038636-.118947-.015194-.255258-.028217-.408934-.038202-.154544-.010419-.319507-.020837-.49402-.031256-.175382-.009985-.344685-.015194-.50878-.015194-.39157,0-.707604.04645-.94897.138916-.242235.092466-.432376.208374-.571292.346856-.138916.138916-.233553.29346-.284778.463198-.052094.169738-.077272.331662-.077272.485772,0,.391136.133707.686766.40112.887326s.637277.30084,1.11046.30084c.267413,0,.521803-.04645.764038-.138916.241367-.092466.45495-.216188.639882-.370298.184932-.154544.334267-.334267.448004-.540036.112869-.205769.169304-.416748.169304-.632502v-.817868Z" fill="#004b87"/><path d="M206.889384,53.09554v-.779232c0-.220963-.005209-.449741-.015628-.686332h1.326648l.046016,1.15691c.082481-.123288.19101-.259599.324716-.4085.132838-.149335.295197-.285646.485338-.408934.190141-.123722.411539-.228777.664192-.316468.251785-.087257.541773-.131102.871698-.131102.153676,0,.295197.010419.423694.030822.128497.020837.249181.051659.362918.092466l-.309088,1.29626c-.184932-.072063-.421089-.108094-.70934-.108094-.29867,0-.573897.056869-.825682.169738-.251785.113303-.470578.270018-.65551.470578s-.331662.434547-.439322.70196c-.108528.267413-.162358.550455-.162358.84869l-.015628,4.072282h-1.388292l.015628-6.001044Z" fill="#004b87"/><path d="M223.718526,57.815216c-.082481.0929-.205769.210979-.369864.355104-.164963.144125-.378546.283041-.64075.416314-.262204.133707-.570424.249615-.925528.34729s-.758829.14673-1.211174.14673c-.555664,0-1.064444-.0929-1.527208-.277832-.462764-.185366-.858675-.44757-1.187732-.787046-.329926-.339476-.584316-.745371-.764038-1.218554s-.270018-.997591-.270018-1.573658c0-.524842.087691-1.015824.262204-1.473813.174513-.457121.421958-.853466.740596-1.187732s.697185-.599075,1.133902-.794426c.437586-.195351.917714-.29346,1.442991-.29346.61644,0,1.146057.118513,1.588852.355104.441927.236591.804845.550455,1.087886.941156.282173.390701.490547.838272.624254,1.342276s.20056,1.028413.20056,1.573658h-5.661697c.010419.318639.079009.612099.208374.879512.128497.267413.300406.498795.516594.694146s.462764.349895.740596.462764c.277832.113303.571292.169738.879512.169738.60689,0,1.105251-.102885,1.49682-.308654.390701-.205769.672875-.406329.848256-.60168l.786612.833062ZM222.469149,54.652705c-.041675-.555664-.237026-1.028413-.586052-1.419548-.349895-.390701-.843915-.586486-1.481192-.586486-.329926,0-.625122.056869-.887326.169738-.262204.113303-.486206.262638-.671138.44757s-.329057.398515-.432376.640316c-.102451.241801-.158885.491416-.169304.74841h4.227389Z" fill="#004b87"/><path d="M54.984152,14.350132c.552917.794343,1.07008,1.629636,1.538647,2.485603l.079411-.04254c-1.338143-3.873517-3.914473-7.566936-7.269707-10.41711l-.647935-.531948-.666503-.504515c-.464024-.343102-.929035-.664736-1.380417-.954166-.449603-.289828-.935752-.594764-1.446198-.864316l-.056694-.02942c-.474098-.247288-.964593-.502925-1.459631-.720793-1.903505-.897314-4.028454-1.575965-6.32072-2.018459-3.784096-.730335-7.731756-.661953-11.416686.196399l-.00079.000398-.000988-.003976-.281891.064009-.000988-.004771c-.632724.149486-1.266633.320441-1.890665.509684-3.770268,1.144204-7.271683,2.941615-10.126151,5.197423l-.801819.638496c-.36071.28625-.684282.54626-.997977.831715-1.195123,1.015789-2.356467,2.201739-3.660238,3.736356-1.232854,1.46226-2.234979,2.850572-3.062874,4.24445-.975853,1.62407-1.757918,3.151532-2.391827,4.670246-.668676,1.575567-1.229693,3.250924-1.668234,4.981145-.413058,1.627649-.717271,3.371785-.903948,5.183906-.152699,1.482536-.187862,3.01119-.107462,4.673029.354389,7.312889,2.98682,14.040954,7.412332,18.945766,4.612188,5.111946,10.723119,8.306017,17.206811,8.993415,5.958035.630545,12.23253-.902085,17.244146-4.211054l-.082967-.176918c-5.741727,2.874823-12.552942,3.512922-18.722741,1.747317-.532571-.152269-1.07087-.326404-1.600082-.51684-6.210097-2.236725-11.392981-6.911742-14.593738-13.162724l-.074473-.163401c-.291373-.640484-.592623-1.302835-.840932-1.979497-.551337-1.451525-.988298-2.950759-1.298042-4.453173-.298682-1.50639-.485358-3.057308-.555485-4.611406-.073485-1.505197-.022125-3.067247.152502-4.642814.657417-6.123362,3.160854-12.129839,7.048856-16.911404,1.055857-1.294883,2.095318-2.398933,3.17804-3.374568,1.263077-1.148578,2.451089-2.088431,3.631002-2.873233,1.267621-.857954,2.620974-1.627251,4.020948-2.286023,1.330834-.626172,2.760438-1.164878,4.250293-1.602204l-.000988-.013915.106475-.015505.21611-.061226-.00079-.012722.098573-.012722v.000795c3.323825-.893338,6.694468-1.155336,10.016713-.777248l.000198-.000398c.017384.001193.033582.003181.048595.005964l.244161.03101c.166725.020674.332857.041347.479037.065996,7.460729,1.369626,13.462026,5.086104,17.357732,10.747888Z" fill="url(#c)"/><path d="M42.62849,37.719133c-.064562.042479-.130528.082415-.19546.124242.00063.005342.001627.010775.002257.016117.0656-.044886.128014-.094811.193203-.140359Z" fill="none"/><path d="M42.557526,6.911727c-.009147-.006098-.021324-.012177-.033501-.012177-.222368-.079198-.447767-.152298-.673166-.222368,1.324989.487366,2.628674,1.114835,3.88971,1.897652.006079,0,.009128-.003049.012177-.003049-1.038668-.65794-2.107806-1.212309-3.19522-1.660057Z" fill="url(#d)"/><path d="M53.227577,35.845382c.639648-3.466309.80719-6.938721.53302-10.24054,2.05304.268005,3.609497.121826,4.53241-.408203-.03656-.164429-.07312-.328918-.109619-.493408-.009155-.048767-.021362-.097473-.033508-.14624-.901611.533081-2.42157.682312-4.444092.420349h-.003052c-.338074-3.274414-1.120911-6.36908-2.339294-9.095215,1.127014.143127,1.964661.057861,2.448975-.249817.030457-.021301.057861-.039612.085266-.060913h.003052c.042664-.033508.082214-.070068.115723-.106567l-.377686-.508728c-.03656.042664-.082214.082275-.12793.118835h-.003052c-.027405.021301-.048706.036499-.079163.05481h-.003052c-.453857.289368-1.245789.377686-2.299744.23761h-.003052c-1.053894-2.211426-2.400208-4.166931-4.03894-5.763-.009094,0-.015198-.003052-.024353-.003052,1.57782,1.586914,2.860168,3.533325,3.856201,5.735535-.798035-.121826-1.733154-.359375-2.787048-.724915-.386841-.134033-.776733-.283264-1.166626-.438599.112732-1.876343.009155-3.475464-.325928-4.699951-.009155-.003052-.021301-.006104-.030457-.012207.252808,1.190979.268066,2.753601.079224,4.596375-1.443787-.603088-2.872375-1.349365-4.157776-2.156555,1.349365-1.239685,2.576904-2.156555,3.63385-2.668274-.009155-.009094-.01825-.012146-.027405-.01825-1.127014.463013-2.427673,1.334167-3.847046,2.537292-1.270203-.810242-2.381958-1.672241-3.204407-2.494629,2.314941-.499573,4.578125-.627502,6.707214-.31073-.006042-.003052-.009094-.012146-.01825-.01825-2.174805-.362488-4.486694-.289368-6.844299.173645-.411194-.423401-.740173-.837646-.971619-1.227539-.213257-.359436-.328979-.676208-.356445-.947327,2.729248.14624,5.437073.724976,8.029236,1.769714v-.015198c-2.595215-1.075256-5.309143-1.681396-8.03833-1.858032v-.003052c-.006104-.456909.258911-.779785.752319-.950378-.085266-.015259-.170532-.027405-.255859-.039612-.121826-.015198-.243652-.030457-.365479-.045654-.502625.191895-.764587.529968-.758484,1.002075,0,.033569,0,.07312.006104.112732.030457.289368.155334.627502.380737,1.00824.246765.414246.597046.852844,1.032593,1.306702-2.866272.627441-5.784302,1.81842-8.60791,3.472412h-.003052v-.003052c-.804138-.834595-1.452942-1.641785-1.906738-2.409363-.417297-.703613-.645752-1.325012-.700562-1.861084,3.170837-1.084351,6.497009-1.611328,9.80188-1.513855-.003052-.039612-.003052-.076111-.003052-.112732-3.310974-.133972-6.64325.359497-9.814087,1.419434-.012207-.791931.551758-1.493774,1.313293-1.856262-.173645.048767-.326477.081116-.500061.126831-.813293.36853-1.43158,1.111145-1.416321,1.942688.003052.067017.006104.137085.012146.210144.054871.551331.292419,1.187927.721924,1.903748.462952.785828,1.130066,1.620483,1.952454,2.473328.051758.05481.103577.106628.152283.158386-.051758-.051758-.103577-.103577-.155334-.158386-2.811401,1.711853-5.519287,3.877502-7.968262,6.408691-1.075195-1.111755-1.937195-2.196106-2.549438-3.216492-.557434-.938171-.859009-1.769714-.93512-2.482483,2.646912-2.208374,5.628906-3.92627,8.778442-5.086792-.002991-.073059-.009094-.140076-.012146-.210144-3.149536,1.133057-6.131531,2.823608-8.781555,5.016724-.012207-.755432.427185-1.96698.95105-2.429993l-.297363.223938c-.566589.475159-1.165405,1.840515-1.153198,2.632446,0,.09137.006104.185852.01825.280273.07312.718811.380737,1.559509.944275,2.509827.612244,1.029541,1.486389,2.126099,2.573853,3.253113.067017.070068.133972.140137.200989.210205-.067017-.067017-.137024-.137085-.204041-.207153-2.412415,2.576904-4.559814,5.510193-6.280823,8.705383-1.181824-1.224487-2.129089-2.415466-2.793152-3.536377-.615295-1.032593-.950317-1.943298-1.032593-2.726135,1.730103-3.179993,3.984131-5.936584,6.58844-8.208862-.012146-.094421-.015198-.188904-.015198-.280273-2.601257,2.254028-4.858337,5.004578-6.58844,8.181519-.009155-.43866.121826-1.998169.271057-2.409363-.155334.255859-.304565.511719-.447754.773682-.002991.003052-.002991.006042-.002991.006042v.003052c-.140137.828491-.222412,1.513855-.158447,2.263184-1.653931,3.216553-2.62561,6.557983-2.969788,9.868896,0-.057861.003052-.115723.003052-.173584l-.048767.529968c-.009094.091431-.009094.1828-.009094.277222,0,.09137.009094.182739.01825.277161.07312.718872.380737,1.547363.938171,2.494629.609192,1.026489,1.480347,2.117004,2.561646,3.237915.134033.133972.268066.274109.405151.411194,2.174805,2.162659,5.098938,4.431885,8.434265,6.564087-.950317,2.598206-1.547363,4.84613-1.784973,6.661499-2.573792-1.644836-4.833923-3.393188-6.512268-5.06543-.560425-2.439819-.621399-5.199463-.137024-8.160156-.140137-.137085-.27417-.277222-.408203-.411194-.456909,2.981995-.371582,5.778198.234558,8.251526-.834595-.865051-1.5047-1.702698-1.976868-2.494629-.231445-.392944-.411194-.758484-.53302-1.102661l.167542.508667c.118774.347229.29541.718872.53302,1.117859.459961.773682,1.117859,1.596069,1.931152,2.439819.353333,1.279297.84375,2.470276,1.474243,3.548584.024353.030457.048767.057861.07312.088318.085266.103577.173584.210144.261963.313721-.003052-.006104-.006104-.009155-.009155-.015198-.648804-1.093506-1.145264-2.305786-1.492554-3.624695,1.635681,1.632629,3.837952,3.335327,6.350891,4.946655-.137085,1.24884-.088379,2.269226.146179,3.027649.012207.009155.021362.018311.033508.024414.097473.063904.197998.12793.295471.188843.003052.003052.009155.006042.012207.006042-.188904-.724915-.185852-1.717896-.006104-2.945435,2.55249,1.596069,5.391357,3.08252,8.26062,4.279602-.721863.630493-1.388916,1.099609-1.998108,1.392029.173584.048706.347229.09137.520874.133972.630493-.280212,1.309753-.715759,2.025513-1.300598.77063.310669,1.54126.60614,2.31189.871155,1.297607.447754,2.509888.804138,3.624756,1.063049.268005-.018311.536072-.045715.807129-.079224-1.24884-.274109-2.62561-.667053-4.112061-1.184875-.788879-.271057-1.574707-.56958-2.366699-.889404,1.410278-1.209229,2.966797-2.963745,4.593323-5.21167h.003052c1.026489.414246,2.046875.801086,3.067322,1.154419,2.774841.965576,5.248169,1.599121,7.355957,1.918945-1.529053,1.440796-3.134277,2.613464-4.779053,3.499878.414246-.10968.825439-.231506,1.236633-.36554.003052-.003052.006104-.006104.009155-.006104,1.398071-.822449,2.765747-1.842834,4.069397-3.055115.75238.097473,1.452942.152283,2.098694.167542h.012146c.204102-.12793.395996-.258911.597046-.395996-.694519-.006104-1.459045-.060913-2.281433-.170593,2.208313-2.144348,4.22168-4.836975,5.91217-8.038269,1.800232.231506,3.329285.240601,4.547668.042603.12793-.194885.252808-.386841.374634-.578735.012207-.01825.021362-.033447.033508-.051758-1.233582.219299-2.793152.213196-4.632935-.027405h-.002991c1.635681-3.237854,2.799255-6.676758,3.493713-10.136963-.088318-.012207-.176697-.024414-.268066-.036621.088318.012207.179749.024414.268066.033569,2.232666.289307,4.017639.207092,5.257324-.222412.03656-.185791.07312-.371582.103577-.560425.003052-.030457.006104-.063965.012207-.094421,0-.006104.003052-.015259.003052-.021301-1.227539.444702-3.00946.53302-5.251282.243652ZM52.694496,35.766158c-2.098633-.316772-4.559753-.947266-7.319458-1.903687-1.017334-.356384-2.034668-.740173-3.052063-1.151367,1.248901-3.283569,2.287537-6.506226,3.067322-9.506531h.003052c.776733.316772,1.562561.609192,2.339294.883362,2.119995.73407,4.011536,1.218384,5.61676,1.462097.222351,3.292664.012207,6.758972-.654907,10.216125ZM20.495582,46.073775c1.023438-2.616516,2.381958-5.577209,4.051147-8.787659,3.697815,2.308838,7.812927,4.465393,11.976746,6.204651-1.681396,3.201294-3.362732,6.000549-4.952759,8.321594-3.847046-1.611328-7.654541-3.59729-11.072083-5.735535h-.003052v-.003052ZM36.840248,42.875472c-4.163818-1.739258-8.272827-3.889709-11.970642-6.201599h-.003052c1.696594-3.213501,3.551575-6.372192,5.461426-9.345032h.003052c3.399292,2.123047,7.191528,4.105957,11.017273,5.708191-1.318909,3.274414-2.838867,6.60968-4.508057,9.83844ZM30.693458,26.762313h-.003052c1.912903-2.948547,3.874512-5.699036,5.778259-8.123596,2.585999,1.617371,5.458374,3.11908,8.367249,4.337463-.846741,2.966736-1.943298,6.171143-3.234802,9.436401-3.789185-1.583923-7.541809-3.54248-10.907654-5.650269ZM48.171241,15.077926c1.123962.389893,2.119995.645752,2.969849.773682,1.151367,2.720093,1.873291,5.799561,2.159607,9.070923-1.571716-.23761-3.411499-.709717-5.479736-1.428528-.758423-.265015-1.519958-.548279-2.284485-.862061h-.002991c.743164-2.966736,1.224426-5.692932,1.398071-8.02002.417297.167542.828491.322876,1.239685.466003ZM42.213356,12.196456c1.364563.852905,2.890625,1.647888,4.428833,2.29364-.268066,2.287537-.831543,4.983215-1.644836,7.922546-2.835754-1.184875-5.644165-2.653015-8.163208-4.230835h-.003052c1.891541-2.375854,3.722168-4.419739,5.379211-5.985352h.003052ZM38.545997,9.385055v-.003052c.880249.874207,2.062134,1.787964,3.405396,2.649963-1.739258,1.519958-3.639954,3.508972-5.595459,5.851318-2.482483-1.589966-4.663391-3.277466-6.280762-4.891785,2.787048-1.690552,5.656372-2.927246,8.470825-3.606445ZM29.539039,13.320418h.003052c1.657043,1.653992,3.892761,3.384094,6.436157,5.01062-1.964661,2.38501-3.971924,5.10199-5.924438,8.029175-3.320068-2.123047-6.229004-4.377075-8.38855-6.530579,2.421509-2.55249,5.10199-4.7547,7.873779-6.509216ZM21.205299,20.323104h.003052c2.180908,2.174805,5.123291,4.453247,8.473877,6.597595-1.937256,2.951538-3.816589,6.094971-5.510132,9.311523-3.643005-2.3302-6.841309-4.800476-9.21106-7.170227,1.717957-3.19519,3.853149-6.137634,6.244263-8.738892ZM8.336097,35.351912c-.569641-.953369-.88031-1.797119-.95343-2.518982v-.015259c.34729-3.292664,1.325012-6.634094,2.981995-9.850647.012207.09137.027466.182739.042664.277161.149231.871155.542175,1.6875.986877,2.442871.667114,1.120911,1.617432,2.31189,2.799255,3.536377-1.663086,3.219604-2.744385,6.396545-3.271362,9.399841-1.090454-1.130005-1.973755-2.232666-2.585999-3.271362ZM11.33329,39.040572l-.002991-.003052c.55127-2.985046,1.641724-6.143677,3.301819-9.363281,2.378845,2.366699,5.574097,4.840027,9.217102,7.170227-1.672241,3.210449-3.00946,6.183289-4.002441,8.818054-3.365784-2.1474-6.320374-4.434937-8.513489-6.621948ZM26.837318,57.523543c-2.939392-1.230591-5.851318-2.747437-8.461731-4.383118.298523-1.775818.947327-3.993286,1.925049-6.57019h.003052c3.387146,2.116943,7.154968,4.084656,10.962463,5.677673-1.586975,2.263184-3.088623,4.041992-4.428833,5.275635ZM42.828651,55.217757c-2.126099-.322876-4.623779-.962524-7.426086-1.934204-1.032593-.359436-2.065186-.749329-3.100769-1.169617,1.629578-2.305847,3.332275-5.092896,5.013611-8.300293,1.11792.453857,2.238831.880249,3.350586,1.264038,3.033813,1.050903,5.738586,1.745361,8.035278,2.095642-1.693542,3.201355-3.694763,5.897034-5.87262,8.044434ZM49.021095,46.558028c-2.305786-.347229-5.004517-1.038635-8.03833-2.095581-1.111755-.383789-2.229614-.80719-3.347473-1.257996h-.003052c1.669189-3.231812,3.161682-6.576233,4.447083-9.865906h.003052c1.029541.414246,2.059082.804138,3.079468,1.160522,2.793152.968628,5.281738,1.605225,7.398682,1.925049-.721924,3.457153-1.900696,6.896057-3.539429,10.133911Z" fill="url(#e)"/><path d="M50.87607,52.982022c-1.544309,1.766659-4.827855,4.18516-7.480901,5.144648.962518-2.123051,1.888505-4.702978,1.888505-9.494302,0-1.206192.012177-2.784002-.051795-3.472395.813287-.542192,1.605232-1.105689,2.366725-1.660057,1.227535-.874192,3.381038-2.927173,3.612516-3.207415.338117,3.548562.51477,7.52355-.335049,12.689521Z" fill="url(#f)"/><path d="M49.691183,32.278555c-.609194.630518-1.239712,1.251908-1.891535,1.845857-.65794.600066-1.343283,1.17271-2.052999,1.714883-.487348.374667-.986891.727991-1.489465,1.081334-1.556505-7.322524-7.919522-13.518016-11.66911-16.429963-.006098.00303-.009147.006079-.012196.009128-1.751433-1.778836-5.236023-4.651202-7.834226-2.601252,1.519936-1.842808,3.183042-3.384068,4.940554-4.450158h.003049c2.144356-1.303684,4.69688.560448,5.656368,1.261017,2.985047,2.180925,9.683132,8.574413,13.259116,15.272498l.006079-.003049s.039599.079198.112699.231497c.344196.66097.69449,1.407237.971665,2.068207Z" fill="url(#g)"/><path d="M27.236301,48.821217c.103553.067021.210173.137072.316774.204093-.124877-.0731-.243674-.152298-.359422-.228448-.0731-.048746-.146201-.100522-.216271-.14925.085296.057874.170574.118779.258919.173604Z" fill="url(#h)"/><path d="M30.236574,50.377722c-.009128.003049-.015226.003049-.024373.003049-.018275-.009147-.03655-.015245-.051776-.024373.009147,0,.015226,0,.021324-.003049.018275.009147.03655.018275.054825.024373Z" fill="url(#i)"/><path d="M22.987169,40.834693c-.024373.40207-.033501.801092-.012177,1.200113.012177.216271.030452.432523.067002.645744.024373.140121.048746.280224.076149.420345.009147.051776.021324.103571.03352.155347v.003049c.088326.432523.207124.861996.36855,1.273213.29242.73712.709716,1.419414,1.206211,2.037755.219301.271077.453847.529996.700569.776719.115748.112699.234527.228448.359422.344196.048727.042648.094424.085277.143152.130974.085296.0731.173623.14925.264998.225399.063972.054825.130993.10662.201044.164476.094424.076149.194947.149268.29545.225417.012196.012177.027422.021324.039599.030452.082247.060923.161445.121846.246723.17972.07007.048727.14317.100504.216271.14925.115748.076149.234546.155347.359422.228448.313744.197977.648793.386826,1.005166.575693.493446.261949,1.035637.511721,1.623507.752346-.006098.003049-.012177.003049-.021324.003049.015226.009128.033501.015226.051776.024373h-.009128c-2.010333.271077-3.831835.301548-5.458373.0731-2.263153-.316793-4.151659-1.111786-5.647222-2.385-1.855004-1.580859-2.847993-3.99936-2.951546-7.185451-.216271-6.621936,3.332292-16.612714,8.595718-22.984877,2.598203-2.04995,6.082793.822416,7.834226,2.601252-.484299.392942-.938145.816318-1.370686,1.264085-.453847.469073-.880271.962518-1.282341,1.474239-.420345.529996-.813287,1.078285-1.187936,1.638733-.383795.575693-.746266,1.166612-1.087414,1.769708-.347245.609194-.676196,1.230584-.986891,1.861102-.310695.627469-.603096,1.267115-.88029,1.912859-.271096.633567-.526947,1.276262-.767572,1.925055-.231497.627469-.450816,1.264085-.651842,1.900682-.191898.609194-.371618,1.221437-.533045,1.839759-.152298.575693-.289371,1.154435-.408168,1.736207-.10965.529996-.204075,1.063041-.283273,1.596085-.067002.47214-.118779.944262-.14925,1.416383Z" fill="url(#j)"/><path d="M58.722491,29.211279c-.286322.718844-.590919,1.425512-.922938,2.110855-1.653959,3.390166-3.926241,6.359987-6.60974,8.915541,0,.003049-.006098.015245-.021324.030471-.231497.280224-2.385,2.333205-3.612535,3.207397-.761492.554369-1.553437,1.117884-2.366706,1.660057-.067021.048746-.137072.094424-.207124.140121-3.533336,2.016431-7.755046,3.496768-10.009071,4.121188-1.681363.469091-3.256143.791963-4.73648.992989-.009128-.003049-.015226-.006098-.024373-.009128-.018275-.009147-.03655-.015245-.051776-.024373.009147,0,.015226,0,.021324-.003049.003049.003049.009147,0,.012177,0-.590919-.240625-1.136141-.493446-1.635684-.752346-.356373-.188867-.691423-.377716-1.005166-.575693-.124877-.0731-.243674-.152298-.359422-.228448-.0731-.048746-.146201-.100522-.216271-.14925-.085277-.057874-.164476-.118797-.246723-.17972-.012177-.009128-.027403-.018275-.039599-.030452-.100504-.076149-.201026-.149268-.29545-.225417-.070051-.057856-.137072-.10965-.201044-.164476-.091375-.076149-.179702-.152298-.264998-.225399-.048727-.045697-.094424-.088326-.143152-.130974-.124895-.115748-.243674-.231497-.359422-.344196-.246723-.246723-.481268-.505641-.700569-.776719-.496495-.618341-.913791-1.300635-1.206211-2.037755-.161427-.411217-.280224-.840691-.36855-1.273213v-.003049c0-.003049.00303-.003049.00303-.003049.50869.261949,1.766659.554369,3.938437.389874,2.60127-.207124,5.46752-.959469,8.096193-1.928086,0,0,2.257056-.886388,3.362744-1.401157.103571-.042629.197995-.088326.289371-.140103.487366-.231497.980812-.475171,1.452934-.73104.079198-.042648.158396-.085277.243674-.130974.295469-.164476.58787-.332019.871143-.496495.801092-.462993,1.535181-1.023441,2.284477-1.553437.173623-.121846.347245-.243692.520868-.36552.502592-.353343,1.002117-.706667,1.489484-1.081316.709698-.542192,1.395041-1.114835,2.052981-1.714883.651842-.593968,1.282341-1.215339,1.891535-1.845857.006098-.006098.009147-.009147.015245-.015226.057874-.067021.115748-.14317.173623-.210173,1.257968-1.449885,2.366706-3.04597,3.274418-4.782177,1.312812-2.534249,3.204348-6.143735,3.655164-8.869863,1.559535,1.571712,2.994175,6.259465,1.955508,10.834517Z" fill="url(#k)"/><path d="M30.236574,50.377722c-.012177.003049-.021324.003049-.033501.003049-1.172691-.47822-2.150454-1.008215-2.966772-1.559554.825446.548289,1.815386,1.075236,3.000273,1.556505Z" fill="url(#l)"/></svg>