<?xml version="1.0" encoding="UTF-8"?><svg id="a" xmlns="http://www.w3.org/2000/svg" xmlns:xlink="http://www.w3.org/1999/xlink" viewBox="0 0 286 80"><defs><radialGradient id="b" cx="52.006879" cy="25.758889" fx="52.006879" fy="25.758889" r="41.288185" gradientTransform="translate(99.689504 -8.054251) rotate(116.911863) scale(.988372 1.016964)" gradientUnits="userSpaceOnUse"><stop offset=".071111" stop-color="#b6d7eb"/><stop offset=".369345" stop-color="#5cb3e6"/><stop offset=".627108" stop-color="#009adf"/><stop offset=".906101" stop-color="#004a98"/><stop offset="1" stop-color="#002454"/></radialGradient><radialGradient id="c" cx="44.254926" cy="24.337368" fx="44.254926" fy="24.337368" r="69.573733" gradientTransform="translate(101.03685 86.592577) rotate(-166.795807) scale(.955602) skewX(.157531)" gradientUnits="userSpaceOnUse"><stop offset="0" stop-color="#c93825"/><stop offset=".5" stop-color="#de5829"/><stop offset=".86603" stop-color="#f68e2d"/><stop offset="1" stop-color="#ffb719"/></radialGradient><radialGradient id="d" cx="57.438546" cy="23.516723" fx="57.438546" fy="23.516723" r="44.380203" gradientTransform="translate(1.662791 .465116) scale(.988372)" gradientUnits="userSpaceOnUse"><stop offset="0" stop-color="#0084ca"/><stop offset=".8" stop-color="#002554"/></radialGradient><radialGradient id="e" cx="86.370987" cy="-44.593834" fx="86.370987" fy="-44.593834" r="131.092078" gradientTransform="translate(1.662791 .465116) scale(.988372)" gradientUnits="userSpaceOnUse"><stop offset=".361899" stop-color="#009adf"/><stop offset=".76682" stop-color="#004a98"/><stop offset=".857135" stop-color="#002454"/></radialGradient><linearGradient id="f" x1="57.018582" y1="21.119093" x2="62.546998" y2="71.268676" gradientUnits="userSpaceOnUse"><stop offset=".53" stop-color="#ffb719"/><stop offset=".7" stop-color="#f68e2d"/><stop offset=".88" stop-color="#de5829"/><stop offset="1" stop-color="#c93825"/></linearGradient><linearGradient id="g" x1="39.223779" y1="18.72878" x2="72.602587" y2="56.964479" gradientUnits="userSpaceOnUse"><stop offset="0" stop-color="#c93825"/><stop offset=".15" stop-color="#de5829"/><stop offset=".45" stop-color="#f68e2d"/><stop offset=".75" stop-color="#ffb719"/></linearGradient><linearGradient id="h" x1="35.882285" y1="61.211807" x2="36.607585" y2="61.211807" gradientUnits="userSpaceOnUse"><stop offset=".161671" stop-color="#d5411f"/><stop offset=".282391" stop-color="#df581f"/><stop offset=".448579" stop-color="#ec731f"/><stop offset=".597172" stop-color="#f3831f"/><stop offset=".712333" stop-color="#f6891f"/><stop offset="1" stop-color="#f6891f"/></linearGradient><linearGradient id="i" x1="39.892514" y1="63.140166" x2="39.988453" y2="63.140166" xlink:href="#h"/><linearGradient id="j" x1="28.135166" y1="60.006327" x2="43.67607" y2="23.683679" gradientUnits="userSpaceOnUse"><stop offset="0" stop-color="#c93825"/><stop offset=".23" stop-color="#de5829"/><stop offset=".68" stop-color="#ff8d1c"/><stop offset="1" stop-color="#ffb348"/></linearGradient><linearGradient id="k" x1="35.965415" y1="62.373795" x2="77.640915" y2="30.331043" gradientUnits="userSpaceOnUse"><stop offset="0" stop-color="#ffb719"/><stop offset=".29" stop-color="#f68e2d"/><stop offset=".8" stop-color="#de5829"/><stop offset=".999999" stop-color="#c93825"/></linearGradient><linearGradient id="l" x1="36.208489" y1="62.17502" x2="40.502893" y2="62.17502" gradientUnits="userSpaceOnUse"><stop offset="0" stop-color="#f6891f"/><stop offset=".207151" stop-color="#f4841f"/><stop offset=".428995" stop-color="#ee771f"/><stop offset=".657681" stop-color="#e4621f"/><stop offset=".889726" stop-color="#d6441f"/><stop offset=".91464" stop-color="#d5411f"/></linearGradient></defs><path d="M76.019083,40.400834c-.061414,1.151261-.172694,2.294862-.341546,3.442282-.030707.234084-.069073.460509-.107439.694593,0,.007683-.003841.019183-.003841.026866-.007683.038366-.011524.080573-.015365.118963-.038366.237925-.084415.472009-.130463.706093-.821238,4.309569-2.413802,8.511652-4.731688,12.360711-.145828.241767-.291656.487375-.452826.729141-.015342.023024-.026866.042207-.042207.065232-.153511.241767-.310839.483533-.472033.729118-2.087597,3.119919-4.666433,5.971228-7.724938,8.411895-.548788.437485-1.093712.855763-1.653977,1.243358q-.007683.003841-.011524.003841c-.249449.180353-.487375.353047-.740642.514217-.057572.038389-.09978.076755-.157352.115145h-.015342c-.253267.17267-.495034.337682-.752165.498875h-.015342c-1.565721.990067-3.181309,1.83433-4.827627,2.540447-.970884.418278-1.953293.782849-2.943383,1.09753-.003841,0-.007683.003841-.0115.007683-.518081.168853-1.036139.32234-1.558039.460509-.686934.184194-1.373844.345364-2.060778.48351,0,0-.007659.003841-.0115.003841-.088256.015365-.168853.030707-.25329.042207,0,0-.007659.007683-.0115.007683-.226425.042207-.448985.080597-.67541.118963-.09978.015365-.188036.030707-.287815.042207h-.0115c-.218742.038389-.429802.076755-.652386.107462h-.003841c-.107462.015342-.21106.026866-.318522.038366h-.007659c-.14967.019206-.295498.038389-.441326.053731h-.003841c-.341546.042207-.679251.076755-1.016933.09978-.084438.0115-.165035.015342-.249449.023024-3.319478.245608-6.615908-.030707-9.781875-.821238-.218742-.053731-.437485-.107439-.656227-.168853-.165011-.046049-.326181-.092097-.491192-.138146-.015365-.003841-.038389-.011524-.053731-.015342-.168853-.04989-.333864-.095938-.502716-.157352-.019183-.003841-.042207-.0115-.065232-.019183-2.367776-.740642-4.643432-1.776781-6.769419-3.104577-.003841,0-.011524-.003818-.015342-.007659-.122804-.076755-.249449-.157352-.372253-.237925-.015342-.007683-.026866-.019206-.042207-.030707-.118963-.076755-.241767-.16117-.360729-.241767-1.838171-1.212651-3.557403-2.663251-5.123101-4.32491-.107462-.115121-.214901-.226401-.318522-.345364-.168853-.188036-.337705-.376094-.502716-.567971-.107462-.122781-.214901-.249426-.318522-.376071-.030707-.038366-.06139-.072914-.092097-.11128-.138146-.161193-.272473-.322363-.402937-.483533-.395277-.495034-.779031-1.005433-1.147419-1.531173-7.629023-10.856404-7.64823-25.427516-1.174285-37.097476v-.003818s0-.003841.003818-.007683c.180376-.330022.368412-.652386.56413-.974726.003841,0,.003841-.003841.003841-.007683,2.244949-3.779963,5.188333-7.222245,8.791784-10.100397.203401-.16117.406778-.322363.61402-.475851l.003818-.003841.072914-.053731c.092097-.072914.184218-.141987.276315-.207219,3.357844-2.505922,6.976637-4.309545,10.679845-5.437782.145828-.04989.299339-.092121.449009-.138169.092097-.026842.188036-.053708.280133-.080573h.007683c.088256-.023024.17267-.046049.257108-.069073l.003841-.003841c.11128-.030707.21106-.053731.314681-.076755.103598-.023024.203377-.04989.314657-.080597-.007167.00342-.013585.007917-.020729.011383,3.778137-.943972,7.627173-1.197544,11.349142-.767367h.003841c.11128.0115.222584.026866.333864.042207.153511.019183.306998.038389.460509.057572.107439.015342.214901.030683.32234.04989h.003841c.706117.107439,1.408393.237925,2.099144.399095.303157.065232.606314.138146.901812.218742.475851.122804.947884.257108,1.416052.399095.283974.088279.567948.180376.848104.280156.015342,0,.030683.007659.042207.015342,5.199856,1.792123,9.912362,5.027163,13.569521,9.639888.130487.16117.264791.326181.391436.495034l.475851.640885c.080597.107439.157329.218742.230243.326181,1.032298,1.465942,1.922609,3.000956,2.678616,4.58586.690752,1.446759,1.270223,2.939542,1.73455,4.463056.14967.487351.283997.978567.410619,1.473601.057572.203401.107462.40296.153511.606337.015342.06139.030707.122804.042207.184194.046049.207242.092097.41446.138146.621679.088279.429826.172694.867287.245608,1.304772.057572.337705.118963.683093.157352,1.020774.084415.606337.149646,1.212674.199536,1.82283.138169,1.596428.168853,3.212039.080597,4.823785Z" fill="url(#b)"/><path d="M128.823174,28.983019c-.385734-1.693187-1.216422-3.185504-2.470723-4.443207-1.49065-1.536933-3.525489-2.583829-6.047963-3.111612-2.350148-.496239-5.987675-.737722-11.119054-.737722-6.650305,0-11.159601.613813-13.786645,1.876584-2.731613,1.309521-4.26868,3.779377-4.443674,7.141742l-.083762,1.617294h8.692079l.310508-1.129592c.154187-.560594.433217-.88504.933123-1.084843.654093-.263758,2.654787-.703577,8.747032-.703577,3.601248,0,6.170672.158322,7.636247.47063,1.22069.260023,2.105797.715915,2.631312,1.355003.084296.105103.153653.206005.207005.301638.322779.560328.690373,1.599288.752261,3.520354-.659429-.293969-1.380212-.518246-2.159682-.671699-2.041774-.399138-6.017019-.593006-12.153546-.593006-8.027849,0-10.516712.660696-11.690986,1.157601-1.851842.805946-3.187238,2.008229-3.982714,3.579441-.747459,1.488449-1.109718,3.438592-1.109718,5.966668,0,2.06725.23208,3.675941.709579,4.918038.521247,1.344066,1.45117,2.500333,2.764692,3.440726,1.322592.979473,3.094406,1.597154,5.416277,1.888188,2.107931.263425,5.770533.397004,10.886974.397004,4.67522,0,7.845919-.255088,9.69456-.779804.56873-.161523,1.111852-.37533,1.627764-.640289l-.033612,1.322058h8.581108v-17.390828c0-3.255995-.131779-5.58747-.402806-7.127671-.02881-.178062-.06669-.36506-.105637-.53912ZM120.453339,43.462104c0,1.505855-.61568,1.954811-1.218556,2.195361-.868568.345453-3.101342.758196-8.796649.758196-8.832395,0-10.527382-.470563-10.836823-.614746-.478032-.227946-1.03876-.690773-1.03876-2.214034,0-1.238229.290234-2.036839.863233-2.373756.114706-.065423.677035-.322512,2.401366-.483368,1.400485-.124977,3.98218-.188599,7.667191-.188599,6.03836,0,8.496812.445421,9.495558.819151,1.040894.386,1.463441.994478,1.463441,2.101795Z" fill="#de5829"/><polygon points="135.960047 7.144979 135.960047 7.619481 135.960047 52.531381 135.960047 54.06878 137.497647 54.06878 142.997153 54.06878 144.534753 54.06878 144.534753 52.531381 144.534753 7.619481 144.534753 7.144979 135.960047 7.144979" fill="#de5829"/><path d="M191.780995,28.702388c-.893643-2.394563-2.556086-4.325699-4.93451-5.722717-1.532264-.88384-3.369701-1.47091-5.627551-1.801158-2.13514-.306706-5.144717-.455491-9.204257-.455491-4.827807,0-8.171366.299904-10.22221.916718-.656227.200336-1.269773.453757-1.83797.758996v-1.433497h-8.574172v53.158356h8.574172v-21.621025c.603409.310441,1.255368.565596,1.95321.763931,2.04711.586603,5.194334.872169,9.618801.872169,5.967935,0,10.101101-.360858,12.635846-1.103316,2.729479-.797743,4.926508-2.462987,6.528129-4.949315,1.544535-2.396231,2.295196-5.878104,2.295196-10.644356,0-3.313415-.332382-6.044295-.988076-8.116813-.06669-.205138-.136047-.41481-.216608-.622482ZM184.102067,37.566394c0,2.304532-.208072,4.087617-.618348,5.299704-.363859,1.0573-.900579,1.817163-1.638968,2.316003-.423613.28023-1.314055.673433-3.086403.910916-1.561074.214274-4.034999.322645-7.35615.322645-5.870301,0-8.199642-.608811-9.120495-1.119521l-.011737-.006536-.011737-.006336c-.836023-.444687-1.42236-1.176274-1.793155-2.236575-.439619-1.256235-.662096-3.244191-.662096-5.908715,0-2.240777.207005-3.979446.61568-5.167791.176595-.503174.389468-.93419.647691-1.30932.278497-.409542.596473-.733254.977405-.997546.405474-.272895,1.296449-.662296,3.137621-.898978,1.671513-.214808,4.330034-.323712,7.901939-.323712,5.447221,0,7.662389.60561,8.561901,1.113719l.013871.007803.013871.007603c.510577.274362.913383.631886,1.231894,1.092979.224078.321912.408141.690239.549524,1.099181.430549,1.228359.647691,3.179635.647691,5.804479Z" fill="#de5829"/><path d="M238.59989,29.367019c-.394804-1.770747-1.197215-3.308814-2.382693-4.565116l-.011737-.012471-.011737-.012204c-1.409555-1.428295-3.342492-2.432243-5.745992-2.984101-2.266386-.51898-5.403473-.771201-9.591591-.771201-4.985728,0-8.540027.356924-10.865633,1.091045-.813615.259423-1.557873.588337-2.230106.985008V7.144979h-8.574705v46.923802h8.574705v-15.471162c0-3.245258.156321-4.676221.287566-5.305172.160589-.754928.507376-1.422693,1.0585-2.035305.029877-.033478.051751-.059487.074693-.082295l.012804-.013005.017073-.018073c.722384-.763865,1.859311-1.347934,3.379838-1.736068,1.756876-.44302,4.343906-.668165,7.684797-.668165,2.957825,0,5.181529.165791,6.610825.492771,1.180676.274428,2.009763.697242,2.458986,1.255435.103503.130845.194201.261224.260357.374663l.012804.022074.013871.021674c.312108.496105.524982,1.07684.650359,1.775349.185664,1.020354.279564,3.009977.279564,5.916117v15.471162h8.580041v-16.908527c0-3.308013-.147785-5.708379-.451356-7.337076-.026676-.162256-.058687-.312375-.091232-.456158Z" fill="#de5829"/><path d="M283.698722,29.529675c-.031478-.194401-.068824-.376531-.106704-.546323-.377197-1.683584-1.208419-3.179902-2.47179-4.449876-1.485848-1.52953-3.524422-2.57876-6.047963-3.105476-2.343212-.495972-5.979673-.737522-11.112652-.737522-6.648171,0-11.159068.613613-13.790913,1.875984-2.733214,1.313589-4.269747,3.783245-4.444741,7.142342l-.083762,1.617294h8.697415l.310508-1.129658c.15472-.562262.43215-.886641.927255-1.084776.654627-.263758,2.655854-.703577,8.752901-.703577,3.601248,0,6.170672.158322,7.636247.47063,1.220156.260023,2.105797.715915,2.631312,1.355003.070958.088631.140849.192533.20167.301638.322779.560194.689839,1.598821.751727,3.519153-.658362-.292968-1.379145-.516913-2.159148-.670499-2.042308-.399138-6.014885-.593006-12.148211-.593006-8.027849,0-10.516712.660696-11.690986,1.157601-1.860378.809747-3.196841,2.013565-3.985381,3.584176-.748526,1.49105-1.112919,3.441193-1.112919,5.961933,0,2.057647.234215,3.666337.715448,4.917971.512711,1.338864,1.441033,2.497332,2.759356,3.440926,1.323125.979873,3.097073,1.59742,5.422146,1.888054,2.101528.263425,5.764665.397004,10.88644.397004,4.677355,0,7.846987-.255222,9.690292-.780137.56873-.161523,1.111319-.374663,1.626164-.638421l-.033078,1.320524h8.586443v-17.390828c0-3.258596-.132846-5.587803-.407074-7.120135ZM275.222184,43.462104c0,1.507723-.613012,1.955878-1.213221,2.195361-.868568.345453-3.101342.758196-8.796649.758196-8.832395,0-10.527382-.470496-10.836823-.614746-.478032-.227946-1.03876-.690773-1.03876-2.214034,0-1.869248.645557-2.24898.857897-2.373756.149919-.084629.730386-.32758,2.406167-.483301,1.396217-.125043,3.975778-.188665,7.662389-.188665,6.037293,0,8.499479.445755,9.50196.819684,1.035559.384066,1.457038.992544,1.457038,2.101262Z" fill="#de5829"/><path d="M168.86268,70.659257c.18158.207285.385037.417852.612558.631701.226428.213848.48239.404726.767885.573179.284402.168453.60162.304638.951653.408007.350033.103916.731788.155874,1.147453.155874.855394,0,1.522645-.194706,2.001753-.583571.479108-.388318.718662-.913368.718662-1.574056,0-.712646-.271276-1.246993-.816015-1.60359-.543645-.356596-1.327939-.644827-2.351786-.865238-.557865-.116495-1.063226-.278386-1.516081-.485671-.453949-.207285-.845549-.466529-1.175893-.77773s-.586306-.670532-.767885-1.07854c-.18158-.408554-.27237-.871802-.27237-1.390288,0-.479108.09079-.93251.27237-1.360207s.452855-.803436.816015-1.127763c.363159-.323781.817109-.583024,1.360754-.777183.544739-.194706,1.172611-.291512,1.885804-.291512.634435,0,1.182456.067819,1.641875.204004.460512.136185.852112.301357,1.175893.495516s.584118.395428.77773.602713c.194706.207285.34347.375739.447386.50536l-1.243712,1.146906c-.077664-.09079-.194706-.210567-.350033-.359878-.155327-.148764-.353315-.294247-.592869-.436995s-.518487-.262525-.835704-.359878c-.318311-.097353-.683659-.145483-1.098229-.145483-.415664,0-.771167.05524-1.069789.165172-.297528.109932-.543645.25268-.738351.427697-.194706.17447-.336907.372457-.427697.592322-.09079.220958-.135638.440823-.135638.661235,0,.323781.067819.599432.203457.82586.136732.226975.333625.427697.592869.602713s.579743.324328.962591.446839c.381755.123605.819297.243382,1.311531.359878.480202.116495.949465.269088,1.409978.456684.459419.188143.870708.440823,1.233867.758041.363159.317765.650843.70663.865238,1.166595.213301.459966.320499,1.020019.320499,1.681253,0,.557319-.115949,1.069242-.350033,1.535224-.232991.466529-.55349.871802-.961498,1.215272s-.891491.609277-1.448262.796873c-.557865.187596-1.160579.281667-1.80814.281667-.609277,0-1.162767-.0711-1.661564-.213848-.498797-.142201-.952747-.323781-1.360754-.544192-.408007-.219865-.764604-.463247-1.068695-.729054-.305185-.26526-.554584-.527784-.74929-.787028l1.322469-1.20488Z" fill="#004a98"/><path d="M188.105642,74.138259c-.700066,0-1.341065-.12634-1.924089-.37902s-1.085103-.599432-1.506237-1.040255c-.421134-.440276-.751478-.948918-.991032-1.525926-.240648-.576461-.359878-1.195035-.359878-1.85627,0-.660688.11923-1.279262.359878-1.85627.239554-.576461.569898-1.085103.991032-1.525926.421134-.440276.923213-.787028,1.506237-1.039708s1.224022-.37902,1.924089-.37902c.68694,0,1.322469.12634,1.905493.37902s1.088385.599432,1.516081,1.039708c.427697.440823.761322.949465,1.000876,1.525926.239554.577008.359878,1.195582.359878,1.85627,0,.661235-.120324,1.279809-.359878,1.85627-.239554.577008-.573179,1.08565-1.000876,1.525926-.427697.440823-.933057.787575-1.516081,1.040255s-1.218553.37902-1.905493.37902ZM188.105642,72.621631c.467076,0,.888209-.093525,1.263401-.281667.376286-.187596.693503-.433713.952747-.738351s.457231-.654672.592869-1.0501c.135638-.394881.204551-.799607.204551-1.214725,0-.401444-.068913-.800154-.204551-1.195582-.135638-.394881-.336907-.748196-.602713-1.058851-.265806-.311201-.583024-.5606-.952747-.748743-.368629-.187596-.786481-.281667-1.253556-.281667-.465982,0-.887115.094071-1.263401.281667-.376286.188143-.693503.43426-.952747.738898s-.456137.654125-.592869,1.049553c-.135638.395428-.203457.800154-.203457,1.214725,0,.415118.067819.816562.203457,1.205427.136732.388318.336907.738351.602713,1.049553.265806.310654.583024.5606.952747.748196.369723.188143.787575.281667,1.253556.281667Z" fill="#004a98"/><path d="M201.381746,66.233571h-1.633124v-1.45756h1.633124v-.738898c0-.60873.087508-1.137061.262525-1.5839.175017-.447386.408007-.81328.698973-1.098229.292059-.284949.625684-.495516,1.000876-.631701.376286-.136185.771167-.204004,1.185738-.204004.480202,0,.949465.074382,1.409978.223146.459419.149311.883834.405273,1.273246.767885l-.875083,1.127763c-.479108-.401991-.991032-.602713-1.535771-.602713-.50536,0-.910086.16189-1.214178.485671-.305185.324328-.457231.881646-.457231,1.671956v.583024h2.584777v1.45756h-2.584777v7.904688h-1.749072v-7.904688Z" fill="#004a98"/><path d="M214.327258,66.298015h-1.633124v-1.45756h1.633124v-2.954499h1.749072v2.954499h2.643845v1.45756h-2.643845v4.451438c0,.725772.112667,1.224569.340189,1.496939.226428.271823.546927.408007.961498.408007.336907,0,.61584-.051411.836798-.155327.219865-.103916.439729-.259243.660688-.466529l.796326,1.068695c-.375192.363159-.761322.625684-1.156203.787575-.395975.16189-.865238.242836-1.408884.242836-.95931,0-1.662658-.259243-2.10895-.77773-.447386-.51794-.670532-1.327939-.670532-2.429449v-4.626455Z" fill="#004a98"/><path d="M226.053857,65.099745h1.925183l2.021442,6.900577,2.176769-6.900577h1.496392l2.177863,6.958551,1.982063-6.958551h1.80814l-2.993878,9.038514h-1.729383l-2.100199-6.317006-2.079416,6.317006h-1.633124l-3.051852-9.038514Z" fill="#004a98"/><path d="M252.373074,72.797194c-.336907.453402-.781012.790309-1.33122,1.010721-.551302.219865-1.117919.330344-1.700943.330344-.376286,0-.748196-.048676-1.117919-.146029-.369723-.096806-.70663-.258696-1.010721-.485671-.305185-.226428-.551302-.51794-.738351-.874536-.188143-.356596-.282214-.793591-.282214-1.312078,0-.971889.340189-1.749619,1.020566-2.332643s1.661564-.874536,2.944655-.874536c.206738,0,.427697.006563.660688.019142.232991.013126.453949.026252.660688.038832.207832.013126.389412.026252.544739.038832.155327.013126.265806.026252.330344.038832v-.330344c0-.673267-.204551-1.156203-.612558-1.448262-.408007-.291512-.961498-.436995-1.661564-.436995-.68694,0-1.231679.094071-1.633124.281667-.401444.188143-.738351.37902-1.010721.573726l-.816015-1.185738c.155327-.129622.34347-.259243.563335-.388865.220958-.129622.479108-.249399.77773-.359878.297528-.109932.634435-.200722,1.010721-.271823s.809452-.107198,1.30278-.107198c1.166048,0,2.082698.282214,2.749949.845549.667251.563882,1.000876,1.364036,1.000876,2.401009v5.257608c0,.317765.006563.838986.019689,1.059397h-1.658629l-.01278-1.341065ZM252.353385,69.609157c-.051411-.012579-.152046-.028987-.30081-.048676-.149858-.019142-.321593-.03555-.515205-.04813-.194706-.013126-.402538-.026252-.622403-.039379-.220958-.012579-.43426-.019142-.640998-.019142-.493328,0-.891491.058521-1.195582.175017-.305185.116495-.544739.262525-.719756.436995-.175017.175017-.294247.369723-.358784.583571-.065631.213848-.097353.417852-.097353.612011,0,.492781.168453.865238.50536,1.117919s.802889.37902,1.399039.37902c.336907,0,.657406-.058521.962591-.175017.304091-.116495.573179-.27237.80617-.466529.232991-.194706.421134-.421134.564429-.680377.142201-.259243.213301-.52505.213301-.796873v-1.03041Z" fill="#004a98"/><path d="M262.54859,66.577704v-.981734c0-.278386-.006563-.566616-.019689-.864691h1.671409l.057974,1.45756c.103916-.155327.240648-.327062.409101-.514658.16736-.188143.37191-.359878.611464-.515205.239554-.155874.518487-.28823.836798-.39871.317218-.109932.682565-.165172,1.098229-.165172.193612,0,.37191.013126.533801.038832.16189.026252.313936.065084.457231.116495l-.389412,1.633124c-.232991-.09079-.530519-.136185-.893679-.136185-.376286,0-.723037.071647-1.040255.213848-.317218.142748-.592869.340189-.82586.592869s-.417852.547474-.55349.884381c-.136732.336907-.204551.693503-.204551,1.069242l-.019689,5.130558h-1.749072l.019689-7.560555Z" fill="#004a98"/><path d="M283.751174,72.523898c-.103916.117042-.259243.265806-.465982.447386-.207832.18158-.47692.356596-.807264.524503-.330344.168453-.718662.314483-1.166048.437542s-.956028.184861-1.525926.184861c-.700066,0-1.341065-.117042-1.924089-.350033-.583024-.233538-1.081821-.563882-1.496392-.991578-.415664-.427697-.736164-.939074-.962591-1.535224s-.340189-1.256838-.340189-1.98261c0-.661235.110479-1.279809.330344-1.856817.219865-.575914.531613-1.075258.933057-1.496392s.878365-.754759,1.428573-1.000876c.551302-.246117,1.156203-.369723,1.817985-.369723.776636,0,1.443887.149311,2.001753.447386.556772.298075,1.014002.693503,1.370599,1.185738.355502.492234.618027,1.056116.786481,1.691098s.25268,1.29567.25268,1.98261h-7.133021c.013126.401444.099541.771167.262525,1.108074.16189.336907.378473.628419.650843.874536s.583024.440823.933057.583024c.350033.142748.719756.213848,1.108074.213848.764604,0,1.392476-.129622,1.885804-.388865.492234-.259243.847737-.511924,1.068695-.758041l.991032,1.049553ZM282.177118,68.539535c-.052505-.700066-.298622-1.29567-.738351-1.788451-.440823-.492234-1.063226-.738898-1.866115-.738898-.415664,0-.787575.071647-1.117919.213848-.330344.142748-.612558.330891-.845549.563882s-.414571.502079-.544739.806717c-.129075.304638-.200175.619121-.213301.942902h5.325974Z" fill="#004a98"/><path d="M71.167262,17.763404c.696606,1.000772,1.348165,2.053135,1.9385,3.131545l.100048-.053595c-1.68589-4.880141-4.931739-9.53338-9.158909-13.124238l-.816315-.670187-.83971-.635625c-.584611-.432265-1.170467-.837483-1.73915-1.202128-.566443-.365147-1.178929-.749327-1.822026-1.088928l-.071428-.037066c-.597304-.311552-1.215265-.633622-1.838949-.908108-2.398175-1.130502-5.075341-1.985516-7.963306-2.543003-4.767481-.920129-9.741032-.833977-14.383577.247438l-.000996.000501-.001244-.005009-.355147.080643-.001244-.006011c-.797152.188333-1.595797.403715-2.381998.642137-4.75006,1.441552-9.161398,3.706062-12.757665,6.548094l-1.01019.804424c-.454449.360639-.862109.688219-1.257325,1.047855-1.505704,1.279766-2.968849,2.773911-4.611435,4.707335-1.553239,1.842262-2.81579,3.591359-3.858832,5.347468-1.229451,2.046123-2.214753,3.97053-3.013398,5.883918-.842447,1.985015-1.549257,4.095752-2.101763,6.275612-.520401,2.050631-.903671,4.248022-1.13886,6.531064-.192382,1.867807-.236682,3.793717-.135389,5.887424.446485,9.213313,3.763015,17.689821,9.338598,23.869263,5.810772,6.440403,13.509771,10.464528,21.6784,11.330562,7.506368.794407,15.411437-1.136512,21.725437-5.305394l-.104528-.222895c-7.233848,3.621913-15.815115,4.425836-23.588279,2.201398-.670971-.19184-1.34916-.411228-2.015901-.651153-7.823935-2.81799-14.353711-8.707918-18.38626-16.583362l-.093826-.205865c-.367093-.806929-.74663-1.641406-1.059468-2.493916-.694615-1.828738-1.24513-3.717582-1.635368-5.610434-.376301-1.89786-.61149-3.85182-.699841-5.809787-.092582-1.896358-.027874-3.864342.192133-5.849357.828261-7.71466,3.982275-15.282058,8.880665-21.306225,1.330246-1.631389,2.639835-3.022351,4.003927-4.251528,1.591317-1.447062,3.088061-2.631159,4.574602-3.619909,1.597041-1.080914,3.302095-2.05013,5.065884-2.880099,1.676682-.788897,3.477802-1.467599,5.35483-2.018574l-.001244-.017531.134145-.019535.272271-.077137-.000996-.016028.124189-.016028v.001002c4.187598-1.125493,8.43418-1.455577,12.619788-.979234l.000249-.000501c.021901.001503.042309.004007.061224.007513l.307612.039069c.210052.026046.419357.052092.603526.083147,9.399573,1.725555,16.960445,6.407846,21.868541,13.540976Z" fill="url(#c)"/><path d="M55.600695,47.205382c-.081339.053518-.164448.103833-.246255.156529.000793.00673.00205.013575.002843.020305.082648-.056551.161282-.119449.243411-.176834Z" fill="none"/><path d="M55.51129,8.391957c-.011524-.007683-.026866-.015342-.042207-.015342-.280156-.09978-.56413-.191877-.848104-.280156,1.669319.61402,3.311795,1.404551,4.900541,2.390801.007659,0,.0115-.003841.015342-.003841-1.308589-.828921-2.655568-1.527355-4.025571-2.091462Z" fill="url(#d)"/><path d="M68.9542,44.844693c.805876-4.367109,1.016957-8.741908.671538-12.901781,2.586569.337653,4.547509.153486,5.710261-.514284-.046061-.207159-.092122-.414396-.138106-.621632-.011534-.06144-.026914-.122804-.042216-.184244-1.135916.671615-3.050871.859627-5.598992.529587h-.003845c-.42593-4.125346-1.412205-8.024233-2.947214-11.458817,1.419895.180322,2.475223.072898,3.085397-.314738.038371-.026837.072898-.049906.107424-.076743h.003845c.053751-.042216.10358-.088277.145796-.134261l-.475836-.640933c-.046061.053751-.10358.103657-.161175.149718h-.003845c-.034527.026837-.061363.045984-.099735.069053h-.003845c-.571803.364567-1.569536.475836-2.897385.299358h-.003845c-1.327773-2.786116-3.023957-5.249805-5.088553-7.26065-.011458,0-.019147-.003845-.030682-.003845,1.987853,1.99931,3.60345,4.451542,4.858324,7.226046-1.005422-.153486-2.183555-.452767-3.511327-.9133-.48737-.168865-.978586-.356877-1.469801-.552579.142028-2.363954.011534-4.378644-.410628-5.921342-.011534-.003845-.026837-.00769-.038371-.015379.318506,1.500483.33773,3.469188.099812,5.790849-1.818988-.759815-3.618829-1.700029-5.23827-2.716986,1.700029-1.561846,3.246573-2.716986,4.57819-3.361687-.011534-.011458-.022992-.015302-.034527-.022992-1.419895.583337-3.058561,1.680882-4.84679,3.196667-1.600294-1.020802-3.000965-2.106812-4.037146-3.142916,2.916533-.629398,5.767857-.790573,8.450239-.39148-.007613-.003845-.011458-.015302-.022992-.022992-2.739978-.456689-5.652666-.364567-8.622949.218771-.518052-.533431-.932525-1.055328-1.224116-1.546544-.268677-.452844-.414472-.851937-.449076-1.193511,3.438506.184244,6.850022.913377,10.115819,2.229616v-.019147c-3.269642-1.354687-6.688847-2.118346-10.127276-2.340885v-.003845c-.00769-.575648.326195-.98243.947827-1.197356-.107424-.019224-.214849-.034527-.32235-.049906-.153486-.019147-.306971-.038371-.460457-.057519-.633243.241763-.963283.667693-.955594,1.262488,0,.042293,0,.092122.00769.142028.038371.364567.195702.790573.479681,1.270254.310893.521897.752202,1.074476,1.300936,1.646278-3.611139.790497-7.287487,2.290979-10.844875,4.374799h-.003845v-.003845c-1.013112-1.051484-1.830523-2.06844-2.402248-3.035492-.525742-.886464-.813566-1.669347-.882619-2.34473,3.994853-1.366144,8.185408-2.030069,12.349126-1.907265-.003845-.049906-.003845-.09589-.003845-.142028-4.171407-.168788-8.369652.452921-12.364505,1.788306-.015379-.997733.695145-1.881966,1.654583-2.338655-.218771.06144-.41132.102196-.630013.159791-1.024647.464301-1.803609,1.399902-1.784385,2.44754.003845.084432.00769.17271.015302.264755.06913.694607.368411,1.496638.909532,2.39848.58326.990043,1.42374,2.041604,2.459844,3.116079.065208.069053.130493.134338.191857.199547-.065208-.065208-.130493-.130493-.195702-.199547-3.542009,2.156718-6.953602,4.885161-10.038999,8.074138-1.35461-1.400671-2.44062-2.766815-3.211969-4.052372-.702296-1.181977-1.082242-2.229616-1.178132-3.127614,3.334773-2.782271,7.091708-4.946602,11.059724-6.408713-.003768-.092045-.011458-.176478-.015302-.264755-3.968016,1.427508-7.724951,3.557388-11.063646,6.320436-.015379-.951749.538199-2.478145,1.198202-3.061483l-.37464.282133c-.713831.59864-1.468263,2.318816-1.452884,3.316548,0,.115114.00769.23415.022992.353109.092122.905611.479681,1.964784,1.189667,3.162063.771349,1.297091,1.872662,2.678615,3.242728,4.09851.084432.088277.168788.176554.25322.264832-.084432-.084432-.172633-.17271-.257065-.260987-3.039336,3.246573-5.744788,6.942144-7.91304,10.967679-1.488948-1.542699-2.682383-3.043181-3.519017-4.455386-.775194-1.300936-1.197279-2.448309-1.300936-3.434585,2.17971-4.006387,5.0195-7.479344,8.300599-10.342125-.015302-.118959-.019147-.237995-.019147-.353109-3.277254,2.83979-6.120889,6.305133-8.300599,10.307676-.011534-.552656.153486-2.517439.341498-3.035492-.195702.32235-.383714.644701-.564113.974741-.003768.003845-.003768.007613-.003768.007613v.003845c-.176554,1.043794-.280211,1.907265-.199623,2.851324-2.083743,4.052449-3.307936,8.262227-3.741556,12.433558,0-.072898.003845-.145796.003845-.218694l-.06144.667693c-.011458.115191-.011458.230305-.011458.349264,0,.115114.011458.230228.022992.349187.092122.905688.479681,1.949481,1.181977,3.142916.767505,1.293246,1.865049,2.667157,3.227348,4.079362.168865.168788.33773.345342.510439.518052,2.739978,2.724676,6.424015,5.583613,10.626104,8.269917-1.197279,3.27341-1.949481,6.10551-2.24884,8.392644-3.242651-2.072285-6.09013-4.274987-8.204632-6.381799-.706064-3.073863-.782884-6.550664-.172633-10.280762-.176554-.17271-.345419-.349264-.514284-.518052-.575648,3.756935-.468146,7.279797.295513,10.395876-1.051484-1.089855-1.895731-2.145183-2.490603-3.142916-.291592-.49506-.518052-.955594-.671538-1.389213l.211081.640856c.149641.437465.372179.905688.671538,1.40836.579492.974741,1.40836,2.010845,2.433007,3.073863.445154,1.611752,1.063018,3.112234,1.857359,4.470766.030682.038371.06144.072898.092122.111269.107424.130493.218694.264755.33004.395248-.003845-.00769-.00769-.011534-.011534-.019147-.81741-1.377679-1.442887-2.904998-1.880428-4.566656,2.060751,2.056906,4.835332,4.202089,8.001317,6.232158-.17271,1.57338-.111346,2.858937.184167,3.814454.015379.011534.026914.023069.042216.030759.122804.080511.249452.161175.372256.237918.003845.003845.011534.007613.015379.007613-.237995-.9133-.23415-2.16433-.00769-3.710874,3.215814,2.010845,6.792427,3.883584,10.407334,5.391756-.909456.794341-1.749858,1.385368-2.517363,1.75378.218694.061363.437465.115114.656235.168788.794341-.353032,1.650123-.901766,2.551889-1.638589.970896.391403,1.941792.76366,2.912688,1.097545,1.634821.564113,3.16214,1.013112,4.566733,1.339307.337653-.023069.675382-.057596,1.01688-.099812-1.57338-.345342-3.307936-.840402-5.180675-1.492793-.993888-.341498-1.983931-.717599-2.981741-1.120537,1.776772-1.523475,3.737788-3.733943,5.787004-6.566043h.003845c1.293246.521897,2.578803,1.009267,3.864436,1.454421,3.495948,1.216504,6.612027,2.01469,9.267573,2.417628-1.926413,1.81522-3.948792,3.292634-6.021,4.409402.521897-.138183,1.039949-.291669,1.558001-.460533.003845-.003845.00769-.00769.011534-.00769,1.761393-1.036181,3.484491-2.321738,5.126924-3.849057.947904.122804,1.830523.191857,2.644088.211081h.015302c.257142-.161175.498905-.326195.752202-.498905-.875006-.00769-1.838212-.076743-2.874316-.214926,2.782194-2.701607,5.318781-6.093975,7.448585-10.1272,2.268064.291669,4.194476.303126,5.729486.053674.161175-.245531.318506-.48737.471991-.729133.015379-.022992.026914-.042139.042216-.065208-1.554156.276289-3.519017.2686-5.83691-.034527h-.003768c2.060751-4.079285,3.526707-8.411868,4.401636-12.771288-.111269-.015379-.222616-.030759-.33773-.046138.111269.015379.22646.030759.33773.042293,2.812876.36449,5.061716.26091,6.623562-.280211.046061-.234073.092122-.468146.130493-.706064.003845-.038371.00769-.080588.015379-.118959,0-.00769.003845-.019224.003845-.026837-1.546544.560268-3.791539.671538-6.615949.306971ZM68.282586,44.744882c-2.644011-.399093-5.744711-1.193435-9.221589-2.398404-1.281712-.448999-2.563424-.932525-3.845212-1.450577,1.573457-4.136881,2.882006-8.197019,3.864436-11.977023h.003845c.978586.399093,1.968629.767505,2.947214,1.112924,2.670925.924835,5.054026,1.535009,7.076406,1.842057.280134,4.148339.015379,8.515448-.8251,12.871023ZM27.716038,57.731172c1.289401-3.296478,3.000965-7.026577,5.103932-11.071336,4.658778,2.908843,9.843297,5.625829,15.089181,7.817073-2.118346,4.033224-4.236616,7.559931-6.239848,10.484153-4.84679-2.030069-9.643751-4.532129-13.94942-7.226046h-.003845v-.003845ZM48.308244,53.701716c-5.245883-2.191244-10.422713-4.900541-15.081491-7.813228h-.003845c2.137494-4.048604,4.474534-8.028154,6.880704-11.773555h.003845c4.282677,2.67477,9.060414,5.172985,13.880367,7.191597-1.661658,4.125346-3.576613,8.327359-5.67958,12.395187ZM40.564068,33.401178h-.003845c2.410015-3.714796,4.881393-7.180062,7.279874-10.234701,3.25803,2.037682,6.876859,3.929645,10.541672,5.464654-1.066786,3.737711-2.448309,7.774857-4.075441,11.888669-4.773892-1.995543-9.501723-4.463076-13.74226-7.118622ZM62.583859,18.680332c1.41605.491215,2.670925.813566,3.741633.974741,1.450577,3.426972,2.360109,7.306711,2.720831,11.428212-1.980163-.299358-4.298056-.894153-6.903773-1.799764-.955517-.333885-1.914955-.690762-2.878161-1.086087h-.003768c.936292-3.737711,1.542622-7.172373,1.761393-10.104208.525742.211081,1.043794.406783,1.561846.587105ZM55.077678,15.050046c1.719176,1.074552,3.641821,2.07613,5.579768,2.889696-.33773,2.882006-1.047639,6.278219-2.072285,9.981404-3.572691-1.492793-7.110932-3.342463-10.284607-5.330315h-.003845c2.383101-2.993275,4.68946-5.56831,6.777124-7.540784h.003845ZM50.457272,11.508037v-.003845c1.109002,1.101389,2.598027,2.252608,4.290366,3.338618-2.191244,1.914955-4.58588,4.42086-7.049569,7.371919-3.127614-2.003155-5.875281-4.129191-7.912963-6.163028,3.511327-2.129881,7.126311-3.687959,10.672165-4.543664ZM39.109647,16.466096h.003845c2.087665,2.08382,4.904385,4.26353,8.108742,6.312746-2.475223,3.00481-5.00412,6.42786-7.464041,10.115742-4.182865-2.67477-7.847755-5.51456-10.568509-8.227701,3.050794-3.215814,6.42786-5.990319,9.919963-8.200787ZM28.610191,25.288592h.003845c2.747668,2.739978,6.454697,5.610527,10.67601,8.312133-2.440697,3.718564-4.808419,7.67889-6.942067,11.731339-4.589725-2.935757-8.619181-6.047991-11.604767-9.033577,2.164407-4.025535,4.85448-7.732641,7.866979-11.009895ZM12.396629,44.222985c-.717676-1.201124-1.109079-2.264142-1.201201-3.173598v-.019224c.437541-4.148339,1.669347-8.358117,3.756935-12.410566.015379.115114.034603.230228.053751.349187.188012,1.097545.683072,2.126036,1.24334,3.077708.840479,1.412205,2.037759,2.912688,3.526707,4.455386-2.095277,4.056293-3.457577,8.058836-4.121502,11.842608-1.373834-1.423663-2.486681-2.812876-3.25803-4.121502ZM16.172711,48.870228l-.003768-.003845c.69453-3.76078,2.068364-7.740254,4.159873-11.796547,2.997043,2.981741,7.022655,6.09782,11.61238,9.033577-2.106812,4.044759-3.791539,7.790159-5.042569,11.10963-4.240461-2.705452-7.962869-5.587458-10.725916-8.342815ZM35.705821,72.156428c-3.703261-1.550388-7.371919-3.461422-10.660708-5.522172.376101-2.237305,1.193511-5.031034,2.425317-8.277607h.003845c4.267374,2.66708,9.014353,5.146148,13.811314,7.153148-1.999387,2.851324-3.891273,5.092398-5.579768,6.646631ZM55.852872,69.25143c-2.678615-.406783-5.825376-1.212659-9.355927-2.436852-1.300936-.452844-2.601872-.944059-3.906576-1.473569,2.053061-2.905075,4.198244-6.416402,6.316514-10.457316,1.408437.571803,2.820643,1.109002,4.221313,1.592528,3.82222,1.324005,7.229891,2.198934,10.123432,2.640243-2.133649,4.033301-4.654933,7.429515-7.398756,10.134966ZM63.654566,58.341269c-2.904998-.437465-6.305056-1.308549-10.127276-2.640166-1.400671-.483526-2.809031-1.016957-4.217392-1.584915h-.003845c2.102967-4.071673,3.983319-8.285219,5.60276-12.42979h.003845c1.297091.521897,2.594182,1.013112,3.879739,1.462111,3.519017,1.220348,6.65432,2.022379,9.321401,2.425317-.909532,4.355575-2.394636,8.688157-4.459231,12.767443Z" fill="url(#e)"/><path d="M65.9916,66.434687c-1.945633,2.225766-6.082485,5.272771-9.424987,6.481604,1.212651-2.674775,2.379277-5.925156,2.379277-11.961616,0-1.519649.015342-3.50749-.065255-4.374777,1.024639-.683093,2.022389-1.393027,2.981773-2.091462,1.546538-1.101371,4.259679-3.687866,4.551312-4.040937.425984,4.470739.648544,9.478718-.42212,15.987188Z" fill="url(#f)"/><path d="M64.498793,40.350944c-.767507.794373-1.56188,1.577245-2.383095,2.325546-.828921.756007-1.692366,1.477465-2.586519,2.160535-.613996.472033-1.243358.917177-1.876537,1.362344-1.960999-9.225451-9.977593-17.030986-14.701599-20.699669-.007683.003818-.011524.007659-.015365.0115-2.206583-2.241108-6.596725-5.859925-9.870131-3.277247,1.914927-2.321705,4.01023-4.263497,6.224472-5.606634h.003841c2.701617-1.642477,5.917474.706093,7.126307,1.588722,3.76078,2.747689,12.199518,10.802673,16.704805,19.24141l.007659-.003841s.04989.09978.141987.291656c.433643.832739.874969,1.77294,1.224175,2.605678Z" fill="url(#g)"/><path d="M36.208489,61.1926c.130463.084438.264791.172694.399095.257132-.157329-.092097-.306998-.191877-.452826-.287815-.092097-.061414-.184194-.126645-.272473-.188036.107462.072914.214901.149646.326205.218719Z" fill="url(#h)"/><path d="M39.988453,63.153599c-.0115.003841-.019183.003841-.030707.003841-.023024-.011524-.046049-.019206-.065232-.030707.011524,0,.019183,0,.026866-.003841.023024.011524.046049.023024.069073.030707Z" fill="url(#i)"/><path d="M30.855122,51.130592c-.030707.506558-.042207,1.009274-.015342,1.51199.015342.272473.038366.544924.084415.813556.030707.176535.061414.353047.095938.529582.011524.065232.026866.130487.042231.195718v.003841c.11128.544924.26095,1.086006.464327,1.604087.368412.928677.894152,1.788281,1.519673,2.567312.276291.341523.571789.667727.882629.978567.145828.141987.295474.287815.452826.433643.06139.053731.118963.107439.180353.165011.107462.092097.218742.188036.333864.283974.080597.069073.165035.134328.25329.207219.118963.095938.245608.188059.37223.283997.015365.015342.034548.026866.04989.038366.103621.076755.203401.153511.310839.226425.088279.06139.180376.126622.272473.188036.145828.095938.295498.195718.452826.287815.395277.249426.817397.487351,1.266382.7253.621679.330022,1.304772.644703,2.045413.94786-.007683.003841-.015342.003841-.026866.003841.019183.0115.042207.019183.065232.030707h-.0115c-2.532764.341523-4.827627.379912-6.876858.092097-2.851286-.399119-5.230563-1.40071-7.114783-3.004797-2.33707-1.991682-3.58811-5.038686-3.718573-9.052757-.272473-8.342799,4.198265-20.929912,10.829515-28.958031,3.273406-2.582678,7.663548,1.036139,9.870131,3.277247-.610155.495057-1.181944,1.028457-1.726891,1.592587-.571789.590972-1.10903,1.212651-1.615588,1.857354-.529582.667727-1.024639,1.358503-1.496648,2.064596-.483533.7253-.940201,1.469783-1.370003,2.229607-.437485.767507-.851922,1.550379-1.243358,2.344752-.391436.790531-.759825,1.596405-1.109053,2.40996-.341546.798214-.663886,1.607928-.967043,2.425325-.291656.790531-.567971,1.592587-.821238,2.394619-.241767.767507-.468192,1.538856-.671569,2.317863-.191877.7253-.364571,1.454441-.51424,2.1874-.138146.667727-.257108,1.339296-.356888,2.010865-.084415.594837-.149646,1.18965-.188036,1.784464Z" fill="url(#j)"/><path d="M75.877096,36.486566c-.360729.905653-.744483,1.795964-1.162785,2.65941-2.083779,4.271179-4.946566,8.012777-8.327434,11.232452,0,.003841-.007683.019206-.026866.038389-.291656.353047-3.004797,2.939542-4.551335,4.040913-.959384.698434-1.957134,1.408393-2.981749,2.091462-.084438.061414-.172694.118963-.26095.176535-4.451556,2.540447-9.770375,4.405484-12.610161,5.192174-2.118304.590996-4.102327.997773-5.967364,1.25104-.0115-.003841-.019183-.007683-.030707-.0115-.023024-.011524-.046049-.019206-.065232-.030707.011524,0,.019183,0,.026866-.003841.003841.003841.011524,0,.015342,0-.744483-.303157-1.431393-.621679-2.060755-.94786-.448985-.237949-.871105-.475874-1.266382-.7253-.157329-.092097-.306998-.191877-.452826-.287815-.092097-.061414-.184194-.126645-.272473-.188036-.107439-.072914-.207219-.14967-.310839-.226425-.015342-.0115-.034525-.023024-.04989-.038366-.126622-.095938-.253267-.188059-.37223-.283997-.088256-.072891-.172694-.138146-.25329-.207219-.115121-.095938-.226401-.191877-.333864-.283974-.06139-.057572-.118963-.11128-.180353-.165011-.157352-.145828-.306998-.291656-.452826-.433643-.310839-.310839-.606337-.637044-.882629-.978567-.62552-.779031-1.151261-1.638635-1.519673-2.567312-.203377-.518081-.353047-1.059164-.464327-1.604087v-.003841c0-.003841.003818-.003841.003818-.003841.640885.330022,2.225766.698434,4.961931.491192,3.277271-.26095,6.888382-1.20881,10.200177-2.429143,0,0,2.843604-1.116736,4.236631-1.765281.130487-.053708.249449-.11128.364571-.176512.61402-.291656,1.235699-.598655,1.830512-.921018.09978-.053731.199559-.107439.306998-.165011.372253-.207219.740642-.418302,1.09753-.62552,1.009274-.583313,1.934133-1.289406,2.878152-1.957134.218742-.153511.437485-.307022.656227-.460509.633203-.445167,1.262541-.890311,1.876561-1.362321.894129-.683093,1.757575-1.404551,2.586495-2.160535.821238-.748324,1.615588-1.531173,2.383095-2.325546.007683-.007683.011524-.011524.019206-.019183.072914-.084438.145828-.180376.218742-.264791,1.584881-1.826671,2.981749-3.837536,4.125351-6.024936,1.653977-3.192833,4.037072-7.740327,4.605043-11.174903,1.964816,1.980158,3.772281,7.886132,2.463691,13.650118Z" fill="url(#k)"/><path d="M39.988453,63.153599c-.015342.003841-.026866.003841-.042207.003841-1.477442-.602496-2.709299-1.270223-3.737756-1.96484,1.039957.690775,2.287156,1.354661,3.779963,1.960999Z" fill="url(#l)"/></svg>