<?xml version="1.0" encoding="UTF-8"?><svg id="a" xmlns="http://www.w3.org/2000/svg" viewBox="0 0 140 40"><path d="M62.9671,14.5347c-.1914-.84-.6034-1.5803-1.2257-2.2042-.7395-.7624-1.7489-1.2818-3.0003-1.5436-1.1659-.2462-2.9704-.366-5.516-.366-3.2991,0-5.5361.3045-6.8393.9309-1.3551.6496-2.1176,1.8749-2.2044,3.5429l-.0416.8023h4.312l.154-.5604c.0765-.2781.2149-.4391.4629-.5382.3245-.1308,1.317-.349,4.3392-.349,1.7865,0,3.0612.0785,3.7882.2335.6056.129,1.0446.3552,1.3053.6722.0418.0521.0762.1022.1027.1496.1601.278.3425.7934.3732,1.7464-.3271-.1458-.6847-.2571-1.0714-.3332-1.0129-.198-2.9849-.2942-6.0292-.2942-3.9825,0-5.2171.3278-5.7997.5743-.9187.3998-1.5811.9962-1.9758,1.7757-.3708.7384-.5505,1.7058-.5505,2.96,0,1.0255.1151,1.8236.352,2.4397.2586.6668.7199,1.2404,1.3715,1.7069.6561.4859,1.5351.7923,2.6869.9367,1.0457.1307,2.8627.1969,5.4008.1969,2.3193,0,3.8922-.1265,4.8093-.3868.2821-.0801.5516-.1862.8075-.3176l-.0167.6558h4.2569v-8.6273c0-1.6152-.0654-2.7718-.1998-3.5359-.0143-.0883-.0331-.1811-.0524-.2674ZM58.815,21.7175c0,.747-.3054.9697-.6045,1.0891-.4309.1714-1.5385.3761-4.3639.3761-4.3816,0-5.2224-.2334-5.3759-.305-.2371-.1131-.5153-.3427-.5153-1.0983,0-.6143.144-1.0104.4282-1.1776.0569-.0325.3359-.16,1.1913-.2398.6948-.062,1.9755-.0936,3.8036-.0936,2.9955,0,4.2151.221,4.7106.4064.5164.1915.726.4933.726,1.0427Z" fill="#fff"/><polygon points="66.5076 3.7012 66.5076 3.9366 66.5076 26.2166 66.5076 26.9793 67.2704 26.9793 69.9986 26.9793 70.7614 26.9793 70.7614 26.2166 70.7614 3.9366 70.7614 3.7012 66.5076 3.7012" fill="#fff"/><path d="M94.1994,14.3955c-.4433-1.1879-1.268-2.1459-2.4479-2.8389-.7601-.4385-1.6716-.7297-2.7917-.8935-1.0592-.1522-2.5522-.226-4.5661-.226-2.395,0-4.0537.1488-5.0711.4548-.3255.0994-.6299.2251-.9118.3765v-.7111h-4.2535v26.3709h4.2535v-10.7258c.2993.154.6228.2806.969.379,1.0155.291,2.5768.4327,4.7717.4327,2.9606,0,5.011-.179,6.2684-.5473,1.354-.3957,2.444-1.2218,3.2385-2.4553.7662-1.1887,1.1386-2.916,1.1386-5.2805,0-1.6437-.1649-2.9985-.4902-4.0266-.0331-.1018-.0675-.2058-.1075-.3088ZM90.39,18.7927c0,1.1432-.1032,2.0278-.3068,2.6291-.1805.5245-.4468.9015-.8131,1.1489-.2101.139-.6519.3341-1.5311.4519-.7744.1063-2.0017.1601-3.6493.1601-2.9121,0-4.0677-.302-4.5245-.5554l-.0058-.0032-.0058-.0031c-.4147-.2206-.7056-.5835-.8896-1.1095-.2181-.6232-.3285-1.6094-.3285-2.9312,0-1.1116.1027-1.9741.3054-2.5636.0876-.2496.1932-.4634.3213-.6495.1382-.2032.2959-.3638.4849-.4949.2011-.1354.6431-.3286,1.5565-.446.8292-.1066,2.1481-.1606,3.92-.1606,2.7023,0,3.8012.3004,4.2474.5525l.0069.0039.0069.0038c.2533.1361.4531.3135.6111.5422.1112.1597.2025.3424.2726.5453.2136.6094.3213,1.5774.3213,2.8795Z" fill="#fff"/><path d="M117.4254,14.7252c-.1959-.8784-.5939-1.6414-1.182-2.2647l-.0058-.0062-.0058-.0061c-.6993-.7086-1.6581-1.2066-2.8505-1.4804-1.1243-.2575-2.6806-.3826-4.7582-.3826-2.4733,0-4.2366.1771-5.3902.5412-.4036.1287-.7728.2919-1.1063.4886V3.7012h-4.2538v23.278h4.2538v-7.675c0-1.6099.0775-2.3198.1427-2.6318.0797-.3745.2517-.7058.5251-1.0097.0148-.0166.0257-.0295.0371-.0408l.0064-.0065.0085-.009c.3584-.3789.9224-.6687,1.6767-.8612.8716-.2198,2.1549-.3315,3.8123-.3315,1.4673,0,2.5705.0822,3.2795.2445.5857.1361.997.3459,1.2199.6228.0513.0649.0963.1296.1292.1859l.0064.011.0069.0108c.1548.2461.2604.5342.3226.8807.0921.5062.1387,1.4932.1387,2.9349v7.675h4.2564v-8.388c0-1.641-.0733-2.8318-.2239-3.6398-.0132-.0805-.0291-.155-.0453-.2263Z" fill="#fff"/><path d="M139.7981,14.8059c-.0156-.0964-.0341-.1868-.0529-.271-.1871-.8352-.5995-1.5775-1.2262-2.2075-.7371-.7588-1.7484-1.2793-3.0003-1.5406-1.1624-.246-2.9664-.3659-5.5128-.3659-3.298,0-5.5358.3044-6.8414.9306-1.3559.6516-2.1181,1.8768-2.205,3.5432l-.0416.8023h4.3146l.154-.5604c.0768-.2789.2144-.4398.46-.5381.3247-.1308,1.3175-.349,4.3422-.349,1.7865,0,3.0612.0785,3.7882.2335.6053.129,1.0446.3552,1.3053.6722.0352.044.0699.0955.1.1496.1601.2779.3422.7931.3729,1.7458-.3266-.1453-.6842-.2564-1.0711-.3326-1.0132-.198-2.9839-.2942-6.0265-.2942-3.9825,0-5.2171.3278-5.7997.5743-.9229.4017-1.5859.9989-1.9771,1.778-.3713.7397-.5521,1.7071-.5521,2.9576,0,1.0208.1162,1.8188.3549,2.4397.2543.6642.7149,1.2389,1.3689,1.707.6564.4861,1.5364.7925,2.6898.9366,1.0425.1307,2.8597.1969,5.4006.1969,2.3203,0,3.8927-.1266,4.8072-.387.2821-.0801.5513-.1859.8067-.3167l-.0164.6551h4.2596v-8.6273c0-1.6165-.0659-2.772-.2019-3.5322ZM135.593,21.7175c0,.748-.3041.9703-.6019,1.0891-.4309.1714-1.5385.3761-4.3639.3761-4.3816,0-5.2224-.2334-5.3759-.305-.2371-.1131-.5153-.3427-.5153-1.0983,0-.9273.3202-1.1157.4256-1.1776.0744-.042.3623-.1625,1.1937-.2398.6926-.062,1.9723-.0936,3.8012-.0936,2.995,0,4.2164.2211,4.7137.4066.5137.1905.7228.4924.7228,1.0424Z" fill="#fff"/><path d="M82.83,35.2095c.0901.1028.191.2073.3039.3134.1123.1061.2393.2008.3809.2843.1411.0836.2985.1511.4721.2024.1736.0516.363.0773.5692.0773.4243,0,.7554-.0966.993-.2895.2377-.1926.3565-.4531.3565-.7809,0-.3535-.1346-.6186-.4048-.7955-.2697-.1769-.6588-.3199-1.1667-.4292-.2767-.0578-.5274-.1381-.7521-.2409-.2252-.1028-.4195-.2314-.5833-.3858s-.2909-.3326-.3809-.535c-.0901-.2027-.1351-.4325-.1351-.6897,0-.2377.045-.4626.1351-.6748s.2247-.3986.4048-.5595c.1802-.1606.4054-.2892.675-.3855.2702-.0966.5817-.1446.9355-.1446.3147,0,.5866.0336.8145.1012.2285.0676.4227.1495.5833.2458s.2898.1962.3858.299c.0966.1028.1704.1864.2219.2507l-.617.569c-.0385-.045-.0966-.1045-.1736-.1785-.0771-.0738-.1753-.146-.2941-.2168s-.2572-.1302-.4146-.1785c-.1579-.0483-.3392-.0722-.5448-.0722-.2062,0-.3826.0274-.5307.0819-.1476.0545-.2697.1254-.3663.2122-.0966.0866-.1671.1848-.2122.2938-.045.1096-.0673.2187-.0673.328,0,.1606.0336.2974.1009.4097.0678.1126.1655.2122.2941.299s.2876.1609.4775.2217c.1894.0613.4064.1207.6506.1785.2382.0578.471.1335.6995.2266.2279.0933.4319.2187.6121.3761.1802.1576.3229.3505.4292.5787.1058.2282.159.506.159.834,0,.2765-.0575.5304-.1736.7616-.1156.2314-.2746.4325-.477.6029s-.4423.3023-.7185.3953c-.2767.0931-.5757.1397-.897.1397-.3023,0-.5768-.0353-.8243-.1061-.2474-.0705-.4726-.1606-.675-.27-.2024-.1091-.3793-.2298-.5302-.3617-.1514-.1316-.2751-.2618-.3717-.3904l.6561-.5977Z" fill="#fff"/><path d="M92.3761,36.9354c-.3473,0-.6653-.0627-.9545-.188s-.5383-.2974-.7472-.5161c-.2089-.2184-.3728-.4707-.4916-.757-.1194-.286-.1785-.5928-.1785-.9209,0-.3278.0591-.6346.1785-.9209.1188-.286.2827-.5383.4916-.757.2089-.2184.458-.3904.7472-.5158s.6072-.188.9545-.188c.3408,0,.6561.0627.9453.188s.5399.2974.7521.5158c.2122.2187.3777.471.4965.757.1188.2862.1785.5931.1785.9209,0,.328-.0597.6349-.1785.9209-.1188.2862-.2843.5386-.4965.757-.2122.2187-.4629.3907-.7521.5161s-.6045.188-.9453.188ZM92.3761,36.183c.2317,0,.4406-.0464.6268-.1397.1867-.0931.344-.2152.4726-.3663s.2268-.3248.2941-.5209c.0673-.1959.1015-.3967.1015-.6026,0-.1991-.0342-.3969-.1015-.5931-.0673-.1959-.1671-.3712-.299-.5253-.1319-.1544-.2892-.2781-.4726-.3714-.1829-.0931-.3902-.1397-.6219-.1397-.2312,0-.4401.0467-.6268.1397-.1867.0933-.344.2154-.4726.3666s-.2263.3245-.2941.5207c-.0673.1962-.1009.3969-.1009.6026,0,.2059.0336.4051.1009.598.0678.1926.1671.3663.299.5207.1319.1541.2892.2781.4726.3712.1834.0933.3907.1397.6219.1397Z" fill="#fff"/><path d="M98.9621,33.014h-.8102v-.7231h.8102v-.3666c0-.302.0434-.5641.1302-.7857.0868-.2219.2024-.4035.3467-.5448.1449-.1414.3104-.2458.4965-.3134.1867-.0676.3826-.1012.5882-.1012.2382,0,.471.0369.6995.1107.2279.0741.4385.201.6316.3809l-.4341.5595c-.2377-.1994-.4916-.299-.7619-.299-.2507,0-.4515.0803-.6023.2409-.1514.1609-.2268.4374-.2268.8294v.2892h1.2823v.7231h-1.2823v3.9214h-.8677v-3.9214Z" fill="#fff"/><path d="M105.3841,33.046h-.8102v-.7231h.8102v-1.4657h.8677v1.4657h1.3116v.7231h-1.3116v2.2083c0,.36.0559.6075.1688.7426.1123.1348.2713.2024.477.2024.1671,0,.3055-.0255.4151-.0771.1091-.0516.2181-.1286.3278-.2314l.395.5302c-.1861.1802-.3777.3104-.5736.3907-.1964.0803-.4292.1205-.6989.1205-.4759,0-.8248-.1286-1.0462-.3858-.2219-.2569-.3326-.6588-.3326-1.2052v-2.2951Z" fill="#fff"/><path d="M111.2015,32.4515h.955l1.0028,3.4232,1.0799-3.4232h.7423l1.0804,3.452.9833-3.452h.897l-1.4852,4.4838h-.8579l-1.0419-3.1338-1.0316,3.1338h-.8102l-1.514-4.4838Z" fill="#fff"/><path d="M124.258,36.2701c-.1671.2249-.3874.3921-.6604.5014-.2735.1091-.5546.1639-.8438.1639-.1867,0-.3712-.0241-.5546-.0724-.1834-.048-.3505-.1283-.5014-.2409-.1514-.1123-.2735-.2569-.3663-.4338-.0933-.1769-.14-.3937-.14-.6509,0-.4821.1688-.868.5063-1.1572s.8243-.4338,1.4608-.4338c.1026,0,.2122.0033.3278.0095.1156.0065.2252.013.3278.0193.1031.0065.1932.013.2702.0193.0771.0065.1319.013.1639.0193v-.1639c0-.334-.1015-.5736-.3039-.7185-.2024-.1446-.477-.2168-.8243-.2168-.3408,0-.611.0467-.8102.1397-.1991.0933-.3663.188-.5014.2846l-.4048-.5882c.0771-.0643.1704-.1286.2795-.1929.1096-.0643.2377-.1237.3858-.1785.1476-.0545.3147-.0996.5014-.1348s.4016-.0532.6463-.0532c.5785,0,1.0332.14,1.3642.4195.331.2797.4965.6767.4965,1.1911v2.6082c0,.1576.0033.4162.0098.5255h-.8228l-.0063-.6653ZM124.2482,34.6886c-.0255-.0062-.0754-.0144-.1492-.0241-.0743-.0095-.1595-.0176-.2556-.0239-.0966-.0065-.1997-.013-.3088-.0195-.1096-.0062-.2154-.0095-.318-.0095-.2447,0-.4423.029-.5931.0868-.1514.0578-.2702.1302-.3571.2168-.0868.0868-.146.1834-.178.2895-.0326.1061-.0483.2073-.0483.3036,0,.2445.0836.4292.2507.5546s.3983.188.694.188c.1671,0,.3261-.029.4775-.0868.1509-.0578.2843-.1351.3999-.2314.1156-.0966.2089-.2089.28-.3375.0705-.1286.1058-.2605.1058-.3953v-.5112Z" fill="#fff"/><path d="M129.3059,33.1847v-.487c0-.1381-.0033-.2811-.0098-.429h.8292l.0288.7231c.0516-.0771.1194-.1622.2029-.2553.083-.0933.1845-.1785.3033-.2556.1188-.0773.2572-.143.4151-.1978.1574-.0545.3386-.0819.5448-.0819.096,0,.1845.0065.2648.0193.0803.013.1557.0323.2268.0578l-.1932.8102c-.1156-.045-.2632-.0676-.4433-.0676-.1867,0-.3587.0355-.5161.1061-.1574.0708-.2941.1688-.4097.2941s-.2073.2716-.2746.4387c-.0678.1671-.1015.344-.1015.5304l-.0098,2.5452h-.8677l.0098-3.7507Z" fill="#fff"/><path d="M139.8241,36.1345c-.0516.0581-.1286.1319-.2312.2219-.1031.0901-.2366.1769-.4005.2602-.1639.0836-.3565.156-.5785.2171s-.4743.0917-.757.0917c-.3473,0-.6653-.0581-.9545-.1736-.2892-.1159-.5367-.2797-.7423-.4919-.2062-.2122-.3652-.4659-.4775-.7616s-.1688-.6235-.1688-.9835c0-.328.0548-.6349.1639-.9211.1091-.2857.2637-.5334.4629-.7423s.4357-.3744.7087-.4965c.2735-.1221.5736-.1834.9019-.1834.3853,0,.7163.0741.993.2219.2762.1479.503.344.6799.5882.1764.2442.3066.5239.3902.8389s.1254.6428.1254.9835h-3.5386c.0065.1991.0494.3826.1302.5497.0803.1671.1878.3117.3229.4338s.2892.2187.4629.2892c.1736.0708.3571.1061.5497.1061.3793,0,.6908-.0643.9355-.1929.2442-.1286.4205-.254.5302-.3761l.4916.5207ZM139.0432,34.1579c-.026-.3473-.1481-.6428-.3663-.8872-.2187-.2442-.5274-.3666-.9257-.3666-.2062,0-.3907.0355-.5546.1061-.1639.0708-.3039.1641-.4195.2797s-.2057.2491-.2702.4002c-.064.1511-.0993.3071-.1058.4678h2.6421Z" fill="#fff"/><path d="M34.3651,8.9688c.3456.4965.6688,1.0185.9617,1.5535l.0496-.0266c-.8363-2.4209-2.4465-4.7293-4.5436-6.5107l-.405-.3325-.4166-.3153c-.29-.2144-.5806-.4155-.8628-.5964-.281-.1811-.5848-.3717-.9039-.5402l-.0354-.0184c-.2963-.1546-.6029-.3143-.9123-.4505-1.1897-.5608-2.5178-.985-3.9505-1.2615-2.3651-.4565-4.8323-.4137-7.1354.1227l-.0005.0002-.0006-.0025-.1762.04-.0006-.003c-.3955.0934-.7916.2003-1.1817.3186-2.3564.7151-4.5448,1.8385-6.3288,3.2484l-.5011.3991c-.2254.1789-.4277.3414-.6237.5198-.747.6349-1.4728,1.3761-2.2876,2.3352-.7705.9139-1.3969,1.7816-1.9143,2.6528-.6099,1.015-1.0987,1.9697-1.4949,2.9189-.4179.9847-.7686,2.0318-1.0426,3.1132-.2582,1.0173-.4483,2.1074-.565,3.2399-.0954.9266-.1174,1.882-.0672,2.9206.2215,4.5706,1.8668,8.7756,4.6327,11.8411,2.8826,3.195,6.7019,5.1913,10.7543,5.6209,3.7238.3941,7.6453-.5638,10.7776-2.6319l-.0519-.1106c-3.5886,1.7968-7.8456,2.1956-11.7017,1.0921-.3329-.0952-.6693-.204-1.0001-.323-3.8813-1.398-7.1206-4.3198-9.1211-8.2267l-.0465-.1021c-.1821-.4003-.3704-.8143-.5256-1.2372-.3446-.9072-.6177-1.8442-.8113-2.7832-.1867-.9415-.3033-1.9108-.3472-2.8821-.0459-.9407-.0138-1.917.0953-2.9018.4109-3.8271,1.9755-7.5811,4.4055-10.5696.6599-.8093,1.3096-1.4993,1.9863-2.1091.7894-.7179,1.5319-1.3053,2.2694-1.7958.7923-.5362,1.6381-1.017,2.5131-1.4288.8318-.3914,1.7253-.728,2.6564-1.0014l-.0006-.0087.0665-.0097.1351-.0383-.0005-.008.0616-.008v.0005c2.0774-.5583,4.184-.7221,6.2604-.4858v-.0002c.011.0007.0211.002.0305.0037l.1526.0194c.1042.0129.208.0258.2994.0412,4.663.856,8.4138,3.1788,10.8486,6.7174Z" fill="#fff"/><path d="M31.6846,32.0169c-.04.3179-.0876.6435-.1409.9766-.8224.9157-2.4349,2.1493-3.9103,2.8309.0971-.238.1923-.4931.2837-.7653.3674-1.1042.6549-2.5396.6549-4.6641v-.316c.0019-.613.0019-1.2983-.0209-1.7172.4036-.2722.8396-.5787,1.3555-.9538.5578-.3979,1.3821-1.1441,1.8828-1.6258.1504,1.7838.2113,3.777-.1047,6.2347Z" fill="#fff"/><path d="M17.8711,31.3221c.9024-.1295,2.9565-.4417,3.9141-.7082,1.5477-.4302,4.0987-1.3555,6.1947-2.551.0305-.0209.0685-.0457.1047-.0704.4455-.297.9119-.6263,1.4792-1.0375.7082-.5045,1.8904-1.6258,2.1607-1.9075l.2722-.276c.0742-.0723.1485-.1447.2208-.2189,1.5363-1.5439,2.7661-3.2554,3.6647-5.0944.1885-.3903.3731-.8091.5616-1.2812.0971-.4341.1561-.8662.1866-1.2926.1352-1.9799-.3941-3.8113-1.0071-4.7765-.0457.1828-.1009.3712-.1618.5616-.4683,1.4735-1.3174,3.1126-1.9742,4.3805l-.0533.1028c-.5578,1.0699-1.2584,2.0922-2.0789,3.0365,0,.0019-.0019.0038-.0038.0057-.0152.019-.0324.04-.0495.0609-.019.0228-.0381.0476-.0571.0704l-.0171.0171c-.4226.4379-.8129.8186-1.1974,1.1689-.4169.3789-.8548.7444-1.3022,1.087-.3046.2342-.6187.4569-.9385.6815l-.3141.2208-.0114.0076c-.1028.0723-.2056.1466-.3084.2208-.3617.2608-.7386.5311-1.1403.7634-.177.1028-.3617.2094-.5483.3122l-.1561.0838c-.2608.1409-.5578.2913-.91.4588-.0647.0362-.1314.0685-.2037.0971-.6796.3179-2.0465.8548-2.1055.8776-1.2869.474-3.2192,1.0699-5.1363,1.2222-1.0185.0781-2.293-.1437-2.7081-.2408l-.0447-.2237c-.0076-.0324-.0133-.0647-.019-.0952-.0171-.0857-.0324-.1751-.0476-.2646-.0228-.1257-.0362-.2589-.0457-.4341-.0133-.238-.0114-.4854.0076-.7805v-.0019c.019-.2875.0495-.5844.0952-.9062.0514-.3408.1104-.6796.1809-1.0147.0723-.3541.158-.7253.257-1.0984.0952-.3655.2056-.7444.337-1.1613.1237-.3903.2608-.7939.4112-1.2013.1542-.4112.316-.8205.4855-1.2165.1828-.4264.3712-.8319.5559-1.2089.198-.3998.4093-.7977.6244-1.1765.217-.3846.4493-.7615.6891-1.1213.257-.3846.5045-.7253.7558-1.0432.2646-.3351.5407-.6511.8186-.9404.2189-.2265,0,0,1.0083-1.0406.7225.6353,1.0387.8663,1.7481,1.5165.4325.3964.8521.8067,1.2575,1.2308.4667.4883.9145.9949,1.3388,1.5206.4592.5689.8909,1.1604,1.2862,1.7756.4108.6395.7823,1.3049,1.0995,1.9958.3225.7025.5888,1.4317.7789,2.1812.0019.0095.0057.019.0076.0286.2037-.1466.3998-.2894.594-.4379.436-.3332.8605-.6891,1.266-1.0585.337-.3065.6796-.6397,1.0451-1.0128-.0038-.0095-.0095-.0209-.0133-.0305-.1542-.356-.3389-.7386-.514-1.0775-.0133-.0286-.0247-.0514-.0343-.0704l-.04-.0704c-2.2864-4.2834-6.5165-8.2203-8.207-9.4539-.5616-.4093-2.0503-1.4963-3.2363-.7767l-.0666.04c-.7367.4569-1.4678,1.0623-2.1817,1.8105l-.7939.8967.0019-.0019-.0019.0019c-3.1545,3.836-5.4294,9.9165-5.2905,14.1619.0628,1.9113.6511,3.3563,1.7495,4.2929.8909.7577,2.0313,1.2393,3.3925,1.4297.7139.1009,1.5078.118,2.3682.0552" fill="#fff"/></svg>