<?xml version="1.0" encoding="UTF-8"?><svg id="a" xmlns="http://www.w3.org/2000/svg" xmlns:xlink="http://www.w3.org/1999/xlink" viewBox="0 0 286 80"><defs><radialGradient id="b" cx="52.0068790854" cy="25.7588889428" fx="52.0068790854" fy="25.7588889428" r="41.2881846487" gradientTransform="translate(99.6895037165 -8.0542513607) rotate(116.9118627272) scale(.988372093 1.0169643254)" gradientUnits="userSpaceOnUse"><stop offset=".0321179337" stop-color="#bfd7e9"/><stop offset=".3826797485" stop-color="#43b5e5"/><stop offset=".7071091546" stop-color="#0084c9"/><stop offset=".9238796658" stop-color="#004b87"/><stop offset="1" stop-color="#002554"/></radialGradient><radialGradient id="c" cx="44.2549261467" cy="24.3373679209" fx="44.2549261467" fy="24.3373679209" r="69.5737334006" gradientTransform="translate(101.0368502555 86.5925774452) rotate(-166.7958070996) scale(.955601903) skewX(.1575313442)" gradientUnits="userSpaceOnUse"><stop offset=".0230525229" stop-color="#ca3426"/><stop offset=".5000001695" stop-color="#e85105"/><stop offset=".8660302056" stop-color="#ff8d1c"/><stop offset="1" stop-color="#ffb348"/></radialGradient><radialGradient id="d" cx="57.438546109" cy="23.5167233369" fx="57.438546109" fy="23.5167233369" r="44.3802025774" gradientTransform="translate(1.6627906977 .4651162791) scale(.988372093)" gradientUnits="userSpaceOnUse"><stop offset="0" stop-color="#0084ca"/><stop offset=".8" stop-color="#002554"/></radialGradient><radialGradient id="e" cx="86.3709869326" cy="-44.5938337215" fx="86.3709869326" fy="-44.5938337215" r="131.0920775909" gradientTransform="translate(1.6627906977 .4651162791) scale(.988372093)" gradientUnits="userSpaceOnUse"><stop offset=".4641212463" stop-color="#0084c9"/><stop offset=".7845984565" stop-color="#004b87"/><stop offset=".8793573168" stop-color="#002554"/></radialGradient><linearGradient id="f" x1="57.0185819538" y1="21.1190931459" x2="62.5469984819" y2="71.2686762588" gradientUnits="userSpaceOnUse"><stop offset=".5394319322" stop-color="#ffb348"/><stop offset=".6776083204" stop-color="#ff8d1c"/><stop offset=".878844791" stop-color="#e85105"/><stop offset=".9999996609" stop-color="#ca3426"/></linearGradient><linearGradient id="g" x1="39.223778746" y1="18.7287803564" x2="72.6025865428" y2="56.9644793652" gradientUnits="userSpaceOnUse"><stop offset="0" stop-color="#ca3426"/><stop offset=".1427104526" stop-color="#e85105"/><stop offset=".3938273112" stop-color="#ff8d1c"/><stop offset=".7406158447" stop-color="#ffb348"/></linearGradient><linearGradient id="h" x1="35.882284742" y1="61.2118065672" x2="36.6075846425" y2="61.2118065672" gradientUnits="userSpaceOnUse"><stop offset=".1616709184" stop-color="#d5411f"/><stop offset=".282391264" stop-color="#df581f"/><stop offset=".4485791815" stop-color="#ec731f"/><stop offset=".5971721911" stop-color="#f3831f"/><stop offset=".7123325893" stop-color="#f6891f"/><stop offset="1" stop-color="#f6891f"/></linearGradient><linearGradient id="i" x1="39.8925144089" y1="63.1401659987" x2="39.9884528056" y2="63.1401659987" xlink:href="#h"/><linearGradient id="j" x1="28.1351656039" y1="60.0063269154" x2="43.6760699911" y2="23.6836789903" gradientUnits="userSpaceOnUse"><stop offset=".0000000106" stop-color="#ca3426"/><stop offset=".2391175164" stop-color="#e85105"/><stop offset=".6860772027" stop-color="#ff8d1c"/><stop offset=".9999997457" stop-color="#ffb348"/></linearGradient><linearGradient id="k" x1="35.9654150862" y1="62.373795448" x2="77.6409147816" y2="30.3310431614" gradientUnits="userSpaceOnUse"><stop offset="0" stop-color="#ffb348"/><stop offset=".2675712162" stop-color="#ff8d1c"/><stop offset=".7417439779" stop-color="#e85105"/><stop offset=".9999994914" stop-color="#ca3426"/></linearGradient><linearGradient id="l" x1="36.2084893443" y1="62.1750201065" x2="40.5028934288" y2="62.1750201065" gradientUnits="userSpaceOnUse"><stop offset="0" stop-color="#f6891f"/><stop offset=".2071513942" stop-color="#f4841f"/><stop offset=".4289953079" stop-color="#ee771f"/><stop offset=".6576808192" stop-color="#e4621f"/><stop offset=".8897258584" stop-color="#d6441f"/><stop offset=".9146404656" stop-color="#d5411f"/></linearGradient></defs><path d="M76.0190826939,40.4008336265c-.0614136905,1.1512607605-.1726937986,2.2948623765-.3415463137,3.4422818535-.0307068452.2340840666-.0690728349.4605089887-.1074388246.6945930553,0,.0076825669-.0038412835.0191829949-.0038412835.0268655618-.0076825669.0383659897-.0115238504.0805732629-.0153651338.118962675-.0383659897.23792535-.0844145463.4720094166-.1304631029.7060934832-.8212382972,4.3095687073-2.413801629,8.5116517451-4.7316882838,12.3607114637-.1458282368.2417666335-.2916564736.4873745505-.4528264218.729141184-.0153417114.0230242783-.0268655618.0422072732-.0422072732.0652315515-.1535108037.2417666335-.3108394684.483533267-.4720328391.7291177615-2.0875970268,3.1199185347-4.6664333099,5.9712282965-7.7249381541,8.4118954874-.5487882409.4374847104-1.0937117759.8557630034-1.6539770223,1.2433578737q-.0076825669.0038412835-.0115238504.0038412835c-.2494492004.180352943-.4873745505.3530467416-.7406416119.5142166898-.057572407.0383894122-.0997796802.0767554019-.1573520872.115144814h-.0153417114c-.2532670614.1726703761-.4950336949.3376816077-.7521654623.4988749784h-.0153417114c-1.5657211925.9900673898-3.1813088027,1.8343299653-4.8276266805,2.540446871-.970884395.4182782931-1.9532926404.782848885-2.9433834527,1.0975296369-.0038412835,0-.0076825669.0038412835-.0115004279.0076825669-.5180813957.1688525151-1.0361393689.3223398964-1.5580386256.4605089887-.6869339108.1841942265-1.3738443991.3453641747-2.0607783099.4835098445,0,0-.0076591445.0038412835-.0115004279.0038412835-.0882558298.0153651339-.1688525151.0307068452-.2532904839.0422072732,0,0-.0076591445.0076825669-.0115004279.0076825669-.2264249221.0422072732-.4489851383.0805966853-.6754100604.118962675-.0997796802.0153651339-.18803551.0307068452-.2878151901.0422072732h-.0115004279c-.2187423552.0383894122-.4298021434.0767554019-.6523857821.1074622471h-.0038412835c-.1074622471.0153417114-.2110597883.0268655618-.3185220354.0383659897h-.0076591445c-.1496695203.0192064173-.295497757.0383894122-.4413259938.0537311235h-.0038412835c-.3415463137.0422072732-.6792513439.0767554019-1.0169329516.0997796802-.0844379688.0115004279-.1650346541.0153417114-.2494492004.0230242783-3.319477895.245607917-6.6159080893-.0307068452-9.7818751806-.8212382972-.2187423552-.0537311235-.4374847104-.1074388246-.6562270656-.1688525151-.1650112316-.0460485566-.3261811798-.0920971132-.4911924115-.1381456699-.0153651338-.0038412835-.0383894122-.0115238504-.0537311235-.0153417114-.1688525151-.0498898401-.3338637467-.0959383967-.5027162618-.1573520872-.0191829948-.0038412835-.0422072732-.0115004279-.0652315515-.0191829949-2.3677764949-.7406416119-4.643432454-1.7767809808-6.769418893-3.1045768233-.0038412835,0-.0115238504-.003817861-.0153417114-.0076591445-.1228039585-.0767554019-.2494492004-.1573520872-.3722531589-.23792535-.0153417114-.0076825669-.0268655618-.0192064173-.0422072732-.0307068452-.118962675-.0767554019-.2417666335-.1611699482-.3607293085-.2417666335-1.8381712488-1.2126510285-3.557403245-2.6632508295-5.1231010151-4.3249104187-.1074622471-.1151213916-.2149010717-.2264014996-.3185220354-.3453641747-.1688525151-.1880355099-.3377050302-.3760944424-.5027162618-.5679712358-.1074622471-.122780536-.2149010717-.249425778-.3185220354-.3760710199-.0307068452-.0383659897-.061390268-.0729141184-.0920971132-.1112801081-.1381456699-.1611933706-.2724734787-.3223633188-.4029365817-.483533267-.3952774372-.4950336949-.779031024-1.0054325237-1.147419477-1.5311730638-7.6290231799-10.8564039616-7.6482295972-25.4275164106-1.1742850388-37.0974761025v-.003817861s0-.0038412835.003817861-.0076825669c.1803763655-.3300224633.3684118754-.6523857821.5641299523-.9747256784.0038412835,0,.0038412835-.0038412835.0038412835-.0076825669,2.2449491139-3.7799634612,5.1883325666-7.2222453147,8.7917843683-10.1003972159.2034006438-.1611699482.4067778651-.3223633188.6140197924-.4758507001l.003817861-.0038412835.0729141184-.0537311235c.0920971132-.0729141184.1842176489-.1419869533.2763147622-.2072185048,3.3578438847-2.5059221647,6.9766373978-4.3095452849,10.6798454571-5.437781767.1458282368-.0498898401.2993390405-.0921205357.4490085608-.1381690923.0920971132-.0268421393.18803551-.0537077011.2801326232-.0805732629h.0076825669c.0882558298-.0230242783.1726703761-.0460485566.2571083449-.0690728349l.0038412835-.0038412835c.1112801081-.0307068452.2110597883-.0537311236.3146807519-.0767554019.1035975412-.0230242783.2033772213-.0498898401.3146573294-.0805966853-.0071672728.0034196792-.0135850269.0079167915-.0207288772.0113833156,3.7781365093-.9439719883,7.6271728055-1.1975435417,11.3491422555-.7673666389h.0038412835c.1112801081.0115004279.2225836386.0268655618.3338637467.0422072732.1535108037.0191829948.306998185.0383894122.4605089887.057572407.1074388246.0153417114.2149010717.0306834228.3223398964.0498898401h.0038412835c.7061169056.1074388246,1.4083925278.23792535,2.0991442996.3990952982.3031569015.0652315515.606313803.1381456699.9018115601.2187423552.4758507001.1228039585.9478835391.2571083449,1.4160516723.3990952982.2839739067.0882792522.5679478133.1803763655.848103859.2801560457.0153417114,0,.0306834228.0076591445.0422072732.0153417114,5.199856417,1.7921226922,9.912361706,5.0271626184,13.5695212087,9.6398882272.1304865254.1611699482.2647909118.3261811798.3914361537.4950336949l.4758507001.6408853542c.0805966853.1074388246.1573286647.2187423552.2302427831.3261811798,1.0322980855,1.4659415124,1.9226092176,3.0009558597,2.6786159633,4.585860047.6907517718,1.4467585175,1.2702234355,2.9395421692,1.7345502852,4.4630560886.1496695203.487351128.2839973291.9785669619.4106191486,1.4736006568.057572407.2034006438.1074622471.4029600041.1535108037.6063372255.0153417114.061390268.0307068452.1228039585.0422072732.1841942265.0460485566.2072419273.0920971132.4144604321.1381456699.6216789369.0882792522.4298255659.1726937986.8672868538.245607917,1.3047715642.057572407.3377050302.118962675.6830926273.1573520872,1.0207742351.0844145463.6063372255.1496460978,1.2126744509.1995359379,1.8228295374.1381690923,1.5964280378.1688525151,3.2120390704.0805966853,4.8237853971Z" fill="url(#b)"/><path d="M128.8231735603,28.9830187576c-.3857336994-1.6931868766-1.2164216247-3.1855041297-2.4707230456-4.4432067294-1.4906500085-1.5369327172-3.5254886386-2.583828916-6.047962955-3.1116118511-2.3501479196-.4962386683-5.9876753921-.7377223691-11.1190539825-.7377223691-6.6503050666,0-11.15960137.613812754-13.7866452648,1.8765837773-2.731613473,1.3095205604-4.2686795698,3.7793766389-4.4436735579,7.1417420705l-.0837623663,1.6172939046h8.692079434l.3105076252-1.1295915285c.1541867761-.560594308.4332168242-.8850400977.9331234305-1.0848426847.6540933824-.263758088,2.6547868441-.7035772007,8.7470318144-.7035772007,3.601248231,0,6.170672154.1583215426,7.6362468045.470629792,1.2206897707.2600234602,2.1057965582.7159148104,2.6313120408,1.3550029918.0842958845.1051030965.1536532579.2060047368.2070050835.3016378842.3227785451.5603275488.6903726238,1.5992876635.7522607416,3.5203535254-.659428565-.2939685593-1.3802117294-.5182462964-2.1596819021-.6716994849-2.0417743674-.3991383456-6.0170188962-.593005542-12.1535458818-.593005542-8.0278492047,0-10.516711871.6606956708-11.6909855535,1.1576012369-1.8518418681.8059460161-3.187238064,2.008229407-3.9827137844,3.5794406723-.7474590773,1.4884492457-1.1097179734,3.4385918526-1.1097179734,5.9666681107,0,2.0672498642.2320804416,3.6759407869.7095792811,4.9180379777.5212473365,1.3440658675,1.4511696575,2.5003333088,2.7646916049,3.4407259256,1.3225917577.979472829,3.0944058874,1.5971535905,5.4162773394,1.8881877993,2.1079306312.2634246391,5.7705334617.3970042726,10.886973541.3970042726,4.6752204812,0,7.8459194793-.2550884164,9.6945602378-.7798036216.5687304614-.1615226521,1.1118520464-.3753300934,1.6277642004-.6402885975l-.0336116502,1.3220582395h8.5811076366v-17.3908278462c0-3.2559952293-.1317790093-5.58747001-.4028062836-7.1276705265-.0288099858-.1780617181-.0666897821-.365059867-.1056366148-.5391201981ZM120.4533391532,43.4621040295c0,1.5058552788-.6156800679,1.9548108916-1.2185556977,2.1953609355-.8685677215.3454530711-3.1013416247.7581961322-8.7966490122.7581961322-8.8323947354,0-10.5273822361-.4705631022-10.8368228249-.614746411-.4780323578-.2279456751-1.0387600453-.6907727625-1.0387600453-2.2140340745,0-1.2382291834.2902339315-2.0368393235.8632325389-2.3737561025.1147064251-.0654226762.6770346674-.322511786,2.4013656723-.4833675403,1.4004854232-.1249766516,3.9821802661-.1885987037,7.6671908634-.1885987037,6.0383596264,0,8.4968117521.4454210543,9.4955579282.819150593,1.0408941183.3860004585,1.4634405774.99447803,1.4634405774,2.1017951713Z" fill="#e85105"/><polygon points="135.9600472768 7.1449788758 135.9600472768 7.6194805944 135.9600472768 52.5313808708 135.9600472768 54.0687804165 137.4976468918 54.0687804165 142.9971530793 54.0687804165 144.5347526943 54.0687804165 144.5347526943 52.5313808708 144.5347526943 7.6194805944 144.5347526943 7.1449788758 135.9600472768 7.1449788758" fill="#e85105"/><path d="M191.780995412,28.7023881547c-.8936430795-2.3945633145-2.5560859666-4.3256993335-4.9345103538-5.722716888-1.5322644325-.8838396816-3.3697013077-1.470909833-5.627550569-1.8011576338-2.1351400623-.3067063077-5.1447165469-.4554912114-9.2042569602-.4554912114-4.8278067026,0-8.1713656157.2999039499-10.2222097935.9167177441-.6562274554.2003361053-1.2697734503.4537572771-1.8379703935.7589964096v-1.4334968653h-8.5741718993v53.1583564828h8.5741718993v-21.6210253079c.603409148.3104409355,1.2553684574.5655960416,1.9532103368.7639314534,2.04710955.586603323,5.1943337447.8721689697,9.6188006454.8721689697,5.9679352166,0,10.1011011492-.3608584107,12.6358463856-1.1033157543,2.7294794-.7977431729,4.92650758-2.4629870309,6.5281293858-4.9493154855,1.5445353524-2.396230559,2.2951955392-5.8781040802,2.2951955392-10.6443561139,0-3.3134151316-.3323818738-6.044295017-.9880758109-8.116813374-.0666897821-.2051377696-.1360471554-.4148104444-.2166084121-.6224824257ZM184.102067147,37.5663938469c0,2.3045321087-.20807212,4.0876168115-.6183476592,5.2997036004-.3638594509,1.0572998047-.9005788169,1.8171631814-1.6389680838,2.3160027512-.4236134956.2802304642-1.3140554656.6734334192-3.0864031135.9109157331-1.5610744184.2142742697-4.0349985735.3226451656-7.3561497198.3226451656-5.8703013756,0-8.1996420833-.6088110204-9.1204945939-1.1195213714l-.0117374016-.0065355986-.0117374016-.0063355293c-.8360231078-.4446874667-1.4223596717-1.1762743759-1.7931548599-2.2365752208-.4396190433-1.2562354246-.6620961562-3.2441911379-.6620961562-5.9087146901,0-2.2407766771.2070050835-3.979445985.6156800679-5.1677912115.1765945429-.5031744056.3894683272-.934190467.6476911633-1.3093204911.2784965299-.4095419516.5964734107-.7332541537.9774054458-.99754576.4054738749-.2728945882,1.2964493632-.6622962256,3.1376208661-.8989782621,1.6715126974-.214807788,4.3300341693-.3237122021,7.9019388962-.3237122021,5.4472213983,0,7.662389199.6056099109,8.5619009794,1.1137193603l.0138714747.0078027045.0138714747.0076026352c.5105769714.2743617634.913383255.631885685,1.2318936541,1.0929788381.2240776677.321911578.4081414662.6902392443.5495238041,1.0991809878.4305492329,1.2283590957.6476911633,3.1796354288.6476911633,5.8044785608Z" fill="#e85105"/><path d="M238.5998900062,29.3670185227c-.3948035098-1.7707470931-1.1972149675-3.3088135367-2.3826925333-4.565115651l-.0117374016-.0124709892-.0117374016-.0122042301c-1.4095552335-1.4282950623-3.3424918766-2.4322430413-5.7459916219-2.9841009879-2.2663855534-.518979884-5.4034729013-.7712006397-9.5915912143-.7712006397-4.9857281065,0-8.5400267309.3569237136-10.8656328107,1.0910448344-.8136153411.2594232522-1.5578733088.5883372573-2.2301063119.985008081V7.1449788758h-8.5747054176v46.9238015406h8.5747054176v-15.4711624697c0-3.2452581744.1563208491-4.676220828.2875663402-5.3051721625.1605889952-.7549283329.5073758619-1.4226931206,1.0585002208-2.0353054585.0298770224-.0334782706.0517512709-.0594872856.0746925559-.0822951911l.0128044382-.0130045075.0170725842-.0180729309c.7223837192-.7638647637,1.8593111237-1.3479338749,3.3798381546-1.7360684065,1.7568756185-.4430202222,4.343905644-.6681649264,7.6847969658-.6681649264,2.9578252137,0,5.1815293066.1657907982,6.6108247156.4927707996,1.1806759015.2744284532,2.009763272.6972416714,2.4589856439,1.2554351472.1035025417.1308453524.1942006453.2612238763.2603569091.3746631956l.0128044382.0220743179.0138714747.0216741792c.31210818.4961052887.5249819643,1.0768399109.6503587546,1.7753486881.1856643532,1.0203536655.2795635664,3.0099766233.2795635664,5.9161172559v15.4711624697h8.5800406001v-16.9085273423c0-3.3080132593-.147784557-5.7083785848-.451356445-7.3370764422-.0266759128-.1622562397-.0586870082-.3123749392-.0912316219-.4561581093Z" fill="#e85105"/><path d="M283.6987217416,29.5296749011c-.0314775771-.1944007147-.0688238551-.3765305095-.1067036513-.5463226946-.3771974073-1.683583548-1.2084188508-3.179902188-2.4717900821-4.4498757076-1.4858483442-1.5295301514-3.5244216021-2.5787604925-6.047962955-3.1054763912-2.3432121823-.4959719091-5.9796726182-.7375222998-11.1126517635-.7375222998-6.6481709935,0-11.1590678518.6136126847-13.7909134108,1.8759835692-2.7332140278,1.3135886371-4.2697466063,3.7832446462-4.4447405944,7.1423422786l-.0837623663,1.6172939046h8.6974146165l.3105076253-1.1296582182c.1547202944-.5622615525.4321497877-.8866406524.9272547297-1.0847759949.6546269007-.263758088,2.6558538806-.7035772007,8.7529005152-.7035772007,3.601248231,0,6.170672154.1583215426,7.6362468045.470629792,1.2201562525.2600234602,2.1057965582.7159148104,2.6313120408,1.3550029918.0709579281.0886307203.1408488197.1925334008.2016699009.3016378842.3227785451.5601941693.6898391056,1.598820835.7517272233,3.5191531093-.6583615284-.2929682126-1.3791446929-.5169125007-2.1591483838-.6704990688-2.0423078857-.3991383456-6.0148848232-.593005542-12.1482106992-.593005542-8.0278492047,0-10.516711871.6606956708-11.6909855535,1.1576012369-1.8603781602.8097473337-3.1968413926,2.0135645896-3.9853813756,3.5841756468-.7485261138,1.4910501472-1.1129190829,3.4411927541-1.1129190829,5.9619331362,0,2.0576465355.2342145146,3.6663374583.7154479819,4.9179712879.5127110444,1.3388640645,1.4410328107,2.4973322686,2.7593564223,3.4409259949,1.323125276.9798729677,3.0970734787,1.5974203496,5.4221460402,1.8880544198,2.1015284121.2634246391,5.7646647609.3970042726,10.8864400227.3970042726,4.6773545542,0,7.8469865158-.2552217959,9.6902920918-.7801370705.5687304614-.1615226521,1.1113185282-.3746631956,1.6261636456-.6384212836l-.0330781319,1.3205243745h8.5864428192v-17.3908278462c0-3.2585961308-.1328460459-5.5878034589-.4070744297-7.1201345812ZM275.2221836832,43.4621040295c0,1.5077225927-.6130124767,1.9558779281-1.2132205151,2.1953609355-.8685677215.3454530711-3.1013416247.7581961322-8.7966490122.7581961322-8.8323947354,0-10.5273822361-.4704964124-10.8368228249-.614746411-.4780323578-.2279456751-1.0387600453-.6907727625-1.0387600453-2.2140340745,0-1.8692479012.6455570903-2.2489795203.8578973564-2.3737561025.1499186301-.0846293334.7303864931-.3275802095,2.4061673366-.4833008506,1.3962172771-.1250433414,3.975778047-.1886653934,7.662389199-.1886653934,6.0372925899,0,8.4994793434.4457545033,9.5019601473.8196841112,1.0355589358.3840664549,1.4570383583.9925440263,1.4570383583,2.101261653Z" fill="#e85105"/><path d="M168.8626800437,70.6592570321c.1815797353.2072853002.3850365471.4178521619.612558143.631700585.2264277422.2138484232.4823895376.4047259159.7678853865.5731794053.284401995.1684534893.6016196048.3046382908.9516528294.4080074774.3500332246.1039161136.7317882102.1558741703,1.1474526644.1558741703.8553936926,0,1.522644527-.1947059812,2.0017525032-.5835710166.4791079762-.3883181085.7186619643-.9133679454.7186619643-1.5740556569,0-.7126457682-.2712757491-1.2469933626-.8160149548-1.6035897102-.543645352-.3565963476-1.3279385458-.6448268309-2.3517857278-.865238377-.5578654517-.1164954326-1.0632259197-.2783857989-1.516081404-.4856710991-.4539493381-.2072853002-.8455490082-.4665286572-1.1758928639-.7777300709s-.5863056512-.6705323959-.7678853865-1.0785398733c-.1815797353-.4085544043-.2723696029-.8718015-.2723696029-1.390288214,0-.4791079762.0907898676-.9325103874.2723696029-1.3602072337s.4528554843-.8034356358.8160149548-1.1277632955c.3631594705-.3237807328.8171088087-.5830240897,1.3607541606-.777183144.5447392058-.1947059812,1.1726113024-.2915120449,1.8858039975-.2915120449.6344352196,0,1.1824559868.0678189373,1.6418745941.2040037387.4605124611.1361848014.8521121311.3013567293,1.1758928639.4955157836s.5841179435.3954281584.7777300709.6027134586c.1947059812.2072853002.3434701016.3757387895.4473862152.505360468l-1.2437118011,1.1469057375c-.0776636217-.0907898676-.1947059812-.2105668617-.3500332246-.359877909-.1553272434-.1487641205-.3533147861-.2942466794-.5928687742-.4369946038s-.5184867139-.2625249184-.8357043237-.359877909c-.3183114636-.0973529906-.6836586418-.145482559-1.0982292422-.145482559-.4156644542,0-.7711669479.0552396183-1.0697890427.1651719279-.2975282409.1099323096-.5436453519.252680234-.7383513331.4276968463-.1947059812.1744696854-.3369069787.3724572281-.4276968463.5923218473-.0907898676.220958473-.1356378745.4408230922-.1356378745.6612346383,0,.3237807328.0678189373.5994318971.2034568118.8258596393.1367317284.2269746691.3336254172.4276968463.5928687742.6027134586s.5797425282.3243276597.9625913676.4468392883c.3817549856.1236054824.8192965163.2433824765,1.3115307384.359877909.48020183.1164954326.9494651217.2690880414,1.4099775828.4566839727.4594186073.1881428582.8707076462.4408230922,1.2338671167.758040702.3631594705.3177645367.650843027.7066295722.8652383771,1.1665951064.2133014962.4599655342.3204991713,1.0200186936.3204991713,1.6812533319,0,.5573185248-.1159485056,1.0692421158-.3500332246,1.535223846-.2329908651.4665286572-.5534900364.8718015-.9614975138,1.2152716016s-.8914908689.6092765816-1.4482624668.7968725129c-.5578654517.1875959313-1.1605789103.2816673604-1.8081403758.2816673604-.6092765816,0-1.162766618-.0711004987-1.661563963-.2138484231-.4987973451-.1422009975-.9527466832-.3237807328-1.3607541606-.5441922789-.4080074774-.2198646192-.764603825-.4632470957-1.0686951889-.7290535756-.3051852177-.265259553-.5545838902-.5277844715-.7492898714-.7870278284l1.3224692767-1.2048799903Z" fill="#004b87"/><path d="M188.1056418959,74.1382591284c-.7000664492,0-1.3410647917-.126340117-1.9240888815-.379020351s-1.0851029962-.5994318971-1.5062367196-1.0402549893c-.4211337234-.4402761653-.7514775791-.9489181948-.9910315671-1.5259260885-.2406478419-.5764609668-.359877909-1.1950353059-.359877909-1.8562699442,0-.6606877114.1192300671-1.2792620505.359877909-1.8562699442.2395539881-.5764609668.5698978438-1.0851029963.9910315671-1.5259260885.4211337233-.4402761653.9232126299-.7870278284,1.5062367196-1.0397080624s1.2240224323-.379020351,1.9240888815-.379020351c.6869402033,0,1.3224692767.126340117,1.9054933664.379020351s1.0883845577.5994318971,1.516081404,1.0397080624c.4276968463.4408230922.7613222635.9494651217,1.0008762516,1.5259260885.2395539881.5770078937.359877909,1.1955822328.359877909,1.8562699442,0,.6612346383-.120323921,1.2798089774-.359877909,1.8562699442-.2395539881.5770078937-.5731794053,1.0856499232-1.0008762516,1.5259260885-.4276968463.4408230922-.9330573143.7875747553-1.516081404,1.0402549893s-1.2185531631.379020351-1.9054933664.379020351ZM188.1056418959,72.6216307975c.4670755841,0,.8882093074-.0935245022,1.26340117-.2816673604.3762857164-.1875959313.6935033262-.4337130424.9527466832-.7383513331s.4572308996-.6546715154.5928687742-1.0500996738c.1356378745-.3948812315.2045506656-.7996071474.2045506656-1.2147246747,0-.4014443545-.0689127911-.8001540744-.2045506656-1.1955822328-.1356378745-.3948812315-.3369069787-.7481960176-.6027134586-1.0588505044-.2658064799-.3112014137-.5830240897-.5606000863-.9527466832-.7487429445-.3686287397-.1875959313-.7864809015-.2816673604-1.2535564856-.2816673604-.4659817302,0-.8871154536.0940714291-1.26340117.2816673604-.3762857164.1881428582-.6935033262.4342599693-.9527466832.7388982601s-.4561370458.6541245885-.5928687742,1.0495527469c-.1356378745.3954281584-.2034568118.8001540744-.2034568118,1.2147246747,0,.4151175273.0678189373.8165618818.2034568118,1.2054269172.1367317284.3883181085.3369069787.7383513331.6027134586,1.0495527469.2658064799.3106544868.5830240897.5606000863.9527466832.7481960176.3697225935.1881428582.7875747553.2816673604,1.2535564856.2816673604Z" fill="#004b87"/><path d="M201.3817457927,66.2335713866h-1.6331237635v-1.4575602243h1.6331237635v-.7388982601c0-.6087296547.0875083062-1.137061053.2625249184-1.5839003413.1750166123-.4473862152.4080074774-.8132803203.6989725954-1.0982292422.2920589718-.2849489219.625684389-.4955157836,1.0008762516-.631700585.3762857164-.1361848014.7711669479-.2040037387,1.1857375483-.2040037387.48020183,0,.9494651217.0743820602,1.4099775828.2231461807.4594186073.1493110474.8838338921.4052728429,1.2732458545.7678853865l-.8750830615,1.1277632955c-.4791079762-.4019912814-.9910315671-.6027134586-1.5357707729-.6027134586-.505360468,0-.910086384.1618903664-1.2141777478.4856710991-.3051852177.3243276597-.4572308996.8816461845-.4572308996,1.6719555744v.5830240897h2.5847765929v1.4575602243h-2.5847765929v7.9046877418h-1.7490722692v-7.9046877418Z" fill="#004b87"/><path d="M214.3272575959,66.2980148863h-1.6331237635v-1.4575602243h1.6331237635v-2.9544991864h1.7490722692v2.9544991864h2.6438446995v1.4575602243h-2.6438446995v4.4514381484c0,.7257720141.1126669442,1.2245693592.3401885402,1.4969389621.2264277422.271822676.5469269134.4080074774.9614975138.4080074774.3369069787,0,.6158397045-.0514111299.8367981776-.1553272434.2198646192-.1039161136.4397292384-.259243357.6606877114-.4665286572l.796325586,1.0686951888c-.3751918626.3631594705-.7613222635.625684389-1.156203495.7875747553-.3959750853.1618903664-.8652383771.2428355496-1.408883729.2428355496-.9593098062,0-1.6626578168-.259243357-2.1089501782-.7777300709-.4473862152-.517939787-.6705323959-1.3279385458-.6705323959-2.4294493495v-4.6264547607Z" fill="#004b87"/><path d="M226.0538571896,65.099744957h1.9251827353l2.0214418721,6.9005768668,2.1767691155-6.9005768668h1.4963920352l2.1778629693,6.9585511196,1.9820631343-6.9585511196h1.8081403758l-2.9938779241,9.0385141714h-1.7293829003l-2.1001993476-6.3170058502-2.0794161249,6.3170058502h-1.6331237635l-3.051852177-9.0385141714Z" fill="#004b87"/><path d="M252.3730741179,72.7971943367c-.3369069787.4534024112-.7810116324.7903093899-1.3312201073,1.010720936-.5513023287.2198646192-1.1179186111.3303438557-1.7009427008.3303438557-.3762857164,0-.7481960176-.0486764953-1.1179186111-.1460294859-.3697225935-.0968060637-.7066295722-.2586964301-1.010720936-.4856710991-.3051852177-.2264277422-.5513023287-.517939787-.7383513331-.8745361346-.1881428582-.3565963476-.2822142873-.7935909514-.2822142873-1.3120776653,0-.9718891252.3401885402-1.7496191961,1.0205656205-2.3326432858s1.661563963-.8745361346,2.9446545019-.8745361346c.2067383733,0,.4276968463.006563123.6606877114.019142442.2329908651.0131262459.4539493381.0262524918.6606877114.0388318108.2078322271.0131262459.3894119624.0262524918.5447392058.0388318109.1553272434.0131262459.2658064799.0262524918.3303438557.0388318109v-.3303438557c0-.6732670304-.2045506656-1.156203495-.612558143-1.4482624668-.4080074774-.2915120449-.9614975138-.4369946038-1.661563963-.4369946038-.6869402033,0-1.2316794091.0940714291-1.6331237635.2816673604-.4014443545.1881428582-.7383513331.379020351-1.010720936.5737263322l-.8160149548-1.1857375483c.1553272434-.1296216785.3434701016-.259243357.5633347208-.3888650354.220958473-.1296216785.4791079762-.2493986725.7777300709-.359877909.2975282409-.1099323096.6344352196-.2007221772,1.010720936-.271822676s.8094518319-.107197675,1.3027799078-.107197675c1.1660481794,0,2.0826976864.2822142873,2.7499485207.8455490082.6672508344.5638816478,1.0008762516,1.3640357221,1.0008762516,2.40100915v5.2576084188c0,.3177645367.006563123.8389858852.0196893689,1.0593974313h-1.6586286788l-.0127799687-1.3410647917ZM252.353384749,69.6091573583c-.0514111299-.012579319-.1520456819-.0289871264-.3008098024-.0486764953-.1498579743-.019142442-.3215930251-.0355502494-.5152051525-.0481295684-.1947059812-.0131262459-.4025382083-.0262524918-.6224028275-.0393787378-.220958473-.012579319-.4342599693-.019142442-.6409983425-.019142442-.4933280759,0-.8914908689.0585211797-1.1955822328.1750166123-.3051852177.1164954326-.5447392058.2625249185-.7197558181.4369946038-.1750166123.1750166123-.2942466794.3697225935-.3587840552.5835710166-.0656312296.2138484232-.0973529906.4178521619-.0973529906.6120112161,0,.492781149.1684534893.8652383771.505360468,1.1179186111s.8028887089.379020351,1.3990390446.379020351c.3369069787,0,.6574061499-.0585211797.9625913676-.1750166123.3040913639-.1164954326.5731794053-.2723696029.8061702704-.4665286572.2329908651-.1947059812.4211337233-.4211337233.5644285747-.6803770803.1422009975-.259243357.2133014962-.5250498369.2133014962-.7968725129v-1.0304103049Z" fill="#004b87"/><path d="M262.5485896474,66.5777044687v-.9817338096c0-.2783857989-.006563123-.5666162823-.0196893689-.8646914501h1.6714086475l.0579742528,1.4575602243c.1039161136-.1553272434.2406478419-.3270622942.4091013313-.5146582255.1673596355-.1881428582.3719103011-.359877909.6114642892-.5152051525.2395539881-.1558741703.5184867139-.2882304834.8367981776-.3987097199.3172176098-.1099323096.682564788-.1651719279,1.0982292422-.1651719279.1936121274,0,.3719103011.0131262459.5338006675.0388318109.1618903664.0262524918.3139360483.0650843027.4572308996.1164954326l-.3894119624,1.6331237635c-.2329908651-.0907898676-.530519106-.1361848014-.8936785766-.1361848014-.3762857164,0-.7230373796.0716474257-1.0402549894.2138484232-.3172176098.1427479244-.5928687742.3401885402-.8258596393.5928687742s-.4178521619.5474738404-.5534900364.884380819c-.1367317284.3369069787-.2045506656.6935033262-.2045506656,1.0692421158l-.0196893689,5.1305583833h-1.7490722692l.0196893689-7.5605546597Z" fill="#004b87"/><path d="M283.7511740308,72.5238979c-.1039161135.1170423595-.259243357.2658064799-.4659817302.4473862152-.2078322271.1815797353-.4769202685.3565963476-.8072641242.52450291-.3303438557.1684534893-.7186619642.3144829752-1.1660481794.4375415307s-.9560282447.1848612967-1.5259260885.1848612967c-.7000664492,0-1.3410647917-.1170423595-1.9240888815-.3500332246-.5830240897-.233537792-1.0818214348-.5638816478-1.4963920352-.9915784941-.4156644542-.4276968463-.7361636255-.9390735104-.9625913676-1.535223846s-.3401885402-1.2568380471-.3401885402-1.9826100612c0-.6612346383.1104792365-1.2798089774.3303438557-1.8568168711.2198646192-.5759140398.5316129599-1.0752583118.9330573143-1.4963920352s.878364623-.7547591405,1.4285730979-1.0008762516c.5513023287-.246117111,1.156203495-.3697225935,1.8179850603-.3697225935.7766362171,0,1.4438870515.1493110474,2.0017525032.4473862152.5567715979.2980751678,1.0140024975.6935033262,1.3705988451,1.1857375483.3555024937.4922342221.6180274122,1.0561158698.7864809015,1.6910980163s.252680234,1.2956698579.252680234,1.9826100612h-7.133020805c.0131262459.4014443545.0995406982.7711669479.2625249185,1.1080739266.1618903664.3369069787.3784734241.6284190235.650843027.8745361346s.5830240897.4408230922.9330573143.5830240897c.3500332246.1427479244.7197558181.2138484232,1.1080739266.2138484232.764603825,0,1.3924759216-.1296216785,1.8858039975-.3888650355.4922342221-.259243357.8477367158-.511923591,1.0686951889-.758040702l.9910315671,1.0495527469ZM282.1771183739,68.5395353356c-.0525049837-.7000664492-.2986220947-1.2956698579-.7383513331-1.7884510069-.4408230922-.4922342221-1.0632259197-.7388982601-1.8661146286-.7388982601-.4156644542,0-.7875747553.0716474257-1.1179186111.2138484232-.3303438557.1427479244-.6125581431.3308907826-.8455490082.5638816478s-.4145706004.5020789065-.5447392058.8067171973c-.1290747516.3046382908-.2001752503.619121266-.2133014962.9429019988h5.325974283Z" fill="#004b87"/><path d="M71.1672623347,17.7634040571c.6966057152,1.0007719581,1.3481647586,2.0531352633,1.9385001485,3.1315446856l.1000484093-.0535948947c-1.685890359-4.8801407344-4.9317394972-9.5333797186-9.1589092267-13.1242376602l-.8163153791-.6701866266-.8397097832-.6356254328c-.5846112272-.4322653653-1.1704668377-.8374828398-1.7391499599-1.2021284781-.5664432325-.3651465252-1.1789286434-.7493267514-1.8220258811-1.0889280465l-.0714275957-.0370656281c-.5973039359-.3115516306-1.2152646328-.6336218854-1.8389494925-.9081078879-2.3981753026-1.1305016564-5.0753413185-1.9855155364-7.9633058484-2.5430026182-4.7674809149-.9201291726-9.7410316876-.8339766317-14.3835765291.2474381118l-.0009955066.0005008868-.0012443832-.0050088687-.3551469652.0806427854-.0012443832-.0060106424c-.7971518778.1883334616-1.5957970154.4037148139-2.3819983209.6421369621-4.7500595501,1.4415524001-9.1613979931,3.7060619207-12.7576654404,6.5480939979l-1.0101902815.8044243066c-.4544487446.3606385434-.8621086808.6882185537-1.257324785,1.0478553235-1.5057036717,1.2797659424-2.9688494379,2.7739114633-4.6114352616,4.7073347657-1.5532391099,1.8422618928-2.8157903043,3.5913588285-3.8588323024,5.3474681803-1.2294506013,2.0461228472-2.2147532189,3.970530186-3.0133983565,5.8839180137-.8424474262,1.9850146495-1.5492570837,4.0957519024-2.1017632244,6.2756115428-.5204010541,2.050630829-.9036710796,4.2480215097-1.1388595044,6.5310638444-.1923816427,1.8678071229-.2366816846,3.7937171223-.1353888921,5.8874242217.4464846921,9.2133130113,3.763014796,17.6898214428,9.3385981607,23.8692627074,5.8107717895,6.4404033217,13.5097706463,10.4645284023,21.6783997227,11.3305617934,7.5063683375.7944065693,15.4114370521-1.1365122987,21.7254374076-5.3053936836l-.1045281888-.2228946553c-7.2338484167,3.6219129273-15.8151149621,4.425836347-23.5882790576,2.2013977756-.6709714213-.1918396696-1.3491602652-.4112281169-2.0159007836-.6511529257-7.82393493-2.8179895075-14.3537113323-8.7079181636-18.3862595294-16.5833623561l-.0938264933-.2058645019c-.3670930439-.806928741-.7466299198-1.6414062595-1.0594678563-2.4939157053-.6946147021-1.8287379474-1.2451298296-3.7175823187-1.6353684011-5.6104337849-.3763014796-1.8978603349-.6114899043-3.8518199988-.6998411115-5.8097867575-.09258211-1.8963576743-.0278741837-3.8643421704.1921327661-5.8493568199.8282614577-7.7146595086,3.9822751158-15.2820582785,8.8806651433-21.3062246146,1.3302456405-1.6313885222,2.6398345199-3.0223513488,4.0039273835-4.2515277177,1.5913172358-1.4470621556,3.0880613485-2.6311587066,4.5746015189-3.6199093799,1.5970413985-1.0809138566,3.3020952588-2.0501299421,5.0658840061-2.8800994789,1.6766819233-.7888968138,3.4778021666-1.4675985171,5.3548297851-2.0185740695l-.0012443832-.0175310403.1341445089-.0195345878.2722710441-.0771365773-.0009955065-.0160283797.1241894434-.0160283797v.0010017737c4.1875983438-1.1254927877,8.4341804512-1.4555772323,12.6197877818-.9792338228l.0002488767-.0005008869c.0219011443.0015026606.0423090288.0040070949.0612236534.007513303l.307611527.0390691755c.2100518841.026046117.4193571383.0520922341.6035258519.0831472197,9.3995729376,1.725555253,16.9604452592,6.4078456754,21.8685414756,13.5409755326Z" fill="url(#c)"/><path d="M55.6006949964,47.2053817959c-.0813394696.0535180522-.1644481856.1038326449-.2462547147.1565290082.0007933325.0067303664.0020500622.0135750729.0028433946.0203054393.0826479048-.0565508186.1612819633-.1194492355.2434113201-.1768344475Z" fill="none"/><path d="M55.5112900771,8.3919572553c-.0115238504-.0076825669-.0268655618-.0153417114-.0422072732-.0153417114-.2801560457-.0997796802-.5641299523-.1918767934-.848103859-.2801560457,1.6693187337.6140197924,3.3117953281,1.4045512444,4.9005407989,2.3908007732.0076591445,0,.0115004279-.0038412835.0153417114-.0038412835-1.3085894252-.8289208641-2.6555682625-1.5273552028-4.0255713782-2.0914617327Z" fill="url(#d)"/><path d="M68.9542001832,44.8446933033c.8058759111-4.3671092312,1.0169569584-8.7419081181.6715376271-12.9017811298,2.5865694677.3376527792,4.5475085525.1534855266,5.7102613819-.5142841692-.0460610373-.2071593229-.0921220746-.4143955425-.1381062153-.621631762-.0115344835-.0614403486-.0269137947-.1228038006-.0422162095-.1842441491-1.1359159312.6716145236-3.0508708753.859626604-5.5989920648.5295865839h-.0038448278c-.4259300259-4.1253464579-1.4122052583-8.0242325572-2.9472143172-11.4588172489,1.419894914.1803224248,2.475223254.0728979355,3.0853974291-.3147376054.0383713816-.0268368982.0728979355-.0499058651.1074244893-.0767427633h.0038448278c.0537506929-.0422162095.1035796615-.0882772468.1457958709-.1342613875l-.475835891-.6409327976c-.0460610373.0537506929-.1035796615.103656558-.1611751822.1497175953h-.0038448278c-.0345265538.0268368982-.061363452.0459841407-.0997348337.0690531076h-.0038448278c-.5718027934.3645665739-1.5695356127.475835891-2.8973853487.2993582941h-.0038448278c-1.3277728394-2.7861160316-3.0239570805-5.2498048022-5.0885527234-7.2606497521-.0114575869,0-.0191472425-.0038448278-.030681726-.0038448278,1.9878528796,1.9993104665,3.6034495296,4.4515416501,4.8583244335,7.2260463017-1.005422475-.1534855266-2.1835546156-.4527669241-3.511327455-.9133004004-.4873703745-.1688648379-.9785855768-.3568769183-1.4698007791-.5525786543.1420279397-2.3639539369.0115344835-4.3786437147-.4106276112-5.9213424292-.0115344835-.0038448278-.0268368982-.0076896556-.0383713816-.0153793113.3185055366,1.5004825051.3377296757,3.4691881421.0998117302,5.790848973-1.8189880417-.7598148738-3.6188288409-1.700029069-5.2382703187-2.7169860274,1.700029069-1.5618459571,3.2465726113-2.7169860274,4.5781902785-3.3616867563-.0115344835-.0114575869-.0229920704-.0153024147-.0345265538-.0229920704-1.419894914.5833372769-3.0585605309,1.6808818264-4.8467899501,3.1966667462-1.6002942353-1.0208017862-3.0009650102-2.1068118523-4.0371461077-3.1429160533,2.9165325912-.6293983142,5.7678569027-.7905734964,8.4502394796-.3914803686-.0076127591-.0038448278-.0114575869-.0153024147-.0229920704-.0229920704-2.7399780977-.4566886485-5.6526658612-.3645665739-8.6229491453.218770703-.5180521005-.5334314118-.9325245395-1.0553283401-1.2241162814-1.5465435424-.2686765681-.4528438207-.414472439-.8519369484-.4490758894-1.1935114519,3.4385064161.1842441491,6.8500221409.9133772969,10.1158188913,2.2296156529v-.0191472425c-3.2696415782-1.3546866341-6.6888469587-2.1183463358-10.1272764782-2.34088497v-.0038448278c-.0076896556-.5756476212.3261951923-.9824304046.9478269542-1.1973562797-.1074244893-.0192241391-.2148489786-.0345265538-.3223503644-.0499058651-.1534855266-.0191472425-.3069710532-.0383713816-.4604565797-.0575186242-.633243142.2417627733-.9632831621.6676927992-.9555935064,1.262487663,0,.042293106,0,.0921220746.0076896556.1420279397.0383713816.3645665739.195701736.7905734964.4796807188,1.2702542152.3108927775.5218969283.7522021147,1.0744755826,1.3009359412,1.646278376-3.6111391852.7904965998-7.2874866503,2.2909791049-10.8448751426,4.3747988869h-.0038448278v-.0038448278c-1.0131121306-1.0514835122-1.8305225252-2.0684404707-2.402248422-3.035491564-.5257417561-.8864635022-.8135655667-1.6693473429-.8826186744-2.3447297978,3.9948530017-1.366144221,8.1854077394-2.030069089,12.3491255789-1.9072652885-.0038448278-.0499058651-.0038448278-.0958900058-.0038448278-.1420279397-4.1714074952-.1687879413-8.3696518885.4529207172-12.3645048902,1.7883063157-.0153793113-.9977328193.6951448699-1.8819663214,1.6545832041-2.3386549699-.218770703.0614403486-.4113196802.1021955235-.6300134866.1597910442-1.0246466141.4643014076-1.8036087304,1.3999018093-1.7843845913,2.4475404937.0038448278.0844324189.0076896556.1727096657.0153024147.2647548437.0691300042.694606594.3684114017,1.4966376773.9095324691,2.3984804908.5832603803.9900431637,1.4237397418,2.0416035725,2.4598439428,3.1160791551.0652082798.0690531077.1304934562.134338284.1918569082.1995465639-.0652082798-.0652082798-.1304934562-.1304934562-.195701736-.1995465639-3.542009181,2.1567177174-6.9536018024,4.8851613317-10.0389992315,8.0741384223-1.3546097376-1.4006707749-2.4406198037-2.7668149959-3.2119691609-4.0523716259-.7022962496-1.1819769685-1.0822421348-2.2296156529-1.1781321406-3.1276136386,3.3347729615-2.7822712038,7.0917080177-4.9466016803,11.0597241212-6.4087128037-.0037679313-.092045178-.0114575869-.1764775969-.0153024147-.2647548437-3.9680161035,1.4275076731-7.7249511597,3.5573884923-11.0636458455,6.320435557-.0153793113-.9517486786.5381989983-2.4781453232,1.1982021419-3.0614826001l-.3746400228.2821334654c-.7138307331.5986396916-1.4682628479,2.3188156583-1.4528835367,3.3165484776,0,.1151141449.0076896556.2341500142.0229920704.353108987.0921220746.9056107448.4796807188,1.9647839126,1.1896666241,3.1620632958.7713493573,1.2970911134,1.8726618381,2.6786146457,3.2427277835,4.0985095597.0844324189.0882772468.1687879413.1765544935.2532203602.2648317402-.0844324189-.0844324189-.1726327691-.1727096657-.2570651881-.2609869124-3.0393363918,3.2465726113-5.7447879357,6.9421442155-7.9130401366,10.9676789432-1.4889480216-1.5426987146-2.682382577-3.0431812196-3.5190171107-4.455386478-.7751941851-1.3009359412-1.1972793832-2.4483094593-1.3009359412-3.4345846917,2.1797097878-4.0063874851,5.0194996157-7.4793435585,8.3005987809-10.3421254568-.0153024147-.1189589728-.0191472425-.2379948421-.0191472425-.353108987-3.2772543373,2.839789828-6.1208889931,6.3051331422-8.3005987809,10.3076757995-.0115344835-.5526555509.1534855266-2.5174394635.341497607-3.035491564-.195701736.3223503644-.3837138164.6447007289-.5641131378.974740749-.0037679313.0038448278-.0037679313.0076127591-.0037679313.0076127591v.0038448278c-.1765544935,1.0437938566-.2802110515,1.9072652885-.1996234604,2.8513243114-2.0837428854,4.0524485224-3.3079360633,8.2622273992-3.7415557449,12.4335579979,0-.0728979355.0038448278-.1457958709.0038448278-.2186938064l-.0614403486.6676927992c-.0114575869.1151910415-.0114575869.2303051864-.0114575869.3492641592,0,.1151141449.0114575869.2302282899.0229920704.3491872626.0921220746.9056876413.4796807188,1.9494814979,1.1819769685,3.1429160533.7675045295,1.2932462856,1.865049079,2.6671570588,3.2273484722,4.0793623172.1688648379.1687879413.3377296757.3453424348.5104393414.5180521005,2.7399780977,2.724675683,6.4240152184,5.5836127535,10.6261044396,8.2699170549-1.1972793832,3.2734095095-1.9494814979,6.1055096818-2.248839792,8.3926439589-3.2426508869-2.0722852985-6.0901303705-4.2749871566-8.2046318785-6.381799009-.7060641809-3.0738629456-.7828838407-6.5506638468-.1726327691-10.2807620048-.1765544935-.1727096657-.3454193314-.3492641592-.5142841692-.5180521005-.5756476212,3.7569350562-.4681462354,7.2797969946.2955134663,10.3958761497-1.0514835122-1.0898548939-1.895730805-2.145183234-2.4906025653-3.1429160533-.2915917419-.4950600301-.5180521005-.9555935064-.6715376271-1.389213188l.2110810473.6408559011c.1496406988.4374645094.372179333.9056876413.6715376271,1.4083604305.579492449.974740749,1.4083604305,2.0108449499,2.4330070446,3.0738629456.445154165,1.6117518222,1.0630179957,3.1122343273,1.8573594233,4.4707657893.030681726.0383713816.0614403486.0728979355.0921220746.1112693171.1074244893.1304934562.2186938064.2647548437.3300400201.3952482999-.0038448278-.0076896556-.0076896556-.0115344835-.0115344835-.0191472425-.8174103946-1.3776787045-1.4428869843-2.9049981078-1.8804283903-4.5666557951,2.060750815,2.0569059872,4.8353323632,4.2020892212,8.0013173834,6.2321583102-.1727096657,1.5733804406-.1113462137,2.8589370705.1841672526,3.8144536804.0153793113.0115344835.0269137947.0230689669.0422162095.0307586226.1228038006.0805106946.249452429.1611751822.3722562295.2379179455.0038448278.0038448278.0115344835.0076127591.0153793113.0076127591-.2379948421-.9133004004-.2341500142-2.1643304765-.0076896556-3.7108740189,3.2158139888,2.0108449499,6.7924266202,3.8835836846,10.4073337366,5.3917558453-.9094555726.7943414276-1.7498580375,1.3853683602-2.517362567,1.7537797619.2186938064.061363452.4374645094.1151141449.6562352123.1687879413.7943414276-.3530320904,1.6501232038-.9017659169,2.5518891208-1.6385887204.9708959211.3914034721,1.9417918423.7636597016,2.9126877634,1.0975445495,1.6348207891.5641131378,3.1621401924,1.0131121306,4.5667326916,1.3393073229.3376527792-.0230689669.6753824549-.0575955207,1.0168800619-.0998117302-1.5733804406-.3453424348-3.3079360633-.8404024649-5.180674798-1.4927928494-.9938879915-.341497607-1.9839311552-.7175986643-2.9817408711-1.1205366199,1.7767718322-1.5234745754,3.7377878136-3.7339429858,5.7870041452-6.5660431581h.0038448278c1.2932462856.5218969283,2.5788029155,1.0092673028,3.864436442,1.4544214678,3.4959481437,1.2165035223,6.6120272988,2.0146897777,9.2675729776,2.4176277333-1.926412531,1.8152201104-3.9487919644,3.2926336486-6.0210003663,4.4094023372.5218969283-.1381831119,1.0399490288-.2916686384,1.5580011293-.4605334763.0038448278-.0038448278.0076896556-.0076896556.0115344835-.0076896556,1.761392521-1.0361810975,3.4844905568-2.3217377275,5.126924105-3.8490571307.9479038508.1228038006,1.8305225252.1918569082,2.6440880919.2110810473h.0153024147c.2571420846-.1611751822.4989048579-.3261951923.7522021147-.4989048579-.8750059153-.0076896556-1.8382121808-.0767427633-2.8743163818-.2149258751,2.7821943072-2.7016067161,5.3187810133-6.0939751984,7.4485849359-10.1271995817,2.2680639311.2916686384,4.1944764621.3031262253,5.729485521.0536737964.1611751822-.2455307046.3185055366-.4873703745.4719910632-.7291331478.0153793113-.0229920704.0269137947-.0421393129.0422162095-.0652082798-1.5541563015.2762893272-3.5190171107.2685996715-5.8369100103-.0345265538h-.0037679313c2.060750815-4.0792854206,3.5267067663-8.411868098,4.401635785-12.7712876736-.1112693171-.0153793113-.2226155308-.0307586226-.3377296757-.0461379338.1112693171.0153793113.2264603586.0307586226.3377296757.042293106,2.8128760332.3644896773,5.0617158252.2609100159,6.6235617823-.2802110515.0460610373-.2340731177.0921220746-.4681462354.1304934562-.7060641809.0038448278-.0383713816.0076896556-.0805875911.0153793113-.1189589728,0-.0076896556.0038448278-.0192241391.0038448278-.0268368982-1.5465435424.5602683099-3.7915385065.6715376271-6.6159490232.3069710532ZM68.2825856595,44.7448815731c-2.6440111953-.3990931277-5.7447110392-1.1934345554-9.2215888369-2.3984035942-1.2817118021-.4489989928-2.5634236042-.9325245395-3.8452123029-1.45057664,1.5734573371-4.1368809413,2.8820060374-8.1970191194,3.864436442-11.9770231425h.0038448278c.9785855768.3990931277,1.9686287405.7675045295,2.9472143172,1.1129238608,2.6709249901.9248348839,5.0540261696,1.5350090589,7.076405603,1.8420570086.280134155,4.1483385283.0153793113,8.5154477595-.8251000502,12.8710225072ZM27.716038019,57.7311720184c1.2894014578-3.2964784764,3.0009650102-7.0265766344,5.1039320347-11.0713355012,4.6587778697,2.9088429356,9.8432974954,5.625828963,15.0891805732,7.8170732342-2.1183463358,4.0332243833-4.236615775,7.5599311496-6.2398479658,10.4841533965-4.8467899501-2.030069089-9.6437509316-4.5321292413-13.9494198142-7.2260463017h-.0038448278v-.0038448278ZM48.3082437546,53.7017155663c-5.2458830778-2.1912442713-10.4227130479-4.900540643-15.0814909176-7.8132284064h-.0038448278c2.1374935783-4.0486036946,4.4745337205-8.0281542815,6.8807038669-11.7735548542h.0038448278c4.2826768123,2.6747698179,9.0604136547,5.1729851423,13.8803667066,7.1915966444-1.6616576873,4.1253464579-3.5766126314,8.3273587825-5.6795796559,12.3951866162ZM40.5640684559,33.4011784692h-.0038448278c2.4100149742-3.7147957433,4.8813934004-7.180062161,7.2798738912-10.2347009675,3.2580301982,2.0376818481,6.8768590391,3.9296447218,10.5416720207,5.4646537808-1.066785927,3.7377109171-2.4483094593,7.7748570248-4.0754405928,11.8886689992-4.7738920146-1.9955425352-9.5017229919-4.4630761336-13.7422604913-7.1186218124ZM62.5838587611,18.6803324011c1.4160500862.4912152023,2.6709249901.8135655667,3.7416326414.974740749,1.45057664,3.4269719326,2.3601091091,7.3067107894,2.7208308552,11.4282124194-1.9801632239-.2993582941-4.2980561236-.8941531578-6.9037728338-1.7997639026-.9555166099-.3338848479-1.9149549441-.6907617662-2.8781612096-1.0860869626h-.0037679313c.9362924708-3.7377109171,1.542621818-7.1723725053,1.761392521-10.1042075113.5257417561.2110810473,1.0437938566.4067827834,1.5618459571.5871052081ZM55.0776783044,15.0500459733c1.7191763115,1.0745524792,3.6418209112,2.0761301263,5.5797679257,2.8896956931-.3377296757,2.8820060374-1.0476386844,6.2782193475-2.0722852985,9.9814037107-3.572690907-1.4927928494-7.1109321568-3.3424626172-10.2846068326-5.3303154967h-.0038448278c2.3831011795-2.9932753545,4.6894595957-5.5683103388,6.7771242054-7.5407839071h.0038448278ZM50.4572718164,11.5080367923v-.0038448278c1.1090021364,1.1013893774,2.5980270546,2.2526077233,4.2903664679,3.3386177893-2.1912442712,1.9149549441-4.5858799342,4.4208599241-7.0495687048,7.3719190692-3.1276136386-2.0031552943-5.8752813919-4.1291912857-7.9129632401-6.163028306,3.511327455-2.1298808192,7.1263114681-3.6879588451,10.6721654769-4.5436637247ZM39.1096469881,16.4660960595h.0038448278c2.0876646098,2.083819782,4.9043854708,4.2635295697,8.1087418727,6.3127459013-2.475223254,3.004809838-5.0041203045,6.4278600463-7.4640411438,10.1157419948-4.1828650821-2.6747698179-7.8477549602-5.5145596459-10.5685089189-8.2277008454,3.0507939787-3.2158139888,6.4278600462-5.9903186403,9.9199633622-8.2007870507ZM28.6101911768,25.2885917687h.0038448278c2.7476677534,2.7399780977,6.4546969444,5.6105265483,10.6760103047,8.3121332643-2.4406967002,3.7185636745-4.8084185684,7.6788901224-6.9420673189,11.7313386448-4.589724762-2.9357567303-8.6191812141-6.0479910576-11.6047669129-9.0335767565,2.1644073731-4.0255347277,4.8544796057-7.7326408153,7.8669790993-11.0098951526ZM12.3966291559,44.2229846448c-.7176755609-1.201124211-1.109079033-2.2641422067-1.2012011076-3.1735977793v-.0192241391c.4375414059-4.1483385283,1.6693473429-8.3581174051,3.7569350562-12.4105659275.0153793113.1151141449.0346034504.2302282899.0537506929.3491872626.1880120804,1.0975445495.6830721105,2.1260359914,1.2433404205,3.0777077735.8404793615,1.4122052583,2.0377587447,2.9126877634,3.5267067663,4.455386478-2.0952773689,4.0562933502-3.4575767621,8.0588360076-4.1215016301,11.8426079619-1.3738338767-1.4236628452-2.4866808409-2.8128760332-3.2580301982-4.1215016301ZM16.1727114546,48.870228031l-.0037679313-.0038448278c.6945296974-3.760779884,2.0683635741-7.7402535744,4.1598730117-11.7965469246,2.9970432858,2.9817408711,7.02265491,6.0978200262,11.612379672,9.0335767565-2.1068118523,4.0447588668-3.7915385065,7.7901594395-5.0425685827,11.1096299863-4.2404606028-2.7054515439-7.9628691052-5.5874575813-10.7259161698-8.3428149903ZM35.7058209189,72.1564277236c-3.7032612598-1.5503883702-7.3719190692-3.4614215899-10.66070789-5.5221724049.3761010574-2.2373053085,1.1935114519-5.0310340992,2.4253173889-8.2776067105h.0038448278c4.2673743976,2.6670801623,9.0143526174,5.1461482441,13.8113135989,7.1531483662-1.999387363,2.8513243114-3.8912733402,5.0923975512-5.5797679257,6.6466307492ZM55.8528724895,69.2514296158c-2.6786146457-.4067827834-5.8253755268-1.2126586945-9.355927121-2.4368518724-1.3009359412-.4528438207-2.6018718824-.944059023-3.9065757549-1.4735687103,2.0530611594-2.9050750043,4.1982443934-6.4164024593,6.3165138326-10.4573164983,1.4084373271.5718027934,2.8206425854,1.1090021364,4.2213133603,1.5925276831,3.8222202325,1.3240049081,7.2298911295,2.1989339269,10.1234316504,2.6402432641-2.1336487505,4.0333012799-4.6549330418,7.42951459-7.3987559674,10.1349661339ZM63.6545664124,58.3412692969c-2.9049981078-.4374645094-6.3050562457-1.3085487003-10.1272764782-2.6401663675-1.4006707749-.4835255467-2.8090312054-1.0169569584-4.2173916359-1.584914924h-.0038448278c2.1029670245-4.0716726615,3.9833185182-8.2852194696,5.6027599961-12.4297900666h.0038448278c1.2970911134.5218969283,2.5941822268,1.0131121306,3.8797388567,1.4621111234,3.5190171107,1.2203483501,6.6543204049,2.0223794334,9.3214005671,2.4253173889-.9095324691,4.3555747478-2.3946356629,8.6881574252-4.4592313058,12.7674428458Z" fill="url(#e)"/><path d="M65.9915995963,66.4346872625c-1.9456334959,2.2257661191-6.0824849822,5.2727705354-9.4249871555,6.4816037028,1.2126510285-2.6747746798,2.3792769228-5.9251563175,2.3792769228-11.9616161655,0-1.5196492135.0153417114-3.5074899825-.0652549739-4.3747768363,1.024638941-.6830926273,2.0223888978-1.393027394,2.9817728648-2.0914617327,1.5465381977-1.1013709204,4.2596788672-3.687866348,4.5513119183-4.040936512.4259842824,4.4707386555.6485444986,9.478718279-.4221195765,15.9871875437Z" fill="url(#f)"/><path d="M64.4987925222,40.3509437864c-.7675071736.7943727354-1.5618799091,1.5772450429-2.3830947838,2.3255457993-.8289208641.7560067457-1.6923664345,1.4774653628-2.5865188501,2.1605345676-.6139963699.4720328391-1.2433578737.9171766939-1.8765372385,1.3623439712-1.9609986297-9.2254512176-9.9775932574-17.030986057-14.7015989743-20.6996694102-.0076825669.003817861-.0115238504.0076591445-.0153651338.0115004279-2.2065831242-2.2411078305-6.5967250944-5.859924766-9.8701310103-3.2772471994,1.9149266507-2.3217045158,4.0102296668-4.2634967282,6.2244719355-5.6066342821h.0038412835c2.7016168192-1.6424765944,5.9174737505.7060934832,7.126306918,1.5887220484,3.7607804664,2.7476887982,12.1995180931,10.8026728381,16.7048048772,19.2414104647l.0076591445-.0038412835s.0498898401.0997796802.1419869533.2916564736c.4336434269.8327387251.8749694207,1.7729396973,1.2241748789,2.6056784224Z" fill="url(#g)"/><path d="M36.2084893443,61.1926001499c.1304631029.0844379688.2647909118.1726937986.3990952982.2571317673-.1573286647-.0920971132-.306998185-.1918767934-.4528264218-.2878151901-.0920971132-.0614136905-.1841942265-.1266452419-.2724734787-.18803551.1074622471.0729141184.2149010717.1496460978.3262046023.2187189327Z" fill="url(#h)"/><path d="M39.9884528056,63.1535987796c-.0115004279.0038412835-.0191829948.0038412835-.0307068452.0038412835-.0230242783-.0115238504-.0460485566-.0192064173-.0652315515-.0307068452.0115238504,0,.0191829948,0,.0268655618-.0038412835.0230242783.0115238504.0460485566.0230242783.0690728349.0307068452Z" fill="url(#i)"/><path d="M30.8551221236,51.1305923462c-.0307068452.5065575453-.0422072732,1.0092738071-.0153417114,1.511990069.0153417114.2724734787.0383659897.544923535.0844145463.8135557303.0307068452.176535082.0614136905.3530467416.0959383967.5295818236.0115238504.0652315515.0268655618.1304865254.0422306956.1957180769v.0038412835c.1112801081.544923535.2609496283,1.0860057865.4643268497,1.6040871822.3684118754.9286771218.8941524156,1.7882814087,1.5196726359,2.5673124328.2762913397.3415228912.5717890968.6677274935.8826285652.9785669619.1458282368.1419869533.2954743346.2878151901.4528264218.4336434269.061390268.0537311235.118962675.1074388246.180352943.1650112316.1074622471.0920971132.2187423552.1880355099.3338637467.2839739067.0805966853.0690728349.1650346541.1343278089.2532904839.2072185048.118962675.0959383967.245607917.1880589324.3722297364.2839973291.0153651338.0153417114.0345481287.0268655618.0498898401.0383659897.1036209636.0767554019.2034006438.1535108037.3108394684.2264249221.0882792522.061390268.1803763655.1266218195.2724734787.18803551.1458282368.0959383967.295497757.1957180769.4528264218.2878151901.3952774372.249425778.8173970137.487351128,1.266382152.7252999005.6216789369.3300224633,1.3047715642.6447032152,2.0454131761.9478601167-.0076825669.0038412835-.0153417114.0038412835-.0268655618.0038412835.0191829948.0115004279.0422072732.0191829948.0652315515.0307068452h-.0115004279c-2.5327643041.3415228912-4.8276266805.3799123034-6.8768577176.0920971132-2.8512863394-.3991187207-5.2305632622-1.4007099609-7.1147830676-3.0047971431-2.3370696496-1.9916820525-3.5881100903-5.0386864688-3.7185731932-9.0527574191-.2724734787-8.34279923,4.1982651768-20.9299121933,10.8295149774-28.9580306714,3.2734059159-2.5826775666,7.6635478861,1.0361393689,9.8701310103,3.2772471994-.6101550865.4950571174-1.1819441832,1.028456802-1.7268911407,1.5925867543-.5717890968.5909720916-1.1090300649,1.2126510285-1.6155876102,1.8573542437-.5295818236.6677274935-1.024638941,1.3585026877-1.4966483576,2.0645961709-.483533267.7252999005-.9402009722,1.4697827958-1.3700031157,2.2296074026-.4374847104.7675071736-.85192172,1.5503794811-1.2433578737,2.3447522166-.3914361537.790531452-.7598246067,1.5964046153-1.1090534873,2.4099603456-.3415463137.7982140189-.66388621,1.6079284657-.9670431115,2.4253254794-.2916564736.790531452-.5679712358,1.5925867543-.8212382972,2.3946186342-.2417666335.7675071737-.4681915556,1.5388556308-.6715687769,2.3178632323-.1918767934.7252999005-.364570592,1.4544410844-.5142401122,2.1874001294-.1381456699.6677274935-.2571083449,1.3392962704-.3568880251,2.0108650474-.0844145463.5948367976-.1496460978,1.1896501726-.18803551,1.7844635477Z" fill="url(#j)"/><path d="M75.8770957405,36.4865657788c-.3607293085.9056528435-.7444828953,1.7959639756-1.1627846109,2.659409546-2.0837791658,4.2711792951-4.9465659331,8.0127767667-8.3274340961,11.2324515591,0,.0038412835-.0076825669.0192064173-.0268655618.0383894122-.2916564736.3530467416-3.0047971431,2.9395421692-4.5513353408,4.0409130896-.9593839671.6984343387-1.9571339238,1.4083925278-2.9817494423,2.0914617327-.0844379688.0614136905-.1726937986.118962675-.2609496283.176535082-4.4515556606,2.540446871-9.7703747526,4.4054836816-12.6101606641,5.1921738501-2.118303872.5909955141-4.10232678.9977733792-5.9673635906,1.2510404406-.0115004279-.0038412835-.0191829948-.0076825669-.0307068452-.0115004279-.0230242783-.0115238504-.0460485566-.0192064173-.0652315515-.0307068452.0115238504,0,.0191829948,0,.0268655618-.0038412835.0038412835.0038412835.0115238504,0,.0153417114,0-.7444828953-.3031569015-1.4313933837-.6216789369-2.0607548874-.9478601167-.4489851383-.2379487725-.8711047148-.4758741225-1.266382152-.7252999005-.1573286647-.0920971132-.306998185-.1918767934-.4528264218-.2878151901-.0920971132-.0614136905-.1841942265-.1266452419-.2724734787-.18803551-.1074388246-.0729141184-.2072185048-.1496695203-.3108394684-.2264249221-.0153417114-.0115004279-.0345247062-.0230242783-.0498898401-.0383659897-.1266218195-.0959383967-.2532670614-.1880589324-.3722297364-.2839973291-.0882558298-.0728906959-.1726937986-.1381456699-.2532904839-.2072185048-.1151213916-.0959383967-.2264014996-.1918767934-.3338637467-.2839739067-.061390268-.057572407-.118962675-.1112801081-.180352943-.1650112316-.1573520872-.1458282368-.306998185-.2916564736-.4528264218-.4336434269-.3108394684-.3108394684-.6063372255-.6370440707-.8826285652-.9785669619-.6255202203-.779031024-1.1512607605-1.6386353109-1.5196726359-2.5673124328-.2033772213-.5180813957-.3530467416-1.0591636472-.4643268497-1.6040871822v-.0038412835c0-.0038412835.003817861-.0038412835.003817861-.0038412835.6408853542.3300224633,2.2257661191.6984343387,4.9619310669.4911924115,3.2772706219-.2609496283,6.888381568-1.208809745,10.2001768961-2.4291433404,0,0,2.8436037725-1.1167360542,4.2366311665-1.7652805529.1304865254-.0537077011.2494492004-.1112801081.364570592-.1765116596.6140197924-.2916564736,1.2356987293-.5986546585,1.8305121043-.9210179774.0997796802-.0537311235.1995593603-.1074388246.306998185-.1650112316.3722531589-.2072185048.7406416119-.4183017155,1.0975296369-.6255202203,1.0092738071-.5833129472,1.934133068-1.2894064303,2.8781519012-1.9571339238.2187423552-.1535108037.4374847104-.3070216074.6562270656-.4605089887.6332027872-.4451672773,1.2625408686-.8903111321,1.876560661-1.3623205487.8941289931-.6830926273,1.7575745635-1.4045512444,2.5864954276-2.1605345676.8212382972-.7483241788,1.6155876102-1.5311730638,2.3830947838-2.3255457993.0076825669-.0076825669.0115238504-.0115238504.0192064173-.0191829949.0729141184-.0844379688.1458282368-.1803763655.2187423552-.2647909118,1.5848807649-1.8266708209,2.9817494423-3.8375358682,4.1253510584-6.0249359976,1.6539770223-3.1928326531,4.0370718061-7.7403267104,4.6050430419-11.1749025745,1.9648164907,1.9801582021,3.7722808943,7.8861315247,2.4636914691,13.650117894Z" fill="url(#k)"/><path d="M39.9884528056,63.1535987796c-.0153417114.0038412835-.0268655618.0038412835-.0422072732.0038412835-1.4774419403-.602495942-2.7092993861-1.2702234355-3.7377561881-1.9648399132,1.0399572299.6907751943,2.2871563871,1.3546614043,3.7799634612,1.9609986297Z" fill="url(#l)"/></svg>