<?xml version="1.0" encoding="UTF-8"?><svg id="a" xmlns="http://www.w3.org/2000/svg" viewBox="0 0 224 64"><path d="M100.7474,23.2555c-.3062-1.3439-.9655-2.5284-1.9611-3.5267-1.1832-1.2199-2.7983-2.0509-4.8005-2.4698-1.8654-.3939-4.7526-.5856-8.8255-.5856-5.2786,0-8.8577.4872-10.9429,1.4895-2.1682,1.0394-3.3882,2.9998-3.5271,5.6686l-.0665,1.2837h6.8992l.2465-.8966c.1224-.445.3439-.7025.7406-.8611.5192-.2094,2.1072-.5585,6.9428-.5585,2.8584,0,4.8979.1257,6.0611.3736.9689.2064,1.6714.5682,2.0886,1.0755.0669.0834.122.1635.1643.2394.2562.4447.548,1.2694.5971,2.7942-.5234-.2333-1.0955-.4113-1.7142-.5331-1.6206-.3168-4.7759-.4707-9.6466-.4707-6.372,0-8.3474.5244-9.2795.9188-1.4699.6397-2.5298,1.594-3.1612,2.8411-.5933,1.1814-.8808,2.7293-.8808,4.7359,0,1.6408.1842,2.9177.5632,3.9036.4137,1.0668,1.1518,1.9846,2.1944,2.731,1.0498.7774,2.4561,1.2677,4.2991,1.4987,1.6731.2091,4.5802.3151,8.6413.3151,3.7109,0,6.2275-.2025,7.6949-.619.4514-.1282.8825-.2979,1.292-.5082l-.0267,1.0494h6.8111v-13.8036c0-2.5844-.1046-4.4349-.3197-5.6575-.0229-.1413-.0529-.2898-.0838-.4279ZM94.104,34.748c0,1.1952-.4887,1.5516-.9672,1.7425-.6894.2742-2.4616.6018-6.9822.6018-7.0105,0-8.3559-.3735-8.6015-.4879-.3794-.1809-.8245-.5483-.8245-1.7573,0-.9828.2304-1.6167.6852-1.8841.091-.0519.5374-.256,1.906-.3837,1.1116-.0992,3.1608-.1497,6.0857-.1497,4.7928,0,6.7442.3535,7.5369.6502.8262.3064,1.1616.7893,1.1616,1.6683Z" fill="#fff"/><polygon points="106.4122 5.922 106.4122 6.2986 106.4122 41.9465 106.4122 43.1668 107.6326 43.1668 111.9977 43.1668 113.2182 43.1668 113.2182 41.9465 113.2182 6.2986 113.2182 5.922 106.4122 5.922" fill="#fff"/><path d="M150.719,23.0327c-.7093-1.9006-2.0288-3.4334-3.9167-4.5423-1.2162-.7015-2.6746-1.1675-4.4668-1.4296-1.6947-.2434-4.0835-.3615-7.3057-.3615-3.832,0-6.4859.238-8.1137.7276-.5209.159-1.0079.3602-1.4589.6024v-1.1378h-6.8056v42.1934h6.8056v-17.1613c.4789.2464.9964.4489,1.5503.6064,1.6249.4656,4.1229.6923,7.6347.6923,4.7369,0,8.0176-.2864,10.0295-.8757,2.1665-.6332,3.9103-1.9549,5.1816-3.9284,1.2259-1.902,1.8218-4.6656,1.8218-8.4488,0-2.63-.2638-4.7975-.7843-6.4426-.0529-.1628-.108-.3292-.1719-.4941ZM144.624,30.0684c0,1.8292-.1652,3.2445-.4908,4.2065-.2888.8392-.7148,1.4423-1.3009,1.8383-.3362.2224-1.043.5345-2.4498.723-1.2391.1701-3.2027.2561-5.8388.2561-4.6594,0-6.5083-.4832-7.2392-.8886l-.0093-.0052-.0093-.005c-.6636-.353-1.129-.9336-1.4233-1.7752-.3489-.9971-.5255-2.575-.5255-4.6899,0-1.7786.1643-3.1586.4887-4.1018.1402-.3994.3091-.7415.5141-1.0392.2211-.3251.4734-.582.7758-.7918.3218-.2166,1.029-.5257,2.4904-.7135,1.3267-.1705,3.4369-.2569,6.272-.2569,4.3236,0,6.0819.4807,6.7958.884l.011.0062.011.006c.4053.2178.725.5015.9778.8675.1779.2555.324.5479.4362.8725.3417.975.5141,2.5238.5141,4.6072Z" fill="#fff"/><path d="M187.8806,23.5603c-.3134-1.4055-.9503-2.6263-1.8912-3.6235l-.0093-.0099-.0093-.0097c-1.1188-1.1337-2.653-1.9305-4.5608-2.3686-1.7989-.4119-4.2889-.6121-7.6131-.6121-3.9573,0-6.7785.2833-8.6244.866-.6458.2059-1.2365.467-1.7701.7818V5.922h-6.806v37.2449h6.806v-12.2799c0-2.5759.1241-3.7117.2283-4.2109.1275-.5992.4027-1.1292.8402-1.6155.0237-.0266.0411-.0472.0593-.0653l.0102-.0103.0136-.0143c.5734-.6063,1.4758-1.0699,2.6827-1.378,1.3945-.3516,3.4479-.5303,6.0997-.5303,2.3477,0,4.1127.1316,5.2472.3911.9371.2178,1.5952.5534,1.9518.9965.0822.1039.1541.2073.2067.2974l.0102.0175.011.0172c.2477.3938.4167.8547.5162,1.4091.1474.8099.2219,2.3891.2219,4.6958v12.2799h6.8102v-13.4208c0-2.6257-.1173-4.5309-.3583-5.8237-.0212-.1288-.0466-.2479-.0724-.3621Z" fill="#fff"/><path d="M223.6769,23.6894c-.025-.1543-.0546-.2989-.0847-.4336-.2994-1.3363-.9592-2.524-1.9619-3.532-1.1794-1.214-2.7974-2.0468-4.8005-2.4649-1.8599-.3937-4.7462-.5854-8.8205-.5854-5.2769,0-8.8573.487-10.9463,1.489-2.1694,1.0426-3.389,3.0029-3.5279,5.6691l-.0665,1.2837h6.9034l.2465-.8966c.1228-.4463.343-.7038.736-.861.5196-.2094,2.108-.5585,6.9474-.5585,2.8584,0,4.8979.1257,6.0611.3736.9685.2064,1.6714.5682,2.0886,1.0755.0563.0703.1118.1528.1601.2394.2562.4446.5475,1.269.5967,2.7933-.5226-.2325-1.0947-.4103-1.7138-.5322-1.621-.3168-4.7742-.4707-9.6424-.4707-6.372,0-8.3474.5244-9.2795.9188-1.4766.6427-2.5374,1.5982-3.1633,2.8449-.5941,1.1835-.8834,2.7314-.8834,4.7322,0,1.6332.1859,2.9101.5679,3.9035.407,1.0627,1.1438,1.9822,2.1902,2.7312,1.0502.7778,2.4582,1.2679,4.3037,1.4986,1.668.2091,4.5756.3151,8.6409.3151,3.7126,0,6.2284-.2026,7.6915-.6192.4514-.1282.8821-.2974,1.2907-.5067l-.0263,1.0481h6.8153v-13.8036c0-2.5864-.1054-4.4352-.3231-5.6515ZM216.9488,34.748c0,1.1967-.4866,1.5524-.963,1.7425-.6894.2742-2.4616.6018-6.9822.6018-7.0105,0-8.3559-.3734-8.6015-.4879-.3794-.1809-.8245-.5483-.8245-1.7573,0-1.4837.5124-1.7851.6809-1.8841.119-.0672.5797-.26,1.9098-.3836,1.1082-.0993,3.1557-.1497,6.0819-.1497,4.792,0,6.7463.3538,7.542.6506.822.3048,1.1565.7878,1.1565,1.6678Z" fill="#fff"/><path d="M132.528,56.3352c.1441.1645.3056.3317.4862.5014.1797.1697.3829.3212.6095.455.2257.1337.4775.2418.7554.3238.2778.0825.5808.1237.9108.1237.679,0,1.2086-.1545,1.5889-.4632.3803-.3082.5704-.725.5704-1.2494,0-.5656-.2153-.9898-.6477-1.2728-.4315-.283-1.054-.5118-1.8667-.6868-.4428-.0925-.8439-.221-1.2034-.3855-.3603-.1645-.6711-.3703-.9333-.6173s-.4654-.5322-.6095-.8561c-.1441-.3243-.2162-.692-.2162-1.1035,0-.3803.0721-.7402.2162-1.0796s.3594-.6377.6477-.8951c.2883-.257.6486-.4628,1.0801-.6169.4324-.1545.9307-.2314,1.4968-.2314.5036,0,.9386.0538,1.3032.1619.3655.1081.6763.2392.9333.3933s.4636.3139.6173.4784c.1545.1645.2726.2982.3551.4011l-.9872.9103c-.0616-.0721-.1545-.1671-.2778-.2856-.1233-.1181-.2804-.2336-.4706-.3469s-.4115-.2084-.6633-.2856c-.2527-.0773-.5426-.1155-.8717-.1155-.3299,0-.6121.0438-.8491.1311-.2362.0873-.4315.2006-.5861.3395-.1545.1385-.2674.2956-.3395.4701-.0721.1754-.1077.3499-.1077.5248,0,.257.0538.4758.1615.6555.1085.1802.2648.3395.4706.4784s.4602.2574.764.3547c.303.0981.6503.1932,1.041.2856.3812.0925.7536.2136,1.1191.3625.3647.1493.6911.3499.9794.6017.2883.2522.5166.5609.6868.926.1693.3651.2544.8096.2544,1.3345,0,.4424-.092.8487-.2778,1.2186-.1849.3703-.4393.692-.7632.9646s-.7076.4836-1.1495.6325c-.4428.1489-.9212.2236-1.4352.2236-.4836,0-.9229-.0564-1.3188-.1697-.3959-.1129-.7562-.257-1.0801-.4319-.3238-.1745-.6069-.3677-.8483-.5787-.2422-.2105-.4402-.4189-.5947-.6247l1.0497-.9564Z" fill="#fff"/><path d="M147.8017,59.0966c-.5557,0-1.0644-.1003-1.5272-.3008s-.8613-.4758-1.1955-.8257c-.3343-.3495-.5965-.7532-.7866-1.2112-.191-.4576-.2856-.9485-.2856-1.4734,0-.5244.0946-1.0154.2856-1.4734.1901-.4576.4523-.8613.7866-1.2112.3343-.3495.7328-.6247,1.1955-.8252s.9715-.3008,1.5272-.3008c.5452,0,1.0497.1003,1.5124.3008s.8639.4758,1.2034.8252c.3395.3499.6043.7536.7944,1.2112.1901.458.2856.949.2856,1.4734,0,.5248-.0955,1.0158-.2856,1.4734-.1901.458-.455.8617-.7944,1.2112-.3395.3499-.7406.6251-1.2034.8257s-.9672.3008-1.5124.3008ZM147.8017,57.8928c.3707,0,.705-.0742,1.0028-.2236.2987-.1489.5505-.3443.7562-.5861s.3629-.5196.4706-.8335c.1077-.3134.1624-.6347.1624-.9642,0-.3186-.0547-.6351-.1624-.949-.1077-.3134-.2674-.5939-.4784-.8404-.211-.247-.4628-.445-.7562-.5943-.2926-.1489-.6243-.2236-.995-.2236-.3699,0-.7041.0747-1.0028.2236-.2987.1493-.5505.3447-.7562.5865s-.362.5192-.4706.8331c-.1077.3139-.1615.6351-.1615.9642,0,.3295.0538.6481.1615.9568.1085.3082.2674.5861.4784.8331.211.2466.4628.445.7562.5939.2935.1493.6251.2236.995.2236Z" fill="#fff"/><path d="M158.3394,52.8224h-1.2963v-1.1569h1.2963v-.5865c0-.4832.0695-.9025.2084-1.2572.1389-.3551.3238-.6455.5548-.8717.2318-.2262.4966-.3933.7944-.5014.2987-.1081.6121-.1619.9412-.1619.3812,0,.7536.059,1.1191.1771.3647.1185.7015.3217,1.0106.6095l-.6946.8951c-.3803-.3191-.7866-.4784-1.219-.4784-.4011,0-.7224.1285-.9637.3855-.2422.2574-.3629.6998-.3629,1.3271v.4628h2.0516v1.1569h-2.0516v6.2742h-1.3883v-6.2742Z" fill="#fff"/><path d="M168.6146,52.8735h-1.2963v-1.1569h1.2963v-2.3451h1.3883v2.3451h2.0985v1.1569h-2.0985v3.5332c0,.5761.0894.972.27,1.1882.1797.2158.4341.3238.7632.3238.2674,0,.4888-.0408.6642-.1233.1745-.0825.349-.2058.5244-.3703l.6321.8483c-.2978.2883-.6043.4966-.9177.6251-.3143.1285-.6868.1927-1.1183.1927-.7614,0-1.3197-.2058-1.6739-.6173-.3551-.4111-.5322-1.054-.5322-1.9283v-3.6722Z" fill="#fff"/><path d="M177.9224,51.9224h1.5281l1.6045,5.4772,1.7278-5.4772h1.1877l1.7286,5.5232,1.5732-5.5232h1.4352l-2.3763,7.1741h-1.3727l-1.667-5.014-1.6505,5.014h-1.2963l-2.4223-7.1741Z" fill="#fff"/><path d="M198.8128,58.0321c-.2674.3599-.6199.6273-1.0566.8022-.4376.1745-.8873.2622-1.3501.2622-.2987,0-.5939-.0386-.8873-.1159-.2935-.0768-.5609-.2053-.8022-.3855-.2422-.1797-.4376-.4111-.5861-.6941-.1493-.283-.224-.6299-.224-1.0414,0-.7714.27-1.3887.8101-1.8515s1.3188-.6941,2.3373-.6941c.1641,0,.3395.0052.5244.0152.1849.0104.3603.0208.5244.0308.165.0104.3091.0208.4324.0308.1233.0104.211.0208.2622.0308v-.2622c0-.5344-.1624-.9177-.4862-1.1495-.3238-.2314-.7632-.3469-1.3188-.3469-.5452,0-.9776.0747-1.2963.2236-.3186.1493-.5861.3008-.8022.4554l-.6477-.9412c.1233-.1029.2726-.2058.4471-.3087.1754-.1029.3803-.198.6173-.2856.2362-.0873.5036-.1593.8022-.2158s.6425-.0851,1.0341-.0851c.9255,0,1.6531.224,2.1827.6711.5296.4476.7944,1.0827.7944,1.9058v4.1731c0,.2522.0052.6659.0156.8409h-1.3165l-.0101-1.0644ZM198.7971,55.5017c-.0408-.01-.1207-.023-.2388-.0386-.1189-.0152-.2553-.0282-.4089-.0382-.1545-.0104-.3195-.0208-.494-.0313-.1754-.01-.3447-.0152-.5088-.0152-.3916,0-.7076.0465-.949.1389-.2422.0925-.4324.2084-.5713.3469-.1389.1389-.2336.2935-.2848.4632-.0521.1697-.0773.3317-.0773.4858,0,.3911.1337.6868.4011.8873s.6373.3008,1.1105.3008c.2674,0,.5218-.0465.764-.1389.2414-.0925.455-.2162.6399-.3703.1849-.1545.3343-.3343.448-.54.1129-.2058.1693-.4167.1693-.6325v-.8179Z" fill="#fff"/><path d="M206.8894,53.0955v-.7792c0-.221-.0052-.4497-.0156-.6863h1.3266l.046,1.1569c.0825-.1233.191-.2596.3247-.4085.1328-.1493.2952-.2856.4853-.4089.1901-.1237.4115-.2288.6642-.3165.2518-.0873.5418-.1311.8717-.1311.1537,0,.2952.0104.4237.0308.1285.0208.2492.0517.3629.0925l-.3091,1.2963c-.1849-.0721-.4211-.1081-.7093-.1081-.2987,0-.5739.0569-.8257.1697-.2518.1133-.4706.27-.6555.4706s-.3317.4345-.4393.702c-.1085.2674-.1624.5505-.1624.8487l-.0156,4.0723h-1.3883l.0156-6.001Z" fill="#fff"/><path d="M223.7185,57.8152c-.0825.0929-.2058.211-.3699.3551-.165.1441-.3785.283-.6408.4163-.2622.1337-.5704.2496-.9255.3473s-.7588.1467-1.2112.1467c-.5557,0-1.0644-.0929-1.5272-.2778-.4628-.1854-.8587-.4476-1.1877-.787-.3299-.3395-.5843-.7454-.764-1.2186s-.27-.9976-.27-1.5737c0-.5248.0877-1.0158.2622-1.4738.1745-.4571.422-.8535.7406-1.1877s.6972-.5991,1.1339-.7944c.4376-.1954.9177-.2935,1.443-.2935.6164,0,1.1461.1185,1.5889.3551.4419.2366.8048.5505,1.0879.9412.2822.3907.4905.8383.6243,1.3423s.2006,1.0284.2006,1.5737h-5.6617c.0104.3186.079.6121.2084.8795.1285.2674.3004.4988.5166.6941s.4628.3499.7406.4628c.2778.1133.5713.1697.8795.1697.6069,0,1.1053-.1029,1.4968-.3087.3907-.2058.6729-.4063.8483-.6017l.7866.8331ZM222.4691,54.6527c-.0417-.5557-.237-1.0284-.5861-1.4195-.3499-.3907-.8439-.5865-1.4812-.5865-.3299,0-.6251.0569-.8873.1697-.2622.1133-.4862.2626-.6711.4476s-.3291.3985-.4324.6403c-.1025.2418-.1589.4914-.1693.7484h4.2274Z" fill="#fff"/><path d="M54.9842,14.3501c.5529.7943,1.0701,1.6296,1.5386,2.4856l.0794-.0425c-1.3381-3.8735-3.9145-7.5669-7.2697-10.4171l-.6479-.5319-.6665-.5045c-.464-.3431-.929-.6647-1.3804-.9542-.4496-.2898-.9358-.5948-1.4462-.8643l-.0567-.0294c-.4741-.2473-.9646-.5029-1.4596-.7208-1.9035-.8973-4.0285-1.576-6.3207-2.0185-3.7841-.7303-7.7318-.662-11.4167.1964l-.0008.0004-.001-.004-.2819.064-.001-.0048c-.6327.1495-1.2666.3204-1.8907.5097-3.7703,1.1442-7.2717,2.9416-10.1262,5.1974l-.8018.6385c-.3607.2862-.6843.5463-.998.8317-1.1951,1.0158-2.3565,2.2017-3.6602,3.7364-1.2329,1.4623-2.235,2.8506-3.0629,4.2444-.9759,1.6241-1.7579,3.1515-2.3918,4.6702-.6687,1.5756-1.2297,3.2509-1.6682,4.9811-.4131,1.6276-.7173,3.3718-.9039,5.1839-.1527,1.4825-.1879,3.0112-.1075,4.673.3544,7.3129,2.9868,14.041,7.4123,18.9458,4.6122,5.1119,10.7231,8.306,17.2068,8.9934,5.958.6305,12.2325-.9021,17.2441-4.2111l-.083-.1769c-5.7417,2.8748-12.5529,3.5129-18.7227,1.7473-.5326-.1523-1.0709-.3264-1.6001-.5168-6.2101-2.2367-11.393-6.9117-14.5937-13.1627l-.0745-.1634c-.2914-.6405-.5926-1.3028-.8409-1.9795-.5513-1.4515-.9883-2.9508-1.298-4.4532-.2987-1.5064-.4854-3.0573-.5555-4.6114-.0735-1.5052-.0221-3.0672.1525-4.6428.6574-6.1234,3.1609-12.1298,7.0489-16.9114,1.0559-1.2949,2.0953-2.3989,3.178-3.3746,1.2631-1.1486,2.4511-2.0884,3.631-2.8732,1.2676-.858,2.621-1.6273,4.0209-2.286,1.3308-.6262,2.7604-1.1649,4.2503-1.6022l-.001-.0139.1065-.0155.2161-.0612-.0008-.0127.0986-.0127v.0008c3.3238-.8933,6.6945-1.1553,10.0167-.7772l.0002-.0004c.0174.0012.0336.0032.0486.006l.2442.031c.1667.0207.3329.0413.479.066,7.4607,1.3696,13.462,5.0861,17.3577,10.7479Z" fill="#fff"/><path d="M50.6953,51.2271c-.064.5087-.1401,1.0295-.2254,1.5626-1.3159,1.4651-3.8958,3.4389-6.2564,4.5294.1553-.3807.3076-.7889.4538-1.2245.5879-1.7667,1.0478-4.0633,1.0478-7.4626v-.5056c.003-.9808.003-2.0773-.0335-2.7475.6457-.4356,1.3433-.926,2.1687-1.526.8925-.6366,2.2114-1.8306,3.0125-2.6013.2406,2.8541.3381,6.0432-.1675,9.9756Z" fill="#fff"/><path d="M28.5937,50.1153c1.4438-.2071,4.7304-.7067,6.2625-1.1331,2.4764-.6884,6.558-2.1687,9.9116-4.0816.0487-.0335.1097-.0731.1675-.1127.7128-.4752,1.459-1.0021,2.3667-1.6601,1.1331-.8072,3.0246-2.6013,3.4572-3.0521l.4356-.4417c.1188-.1157.2376-.2315.3533-.3503,2.4581-2.4703,4.4258-5.2086,5.8635-8.151.3015-.6244.597-1.2945.8986-2.0499.1553-.6945.2498-1.3859.2985-2.0682.2163-3.1678-.6305-6.098-1.6113-7.6423-.0731.2924-.1614.594-.2589.8986-.7493,2.3576-2.1078,4.9802-3.1587,7.0088l-.0853.1645c-.8925,1.7118-2.0134,3.3475-3.3262,4.8583,0,.003-.003.0061-.0061.0091-.0244.0305-.0518.064-.0792.0975-.0305.0366-.0609.0761-.0914.1127l-.0274.0274c-.6762.7006-1.3006,1.3098-1.9159,1.8702-.6671.6062-1.3676,1.191-2.0835,1.7393-.4873.3746-.9899.731-1.5017,1.0905l-.5026.3533-.0183.0122c-.1645.1157-.329.2345-.4935.3533-.5787.4173-1.1818.8498-1.8245,1.2214-.2833.1645-.5787.335-.8772.4995l-.2498.134c-.4173.2254-.8925.466-1.456.7341-.1036.0579-.2102.1097-.3259.1553-1.0874.5087-3.2744,1.3676-3.3688,1.4042-2.0591.7584-5.1507,1.7118-8.218,1.9555-1.6296.1249-3.6689-.23-4.3329-.3853l-.0716-.3579c-.0122-.0518-.0213-.1036-.0305-.1523-.0274-.1371-.0518-.2802-.0761-.4234-.0366-.201-.0579-.4143-.0731-.6945-.0213-.3807-.0183-.7767.0122-1.2488v-.003c.0305-.4599.0792-.9351.1523-1.4499.0822-.5452.1767-1.0874.2894-1.6235.1157-.5665.2528-1.1605.4112-1.7575.1523-.5848.329-1.191.5391-1.8581.198-.6244.4173-1.2702.6579-1.922.2467-.6579.5056-1.3128.7767-1.9464.2924-.6823.5939-1.3311.8894-1.9342.3168-.6396.6549-1.2763.9991-1.8824.3472-.6153.7188-1.2184,1.1026-1.7941.4112-.6153.8072-1.1605,1.2093-1.6692.4234-.5361.865-1.0417,1.3098-1.5047.3503-.3625,0,0,1.6132-1.665,1.1559,1.0164,1.6619,1.3861,2.7969,2.4264.6919.6342,1.3634,1.2908,2.012,1.9693.7468.7813,1.4633,1.5918,2.1421,2.4329.7347.9103,1.4255,1.8566,2.0579,2.8409.6573,1.0231,1.2517,2.0878,1.7593,3.1932.516,1.1239.942,2.2907,1.2463,3.4899.003.0152.0091.0305.0122.0457.3259-.2345.6397-.463.9504-.7006.6975-.533,1.3768-1.1026,2.0256-1.6936.5391-.4904,1.0874-1.0235,1.6722-1.6205-.0061-.0152-.0152-.0335-.0213-.0487-.2467-.5696-.5422-1.1818-.8224-1.724-.0213-.0457-.0396-.0822-.0548-.1127l-.064-.1127c-3.6582-6.8534-10.4263-13.1525-13.1312-15.1263-.8986-.6549-3.2805-2.3941-5.1781-1.2427l-.1066.064c-1.1788.731-2.3484,1.6997-3.4907,2.8967l-1.2702,1.4347.003-.003-.003.003c-5.0472,6.1376-8.6871,15.8664-8.4648,22.659.1005,3.0581,1.0417,5.37,2.7992,6.8687,1.4255,1.2123,3.25,1.9829,5.4279,2.2875,1.1422.1614,2.4124.1888,3.7892.0883" fill="#fff"/></svg>