<?xml version="1.0" encoding="UTF-8"?><svg id="a" xmlns="http://www.w3.org/2000/svg" width="342" height="96" viewBox="0 0 342 96"><path d="M153.9878,34.7796c-.4629-2.0318-1.4597-3.8226-2.9649-5.3318-1.7888-1.8443-4.2306-3.1006-7.2576-3.7339-2.8202-.5955-7.1852-.8853-13.3429-.8853-7.9804,0-13.3915.7366-16.544,2.2519-3.2779,1.5714-5.1224,4.5353-5.3324,8.5701l-.1005,1.9408h10.4305l.3726-1.3555c.185-.6727.5199-1.062,1.1197-1.3018.7849-.3165,3.1857-.8443,10.4964-.8443,4.3215,0,7.4048.19,9.1635.5648,1.4648.312,2.527.8591,3.1576,1.626.1012.1261.1844.2472.2484.362.3873.6724.8284,1.9191.9027,4.2244-.7913-.3528-1.6563-.6219-2.5916-.806-2.4501-.479-7.2204-.7116-14.5843-.7116-9.6334,0-12.6201.7928-14.0292,1.3891-2.2222.9671-3.8247,2.4099-4.7793,4.2953-.897,1.7861-1.3317,4.1263-1.3317,7.16,0,2.4807.2785,4.4111.8515,5.9016.6255,1.6129,1.7414,3.0004,3.3176,4.1289,1.5871,1.1754,3.7133,1.9166,6.4995,2.2658,2.5295.3161,6.9246.4764,13.0644.4764,5.6103,0,9.4151-.3061,11.6335-.9358.6825-.1938,1.3342-.4504,1.9533-.7683l-.0403,1.5865h10.2973v-20.869c0-3.9072-.1581-6.705-.4834-8.5532-.0346-.2137-.08-.4381-.1268-.6469ZM143.944,52.1545c0,1.807-.7388,2.3458-1.4623,2.6344-1.0423.4145-3.7216.9098-10.556.9098-10.5989,0-12.6329-.5647-13.0042-.7377-.5736-.2735-1.2465-.8289-1.2465-2.6568,0-1.4859.3483-2.4442,1.0359-2.8485.1376-.0785.8124-.387,2.8816-.58,1.6806-.15,4.7786-.2263,9.2006-.2263,7.246,0,10.1962.5345,11.3947.983,1.2491.4632,1.7561,1.1934,1.7561,2.5222Z" fill="#fff"/><polygon points="162.5521 8.574 162.5521 9.1434 162.5521 63.0377 162.5521 64.8825 164.3972 64.8825 170.9966 64.8825 172.8417 64.8825 172.8417 63.0377 172.8417 9.1434 172.8417 8.574 162.5521 8.574" fill="#fff"/><path d="M229.5372,34.4429c-1.0724-2.8735-3.0673-5.1908-5.9214-6.8673-1.8387-1.0606-4.0436-1.7651-6.7531-2.1614-2.5622-.368-6.1737-.5466-11.0451-.5466-5.7934,0-9.8056.3599-12.2667,1.1001-.7875.2404-1.5237.5445-2.2056.9108v-1.7202h-10.289v63.79h10.289v-25.9452c.7241.3725,1.5064.6787,2.3439.9167,2.4565.7039,6.2332,1.0466,11.5426,1.0466,7.1615,0,12.1213-.433,15.163-1.324,3.2754-.9573,5.9118-2.9556,7.8338-5.9392,1.8534-2.8755,2.7542-7.0537,2.7542-12.7732,0-3.9761-.3989-7.2532-1.1857-9.7402-.08-.2462-.1633-.4978-.2599-.747ZM220.3225,45.0797c0,2.7654-.2497,4.9051-.742,6.3596-.4366,1.2688-1.0807,2.1806-1.9668,2.7792-.5083.3363-1.5769.8081-3.7037,1.0931-1.8733.2571-4.842.3872-8.8274.3872-7.0444,0-9.8396-.7306-10.9446-1.3434l-.0141-.0078-.0141-.0076c-1.0032-.5336-1.7068-1.4115-2.1518-2.6839-.5275-1.5075-.7945-3.893-.7945-7.0905,0-2.6889.2484-4.7753.7388-6.2013.2119-.6038.4674-1.121.7772-1.5712.3342-.4915.7158-.8799,1.1729-1.1971.4866-.3275,1.5557-.7948,3.7651-1.0788,2.0058-.2578,5.196-.3885,9.4823-.3885,6.5367,0,9.1949.7267,10.2743,1.3365l.0166.0094.0166.0091c.6127.3292,1.0961.7583,1.4783,1.3116.2689.3863.4898.8283.6594,1.319.5167,1.474.7772,3.8156.7772,6.9654Z" fill="#fff"/><path d="M285.7199,35.2404c-.4738-2.1249-1.4367-3.9706-2.8592-5.4781l-.0141-.015-.0141-.0146c-1.6915-1.714-4.011-2.9187-6.8952-3.5809-2.7197-.6228-6.4842-.9254-11.5099-.9254-5.9829,0-10.248.4283-13.0388,1.3093-.9763.3113-1.8694.706-2.6761,1.182V8.574h-10.2896v56.3086h10.2896v-18.5654c0-3.8943.1876-5.6115.3451-6.3662.1927-.9059.6089-1.7072,1.2702-2.4424.0359-.0402.0621-.0714.0896-.0988l.0154-.0156.0205-.0217c.8669-.9166,2.2312-1.6175,4.0558-2.0833,2.1083-.5316,5.2127-.8018,9.2218-.8018,3.5494,0,6.2178.1989,7.933.5913,1.4168.3293,2.4117.8367,2.9508,1.5065.1242.157.233.3135.3124.4496l.0154.0265.0166.026c.3745.5953.63,1.2922.7804,2.1304.2228,1.2244.3355,3.612.3355,7.0993v18.5654h10.296v-20.2902c0-3.9696-.1773-6.8501-.5416-8.8045-.032-.1947-.0704-.3748-.1095-.5474Z" fill="#fff"/><path d="M339.8385,35.4356c-.0378-.2333-.0826-.4518-.128-.6556-.4526-2.0203-1.4501-3.8159-2.9661-5.3399-1.783-1.8354-4.2293-3.0945-7.2576-3.7266-2.8119-.5952-7.1756-.885-13.3352-.885-7.9778,0-13.3909.7363-16.5491,2.2512-3.2799,1.5763-5.1237,4.5399-5.3337,8.5708l-.1005,1.9408h10.4369l.3726-1.3556c.1857-.6747.5186-1.064,1.1127-1.3017.7856-.3165,3.187-.8443,10.5035-.8443,4.3215,0,7.4048.19,9.1635.5648,1.4642.312,2.527.8591,3.1576,1.626.0851.1064.169.231.242.362.3873.6722.8278,1.9186.9021,4.223-.79-.3516-1.655-.6203-2.591-.8046-2.4508-.479-7.2179-.7116-14.5779-.7116-9.6334,0-12.6201.7928-14.0292,1.3891-2.2325.9717-3.8362,2.4163-4.7825,4.301-.8982,1.7893-1.3355,4.1294-1.3355,7.1543,0,2.4692.2811,4.3996.8585,5.9016.6153,1.6066,1.7292,2.9968,3.3112,4.1291,1.5878,1.1758,3.7165,1.9169,6.5066,2.2657,2.5218.3161,6.9176.4764,13.0637.4764,5.6128,0,9.4164-.3063,11.6284-.9362.6825-.1938,1.3336-.4496,1.9514-.7661l-.0397,1.5846h10.3037v-20.869c0-3.9103-.1594-6.7054-.4885-8.5442ZM329.6666,52.1545c0,1.8093-.7356,2.3471-1.4559,2.6344-1.0423.4145-3.7216.9098-10.556.9098-10.5989,0-12.6329-.5646-13.0042-.7377-.5736-.2735-1.2465-.8289-1.2465-2.6568,0-2.2431.7747-2.6988,1.0295-2.8485.1799-.1016.8765-.3931,2.8874-.58,1.6755-.1501,4.7709-.2264,9.1949-.2264,7.2448,0,10.1994.5349,11.4024.9836,1.2427.4609,1.7484,1.1911,1.7484,2.5215Z" fill="#fff"/><path d="M202.0352,84.7911c.2179.2487.462.5014.7351.758.2717.2566.5789.4857.9215.6878.3413.2021.7219.3656,1.142.4896.42.1247.8781.187,1.3769.187,1.0265,0,1.8272-.2336,2.4021-.7003.5749-.466.8624-1.096.8624-1.8889,0-.8552-.3255-1.4964-.9792-1.9243-.6524-.4279-1.5935-.7738-2.8221-1.0383-.6694-.1398-1.2759-.3341-1.8193-.5828-.5447-.2487-1.0147-.5598-1.4111-.9333s-.7036-.8046-.9215-1.2942c-.2179-.4903-.3268-1.0462-.3268-1.6683,0-.5749.1089-1.119.3268-1.6322s.5434-.9641.9792-1.3533c.4358-.3885.9805-.6996,1.6329-.9326.6537-.2336,1.4071-.3498,2.263-.3498.7613,0,1.4189.0814,1.9702.2448.5526.1634,1.0225.3616,1.4111.5946s.7009.4745.9333.7233c.2336.2487.4122.4509.5369.6064l-1.4925,1.3763c-.0932-.1089-.2336-.2527-.42-.4319-.1864-.1785-.424-.3531-.7114-.5244s-.6222-.315-1.0028-.4319c-.382-.1168-.8204-.1746-1.3179-.1746-.4988,0-.9254.0663-1.2837.1982-.357.1319-.6524.3032-.886.5132-.2336.2094-.4043.4469-.5132.7108-.1089.2652-.1628.529-.1628.7935,0,.3885.0814.7193.2441.991.1641.2724.4004.5132.7114.7233s.6957.3892,1.1551.5362c.4581.1483.9832.2921,1.5738.4319.5762.1398,1.1394.3229,1.692.548.5513.2258,1.0448.529,1.4806.9096.4358.3813.781.848,1.0383,1.3999.256.552.3846,1.224.3846,2.0175,0,.6688-.1391,1.2831-.42,1.8423-.2796.5598-.6642,1.0462-1.1538,1.4583s-1.0698.7311-1.7379.9562c-.6694.2251-1.3927.338-2.1698.338-.7311,0-1.3953-.0853-1.9939-.2566-.5986-.1706-1.1433-.3885-1.6329-.653-.4896-.2638-.9175-.5559-1.2824-.8749-.3662-.3183-.6655-.6333-.8991-.9444l1.587-1.4459Z" fill="#fff"/><path d="M225.1268,88.9659c-.8401,0-1.6093-.1516-2.3089-.4548s-1.3021-.7193-1.8075-1.2483c-.5054-.5283-.9018-1.1387-1.1892-1.8311-.2888-.6918-.4319-1.434-.4319-2.2275,0-.7928.1431-1.5351.4319-2.2275.2875-.6918.6839-1.3021,1.1892-1.8311.5054-.5283,1.1079-.9444,1.8075-1.2476s1.4688-.4548,2.3089-.4548c.8243,0,1.587.1516,2.2866.4548s1.3061.7193,1.8193,1.2476c.5132.529.9136,1.1394,1.2011,1.8311.2875.6924.4319,1.4347.4319,2.2275,0,.7935-.1444,1.5358-.4319,2.2275-.2875.6924-.6878,1.3028-1.2011,1.8311-.5132.529-1.1197.9451-1.8193,1.2483s-1.4623.4548-2.2866.4548ZM225.1268,87.146c.5605,0,1.0659-.1122,1.5161-.338.4515-.2251.8322-.5205,1.1433-.886s.5487-.7856.7114-1.2601c.1628-.4739.2455-.9595.2455-1.4577,0-.4817-.0827-.9602-.2455-1.4347-.1628-.4739-.4043-.8978-.7233-1.2706-.319-.3734-.6996-.6727-1.1433-.8985-.4424-.2251-.9438-.338-1.5043-.338-.5592,0-1.0645.1129-1.5161.338-.4515.2258-.8322.5211-1.1433.8867s-.5474.7849-.7114,1.2595c-.1628.4745-.2441.9602-.2441,1.4577,0,.4981.0814.9799.2441,1.4465.1641.466.4043.886.7233,1.2595.319.3728.6996.6727,1.1433.8978.4437.2258.9451.338,1.5043.338Z" fill="#fff"/><path d="M241.0581,79.4803h-1.9597v-1.7491h1.9597v-.8867c0-.7305.105-1.3645.315-1.9007.21-.5369.4896-.9759.8388-1.3179.3505-.3419.7508-.5946,1.2011-.758.4515-.1634.9254-.2448,1.4229-.2448.5762,0,1.1394.0893,1.692.2678.5513.1792,1.0606.4863,1.5279.9215l-1.0501,1.3533c-.5749-.4824-1.1892-.7233-1.8429-.7233-.6064,0-1.0921.1943-1.457.5828-.3662.3892-.5487,1.058-.5487,2.0063v.6996h3.1017v1.7491h-3.1017v9.4856h-2.0989v-9.4856Z" fill="#fff"/><path d="M256.5927,79.5576h-1.9597v-1.7491h1.9597v-3.5454h2.0989v3.5454h3.1726v1.7491h-3.1726v5.3417c0,.8709.1352,1.4695.4082,1.7963.2717.3262.6563.4896,1.1538.4896.4043,0,.739-.0617,1.0042-.1864.2638-.1247.5277-.3111.7928-.5598l.9556,1.2824c-.4502.4358-.9136.7508-1.3874.9451-.4752.1943-1.0383.2914-1.6907.2914-1.1512,0-1.9952-.3111-2.5307-.9333-.5369-.6215-.8046-1.5935-.8046-2.9153v-5.5517Z" fill="#fff"/><path d="M270.6646,78.1197h2.3102l2.4257,8.2807,2.6121-8.2807h1.7957l2.6134,8.3503,2.3785-8.3503h2.1698l-3.5927,10.8462h-2.0753l-2.5202-7.5804-2.4953,7.5804h-1.9597l-3.6622-10.8462Z" fill="#fff"/><path d="M302.2477,87.3566c-.4043.5441-.9372.9484-1.5975,1.2129-.6616.2638-1.3415.3964-2.0411.3964-.4515,0-.8978-.0584-1.3415-.1752-.4437-.1162-.848-.3104-1.2129-.5828-.3662-.2717-.6616-.6215-.886-1.0494-.2258-.4279-.3387-.9523-.3387-1.5745,0-1.1663.4082-2.0995,1.2247-2.7992s1.9939-1.0494,3.5336-1.0494c.2481,0,.5132.0079.7928.023.2796.0158.5447.0315.7928.0466.2494.0158.4673.0315.6537.0466.1864.0158.319.0315.3964.0466v-.3964c0-.8079-.2455-1.3874-.7351-1.7379-.4896-.3498-1.1538-.5244-1.9939-.5244-.8243,0-1.478.1129-1.9597.338-.4817.2258-.886.4548-1.2129.6885l-.9792-1.4229c.1864-.1555.4122-.3111.676-.4666.2652-.1555.5749-.2993.9333-.4319.357-.1319.7613-.2409,1.2129-.3262s.9713-.1286,1.5633-.1286c1.3993,0,2.4992.3387,3.2999,1.0147.8007.6767,1.2011,1.6368,1.2011,2.8812v6.3091c0,.3813.0079,1.0068.0236,1.2713h-1.9904l-.0153-1.6093ZM302.2241,83.531c-.0617-.0151-.1825-.0348-.361-.0584-.1798-.023-.3859-.0427-.6182-.0578-.2336-.0158-.483-.0315-.7469-.0473-.2652-.0151-.5211-.023-.7692-.023-.592,0-1.0698.0702-1.4347.21-.3662.1398-.6537.315-.8637.5244-.21.21-.3531.4437-.4305.7003-.0788.2566-.1168.5014-.1168.7344,0,.5913.2021,1.0383.6064,1.3415s.9635.4548,1.6788.4548c.4043,0,.7889-.0702,1.1551-.21.3649-.1398.6878-.3268.9674-.5598.2796-.2336.5054-.5054.6773-.8165.1706-.3111.256-.6301.256-.9562v-1.2365Z" fill="#fff"/><path d="M314.4583,79.8932v-1.1781c0-.3341-.0079-.6799-.0236-1.0376h2.0057l.0696,1.7491c.1247-.1864.2888-.3925.4909-.6176.2008-.2258.4463-.4319.7338-.6182.2875-.187.6222-.3459,1.0042-.4785.3807-.1319.8191-.1982,1.3179-.1982.2323,0,.4463.0158.6406.0466.1943.0315.3767.0781.5487.1398l-.4673,1.9597c-.2796-.1089-.6366-.1634-1.0724-.1634-.4515,0-.8676.086-1.2483.2566-.3807.1713-.7114.4082-.991.7114s-.5014.657-.6642,1.0613c-.1641.4043-.2455.8322-.2455,1.2831l-.0236,6.1567h-2.0989l.0236-9.0727Z" fill="#fff"/><path d="M339.9014,87.0287c-.1247.1405-.3111.319-.5592.5369-.2494.2179-.5723.4279-.9687.6294-.3964.2021-.8624.3774-1.3993.525s-1.1472.2218-1.8311.2218c-.8401,0-1.6093-.1405-2.3089-.42-.6996-.2802-1.2982-.6767-1.7957-1.1899-.4988-.5132-.8834-1.1269-1.1551-1.8423s-.4082-1.5082-.4082-2.3791c0-.7935.1326-1.5358.3964-2.2282.2638-.6911.6379-1.2903,1.1197-1.7957s1.054-.9057,1.7143-1.2011c.6616-.2953,1.3874-.4437,2.1816-.4437.932,0,1.7327.1792,2.4021.5369.6681.3577,1.2168.8322,1.6447,1.4229.4266.5907.7416,1.2673.9438,2.0293s.3032,1.5548.3032,2.3791h-8.5596c.0158.4817.1194.9254.315,1.3297.1943.4043.4542.7541.781,1.0494s.6996.529,1.1197.6996c.42.1713.8637.2566,1.3297.2566.9175,0,1.671-.1555,2.263-.4666.5907-.3111,1.0173-.6143,1.2824-.9096l1.1892,1.2595ZM338.0125,82.2474c-.063-.8401-.3583-1.5548-.886-2.1461-.529-.5907-1.2759-.8867-2.2393-.8867-.4988,0-.9451.086-1.3415.2566-.3964.1713-.7351.3971-1.0147.6767s-.4975.6025-.6537.9681c-.1549.3656-.2402.7429-.256,1.1315h6.3912Z" fill="#fff"/><path d="M84.8007,21.3161c.8359,1.2009,1.6178,2.4638,2.3262,3.7579l.1201-.0643c-2.0231-5.8562-5.9181-11.4401-10.9907-15.7491l-.9796-.8042-1.0077-.7628c-.7015-.5187-1.4046-1.005-2.087-1.4426-.6797-.4382-1.4147-.8992-2.1864-1.3067l-.0857-.0445c-.7168-.3739-1.4583-.7603-2.2067-1.0897-2.8778-1.3566-6.0904-2.3826-9.556-3.0516-5.721-1.1042-11.6892-1.0008-17.2603.2969l-.0012.0006-.0015-.006-.4262.0968-.0015-.0072c-.9566.226-1.915.4845-2.8584.7706-5.7001,1.7299-10.9937,4.4473-15.3092,7.8577l-1.2122.9653c-.5453.4328-1.0345.8259-1.5088,1.2574-1.8068,1.5357-3.5626,3.3287-5.5337,5.6488-1.8639,2.2107-3.3789,4.3096-4.6306,6.417-1.4753,2.4553-2.6577,4.7646-3.6161,7.0607-1.0109,2.382-1.8591,4.9149-2.5221,7.5307-.6245,2.4608-1.0844,5.0976-1.3666,7.8373-.2309,2.2414-.284,4.5525-.1625,7.0649.5358,11.056,4.5156,21.2278,11.2063,28.6431,6.9729,7.7285,16.2117,12.5574,26.0141,13.5967,9.0076.9533,18.4937-1.3638,26.0705-6.3665l-.1254-.2675c-8.6806,4.3463-18.9781,5.311-28.3059,2.6417-.8052-.2302-1.619-.4935-2.4191-.7814-9.3887-3.3816-17.2245-10.4495-22.0635-19.9l-.1126-.247c-.4405-.9683-.896-1.9697-1.2714-2.9927-.8335-2.1945-1.4942-4.4611-1.9624-6.7325-.4516-2.2774-.7338-4.6222-.8398-6.9717-.1111-2.2756-.0334-4.6372.2306-7.0192.9939-9.2576,4.7787-18.3385,10.6568-25.5675,1.5963-1.9577,3.1678-3.6268,4.8047-5.1018,1.9096-1.7365,3.7057-3.1574,5.4895-4.3439,1.9164-1.2971,3.9625-2.4602,6.0791-3.4561,2.012-.9467,4.1734-1.7611,6.4258-2.4223l-.0015-.021.161-.0234.3267-.0926-.0012-.0192.149-.0192v.0012c5.0251-1.3506,10.121-1.7467,15.1437-1.1751l.0003-.0006c.0263.0018.0508.0048.0735.009l.3691.0469c.2521.0313.5032.0625.7242.0998,11.2795,2.0707,20.3525,7.6894,26.2422,16.2492Z" fill="#fff"/><path d="M78.3166,77.0685c-.0967.769-.2118,1.5565-.3408,2.3624-1.9894,2.215-5.8899,5.1991-9.4588,6.8477.2349-.5756.4651-1.1927.6861-1.8512.8888-2.6709,1.5841-6.1431,1.5841-11.2824v-.7645c.0046-1.4828.0046-3.1406-.0506-4.1537.9763-.6585,2.0308-1.4,3.2788-2.3071,1.3493-.9625,3.3433-2.7676,4.5544-3.9327.3638,4.3149.5112,9.1364-.2533,15.0815Z" fill="#fff"/><path d="M44.9024,75.3876c2.1828-.3131,7.1516-1.0684,9.468-1.7131,3.7439-1.0407,9.9146-3.2788,14.9848-6.1707.0737-.0506.1658-.1105.2533-.1704,1.0776-.7184,2.2058-1.5151,3.5781-2.5098,1.7131-1.2203,4.5728-3.9327,5.2267-4.6143l.6585-.6677c.1796-.175.3592-.35.5342-.5296,3.7163-3.7347,6.6911-7.8746,8.8647-12.3231.4559-.944.9026-1.9571,1.3585-3.0992.2349-1.05.3776-2.0953.4513-3.1268.327-4.7892-.9532-9.2193-2.4361-11.554-.1105.4421-.2441.898-.3914,1.3585-1.1328,3.5643-3.1867,7.5292-4.7754,10.5962l-.1289.2487c-1.3493,2.588-3.0439,5.0609-5.0287,7.345,0,.0046-.0046.0092-.0092.0138-.0368.0461-.0783.0967-.1197.1474-.046.0553-.0921.1151-.1381.1704l-.0415.0415c-1.0223,1.0592-1.9663,1.9802-2.8966,2.8275-1.0085.9164-2.0677,1.8006-3.1499,2.6295-.7368.5664-1.4966,1.1052-2.2703,1.6486l-.7598.5342-.0276.0184c-.2487.175-.4974.3546-.746.5342-.8749.6309-1.7867,1.2848-2.7584,1.8466-.4283.2487-.8749.5065-1.3263.7552l-.3776.2026c-.6309.3408-1.3493.7046-2.2012,1.1098-.1566.0875-.3177.1658-.4927.2349-1.644.769-4.9504,2.0677-5.0932,2.1229-3.113,1.1467-7.7871,2.588-12.4244,2.9564-2.4637.1888-5.5468-.3477-6.5507-.5825l-.1082-.5411c-.0184-.0783-.0322-.1566-.046-.2303-.0415-.2072-.0783-.4237-.1151-.6401-.0553-.3039-.0875-.6263-.1105-1.05-.0322-.5756-.0276-1.1743.0184-1.8881v-.0046c.0461-.6954.1197-1.4138.2303-2.192.1243-.8243.2671-1.644.4375-2.4545.175-.8565.3822-1.7545.6217-2.6571.2303-.8842.4974-1.8006.8151-2.8091.2993-.944.6309-1.9203.9947-2.9058.373-.9947.7645-1.9848,1.1743-2.9426.4421-1.0315.898-2.0124,1.3447-2.9242.4789-.967.9901-1.9295,1.5104-2.8459.525-.9302,1.0868-1.842,1.667-2.7124.6217-.9302,1.2203-1.7545,1.8282-2.5236.6401-.8105,1.3078-1.5749,1.9802-2.2749.5296-.548,0,0,2.439-2.5172,1.7476,1.5367,2.5125,2.0956,4.2285,3.6684,1.0461.9588,2.0613,1.9515,3.0418,2.9772,1.129,1.1812,2.2123,2.4066,3.2385,3.6782,1.1107,1.3762,2.1552,2.8069,3.1112,4.295.9938,1.5468,1.8924,3.1564,2.6598,4.8277.7802,1.6992,1.4242,3.4632,1.8842,5.2763.0046.0231.0138.0461.0184.0691.4927-.3546.9671-.7,1.4368-1.0592,1.0545-.8059,2.0815-1.667,3.0623-2.5604.8151-.7414,1.644-1.5473,2.5282-2.4499-.0092-.023-.023-.0506-.0322-.0737-.373-.8611-.8197-1.7868-1.2433-2.6064-.0322-.0691-.0599-.1243-.0829-.1704l-.0967-.1704c-5.5307-10.3613-15.7631-19.8846-19.8523-22.8687-1.3585-.9901-4.9596-3.6196-7.8286-1.8788l-.1612.0967c-1.7821,1.1052-3.5505,2.5696-5.2774,4.3794l-1.9203,2.169.0046-.0046-.0046.0046c-7.6306,9.2791-13.1336,23.9877-12.7974,34.2569.152,4.6235,1.5749,8.1187,4.232,10.3844,2.1552,1.8328,4.9136,2.9979,8.2062,3.4584,1.7269.2441,3.6472.2855,5.7287.1335" fill="#fff"/></svg>