<?xml version="1.0" standalone="yes"?>
<svg xmlns="http://www.w3.org/2000/svg" width="2200" height="1101">
<path style="fill:#fff; stroke:none;" d="M505 782L503.329 782.426L501.84 782.971L497 785.14L493 786.85L489 788.576C486.69 789.544 484.359 790.467 482 791.308C479.681 792.134 477.335 792.888 475 793.667C472.01 794.663 469.031 795.708 466 796.573C464.344 797.045 462.67 797.454 461 797.873C458.671 798.458 456.345 799.058 454 799.576L449 800.6L444 801.576L441 802.08L437 802.718L432 803.282L428 803.831L423 804.169C421.661 804.303 420.333 804.533 419 804.714L417 804.911C416.002 804.979 415 804.987 414 804.996L411 805L403 805L398 804.999C396.667 804.996 395.331 805.002 394 804.911C392.993 804.842 391.999 804.715 391 804.576L388 804.17C386.004 803.977 383.996 804.024 382 803.83C380.325 803.668 378.666 803.362 377 803.13L374 802.728L370 802.08L367 801.576L362 800.6C359.661 800.132 357.322 799.667 355 799.116C352.991 798.639 350.991 798.122 349 797.576L345 796.421L342 795.576C340.659 795.186 339.327 794.766 338 794.329C336.66 793.888 335.325 793.432 334 792.947L330 791.424L325 789.551L321 787.85C319.331 787.136 317.65 786.449 316 785.691C314.314 784.917 312.66 784.075 311 783.247C308.659 782.079 306.302 780.936 304 779.691C302.314 778.779 300.664 777.801 299 776.85L295 774.551L290 771.424C288.325 770.379 286.636 769.361 285 768.255C283.308 767.11 281.658 765.899 280 764.706C278.657 763.739 277.309 762.779 276 761.765L271 757.8C269.322 756.456 267.647 755.108 266 753.725L263 751.13C260.99 749.401 258.941 747.718 257 745.911C255.291 744.318 253.651 742.651 252 741C250.028 739.028 248.041 737.068 246.17 735L241.845 730L239.156 727L237.438 725C235.256 722.399 233.177 719.708 231.13 717C229.879 715.345 228.638 713.682 227.424 712L224.59 708L222.515 705L219.953 701C218.69 699.008 217.423 697.019 216.204 695C215.008 693.019 213.863 691.011 212.719 689C211.211 686.348 209.635 683.73 208.27 681C206.964 678.389 205.874 675.679 204.719 673L203.424 670L201.4 665L199.425 660C198.801 658.346 198.231 656.675 197.667 655L195.333 648C194.672 646.008 194.004 644.019 193.427 642C192.766 639.683 192.211 637.337 191.627 635C190.877 632.005 190.089 629.016 189.424 626C189.058 624.341 188.726 622.672 188.424 621L187.586 616L186.754 611L186.285 608L186.075 606L185.834 603L185.285 599L185.09 597L184.91 592L184.715 590C184.483 588.335 184.204 586.679 184.09 585C183.998 583.669 184.004 582.333 184.001 581L184 575L184 568C184.001 566.668 183.981 565.331 184.039 564C184.083 562.995 184.156 561.998 184.285 561L184.715 558L184.91 556L185.011 553C185.04 551.997 185.074 550.999 185.17 550C185.33 548.326 185.645 546.67 185.845 545L186.155 542L186.87 537L187.272 534L187.92 530L188.424 527C188.727 525.328 189.06 523.66 189.424 522L190.576 517L191.424 513C191.877 510.992 192.361 508.991 192.884 507C193.412 504.989 194.008 502.999 194.579 501L196.025 496C196.754 493.654 197.557 491.33 198.333 489C199.224 486.329 200.084 483.644 201.053 481C201.669 479.32 202.337 477.661 203 476L205.424 470L207.15 466C207.867 464.332 208.551 462.65 209.309 461C210.083 459.314 210.925 457.66 211.753 456L213.753 452C214.923 449.66 216.064 447.302 217.309 445C218.221 443.314 219.201 441.665 220.15 440L222.424 436C223.406 434.322 224.398 432.65 225.425 431C226.899 428.633 228.454 426.32 230 424C231.56 421.658 233.104 419.303 234.721 417C235.668 415.651 236.643 414.321 237.63 413C238.882 411.324 240.138 409.65 241.424 408C243.537 405.29 245.719 402.638 247.92 400L251.282 396L254.845 392L258.285 388C259.181 386.978 260.1 385.982 261.039 385L264.001 382.001C265.643 380.365 267.281 378.725 269 377.17L274 372.845L277 370.155L280 367.579L282 365.87L285 363.275C286.315 362.162 287.653 361.078 289 360.004C290.32 358.951 291.648 357.907 293 356.895C295.609 354.941 298.321 353.138 301 351.283L305 348.515L310 345.319C312.315 343.853 314.638 342.401 317 341.011L322 338.15C323.665 337.201 325.314 336.221 327 335.309C329.302 334.064 331.659 332.921 334 331.753C335.66 330.925 337.314 330.083 339 329.309C340.65 328.551 342.332 327.867 344 327.15L348 325.424L351 324.204C352.987 323.417 354.998 322.696 357 321.95L362 320.053C363.323 319.563 364.66 319.112 366 318.671C367.327 318.234 368.659 317.814 370 317.424L373 316.579L377 315.424L382 314.127C384.66 313.458 387.317 312.779 390 312.211C391.329 311.929 392.662 311.661 394 311.424L399 310.586L404 309.754L407 309.286L409 309.075L412 308.834L417 308.17C417.999 308.075 418.997 308.038 420 308.014C421.334 307.982 422.668 308.002 424 307.911L426 307.714L429 307.286C429.998 307.156 430.995 307.083 432 307.039C433.664 306.966 435.335 307 437 307L440 307.004C441 307.013 442.001 307.021 443 307.089C445.347 307.25 447.653 307.749 450 307.911C451.332 308.002 452.666 307.982 454 308.014C455.003 308.038 456.001 308.075 457 308.17L461 308.718L462 308.845C463.333 308.99 464.672 309.097 466 309.286C468.014 309.571 470.006 310.002 472 310.4L478 311.6L482 312.424C484.009 312.868 486.011 313.359 488 313.884C489.341 314.238 490.675 314.616 492 315.025L496 316.28L500 317.424C501.341 317.815 502.673 318.234 504 318.671C505.34 319.112 506.675 319.568 508 320.053L512 321.576L517 323.424C518.342 323.93 519.676 324.462 521 325.012L524 326.306L527 327.694C529.664 328.895 532.384 329.962 535 331.27C536.355 331.948 537.683 332.677 539 333.424L542 335.14L546 337.306C547.349 338.045 548.678 338.818 550 339.604C551.683 340.606 553.353 341.632 555 342.692L560 346.001C561.679 347.125 563.356 348.253 565 349.427C566.687 350.633 568.346 351.879 570 353.13C571.682 354.401 573.347 355.693 575 357.004L578 359.439C579.019 360.297 580.015 361.177 581 362.075L584 364.834L588 368.286C589.364 369.482 590.69 370.718 591.961 372.015C592.909 372.982 593.821 373.981 594.714 375L598.166 379L602.711 384C604.399 385.951 605.991 387.985 607.6 390C608.923 391.655 610.252 393.306 611.525 395C612.76 396.644 613.943 398.328 615.14 400C616.326 401.655 617.516 403.306 618.645 405C620.17 407.288 621.584 409.644 623 412L626.562 417.955L627.96 420.329L629 422L629.36 420.914L629.274 420.483L629.229 419.679L628.723 417.941L627.599 414.999L625.573 410L624.231 407L622.424 403C621.841 401.659 621.284 400.309 620.63 399C619.607 396.955 618.405 395.004 617.306 393L615.694 390L613.988 387C612.803 384.975 611.571 382.977 610.308 381L607.667 377L605.656 374C604.272 371.967 602.839 369.973 601.37 368C600.118 366.317 598.852 364.646 597.551 363L595.079 360C593.967 358.66 592.86 357.312 591.714 356C590.239 354.31 588.691 352.688 587.17 351.039C585.58 349.317 584.026 347.563 582.374 345.899C580.584 344.095 578.682 342.411 576.826 340.675C574.875 338.85 572.986 336.956 571 335.169C569.697 333.996 568.346 332.877 567 331.754C565.346 330.374 563.696 328.991 562 327.662L558 324.63C556.678 323.645 555.35 322.668 554 321.721C552.352 320.564 550.675 319.45 549 318.333L545 315.692C542.376 314.016 539.72 312.379 537 310.862C535.032 309.764 533.014 308.762 531 307.753L527 305.753L523 303.753C521.34 302.925 519.686 302.083 518 301.309C516.35 300.551 514.669 299.864 513 299.15L509 297.449L505 295.95C503.334 295.325 501.681 294.66 500 294.078L495 292.495L491 291.202L486 289.849L481 288.475L476 287.349L472 286.424L467 285.4L463 284.611L459 283.92C457.669 283.701 456.339 283.456 455 283.286L453 283.075L450 282.834L445 282.17C443.336 282.009 441.665 282.033 440 281.911L438 281.714C436.335 281.483 434.679 281.204 433 281.089C431.337 280.976 429.666 281.003 428 281L421 281L415 281C413.334 281.003 411.663 280.976 410 281.089C408.993 281.158 407.999 281.285 407 281.424L404 281.83C402.004 282.023 399.996 281.977 398 282.17C396.326 282.332 394.67 282.645 393 282.845L390 283.155L388 283.427L385 283.92L382 284.424C379.327 284.917 376.665 285.467 374 286C371.666 286.467 369.325 286.911 367 287.424C364.655 287.942 362.329 288.542 360 289.127C358.33 289.546 356.656 289.955 355 290.427C352.644 291.1 350.332 291.909 348 292.656L342 294.515L338 295.953L334 297.424L328 299.8L323 301.8C320.988 302.608 318.972 303.406 317 304.309C315.313 305.081 313.66 305.925 312 306.753L306 309.753L302 311.753L299 313.258C297.65 313.953 296.317 314.674 295 315.427L290 318.4L285 321.425C282.631 322.901 280.299 324.442 278 326.026L273 329.579L269 332.475L264 336.349C261.319 338.421 258.622 340.468 256 342.614C253.965 344.279 251.994 346.016 250 347.729C248.666 348.875 247.305 349.99 246 351.17C244.28 352.725 242.643 354.366 241 356.001L235 362L230.001 367C228.366 368.643 226.725 370.28 225.17 372C223.99 373.305 222.875 374.666 221.729 376L217.435 381L213.4 386C211.545 388.318 209.676 390.625 207.895 393C206.416 394.971 205.011 396.995 203.579 399L200.72 403C199.573 404.652 198.445 406.317 197.344 408C195.627 410.625 194.013 413.311 192.4 416C191.205 417.991 190.007 419.98 188.861 422L186.694 426L183.309 432C182.064 434.302 180.923 436.66 179.753 439C178.59 441.325 177.394 443.637 176.309 446C175.551 447.65 174.867 449.332 174.15 451L172.424 455L170.4 460L168.811 464L166.576 470C165.824 471.996 165.03 473.975 164.355 476C163.585 478.311 162.98 480.668 162.28 483L160.427 489C159.955 490.656 159.546 492.33 159.127 494L157.627 500C156.795 503.326 155.921 506.645 155.211 510C154.929 511.329 154.66 512.662 154.424 514L153.586 519C153.139 521.665 152.677 524.328 152.272 527L151.87 530L151.155 535L150.95 537L150.718 539L150.17 543C150.043 544.331 150.019 545.664 150.003 547C149.987 548.334 150.002 549.668 149.91 551L149.715 553L149.285 556C149.156 556.997 149.083 557.995 149.039 559C148.981 560.331 149.001 561.668 149 563L149 569L149.001 574C149.004 575.333 148.998 576.669 149.09 578C149.25 580.348 149.75 582.652 149.91 585C150.116 587.997 149.885 591.006 150.17 594L150.718 598L151.155 602L151.718 606L152.155 610L152.427 612L152.92 615L153.424 618L154.4 623L155.424 628L156.35 632C156.877 634.331 157.315 636.681 157.895 639C158.315 640.679 158.813 642.337 159.291 644C159.865 646.001 160.408 648.012 161.025 650C161.754 652.346 162.557 654.67 163.333 657L165.333 663C166.005 665.009 166.677 667.018 167.425 669C168.059 670.679 168.736 672.342 169.424 674L171.15 678C171.867 679.668 172.551 681.35 173.309 683C174.083 684.686 174.925 686.34 175.753 688L177.753 692L179.753 696L181.258 699C181.952 700.349 182.674 701.683 183.427 703C184.393 704.686 185.406 706.345 186.424 708L188.95 712C190.208 714.005 191.419 716.039 192.745 718L195.579 722C197.009 724.006 198.417 726.029 199.895 728C202.46 731.42 205.181 734.719 207.92 738C209.321 739.679 210.704 741.377 212.17 743C213.724 744.721 215.366 746.357 217.001 748L223 754C224.985 755.984 226.946 757.997 229 759.911C230.62 761.419 232.32 762.831 234 764.271C235.664 765.697 237.299 767.158 239 768.54C240.638 769.871 242.333 771.13 244 772.424L248 775.525L253 779.14C254.655 780.326 256.306 781.516 258 782.645C260.611 784.386 263.31 785.986 266 787.6C267.991 788.795 269.975 790.002 272 791.139L277 793.86C278.998 794.975 280.952 796.167 283 797.191C285.286 798.334 287.672 799.256 290 800.306L295 802.573L300 804.6C302.323 805.53 304.643 806.468 307 807.308C308.988 808.016 310.998 808.666 313 809.333C314.995 809.998 316.985 810.679 319 811.279C321.316 811.969 323.668 812.522 326 813.151C328 813.691 329.982 814.293 332 814.765L335 815.399L340 816.4C342.326 816.865 344.65 817.381 347 817.714L351 818.155L356 818.845L359 819.155C360.67 819.355 362.326 819.671 364 819.83C366.325 820.052 368.668 819.999 371 820L382 820L391 820L394 819.996C395 819.987 396.002 819.979 397 819.911C399.015 819.773 400.994 819.381 403 819.166L407 818.834L412 818.155L415 817.844L417 817.562L420 816.999L425 816C427.335 815.533 429.675 815.089 432 814.576C434.345 814.058 436.671 813.458 439 812.873C440.67 812.454 442.344 812.045 444 811.573C446.694 810.804 449.343 809.885 452 809C454.669 808.111 457.35 807.252 460 806.308C462.357 805.468 464.677 804.53 467 803.6C468.669 802.933 470.347 802.28 472 801.573C475.062 800.262 478.022 798.736 481 797.247L485 795.247C487.015 794.238 489.029 793.232 491 792.139L495 789.85L497.999 788.139L499.981 786.937L501.851 785.664L503.39 784.394L504.005 783.661L504.346 783.317L505 782M1053 329L1053 646L1095 646L1101 646L1104 645.995L1105 645.981L1106.94 645.852L1107.85 645.682L1108.68 645.397L1109.4 644.972L1109.97 644.397C1110.53 643.695 1110.72 642.802 1110.85 641.941L1110.98 639.995L1111 638L1111 633L1111 622L1111 562L1111 329L1053 329M1479 329L1479 646L1520 646L1527 646L1530 645.995L1531.98 645.941L1532.94 645.852L1533.85 645.682L1535.4 644.972L1535.97 644.397L1536.4 643.682L1536.85 641.941C1536.97 640.962 1536.98 639.984 1537 638.999L1537 635L1537 606L1537 533L1537 525L1537 522C1537.01 521 1537.02 519.998 1537.09 519C1537.23 516.985 1537.62 515.006 1537.83 513L1538.18 509L1538.52 507C1538.74 505.982 1539.05 504.992 1539.36 504L1539.7 503C1540.07 501.991 1540.43 500.971 1540.9 500L1541.38 499L1541.91 498L1542.48 497L1543.79 495.001C1545.04 493.254 1546.46 491.643 1548.04 490.184C1549.58 488.766 1551.26 487.521 1553 486.363C1554.6 485.293 1556.26 484.323 1558 483.492C1558.98 483.024 1559.99 482.604 1561 482.208C1562.65 481.56 1564.3 480.946 1566 480.438L1569 479.63L1572 478.884C1574.32 478.334 1576.65 477.848 1579 477.435C1580.33 477.202 1581.67 477.056 1583 476.87L1585 476.579C1586 476.43 1586.99 476.266 1588 476.17C1589 476.074 1590 476.04 1591 476.011L1594 475.911L1596 475.714C1597.66 475.483 1599.32 475.204 1601 475.089C1602 475.021 1603 475.013 1604 475.004L1608 475L1618 475L1632 475L1637 475.001L1640 475.039C1641 475.083 1642 475.156 1643 475.286L1646 475.714L1648 475.911C1649.67 476.033 1651.34 476.006 1653 476.17C1654.68 476.335 1656.34 476.645 1658 476.92C1660.01 477.251 1662.01 477.595 1664 478.004L1667 478.665L1668 478.921L1670 479.523L1672 480.258C1673.37 480.835 1674.73 481.44 1676 482.214C1677.79 483.299 1679.43 484.606 1680.9 486.094L1682.61 488.015L1683.36 489.004L1684.64 491C1685.38 492.279 1685.97 493.635 1686.54 495L1686.91 496L1687.56 498L1687.84 499C1688.1 499.995 1688.35 500.989 1688.54 502C1688.72 502.995 1688.83 503.993 1688.92 505L1689.17 508C1689.38 510.006 1689.77 511.985 1689.91 514C1690 515.331 1690 516.667 1690 518L1690 524L1690 605L1690 633L1690 637L1690.02 639.995L1690.15 641.941L1690.32 642.852L1691.03 644.397L1691.6 644.972L1692.32 645.397L1693.15 645.682L1694.06 645.852L1696 645.981L1697 645.995L1700 646L1706 646L1748 646L1748 533L1748 516L1748 510C1748 508.668 1748.02 507.331 1747.96 506C1747.92 504.995 1747.84 503.998 1747.71 503L1747.29 500L1747.09 498C1746.97 496.335 1746.99 494.663 1746.83 493C1746.67 491.325 1746.36 489.666 1746.13 488L1745.73 485L1745.08 481C1744.91 479.996 1744.73 478.993 1744.5 478C1744.19 476.654 1743.81 475.323 1743.41 474L1742.48 471C1741.66 468.626 1740.76 466.27 1739.68 464C1738.17 460.83 1736.29 457.871 1734.28 455C1732.34 452.229 1730.31 449.487 1727.91 447.09C1725.51 444.694 1722.77 442.661 1720 440.721C1717.74 439.139 1715.42 437.636 1713 436.312C1710.42 434.901 1707.73 433.709 1705 432.604C1702.37 431.539 1699.72 430.54 1697 429.721C1695.68 429.323 1694.34 428.968 1693 428.63C1691.34 428.21 1689.68 427.787 1688 427.449C1686.34 427.116 1684.67 426.867 1683 426.586L1678 425.754L1675 425.286L1673 425.075L1670 424.834C1667.99 424.619 1666.01 424.228 1664 424.089C1661.67 423.93 1659.33 424.07 1657 423.911L1655 423.714L1652 423.286C1651 423.156 1650 423.083 1649 423.039C1647.67 422.981 1646.33 423.001 1645 423L1640 423L1623 423L1609 423L1604 423.001L1601 423.039C1599.99 423.083 1599 423.156 1598 423.286L1595 423.714L1593 423.911C1590.67 424.07 1588.33 423.93 1586 424.089C1583.99 424.228 1582.01 424.619 1580 424.834L1577 425.075L1575 425.286L1572 425.754L1567 426.586C1565.33 426.867 1563.66 427.116 1562 427.449L1559 428.13L1556 428.884L1553 429.721C1551.66 430.121 1550.33 430.561 1549 431.004C1547.66 431.453 1546.31 431.921 1545 432.453C1543.36 433.118 1541.76 433.898 1540.16 434.654L1539.16 435.1L1538.67 435.339L1537 436L1537 329L1479 329M634 444L633.061 445.086L632.86 445.517L632.395 446.321L631.688 448.059L630.718 451.001L629.806 454L628.782 457L627.681 460C626.696 462.687 625.695 465.367 624.573 468L621.86 474L620.576 477L619.219 480C618.266 482.018 617.245 484.004 616.247 486L610.247 498L606.247 506C605.077 508.34 603.936 510.698 602.691 513C601.779 514.686 600.801 516.336 599.85 518C598.892 519.675 597.954 521.36 596.936 523L593.691 528C592.397 530.003 591.155 532.04 589.795 534C588.853 535.357 587.861 536.677 586.873 538L583.87 542C582.339 544.022 580.782 546.022 579.195 548C578.105 549.359 576.995 550.704 575.829 552C574.279 553.723 572.633 555.356 570.999 557L567 561L561 567C559.027 568.97 557.07 570.961 555 572.83C553.377 574.297 551.679 575.679 550 577.08C547.362 579.282 544.71 581.463 542 583.576L537 587.373C534.676 589.119 532.357 590.874 530 592.576L525 596.14L519 600.421L514 603.975L509 607.333C507.345 608.431 505.687 609.525 504 610.575C501.703 612.005 499.377 613.399 497 614.691L492 617.309C489.99 618.398 488.045 619.607 486 620.63C484.04 621.61 481.99 622.394 480 623.309L473 626.691C470.046 628.044 466.995 629.168 464 630.424L459 632.576L454 634.6L449 636.575C447.017 637.323 445.009 637.995 443 638.667L438 640.333C435.337 641.221 432.681 642.141 430 642.975L425 644.421C423.001 644.992 421.011 645.588 419 646.116C417.009 646.638 415.008 647.123 413 647.576L410 648.21L404 649.576L401 650.196C399.338 650.522 397.671 650.803 396 651.08L392 651.728L389 652.13C387.333 652.362 385.673 652.646 384 652.83C382.671 652.977 381.334 652.968 380 653L377 653.089L375 653.286C373.331 653.482 371.685 653.83 370 653.871C368.993 653.896 368 653.825 367 653.711L363 653.169L358 652.83C356.656 652.709 355.324 652.449 354 652.195L352 651.789L350 651.33L348.005 650.737L347.019 650.347L346.059 649.86L344.317 648.57L343.013 646.891L342.564 645.956C342.165 645.012 341.979 643.996 341.773 642.999L341.595 642L341.286 640L341.09 638C340.98 636.673 341.007 635.331 341.001 634L341 628C341.003 626.334 340.976 624.663 341.09 623C341.227 620.986 341.605 619.003 341.845 617L342.282 613L342.92 609L343.424 606L344.4 601L345.211 597C345.639 594.989 346.13 592.995 346.627 591C347.208 588.662 347.787 586.324 348.424 584L349.576 580L350.884 575C351.234 573.658 351.615 572.325 352.025 571L353.667 566C354.446 563.661 355.217 561.319 356.053 559L357.576 555L359.424 550L361.8 544L363.8 539C364.472 537.327 365.133 535.649 365.862 534L368.691 528L371.309 522L372.756 519L374.258 516L375.861 513L378.14 509L381.427 503C382.394 501.315 383.406 499.655 384.424 498L386.95 494C388.208 491.995 389.419 489.961 390.745 488L392.86 485L395 482C395.956 480.66 396.901 479.312 397.895 478C399.691 475.628 401.526 473.279 403.438 471L405.156 469L407.845 466L411.285 462.039L413.09 460.17L414.039 459.286L417.001 456.714L419 454.912C419.997 453.977 420.97 453.013 422 452.113L424 450.635L425 450.203L426 450.041L427 450.167L429 451.127C430.048 451.828 431.023 452.624 432 453.419L435 455.92C436.679 457.322 438.359 458.719 440 460.166L444 463.834C445.984 465.606 448.053 467.276 450 469.089C451.365 470.361 452.679 471.684 454 473.001L458 477L465 484C466.65 485.653 468.318 487.291 469.91 489C471.722 490.945 473.399 493.006 475.155 495L477.845 498L481.246 502L483.739 505C485.341 506.969 486.867 508.995 488.424 511L491.525 515L494.421 519L497.28 523C498.653 524.979 500.003 526.975 501.308 529C502.79 531.302 504.192 533.653 505.6 536C506.99 538.317 508.403 540.624 509.691 543C510.938 545.3 512.077 547.66 513.247 550L515.247 554C516.075 555.66 516.919 557.313 517.691 559C518.742 561.295 519.67 563.645 520.576 566L522.05 570C522.671 571.667 523.344 573.317 523.921 575C524.486 576.646 524.941 578.323 525.421 579.995L526.245 582.84L526.505 583.841L526.647 584.329L527 586L528.671 585.387L529.159 585.094L530.16 584.563L532.025 583.315L535 581.115C537.716 579.056 540.373 576.92 543 574.75L546 572.246C547.345 571.121 548.697 570.005 550 568.83C552.043 566.989 553.959 565.013 556 563.17L560.995 558.835C563.068 556.964 565.024 554.971 567 553L566.454 551.329L566.268 550.841L565.541 548.955L564.688 546.995L563.742 545L562.247 542L560.247 538C558.906 535.319 557.599 532.619 556.138 530C555.196 528.312 554.193 526.659 553.2 525C551.797 522.658 550.408 520.306 548.947 518C547.88 516.316 546.771 514.659 545.667 513L542.333 508L538.974 503L535.421 498L532.525 494L529.424 490L523.996 483C521.845 480.298 519.623 477.655 517.414 475L513.246 470L510.715 467L506.166 462C504.394 460.016 502.724 457.947 500.91 456C499.318 454.291 497.65 452.653 496 451L488 443L478 433C476.015 431.016 474.054 429.003 472 427.089C470.055 425.278 467.994 423.601 466 421.845L463 419.156L461 417.438L458 415.001L454 411.801C452.021 410.224 450.041 408.652 448 407.155C446.038 405.716 444.025 404.353 442 403.004C440.685 402.127 439.359 401.261 438 400.453C436.371 399.484 434.694 398.606 433 397.759C431.044 396.781 429.07 395.817 427 395.101C425.052 394.427 423.026 393.981 421 393.616C420.004 393.436 419.007 393.27 418 393.171C416.668 393.039 415.337 393.02 414 393.044C413 393.062 411.985 393.156 411 393.329L409 393.789L408 394.105L406 394.88L404 395.81L402 396.876C399.93 398.042 397.947 399.362 396 400.721C393.966 402.142 391.975 403.628 390 405.13C388.647 406.16 387.29 407.188 386 408.296L381 412.718C379.672 413.874 378.297 414.979 377 416.17C374.945 418.057 372.97 420.024 371.001 422C369.366 423.64 367.716 425.271 366.174 427C365.026 428.286 363.933 429.621 362.899 431L358.525 437L354.654 442C353.406 443.639 352.197 445.305 351.025 447C349.202 449.64 347.447 452.33 345.667 455C343.898 457.653 342.111 460.294 340.425 463L338 467L334.424 473L332.719 476C331.582 477.999 330.403 479.977 329.309 482C328.418 483.647 327.591 485.327 326.753 487L324.753 491L322.753 495C321.925 496.66 321.083 498.314 320.309 500L318.579 504L316.85 508L315.579 511L313.424 516L311.4 521L309.425 526C308.304 528.972 307.372 532.008 306.308 535C305.475 537.341 304.511 539.635 303.745 542L302.28 547L301.025 551L300.152 554L298.116 562C297.502 564.337 296.785 566.646 296.235 569C295.771 570.988 295.4 572.999 295 575C294.467 577.665 293.907 580.326 293.424 583L292.586 588L291.754 593L291.286 596L291.086 598C291.001 599.333 290.964 600.67 290.831 602C290.697 603.339 290.467 604.667 290.285 606L290.09 608C289.976 609.663 290.003 611.334 290 613L290 621L290 627C290.003 628.666 289.976 630.337 290.09 632C290.227 634.014 290.604 635.997 290.845 638C291.005 639.331 291.075 640.676 291.296 642L291.463 643L291.885 645L292.576 648L293.235 651C293.474 652.009 293.738 653.008 294.039 654C294.554 655.693 295.172 657.351 295.811 659C296.596 661.026 297.398 663.056 298.37 665C299.054 666.367 299.825 667.687 300.605 669C301.406 670.348 302.209 671.704 303.093 673C303.795 674.029 304.519 675.051 305.329 676L306.185 677L307.093 678C308.373 679.355 309.678 680.683 311.001 681.996C312.926 683.907 314.865 685.803 317 687.482C319.503 689.451 322.225 691.135 325 692.688C325.982 693.238 326.996 693.735 328 694.244C330.3 695.411 332.608 696.578 335 697.547C336.966 698.343 338.989 698.997 341 699.667C342.986 700.328 344.971 701.002 347 701.522C350.289 702.363 353.656 702.853 357 703.414L362 704.246C363.663 704.515 365.317 704.795 367 704.911C368.663 705.025 370.335 704.997 372 705L378 705L385 705C386.666 704.997 388.337 705.024 390 704.911C391.007 704.842 392.001 704.715 393 704.576L396 704.17C398.328 703.947 400.672 704.054 403 703.83C404.341 703.702 405.667 703.458 407 703.271L411 702.725C412.675 702.456 414.337 702.13 416 701.8L422 700.6L427 699.576C428.674 699.206 430.336 698.787 432 698.373L440 696.373C442.337 695.789 444.683 695.233 447 694.573L453 692.72L457 691.576C458.677 691.079 460.343 690.555 462 689.996C463.341 689.544 464.675 689.073 466 688.576L470 687.053L477 684.575L481 683L487 680.6L493 678.2C494.673 677.528 496.351 676.867 498 676.138L505 672.861L510 670.691C512.363 669.606 514.676 668.412 517 667.247L520 665.742C521.349 665.047 522.683 664.326 524 663.573C526.37 662.216 528.704 660.786 531 659.308L537 655.333L542 651.975L547 648.421L551 645.525C553.035 643.996 555.012 642.39 557 640.8C558.339 639.729 559.688 638.666 561 637.561C562.019 636.702 563.015 635.823 564 634.925L567 632.166C568.984 630.395 571.053 628.724 573 626.911C574.365 625.639 575.68 624.316 577 622.999L582 618L588 612C589.65 610.347 591.318 608.709 592.911 607C594.722 605.055 596.399 602.995 598.155 601L601.714 597C603.383 595.033 604.989 593.014 606.6 591C608.455 588.682 610.324 586.375 612.105 584C613.338 582.356 614.516 580.673 615.709 579C617.599 576.35 619.528 573.729 621.305 571C622.587 569.032 623.79 567.013 625 565L628.576 559L630.281 556C631.418 554.001 632.597 552.023 633.691 550L635.244 547C636.079 545.342 636.906 543.682 637.691 542L639.424 538L640.306 536C641.069 534.341 641.865 532.695 642.547 531C643.204 529.366 643.778 527.696 644.254 526C644.898 523.705 645.356 521.355 645.714 519C645.917 517.673 645.996 516.332 646.155 515C646.395 512.997 646.773 511.015 646.911 509C647.002 507.669 646.996 506.333 646.999 505L647 500L646.999 494C646.996 492.667 647.002 491.331 646.911 490C646.773 487.986 646.395 486.003 646.155 484L645.714 480C645.358 477.652 644.868 475.328 644.4 473C643.86 470.316 643.316 467.637 642.572 465C642.193 463.657 641.771 462.324 641.329 461C640.769 459.322 640.203 457.645 639.55 456L638.279 453C637.559 451.34 636.842 449.68 636.065 448.045L634.846 445.671L634 444M749 492L808 492L808.327 490.329L808.902 487.955L809.468 485.996L809.815 485.002L810.684 483.043L811.228 482.105L812.558 480.39L814.188 478.97L815.094 478.367L816.04 477.839C817.003 477.367 817.973 476.914 819.001 476.599L821 476.043L823 475.615L826 475.081L829 474.59C829.998 474.431 830.994 474.268 832 474.17C833.996 473.976 836.002 474.051 838 473.911L840 473.714C841.665 473.483 843.321 473.204 845 473.089C846.663 472.976 848.335 473.003 850 473L857 473L887 473L897 473L900 473.001L903 473.039C904.005 473.083 905.001 473.162 906 473.286L909 473.714C909.998 473.844 910.995 473.909 912 473.964C913.333 474.039 914.671 474.021 916 474.17C917.676 474.358 919.337 474.64 921 474.921L924 475.449L927 476.131C928.68 476.542 930.371 476.96 932 477.548C933.733 478.173 935.403 478.962 936.999 479.88C939.067 481.069 941.032 482.439 942.671 484.185L944.2 486.04L944.867 487.015L946.004 489.001L946.482 490C946.904 490.989 947.294 491.981 947.638 493C947.973 493.989 948.251 494.992 948.522 496L948.985 498C949.208 498.991 949.401 499.997 949.561 501L949.833 502.998L950.157 506.84L950.357 507.841L950.415 508.329L951 510L949.329 509.646L947.84 509.235L942 507.428C940.019 506.87 938.014 506.422 936 506.004C935.005 505.797 934.004 505.6 933 505.438L931 505.156L927 504.718L924 504.286L922 504.089C920.003 503.952 917.997 504.048 916 503.911L914 503.714L911 503.286C910.002 503.156 909.005 503.083 908 503.039L905 503.001L899 503C897.668 502.999 896.331 503.019 895 502.961L893 502.83L892 502.714L889 502.286L888 502.17L886 502.039C884.669 501.981 883.332 502.001 882 502L877 502L862 502L842 502L836 502L832 502.015C830.999 502.039 829.996 502.06 829 502.17L824 502.83C823.004 502.939 822 502.961 821 502.985L816 503.004C815 503.01 813.998 503.021 813 503.089C811.321 503.204 809.665 503.483 808 503.714L806 503.911C804.335 504.033 802.663 504.008 801 504.17C799.659 504.3 798.333 504.542 797 504.729L793 505.275C791.66 505.48 790.33 505.74 789 506.001L786 506.601C783.982 507.017 781.973 507.437 780 508.039C778.651 508.451 777.303 508.91 776 509.453L774 510.312L771 511.76C769.294 512.619 767.605 513.508 766 514.548C763.11 516.42 760.476 518.65 758.004 521.039C756.372 522.616 754.773 524.249 753.329 526C752.283 527.268 751.331 528.602 750.468 530C749.865 530.976 749.317 531.984 748.785 533C747.931 534.629 747.142 536.295 746.453 538C745.018 541.55 744.006 545.26 743.211 549C742.858 550.659 742.544 552.325 742.275 554L741.729 558C741.492 559.666 741.205 561.319 741.089 563C741.021 563.998 741.013 565 741.004 566L741 570L741 580L741.004 583C741.013 584 741.021 585.001 741.089 586C741.205 587.683 741.486 589.337 741.754 591L742.25 594C742.541 595.672 742.857 597.34 743.211 599C743.641 601.02 744.115 603.032 744.746 605C745.63 607.754 746.76 610.449 748.123 613C749.635 615.827 751.44 618.516 753.468 620.999L755.174 622.985L756.09 623.961L758.015 625.826L759.004 626.7C759.986 627.524 760.98 628.325 762 629.101C763.625 630.337 765.298 631.517 767 632.644C768.929 633.922 770.896 635.129 773 636.099C774.625 636.848 776.322 637.431 778 638.047L782 639.481L784 640.09L787 640.87C789.65 641.514 792.313 642.093 795 642.565C796.327 642.798 797.666 642.945 799 643.13L801 643.421C801.998 643.57 802.995 643.734 804 643.83C804.999 643.926 805.997 643.96 807 643.989L810 644.089L812 644.286L815 644.714C815.997 644.844 816.995 644.917 818 644.961C819.331 645.019 820.668 644.999 822 645L827 645.001C828.333 645.004 829.669 644.998 831 645.089C833.348 645.25 835.653 645.75 838 645.911C839.331 646.002 840.667 645.996 842 645.999L847 646L863 646L885 646L892 646C893.665 645.999 895.336 646.034 897 645.961C898.004 645.917 899.003 645.844 900 645.714L903 645.286L905 645.089C907.663 644.907 910.337 645.093 913 644.911C915.015 644.773 916.994 644.381 919 644.166L923 643.834L928 643.13L931 642.725C932.004 642.572 933.004 642.391 934 642.192C935.004 641.991 936.006 641.773 937 641.525L940 640.703C941.341 640.322 942.683 639.924 943.998 639.46L947.84 637.958L948.841 637.612L949.329 637.425L951 637C950.698 638.619 950.38 640.231 950.169 641.864L950.042 643.33L950 645L1008 645L1008 517L1008 509C1008 507.335 1008.02 505.663 1007.91 504C1007.75 501.652 1007.25 499.348 1007.09 497C1007 495.668 1007.02 494.333 1006.99 493C1006.96 491.998 1006.93 490.999 1006.83 490C1006.73 488.994 1006.57 487.998 1006.42 487L1006.13 485L1005.73 482L1005.25 479C1005.02 477.662 1004.81 476.32 1004.5 475C1004.1 473.306 1003.55 471.649 1003 470C1002.31 467.966 1001.58 465.955 1000.69 464C1000.23 462.986 999.731 461.987 999.215 461C998.685 459.984 998.133 458.979 997.536 458C996.701 456.628 995.799 455.29 994.841 454C993.829 452.638 992.803 451.29 991.7 450C990.519 448.619 989.27 447.299 987.985 446.015C986.393 444.422 984.742 442.893 983 441.465C982.025 440.665 981.018 439.902 980 439.159C978.701 438.211 977.374 437.301 976 436.464C974.379 435.477 972.691 434.614 971 433.756C968.7 432.589 966.392 431.422 964 430.453C962.359 429.788 960.677 429.232 959 428.667C956.684 427.888 954.368 427.085 952 426.478C950.02 425.971 948.004 425.598 946 425.2C944.337 424.869 942.674 424.544 941 424.275L937 423.729L935 423.425L933 423.166L929 422.834L924 422.17C921.006 421.885 917.994 422.115 915 421.83L912 421.424C911.001 421.285 910.007 421.158 909 421.089C907.337 420.976 905.666 421.003 904 421L896 421L873 421L854 421L847 421C845.668 421.001 844.331 420.981 843 421.039C841.995 421.083 840.998 421.156 840 421.286L837 421.714L835 421.911C833.003 422.048 830.997 421.952 829 422.089L827 422.286L823 422.834L819 423.166L817 423.425L815 423.729L811 424.272L808 424.754C806.666 424.974 805.324 425.174 804 425.449L799 426.576C797.329 426.95 795.651 427.287 794 427.745C791.977 428.307 789.989 428.998 788 429.667C786.323 430.232 784.641 430.788 783 431.453C781.298 432.143 779.64 432.935 778 433.76C776.294 434.619 774.605 435.508 773 436.548C771.611 437.447 770.297 438.443 769 439.468L767.001 441.174L765.015 443.039L763.093 445.004L761.329 447C760.286 448.262 759.31 449.594 758.468 451C757.492 452.629 756.608 454.302 755.759 456C754.938 457.642 754.14 459.297 753.453 461C752.794 462.632 752.222 464.305 751.746 466C751.376 467.319 751.076 468.656 750.808 470C750.609 470.995 750.424 471.994 750.289 473C750.064 474.661 750.012 476.335 749.834 478L749.286 482L749.089 484C748.999 485.316 749.005 486.637 749.001 487.955L749 492M1215 432L1214.48 429.841L1214.29 428.841L1214.09 427L1214.01 425.159L1214 422L1157 422L1157 781L1214 781L1214 684L1214 654L1214 646L1214.01 642.002L1214.09 640.025L1214.29 638.161L1214.48 637.159L1215 635L1216.67 635.998L1218.16 636.747L1220.02 637.557L1222 638.306L1225 639.329C1226.32 639.766 1227.65 640.203 1229 640.572L1231 641.105C1232.33 641.427 1233.66 641.719 1235 641.996L1238 642.565C1239.66 642.844 1241.33 643.036 1243 643.271L1245 643.575L1247 643.834L1251 644.166L1255 644.714L1257 644.911C1258.33 645.002 1259.67 644.987 1261 645.003C1262.34 645.019 1263.67 645.043 1265 645.17L1269 645.714C1270 645.838 1270.99 645.917 1272 645.961L1275 645.999L1280 646L1295 646L1310 646L1315 645.999L1318 645.961C1319 645.917 1320 645.844 1321 645.714L1324 645.286L1326 645.089C1327.33 644.998 1328.67 645.005 1330 645.001L1334 644.996C1335 644.99 1336 644.979 1337 644.911L1339 644.714C1340.33 644.533 1341.66 644.303 1343 644.169L1348 643.831L1353 643.166L1356 642.925L1358 642.714C1359.34 642.544 1360.67 642.301 1362 642.08L1365 641.576C1367.68 641.08 1370.35 640.517 1373 639.87C1375.35 639.297 1377.69 638.702 1380 637.971C1382.03 637.328 1384.02 636.582 1386 635.796C1387.69 635.126 1389.37 634.443 1391 633.63C1392.71 632.773 1394.36 631.788 1396 630.796C1397.01 630.185 1398.02 629.576 1399 628.921C1401.42 627.303 1403.79 625.595 1406 623.7C1407.38 622.517 1408.71 621.271 1410 619.985L1412.91 617L1414.7 615C1415.82 613.72 1416.84 612.355 1417.87 611C1419.11 609.367 1420.34 607.723 1421.45 606C1422.49 604.386 1423.39 602.69 1424.29 601C1425.35 599.022 1426.42 597.051 1427.33 595C1428.49 592.398 1429.44 589.705 1430.33 587C1430.77 585.673 1431.19 584.343 1431.57 583L1432.37 580C1432.79 578.341 1433.21 576.679 1433.55 575L1434.08 572L1434.73 568L1435.13 565L1435.83 560L1436.17 556L1436.71 552C1436.84 551.001 1436.92 550.006 1436.96 549C1437.03 547.336 1437 545.665 1437 544L1437 535L1437 523L1437 519C1436.99 518 1436.98 516.998 1436.91 516L1436.71 514C1436.53 512.667 1436.3 511.339 1436.17 510L1435.83 505C1435.66 503.326 1435.36 501.666 1435.13 500L1434.73 497L1434.08 493L1433.55 490C1433.21 488.321 1432.79 486.659 1432.37 485L1431.57 482C1431.08 480.322 1430.56 478.656 1430 477C1429.31 474.979 1428.58 472.982 1427.79 471C1427.26 469.646 1426.68 468.303 1426.03 467C1425.17 465.286 1424.19 463.631 1423.19 462C1421.01 458.474 1418.59 455.092 1415.83 452C1414.91 450.974 1413.96 449.976 1412.99 449.004L1410 446.09L1408 444.3C1406.72 443.184 1405.36 442.162 1404 441.156C1401.74 439.488 1399.41 437.892 1397 436.453C1395.37 435.483 1393.69 434.607 1392 433.759L1389 432.309C1387.68 431.704 1386.34 431.153 1385 430.604C1383.68 430.065 1382.35 429.543 1381 429.079C1379.35 428.512 1377.67 428.054 1376 427.579C1374.67 427.203 1373.34 426.799 1372 426.475C1370.01 425.996 1368.01 425.601 1366 425.2L1362 424.435C1360.34 424.157 1358.67 423.964 1357 423.729L1354 423.285L1352 423.075L1349 422.834L1344 422.17C1341.01 421.885 1338 422.116 1335 421.911L1333 421.714L1330 421.286C1329 421.156 1328 421.083 1327 421.039L1324 421.001L1319 421L1305 421L1283 421L1274 421L1271 421.004C1270 421.013 1269 421.021 1268 421.089C1266.99 421.158 1266 421.288 1265 421.424L1263 421.714C1262 421.832 1261.01 421.927 1260 421.961C1258 422.027 1256 421.979 1254 422.17L1250 422.718L1246 423.155L1242 423.729L1238 424.275C1237 424.428 1236 424.609 1235 424.808C1234 425.009 1232.99 425.228 1232 425.475C1230.66 425.81 1229.33 426.202 1228 426.579C1225.98 427.151 1223.96 427.697 1222 428.463C1220.69 428.976 1219.42 429.572 1218.16 430.2L1217.16 430.745L1216.67 430.99L1215 432M1792 492L1851 492L1851.35 490.329L1851.5 489.841L1851.77 488.84L1852.36 486.975L1852.71 485.995L1853.56 484.004L1854.7 482.043L1855.42 481.105L1857.11 479.394L1859.02 478.008L1860 477.453L1862 476.613L1863 476.305L1865 475.819C1866 475.616 1866.99 475.429 1868 475.275L1871 474.87C1872.67 474.638 1874.33 474.332 1876 474.17C1878 473.976 1880 474.023 1882 473.83L1886 473.286C1887 473.162 1887.99 473.083 1889 473.039C1890.33 472.981 1891.67 473.001 1893 473L1900 473L1931 473L1941 473L1944 473.004C1945 473.013 1946 473.021 1947 473.089C1948.01 473.158 1949 473.285 1950 473.424L1953 473.83C1954.66 473.991 1956.33 473.988 1958 474.089C1959.35 474.17 1960.67 474.383 1962 474.59L1964 474.92L1968 475.612C1969.68 475.935 1971.36 476.27 1973 476.774C1975.07 477.413 1977.07 478.287 1979 479.274C1980.37 479.977 1981.74 480.724 1982.98 481.637C1984.33 482.623 1985.54 483.759 1986.61 485.043C1987.61 486.249 1988.48 487.597 1989.18 489C1989.82 490.298 1990.45 491.619 1990.9 493L1991.23 494L1991.76 496C1992.06 497.326 1992.34 498.658 1992.56 500L1992.84 502L1993.15 504.975C1993.36 506.664 1993.69 508.328 1994 510L1992.33 509.646L1990.84 509.235L1985 507.428C1983.02 506.87 1981.01 506.422 1979 506.004C1978 505.797 1977 505.6 1976 505.438L1974 505.156L1970 504.718L1967 504.286L1965 504.089C1963 503.952 1961 504.048 1959 503.911L1957 503.714L1954 503.286C1953 503.156 1952 503.083 1951 503.039C1949.67 502.981 1948.33 503.001 1947 503L1942 502.999L1939 502.961L1937 502.83L1936 502.714L1933 502.286L1932 502.17L1930 502.039C1928.67 501.981 1927.33 502.001 1926 502L1921 502L1906 502L1886 502L1880 502L1876 502.015C1875 502.039 1874 502.06 1873 502.17L1868 502.83C1867 502.94 1866 502.961 1865 502.985L1859 503.004C1858 503.01 1857 503.021 1856 503.089C1854.32 503.204 1852.66 503.483 1851 503.714L1849 503.911C1847.33 504.033 1845.66 504.008 1844 504.17C1842.66 504.3 1841.33 504.542 1840 504.729C1838.33 504.964 1836.66 505.157 1835 505.435C1833.33 505.716 1831.66 506.065 1830 506.4C1828.33 506.736 1826.66 507.072 1825 507.478C1823.65 507.81 1822.31 508.235 1821 508.699C1818.59 509.552 1816.26 510.602 1814 511.785C1812.99 512.315 1811.98 512.866 1811 513.453C1809.98 514.06 1808.99 514.707 1808 515.36C1806.97 516.037 1805.97 516.757 1805 517.518C1803.6 518.616 1802.28 519.799 1801.01 521.04C1800.04 521.994 1799.09 522.978 1798.18 524.001C1796.79 525.578 1795.54 527.256 1794.36 529C1793.27 530.61 1792.25 532.268 1791.37 534C1790.88 534.978 1790.43 535.984 1790.02 537C1789.48 538.322 1788.98 539.651 1788.52 541L1788.21 542C1787.79 543.315 1787.46 544.662 1787.13 546C1786.72 547.659 1786.35 549.326 1786 551C1785.73 552.326 1785.48 553.659 1785.29 555L1784.72 560L1784.29 563L1784.09 565C1783.98 566.663 1784 568.334 1784 570L1784 576L1784 580C1784 581.333 1784 582.669 1784.09 584C1784.23 586.015 1784.59 588.002 1784.87 590L1785.27 593L1785.75 596C1786.04 597.679 1786.32 599.352 1786.76 601C1787.11 602.349 1787.55 603.68 1788 605C1788.7 607.031 1789.41 609.053 1790.32 611C1790.96 612.37 1791.68 613.706 1792.46 615C1793.3 616.375 1794.21 617.701 1795.16 619C1796.67 621.074 1798.27 623.092 1800.09 624.91C1801.62 626.435 1803.28 627.798 1805 629.1C1806.61 630.322 1808.27 631.484 1810 632.536C1811.62 633.523 1813.31 634.385 1815 635.241C1815.99 635.742 1816.99 636.232 1818 636.688C1820.28 637.715 1822.63 638.548 1825 639.329C1826.33 639.766 1827.66 640.182 1829 640.572L1831 641.105C1832.32 641.447 1833.66 641.719 1835 641.996C1836 642.203 1837 642.4 1838 642.562L1840 642.844L1843 643.155C1844.67 643.355 1846.33 643.668 1848 643.83C1849.66 643.991 1851.33 643.967 1853 644.089L1855 644.286L1858 644.714C1859 644.844 1860 644.917 1861 644.961C1862.33 645.019 1863.67 644.999 1865 645L1870 645.001C1871.33 645.004 1872.67 644.998 1874 645.089L1876 645.286L1879 645.714C1880 645.844 1881 645.917 1882 645.961C1883.66 646.034 1885.33 645.999 1887 646L1895 646L1920 646L1933 646L1937 645.999L1940 645.961L1942 645.83L1943 645.714L1946 645.286L1947 645.17L1949 645.039C1951.66 644.923 1954.34 645.093 1957 644.911C1959.01 644.773 1961 644.395 1963 644.155L1966 643.845L1970 643.271L1974 642.725C1976.35 642.348 1978.69 641.896 1981 641.346C1982.69 640.944 1984.36 640.483 1986 639.921C1987.63 639.363 1989.23 638.702 1990.84 638.09L1992.33 637.546L1994 637L1993.98 638.67L1993.91 640.136L1993.71 641.864L1993.52 642.846L1993 645L2051 645L2051 517L2051 507L2051 503C2050.99 502 2050.98 500.998 2050.91 500C2050.8 498.321 2050.52 496.665 2050.29 495L2050.09 493C2049.97 491.335 2049.99 489.663 2049.83 488C2049.7 486.658 2049.46 485.33 2049.25 484L2048.39 479C2048.07 477.328 2047.74 475.656 2047.35 474C2046.94 472.312 2046.5 470.634 2045.91 469C2045.17 466.936 2044.22 464.959 2043.24 463L2041.69 460L2040.55 458C2039.95 456.977 2039.29 455.988 2038.64 455C2037.96 453.974 2037.24 452.967 2036.48 452C2034.8 449.867 2032.91 447.921 2031 446.004C2029.08 444.087 2027.13 442.196 2025 440.518C2023.1 439.021 2021.05 437.704 2019 436.425C2017.04 435.207 2015.06 434.002 2013 432.971C2011.05 431.997 2009.02 431.205 2007 430.4C2005.34 429.742 2003.69 429.084 2002 428.516L1999 427.59C1997.67 427.199 1996.34 426.81 1995 426.475C1993.35 426.063 1991.67 425.736 1990 425.4C1988.34 425.065 1986.67 424.728 1985 424.435C1983.67 424.203 1982.33 424.055 1981 423.87L1976 423.166L1972 422.834L1967 422.17C1964.01 421.885 1960.99 422.115 1958 421.83L1955 421.424C1954 421.285 1953.01 421.158 1952 421.089C1951 421.021 1950 421.013 1949 421.004L1946 421L1938 421L1913 421L1896 421L1890 421C1888.67 421.001 1887.33 420.981 1886 421.039C1884.99 421.083 1884 421.156 1883 421.286L1880 421.714L1878 421.911C1876 422.048 1874 421.952 1872 422.089L1870 422.286L1866 422.834L1862 423.166L1858 423.729L1854 424.275C1852.66 424.48 1851.33 424.741 1850 425.001C1847.66 425.458 1845.32 425.911 1843 426.424C1840.32 427.017 1837.65 427.69 1835 428.427C1833.66 428.802 1832.33 429.234 1831 429.671C1829.32 430.224 1827.64 430.788 1826 431.453C1822.88 432.72 1819.86 434.286 1817 436.066C1815.28 437.137 1813.61 438.288 1812 439.518C1810.96 440.314 1809.97 441.193 1809.01 442.093C1808.03 443.024 1807.1 444.005 1806.18 445.004L1804.52 447C1803.74 447.955 1803.05 448.982 1802.36 450C1801.27 451.615 1800.24 453.28 1799.32 455C1798.46 456.622 1797.71 458.299 1797.01 460C1796.21 461.962 1795.48 463.954 1794.92 466C1794.56 467.318 1794.27 468.66 1794 470C1793.68 471.659 1793.35 473.317 1793.17 475L1792.83 480L1792.17 484.998C1791.95 487.324 1792 489.667 1792 492M1269 473.286L1271 473.089C1272.33 473.021 1273.66 473.007 1275 473.001L1280 473L1296 473L1313 473L1319 473C1320.33 473.001 1321.67 472.981 1323 473.039C1324.01 473.083 1325 473.162 1326 473.286L1330 473.83C1331.66 473.991 1333.33 473.967 1335 474.089L1337 474.286L1340 474.729L1344 475.275C1346.01 475.598 1348.01 475.98 1350 476.425C1352.37 476.957 1354.74 477.568 1357 478.464C1358.37 479.008 1359.69 479.652 1361 480.349L1362.96 481.549L1364.83 482.927L1365.7 483.681L1367.32 485.301C1370.08 488.35 1371.98 492.116 1373.25 496C1373.9 497.963 1374.36 499.981 1374.79 502C1375.14 503.655 1375.49 505.322 1375.71 507C1375.94 508.661 1375.99 510.335 1376.17 512C1376.38 514.006 1376.77 515.985 1376.91 518C1377 519.331 1377 520.667 1377 522L1377 526L1377 540L1377 545C1377 546.333 1377 547.669 1376.91 549C1376.77 551.014 1376.39 552.997 1376.16 555L1375.71 559C1375.41 561.012 1375.02 563.014 1374.57 565C1374.12 567.025 1373.61 569.045 1372.91 571C1372.16 573.076 1371.22 575.088 1370.12 577C1369.33 578.376 1368.47 579.721 1367.47 580.96C1366.43 582.251 1365.27 583.422 1363.96 584.443C1361.87 586.073 1359.45 587.201 1357 588.174C1355.05 588.952 1353.04 589.596 1351 590.101C1349.35 590.51 1347.68 590.794 1346 591.079C1344.67 591.305 1343.34 591.544 1342 591.714L1340 591.925L1337 592.166C1334.99 592.381 1333.01 592.773 1331 592.911C1328.34 593.093 1325.66 592.907 1323 593.089C1320.65 593.25 1318.35 593.75 1316 593.911C1315 593.979 1314 593.987 1313 593.996L1309 594L1297 594L1283 594L1278 593.999L1275 593.961L1273 593.83L1272 593.714L1269 593.286L1268 593.17L1266 593.039C1264 592.951 1262 593.047 1260 592.911C1257.99 592.772 1256 592.395 1254 592.155L1250 591.718L1246 591.079L1243 590.551L1240 589.869C1238.32 589.458 1236.63 589.036 1235 588.453C1233.27 587.836 1231.62 587.049 1230 586.2C1228.6 585.469 1227.26 584.613 1226.04 583.61C1224.1 582.013 1222.49 580.089 1221.11 577.999C1220.07 576.425 1219.19 574.746 1218.48 573C1217.68 571.062 1217.14 569.033 1216.65 567L1216 564C1215.73 562.671 1215.48 561.34 1215.27 560L1214.73 556C1214.49 554.335 1214.2 552.681 1214.09 551C1214.02 550.002 1214.01 549 1214 548L1214 544L1214 534L1214 522L1214 518C1214.01 517 1214.02 515.998 1214.09 515C1214.2 513.319 1214.49 511.666 1214.73 510C1215.01 507.997 1215.25 505.99 1215.61 504C1215.93 502.318 1216.3 500.652 1216.75 499C1217.02 497.987 1217.36 496.992 1217.7 496C1218.17 494.635 1218.73 493.288 1219.38 492C1221.04 488.698 1223.3 485.681 1226.04 483.188C1227.55 481.815 1229.19 480.622 1231 479.674C1232.59 478.84 1234.29 478.253 1236 477.725C1237.65 477.216 1239.32 476.801 1241 476.425C1242.99 475.98 1244.99 475.598 1247 475.275L1250 474.87L1252 474.579C1253 474.43 1253.99 474.266 1255 474.17C1256.66 474.011 1258.33 474.014 1260 474L1263 473.961C1264.01 473.917 1265 473.838 1266 473.714L1269 473.286M850 554.286L852 554.089L853 554.039L857 554L864 554L879 554L884 554.001L887 554.039L889 554.17L890 554.286L893 554.714L894 554.83L896 554.961L899 554.999L904 555.001L907 555.039C908.005 555.083 909.001 555.162 910 555.286L914 555.83C915.996 556.023 918.004 555.976 920 556.17C921.674 556.332 923.334 556.638 925 556.87L928 557.275C931.385 557.821 934.779 558.508 937.999 559.711L939.985 560.518L940.96 560.996L941.907 561.532L943.671 562.8L944.467 563.532L945.852 565.185L946.911 567.04L947.297 568.015L947.581 569.004L947.775 570.001L947.892 571C947.96 572.001 947.987 572.997 947.995 574C948.004 574.998 948.006 576.003 947.957 577C947.907 578.005 947.832 579.016 947.606 580L947.347 580.999L946.543 582.985L945.991 583.956L944.606 585.775C943.57 586.891 942.346 587.759 940.985 588.431C939.718 589.057 938.355 589.461 937 589.841L935 590.346C933.671 590.649 932.339 590.939 931 591.195C929.672 591.449 928.345 591.687 927 591.833L923 592.166C920.994 592.381 919.015 592.773 917 592.911C914.337 593.093 911.663 592.907 909 593.089L907 593.286L904 593.714C903.002 593.844 902.005 593.917 901 593.961C899.668 594.019 898.332 593.999 897 594L890 594L870 594L857 594L853 593.999C851.667 593.995 850.331 594.002 849 593.911C846.652 593.75 844.348 593.25 842 593.089C841.002 593.021 840 593.01 839 593.004L834 592.999L831 592.961C829.994 592.917 828.999 592.838 828 592.714L825 592.286C824.001 592.156 823.005 592.091 822 592.036C820.667 591.961 819.329 591.979 818 591.83C816.326 591.642 814.658 591.378 813 591.076C811.294 590.764 809.573 590.467 808.005 589.683L806.055 588.486L805.133 587.721L804.279 586.867L803.514 585.945L802.318 583.995L801.573 582L801.189 580L801.04 578C801.003 576.334 800.984 574.667 801.004 573C801.024 571.331 801.032 569.649 801.329 568L801.804 566L802.148 565.001L802.573 564.005L803.703 562.058L805.225 560.303L807.044 558.938C808.552 558.017 810.306 557.57 812 557.135C812.994 556.88 813.994 556.663 815 556.464L817 556.173L818 556.086L821 555.914L823 555.714L826 555.286L827 555.17L829 555.039C830.331 554.981 831.668 555.001 833 555L840 555C841.332 554.999 842.669 555.019 844 554.961C845.005 554.917 846.001 554.838 847 554.714L850 554.286M1894 554.286L1896 554.089L1897 554.039L1901 554L1908 554L1922 554L1927 554.001L1930 554.039L1932 554.17L1933 554.286L1936 554.714L1937 554.83L1939 554.961L1942 554.999L1947 555.001L1950 555.039C1951 555.083 1952 555.156 1953 555.286L1956 555.714L1958 555.911C1960 556.051 1962 555.976 1964 556.17C1965.01 556.268 1966 556.431 1967 556.59L1970 557.081C1972.35 557.477 1974.69 557.911 1977 558.478C1978.35 558.81 1979.69 559.229 1981 559.7L1983 560.468L1984.96 561.417L1986.79 562.649L1988.35 564.214L1989.54 566.043L1989.99 567.015L1990.35 568.004L1990.79 570L1990.96 572L1991 575C1990.99 576.002 1990.96 576.999 1990.91 578L1990.66 580L1990.11 581.996L1989.68 582.985L1988.49 584.892L1986.87 586.581L1985.95 587.298L1984 588.442L1983 588.891L1981 589.637C1979.7 590.101 1978.35 590.429 1977 590.714L1974 591.245C1972.67 591.467 1971.34 591.676 1970 591.834L1966 592.166C1963.99 592.381 1962.01 592.773 1960 592.911C1957.34 593.093 1954.66 592.907 1952 593.089L1950 593.286L1947 593.714C1946 593.844 1945 593.917 1944 593.961C1942.67 594.019 1941.33 593.999 1940 594L1933 594L1914 594L1901 594L1897 593.999C1895.67 593.995 1894.33 594.002 1893 593.911C1890.65 593.75 1888.35 593.25 1886 593.089C1884.67 592.998 1883.33 593.004 1882 593.001L1877 592.999L1874 592.961C1872.99 592.917 1872 592.838 1871 592.714L1868 592.286C1867 592.156 1866.01 592.091 1865 592.036C1863.67 591.961 1862.33 591.979 1861 591.83C1859.33 591.642 1857.66 591.378 1856 591.076C1854.3 590.765 1852.57 590.474 1851.02 589.683L1849.11 588.486L1848.22 587.721L1847.42 586.867L1846.09 584.982L1845.57 583.995C1845.15 583.023 1844.75 582.041 1844.53 581L1844.19 579L1844.09 578L1844.04 577C1844 575.668 1843.98 574.333 1844.01 573C1844.04 571.995 1844.09 571.001 1844.17 570L1844.47 568L1844.94 566.001L1845.26 565.004L1846.14 563.044L1847.43 561.225L1848.23 560.419L1850.04 559.089C1851.56 558.165 1853.29 557.667 1855 557.24L1857 556.808L1859 556.439L1861 556.167L1865 555.834L1869 555.286C1870 555.162 1870.99 555.083 1872 555.039C1873.66 554.966 1875.33 555.001 1877 555L1884 555C1885.33 554.999 1886.67 555.019 1888 554.961C1889.01 554.917 1890 554.838 1891 554.714L1894 554.286M580 630L578.329 631.63L576.84 632.991L572 637.166L567 641.714C565.687 642.86 564.34 643.967 563 645.079L560 647.55L558 649.102C556.693 650.104 555.34 651.044 554 652L549 655.579L544.001 659.14L541.059 661.295C539.932 662.172 538.772 663.079 538.028 664.325C537.003 666.039 537.041 668.074 537.005 670.001L537 673L537 677L537 697L537 703L536.996 707C536.98 708.333 536.976 709.673 536.83 711L536.169 716C536.036 717.33 535.999 718.667 535.914 720L535.714 722L535.271 725C535.036 726.667 534.843 728.339 534.565 730C534.228 732.009 533.801 734.004 533.4 736L532.576 740C532.199 741.673 531.791 743.338 531.37 745L530.573 748C530.093 749.681 529.547 751.341 528.999 753L527.309 757.998L525.907 761.839L525.587 762.841L525.414 763.329L525 765L526.671 764.574L528.16 764.028C529.121 763.622 530.075 763.198 531.005 762.726L533 761.691L539 758.28C540.342 757.512 541.692 756.76 543 755.936C545.716 754.225 548.389 752.439 551 750.573C552.687 749.367 554.341 748.116 556 746.873L561 743.112L563 741.54L565 739.866L568 737.271L569.999 735.575L571.985 733.83L572.956 732.911L574.772 730.985L576.272 728.999L577.347 727L577.736 726L578.316 724L578.532 723L578.841 721L578.949 720L579.155 718L579.718 714L580.155 710L580.831 705L581.169 700C581.303 698.661 581.533 697.333 581.714 696L581.911 694C582.116 691.005 581.884 687.995 582.089 685C582.25 682.652 582.75 680.348 582.911 678C583.002 676.669 582.996 675.333 582.999 674L583 669L583 660L582.996 657C582.987 656 582.979 654.999 582.911 654L582.714 652L582.286 649C582.156 648.002 582.083 647.005 582.039 646L582.004 644L581.996 640C581.988 638.668 581.971 637.33 581.827 636.005C581.692 634.759 581.463 633.528 581.126 632.321L580.809 631.517L580.683 631.086L580 630M1292 689.464C1290.99 689.646 1289.98 689.88 1289 690.159L1287 690.749C1285.99 691.095 1284.98 691.453 1284 691.88C1282.26 692.637 1280.55 693.522 1279 694.638C1277.28 695.883 1275.72 697.353 1274.39 699.015C1272.32 701.609 1270.9 704.729 1270.33 708C1270.04 709.647 1270.01 711.332 1270.01 713C1270.01 714.002 1270.04 715 1270.09 716L1270.33 718L1270.53 719L1270.79 720L1271.48 722C1272.06 723.406 1272.77 724.754 1273.65 725.996C1274.63 727.392 1275.79 728.654 1277.04 729.815C1279.11 731.737 1281.48 733.351 1284 734.623C1285.92 735.59 1287.95 736.334 1290 736.961C1290.99 737.263 1291.99 737.531 1293 737.765C1295 738.227 1297.02 738.613 1299 739.158C1300.35 739.531 1301.69 739.952 1303 740.464C1304.02 740.863 1305.01 741.322 1306 741.786L1308 742.799L1308.98 743.353L1310.9 744.637L1311.79 745.39L1313.35 747.105L1314.54 749.015L1314.99 750.004L1315.35 751.001L1315.78 753L1315.91 755L1315.88 756L1315.57 758L1314.82 759.999L1314.26 760.996L1313.57 761.985L1311.89 763.892L1309.98 765.581L1309 766.297L1307 767.427L1306 767.852L1304 768.467C1302.04 768.943 1300.01 768.992 1298 768.992C1296.33 768.992 1294.65 768.96 1293 768.671L1291 768.211L1290 767.895L1288 767.12L1286 766.175L1285 765.637L1283 764.363L1281 762.806L1279 761.11L1278 760.322L1276 759.175L1274 758.921L1272 759.662L1270.06 761.153L1269.17 762.059L1267.75 764.004L1267.35 764.997L1267.35 766.961L1267.75 767.91L1268.38 768.826L1270.06 770.532L1272 772.076C1272.99 772.785 1273.98 773.475 1275 774.123C1277.82 775.911 1280.83 777.416 1284 778.477C1285.96 779.133 1287.98 779.584 1290 779.996C1291.66 780.334 1293.32 780.635 1295 780.829C1295.99 780.944 1297 780.971 1298 780.971C1299 780.971 1300 780.927 1301 780.83C1302.01 780.733 1303 780.563 1304 780.41L1306 780.076L1307 779.904C1308 779.71 1309.02 779.526 1310 779.215L1312 778.532L1314 777.672L1316 776.637L1317 776.031C1318.44 775.152 1319.75 774.041 1320.98 772.895C1321.97 771.977 1322.89 770.999 1323.79 769.996L1325.35 768L1326.56 766L1327.03 765L1327.44 764L1328.07 762C1328.43 760.692 1328.68 759.349 1328.83 758C1328.93 757.004 1328.97 756.001 1328.98 755C1329 753.331 1328.94 751.653 1328.7 750C1328.4 747.949 1327.85 745.922 1327.07 744C1326.65 742.967 1326.16 741.984 1325.63 741.004L1324.36 739.039L1322.79 737.174C1321.93 736.273 1320.98 735.431 1319.98 734.684C1318.71 733.725 1317.42 732.776 1316 732.036L1315 731.518C1314.01 731.052 1313.02 730.609 1312 730.208C1311.01 729.816 1310.01 729.427 1309 729.079C1308.01 728.737 1307.01 728.439 1306 728.155L1302 727.116C1300.66 726.756 1299.32 726.393 1298 725.975C1296.66 725.551 1295.32 725.124 1294 724.651C1292.63 724.163 1291.26 723.654 1290 722.914L1288.04 721.581L1287.11 720.775L1286.23 719.892L1284.74 717.985L1283.74 715.999L1283.44 715L1283.15 713L1283.24 711L1283.44 710.001L1284.18 708.015L1285.43 706.105L1286.23 705.214L1287.11 704.394L1289.02 702.995L1291 701.92L1292 701.483C1292.98 701.114 1293.97 700.735 1295 700.529L1297 700.189L1298 700.108L1300 700.108C1301.01 700.163 1302.01 700.305 1303 700.518C1304.02 700.737 1305.01 701.048 1306 701.363C1307.38 701.801 1308.72 702.37 1310 703.046C1311.39 703.78 1312.67 704.684 1314 705.52L1316 706.589L1318 707.053L1320 706.688L1321.94 705.548L1323.62 703.89L1324.25 702.956L1324.79 701L1324.65 700.014L1323.62 698.093L1321.94 696.329L1320.98 695.529L1320 694.789L1318 693.479C1316.72 692.707 1315.38 692.037 1314 691.475C1312.7 690.946 1311.36 690.526 1310 690.159C1308.36 689.714 1306.69 689.355 1305 689.174C1303.34 688.995 1301.67 689.006 1300 689.001L1296 689.039L1294 689.174L1292 689.464M1483 718L1483 728L1494 728L1494 781L1505 781L1505 728L1513 728L1516 727.995L1517 727.981L1518.94 727.852L1519.85 727.682L1520.68 727.397L1521.4 726.972L1521.97 726.397L1522.68 724.853L1522.94 723.005C1523.04 721.342 1523 719.666 1523 718L1517 718L1513 717.995L1511.01 717.941L1510.02 717.852L1509.07 717.682L1507.41 716.972L1506.77 716.397L1506.31 715.682L1506.03 714.852L1505.89 713.941L1505.9 711.995L1506.07 710L1506.21 709L1506.74 707.001L1507.74 705.019L1508.43 704.055L1509.23 703.133L1510.11 702.279L1511.04 701.514L1513 700.322L1515 699.613L1516 699.438L1518 699.424L1519 699.573L1521 700.133L1522 700.515L1523.96 701.387L1524.84 701.809L1525.84 702.227L1526.33 702.463L1528 703L1530.22 699.864L1531.38 698.136L1531.93 697.154L1532.24 696.67L1533 695L1530.84 693.585L1529.84 692.97L1527.98 691.971L1526 691.093L1525 690.711C1523.69 690.252 1522.36 689.809 1521 689.518L1519 689.184C1518 689.09 1517.01 689.032 1516 689.019C1514.33 688.995 1512.65 689.048 1511 689.326C1509.98 689.497 1508.99 689.767 1508 690.055L1507 690.388L1505 691.189L1503.04 692.225L1501.19 693.558L1500.33 694.34L1499.53 695.188L1498.11 697.04C1497.45 697.984 1496.91 698.987 1496.38 700.001L1495.91 701L1495.11 703L1494.53 705C1494.28 705.977 1494.18 706.997 1494.09 708C1494.01 708.996 1494.02 710.001 1493.98 710.999L1493.85 712.981L1493.4 714.852L1492.97 715.682L1492.4 716.397L1491.68 716.972L1490.85 717.397L1489.94 717.682L1488.02 717.941C1486.35 718.039 1484.67 717.999 1483 718M1581 698L1581 718L1570 718L1570 728L1581 728L1581 754L1581 759C1581.01 760.666 1580.99 762.341 1581.17 764L1581.47 766L1581.93 768L1582.55 769.999L1583.35 771.985L1584.37 773.907L1585.64 775.671L1587.21 777.196L1588.1 777.853L1589.04 778.431L1590.02 778.925L1592 779.671C1592.98 779.982 1594 780.188 1595 780.38C1596.32 780.633 1597.66 780.835 1599 780.896C1601.71 781.018 1604.4 780.578 1607 779.829C1608.37 779.434 1609.72 778.964 1611 778.32C1611.99 777.819 1612.91 777.221 1613.84 776.602L1614.84 775.829L1617 774L1616.1 772.333L1615.15 770.884L1613.82 769.134L1613.47 768.667L1612 767L1610.33 767.717L1608.84 768.461L1607.96 768.911L1606 769.786L1605 770.135L1604 770.399L1602 770.583L1600 770.218L1599.02 769.806L1598.04 769.254L1596.23 767.772L1594.74 765.956L1593.74 763.996L1593.23 762L1593.04 760L1593 757L1593 750L1593 728L1603 727.999L1605.98 727.941L1606.94 727.852L1608.68 727.397L1609.4 726.972L1610.4 725.682L1610.68 724.853L1610.83 723.946L1610.83 722.054L1610.68 721.147L1610.4 720.318L1609.4 719.028L1607.85 718.318L1606.94 718.148L1605.98 718.059L1604 718.005L1600 718L1593 718L1593 698L1581 698M1399 716.44C1396.62 716.822 1394.25 717.391 1392 718.269C1389.9 719.09 1387.89 720.157 1386 721.387C1384.29 722.503 1382.63 723.732 1381.19 725.184C1379.47 726.908 1378.1 728.905 1376.88 731L1375.79 733L1375.27 734L1374.35 736L1373.6 738C1373.17 739.299 1372.86 740.654 1372.62 742C1372.44 742.995 1372.25 743.992 1372.17 745C1372.06 746.333 1372 747.662 1372.02 749C1372.03 750.001 1372.07 751.004 1372.17 752C1372.35 753.693 1372.71 755.359 1373.16 757C1373.81 759.418 1374.68 761.77 1375.82 764C1377.44 767.162 1379.54 770.132 1382.17 772.532C1383.06 773.341 1384.02 774.105 1385.01 774.779C1385.99 775.438 1386.96 776.098 1388 776.651L1390 777.673C1390.99 778.117 1391.98 778.543 1393 778.899C1394.63 779.466 1396.31 779.854 1398 780.192C1399.65 780.523 1401.32 780.809 1403 780.907C1404 780.965 1405 780.946 1406 780.907L1407 780.829L1409 780.561C1410.01 780.403 1411.01 780.201 1412 779.985C1413.35 779.69 1414.69 779.359 1416 778.896C1418.11 778.146 1420.13 777.125 1422 775.892L1424 774.471L1424.99 773.671L1425.96 772.815L1427.81 770.96L1428.67 769.985L1429.47 768.996L1430.9 767L1432.12 765L1433.19 763L1433.68 762C1434.26 760.693 1434.81 759.378 1435.21 758C1435.69 756.363 1435.9 754.684 1436.13 753L1436.38 751L1436.54 749L1436.49 747L1436.13 744L1435.69 741L1435.47 740L1434.9 738L1434.53 737C1434.12 735.985 1433.69 734.987 1433.21 734C1432.38 732.272 1431.48 730.56 1430.36 729.001L1428.79 727.015L1427.9 726.04L1426.96 725.093L1425 723.329L1424 722.529L1422 721.108C1420.42 720.071 1418.75 719.19 1417 718.475C1415.7 717.943 1414.35 717.542 1413 717.159L1411 716.669C1410.01 716.457 1409.01 716.281 1408 716.174C1406.67 716.033 1405.33 716.002 1404 716.019C1403 716.031 1402 716.088 1401 716.171L1399 716.44M1799 723L1799.46 724.671L1800.09 726.156C1800.57 727.079 1801.09 727.968 1801.65 728.844L1802.69 730.329L1804 732L1805.67 731.142L1806.16 730.863C1807.75 729.992 1809.33 729.074 1811 728.359L1813 727.599C1814.32 727.2 1815.65 726.874 1817 726.619C1818.65 726.308 1820.32 726.071 1822 726.079C1824.05 726.089 1826.07 726.433 1828 727.109L1829.98 727.92L1830.96 728.417L1832.79 729.649L1834.35 731.214L1834.99 732.105L1835.99 734.014L1836.61 735.976L1836.79 736.955L1836.9 737.839L1836.98 739.329L1837 741L1835.33 740.985C1834.54 740.96 1833.74 740.92 1832.96 740.83C1830.97 740.604 1829 740.226 1827 740.089C1826 740.021 1825 740.005 1824 740.005L1821 740.039L1819 740.17L1818 740.286L1815 740.758C1813.66 740.991 1812.31 741.221 1811 741.598C1809.98 741.892 1808.98 742.26 1808 742.684L1806 743.649L1805 744.214L1803.04 745.557L1802.1 746.34L1801.21 747.188L1799.65 749.04L1798.42 751.004L1797.92 752.001L1797.48 753L1796.79 755L1796.33 757L1796.19 758L1796.09 759L1796.02 761L1796.02 763C1796.06 764.343 1796.1 765.681 1796.39 767L1796.97 768.999L1797.37 769.996L1797.84 770.985L1798.97 772.907L1799.64 773.815L1801.21 775.471L1803.04 776.891L1804.02 777.517L1805 778.081L1806 778.586L1808 779.39L1809 779.696C1809.99 779.957 1810.99 780.191 1812 780.381C1812.99 780.568 1813.99 780.734 1815 780.826C1816 780.917 1817 780.941 1818 780.896C1819.35 780.834 1820.67 780.615 1822 780.384L1824 779.985C1825.01 779.763 1826.01 779.531 1827 779.225C1828.38 778.799 1829.72 778.268 1831 777.587C1831.99 777.053 1832.92 776.429 1833.84 775.766L1835.33 774.557L1837 773L1837.02 774.67L1837.09 776.136L1837.29 777.864L1837.48 778.846L1838 781L1841.16 780.999C1842.42 780.993 1843.69 780.999 1844.94 780.852L1846.68 780.397L1847.4 779.972L1847.97 779.397L1848.68 777.852L1848.85 776.941L1848.98 774.995L1849 772L1849 766L1849 746L1849 742C1848.98 740.665 1848.96 739.33 1848.83 738C1848.66 736.316 1848.33 734.654 1847.98 733C1847.7 731.65 1847.37 730.282 1846.86 729L1845.91 727.001L1845.3 726.004L1844.58 725.015L1842.89 723.105L1840.98 721.394L1840 720.649L1838 719.417L1837 718.92L1835 718.109C1834.02 717.766 1833.02 717.512 1832 717.314C1830.68 717.057 1829.33 716.919 1828 716.729C1826.34 716.492 1824.68 716.179 1823 716.179C1821.65 716.179 1820.33 716.389 1819 716.577L1817 716.845L1814 717.17L1813 717.322L1812 717.517C1810.65 717.844 1809.31 718.233 1808 718.7C1806.65 719.181 1805.31 719.716 1804.02 720.358L1801.16 721.866L1800.67 722.143L1799 723M2049 770L2047.92 768.333L2047.51 767.866L2046.72 766.884C2045.53 765.541 2044.26 764.283 2043 763L2041.33 763.758L2040.84 764.069L2039.84 764.635L2037 766.459L2035 767.598C2034.02 768.079 2033.03 768.529 2032 768.892C2030.38 769.462 2028.69 769.793 2027 770.073C2025.35 770.345 2023.68 770.61 2022 770.53L2020 770.291L2019 770.083L2018 769.826L2017 769.531L2015 768.786L2014 768.316L2012 767.146L2010.02 765.66L2009.04 764.812L2008.1 763.906L2007.21 762.96L2005.65 760.996L2004.45 759.002L2003.62 757.025L2003.05 755.161L2002.75 754.159L2002.63 753.671L2002 752L2033 752L2042 752L2045.98 751.966L2047.84 751.839L2048.84 751.642L2049.33 751.585L2051 751L2050.42 747.839L2050.13 745.975L2049.73 743C2049.51 741.661 2049.27 740.326 2048.98 739C2048.77 737.992 2048.53 736.985 2048.23 736L2047.52 734L2046.62 732L2045.52 730L2044.21 728C2043.49 726.946 2042.65 725.979 2041.81 725.015L2040.91 724.043L2039.96 723.105L2038 721.39L2036 719.97L2035 719.367L2033 718.363L2031 717.599L2030 717.301C2029.01 717.043 2028.01 716.809 2027 716.619C2025.68 716.369 2024.34 716.177 2023 716.09C2021.67 716.004 2020.33 716.026 2019 716.09C2017.65 716.155 2016.32 716.386 2015 716.619C2013.65 716.855 2012.3 717.172 2011 717.598C2009.62 718.051 2008.31 718.648 2007 719.278L2006 719.8C2004.59 720.534 2003.25 721.404 2002 722.39L2000.04 724.105L1999.09 725.043L1998.19 726.015L1996.53 728.001L1995.8 729L1995.13 730L1994 732C1993.5 732.969 1993.09 733.979 1992.71 735C1992.23 736.309 1991.83 737.649 1991.48 739L1991.01 741L1990.62 743L1990.29 745L1990.17 746L1990.08 748C1990.08 749.686 1990.33 751.339 1990.59 753L1990.92 755C1991.16 756.346 1991.4 757.687 1991.78 759C1992.3 760.728 1993.01 762.39 1993.81 764C1995.24 766.854 1996.98 769.59 1999.19 771.907C2001.16 773.973 2003.46 775.703 2006 777.004C2008.21 778.136 2010.6 778.889 2013 779.497C2013.99 779.747 2015 779.9 2016 780.076L2018 780.41C2019.33 780.618 2020.65 780.837 2022 780.871C2024.36 780.93 2026.69 780.47 2029 780.079C2030.68 779.796 2032.36 779.526 2034 779.073L2036 778.452L2038 777.662L2039 777.204L2041 776.2L2042 775.649L2043.98 774.387L2045.84 772.948L2047.33 771.626L2049 770M1906 717L1906 781L1910.04 780.999C1911.02 780.995 1912 780.998 1912.98 780.941L1914.85 780.682L1916.4 779.972L1916.97 779.397L1917.4 778.682L1917.85 776.941C1918 775.632 1917.99 774.316 1918 773L1918 770L1918 753L1918 748C1918.03 745.989 1918.06 743.967 1918.53 742C1919.05 739.852 1920 737.857 1921.25 736.04C1922.13 734.762 1923.15 733.571 1924.3 732.529C1925.15 731.765 1926.07 731.084 1927.04 730.483C1928.58 729.531 1930.23 728.791 1932 728.394C1933.63 728.027 1935.31 728.027 1936.98 728.004L1942 728L1942.19 726.329L1942.46 724.839L1943.54 720.161L1943.71 719.159L1943.81 718.671L1944 717L1937 717.001C1935 717.011 1932.97 716.963 1931 717.39C1929.24 717.773 1927.59 718.486 1926 719.328L1924.04 720.467L1923.11 721.1L1922.23 721.764L1920.74 723.169L1919.77 724.431L1919 726L1917.98 724.329L1917.45 722.844L1917.12 721.02C1917.06 720.238 1917.02 719.457 1917 718.671L1917 717L1906 717M1660 720L1660.53 721.671L1662 726.005L1664.67 734L1674 762L1677.67 773L1678.35 774.995L1679.11 776.941C1679.52 777.825 1679.98 778.717 1680.7 779.397L1681.42 779.972L1683.11 780.682L1684.04 780.852L1686 780.981L1687.96 780.999L1692 781L1692.35 779.329L1692.5 778.841L1692.77 777.839L1694 773.998L1695.67 769L1701 753L1702.67 748C1703.31 746.065 1703.96 744.134 1704.48 742.161L1704.8 740.671L1705 739L1705.94 740.671L1706.6 742.161C1707.24 743.752 1707.79 745.376 1708.33 747L1710 752L1715.33 768L1717 773L1717.67 774.995L1718.02 775.981C1718.59 777.448 1719.16 779.027 1720.51 779.972C1721.52 780.681 1722.81 780.883 1724.02 780.941L1726 780.976L1726.98 780.941L1728.89 780.682L1729.78 780.397L1731.3 779.397C1732.02 778.717 1732.48 777.825 1732.89 776.941L1733.65 774.995L1734.33 773L1735.67 769L1736.98 765L1738.5 760L1739.5 757L1740.74 753L1742.14 749L1743.5 745L1745.26 740C1745.69 738.68 1746.03 737.332 1746.42 736C1747.12 733.648 1747.9 731.326 1748.67 729C1749.31 727.065 1749.96 725.134 1750.48 723.161L1750.8 721.671L1751 720L1739 720L1738.67 721.671L1738.33 723.161C1737.75 725.457 1737.07 727.723 1736.42 730L1735.58 733L1734.42 737L1733.58 740L1732.42 744L1731.58 747L1730.42 751L1729 756L1727.3 761.839L1726.93 762.841L1726.77 763.329L1726 765L1725.22 763.329L1724.65 761.839C1724.2 760.571 1723.8 759.29 1723.42 757.998L1721.97 753L1719.03 744L1717.58 739C1716.89 736.647 1716.11 734.326 1715.33 732C1714.78 730.338 1714.22 728.679 1713.72 727.002C1713.2 725.241 1712.73 723.463 1712.33 721.671L1712 720L1701 720C1700.34 722.337 1699.7 724.682 1698.97 727.002C1697.72 731.021 1696.28 734.979 1695.03 739L1693.58 744L1692.66 747C1691.48 750.677 1690.18 754.313 1689.03 757.998C1688.3 760.318 1687.66 762.663 1687 765L1686.22 763.329L1686.04 762.841L1685.64 761.839C1685.08 760.236 1684.53 758.624 1684.03 757C1683.41 755.012 1682.87 753.001 1682.29 751L1681.42 748L1680.58 745L1679.42 741L1678.28 737L1677.02 733L1675.58 728C1675.3 727.005 1675.02 725.999 1674.69 725.019C1674.2 723.577 1673.73 721.976 1672.44 721.028C1671.17 720.094 1669.5 720.086 1668 720.019L1665.02 720L1660 720M1402 726.316C1403 726.192 1404 726.147 1405 726.213C1406.35 726.301 1407.7 726.571 1409 726.928L1411 727.563L1413 728.442L1415 729.652L1416.96 731.214L1417.9 732.105L1419.61 734.015L1420.36 735.004L1421.03 736.001L1421.63 737L1422.63 739L1423.38 741L1423.65 742L1424.06 744L1424.37 746L1424.54 748L1424.48 750C1424.37 751.007 1424.23 752.001 1424.06 753C1423.84 754.36 1423.52 755.707 1423.03 757C1422.08 759.557 1420.61 761.929 1418.79 763.957C1417.39 765.511 1415.79 766.91 1414 767.992C1413.05 768.564 1412.05 769.021 1411 769.387L1409 769.955L1408 770.177L1406 770.521L1404 770.656L1402 770.493L1401 770.305L1400 770.069L1398 769.451C1395.54 768.577 1393.14 767.357 1391.19 765.61C1389.42 764.03 1388.05 762.062 1386.91 759.999C1385.86 758.118 1385.01 756.1 1384.53 754C1384.15 752.357 1384.04 750.681 1384.02 749C1384 747.332 1384.05 745.648 1384.33 744C1384.5 742.978 1384.77 741.993 1385.05 741L1385.39 740L1386.19 738L1386.67 737.001L1387.22 736.004L1388.56 734.04C1390.3 731.802 1392.52 729.924 1395 728.558L1397 727.613L1398 727.249L1400 726.684L1402 726.316M2038 743L2003 743L2003.09 740.841L2003.19 739.839L2003.56 737.975L2003.85 736.996L2004.23 736.002L2005.23 734.04C2005.83 733.058 2006.53 732.15 2007.34 731.329C2008.43 730.227 2009.68 729.31 2011.01 728.533C2012.57 727.63 2014.25 726.948 2016 726.532L2018 726.186L2019 726.097L2020 726.055C2021.01 726.055 2022 726.068 2023 726.186C2024.36 726.346 2025.7 726.657 2027 727.109C2029.1 727.84 2031.14 728.883 2032.79 730.394L2034.36 732.105L2035.63 734.015L2036.63 735.999L2037.36 737.975L2037.79 739.839L2037.9 740.841L2038 743M1837 750L1837 755.025C1836.98 756.349 1836.98 757.686 1836.79 759C1836.63 760.027 1836.39 761.034 1835.99 761.996L1834.99 763.957L1834.35 764.895L1833.61 765.787L1831.9 767.362L1830.96 768.03L1829 769.161L1828 769.633L1827 770.03L1825 770.61C1823.68 770.897 1822.34 770.942 1821 770.984L1819 770.984L1817 770.895L1816 770.786L1814.02 770.347L1813.04 769.991L1812.1 769.543L1810.39 768.347C1808.59 766.737 1807.49 764.404 1807.31 761.999L1807.37 760L1807.55 759.001L1807.81 758.004L1808.15 757.015L1808.57 756.043L1809.7 754.214L1811.22 752.652L1812.11 752.005L1813.04 751.442L1815 750.563L1817 749.928L1819 749.468L1820 749.301L1822 749.09C1823 749.017 1824 749.008 1825 749.008C1826.34 749.008 1827.67 749.043 1829 749.17C1830.62 749.324 1832.22 749.633 1833.84 749.83L1835.33 749.958L1837 750z"/>
</svg>
