<?xml version="1.0" encoding="UTF-8"?><svg id="a" xmlns="http://www.w3.org/2000/svg" xmlns:xlink="http://www.w3.org/1999/xlink" viewBox="0 0 304 86"><defs><radialGradient id="b" cx="55.319809" cy="27.86882" fx="55.319809" fy="27.86882" r="43.868696" gradientTransform="translate(105.928255 -8.481195) rotate(116.911863) scale(1 1.028929)" gradientUnits="userSpaceOnUse"><stop offset=".032118" stop-color="#b9d9eb"/><stop offset=".38268" stop-color="#41b6e6"/><stop offset=".70711" stop-color="#0084ca"/><stop offset=".92388" stop-color="#004b87"/><stop offset="1" stop-color="#002554"/></radialGradient><radialGradient id="c" cx="48.156014" cy="28.279401" fx="48.156014" fy="28.279401" r="73.922092" gradientTransform="translate(107.434756 95.596518) rotate(-166.795807) scale(.966844) skewX(.157531)" gradientUnits="userSpaceOnUse"><stop offset=".023053" stop-color="#c63527"/><stop offset=".5" stop-color="#e35205"/><stop offset=".86603" stop-color="#ff8f1c"/><stop offset="1" stop-color="#ffb549"/></radialGradient><radialGradient id="d" cx="61.090955" cy="25.486519" fx="61.090955" fy="25.486519" r="47.153965" gradientUnits="userSpaceOnUse"><stop offset="0" stop-color="#0084ca"/><stop offset=".8" stop-color="#002554"/></radialGradient><radialGradient id="e" cx="91.831674" cy="-46.880948" fx="91.831674" fy="-46.880948" r="139.285332" gradientUnits="userSpaceOnUse"><stop offset=".464122" stop-color="#0084ca"/><stop offset=".784598" stop-color="#004b87"/><stop offset=".879357" stop-color="#002554"/></radialGradient><linearGradient id="f" x1="59.569976" y1="22.703025" x2="65.513023" y2="76.613827" gradientUnits="userSpaceOnUse"><stop offset=".539432" stop-color="#ffb549"/><stop offset=".677609" stop-color="#ff8f1c"/><stop offset=".878845" stop-color="#e35205"/><stop offset="1" stop-color="#c63527"/></linearGradient><linearGradient id="g" x1="40.440562" y1="20.133439" x2="76.322781" y2="61.236815" gradientUnits="userSpaceOnUse"><stop offset="0" stop-color="#c63527"/><stop offset=".14271" stop-color="#e35205"/><stop offset=".393828" stop-color="#ff8f1c"/><stop offset=".740616" stop-color="#ffb549"/></linearGradient><linearGradient id="h" x1="36.848456" y1="65.802692" x2="37.628153" y2="65.802692" gradientUnits="userSpaceOnUse"><stop offset=".161671" stop-color="#d5411f"/><stop offset=".282391" stop-color="#df581f"/><stop offset=".448579" stop-color="#ec731f"/><stop offset=".597172" stop-color="#f3831f"/><stop offset=".712333" stop-color="#f6891f"/><stop offset="1" stop-color="#f6891f"/></linearGradient><linearGradient id="i" x1="41.159453" y1="67.875678" x2="41.262587" y2="67.875678" xlink:href="#h"/><linearGradient id="j" x1="28.520303" y1="64.506801" x2="45.226775" y2="25.459955" gradientUnits="userSpaceOnUse"><stop offset="0" stop-color="#c63527"/><stop offset=".239118" stop-color="#e35205"/><stop offset=".690522" stop-color="#ff8f1c"/><stop offset="1" stop-color="#ffb549"/></linearGradient><linearGradient id="k" x1="36.937821" y1="67.05183" x2="81.738983" y2="32.605871" gradientUnits="userSpaceOnUse"><stop offset="0" stop-color="#ffb549"/><stop offset=".267571" stop-color="#ff8f1c"/><stop offset=".741744" stop-color="#e35205"/><stop offset="1" stop-color="#c63527"/></linearGradient><linearGradient id="l" x1="37.199126" y1="66.838147" x2="41.81561" y2="66.838147" gradientUnits="userSpaceOnUse"><stop offset="0" stop-color="#f6891f"/><stop offset=".207151" stop-color="#f4841f"/><stop offset=".428995" stop-color="#ee771f"/><stop offset=".657681" stop-color="#e4621f"/><stop offset=".889726" stop-color="#d6441f"/><stop offset=".91464" stop-color="#d5411f"/></linearGradient></defs><path d="M79.995514,43.430896c-.06602,1.237605-.185646,2.466977-.367162,3.700453-.03301.25164-.074253.495047-.115497.746688,0,.008259-.004129.020622-.004129.02888-.008259.041243-.012388.086616-.016518.127885-.041243.25577-.090746.50741-.140248.75905-.882831,4.632786-2.594837,9.150026-5.086565,13.287765-.156765.259899-.313531.523928-.486788.783827-.016492.024751-.02888.045373-.045373.070124-.165024.259899-.334152.519798-.507435.783802-2.244167,3.353912-5.016416,6.41907-8.304309,9.042788-.589947.470296-1.17574.919945-1.778025,1.33661q-.008259.004129-.012388.004129c-.268158.193879-.523928.379525-.79619.552783-.06189.041269-.107263.082512-.169153.123781h-.016492c-.272262.185621-.532161.363008-.808578.536291h-.016492c-1.68315,1.064322-3.419907,1.971905-5.189699,2.73098-1.043701.449649-2.09979.841563-3.164137,1.179844-.004129,0-.008259.004129-.012363.008259-.556938.181516-1.11385.346515-1.674892.495047-.738454.198009-1.476883.371266-2.215337.519773,0,0-.008234.004129-.012363.004129-.094875.016518-.181516.03301-.272287.045373,0,0-.008234.008259-.012363.008259-.243407.045373-.482659.086641-.726066.127885-.107263.016518-.202138.03301-.309401.045373h-.012363c-.235148.041269-.462037.082512-.701315.115522h-.004129c-.115522.016492-.226889.02888-.342411.041243h-.008234c-.160895.020647-.31766.041269-.474425.057761h-.004129c-.367162.045373-.730195.082512-1.093203.107263-.090771.012363-.177412.016492-.268158.024751-3.568439.264029-7.112101-.03301-10.515516-.882831-.235148-.057761-.470296-.115497-.705444-.181516-.177387-.049502-.350645-.099004-.528032-.148507-.016518-.004129-.041269-.012388-.057761-.016492-.181516-.053632-.358904-.103134-.54042-.169153-.020622-.004129-.045373-.012363-.070124-.020622-2.54536-.79619-4.99169-1.91004-7.277125-3.33742-.004129,0-.012388-.004104-.016492-.008234-.132014-.082512-.268158-.169153-.400172-.25577-.016492-.008259-.02888-.020647-.045373-.03301-.127885-.082512-.259899-.173258-.387784-.259899-1.976034-1.3036-3.824208-2.862995-5.507334-4.649279-.115522-.123755-.231019-.243382-.342411-.371266-.181516-.202138-.363033-.404302-.54042-.610569-.115522-.131989-.231019-.268133-.342411-.404276-.03301-.041243-.065995-.078383-.099004-.119626-.148507-.173283-.292909-.346541-.433157-.519798-.424923-.532161-.837458-1.08084-1.233476-1.646011-8.2012-11.670634-8.221847-27.33458-1.262356-39.879787v-.004104s0-.004129.004104-.008259c.193905-.354774.396043-.701315.60644-1.04783.004129,0,.004129-.004129.004129-.008259,2.41332-4.063461,5.577458-7.763914,9.451168-10.857927.218656-.173258.437286-.346541.660071-.51154l.004104-.004129.078383-.057761c.099004-.078383.198034-.152636.297038-.22276,3.609682-2.693866,7.499885-4.632761,11.480834-5.845615.156765-.053632.321789-.09903.482684-.148532.099004-.028855.202138-.057736.301143-.086616h.008259c.094875-.024751.185621-.049502.276391-.074253l.004129-.004129c.119626-.03301.226889-.057761.338282-.082512.111367-.024751.218631-.053632.338257-.086641-.007705.003676-.014604.008511-.022284.012237,4.061497-1.01477,8.199211-1.287359,12.200328-.824919h.004129c.119626.012363.239277.02888.358904.045373.165024.020622.330023.041269.495047.06189.115497.016492.231019.032985.346515.053632h.004129c.759076.115497,1.514022.25577,2.25658.429027.325894.070124.651787.148507.969447.235148.51154.132014,1.018975.276391,1.522256.429027.305272.0949.610544.193905.911712.301168.016492,0,.032985.008234.045373.016492,5.589846,1.926532,10.655789,5.4042,14.587235,10.36288.140273.173258.28465.350645.420794.532161l.51154.688952c.086641.115497.169128.235148.247511.350645,1.10972,1.575887,2.066805,3.226028,2.879512,4.9298.742558,1.555265,1.36549,3.160008,1.864642,4.797785.160895.523902.305297,1.051959.441416,1.584121.06189.218656.115522.433182.165024.651813.016492.065995.03301.132014.045373.198009.049502.222785.099004.445545.148507.668305.0949.462062.185646.932333.264029,1.402629.06189.363033.127885.734325.169153,1.097332.090746.651813.16087,1.303625.214501,1.959542.148532,1.71616.181516,3.452942.086641,5.185569Z" fill="url(#b)"/><path d="M136.759912,31.156745c-.414664-1.820176-1.307653-3.424417-2.656027-4.776447-1.602449-1.652203-3.7899-2.777616-6.50156-3.344983-2.526409-.533457-6.436751-.793052-11.952983-.793052-7.149078,0-11.996571.659849-14.820644,2.017328-2.936484,1.407735-4.588831,4.06283-4.776949,7.677373l-.090045,1.738591h9.343985l.333796-1.214311c.165751-.602639.465708-.951418,1.003108-1.166206.70315-.28354,2.853896-.756345,9.403059-.756345,3.871342,0,6.633473.170196,8.208965.505927,1.312242.279525,2.263731.769608,2.82866,1.456628.090618.112986.165177.221455.22253.324261.346987.602352.742151,1.719234.80868,3.78438-.708886-.316016-1.483728-.557115-2.321658-.722077-2.194907-.429074-6.468295-.637481-13.065062-.637481-8.629938,0-11.305465.710248-12.567809,1.244421-1.99073.866392-3.426281,2.158847-4.281417,3.847899-.803519,1.600083-1.192947,3.696486-1.192947,6.414168,0,2.222294.249486,3.951636.762798,5.286891.560341,1.444871,1.560007,2.687858,2.972043,3.69878,1.421786,1.052933,3.326486,1.71694,5.822498,2.029802,2.266025.283181,6.203323.42678,11.703497.42678,5.025862,0,8.434363-.27422,10.421652-.838289.611385-.173637,1.195241-.40348,1.749847-.68831l-.036133,1.421213h9.224691v-18.69514c0-3.500195-.141662-6.00653-.433017-7.662246-.030971-.191416-.071692-.392439-.113559-.579554ZM127.76234,46.721762c0,1.618794-.661856,2.101422-1.309947,2.360013-.93371.371362-3.333942.815061-9.456398.815061-9.494824,0-11.316936-.505855-11.649585-.660852-.513885-.245042-1.116667-.742581-1.116667-2.380087,0-1.331096.312001-2.189602.927975-2.551788.123309-.070329.727812-.3467,2.581468-.51962,1.505522-.13435,4.280844-.202744,8.24223-.202744,6.491237,0,9.134073.478828,10.207725.880587,1.118961.41495,1.573199,1.069064,1.573199,2.25943Z" fill="#e35205"/><polygon points="144.432051 7.680852 144.432051 8.190942 144.432051 56.471234 144.432051 58.123939 146.08497 58.123939 151.99694 58.123939 153.649859 58.123939 153.649859 56.471234 153.649859 8.190942 153.649859 7.680852 144.432051 7.680852" fill="#e35205"/><path d="M204.43957,30.855067c-.960666-2.574156-2.747792-4.650127-5.304599-6.151921-1.647184-.950128-3.622429-1.581228-6.049617-1.936244-2.295276-.329709-5.53057-.489653-9.894576-.489653-5.189892,0-8.784218.322397-10.988876.985472-.705445.215361-1.365006.487789-1.975818.815921v-1.541009h-9.217235v57.145233h9.217235v-23.242602c.648665.333724,1.349521.608016,2.099701.821226,2.200643.630599,5.583909.937582,10.340211.937582,6.41553,0,10.858684-.387923,13.583535-1.186064,2.93419-.857574,5.295996-2.647711,7.017739-5.320514,1.660376-2.575948,2.467335-6.318962,2.467335-11.442683,0-3.561921-.357311-6.497617-1.062181-8.725574-.071692-.220523-.146251-.445921-.232854-.669169ZM196.184722,40.383873c0,2.477372-.223678,4.394188-.664724,5.697181-.391149,1.136597-.968122,1.95345-1.761891,2.489703-.455385.301248-1.41261.723941-3.317883.979234-1.678155.230345-4.337623.346844-7.907861.346844-6.310574,0-8.814615-.654472-9.804532-1.203485l-.012618-.007026-.012618-.006811c-.898725-.478039-1.529037-1.264495-1.927641-2.404318-.47259-1.350453-.711753-3.487505-.711753-6.351868,0-2.408835.22253-4.277904.661856-5.555376.189839-.540912.418678-1.004255.696268-1.40752.299384-.440258.641209-.788248,1.050711-1.072362.435884-.293362,1.393683-.711968,3.372942-.966402,1.796876-.230918,4.654787-.347991,8.494584-.347991,5.855763,0,8.237068.651031,9.204044,1.197248l.014912.008388.014912.008173c.54887.294939.981887.679277,1.324286,1.174952.240883.346055.438752.742007.590738,1.18162.46284,1.320486.696268,3.418108.696268,6.239814Z" fill="#e35205"/><path d="M254.769882,31.569545c-.424414-1.903553-1.287006-3.556975-2.561394-4.907499l-.012618-.013406-.012618-.01312c-1.515272-1.535417-3.593179-2.614661-6.176941-3.207909-2.436364-.557903-5.808733-.829041-10.310961-.829041-5.359658,0-9.180529.383693-11.680555,1.172873-.874636.27888-1.674714.632463-2.397364,1.058884V7.680852h-9.217808v50.443087h9.217808v-16.6315c0-3.488653.168045-5.026937.309134-5.70306.172633-.811548.545429-1.529395,1.137888-2.187953.032118-.035989.055633-.063949.080294-.088467l.013765-.01398.018353-.019428c.776562-.821155,1.998759-1.449029,3.633326-1.866274,1.888641-.476247,4.669699-.718277,8.261157-.718277,3.179662,0,5.570144.178225,7.106637.529729,1.269227.295011,2.160496.749535,2.64341,1.349593.111265.140659.208766.280816.279884.402763l.013765.02373.014912.0233c.335516.533313.564356,1.157603.699136,1.9085.199589,1.09688.300531,3.235725.300531,6.359826v16.6315h9.223544v-18.176667c0-3.556114-.158868-6.136507-.485208-7.887357-.028677-.174425-.063089-.335803-.098074-.49037Z" fill="#e35205"/><path d="M303.251126,31.744401c-.033838-.208981-.073986-.40477-.114706-.587297-.405487-1.809852-1.29905-3.418395-2.657174-4.783616-1.597287-1.644245-3.788753-2.772168-6.50156-3.338387-2.518953-.53317-6.428148-.792836-11.946101-.792836-7.146784,0-11.995998.659634-14.825232,2.016682-2.938205,1.412108-4.589978,4.066988-4.778096,7.678018l-.090045,1.738591h9.349721l.333796-1.214383c.166324-.604431.464561-.953139.996799-1.166134.703724-.28354,2.855043-.756345,9.409368-.756345,3.871342,0,6.633473.170196,8.208965.505927,1.311668.279525,2.263731.769608,2.82866,1.456628.07628.095278.151412.206973.216795.324261.346987.602209.741577,1.718732.808107,3.78309-.707739-.314941-1.482581-.555681-2.321085-.720786-2.195481-.429074-6.466001-.637481-13.059327-.637481-8.629938,0-11.305465.710248-12.567809,1.244421-1.999907.870478-3.436604,2.164582-4.284285,3.852989-.804666,1.602879-1.196388,3.699282-1.196388,6.409078,0,2.21197.251781,3.941313.769107,5.286819.551164,1.439279,1.54911,2.684632,2.966308,3.698995,1.42236,1.053363,3.329354,1.717227,5.828807,2.029659,2.259143.283181,6.197015.42678,11.702923.42678,5.028156,0,8.435511-.274363,10.417064-.838647.611385-.173637,1.194667-.402763,1.748126-.686303l-.035559,1.419564h9.230426v-18.69514c0-3.502991-.142809-6.006889-.437605-7.654145ZM294.138847,46.721762c0,1.620802-.658988,2.102569-1.304212,2.360013-.93371.371362-3.333942.815061-9.456398.815061-9.494824,0-11.316936-.505784-11.649585-.660852-.513885-.245042-1.116667-.742581-1.116667-2.380087,0-2.009441.693974-2.417653.92224-2.551788.161163-.090977.785165-.352149,2.58663-.519548,1.500934-.134422,4.273961-.202815,8.237068-.202815,6.49009,0,9.13694.479186,10.214607.88116,1.113226.412871,1.566316,1.066985,1.566316,2.258856Z" fill="#e35205"/><path d="M179.802381,75.958701c.195198.222832.413914.449191.6585.679078.24341.229887.518569.43508.825477.616168.305732.181088.646741.327486,1.023027.438608.376286.11171.786672.167565,1.233512.167565.919548,0,1.636843-.209309,2.151884-.627339.515041-.417442.772562-.981871.772562-1.69211,0-.766094-.291621-1.340518-.877216-1.723859-.584419-.383341-1.427534-.693189-2.52817-.930131-.599705-.125233-1.142968-.299265-1.629788-.522096-.487996-.222832-.908965-.501518-1.264085-.83606s-.630279-.720822-.825477-1.15943c-.195198-.439196-.292797-.937187-.292797-1.49456,0-.515041.097599-1.002449.292797-1.462223s.48682-.863693.877216-1.212346c.390396-.348064.878392-.626751,1.462811-.835472.585595-.209309,1.260557-.313375,2.027239-.313375.682018,0,1.27114.072905,1.765015.219304.495051.146399.916021.323958,1.264085.532679s.627927.425085.83606.647917c.209309.222832.36923.403919.48094.543263l-1.33699,1.232924c-.083488-.097599-.209309-.226359-.376286-.386869-.166977-.159921-.379813-.316315-.637334-.469769s-.557373-.282214-.898382-.386869c-.342185-.104654-.734933-.156394-1.180596-.156394-.446839,0-.829004.059383-1.150023.17756-.319843.118177-.584419.271631-.793728.459774-.209309.187555-.362175.400392-.459774.636746-.097599.23753-.145811.473885-.145811.710827,0,.348064.072905.644389.218716.887799.146987.243998.358647.459774.637334.647917s.623223.348652,1.034786.480352c.410387.132876.880744.261636,1.409896.386869.516217.125233,1.020675.28927,1.515726.490935.493875.202254.936011.473885,1.326407.814894.390396.341597.699656.759627.930131,1.25409.229299.494463.344537,1.09652.344537,1.807347,0,.599117-.124645,1.149435-.376286,1.650366-.250465.501518-.595002.937187-1.03361,1.306417s-.958353.654972-1.556882.856638c-.599705.201666-1.247622.302792-1.943751.302792-.654972,0-1.249974-.076433-1.786181-.229887-.536207-.152866-1.024203-.348064-1.462811-.585007-.438608-.236354-.821949-.497991-1.148847-.783733-.328074-.285154-.596178-.567368-.805487-.846055l1.421654-1.295246Z" fill="#004b87"/><path d="M200.488565,79.698629c-.752571,0-1.441645-.135816-2.068396-.407447s-1.166486-.644389-1.619204-1.118274c-.452719-.473297-.807838-1.020087-1.065359-1.640371-.258696-.619696-.386869-1.284663-.386869-1.99549,0-.710239.128172-1.375207.386869-1.99549.257521-.619696.61264-1.166486,1.065359-1.640371.452719-.473297.992454-.846055,1.619204-1.117686s1.315824-.407447,2.068396-.407447c.738461,0,1.421654.135816,2.048405.407447s1.170013.644389,1.629788,1.117686c.459774.473885.818421,1.020675,1.075942,1.640371.257521.620283.386869,1.285251.386869,1.99549,0,.710827-.129348,1.375795-.386869,1.99549-.257521.620283-.616168,1.167074-1.075942,1.640371-.459774.473885-1.003037.846643-1.629788,1.118274s-1.309945.407447-2.048405.407447ZM200.488565,78.068253c.502106,0,.954825-.100539,1.358156-.302792.404507-.201666.745516-.466242,1.024203-.793728s.491523-.703772.637334-1.128857c.145811-.424497.219892-.859578.219892-1.305829,0-.431553-.074081-.860166-.219892-1.285251-.145811-.424497-.362175-.804311-.647917-1.138264-.285742-.334542-.626751-.602645-1.024203-.804899-.396276-.201666-.845467-.302792-1.347573-.302792-.50093,0-.953649.101127-1.358156.302792-.404507.202254-.745516.466829-1.024203.794316s-.490347.703184-.637334,1.128269c-.145811.425085-.218716.860166-.218716,1.305829,0,.446251.072905.877804.218716,1.295834.146987.417442.362175.793728.647917,1.128269.285742.333954.626751.602645,1.024203.804311.397452.202254.846643.302792,1.347573.302792Z" fill="#004b87"/><path d="M214.760377,71.201089h-1.755608v-1.566877h1.755608v-.794316c0-.654384.094071-1.222341.282214-1.702693.188143-.48094.438608-.874276.751396-1.180596.313963-.30632.672611-.532679,1.075942-.679078.404507-.146399.829004-.219304,1.274668-.219304.516217,0,1.020675.079961,1.515726.239882.493875.160509.950121.435668,1.368739.825477l-.940714,1.212346c-.515041-.432141-1.065359-.647917-1.650954-.647917-.543263,0-.978343.174032-1.305241.522096-.328074.348652-.491523.94777-.491523,1.797352v.626751h2.778635v1.566877h-2.778635v8.497539h-1.880253v-8.497539Z" fill="#004b87"/><path d="M228.676802,71.270366h-1.755608v-1.566877h1.755608v-3.176087h1.880253v3.176087h2.842133v1.566877h-2.842133v4.785296c0,.780205.121117,1.316412.365703,1.609209.24341.292209.587946.438608,1.03361.438608.362175,0,.662028-.055267.899558-.166977.236354-.11171.472709-.278687.710239-.501518l.85605,1.148847c-.403331.390396-.818421.672611-1.242919.846643-.425673.174032-.930131.261048-1.51455.261048-1.031258,0-1.787357-.278687-2.267121-.83606-.48094-.556785-.720822-1.427534-.720822-2.611658v-4.973439Z" fill="#004b87"/><path d="M241.282896,69.982226h2.069571l2.17305,7.41812,2.340027-7.41812h1.608621l2.341203,7.480442,2.130718-7.480442h1.943751l-3.218419,9.716403h-1.859087l-2.257714-6.790781-2.235372,6.790781h-1.755608l-3.280741-9.716403Z" fill="#004b87"/><path d="M269.576055,78.256984c-.362175.487408-.839588.849583-1.431062,1.086525-.59265.236354-1.201763.35512-1.828513.35512-.404507,0-.804311-.052327-1.201763-.156982-.397452-.104067-.759627-.278099-1.086525-.522096-.328074-.24341-.59265-.556785-.793728-.940126-.202254-.383341-.30338-.85311-.30338-1.410483,0-1.044781.365703-1.880841,1.097108-2.507592s1.786181-.940126,3.165504-.940126c.222244,0,.459774.007055.710239.020578.250465.014111.487996.028221.710239.041744.22342.014111.418618.028221.585595.041744.166977.014111.285742.028221.35512.041744v-.35512c0-.723762-.219892-1.242919-.6585-1.556882-.438608-.313375-1.03361-.469769-1.786181-.469769-.738461,0-1.324055.101127-1.755608.302792-.431553.202254-.793728.407447-1.086525.616756l-.877216-1.274668c.166977-.139343.36923-.278687.605585-.41803.23753-.139343.515041-.268104.83606-.386869.319843-.118177.682018-.215776,1.086525-.292209s.870161-.115238,1.400488-.115238c1.253502,0,2.2389.30338,2.956195.908965.717295.606173,1.075942,1.466338,1.075942,2.581085v5.651929c0,.341597.007055.90191.021166,1.138852h-1.783026l-.013738-1.441645ZM269.554889,74.829844c-.055267-.013523-.163449-.031161-.323371-.052327-.161097-.020578-.345713-.038217-.553846-.051739-.209309-.014111-.432729-.028221-.669083-.042332-.23753-.013523-.466829-.020578-.689073-.020578-.530328,0-.958353.06291-1.285251.188143-.328074.125233-.585595.282214-.773738.469769-.188143.188143-.316315.397452-.385693.627339-.070554.229887-.104654.449191-.104654.657912,0,.52974.181088.930131.543263,1.201763s.863105.407447,1.503967.407447c.362175,0,.706712-.06291,1.034786-.188143.326898-.125233.616168-.292797.866633-.501518.250465-.209309.452719-.452719.606761-.731405.152866-.278687.229299-.564429.229299-.856638v-1.107691Z" fill="#004b87"/><path d="M280.514734,71.571032v-1.055364c0-.299265-.007055-.609113-.021166-.929543h1.796764l.062322,1.566877c.11171-.166977.258696-.351592.439784-.553258.179912-.202254.399804-.386869.657324-.553846.257521-.167565.557373-.309848.899558-.428613.341009-.118177.733757-.17756,1.180596-.17756.208133,0,.399804.014111.573836.041744.174032.028221.337481.069966.491523.125233l-.418618,1.755608c-.250465-.097599-.570308-.146399-.960704-.146399-.404507,0-.777265.077021-1.118274.229887-.341009.153454-.637334.365703-.887799.637334s-.449191.588534-.595002.950709c-.146987.362175-.219892.745516-.219892,1.149435l-.021166,5.51535h-1.880253l.021166-8.127596Z" fill="#004b87"/><path d="M303.307512,77.96319c-.11171.125821-.278687.285742-.50093.48094-.22342.195198-.512689.383341-.867809.563841-.35512.181088-.772562.338069-1.253502.470357s-1.02773.198726-1.640371.198726c-.752571,0-1.441645-.125821-2.068396-.376286-.626751-.251053-1.162958-.606173-1.608621-1.065947-.446839-.459774-.791376-1.009504-1.034786-1.650366s-.365703-1.351101-.365703-2.131306c0-.710827.118765-1.375795.35512-1.996078.236354-.619108.571484-1.155903,1.003037-1.608621s.944242-.811366,1.535716-1.075942c.59265-.264576,1.242919-.397452,1.954334-.397452.834884,0,1.552179.160509,2.151884.48094.598529.320431,1.090053.745516,1.473394,1.274668.382165.529152.664379,1.135325.845467,1.81793s.271631,1.392845.271631,2.131306h-7.667997c.014111.431553.107006.829004.282214,1.191179.174032.362175.406859.67555.699656.940126s.626751.473885,1.003037.626751c.376286.153454.773738.229887,1.191179.229887.821949,0,1.496912-.139343,2.027239-.41803.529152-.278687.911317-.550318,1.148847-.814894l1.065359,1.128269ZM301.615402,73.68c-.056443-.752571-.321019-1.392845-.793728-1.922585-.473885-.529152-1.142968-.794316-2.006073-.794316-.446839,0-.846643.077021-1.201763.229887-.35512.153454-.6585.355708-.908965.606173s-.445663.539735-.585595.867221c-.138755.327486-.215188.665555-.229299,1.01362h5.725422Z" fill="#004b87"/><path d="M74.779807,19.095659c.748851,1.07583,1.449277,2.20712,2.083888,3.366411l.107552-.057615c-1.812332-5.246151-5.30162-10.248383-9.845827-14.108555l-.877539-.720451-.902688-.683297c-.628457-.464685-1.258252-.900294-1.869586-1.292288-.608926-.392533-1.267348-.805526-1.958678-1.170598l-.076785-.039846c-.642102-.334918-1.306409-.681144-1.976871-.976216-2.578038-1.215289-5.455992-2.134429-8.560554-2.733728-5.125042-.989139-10.471609-.896525-15.462345.265996l-.00107.000538-.001338-.005385-.381783.086691-.001338-.006461c-.856938.202458-1.715482.433993-2.560648.690297-5.106314,1.549669-9.848503,3.984017-13.71449,7.039201l-1.085955.864756c-.488532.387686-.926767.739835-1.351624,1.126444-1.618631,1.375748-3.191513,2.981955-4.957293,5.060385-1.669732,1.980432-3.026975,3.860711-4.148245,5.748528-1.321659,2.199582-2.38086,4.26832-3.239403,6.325212-.905631,2.133891-1.665451,4.402933-2.259395,6.746282-.559431,2.204428-.971446,4.566623-1.224274,7.020894-.20681,2.007893-.254433,4.078246-.145543,6.328981.479971,9.904311,4.045241,19.016558,10.038993,25.659457,6.24658,6.923434,14.523003,11.249368,23.30428,12.180354,8.069346.853987,16.567295-1.221751,23.354845-5.703298l-.112368-.239612c-7.776387,3.893556-17.001249,4.757774-25.3574,2.366503-.721294-.206228-1.450347-.44207-2.167093-.699989-8.41073-3.029339-15.43024-9.361012-19.765229-17.827115l-.100863-.221304c-.394625-.867448-.802627-1.764512-1.138928-2.680959-.746711-1.965893-1.338515-3.996401-1.758021-6.031216-.404524-2.0402-.657352-4.140706-.752329-6.245521-.099526-2.038584-.029965-4.154168.206543-6.288059.890381-8.293259,4.280946-16.428213,9.546715-22.904191,1.430014-1.753743,2.837822-3.249028,4.304222-4.570392,1.710666-1.555592,3.319666-2.828496,4.917697-3.891403,1.71682-1.161982,3.549752-2.20389,5.445825-3.096107,1.802433-.848064,3.738637-1.577668,5.756442-2.169967l-.001338-.018846.144205-.021.292691-.082922-.00107-.017231.133504-.017231v.001077c4.501668-1.209905,9.066744-1.564746,13.566272-1.052676l.000268-.000538c.023544.001615.045482.004308.065815.008077l.330682.041999c.225806.028.450809.055999.64879.089383,10.104541,1.854972,18.232479,6.888434,23.508682,14.556549Z" fill="url(#c)"/><path d="M58.045747,50.745785c-.08744.057532-.176782.11162-.264724.168269.000853.007235.002204.014593.003057.021828.088846-.060792.173378-.128408.261667-.190097Z" fill="none"/><path d="M57.949637,9.021354c-.012388-.008259-.02888-.016492-.045373-.016492-.301168-.107263-.60644-.206268-.911712-.301168,1.794518.660071,3.56018,1.509893,5.268081,2.570111.008234,0,.012363-.004129.016492-.004129-1.406734-.89109-2.854736-1.641907-4.327489-2.248321Z" fill="url(#d)"/><path d="M72.400765,48.208045c.866317-4.694642,1.093229-9.397551.721903-13.869415,2.780562.362977,4.888572.164997,6.138531-.552855-.049516-.222696-.099031-.445475-.148464-.668254-.0124-.066048-.028932-.132014-.045382-.198062-1.22111.721986-3.279686.924099-6.018916.569306h-.004133c-.457875-4.434747-1.518121-8.62605-3.168255-12.318229,1.526387.193847,2.660865.078365,3.316802-.338343.041249-.02885.078365-.053649.115481-.082498h.004133c.057782-.045382.111348-.094898.156731-.144331l-.511524-.689003c-.049516.057782-.111348.111431-.173263.160946h-.004133c-.037116.02885-.065966.049433-.107215.074232h-.004133c-.614688.391909-1.687251.511524-3.114689.32181h-.004133c-1.427356-2.995075-3.250754-5.64354-5.470194-7.805198-.012317,0-.020583-.004133-.032983-.004133,2.136942,2.149259,3.873708,4.785407,5.222699,7.768-1.080829-.164997-2.347321-.486724-3.774677-.981798-.523923-.18153-1.051979-.383643-1.580036-.594022.15268-2.54125.0124-4.707042-.441425-6.365443-.0124-.004133-.02885-.008266-.041249-.016533.342393,1.613019.363059,3.729377.107298,6.225163-1.955412-.816801-3.890241-1.827531-5.631141-2.92076,1.827531-1.678984,3.490066-2.92076,4.921555-3.613813-.0124-.012317-.024716-.01645-.037116-.024716-1.526387.627088-3.287953,1.806948-5.210299,3.436417-1.720316-1.097362-3.226037-2.264823-4.339932-3.378635,3.135273-.676603,6.200446-.849867,9.084007-.420841-.008184-.004133-.012317-.01645-.024716-.024716-2.945476-.49094-6.076616-.391909-9.26967.235179-.556906-.573439-1.002464-1.134478-1.315925-1.662534-.288827-.486807-.445558-.915832-.482757-1.283025,3.696394.198062,7.363774.981881,10.874505,2.396837v-.020583c-3.514865-1.456288-7.19051-2.277222-10.886822-2.516451v-.004133c-.008266-.618821.35066-1.056113,1.018914-1.287158-.115481-.020666-.230963-.037116-.346527-.053649-.164997-.020583-.329994-.041249-.494991-.061833-.680736.259895-1.035529.71777-1.027263,1.357174,0,.045465,0,.099031.008266.15268.041249.391909.210379.849867.515657,1.365523.33421.561039.808617,1.155061,1.398506,1.769749-3.881975.849784-7.834048,2.462803-11.658241,4.702909h-.004133v-.004133c-1.089096-1.130345-1.967812-2.223574-2.582417-3.263153-.565172-.952948-.874583-1.794548-.948815-2.520585,4.294467-1.468605,8.799313-2.182324,13.27531-2.05031-.004133-.053649-.004133-.103082-.004133-.15268-4.484263-.181447-8.997376.48689-13.291843,1.922429-.016533-1.072563.747281-2.023114,1.778677-2.514054-.235179.066048-.442169.10986-.677264.171775-1.101495.499124-1.938879,1.504894-1.918213,2.631106.004133.090765.008266.185663.01645.284611.074315.746702.396042,1.608886.977747,2.578367.627005,1.064296,1.53052,2.194724,2.644332,3.349785.070099.074232.14028.144414.206246.214513-.070099-.070099-.14028-.14028-.210379-.214513-3.80766,2.318472-7.475122,5.251548-10.791924,8.679699-1.456205-1.505721-2.623666-2.974326-3.452867-4.356299-.754968-1.270625-1.16341-2.396837-1.266492-3.362185,3.584881-2.990942,7.623586-5.317597,11.889203-6.889366-.004051-.098949-.012317-.189713-.01645-.284611-4.265617,1.534571-8.304322,3.824193-11.893419,6.794468-.016533-1.02313.578564-2.664006,1.288067-3.291094l-.402738.303293c-.767368.643538-1.578383,2.492727-1.56185,3.56529,0,.123748.008266.251711.024716.379592.099031.973532.515657,2.112143,1.278892,3.399218.829201,1.394373,2.013111,2.879511,3.485932,4.405898.090765.094898.181447.189796.272212.284694-.090765-.090765-.18558-.185663-.276345-.280561-3.267287,3.490066-6.175647,7.462805-8.506518,11.790255-1.600619-1.658401-2.883561-3.27142-3.782943-4.78954-.833334-1.398506-1.287075-2.631933-1.398506-3.692179,2.343188-4.306867,5.395962-8.040294,8.923144-11.117785-.01645-.127881-.020583-.255844-.020583-.379592-3.523048,3.052774-6.579956,6.778018-8.923144,11.080751-.0124-.594105.164997-2.706247.36711-3.263153-.210379.346527-.412492.693053-.606422,1.047846-.004051.004133-.004051.008184-.004051.008184v.004133c-.189796,1.122078-.301227,2.05031-.214595,3.065174-2.240024,4.356382-3.556031,8.881894-4.022172,13.366075,0-.078365.004133-.156731.004133-.235096l-.066048.71777c-.012317.12383-.012317.247578-.012317.375459,0,.123748.012317.247495.024716.375376.099031.973614.515657,2.095693,1.270625,3.378635.825067,1.39024,2.004928,2.867194,3.4694,4.385314.18153.181447.363059.371243.548722.556906,2.945476,2.929026,6.905816,6.002384,11.423062,8.890161-1.287075,3.518915-2.095693,6.563423-2.417503,9.022092-3.48585-2.227707-6.54689-4.595611-8.819979-6.860434-.759019-3.304403-.8416-7.041964-.18558-11.051819-.189796-.185663-.371326-.375459-.552855-.556906-.618821,4.038705-.503257,7.825782.317677,11.175567-1.130345-1.171594-2.037911-2.306072-2.677398-3.378635-.313461-.53219-.556906-1.027263-.721903-1.493404l.226912.68892c.160864.470274.400093.973614.721903,1.513987.622954,1.047846,1.513987,2.161658,2.615483,3.304403.478541,1.732633,1.142744,3.345652,1.996661,4.806073.032983.041249.066048.078365.099031.119615.115481.14028.235096.284611.354793.424892-.004133-.008266-.008266-.0124-.0124-.020583-.878716-1.481005-1.551104-3.122873-2.021461-4.909155,2.215307,2.211174,5.197982,4.517246,8.601416,6.69957-.185663,1.691384-.119697,3.073357.19798,4.100538.016533.0124.028932.024799.045382.033066.132014.086549.268161.173263.400175.255762.004133.004133.0124.008184.016533.008184-.255844-.981798-.251711-2.326655-.008266-3.98919,3.457,2.161658,7.301859,4.174852,11.187884,5.796138-.977665.853917-1.881097,1.489271-2.706165,1.885313.235096.065966.470274.123748.705453.181447.853917-.379509,1.773882-.969398,2.743281-1.761483,1.043713.420759,2.087426.820934,3.131139,1.17986,1.757432.606422,3.399301,1.089096,4.909238,1.439755.362977-.024799.726036-.061915,1.093146-.107298-1.691384-.371243-3.556031-.903433-5.569225-1.604752-1.06843-.36711-2.132726-.771419-3.205371-1.204577,1.91003-1.637735,4.018122-4.013989,6.221029-7.058496h.004133c1.39024.561039,2.772213,1.084962,4.154269,1.563503,3.758144,1.307741,7.107929,2.165792,9.962641,2.59895-2.070893,1.951362-4.244951,3.539581-6.472575,4.740108.561039-.148547,1.117945-.313544,1.674851-.495073.004133-.004133.008266-.008266.0124-.008266,1.893497-1.113895,3.745827-2.495868,5.511443-4.137736,1.018997.132014,1.967812.206246,2.842395.226912h.01645c.276428-.173263.536323-.35066.808617-.536323-.940631-.008266-1.976078-.082498-3.08989-.231045,2.990859-2.904227,5.71769-6.551023,8.007229-10.88674,2.438169.313544,4.509062.325861,6.159197.057699.173263-.263946.342393-.523923.50739-.783818.016533-.024716.028932-.0453.045382-.070099-1.670718.297011-3.782943.288745-6.274678-.037116h-.004051c2.215307-4.385232,3.79121-9.042758,4.731758-13.729134-.119615-.016533-.239312-.033066-.363059-.049598.119615.016533.243445.033066.363059.045465,3.023842.391826,5.441345.280478,7.120329-.301227.049516-.251629.099031-.503257.14028-.759019.004133-.041249.008266-.086632.016533-.127881,0-.008266.004133-.020666.004133-.02885-1.662534.602288-4.075904.721903-7.112145.329994ZM71.67878,48.100748c-2.842312-.429025-6.175564-1.282942-9.913208-2.578284-1.37784-.482674-2.75568-1.002464-4.133603-1.55937,1.691467-4.447147,3.098156-8.811796,4.154269-12.8753h.004133c1.051979.429025,2.116276.825067,3.168255,1.196393,2.871244.994198,5.433078,1.650135,7.607136,1.980211.301144,4.459464.016533,9.154106-.886983,13.836349ZM28.069741,62.06101c1.386107-3.543714,3.226037-7.55357,5.486727-11.901686,5.008186,3.127006,10.581545,6.047766,16.220869,8.403354-2.277222,4.335716-4.554362,8.126926-6.707837,11.270465-5.210299-2.182324-10.367032-4.872039-14.995626-7.768h-.004133v-.004133ZM50.206362,57.729344c-5.639324-2.355588-11.204417-5.268081-16.212603-8.399221h-.004133c2.297806-4.352249,4.810124-8.630266,7.396757-12.656571h.004133c4.603878,2.875378,9.739945,5.560959,14.921394,7.730966-1.786282,4.434747-3.844859,8.951911-6.105548,13.324826ZM41.881374,35.906267h-.004133c2.590766-3.993405,5.247498-7.718567,7.825864-11.002304,3.502382,2.190508,7.392623,4.224368,11.332297,5.874503-1.146795,4.018039-2.631933,8.357971-4.381099,12.780319-5.131934-2.145208-10.214352-4.797807-14.77293-7.652518ZM65.552648,20.081357c1.522254.528056,2.871244.874583,4.022255,1.047846,1.55937,3.683995,2.537117,7.854714,2.924893,12.285328-2.128675-.32181-4.62041-.961215-7.421556-1.934746-1.02718-.358926-2.058577-.742569-3.094023-1.167543h-.004051c1.006514-4.018039,1.658318-7.7103,1.893497-10.862023.565172.226912,1.122078.437291,1.678984.631138ZM57.483504,16.178799c1.848115,1.155144,3.914957,2.23184,5.998251,3.106423-.363059,3.098156-1.126212,6.749086-2.227707,10.730009-3.840643-1.604752-7.644252-3.593147-11.055952-5.730089h-.004133c2.561834-3.217771,5.041169-5.985934,7.285409-8.106343h.004133ZM52.516567,12.37114v-.004133c1.192177,1.183994,2.792879,2.421553,4.612144,3.589014-2.355588,2.058577-4.929821,4.752424-7.578286,7.924813-3.362185-2.153392-6.315927-4.438881-8.506435-6.625255,3.774677-2.289622,7.660785-3.964556,11.472578-4.884439ZM40.317871,17.701053h.004133c2.244239,2.240106,5.272214,4.583294,8.716898,6.786202-2.660865,3.230171-5.379429,6.90995-8.023844,10.874423-4.49658-2.875378-8.436337-5.928152-11.361147-8.844778,3.279604-3.457,6.90995-6.439593,10.663961-8.815846ZM29.030956,27.185236h.004133c2.953743,2.945476,6.938799,6.031316,11.476711,8.935543-2.623749,3.997456-5.16905,8.254807-7.462722,12.611189-4.933954-3.155938-9.26562-6.50159-12.475124-9.711095,2.326738-4.32745,5.218566-8.312589,8.457003-11.835637ZM11.601376,47.539708c-.771501-1.291209-1.19226-2.433953-1.291291-3.411618v-.020666c.470357-4.459464,1.794548-8.984976,4.038705-13.341358.016533.123748.037199.247495.057782.375376.202113,1.17986.734303,2.285489,1.336591,3.308536.903515,1.518121,2.190591,3.131139,3.79121,4.78954-2.252423,4.360515-3.716895,8.663249-4.430614,12.730804-1.476871-1.530438-2.673182-3.023842-3.502382-4.430614ZM15.660665,52.535495l-.004051-.004133c.746619-4.042838,2.223491-8.320773,4.471863-12.681288,3.221822,3.205371,7.549354,6.555157,12.483308,9.711095-2.264823,4.348116-4.075904,8.374421-5.420761,11.942852-4.558495-2.90836-8.560084-6.006517-11.53036-8.968526ZM36.658757,77.56816c-3.981006-1.666667-7.924813-3.721028-11.460261-5.936335.404309-2.405103,1.283025-5.408362,2.607216-8.898427h.004133c4.587427,2.867111,9.690429,5.532109,14.847162,7.689634-2.149341,3.065174-4.183119,5.474327-5.998251,7.145128ZM58.316838,74.445287c-2.879511-.437291-6.262279-1.303608-10.057622-2.619616-1.398506-.486807-2.797012-1.014863-4.199569-1.584086,2.207041-3.122956,4.513113-6.897633,6.790252-11.241615,1.51407.614688,3.032191,1.192177,4.537912,1.711967,4.108887,1.423305,7.772133,2.363854,10.882689,2.838262-2.293672,4.335799-5.004053,7.986728-7.953663,10.895089ZM66.703659,62.716864c-3.122873-.470274-6.777935-1.40669-10.886822-2.838179-1.505721-.51979-3.019709-1.093229-4.533696-1.703784h-.004133c2.26069-4.377048,4.282067-8.906611,6.022967-13.362024h.004133c1.394373.561039,2.788746,1.089096,4.170719,1.571769,3.782943,1.311874,7.153394,2.174058,10.020506,2.607216-.977747,4.682243-2.574233,9.339769-4.793674,13.725001Z" fill="url(#e)"/><path d="M69.21597,71.417289c-2.091556,2.392699-6.538671,5.668228-10.131861,6.967724,1.3036-2.875383,2.557723-6.369543,2.557723-12.858737,0-1.633623.016492-3.770552-.070149-4.702885,1.101487-.734325,2.174068-1.497504,3.205406-2.248321,1.662529-1.183974,4.579155-3.964456,4.89266-4.344007.457933,4.806044.697185,10.189622-.453779,17.186227Z" fill="url(#f)"/><path d="M67.611202,43.377265c-.82507.853951-1.679021,1.695538-2.561827,2.499962-.89109.812707-1.819294,1.588275-2.780508,2.322575-.660046.507435-1.33661.985965-2.017278,1.46452-2.108074-9.91736-10.725913-18.30831-15.804219-22.252145-.008259.004104-.012388.008234-.016518.012363-2.372077-2.409191-7.091479-6.299419-10.610391-3.523041,2.058546-2.495832,4.310997-4.583259,6.691307-6.027132h.004129c2.904238-1.765662,6.361284.75905,7.66078,1.707876,4.042839,2.953765,13.114482,11.612873,17.957665,20.684516l.008234-.004129s.053632.107263.152636.313531c.466167.895194.940592,1.90591,1.315988,2.801104Z" fill="url(#g)"/><path d="M37.199126,65.782045c.140248.090771.28465.185646.429027.276417-.169128-.099004-.330023-.206268-.486788-.309401-.099004-.06602-.198009-.136144-.292909-.202138.115522.078383.231019.16087.35067.235123Z" fill="url(#h)"/><path d="M41.262587,67.890119c-.012363.004129-.020622.004129-.03301.004129-.024751-.012388-.049502-.020647-.070124-.03301.012388,0,.020622,0,.02888-.004129.024751.012388.049502.024751.074253.03301Z" fill="url(#i)"/><path d="M31.444256,54.965387c-.03301.544549-.045373,1.084969-.016492,1.625389.016492.292909.041243.585793.090746.874572.03301.189775.06602.379525.103134.5693.012388.070124.02888.140273.045398.210397v.004129c.119626.585793.280521,1.167456.499151,1.724394.396043.998328.961214,1.922403,1.633648,2.759861.297013.367137.614673.717807.948826,1.051959.156765.152636.317635.309401.486788.466167.065995.057761.127885.115497.193879.177387.115522.099004.235148.202138.358904.305272.086641.074253.177412.144402.272287.22276.127885.103134.264029.202163.400147.305297.016518.016492.037139.02888.053632.041243.111393.082512.218656.165024.334152.243407.0949.065995.193905.136118.292909.202138.156765.103134.31766.210397.486788.309401.424923.268133.878702.523902,1.361361.779697.668305.354774,1.402629.693056,2.198819,1.01895-.008259.004129-.016492.004129-.02888.004129.020622.012363.045373.020622.070124.03301h-.012363c-2.722722.367137-5.189699.408406-7.392622.099004-3.065133-.429053-5.622856-1.505763-7.648392-3.230157-2.51235-2.141058-3.857218-5.416588-3.997466-9.731714-.292909-8.968509,4.513135-22.499656,11.641729-31.129883,3.518911-2.776378,8.238314,1.11385,10.610391,3.523041-.655917.532186-1.27059,1.105591-1.856408,1.712031-.614673.635295-1.192207,1.3036-1.736757,1.996656-.5693.717807-1.101487,1.46039-1.608897,2.219441-.519798.779697-1.010716,1.580017-1.472753,2.396828-.470296.82507-.915816,1.666658-1.33661,2.520609-.420794.849821-.816811,1.716135-1.192232,2.590707-.367162.85808-.713678,1.728523-1.039571,2.607225-.313531.849821-.610569,1.712031-.882831,2.574215-.259899.82507-.503306,1.65427-.721936,2.491703-.206268.779697-.391913,1.563524-.552808,2.351455-.148507.717807-.276391,1.439743-.383655,2.16168-.090746.63945-.16087,1.278874-.202138,1.918298Z" fill="url(#j)"/><path d="M79.842878,39.223058c-.387784.973577-.800319,1.930661-1.249993,2.858865-2.240063,4.591518-5.317558,8.613735-8.951992,12.074885,0,.004129-.008259.020647-.02888.041269-.313531.379525-3.230157,3.160008-4.892685,4.343982-1.031338.750817-2.103919,1.514022-3.205381,2.248321-.090771.06602-.185646.127885-.280521.189775-4.785422,2.73098-10.503153,4.735895-13.555923,5.581587-2.277177.63532-4.410001,1.072606-6.414916,1.344868-.012363-.004129-.020622-.008259-.03301-.012363-.024751-.012388-.049502-.020647-.070124-.03301.012388,0,.020622,0,.02888-.004129.004129.004129.012388,0,.016492,0-.800319-.325894-1.538748-.668305-2.215312-1.01895-.482659-.255795-.936438-.511565-1.361361-.779697-.169128-.099004-.330023-.206268-.486788-.309401-.099004-.06602-.198009-.136144-.292909-.202138-.115497-.078383-.22276-.160895-.334152-.243407-.016492-.012363-.037114-.024751-.053632-.041243-.136118-.103134-.272262-.202163-.400147-.305297-.094875-.078357-.185646-.148507-.272287-.22276-.123755-.103134-.243382-.206268-.358904-.305272-.065995-.06189-.127885-.119626-.193879-.177387-.169153-.156765-.330023-.313531-.486788-.466167-.334152-.334152-.651813-.684822-.948826-1.051959-.672434-.837458-1.237605-1.761533-1.633648-2.759861-.218631-.556938-.379525-1.138601-.499151-1.724394v-.004129c0-.004129.004104-.004129.004104-.004129.688952.354774,2.392699.750817,5.334076.528032,3.523066-.280521,7.40501-1.29947,10.96519-2.611329,0,0,3.056874-1.200491,4.554379-1.897677.140273-.057736.268158-.119626.391913-.18975.660071-.313531,1.328376-.643554,1.967801-.990094.107263-.057761.214526-.115497.330023-.177387.400172-.22276.79619-.449674,1.179844-.672434,1.084969-.627061,2.079193-1.386112,3.094013-2.103919.235148-.165024.470296-.330048.705444-.495047.680693-.478555,1.357231-.957084,2.017303-1.464495.961189-.734325,1.889393-1.509893,2.780483-2.322575.882831-.804448,1.736757-1.646011,2.561827-2.499962.008259-.008259.012388-.012388.020647-.020622.078383-.090771.156765-.193905.235148-.28465,1.703747-1.963671,3.205381-4.125351,4.434752-6.476806,1.778025-3.432295,4.339852-8.320851,4.950421-12.01302,2.112178,2.12867,4.055202,8.477591,2.648468,14.673877Z" fill="url(#k)"/><path d="M41.262587,67.890119c-.016492.004129-.02888.004129-.045373.004129-1.58825-.647683-2.912497-1.36549-4.018088-2.112203,1.117954.742583,2.458693,1.456261,4.063461,2.108074Z" fill="url(#l)"/></svg>