<?xml version="1.0" encoding="UTF-8"?><svg id="a" xmlns="http://www.w3.org/2000/svg" xmlns:xlink="http://www.w3.org/1999/xlink" viewBox="0 0 425.1969 425.1969"><defs><radialGradient id="b" cx="286.7795" cy="137.7871" fx="286.7795" fy="137.7871" r="214.2719" gradientTransform="translate(511.7524 -80.2738) rotate(112.1452) scale(1 .9157)" gradientUnits="userSpaceOnUse"><stop offset=".0483" stop-color="#acd6f2"/><stop offset=".2449" stop-color="#60bcea"/><stop offset=".4408" stop-color="#1ba5e2"/><stop offset=".5318" stop-color="#009ce0"/><stop offset=".6196" stop-color="#0099dc"/><stop offset=".6944" stop-color="#0091d2"/><stop offset=".7643" stop-color="#0084c0"/><stop offset=".7694" stop-color="#0083bf"/><stop offset=".8032" stop-color="#0076b0"/><stop offset=".8822" stop-color="#005e93"/><stop offset=".9505" stop-color="#004f81"/><stop offset="1" stop-color="#004a7b"/></radialGradient><radialGradient id="c" cx="400.8831" cy="263.9471" fx="400.8831" fy="263.9471" r="333.8073" gradientTransform="translate(524.4436 689.964) rotate(-140.2567) scale(.969 .7451) skewX(.2715)" gradientUnits="userSpaceOnUse"><stop offset=".0231" stop-color="#d5411f"/><stop offset=".6719" stop-color="#d5411f"/><stop offset=".7489" stop-color="#d6451f"/><stop offset=".8275" stop-color="#dc511f"/><stop offset=".9067" stop-color="#e5651f"/><stop offset=".9859" stop-color="#f2821f"/><stop offset="1" stop-color="#f5881f"/></radialGradient><radialGradient id="d" cx="315.3131" cy="126.0085" fx="315.3131" fy="126.0085" r="233.138" gradientUnits="userSpaceOnUse"><stop offset=".4256" stop-color="#0083bf"/><stop offset=".4963" stop-color="#0076b0"/><stop offset=".6616" stop-color="#005e93"/><stop offset=".8047" stop-color="#004f81"/><stop offset=".9082" stop-color="#004a7b"/></radialGradient><radialGradient id="e" cx="313.0977" cy="143.7018" fx="313.0977" fy="143.7018" r="292.073" xlink:href="#d"/><radialGradient id="f" cx="313.1065" cy="143.7051" fx="313.1065" fy="143.7051" r="292.0839" xlink:href="#d"/><radialGradient id="g" cx="313.103" cy="143.2881" fx="313.103" fy="143.2881" r="290.6298" xlink:href="#d"/><radialGradient id="h" cx="313.4354" cy="143.3743" fx="313.4354" fy="143.3743" r="290.8833" xlink:href="#d"/><radialGradient id="i" cx="320.5373" cy="142.08" fx="320.5373" fy="142.08" r="284.6564" xlink:href="#d"/><radialGradient id="j" cx="297.9219" cy="149.0822" fx="297.9219" fy="149.0822" r="282.8273" xlink:href="#d"/><radialGradient id="k" cx="305.8486" cy="145.329" fx="305.8486" fy="145.329" r="289.9493" xlink:href="#d"/><radialGradient id="l" cx="308.6597" cy="135.7425" fx="308.6597" fy="135.7425" r="302.9354" xlink:href="#d"/><radialGradient id="m" cx="310.3848" cy="141.6741" fx="310.3848" fy="141.6741" r="293.056" xlink:href="#d"/><radialGradient id="n" cx="311.523" cy="143.5428" fx="311.523" fy="143.5428" r="288.6466" xlink:href="#d"/><radialGradient id="o" cx="312.5131" cy="143.601" fx="312.5131" fy="143.601" r="289.3953" xlink:href="#d"/><linearGradient id="p" x1="249.1029" y1="85.9701" x2="304.5633" y2="384.7633" gradientUnits="userSpaceOnUse"><stop offset="0" stop-color="#d5411f"/><stop offset=".1747" stop-color="#e25e1f"/><stop offset=".3859" stop-color="#ef7c1f"/><stop offset=".5053" stop-color="#f5881f"/><stop offset=".6187" stop-color="#f3831f"/><stop offset=".7391" stop-color="#ed761f"/><stop offset=".8627" stop-color="#e3611f"/><stop offset=".9877" stop-color="#d6441f"/><stop offset="1" stop-color="#d5411f"/></linearGradient><linearGradient id="q" x1="285.1575" y1="77.8465" x2="341.1056" y2="379.2666" xlink:href="#p"/><linearGradient id="r" x1="195.4537" y1="325.3392" x2="199.3087" y2="325.3392" gradientUnits="userSpaceOnUse"><stop offset=".1617" stop-color="#d5411f"/><stop offset=".2787" stop-color="#df571f"/><stop offset=".4463" stop-color="#eb721f"/><stop offset=".5962" stop-color="#f2821f"/><stop offset=".7123" stop-color="#f5881f"/><stop offset="1" stop-color="#f5881f"/></linearGradient><linearGradient id="s" x1="216.7681" y1="335.5884" x2="217.278" y2="335.5884" xlink:href="#r"/><linearGradient id="t" x1="175.4981" y1="355.4431" x2="179.2374" y2="115.7841" gradientUnits="userSpaceOnUse"><stop offset=".1617" stop-color="#d5411f"/><stop offset=".3796" stop-color="#e05a1f"/><stop offset=".7123" stop-color="#f5881f"/><stop offset="1" stop-color="#f5881f"/></linearGradient><linearGradient id="u" x1="169.8358" y1="228.5577" x2="410.3898" y2="228.5577" gradientUnits="userSpaceOnUse"><stop offset="0" stop-color="#f5881f"/><stop offset=".2134" stop-color="#f2821f"/><stop offset=".471" stop-color="#ec741f"/><stop offset=".7503" stop-color="#e15b1f"/><stop offset=".9903" stop-color="#d5411f"/></linearGradient><linearGradient id="v" x1="197.1875" y1="330.4587" x2="220.0122" y2="330.4587" gradientUnits="userSpaceOnUse"><stop offset="0" stop-color="#f5881f"/><stop offset=".2087" stop-color="#f3831f"/><stop offset=".4322" stop-color="#ed761f"/><stop offset=".6625" stop-color="#e3611f"/><stop offset=".8963" stop-color="#d6431f"/><stop offset=".9146" stop-color="#d5411f"/></linearGradient></defs><path d="M408.7808,214.7289c-.3264,6.119-.9179,12.1972-1.8153,18.2957-.1632,1.2442-.3671,2.4476-.571,3.6918,0,.0408-.0204.102-.0204.1428-.0408.2039-.0612.4282-.0817.6323-.2039,1.2646-.4487,2.5087-.6934,3.7529-4.3649,22.9054-12.8294,45.2394-25.1489,65.6972-.7751,1.285-1.5502,2.5904-2.4068,3.8754-.0815.1224-.1428.2243-.2243.3467-.8159,1.285-1.6521,2.57-2.5089,3.8753-11.0956,16.5824-24.8021,31.7371-41.058,44.7092-2.9168,2.3252-5.8131,4.5484-8.7909,6.6084q-.0408.0204-.0612.0204c-1.3258.9586-2.5904,1.8764-3.9365,2.7331-.306.204-.5303.408-.8363.612h-.0815c-1.3461.9177-2.6311,1.7948-3.9978,2.6515h-.0815c-8.3218,5.2622-16.9087,9.7495-25.6588,13.5025-5.1603,2.2231-10.3818,4.1608-15.6441,5.8334-.0204,0-.0408.0204-.0611.0408-2.7536.8975-5.5071,1.7132-8.281,2.4476-3.6511.979-7.302,1.8356-10.953,2.5699,0,0-.0407.0204-.0611.0204-.4691.0817-.8975.1632-1.3462.2243,0,0-.0407.0408-.0611.0408-1.2034.2243-2.3864.4284-3.5898.6323-.5303.0817-.9994.1632-1.5297.2243h-.0611c-1.1626.204-2.2844.408-3.4674.5712h-.0204c-.5712.0815-1.1218.1428-1.6929.2039h-.0407c-.7955.1021-1.5706.204-2.3456.2856h-.0204c-1.8153.2243-3.6102.408-5.405.5303-.4488.0611-.8772.0815-1.3258.1224-17.643,1.3054-35.1636-.1632-51.9907-4.3649-1.1626-.2856-2.3252-.571-3.4878-.8975-.877-.2447-1.7337-.4895-2.6107-.7342-.0817-.0204-.204-.0612-.2856-.0815-.8975-.2652-1.7745-.5099-2.6719-.8363-.102-.0204-.2243-.0611-.3467-.102-12.5847-3.9365-24.6798-9.4436-35.9795-16.5008-.0204,0-.0612-.0203-.0815-.0407-.6527-.408-1.3258-.8363-1.9785-1.2646-.0815-.0408-.1428-.1021-.2243-.1632-.6323-.408-1.285-.8566-1.9173-1.285-9.7699-6.4452-18.9076-14.1552-27.2293-22.9869-.5712-.6119-1.1422-1.2033-1.6929-1.8356-.8975-.9994-1.7949-1.9989-2.6719-3.0188-.5712-.6526-1.1422-1.3257-1.6929-1.9988-.1632-.2039-.3263-.3875-.4895-.5915-.7342-.8567-1.4482-1.7134-2.1416-2.57-2.1009-2.6311-4.1405-5.3439-6.0985-8.1382-40.5483-57.7018-40.6503-135.1472-6.2413-197.1731v-.0203s0-.0204.0203-.0408c.9587-1.7541,1.9581-3.4674,2.9984-5.1807.0204,0,.0204-.0204.0204-.0408,11.9319-20.0905,27.576-38.3862,46.7283-53.6836,1.0811-.8566,2.162-1.7134,3.2635-2.5291l.0203-.0204.3875-.2856c.4895-.3875.9791-.7547,1.4686-1.1014,17.8469-13.319,37.0808-22.9052,56.7634-28.9018.7751-.2652,1.591-.4896,2.3865-.7344.4895-.1427.9994-.2855,1.4889-.4282h.0408c.4691-.1224.9177-.2447,1.3665-.3671l.0204-.0204c.5915-.1632,1.1218-.2856,1.6725-.408.5506-.1224,1.0809-.2652,1.6724-.4284-.0381.0182-.0722.0421-.1102.0605,20.0808-5.0172,40.5384-6.3649,60.3207-4.0786h.0204c.5915.0611,1.183.1428,1.7745.2243.8159.102,1.6317.204,2.4476.306.571.0815,1.1422.1631,1.7132.2652h.0204c3.753.571,7.4856,1.2646,11.157,2.1212,1.6113.3467,3.2226.7342,4.7931,1.1626,2.5291.6527,5.038,1.3665,7.5263,2.1212,1.5093.4692,3.0186.9587,4.5077,1.489.0815,0,.1631.0407.2243.0815,27.6372,9.5251,52.6842,26.7194,72.122,51.236.6935.8566,1.4074,1.7337,2.0805,2.6311l2.5291,3.4063c.4284.571.8362,1.1626,1.2237,1.7337,5.4867,7.7915,10.2187,15.9501,14.2368,24.3738,3.6713,7.6895,6.7512,15.6237,9.2191,23.7211.7955,2.5903,1.5094,5.2011,2.1824,7.8322.306,1.0811.5712,2.1417.8159,3.2227.0815.3263.1632.6527.2243.979.2447,1.1015.4895,2.2029.7342,3.3042.4692,2.2845.9179,4.6096,1.3054,6.9349.306,1.7949.6323,3.6306.8363,5.4254.4487,3.2227.7954,6.4454,1.0605,9.6883.7344,8.485.8975,17.072.4284,25.6384Z" fill="url(#b)"/><path d="M382.9934,94.4109c3.7025,5.3191,7.1655,10.9124,10.3031,16.6442l.5318-.2849c-8.9605-25.9379-26.2122-50.6699-48.6796-69.7553l-4.3387-3.562-4.4631-3.3783c-3.1072-2.2975-6.221-4.4512-9.2436-6.3893-3.0106-1.9408-6.266-3.9827-9.6841-5.7877l-.3796-.197c-3.1747-1.6559-6.4591-3.3677-9.774-4.8266-12.7463-6.0086-26.9754-10.553-42.325-13.5161-25.3392-4.8905-51.7736-4.4326-76.4487,1.3151l-.0053.0027-.0066-.0266-1.8876.4286-.0066-.0319c-4.2369,1.001-8.4817,2.1457-12.6603,3.413-25.2466,7.6619-48.6928,19.6977-67.807,34.8031l-5.3692,4.2755c-2.4154,1.9168-4.5821,3.6579-6.6827,5.5694-8.0028,6.802-15.7794,14.7433-24.5098,25.0195-8.2555,9.7916-14.9659,19.0881-20.5097,28.4218-6.5345,10.8751-11.7714,21.1034-16.0162,31.273-4.4776,10.5504-8.2343,21.7689-11.1709,33.3549-2.7659,10.8991-4.803,22.5782-6.053,34.7126-1.0225,9.9274-1.258,20.1636-.7196,31.2917,2.3731,48.9688,20.0004,94.0214,49.6346,126.8651,30.8843,34.2307,71.8044,55.619,115.2207,60.2219,39.8963,4.2223,81.9118-6.0406,115.4707-28.1982l-.5556-1.1847c-38.4479,19.2505-84.0573,23.5233-125.3717,11.7004-3.5662-1.0196-7.1708-2.1857-10.7145-3.4609-41.5842-14.9776-76.29-46.2826-97.723-88.1406l-.4987-1.0942c-1.9511-4.2888-3.9683-8.7241-5.6311-13.2552-3.6919-9.7197-6.6179-19.759-8.692-29.8195-2-10.0871-3.2501-20.4724-3.7197-30.879-.4921-10.0791-.1482-20.539,1.0212-31.0893,4.4022-41.0034,21.1658-81.2241,47.2007-113.2426,7.0703-8.6708,14.0307-16.0638,21.2809-22.5969,8.4579-7.6911,16.413-13.9846,24.314-19.2398,8.4883-5.7451,17.5506-10.8964,26.9252-15.3077,8.9116-4.193,18.4845-7.8003,28.4609-10.7287l-.0066-.0932.713-.1038,1.4471-.41-.0053-.0852.6601-.0852v.0053c22.2571-5.982,44.8277-7.7364,67.0742-5.2046l.0013-.0027c.1164.008.2249.0213.3254.0399l1.635.2077c1.1164.1384,2.2289.2769,3.2077.4419,49.9587,9.1713,90.1448,34.0577,116.2313,71.9703Z" fill="url(#c)"/><path d="M300.2571,250.895c-.4323.2844-.874.5519-1.3088.832.0042.0358.0109.0722.0151.1079.4393-.3006.8572-.6349,1.2937-.9399Z" fill="none"/><path d="M299.7819,44.6017c-.0612-.0408-.1428-.0815-.2243-.0815-1.489-.5303-2.9984-1.0198-4.5077-1.489,8.8724,3.2635,17.6022,7.4652,26.0464,12.7071.0407,0,.0611-.0204.0815-.0204-6.9552-4.4057-14.1143-8.1179-21.3959-11.1161Z" fill="url(#d)"/><path d="M63.8555,222.3775c-.0612-.6323-.1224-1.2442-.1224-1.856-.4488,5.6499-.6323,11.2792-.5507,16.8882l.102,3.7734.1428,2.2231c-.3059-6.9552-.1428-13.9511.4284-21.0288ZM63.4272,243.4063c.102,3.3042.3468,6.6086.6527,9.8515l-.6527-9.8515ZM84.0888,150.0312c-.0204.0611-.0611.102-.0815.1632-11.0753,21.5387-17.5818,43.9136-19.8866,66.0846v.0204c.0204.5915.0611,1.2442.102,1.8764,0-.0204,0-.0407.0204-.0611v-.0408c2.3252-22.0486,8.8724-44.4235,19.9681-65.9622v-.0204c.0204,0,.0204-.0204.0204-.0204-.102-.6935-.1224-1.3869-.1428-2.0397ZM130.3889,91.1465c-17.4186,15.0933-32.5324,33.5114-44.1176,54.785,0,.0204-.0204.0204-.0204.0408,0,.6527.0612,1.3257.1224,2.0192,11.5852-21.294,26.6787-39.7528,44.1176-54.9686-.0815-.6323-.102-1.2646-.102-1.8764ZM192.537,54.698c-21.0899,7.5874-41.058,18.9075-58.803,33.593v.0204h-.0204c.0204.306.0408.5915.0611.8975.0204.3263.0408.6323.0612.9586,17.7246-14.7875,37.6927-26.291,58.7827-34.0621-.0204-.4895-.0612-.9383-.0817-1.4074ZM262.3135,43.7654c-22.171-.8973-44.4848,2.4069-65.7176,9.5048,0,.2447,0,.4691.0204.6934.0204.2449.0204.4692.0612.6935h.0204c21.2327-7.2612,43.5057-10.7897,65.6359-10.137-.0204-.2652-.0204-.5099-.0204-.7548ZM266.5152,44.0102c.0408.2447.0408.4487.0611.6934,18.2753.979,36.4078,4.8544,53.7653,11.8504v-.102c-17.3779-7.2-35.5511-11.2589-53.8264-12.4418Z" fill="url(#e)"/><path d="M101.7319,345.5112c-4.3445-7.3223-7.6691-15.44-9.9943-24.2718-.7342-.6935-1.4074-1.3869-2.0601-2.0805,2.3661,8.5666,5.6499,16.5415,9.872,23.762.1632.2039.3263.3875.4895.5915.5712.6935,1.1626,1.4074,1.7541,2.1009-.0204-.0408-.0407-.0612-.0611-.1021ZM90.0243,263.5174c-.9383-.9179-1.8357-1.8562-2.7332-2.7536-3.0595,19.9683-2.4883,38.6922,1.5706,55.2542.673.7342,1.3869,1.4278,2.0804,2.1416-3.7529-16.3376-4.1608-34.8168-.9177-54.6422ZM109.8496,194.0061c-11.1365,21.5591-18.3773,42.8327-21.9058,62.9436.8975.9179,1.7745,1.8153,2.7332,2.7739,3.6918-19.9885,10.9936-41.1397,22.1097-62.6988-1.0198-1.0402-1.9784-1.9988-2.9371-3.0186ZM155.4155,133.0205c-.4488-.4487-.9179-.9177-1.3667-1.3869-16.154,17.2555-30.5335,36.8973-42.0576,58.2932.9791,1.0198,1.9581,1.9988,2.9779,3.0186,0,0,0-.0204.0204-.0204,11.5037-21.3959,25.8015-41.0989,41.8128-58.5176-.4692-.4895-.9383-.9382-1.3869-1.3869ZM211.567,86.4756c-.3467-.3467-.6935-.6934-1.0402-1.0605-18.8259,11.4628-36.9585,25.9647-53.3572,42.9142v.0204h-.0204c.4488.4691.9179.9383,1.3665,1.3869.4488.4691.9179.9179,1.3667,1.3665,16.2151-17.0923,34.164-31.8389,52.7249-43.5873-.3671-.3671-.6935-.6934-1.0402-1.0402ZM271.8182,60.0214c-19.1931,4.2017-38.7329,12.1767-57.6405,23.2521h-.0203c.6527.6934,1.3257,1.3461,2.0192,2.0397h.0204c18.6627-11.3202,37.8763-19.6011,56.7227-24.1495v-.0204c-.3671-.3671-.714-.7342-1.1015-1.1218ZM321.3002,58.1042c-14.5631-2.4272-30.044-1.9377-45.8309,1.1626l1.0402,1.0402c15.5013-3.3451,30.6559-4.2017,44.913-2.0805-.0407-.0204-.0611-.0815-.1224-.1224Z" fill="url(#f)"/><path d="M137.4869,356.3826c-1.0809-.6527-2.1416-1.3665-3.2226-2.0192-.9179,8.3625-.5916,15.1954.979,20.2741.0815.0611.1428.1224.2243.1632.6527.4282,1.3258.8566,1.9785,1.2646.0203.0204.0611.0407.0815.0407-1.2646-4.8543-1.2442-11.5035-.0408-19.7234ZM146.5022,307.4718c-6.3637,17.3982-10.3615,32.4508-11.9524,44.6071,1.0811.6934,2.1824,1.4074,3.3042,2.0805,1.9989-11.8912,6.3434-26.7399,12.8906-43.9953-1.4277-.8975-2.8147-1.7949-4.2424-2.6924ZM174.5066,245.0382c-11.1977,21.4979-20.1518,41.4049-26.801,59.0478,0,.0204.0204.0204.0204.0204.7342.4692,1.4278.9383,2.162,1.3869.7138.4692,1.4278.9179,2.162,1.3667v-.0204c6.8532-17.5207,15.9501-37.346,27.1273-58.844-1.5706-.9994-3.1206-1.9784-4.6708-2.9574ZM213.5862,178.5863h-.0204c-12.9721,19.7642-25.5568,40.8134-36.8972,62.3521-.0204,0-.0204.0204-.0204.0204.7751.4895,1.5502.979,2.3455,1.4685.7751.4895,1.5297.979,2.3252,1.4686,11.3609-21.5184,23.7824-42.6696,36.5709-62.5766-1.4481-.9382-2.8554-1.8356-4.3036-2.7331ZM255.7458,121.0681h-.0203c-13.1558,15.9705-26.5971,34.1641-39.6712,53.7652h.0204c1.4277.9179,2.8147,1.8153,4.2424,2.6924,12.8091-19.7438,25.9444-38.1618,38.6922-54.3974-1.1015-.6527-2.2029-1.3665-3.2635-2.0601ZM295.723,78.8882c-11.6464,10.1778-24.3738,23.4968-37.4684,39.1817,1.0605.6526,2.1008,1.3257,3.1818,1.9988,12.6661-15.9092,24.9245-29.5953,36.0202-40.0792-.5915-.3875-1.1422-.7342-1.7337-1.1014ZM323.7273,60.0214c-7.5467,3.1003-16.256,8.9337-25.7608,16.9903.5099.3467,1.0607.6934,1.6114.9994,9.0356-8.3014,17.2554-14.4408,24.333-17.8674-.0612-.0612-.1224-.0815-.1836-.1224Z" fill="url(#g)"/><path d="M192.8022,385.0397c-4.834,4.2221-9.3008,7.3632-13.3801,9.3212,1.1626.3264,2.3252.6119,3.4878.8975,4.2221-1.8764,8.7705-4.7931,13.5636-8.7092-1.2237-.4896-2.4679-.9791-3.6713-1.5094ZM224.1924,348.1832h-.0204c-10.6266,15.1547-20.6821,27.0662-29.6565,35.3268l3.7325,1.5706c9.4436-8.0974,19.8663-19.8458,30.758-34.8984-1.6113-.6323-3.2227-1.3054-4.8135-1.9989ZM259.3764,289.5432c-11.2589,21.4367-22.5177,40.1811-33.1647,55.7233,1.6317.6935,3.2431,1.3462,4.8952,2.0194,10.9121-15.4402,22.3138-34.103,33.5726-55.5805-1.7745-.6935-3.5081-1.4482-5.303-2.1621ZM291.7048,219.5425h-.0204c-8.8316,21.9262-19.0094,44.2603-30.1868,65.8807h.0204c1.7541.7547,3.4878,1.4685,5.2827,2.2029,11.1772-21.6408,21.1716-44.0361,29.7788-66.0643-1.6317-.6731-3.2634-1.3258-4.8748-2.0192ZM315.0588,152.1728h-.0204c-5.6702,19.8662-13.013,41.3233-21.6611,63.1883,1.591.6731,3.2227,1.3258,4.834,1.9989,8.3626-21.9875,15.3178-43.567,20.5393-63.6575-1.2442-.4895-2.4476-1.0198-3.6918-1.5297ZM327.1335,95.3482c-1.7949,15.3178-5.5682,33.3686-11.014,53.0513.5915.2447,1.2033.4895,1.7949.7342.6119.2447,1.2033.4895,1.7949.7547v-.0204c4.9768-19.8662,8.1993-38.1211,9.3619-53.704-.6323-.265-1.285-.5506-1.9377-.8158ZM327.0928,61.7551c-.0612-.0203-.1428-.0407-.204-.0815,1.6929,7.975,1.7949,18.4384.5303,30.7784.6527.265,1.2646.5099,1.8562.775.7547-12.5642.0611-23.2724-2.1824-31.4718Z" fill="url(#h)"/><path d="M298.8232,370.7621c-10.239,9.6476-20.988,17.5002-32.002,23.4357,2.7739-.7344,5.5274-1.5502,8.281-2.4476.0203-.0204.0407-.0408.0611-.0408,9.362-5.5071,18.5201-12.3399,27.2497-20.4576-1.1829-.1428-2.3659-.3264-3.5898-.4896ZM340.9216,314.2026c-11.3405,21.4367-24.741,39.4876-39.3244,53.8671h.0204c1.2442.204,2.4475.3468,3.6509.5099,14.7875-14.3591,28.2695-32.3895,39.5896-53.8263-1.285-.1836-2.5903-.3468-3.9365-.5507ZM368.5996,242.5089c-.6119-.0815-1.2033-.1835-1.8153-.2855h-.0203c-4.8341,23.15-12.7275,46.1776-23.7009,67.8591h.0204c1.3258.204,2.5904.3671,3.9162.5507,10.9529-21.6815,18.7444-44.7091,23.3947-67.8795-.5915-.0817-1.183-.1632-1.7949-.2449ZM374.8001,169.775c-.8973-.102-1.8356-.2243-2.7535-.3671,1.4889,22.0486.0815,45.2598-4.3853,68.4098h.0204c1.183.204,2.4068.3468,3.549.5303,4.2833-23.2112,5.4051-46.4632,3.5694-68.573ZM358.7481,104.6694c-.4895-.0612-.979-.1428-1.4685-.204h-.0204c7.7099,18.2141,12.5439,38.835,14.4612,60.7408h.0203c.8975.1428,1.7746.2652,2.6721.3671-2.2641-21.9262-7.506-42.649-15.6646-60.9039ZM330.091,62.6321c-.0611,0-.102-.0203-.1632-.0203,10.5655,10.6265,19.1523,23.6599,25.822,38.4065h.0204c.4691.1021.8975.1428,1.3665.204-7.0572-14.8079-16.0725-27.9024-27.0458-38.5903Z" fill="url(#i)"/><path d="M241.6314,398.9705c-1.8153.2243-3.6102.408-5.405.5303-7.4652-1.7337-15.583-4.1201-24.2719-7.1184-5.1604-1.7745-10.3206-3.753-15.481-5.8334-1.2237-.4896-2.4679-.9791-3.6713-1.5094-19.2135-8.0158-38.223-17.9693-55.3153-28.6571-1.0809-.6527-2.1416-1.3665-3.2226-2.0192-16.8271-10.7897-31.5739-22.1914-42.5268-33.1239-.7342-.6935-1.4074-1.3869-2.0601-2.0805-5.4458-5.6499-9.8514-11.1568-12.9313-16.3376-1.591-2.6719-2.7739-5.1603-3.5694-7.4855l-1.1218-3.4062c.8158,2.3048,2.0192,4.7523,3.5694,7.3835,3.1614,5.303,7.6487,10.9121,13.2373,16.7047.673.7342,1.3869,1.4278,2.0804,2.1416,11.2385,11.1977,26.3728,22.9052,43.6077,33.9194,1.0811.6934,2.1824,1.4074,3.3042,2.0805,17.4798,10.9529,36.9789,21.1103,56.6615,29.3505l3.7325,1.5706c5.3032,2.1416,10.5655,4.1405,15.8481,5.9557,9.9535,3.4674,19.1728,6.0985,27.5353,7.9343Z" fill="url(#j)"/><path d="M320.5455,369.722c-1.3461.9177-2.6311,1.7948-3.9978,2.6515h-.0815c-4.324-.102-9.0152-.4692-14.0532-1.1218-1.1829-.1428-2.3659-.3264-3.5898-.4896-14.1143-2.1416-30.6763-6.3841-49.2575-12.8498-6.8329-2.3659-13.6657-4.9563-20.5393-7.7302h-.0204c-1.6113-.6323-3.2227-1.3054-4.8135-1.9989h-.0204c-25.4956-10.6673-50.7261-23.8434-73.407-38.019h-.0204c-1.4277-.8975-2.8147-1.7949-4.2424-2.6924-22.3342-14.2776-41.9149-29.473-56.4779-43.9544-.9179-.9179-1.8153-1.8562-2.7128-2.7536-7.2407-7.5059-13.0742-14.8079-17.1535-21.6815-3.7325-6.3433-5.7925-11.8911-6.282-16.7047-.0612-.6323-.1224-1.2442-.1224-1.856,0-.6323,0-1.2442.0611-1.8562l.3264-3.549c0,.3875-.0204.7751-.0204,1.1626v.0204c.0408.5712.0611,1.183.1224,1.7745v.102c.4895,4.834,2.57,10.4838,6.3841,16.8679,4.0997,6.9552,10.0146,14.3388,17.3166,21.9058.8975.9179,1.7745,1.8153,2.7332,2.7739l.0203.0204c14.6855,14.6447,34.4701,29.9625,57.0083,44.342,0,.0204.0204.0204.0204.0204.7342.4692,1.4278.9383,2.162,1.3869.7138.4692,1.4278.9179,2.162,1.3462v.0204h.0204c22.8848,14.3183,48.3804,27.6168,74.1412,38.4065,1.6317.6935,3.2431,1.3462,4.8952,2.0194,6.9347,2.8146,13.8492,5.4254,20.7636,7.8322,18.7648,6.5065,35.4898,10.7897,49.7267,12.9517h.0204c1.2442.204,2.4475.3468,3.6509.5099,5.5071.7344,10.6266,1.1015,15.277,1.1423Z" fill="url(#k)"/><path d="M378.0432,310.8169c-.0815.1224-.1428.2243-.2243.3467-.8159,1.285-1.6521,2.57-2.5089,3.8753-8.1586,1.3258-18.3976,1.2647-30.452-.2855-1.285-.1836-2.5903-.3468-3.9365-.5507-15.3789-2.3456-33.491-6.996-53.806-14.0328-7.4446-2.57-14.9505-5.4254-22.4362-8.4645-1.7745-.6935-3.5081-1.4482-5.303-2.1621-27.882-11.6463-55.4377-26.0871-80.1991-41.5477-1.5706-.9994-3.1206-1.9784-4.6708-2.9574-24.3943-15.6034-45.7902-32.1653-61.7198-48.0134-1.0198-1.0402-1.9784-1.9988-2.9371-3.0186-7.9139-8.1994-14.2776-16.1744-18.7444-23.6803-2.9778-5.0584-5.609-10.5247-6.6084-16.358-.102-.6323-.2039-1.2442-.2856-1.856v-.0204c-.0815-.6323-.1428-1.2646-.2039-1.8969-.4284-5.0176.1224-9.6068,1.0607-15.1547v-.0203s0-.0204.0203-.0408c.9587-1.7541,1.9581-3.4674,2.9984-5.1807-.9994,2.7535-1.8764,13.1965-1.8153,16.1336v.0408c0,.6527.0612,1.3257.102,2.0192.5507,5.2419,2.7943,11.3405,6.9144,18.2549,4.4464,7.5059,10.7897,15.4809,18.7036,23.6803.9994.9994,1.9785,1.9988,2.9984,2.9982,15.8684,15.8685,37.2847,32.4101,61.679,48.0134.7547.5099,1.5297.9994,2.3251,1.4889.7751.4895,1.5297.979,2.3252,1.4686h.0204c24.7614,15.4809,52.2762,29.8808,80.1582,41.5273h.0204c1.7541.7547,3.4878,1.4685,5.2827,2.2029h.0204c7.4855,3.0186,14.971,5.8538,22.4157,8.4236,20.3148,7.0777,38.3862,11.7077,53.8263,14.0328h.0204c1.3258.204,2.5904.3671,3.9162.5507h.0203c12.3196,1.6113,22.7626,1.6521,31.0231.1836Z" fill="url(#l)"/><path d="M406.3944,236.7163c0,.0408-.0204.102-.0204.1428-.0408.2039-.0612.4282-.0817.6323-.2039,1.2646-.4487,2.5087-.6934,3.7529-8.3014,2.876-20.2537,3.4266-35.2044,1.489-.5915-.0612-1.2034-.1428-1.7949-.2245-.6119-.0815-1.2033-.1835-1.8153-.2855h-.0203c-14.1756-2.1417-30.8396-6.4045-49.5432-12.8906-6.8328-2.3864-13.7268-4.9972-20.6208-7.7711h-.0204c-1.6317-.6731-3.2634-1.3258-4.8748-2.0192h-.0204c-25.618-10.7286-51.0115-24.0067-73.7741-38.2232h-.0204c-1.4481-.9382-2.8554-1.8356-4.3036-2.7331h-.0204c-22.4362-14.3591-42.1391-29.6158-56.743-44.1789h-.0204c-.4692-.4895-.9383-.9382-1.3869-1.3869-.4488-.4691-.8975-.9382-1.3462-1.4074-7.2816-7.5466-13.1354-14.8894-17.2351-21.7835-3.7733-6.3637-5.8334-11.9932-6.3229-16.8067-.0815-.6323-.1224-1.2646-.1224-1.8764-.0815-5.3032,3.9283-14.4456,7.7221-17.6275l1.9915-1.4997c-3.5083,3.1003-6.4502,11.2134-6.3685,16.2717v.0204c0,.2856.0204.5915.0407.8975.0204.3263.0408.6323.0612.9586.5099,4.7728,2.5291,10.341,6.2617,16.6232,4.0997,6.8328,9.8718,14.0941,17.0719,21.5387v.0204c.4487.4691.8975.9179,1.3461,1.3869.4488.4691.9179.9179,1.3667,1.3665,14.4611,14.4203,33.9397,29.5138,56.1719,43.7301h.0204c1.4277.9179,2.8147,1.8153,4.2424,2.6924h.0204c22.5381,14.1143,47.6666,27.2294,73.0399,37.8355,1.591.6731,3.2227,1.3258,4.834,1.9989,6.8125,2.7535,13.6248,5.3235,20.4373,7.7098,18.4792,6.4045,34.9596,10.6266,49.0127,12.7478h.0204c1.183.204,2.4068.3468,3.549.5303,15.0119,1.9377,26.9438,1.3462,35.1637-1.6317Z" fill="url(#m)"/><path d="M404.4159,163.7376c.2447,1.1015.4895,2.2029.7342,3.3042-6.1801,3.5491-16.6027,4.5281-30.35,2.7332-.8973-.102-1.8152-.2243-2.7535-.3671-10.749-1.6317-23.4151-4.8748-37.6112-9.7903-5.2011-1.8357-10.4634-3.7938-15.6645-5.915h-.0204c-1.2442-.4895-2.4476-1.0198-3.6918-1.5297h-.0204c-19.4786-8.1586-38.7125-18.2141-56.0291-29.0446-1.1015-.6527-2.2029-1.3665-3.2635-2.0601h-.0203c-17.0312-10.8917-32.0021-22.477-43.0978-33.5523h-.0204c-.3671-.3671-.6935-.6934-1.0402-1.0402-.3263-.3467-.6731-.6934-1.0198-1.0605-5.5071-5.711-9.9739-11.2997-13.0741-16.562-2.876-4.7933-4.4668-9.0561-4.8341-12.7478-.0407-.4895-.0611-.9587-.0815-1.4074-.102-5.5683,4.0383-10.5409,9.4841-13.0088,1.1626-.306,2.1858-.5225,3.3485-.8489-5.0991,2.4272-8.8756,7.1269-8.7941,12.43,0,.2447,0,.4691.0204.6934.0204.2449.0612.4692.0817.6935.3671,3.5898,1.8969,7.7506,4.6912,12.4622,3.0391,5.14,7.3835,10.5451,12.7682,16.1337v.0204h.0203c.6527.6934,1.3258,1.3461,1.9989,2.0397h.0204c10.8305,10.8101,25.4344,22.1097,42.0576,32.7568,1.0605.6526,2.1008,1.3257,3.1818,1.9988h.0204c16.8678,10.5654,35.6735,20.3965,54.6626,28.3308.5915.2447,1.2033.4895,1.7949.7342.5915.2447,1.2033.4895,1.7949.7342h.0203c5.1195,2.1009,10.2187,3.9978,15.2974,5.7722,13.8493,4.8135,26.1687,7.975,36.6934,9.566h.0203c.8975.1428,1.7746.2652,2.6721.3671h.0203c13.5433,1.7541,23.7211.7547,29.7586-2.8147.0815.3263.1632.6527.2243.979Z" fill="url(#n)"/><path d="M376.5135,101.8751c-.2243.2447-.4895.4895-.7751.7138h-.0204c-.1835.1428-.3671.2652-.571.408-3.2431,2.0601-8.8521,2.6311-16.3989,1.6725-.4895-.0612-.979-.1428-1.4685-.204h-.0204c-5.6906-.8566-12.3603-2.57-19.8866-5.1807-2.7535-.9587-5.5071-1.9988-8.3014-3.1207-.6323-.265-1.285-.5506-1.9377-.8158-10.3002-4.324-20.5189-9.6475-29.6565-15.3586h-.0204c-.5915-.3875-1.1422-.7342-1.7337-1.1014-8.9949-5.7722-16.9088-11.8912-22.8033-17.745-.3671-.3671-.714-.7342-1.1015-1.1218-2.9167-3.0391-5.2622-5.9762-6.9143-8.7501-1.5094-2.5496-2.3456-4.8137-2.5496-6.7512-.0408-.2652-.0408-.5303-.0408-.7548-.0408-3.1614,1.7132-5.4254,5.0787-6.7104.8159.102,1.6317.204,2.4476.306.571.0815,1.1422.1631,1.7132.2652-3.3042,1.1422-5.0787,3.3042-5.0379,6.3637v.0204c.0408.2447.0408.4487.0611.6934.1836,1.8153.9587,3.9365,2.3865,6.3433,1.5502,2.6108,3.7529,5.3847,6.5065,8.2199l1.0402,1.0402c5.507,5.5071,12.9517,11.2792,21.457,16.7047.5099.3467,1.0607.6934,1.6114.9994,8.6073,5.405,18.1732,10.4022,27.8412,14.4408.6527.265,1.2646.5099,1.8562.775,2.6107,1.0402,5.2215,2.0397,7.8118,2.9371,7.0572,2.4476,13.319,4.0386,18.6629,4.8544h.0204c.4691.1021.8975.1428,1.3665.204h.0204c7.0572.9382,12.3603.3467,15.3993-1.591h.0204c.2039-.1224.3467-.2243.5303-.3671h.0204c.3059-.2447.6119-.5099.8566-.7955l2.5291,3.4063Z" fill="url(#o)"/><path d="M347.5504,214.4637c-4.0793,4.2221-8.3014,8.3831-12.6661,12.3603-4.4057,4.0182-8.9949,7.8527-13.7473,11.4832-3.2634,2.5089-6.6084,4.8748-9.9738,7.2409-10.4227-49.0333-53.0309-90.5197-78.139-110.0187-.0408.0203-.0612.0407-.0817.0611-11.728-11.9115-35.0616-31.1455-52.4597-17.4186,10.1778-12.3399,21.3144-22.6605,33.0831-29.7993h.0204c14.3591-8.7298,31.4514,3.7529,37.8763,8.4441,19.9885,14.604,64.8404,57.4162,88.786,102.2681l.0407-.0204s.2652.5303.7547,1.5502c2.3048,4.426,4.6505,9.4232,6.5065,13.8492Z" fill="url(#p)"/><path d="M355.4847,353.0988c-10.341,11.8299-32.3284,28.0248-50.0938,34.4497,6.4452-14.2164,12.6459-31.4922,12.6459-63.576,0-8.0769.0815-18.6423-.3468-23.2519,5.446-3.6306,10.749-7.4039,15.8481-11.1161,8.2199-5.8538,22.6402-19.601,24.1902-21.4776,2.2641,23.762,3.447,50.3794-2.2436,84.9719Z" fill="url(#q)"/><path d="M197.1875,325.2371c.6934.4488,1.4074.9179,2.1212,1.3667-.8362-.4895-1.6317-1.0198-2.4068-1.5297-.4895-.3264-.979-.6731-1.4482-.9994.5712.3875,1.1422.7954,1.7338,1.1625Z" fill="url(#r)"/><path d="M217.278,335.6598c-.0611.0204-.102.0204-.1632.0204-.1224-.0612-.2447-.1021-.3467-.1632.0612,0,.102,0,.1428-.0204.1224.0612.2447.1224.3671.1632Z" fill="url(#s)"/><path d="M168.7343,271.7575c-.1632,2.6924-.2243,5.3643-.0815,8.0362.0815,1.4482.2039,2.8963.4487,4.324.1632.9383.3264,1.8764.5099,2.8147.0612.3467.1428.6935.2245,1.0402v.0204c.5915,2.8963,1.3869,5.7721,2.4679,8.5257,1.9581,4.9359,4.7524,9.5047,8.0771,13.6453,1.4685,1.8152,3.0391,3.549,4.6912,5.2011.7751.7547,1.5704,1.5297,2.4068,2.3048.3263.2856.6323.571.9586.877.5712.4895,1.1626.9994,1.7745,1.5093.4284.3671.8772.714,1.3462,1.1014.6323.5099,1.3054.9995,1.9784,1.5094.0817.0815.1836.1428.2652.2039.5507.408,1.0811.8159,1.6521,1.2034.4692.3263.9587.673,1.4482.9994.7751.5099,1.5706,1.0402,2.4068,1.5297,2.1009,1.3257,4.3445,2.5903,6.7308,3.855,3.3042,1.7541,6.9349,3.4266,10.8714,5.0379-.0408.0204-.0815.0204-.1428.0204.102.0611.2243.102.3467.1632h-.0611c-13.4616,1.8152-25.6588,2.0192-36.5505.4895-15.1546-2.1213-27.8004-7.4448-37.8151-15.9705-12.4215-10.5858-19.0708-26.7806-19.7642-48.1154-1.4482-44.342,22.3138-111.2425,57.5589-153.9119,17.3982-13.7269,40.7318,5.5071,52.4597,17.4186-3.243,2.6312-6.282,5.4662-9.1784,8.4646-3.0391,3.141-5.8945,6.4452-8.5868,9.8718-2.8147,3.549-5.446,7.2204-7.9547,10.9733-2.57,3.855-4.9972,7.8119-7.2816,11.8504-2.3252,4.0793-4.528,8.2403-6.6084,12.4624-2.0805,4.2017-4.0385,8.4849-5.8946,12.8089-1.8153,4.2425-3.5286,8.5461-5.1398,12.8906-1.5502,4.2017-3.0188,8.4646-4.3649,12.7274-1.285,4.0793-2.4884,8.179-3.5694,12.3194-1.0198,3.855-1.9377,7.7304-2.7332,11.626-.7342,3.549-1.3665,7.1184-1.8969,10.6877-.4487,3.1616-.7954,6.323-.9994,9.4844Z" fill="url(#t)"/><path d="M408.0261,193.9245c-1.9173,4.8135-3.9569,9.5455-6.1802,14.1348-11.0753,22.7013-26.291,42.5879-44.2603,59.7005,0,.0204-.0408.1021-.1428.204-1.5502,1.8764-15.9705,15.6237-24.1903,21.4775-5.0991,3.7122-10.4022,7.4856-15.848,11.1161-.4488.3264-.9179.6323-1.3869.9383-23.66,13.5025-51.9295,23.4151-67.023,27.5964-11.2588,3.1411-21.8039,5.3032-31.7165,6.6493-.0611-.0204-.102-.0408-.1632-.0611-.1224-.0612-.2447-.1021-.3467-.1632.0612,0,.102,0,.1428-.0204.0204.0204.0612,0,.0815,0-3.9569-1.6113-7.6079-3.3042-10.9529-5.0379-2.3864-1.2647-4.6299-2.5293-6.7308-3.855-.8362-.4895-1.6317-1.0198-2.4068-1.5297-.4895-.3264-.979-.6731-1.4482-.9994-.571-.3875-1.1014-.7955-1.6521-1.2034-.0815-.0611-.1835-.1224-.2652-.2039-.673-.5099-1.3461-.9995-1.9784-1.5094-.4691-.3874-.9179-.7342-1.3462-1.1014-.6119-.5099-1.2033-1.0198-1.7745-1.5093-.3263-.306-.6323-.5915-.9586-.877-.8363-.7751-1.6317-1.5502-2.4068-2.3048-1.6521-1.6521-3.2227-3.3859-4.6912-5.2011-3.3246-4.1405-6.119-8.7093-8.0771-13.6453-1.0809-2.7536-1.8764-5.6295-2.4679-8.5257v-.0204c0-.0204.0203-.0204.0203-.0204,3.4063,1.7541,11.8299,3.7122,26.3727,2.6107,17.4187-1.3869,36.6117-6.4248,54.2139-12.9109,0,0,15.1138-5.9355,22.5177-9.3825.6935-.2855,1.3258-.5915,1.9377-.9382,3.2635-1.5502,6.5677-3.1818,9.7292-4.8952.5303-.2856,1.0607-.571,1.6317-.877,1.9785-1.1014,3.9365-2.2233,5.8334-3.3246,5.3643-3.1003,10.2799-6.8532,15.2974-10.4022,1.1626-.8159,2.3252-1.6318,3.4878-2.4476,3.3655-2.3661,6.7104-4.732,9.9739-7.2407,4.7523-3.6306,9.3415-7.4652,13.7472-11.4832,4.3649-3.9773,8.5868-8.1382,12.6661-12.3603.0408-.0408.0612-.0612.1021-.102.3875-.4488.7751-.9587,1.1626-1.4074,8.4236-9.7088,15.848-20.3965,21.9262-32.0225,8.7909-16.9699,21.457-41.1398,24.4758-59.3946,10.443,10.5245,20.0497,41.9148,13.0945,72.5504Z" fill="url(#u)"/><path d="M217.278,335.6598c-.0815.0204-.1428.0204-.2243.0204-7.8526-3.2023-14.3999-6.7512-19.8662-10.4431,5.5274,3.6715,12.1562,7.2,20.0905,10.4227Z" fill="url(#v)"/></svg>