<?xml version="1.0" encoding="UTF-8"?><svg id="a" xmlns="http://www.w3.org/2000/svg" xmlns:xlink="http://www.w3.org/1999/xlink" viewBox="0 0 224 64"><defs><radialGradient id="b" cx="40.615782" cy="20.82783" fx="40.615782" fy="20.82783" r="31.998908" gradientTransform="translate(73.592108 -9.602137) rotate(112.14518) scale(1 .915746)" gradientUnits="userSpaceOnUse"><stop offset=".048351" stop-color="#bad9ea"/><stop offset=".531791" stop-color="#159bd7"/><stop offset=".623299" stop-color="#1397d3"/><stop offset=".701207" stop-color="#0d8dc9"/><stop offset=".769414" stop-color="#047dba"/><stop offset=".815328" stop-color="#0a6aa4"/><stop offset=".889451" stop-color="#125287"/><stop offset=".953591" stop-color="#184375"/><stop offset="1" stop-color="#1a3e6f"/></radialGradient><radialGradient id="c" cx="30.835871" cy="12.640603" fx="30.835871" fy="12.640603" r="49.85007" gradientTransform="translate(67.13871 69.88354) rotate(-140.256715) scale(.969003 .7451) skewX(.27153)" gradientUnits="userSpaceOnUse"><stop offset=".023053" stop-color="#be4729"/><stop offset=".671895" stop-color="#be4729"/><stop offset=".727955" stop-color="#c24929"/><stop offset=".78501" stop-color="#ce5029"/><stop offset=".826111" stop-color="#dc5829"/><stop offset=".9371" stop-color="#ed8224"/><stop offset="1" stop-color="#f99d22"/></radialGradient><radialGradient id="d" cx="44.876932" cy="19.068849" fx="44.876932" fy="19.068849" r="34.816325" gradientUnits="userSpaceOnUse"><stop offset=".425564" stop-color="#047dba"/><stop offset=".521671" stop-color="#0a6aa4"/><stop offset=".676826" stop-color="#125287"/><stop offset=".811082" stop-color="#184375"/><stop offset=".908224" stop-color="#1a3e6f"/></radialGradient><radialGradient id="e" cx="44.54609" cy="21.711131" fx="44.54609" fy="21.711131" r="43.617552" xlink:href="#d"/><radialGradient id="f" cx="44.547395" cy="21.711618" fx="44.547395" fy="21.711618" r="43.619177" xlink:href="#d"/><radialGradient id="g" cx="44.546873" cy="21.649342" fx="44.546873" fy="21.649342" r="43.40203" xlink:href="#d"/><radialGradient id="h" cx="44.596518" cy="21.662213" fx="44.596518" fy="21.662213" r="43.439886" xlink:href="#d"/><radialGradient id="i" cx="45.657099" cy="21.468932" fx="45.657099" fy="21.468932" r="42.509968" xlink:href="#d"/><radialGradient id="j" cx="42.27977" cy="22.51463" fx="42.27977" fy="22.51463" r="42.236825" xlink:href="#d"/><radialGradient id="k" cx="43.463518" cy="21.954122" fx="43.463518" fy="21.954122" r="43.300407" xlink:href="#d"/><radialGradient id="l" cx="43.883318" cy="20.522499" fx="43.883318" fy="20.522499" r="45.239715" xlink:href="#d"/><radialGradient id="m" cx="44.140952" cy="21.408316" fx="44.140952" fy="21.408316" r="43.764352" xlink:href="#d"/><radialGradient id="n" cx="44.31092" cy="21.687387" fx="44.31092" fy="21.687387" r="43.105868" xlink:href="#d"/><radialGradient id="o" cx="44.458783" cy="21.696067" fx="44.458783" fy="21.696067" r="43.217672" xlink:href="#d"/><linearGradient id="p" x1="34.989233" y1="13.089595" x2="43.271578" y2="57.710726" gradientUnits="userSpaceOnUse"><stop offset=".000001" stop-color="#be4729"/><stop offset=".168334" stop-color="#dc5829"/><stop offset=".505263" stop-color="#f99d22"/><stop offset=".588242" stop-color="#f79822"/><stop offset=".676266" stop-color="#f18b23"/><stop offset=".766643" stop-color="#e87625"/><stop offset=".858087" stop-color="#dc5928"/><stop offset=".861667" stop-color="#dc5829"/><stop offset="1" stop-color="#be4729"/></linearGradient><linearGradient id="q" x1="40.373558" y1="11.876442" x2="48.728718" y2="56.889869" xlink:href="#p"/><linearGradient id="r" x1="26.977383" y1="48.836462" x2="27.553075" y2="48.836462" gradientUnits="userSpaceOnUse"><stop offset=".161671" stop-color="#d5411f"/><stop offset=".282391" stop-color="#df581f"/><stop offset=".448579" stop-color="#ec731f"/><stop offset=".597172" stop-color="#f3831f"/><stop offset=".712333" stop-color="#f6891f"/><stop offset="1" stop-color="#f6891f"/></linearGradient><linearGradient id="s" x1="30.160425" y1="50.36706" x2="30.236574" y2="50.36706" xlink:href="#r"/><linearGradient id="t" x1="23.997252" y1="53.332111" x2="24.55568" y2="17.541964" gradientUnits="userSpaceOnUse"><stop offset=".161672" stop-color="#be4729"/><stop offset=".304192" stop-color="#d75529"/><stop offset=".328334" stop-color="#dc5829"/><stop offset=".712334" stop-color="#f99d22"/><stop offset="1" stop-color="#f99d22"/></linearGradient><linearGradient id="u" x1="23.151664" y1="34.383331" x2="59.075478" y2="34.383331" gradientUnits="userSpaceOnUse"><stop offset=".000002" stop-color="#f99d22"/><stop offset=".157641" stop-color="#f69722"/><stop offset=".347933" stop-color="#f08924"/><stop offset=".554158" stop-color="#e67026"/><stop offset=".719448" stop-color="#dc5829"/><stop offset=".898244" stop-color="#c94d29"/><stop offset=".990317" stop-color="#be4729"/></linearGradient><linearGradient id="v" x1="27.236301" y1="49.600994" x2="30.644902" y2="49.600994" gradientUnits="userSpaceOnUse"><stop offset="0" stop-color="#f6891f"/><stop offset=".207151" stop-color="#f4841f"/><stop offset=".428995" stop-color="#ee771f"/><stop offset=".657681" stop-color="#e4621f"/><stop offset=".889726" stop-color="#d6441f"/><stop offset=".91464" stop-color="#d5411f"/></linearGradient></defs><path d="M100.747418,23.255484c-.306169-1.343934-.965511-2.528432-1.961089-3.52671-1.183175-1.219911-2.798289-2.050864-4.800454-2.469782-1.865385-.39388-4.752602-.585553-8.825534-.585553-5.278551,0-8.857718.487202-10.942883,1.489502-2.168165,1.039407-3.388182,2.999807-3.52708,5.66862l-.066485,1.283696h6.89917l.246459-.896591c.122383-.444961.343857-.702483.740649-.861073.519174-.209353,2.107186-.558451,6.942788-.558451,2.858421,0,4.897852.125665,6.061123.373553.968899.206389,1.671435.568244,2.088553,1.075507.066908.083424.121959.163512.164306.239419.256199.444749.54797,1.269404.597092,2.794213-.523409-.233332-1.095516-.411348-1.714206-.533148-1.620619-.316808-4.775893-.470687-9.646642-.470687-6.37195,0-8.347437.524414-9.279494.918824-1.469864.639704-2.529809,1.593993-3.161202,2.841112-.593281,1.181428-.880817,2.729316-.880817,4.735928,0,1.64084.184209,2.917707.563215,3.903598.41373,1.066826,1.151838,1.984591,2.194421,2.73101,1.049782.777438,2.456125,1.26771,4.299066,1.498713,1.673129.209088,4.580249.315114,8.641325.315114,3.710866,0,6.227547-.202472,7.69487-.618954.451419-.128205.882511-.297911,1.292006-.508217l-.026679,1.049358h6.811088v-13.803634c0-2.584383-.104597-4.434946-.31972-5.657451-.022867-.141333-.052934-.289759-.083847-.427916ZM94.104023,34.747978c0,1.195244-.488684,1.551593-.967205,1.742525-.689409.274197-2.46163.601804-6.98217.601804-7.010543,0-8.355906-.3735-8.601519-.487943-.379429-.180927-.824496-.548288-.824496-1.757347,0-.98282.230368-1.616702.685174-1.884123.091046-.051928.537383-.255988,1.906038-.383664,1.111608-.099198,3.160779-.149697,6.085685-.149697,4.792831,0,6.74418.353544,7.536916.650185.82619.30638,1.161578.789348,1.161578,1.668259Z" fill="#dc5829"/><polygon points="106.412174 5.921962 106.412174 6.298588 106.412174 41.946542 106.412174 43.166823 107.632614 43.166823 111.99774 43.166823 113.21818 43.166823 113.21818 41.946542 113.21818 6.298588 113.21818 5.921962 106.412174 5.921962" fill="#dc5829"/><path d="M150.718973,23.032739c-.709312-1.900638-2.028844-3.43344-3.916672-4.542296-1.216205-.701531-2.674635-1.167506-4.46676-1.429634-1.694726-.243442-4.083519-.361537-7.305701-.361537-3.831978,0-6.485864.238043-8.113682.727627-.520868.159013-1.007858.360161-1.458853.602439v-1.13781h-6.805583v42.193419h6.805583v-17.161271c.478944.246406.996424.448931,1.550323.606356,1.624854.465605,4.122902.692267,7.634737.692267,4.736933,0,8.017554-.286424,10.029459-.875736,2.166472-.633193,3.91032-1.954948,5.181577-3.928424,1.225945-1.901962,1.821767-4.665632,1.821767-8.448752,0-2.629959-.263822-4.797542-.784266-6.442564-.052934-.162824-.107985-.329248-.171929-.494083ZM144.623972,30.068372c0,1.829178-.165153,3.244467-.490802,4.206537-.288806.839211-.714817,1.442338-1.300899,1.838282-.336235.222428-1.043006.534525-2.449773.723022-1.239073.170076-3.202702.256093-5.838802.256093-4.659438,0-6.508308-.483232-7.239216-.888598l-.009316-.005188-.009316-.005029c-.663577-.352962-1.128971-.933645-1.423282-1.775238-.348939-.997113-.525526-2.575014-.525526-4.689928,0-1.778573.164306-3.158608.488684-4.101834.140169-.399385.309133-.741496.514092-1.039248.221051-.325066.473439-.582006.775797-.791783.321837-.216605,1.029032-.525685,2.490426-.713547,1.326731-.1705,3.436881-.25694,6.272011-.25694,4.323627,0,6.081873.480691,6.795844.883993l.01101.006193.01101.006034c.405261.217769.72498.501547.977792.867531.177857.255511.323954.547864.436174.872454.34174.974986.514092,2.523774.514092,4.607193Z" fill="#dc5829"/><path d="M187.880566,23.560276c-.313368-1.405496-.950266-2.626307-1.891216-3.623472l-.009316-.009899-.009316-.009687c-1.118807-1.133682-2.653038-1.930546-4.56077-2.368573-1.7989-.41193-4.288902-.612126-7.61314-.612126-3.957325,0-6.778481.283301-8.624386.865996-.645791.205912-1.236532.466981-1.770104.781831V5.921962h-6.806007v37.244861h6.806007v-12.279936c0-2.575861.124077-3.71166.22825-4.210878.127464-.59921.40272-1.129235.840164-1.615484.023714-.026573.041077-.047217.059286-.06532l.010163-.010322.013551-.014345c.573378-.606303,1.475792-1.069896,2.682681-1.377971,1.394486-.351639,3.447891-.530343,6.099659-.530343,2.347717,0,4.112739.131593,5.247214.391127.937139.217822,1.595211.553422,1.951772.996477.082153.103856.154143.207341.206653.297382l.010163.017521.01101.017203c.24773.393774.416694.854721.51621,1.409149.147367.809886.221898,2.389111.221898,4.695804v12.279936h6.810241v-13.420817c0-2.625672-.117301-4.530915-.358255-5.823663-.021173-.128788-.046582-.247942-.072413-.362067Z" fill="#dc5829"/><path d="M223.676893,23.689382c-.024985-.154302-.054628-.298864-.084694-.433633-.299393-1.336312-.959159-2.523986-1.961936-3.532003-1.179363-1.214035-2.797442-2.046841-4.800454-2.464912-1.859879-.393668-4.74625-.585394-8.820453-.585394-5.276857,0-8.857295.487043-10.946271,1.489026-2.169436,1.042636-3.389029,3.002877-3.527927,5.669096l-.066485,1.283696h6.903405l.246459-.896644c.122806-.446284.343011-.703754.735991-.86102.519597-.209353,2.108033-.558451,6.947446-.558451,2.858421,0,4.897852.125665,6.061123.373553.968475.206389,1.671435.568244,2.088553,1.075507.056321.070349.111796.15282.160072.239419.256199.444643.547546,1.269033.596669,2.79326-.522562-.232538-1.094669-.410289-1.713782-.532196-1.621042-.316808-4.774199-.470687-9.642408-.470687-6.37195,0-8.347437.524414-9.279494.918824-1.476639.642721-2.537431,1.598228-3.163319,2.84487-.594128,1.183492-.883358,2.73138-.883358,4.732169,0,1.633217.185903,2.910085.567873,3.903545.406954,1.062697,1.143792,1.982209,2.190186,2.731169,1.050205.777755,2.458242,1.267922,4.303724,1.498607,1.668048.209088,4.575591.315114,8.640901.315114,3.71256,0,6.228394-.202577,7.691482-.619219.451419-.128205.882088-.297382,1.290736-.506735l-.026255,1.048141h6.815323v-13.803634c0-2.586448-.105444-4.435211-.323107-5.651469ZM216.948804,34.747978c0,1.196726-.486567,1.55244-.96297,1.742525-.689409.274197-2.46163.601804-6.98217.601804-7.010543,0-8.355906-.373447-8.601519-.487943-.379429-.180927-.824496-.548288-.824496-1.757347,0-1.483679.512398-1.785084.680939-1.884123.118995-.067173.57973-.26001,1.909849-.383611,1.10822-.099251,3.155697-.14975,6.081873-.14975,4.791984,0,6.746298.353809,7.541997.650608.821955.304845,1.156496.787813,1.156496,1.667836Z" fill="#dc5829"/><path d="M132.528003,56.335193c.144125.164529.305615.331662.486206.5014.179723.169738.382887.321243.609494.45495.225739.133707.477524.241801.755356.323848.277832.082481.580843.123722.910768.123722.678952,0,1.20857-.154544,1.588852-.463198.380283-.30822.570424-.724968.570424-1.249376,0-.565649-.21532-.989777-.647696-1.272818-.431508-.283041-1.054026-.511819-1.866684-.686766-.442795-.092466-.843915-.220963-1.20336-.385492-.360314-.164529-.671138-.370298-.933342-.617308s-.465369-.532222-.609494-.85607c-.144125-.324282-.216188-.691976-.216188-1.103514,0-.380283.072063-.740162.216188-1.079638s.359445-.637712.647696-.89514c.288251-.256995.648564-.462764,1.080072-.616874.432376-.154544.930738-.231382,1.49682-.231382.503571,0,.938552.05383,1.303206.161924.365523.108094.676348.239196.933342.393306s.463632.313863.617308.478392c.154544.164529.272623.298235.355104.40112l-.987172.910334c-.061644-.072063-.154544-.167133-.277832-.285646-.123288-.118079-.280437-.233553-.470578-.346856s-.411539-.208374-.663324-.285646c-.252654-.077272-.542641-.115474-.871698-.115474-.329926,0-.612099.043845-.849124.131102-.236157.087257-.431508.20056-.586052.339476-.154544.138482-.267413.295631-.339476.470144-.072063.175382-.10766.349895-.10766.524842,0,.256995.05383.475787.16149.65551.108528.180157.264809.339476.470578.478392s.460159.257429.764038.35467c.303011.098109.650301.19318,1.041002.285646.381151.092466.75362.213583,1.119142.362484.364655.149335.691107.349895.979358.60168.288251.252219.516594.560874.686766.925962.169304.365089.25439.80962.25439,1.334462,0,.442361-.092032.84869-.277832,1.218554-.184932.370298-.439322.691976-.76317.964598s-.707604.483602-1.14953.632502c-.442795.148901-.921187.223568-1.435176.223568-.483602,0-.922924-.056435-1.318834-.169738-.395911-.112869-.756224-.256995-1.080072-.431942-.323848-.174513-.60689-.367693-.848256-.578672-.242235-.210545-.44019-.418919-.594734-.624688l1.049684-.95635Z" fill="#1a3e6f"/><path d="M147.801732,59.096584c-.555664,0-1.064444-.10028-1.527208-.30084s-.86128-.475787-1.195546-.825682c-.334267-.349461-.596471-.753185-.786612-1.211174-.19101-.457555-.285646-.948536-.285646-1.473378,0-.524408.094637-1.01539.285646-1.473378.190141-.457555.452345-.86128.786612-1.211174.334267-.349461.732782-.624688,1.195546-.825248s.971544-.30084,1.527208-.30084c.545246,0,1.049684.10028,1.512449.30084s.863884.475787,1.20336.825248c.339476.349895.604285.75362.794426,1.211174.190141.457989.285646.94897.285646,1.473378,0,.524842-.095505,1.015824-.285646,1.473378-.190141.457989-.45495.861714-.794426,1.211174-.339476.349895-.740596.625122-1.20336.825682s-.967203.30084-1.512449.30084ZM147.801732,57.892789c.370732,0,.704999-.074233,1.0028-.223568.29867-.148901.550455-.344251.756224-.586052s.362918-.519633.470578-.833496c.10766-.313429.162358-.634673.162358-.964164,0-.318639-.054698-.635107-.162358-.94897-.10766-.313429-.267413-.593866-.478392-.840442-.210979-.24701-.462764-.444965-.756224-.5943-.292592-.148901-.624254-.223568-.994986-.223568-.369864,0-.704131.074667-1.0028.223568-.29867.149335-.550455.344685-.756224.586486s-.36205.519199-.470578.833062c-.10766.313863-.16149.635107-.16149.964164,0,.329492.05383.64813.16149.956784.108528.30822.267413.586052.478392.833062.210979.246576.462764.444965.756224.593866.29346.149335.625122.223568.994986.223568Z" fill="#1a3e6f"/><path d="M158.339383,52.822391h-1.29626v-1.15691h1.29626v-.586486c0-.483167.069458-.90252.208374-1.25719.138916-.355104.323848-.645526.554796-.871698.231816-.226173.496625-.393306.794426-.5014.29867-.108094.612099-.161924.941156-.161924.381151,0,.75362.059039,1.119142.177118.364655.118513.701526.321677,1.010614.609494l-.69458.89514c-.380283-.319073-.786612-.478392-1.218988-.478392-.40112,0-.722363.128497-.96373.385492-.242235.257429-.362918.69979-.362918,1.327082v.462764h2.051616v1.15691h-2.051616v6.274193h-1.388292v-6.274193Z" fill="#1a3e6f"/><path d="M168.614633,52.873541h-1.29626v-1.15691h1.29626v-2.345077h1.388292v2.345077h2.098501v1.15691h-2.098501v3.533243c0,.576068.089427.971978.270018,1.188166.179723.215754.434113.323848.76317.323848.267413,0,.488811-.040807.664192-.123288.174513-.082481.349027-.205769.524408-.370298l.632068.848256c-.297801.288251-.604285.496625-.917714.625122-.314298.128497-.686766.192746-1.118274.192746-.761434,0-1.319703-.205769-1.673938-.617308-.355104-.411105-.532222-1.054026-.532222-1.928328v-3.672159Z" fill="#1a3e6f"/><path d="M177.922395,51.922438h1.528077l1.60448,5.4772,1.727768-5.4772h1.187732l1.728637,5.523216,1.573224-5.523216h1.435176l-2.376333,7.174146h-1.372664l-1.666993-5.014001-1.650496,5.014001h-1.29626l-2.422349-7.174146Z" fill="#1a3e6f"/><path d="M198.812765,58.032139c-.267413.359879-.619913.627293-1.05663.80224-.437586.174513-.887326.262204-1.35009.262204-.29867,0-.593866-.038636-.887326-.115908-.29346-.076838-.560874-.205335-.80224-.385492-.242235-.179723-.437586-.411105-.586052-.694146-.149335-.283041-.224002-.629897-.224002-1.041436,0-.771418.270018-1.388726.810054-1.851491s1.318834-.694146,2.337263-.694146c.164095,0,.339476.005209.524408.015194.184932.010419.360314.020837.524408.030822.164963.010419.309088.020837.432376.030822.123288.010419.210979.020837.262204.030822v-.262204c0-.534393-.162358-.917714-.486206-1.14953-.323848-.231382-.76317-.346856-1.318834-.346856-.545246,0-.977622.074667-1.29626.223568-.318639.149335-.586052.30084-.80224.455384l-.647696-.941156c.123288-.102885.272623-.205769.447136-.308654.175382-.102885.380283-.197955.617308-.285646.236157-.087257.503571-.159319.80224-.215754s.642487-.085086,1.034056-.085086c.925528,0,1.653101.224002,2.182719.671138.529617.44757.794426,1.082677.794426,1.905755v4.173125c0,.252219.005209.665929.015628.840876h-1.316504l-.010144-1.064444ZM198.797137,55.501697c-.040807-.009985-.120683-.023008-.238762-.038636-.118947-.015194-.255258-.028217-.408934-.038202-.154544-.010419-.319507-.020837-.49402-.031256-.175382-.009985-.344685-.015194-.50878-.015194-.39157,0-.707604.04645-.94897.138916-.242235.092466-.432376.208374-.571292.346856-.138916.138916-.233553.29346-.284778.463198-.052094.169738-.077272.331662-.077272.485772,0,.391136.133707.686766.40112.887326s.637277.30084,1.11046.30084c.267413,0,.521803-.04645.764038-.138916.241367-.092466.45495-.216188.639882-.370298.184932-.154544.334267-.334267.448004-.540036.112869-.205769.169304-.416748.169304-.632502v-.817868Z" fill="#1a3e6f"/><path d="M206.889384,53.09554v-.779232c0-.220963-.005209-.449741-.015628-.686332h1.326648l.046016,1.15691c.082481-.123288.19101-.259599.324716-.4085.132838-.149335.295197-.285646.485338-.408934.190141-.123722.411539-.228777.664192-.316468.251785-.087257.541773-.131102.871698-.131102.153676,0,.295197.010419.423694.030822.128497.020837.249181.051659.362918.092466l-.309088,1.29626c-.184932-.072063-.421089-.108094-.70934-.108094-.29867,0-.573897.056869-.825682.169738-.251785.113303-.470578.270018-.65551.470578s-.331662.434547-.439322.70196c-.108528.267413-.162358.550455-.162358.84869l-.015628,4.072282h-1.388292l.015628-6.001044Z" fill="#1a3e6f"/><path d="M223.718526,57.815216c-.082481.0929-.205769.210979-.369864.355104-.164963.144125-.378546.283041-.64075.416314-.262204.133707-.570424.249615-.925528.34729s-.758829.14673-1.211174.14673c-.555664,0-1.064444-.0929-1.527208-.277832-.462764-.185366-.858675-.44757-1.187732-.787046-.329926-.339476-.584316-.745371-.764038-1.218554s-.270018-.997591-.270018-1.573658c0-.524842.087691-1.015824.262204-1.473813.174513-.457121.421958-.853466.740596-1.187732s.697185-.599075,1.133902-.794426c.437586-.195351.917714-.29346,1.442991-.29346.61644,0,1.146057.118513,1.588852.355104.441927.236591.804845.550455,1.087886.941156.282173.390701.490547.838272.624254,1.342276s.20056,1.028413.20056,1.573658h-5.661697c.010419.318639.079009.612099.208374.879512.128497.267413.300406.498795.516594.694146s.462764.349895.740596.462764c.277832.113303.571292.169738.879512.169738.60689,0,1.105251-.102885,1.49682-.308654.390701-.205769.672875-.406329.848256-.60168l.786612.833062ZM222.469149,54.652705c-.041675-.555664-.237026-1.028413-.586052-1.419548-.349895-.390701-.843915-.586486-1.481192-.586486-.329926,0-.625122.056869-.887326.169738-.262204.113303-.486206.262638-.671138.44757s-.329057.398515-.432376.640316c-.102451.241801-.158885.491416-.169304.74841h4.227389Z" fill="#1a3e6f"/><path d="M58.835191,32.318154c-.048746.913791-.137072,1.821503-.271096,2.732245-.024373.1858-.054825.36552-.085277.55132,0,.006098-.003049.015226-.003049.021324-.006098.030452-.009147.063953-.012196.094424-.030452.188849-.067002.374648-.103553.560448-.651842,3.420637-1.915908,6.755959-3.755686,9.811076-.115748.191898-.231497.386844-.359422.578742-.012177.018275-.021324.033501-.033501.051776-.121846.191898-.246723.383795-.374667.578723-1.65699,2.476375-3.703891,4.739547-6.13152,6.67678-.43559.347245-.868113.679245-1.312812.986891q-.006098.003049-.009147.003049c-.197995.143152-.386844.280224-.58787.40815-.045697.030471-.079198.060923-.124895.091394h-.012177c-.201026.137054-.392923.268028-.597017.395972h-.012177c-1.242761.785847-2.525102,1.455964-3.831835,2.016431-.770621.332-1.550388.621371-2.336254.871143-.003049,0-.006098.003049-.009128.006098-.411217.134023-.822416.255851-1.236663.36552-.545241.146201-1.090462.274126-1.635703.383777,0,0-.006079.003049-.009128.003049-.070051.012196-.134023.024373-.201044.033501,0,0-.006079.006098-.009128.006098-.17972.033501-.356373.063972-.536094.094424-.079198.012196-.14925.024373-.228448.033501h-.009128c-.173623.030471-.341147.060923-.517819.085296h-.003049c-.085296.012177-.167525.021324-.252821.030452h-.006079c-.118797.015245-.234546.030471-.350294.042648h-.003049c-.271096.033501-.539143.060923-.807171.079198-.067021.009128-.130993.012177-.197995.018275-2.634771.194947-5.251249-.024373-7.764174-.651842-.173623-.042648-.347245-.085277-.520868-.134023-.130974-.03655-.2589-.0731-.389874-.10965-.012196-.003049-.030471-.009147-.042648-.012177-.134023-.039599-.264998-.076149-.399021-.124895-.015226-.003049-.033501-.009128-.051776-.015226-1.879377-.58787-3.685635-1.410286-5.373095-2.464198-.003049,0-.009147-.00303-.012177-.006079-.097473-.060923-.197995-.124895-.295469-.188849-.012177-.006098-.021324-.015245-.033501-.024373-.094424-.060923-.191898-.127926-.286322-.191898-1.459013-.962518-2.82362-2.113904-4.066362-3.432814-.085296-.091375-.170574-.179702-.252821-.274126-.134023-.14925-.268047-.298518-.399021-.450816-.085296-.097455-.170574-.197977-.252821-.298499-.024373-.030452-.048727-.057874-.0731-.088326-.10965-.127944-.216271-.25587-.319823-.383795-.313744-.392923-.618341-.798043-.910742-1.215339-6.05539-8.617061-6.070635-20.1826-.932066-29.445405v-.00303s0-.003049.00303-.006098c.14317-.261949.29242-.517819.447767-.77367.003049,0,.003049-.003049.003049-.006098,1.781885-3.000273,4.118139-5.732518,6.978309-8.016995.161445-.127926.322872-.25587.487366-.377697l.00303-.003049.057874-.042648c.0731-.057874.146219-.112699.21932-.164476,2.665224-1.989027,5.537571-3.420618,8.476921-4.316134.115748-.039599.237595-.073119.356392-.109669.0731-.021305.14925-.042629.22235-.063953h.006098c.070051-.018275.137054-.03655.204075-.054825l.003049-.003049c.088326-.024373.167525-.042648.249772-.060923.082229-.018275.161427-.039599.249753-.063972-.005689.002714-.010783.006284-.016453.009035,2.998823-.74926,6.053921-.950527,9.008162-.609082h.003049c.088326.009128.176671.021324.264998.033501.121846.015226.243674.030471.36552.045697.085277.012177.170574.024354.255851.039599h.003049c.560467.085277,1.117884.188849,1.666155.316774.240625.051776.48125.10965.715796.173623.377697.097473.752364.204075,1.123964.316774.225399.07007.450798.14317.673166.222368.012177,0,.024354.006079.033501.012177,4.127286,1.422463,7.867746,3.990213,10.770545,7.651475.103571.127926.210173.2589.310695.392923l.377697.50869c.063972.085277.124877.173623.182751.2589.819367,1.163563,1.526034,2.381951,2.1261,3.639938.548271,1.148337,1.008215,2.333205,1.376766,3.542465.118797.386826.225417.776719.325921,1.169642.045697.161445.085296.319842.121846.481268.012177.048727.024373.097473.033501.146201.03655.164494.0731.32897.10965.493446.07007.341166.137072.688392.194947,1.035637.045697.268047.094424.542192.124895.81022.067002.481268.118779.962537.158378,1.446836.109669,1.267134.134023,2.549494.063972,3.828786Z" fill="url(#b)"/><path d="M54.984152,14.350132c.552917.794343,1.07008,1.629636,1.538647,2.485603l.079411-.04254c-1.338143-3.873517-3.914473-7.566936-7.269707-10.41711l-.647935-.531948-.666503-.504515c-.464024-.343102-.929035-.664736-1.380417-.954166-.449603-.289828-.935752-.594764-1.446198-.864316l-.056694-.02942c-.474098-.247288-.964593-.502925-1.459631-.720793-1.903505-.897314-4.028454-1.575965-6.32072-2.018459-3.784096-.730335-7.731756-.661953-11.416686.196399l-.00079.000398-.000988-.003976-.281891.064009-.000988-.004771c-.632724.149486-1.266633.320441-1.890665.509684-3.770268,1.144204-7.271683,2.941615-10.126151,5.197423l-.801819.638496c-.36071.28625-.684282.54626-.997977.831715-1.195123,1.015789-2.356467,2.201739-3.660238,3.736356-1.232854,1.46226-2.234979,2.850572-3.062874,4.24445-.975853,1.62407-1.757918,3.151532-2.391827,4.670246-.668676,1.575567-1.229693,3.250924-1.668234,4.981145-.413058,1.627649-.717271,3.371785-.903948,5.183906-.152699,1.482536-.187862,3.01119-.107462,4.673029.354389,7.312889,2.98682,14.040954,7.412332,18.945766,4.612188,5.111946,10.723119,8.306017,17.206811,8.993415,5.958035.630545,12.23253-.902085,17.244146-4.211054l-.082967-.176918c-5.741727,2.874823-12.552942,3.512922-18.722741,1.747317-.532571-.152269-1.07087-.326404-1.600082-.51684-6.210097-2.236725-11.392981-6.911742-14.593738-13.162724l-.074473-.163401c-.291373-.640484-.592623-1.302835-.840932-1.979497-.551337-1.451525-.988298-2.950759-1.298042-4.453173-.298682-1.50639-.485358-3.057308-.555485-4.611406-.073485-1.505197-.022125-3.067247.152502-4.642814.657417-6.123362,3.160854-12.129839,7.048856-16.911404,1.055857-1.294883,2.095318-2.398933,3.17804-3.374568,1.263077-1.148578,2.451089-2.088431,3.631002-2.873233,1.267621-.857954,2.620974-1.627251,4.020948-2.286023,1.330834-.626172,2.760438-1.164878,4.250293-1.602204l-.000988-.013915.106475-.015505.21611-.061226-.00079-.012722.098573-.012722v.000795c3.323825-.893338,6.694468-1.155336,10.016713-.777248l.000198-.000398c.017384.001193.033582.003181.048595.005964l.244161.03101c.166725.020674.332857.041347.479037.065996,7.460729,1.369626,13.462026,5.086104,17.357732,10.747888Z" fill="url(#c)"/><path d="M42.62849,37.719133c-.064562.042479-.130528.082415-.19546.124242.00063.005342.001627.010775.002257.016117.0656-.044886.128014-.094811.193203-.140359Z" fill="none"/><path d="M42.557526,6.911727c-.009147-.006098-.021324-.012177-.033501-.012177-.222368-.079198-.447767-.152298-.673166-.222368,1.324989.487366,2.628674,1.114835,3.88971,1.897652.006079,0,.009128-.003049.012177-.003049-1.038668-.65794-2.107806-1.212309-3.19522-1.660057Z" fill="url(#d)"/><path d="M7.324797,33.460393c-.009147-.094424-.018275-.1858-.018275-.277175-.067021.84374-.094424,1.684412-.082247,2.522053l.015226.563516.021324.332c-.045678-1.038668-.021324-2.083433.063972-3.140394ZM7.260825,36.600787c.015226.493446.051795.98691.097473,1.471209l-.097473-1.471209ZM10.346394,22.656346c-.003049.009128-.009128.015226-.012177.024373-1.653959,3.216544-2.625625,6.557964-2.969821,9.868932v.003049c.003049.088326.009128.1858.015226.280224,0-.003049,0-.006079.003049-.009128v-.006098c.347245-3.292693,1.324989-6.634113,2.981998-9.850656v-.003049c.003049,0,.003049-.003049.003049-.003049-.015226-.103571-.018275-.207124-.021324-.304597ZM17.26075,13.862632c-2.601252,2.254007-4.858326,5.004526-6.588435,8.181471,0,.003049-.003049.003049-.003049.006098,0,.097473.009147.197977.018275.301548,1.730109-3.179993,3.984134-5.936592,6.588435-8.208893-.012177-.094424-.015226-.188849-.015226-.280224ZM26.541811,8.419485c-3.149523,1.133092-6.13152,2.823602-8.781518,5.016704v.003049h-.003049c.003049.045697.006098.088326.009128.134023.003049.048727.006098.094424.009147.143152,2.646949-2.208328,5.628947-3.926241,8.778488-5.086755-.003049-.0731-.009147-.140121-.012196-.210173ZM36.962081,6.786831c-3.310968-.134005-6.64326.359441-9.814125,1.419432,0,.03655,0,.070051.003049.103553.003049.036569.003049.07007.009147.103571h.003049c3.170847-1.084365,6.497041-1.611311,9.801929-1.513838-.003049-.039599-.003049-.076149-.003049-.112718ZM37.58955,6.8234c.006098.03655.006098.067002.009128.103553,2.729196.146201,5.437068.724942,8.029191,1.769708v-.015226c-2.595172-1.075236-5.309123-1.681381-8.038319-1.858034Z" fill="url(#e)"/><path d="M12.981166,51.848912c-.648793-1.093493-1.145288-2.305783-1.492533-3.624693-.10965-.103571-.210173-.207124-.307646-.310695.353343,1.279311.84374,2.470277,1.474258,3.548562.024373.030452.048727.057874.0731.088326.085296.103571.173623.210173.261949.313744-.003049-.006098-.006079-.009147-.009128-.015245ZM11.232782,39.604127c-.140121-.137072-.274145-.277194-.408168-.411217-.456895,2.982016-.371599,5.778215.234546,8.251541.100504.10965.207124.213222.310676.319823-.560448-2.439825-.621371-5.199473-.137054-8.160147ZM14.193456,29.223457c-1.663106,3.219592-2.744422,6.396537-3.271369,9.399859.134023.137072.264998.271096.408168.414247.55132-2.985047,1.641764-6.143716,3.301821-9.363309-.152298-.155347-.29545-.298499-.43862-.450798ZM20.998161,20.115999c-.067021-.067002-.137072-.137054-.204093-.207124-2.412403,2.576897-4.559808,5.510168-6.280789,8.705387.146219.152298.29242.298499.444718.450798,0,0,0-.003049.003049-.003049,1.717932-3.19522,3.853141-6.137618,6.244238-8.738889-.07007-.0731-.140121-.140103-.207124-.207124ZM29.383706,13.165093c-.051776-.051776-.103571-.103553-.155347-.158378-2.811424,1.711834-5.519296,3.877514-7.968249,6.408714v.003049h-.003049c.067021.070051.137072.140121.204075.207124.067021.070051.137072.137072.204093.204075,2.421531-2.552524,5.101981-4.754755,7.873825-6.509236-.054825-.054825-.103571-.103553-.155347-.155347ZM38.381495,9.214479c-2.86625.627469-5.784294,1.818435-8.607914,3.472413h-.00303c.097473.103553.197977.201026.301548.304597h.003049c2.787051-1.690528,5.656368-2.927191,8.470842-3.606437v-.003049c-.054825-.054825-.10662-.10965-.164494-.167525ZM45.771021,8.928157c-2.174827-.362471-4.486708-.289371-6.844286.173623l.155347.155347c2.31493-.499544,4.578083-.627469,6.707213-.310695-.006079-.003049-.009128-.012177-.018275-.018275Z" fill="url(#f)"/><path d="M18.320741,53.472419c-.161427-.097473-.319823-.204075-.48125-.301548-.137072,1.24884-.088345,2.269251.146201,3.027695.012177.009128.021324.018275.033501.024373.097473.063953.197995.127926.295469.188849.00303.003049.009128.006079.012177.006079-.188849-.724924-.1858-1.717913-.006098-2.945448ZM19.667073,46.168189c-.950341,2.598203-1.547358,4.84613-1.784953,6.661535.161445.103553.325921.210173.493446.310695.298518-1.775806.947311-3.993281,1.925055-6.570159-.213203-.134023-.420345-.268047-.633548-.40207ZM23.849184,36.844479c-1.672235,3.210446-3.00942,6.183315-4.002409,8.818068,0,.003049.003049.003049.003049.003049.10965.07007.213222.140121.322872.207124.106602.07007.213222.137072.322872.204093v-.003049c1.023441-2.616496,2.381951-5.57717,4.051136-8.787635-.234546-.14925-.466024-.29545-.69752-.441651ZM29.685254,26.920704h-.003049c-1.937232,2.951546-3.816591,6.094989-5.510149,9.311532-.003049,0-.003049.003049-.003049.003049.115748.0731.231497.146201.350275.219301.115748.0731.228448.146201.347245.21932,1.696608-3.213513,3.551611-6.372183,5.461422-9.345052-.216252-.140103-.426425-.274126-.642695-.40815ZM35.981269,18.331065h-.00303c-1.964654,2.385-3.971957,5.102-5.924415,8.029172h.003049c.213203.137072.420345.271096.633548.40207,1.912878-2.948497,3.874483-5.698998,5.778215-8.123597-.164494-.097473-.32897-.204075-.487366-.307646ZM41.951381,12.032001c-1.739256,1.519936-3.639938,3.508963-5.595445,5.851315.158378.097455.313725.197977.475171.298499,1.891535-2.375853,3.722166-4.419705,5.379175-5.985338-.088326-.057874-.170574-.10965-.2589-.164476ZM46.133492,9.214479c-1.127013.462993-2.427629,1.334136-3.847062,2.537298.076149.051776.158396.103553.240644.14925,1.349362-1.239712,2.576879-2.156552,3.63384-2.668273-.009147-.009147-.018275-.012177-.027422-.018275Z" fill="url(#g)"/><path d="M26.58141,57.752003c-.721893.630518-1.388962,1.099609-1.998156,1.392011.173623.048746.347245.091375.520868.134023.630518-.280224,1.309763-.715796,2.025559-1.300617-.182751-.073119-.36855-.146219-.548271-.225417ZM31.269163,52.247933h-.003049c-1.586957,2.263172-3.088618,4.042008-4.428834,5.275622l.557399.234546c1.410286-1.209241,2.96679-2.963723,4.593328-5.21165-.240625-.094424-.481268-.194947-.718844-.298518ZM36.523461,43.49077c-1.681381,3.201317-3.362744,6.000565-4.95275,8.321592.243674.103571.484317.201044.73104.301567,1.629586-2.305801,3.332292-5.092871,5.013655-8.300268-.264998-.103571-.523898-.216271-.791945-.322891ZM41.351316,33.037017h-.003049c-1.318892,3.274418-2.838828,6.60974-4.508032,9.838479h.003049c.261949.112699.520868.219301.788914.32897,1.669186-3.231788,3.161718-6.576257,4.447109-9.865901-.243674-.100522-.487348-.197995-.727991-.301548ZM44.838955,22.976169h-.003049c-.84677,2.966772-1.94333,6.171138-3.234819,9.436409.237595.100522.481268.197995.721893.298518,1.248859-3.283565,2.287526-6.506206,3.067294-9.506479-.1858-.0731-.36552-.152298-.55132-.228448ZM46.642164,14.490101c-.268047,2.287526-.831544,4.983202-1.644813,7.922571.088326.03655.179702.0731.268047.10965.091375.03655.179702.0731.268047.112699v-.003049c.743217-2.966772,1.224467-5.692919,1.39809-8.020044-.094424-.039581-.191898-.082229-.289371-.121828ZM46.636085,9.473379c-.009147-.00303-.021324-.006079-.030471-.012177.252821,1.190966.268047,2.75355.079198,4.596377.097473.039581.188849.076149.277194.11573.112699-1.876309.009128-3.475444-.325921-4.699929Z" fill="url(#h)"/><path d="M42.414356,55.619824c-1.529064,1.440756-3.134296,2.613447-4.779109,3.499835.414247-.109669.825446-.231497,1.236663-.36552.00303-.003049.006079-.006098.009128-.006098,1.398108-.822416,2.765746-1.842808,4.069411-3.055098-.176653-.021324-.353324-.048746-.536094-.073119ZM48.701243,47.173355c-1.693559,3.201317-3.694763,5.896993-5.87262,8.044399h.003049c.1858.030471.365502.051795.545222.076149,2.208328-2.144356,4.22171-4.836983,5.91222-8.038301-.191898-.027422-.386826-.051795-.58787-.082247ZM52.834626,36.466764c-.091375-.012177-.179702-.027403-.271096-.042629h-.00303c-.721912,3.457168-1.900701,6.896062-3.539434,10.133929h.003049c.197995.030471.386844.054825.58484.082247,1.635684-3.237868,2.799247-6.676761,3.493719-10.136978-.088326-.012196-.176671-.024373-.268047-.036569ZM53.760594,25.604843c-.134005-.015226-.274126-.033501-.411199-.054825.22235,3.292693.012177,6.759008-.654891,10.216177h.003049c.176671.030471.359422.051795.529996.079198.639665-3.466315.807189-6.93871.533045-10.24055ZM51.363417,15.882112c-.0731-.009147-.146201-.021324-.219301-.030471h-.003049c1.151386,2.720049,1.873279,5.799539,2.159601,9.070907h.00303c.134023.021324.265016.039599.39904.054825-.338117-3.274418-1.120933-6.369115-2.339321-9.095262ZM47.083833,9.604354c-.009128,0-.015226-.00303-.024373-.00303,1.577829,1.586938,2.86017,3.533318,3.856208,5.735548h.003049c.070051.015245.134023.021324.204075.030471-1.053912-2.211377-2.400226-4.166885-4.038959-5.762989Z" fill="url(#i)"/><path d="M33.873463,59.832406c-.271096.033501-.539143.060923-.807171.079198-1.114835-.2589-2.327126-.615292-3.624712-1.063041-.770639-.264998-1.54126-.560467-2.311899-.871143-.182751-.073119-.36855-.146219-.548271-.225417-2.869299-1.197064-5.708145-2.683499-8.260669-4.279584-.161427-.097473-.319823-.204075-.48125-.301548-2.512925-1.611311-4.715174-3.314017-6.350859-4.946652-.10965-.103571-.210173-.207124-.307646-.310695-.813269-.84374-1.47119-1.666137-1.931135-2.439825-.237595-.399021-.414247-.770621-.533045-1.117866l-.167525-.508672c.121828.344196.301548.709698.533045,1.10264.472122.791945,1.142239,1.629586,1.976832,2.49465.100504.10965.207124.213222.310676.319823,1.678332,1.672235,3.938456,3.420618,6.512285,5.06545.161445.103553.325921.210173.493446.310695,2.610398,1.635684,5.522345,3.152571,8.461713,4.383137l.557399.234546c.791963.319823,1.577829.618341,2.366725.889418,1.486435.517819,2.863219.910742,4.112059,1.184887Z" fill="url(#j)"/><path d="M45.658322,55.464495c-.201026.137054-.392923.268028-.597017.395972h-.012177c-.645744-.015226-1.346314-.07007-2.098678-.167525-.176653-.021324-.353324-.048746-.536094-.073119-2.107806-.319823-4.581132-.95339-7.356006-1.918957-1.020411-.353324-2.040804-.740168-3.067294-1.154416h-.003049c-.240625-.094424-.481268-.194947-.718844-.298518h-.003049c-3.807462-1.593036-7.575326-3.560721-10.962443-5.677674h-.003049c-.213203-.134023-.420345-.268047-.633548-.40207-3.335341-2.132179-6.259483-4.40143-8.434292-6.564062-.137072-.137072-.271096-.277194-.405119-.411217-1.081316-1.120915-1.952477-2.211377-2.561671-3.237868-.557399-.947292-.865045-1.775787-.938145-2.49465-.009147-.094424-.018275-.1858-.018275-.277175,0-.094424,0-.1858.009128-.277194l.048746-.529996c0,.057874-.003049.115748-.003049.173623v.003049c.006098.085296.009128.176671.018275.264998v.015226c.0731.721893.383795,1.565633.95339,2.519023.612243,1.038668,1.495563,2.141326,2.586026,3.271369.134023.137072.264998.271096.408168.414247l.00303.003049c2.193102,2.187004,5.147697,4.474531,8.51349,6.621936,0,.003049.003049.003049.003049.003049.10965.07007.213222.140121.322872.207124.106602.07007.213222.137072.322872.201044v.003049h.003049c3.417569,2.138258,7.225032,4.124237,11.072093,5.735548.243674.103571.484317.201044.73104.301567,1.035619.420327,2.068207.81022,3.100795,1.169642,2.802296.971665,5.299977,1.611311,7.426076,1.934183h.003049c.1858.030471.365502.051795.545222.076149.822416.109669,1.586957.164494,2.281429.170592Z" fill="url(#k)"/><path d="M54.244912,46.667733c-.012177.018275-.021324.033501-.033501.051776-.121846.191898-.246723.383795-.374667.578723-1.218388.197995-2.747452.188867-4.547631-.042629-.191898-.027422-.386826-.051795-.58787-.082247-2.296655-.350294-5.001477-1.044765-8.03527-2.095629-1.111768-.383795-2.232683-.81022-3.350567-1.264066-.264998-.103571-.523898-.216271-.791945-.322891-4.163836-1.739237-8.278944-3.895789-11.976756-6.204639-.234546-.14925-.466024-.29545-.69752-.441651-3.642987-2.330174-6.838206-4.803501-9.217108-7.170225-.152298-.155347-.29545-.298499-.43862-.450798-1.181838-1.224486-2.132179-2.415452-2.799247-3.536367-.4447-.755413-.837642-1.571731-.986891-2.442874-.015226-.094424-.030452-.1858-.042648-.277175v-.003049c-.012177-.094424-.021324-.188849-.030452-.283273-.063972-.749315.018275-1.434659.158396-2.263172v-.00303s0-.003049.00303-.006098c.14317-.261949.29242-.517819.447767-.77367-.14925.411199-.280224,1.970734-.271096,2.409354v.006098c0,.097473.009147.197977.015226.301548.082247.782817.417296,1.693559,1.032588,2.726147.664019,1.120915,1.611311,2.311881,2.793149,3.536367.14925.14925.295469.298499.447767.447749,2.369755,2.369774,5.568023,4.840051,9.21101,7.170225.112699.076149.228448.14925.347226.22235.115748.0731.228448.146201.347245.21932h.003049c3.697812,2.311881,7.806823,4.462335,11.970658,6.20159h.003049c.261949.112699.520868.219301.788914.32897h.003049c1.117866.450798,2.235732.874192,3.347518,1.257968,3.033774,1.056961,5.732518,1.748402,8.038301,2.095629h.003049c.197995.030471.386844.054825.58484.082247h.00303c1.839778.240625,3.399313.246723,4.632927.027422Z" fill="url(#l)"/><path d="M58.478817,35.601718c0,.006098-.003049.015226-.003049.021324-.006098.030452-.009147.063953-.012196.094424-.030452.188849-.067002.374648-.103553.560448-1.239712.429492-3.024646.511721-5.257347.222368-.088326-.009147-.17972-.021324-.268047-.03352-.091375-.012177-.179702-.027403-.271096-.042629h-.00303c-2.116953-.319842-4.605524-.956439-7.398673-1.925055-1.020393-.356373-2.049932-.746266-3.079471-1.160514h-.003049c-.243674-.100522-.487348-.197995-.727991-.301548h-.003049c-3.825738-1.602183-7.617955-3.585113-11.017268-5.708163h-.003049c-.216252-.140103-.426425-.274126-.642695-.40815h-.003049c-3.350567-2.144356-6.292966-4.422754-8.473872-6.597581h-.003049c-.07007-.0731-.140121-.140103-.207124-.207124-.067021-.070051-.134023-.140103-.201044-.210173-1.087414-1.126994-1.961605-2.223554-2.573848-3.253094-.563497-.950341-.871143-1.791032-.944243-2.509876-.012177-.094424-.018275-.188849-.018275-.280224-.012177-.791963.586637-2.157282,1.153202-2.632452l.297402-.223966c-.523917.462993-.963256,1.674581-.95106,2.429975v.003049c0,.042648.003049.088326.006079.134023.003049.048727.006098.094424.009147.143152.076149.712765.377697,1.544309.935115,2.482473.612243,1.020393,1.474239,2.104776,2.549475,3.216544v.003049c.067002.070051.134023.137072.201026.207124.067021.070051.137072.137072.204093.204075,2.159582,2.153503,5.06848,4.407528,8.388595,6.53056h.003049c.213203.137072.420345.271096.633548.40207h.003049c3.365793,2.107806,7.11843,4.066381,10.907618,5.650271.237595.100522.481268.197995.721893.298518,1.017362.411199,2.034706.794994,3.052068,1.151367,2.759648.956439,5.220797,1.586957,7.319456,1.903731h.003049c.176671.030471.359422.051795.529996.079198,2.241848.289371,4.023733.201044,5.251268-.243674Z" fill="url(#m)"/><path d="M58.183349,24.703229c.03655.164494.0731.32897.10965.493446-.922919.530014-2.479405.676215-4.532405.408168-.134005-.015226-.271077-.033501-.411199-.054825-1.605232-.243674-3.496768-.727991-5.616769-1.462062-.776719-.274145-1.562584-.566565-2.339303-.883339h-.003049c-.1858-.0731-.36552-.152298-.55132-.228448h-.003049c-2.908898-1.218388-5.781245-2.720049-8.367271-4.337458-.164494-.097473-.32897-.204075-.487366-.307646h-.00303c-2.543396-1.626538-4.779128-3.356665-6.436136-5.010624h-.003049c-.054825-.054825-.103571-.103553-.155347-.155347-.048727-.051776-.100522-.103553-.152298-.158378-.822416-.852868-1.489484-1.687479-1.952459-2.473326-.429492-.715814-.667068-1.352411-.721912-1.903731-.006079-.0731-.009128-.14317-.012177-.210173-.015226-.831562.603066-1.574155,1.416335-1.942706.173623-.045697.32643-.078034.500052-.12678-.761492.362471-1.325468,1.064319-1.313291,1.856264,0,.03655,0,.070051.003049.103553.003049.036569.009147.07007.012196.103571.054825.536094.283273,1.157465.700569,1.861083.453847.76759,1.10264,1.57478,1.90678,2.409373v.003049h.00303c.097473.103553.197995.201026.298518.304597h.003049c1.617409,1.61436,3.798316,3.301821,6.280789,4.891827.158378.097455.313725.197977.475171.298499h.003049c2.519005,1.57781,5.327398,3.04597,8.163196,4.230857.088326.03655.179702.0731.268047.10965.088326.03655.179702.0731.268047.10965h.00303c.764541.313744,1.526034.597017,2.284477.862015,2.068226.718844,3.907985,1.190966,5.479716,1.428561h.00303c.134023.021324.265016.039599.39904.054825h.00303c2.022529.261949,3.542465.112699,4.444078-.420345.012177.048727.024373.097473.033501.146201Z" fill="url(#n)"/><path d="M54.016464,15.464816c-.033501.03655-.0731.0731-.115748.106602h-.003049c-.027403.021324-.054825.039599-.085277.060923-.484317.307646-1.321959.392923-2.448972.249772-.0731-.009147-.146201-.021324-.219301-.030471h-.003049c-.849819-.127926-1.845857-.383795-2.969821-.77367-.411199-.14317-.822416-.298499-1.239712-.466042-.094424-.039581-.191898-.082229-.289371-.121828-1.538211-.645744-3.064245-1.440738-4.428834-2.293624h-.003049c-.088326-.057874-.170574-.10965-.2589-.164476-1.343283-.862015-2.525121-1.775806-3.405392-2.649998-.054825-.054825-.10662-.10965-.164494-.167525-.435571-.453847-.785847-.892467-1.03257-1.306714-.225417-.380746-.350294-.718863-.380746-1.008215-.006098-.039599-.006098-.079198-.006098-.112718-.006098-.472122.255851-.81022.758444-1.002117.121846.015226.243674.030471.36552.045697.085277.012177.170574.024354.255851.039599-.493446.170574-.758444.493446-.752346.950341v.003049c.006098.03655.006098.067002.009128.103553.027422.271096.14317.58787.356392.947292.231497.389893.560448.804141.971665,1.227535l.155347.155347c.822397.822416,1.934183,1.684412,3.204348,2.49465.076149.051776.158396.103553.240644.14925,1.28539.807171,2.713951,1.553437,4.157738,2.156552.097473.039581.188849.076149.277194.11573.389874.155347.779768.304597,1.166593.43862,1.053912.36552,1.989027.603115,2.78707.724942h.003049c.070051.015245.134023.021324.204075.030471h.003049c1.053912.140103,1.845857.051776,2.299704-.237595h.003049c.030452-.018275.051776-.033501.079198-.054825h.003049c.045678-.03655.091375-.076149.127926-.118797l.377697.50869Z" fill="url(#o)"/><path d="M49.691183,32.278555c-.609194.630518-1.239712,1.251908-1.891535,1.845857-.65794.600066-1.343283,1.17271-2.052999,1.714883-.487348.374667-.986891.727991-1.489465,1.081334-1.556505-7.322524-7.919522-13.518016-11.66911-16.429963-.006098.00303-.009147.006079-.012196.009128-1.751433-1.778836-5.236023-4.651202-7.834226-2.601252,1.519936-1.842808,3.183042-3.384068,4.940554-4.450158h.003049c2.144356-1.303684,4.69688.560448,5.656368,1.261017,2.985047,2.180925,9.683132,8.574413,13.259116,15.272498l.006079-.003049s.039599.079198.112699.231497c.344196.66097.69449,1.407237.971665,2.068207Z" fill="url(#p)"/><path d="M50.87607,52.982022c-1.544309,1.766659-4.827855,4.18516-7.480901,5.144648.962518-2.123051,1.888505-4.702978,1.888505-9.494302,0-1.206192.012177-2.784002-.051795-3.472395.813287-.542192,1.605232-1.105689,2.366725-1.660057,1.227535-.874192,3.381038-2.927173,3.612516-3.207415.338117,3.548562.51477,7.52355-.335049,12.689521Z" fill="url(#q)"/><path d="M27.236301,48.821217c.103553.067021.210173.137072.316774.204093-.124877-.0731-.243674-.152298-.359422-.228448-.0731-.048746-.146201-.100522-.216271-.14925.085296.057874.170574.118779.258919.173604Z" fill="url(#r)"/><path d="M30.236574,50.377722c-.009128.003049-.015226.003049-.024373.003049-.018275-.009147-.03655-.015245-.051776-.024373.009147,0,.015226,0,.021324-.003049.018275.009147.03655.018275.054825.024373Z" fill="url(#s)"/><path d="M22.987169,40.834693c-.024373.40207-.033501.801092-.012177,1.200113.012177.216271.030452.432523.067002.645744.024373.140121.048746.280224.076149.420345.009147.051776.021324.103571.03352.155347v.003049c.088326.432523.207124.861996.36855,1.273213.29242.73712.709716,1.419414,1.206211,2.037755.219301.271077.453847.529996.700569.776719.115748.112699.234527.228448.359422.344196.048727.042648.094424.085277.143152.130974.085296.0731.173623.14925.264998.225399.063972.054825.130993.10662.201044.164476.094424.076149.194947.149268.29545.225417.012196.012177.027422.021324.039599.030452.082247.060923.161445.121846.246723.17972.07007.048727.14317.100504.216271.14925.115748.076149.234546.155347.359422.228448.313744.197977.648793.386826,1.005166.575693.493446.261949,1.035637.511721,1.623507.752346-.006098.003049-.012177.003049-.021324.003049.015226.009128.033501.015226.051776.024373h-.009128c-2.010333.271077-3.831835.301548-5.458373.0731-2.263153-.316793-4.151659-1.111786-5.647222-2.385-1.855004-1.580859-2.847993-3.99936-2.951546-7.185451-.216271-6.621936,3.332292-16.612714,8.595718-22.984877,2.598203-2.04995,6.082793.822416,7.834226,2.601252-.484299.392942-.938145.816318-1.370686,1.264085-.453847.469073-.880271.962518-1.282341,1.474239-.420345.529996-.813287,1.078285-1.187936,1.638733-.383795.575693-.746266,1.166612-1.087414,1.769708-.347245.609194-.676196,1.230584-.986891,1.861102-.310695.627469-.603096,1.267115-.88029,1.912859-.271096.633567-.526947,1.276262-.767572,1.925055-.231497.627469-.450816,1.264085-.651842,1.900682-.191898.609194-.371618,1.221437-.533045,1.839759-.152298.575693-.289371,1.154435-.408168,1.736207-.10965.529996-.204075,1.063041-.283273,1.596085-.067002.47214-.118779.944262-.14925,1.416383Z" fill="url(#t)"/><path d="M58.722491,29.211279c-.286322.718844-.590919,1.425512-.922938,2.110855-1.653959,3.390166-3.926241,6.359987-6.60974,8.915541,0,.003049-.006098.015245-.021324.030471-.231497.280224-2.385,2.333205-3.612535,3.207397-.761492.554369-1.553437,1.117884-2.366706,1.660057-.067021.048746-.137072.094424-.207124.140121-3.533336,2.016431-7.755046,3.496768-10.009071,4.121188-1.681363.469091-3.256143.791963-4.73648.992989-.009128-.003049-.015226-.006098-.024373-.009128-.018275-.009147-.03655-.015245-.051776-.024373.009147,0,.015226,0,.021324-.003049.003049.003049.009147,0,.012177,0-.590919-.240625-1.136141-.493446-1.635684-.752346-.356373-.188867-.691423-.377716-1.005166-.575693-.124877-.0731-.243674-.152298-.359422-.228448-.0731-.048746-.146201-.100522-.216271-.14925-.085277-.057874-.164476-.118797-.246723-.17972-.012177-.009128-.027403-.018275-.039599-.030452-.100504-.076149-.201026-.149268-.29545-.225417-.070051-.057856-.137072-.10965-.201044-.164476-.091375-.076149-.179702-.152298-.264998-.225399-.048727-.045697-.094424-.088326-.143152-.130974-.124895-.115748-.243674-.231497-.359422-.344196-.246723-.246723-.481268-.505641-.700569-.776719-.496495-.618341-.913791-1.300635-1.206211-2.037755-.161427-.411217-.280224-.840691-.36855-1.273213v-.003049c0-.003049.00303-.003049.00303-.003049.50869.261949,1.766659.554369,3.938437.389874,2.60127-.207124,5.46752-.959469,8.096193-1.928086,0,0,2.257056-.886388,3.362744-1.401157.103571-.042629.197995-.088326.289371-.140103.487366-.231497.980812-.475171,1.452934-.73104.079198-.042648.158396-.085277.243674-.130974.295469-.164476.58787-.332019.871143-.496495.801092-.462993,1.535181-1.023441,2.284477-1.553437.173623-.121846.347245-.243692.520868-.36552.502592-.353343,1.002117-.706667,1.489484-1.081316.709698-.542192,1.395041-1.114835,2.052981-1.714883.651842-.593968,1.282341-1.215339,1.891535-1.845857.006098-.006098.009147-.009147.015245-.015226.057874-.067021.115748-.14317.173623-.210173,1.257968-1.449885,2.366706-3.04597,3.274418-4.782177,1.312812-2.534249,3.204348-6.143735,3.655164-8.869863,1.559535,1.571712,2.994175,6.259465,1.955508,10.834517Z" fill="url(#u)"/><path d="M30.236574,50.377722c-.012177.003049-.021324.003049-.033501.003049-1.172691-.47822-2.150454-1.008215-2.966772-1.559554.825446.548289,1.815386,1.075236,3.000273,1.556505Z" fill="url(#v)"/></svg>