<?xml version="1.0" encoding="UTF-8"?><svg id="a" xmlns="http://www.w3.org/2000/svg" viewBox="0 0 735.3979 208.4671"><path d="M330.7564,75.5251c-1.0052-4.4122-3.1698-8.3009-6.4383-11.5783-3.8844-4.005-9.1869-6.733-15.76-8.1084-6.1241-1.2931-15.6029-1.9224-28.9745-1.9224-17.3296,0-29.0801,1.5995-35.9258,4.8901-7.1181,3.4124-11.1235,9.8484-11.5795,18.6102l-.2183,4.2144h22.6502l.8091-2.9435c.4018-1.4608,1.1289-2.3063,2.4316-2.8269,1.7045-.6873,6.9179-1.8334,22.7934-1.8334,9.3843,0,16.0798.4126,19.8988,1.2264,3.1809.6776,5.4874,1.8656,6.8568,3.5309.2197.2739.4004.5368.5394.786.8411,1.4601,1.799,4.1675,1.9603,9.1735-1.7184-.766-3.5966-1.3505-5.6278-1.7503-5.3205-1.0401-15.6794-1.5453-31.6702-1.5453-20.9193,0-27.4049,1.7217-30.4648,3.0165-4.8256,2.1002-8.3054,5.2331-10.3783,9.3274-1.9478,3.8787-2.8917,8.9604-2.8917,15.5482,0,5.3869.6048,9.5789,1.849,12.8156,1.3583,3.5024,3.7815,6.5155,7.2043,8.966,3.4465,2.5523,8.0635,4.1619,14.1139,4.9203,5.4929.6864,15.0371,1.0345,28.3697,1.0345,12.1829,0,20.4452-.6647,25.2625-2.032,1.482-.4209,2.8973-.978,4.2417-1.6685l-.0876,3.4451h22.361v-45.3177c0-8.4846-.3434-14.56-1.0496-18.5736-.0751-.464-.1738-.9513-.2753-1.4049ZM308.946,113.2552c0,3.924-1.6044,5.0939-3.1754,5.7208-2.2633.9002-8.0816,1.9757-22.9226,1.9757-23.0158,0-27.4327-1.2262-28.239-1.6019-1.2457-.594-2.7068-1.8-2.7068-5.7694,0-3.2266.7563-5.3077,2.2494-6.1856.2989-.1705,1.7642-.8404,6.2576-1.2596,3.6494-.3257,10.3769-.4915,19.9795-.4915,15.735,0,22.1413,1.1607,24.7439,2.1346,2.7124,1.0059,3.8135,2.5914,3.8135,5.4769Z" fill="#fff"/><polygon points="349.354 18.6187 349.354 19.8551 349.354 136.8883 349.354 140.8945 353.3607 140.8945 367.6915 140.8945 371.6983 140.8945 371.6983 136.8883 371.6983 19.8551 371.6983 18.6187 349.354 18.6187" fill="#fff"/><path d="M494.8144,74.7938c-2.3287-6.2398-6.6607-11.2721-12.8585-14.9125-3.9928-2.3031-8.7809-3.833-14.6645-4.6935-5.5638-.7992-13.4063-1.1869-23.9848-1.1869-12.5805,0-21.2933.7815-26.6374,2.3888-1.71.522-3.3088,1.1824-4.7895,1.9778v-3.7355h-22.3429v138.5221h22.3429v-56.3409c1.5724.809,3.2713,1.4739,5.0898,1.9907,5.3344,1.5286,13.5356,2.2727,25.065,2.2727,15.5515,0,26.3218-.9403,32.927-2.8751,7.1126-2.0788,12.8377-6.4181,17.0113-12.8971,4.0248-6.2442,5.9809-15.3174,5.9809-27.7375,0-8.6342-.8661-15.7505-2.5748-21.1511-.1738-.5346-.3545-1.0809-.5644-1.6221ZM474.8043,97.892c0,6.0052-.5422,10.6517-1.6113,13.8102-.9482,2.7552-2.3468,4.7352-4.2709,6.0351-1.1039.7302-3.4242,1.7549-8.0427,2.3737-4.0679.5584-10.5146.8408-19.1689.8408-15.2971,0-21.3669-1.5865-23.7665-2.9173l-.0306-.017-.0306-.0165c-2.1785-1.1588-3.7064-3.0652-4.6727-5.8282-1.1456-3.2735-1.7253-8.4538-1.7253-15.3972,0-5.8391.5394-10.3698,1.6044-13.4664.4602-1.3112,1.0149-2.4343,1.6878-3.4119.7257-1.0672,1.5543-1.9107,2.547-2.5994,1.0566-.7111,3.3783-1.7258,8.1761-2.3426,4.3557-.5598,11.2834-.8435,20.5912-.8435,14.1946,0,19.967,1.5781,22.3109,2.9022l.0361.0203.0361.0198c1.3305.7149,2.3801,1.6466,3.2101,2.8481.5839.8388,1.0636,1.7987,1.432,2.8643,1.1219,3.2009,1.6878,8.2856,1.6878,15.1255Z" fill="#fff"/><path d="M616.8169,76.5257c-1.0288-4.6143-3.1197-8.6222-6.2089-11.896l-.0306-.0325-.0306-.0318c-3.6731-3.7219-8.71-6.338-14.9731-7.7761-5.9058-1.3524-14.0806-2.0096-24.9941-2.0096-12.992,0-22.2539.9301-28.3141,2.8431-2.1202.676-4.0596,1.5331-5.8113,2.5668V18.6187h-22.3443v122.2759h22.3443v-40.3154c0-8.4566.4073-12.1855.7494-13.8244.4185-1.9672,1.3221-3.7073,2.7583-5.3037.0779-.0872.1349-.155.1946-.2144l.0334-.0339.0445-.0471c1.8824-1.9905,4.8451-3.5125,8.8073-4.5239,4.5781-1.1544,11.3195-1.7411,20.0253-1.7411,7.7076,0,13.5022.432,17.2267,1.2841,3.0767.7151,5.2371,1.8169,6.4077,3.2715.2697.341.5061.6807.6784.9763l.0334.0575.0361.0565c.8133,1.2928,1.368,2.8061,1.6947,4.6263.4838,2.6589.7285,7.8435.7285,15.4164v40.3154h22.3582v-44.0609c0-8.6201-.3851-14.8751-1.1762-19.1192-.0695-.4228-.1529-.814-.2377-1.1887Z" fill="#fff"/><path d="M734.3372,76.9496c-.082-.5066-.1793-.9812-.2781-1.4236-.9829-4.3871-3.1489-8.2863-6.4411-11.5957-3.8719-3.9857-9.1841-6.7198-15.76-8.0924-6.106-1.2924-15.5821-1.9219-28.9578-1.9219-17.3241,0-29.0787,1.599-35.9369,4.8885-7.1223,3.423-11.1263,9.8585-11.5823,18.6118l-.2183,4.2144h22.6641l.8091-2.9437c.4032-1.4652,1.1261-2.3104,2.4163-2.8268,1.7059-.6873,6.9207-1.8334,22.8086-1.8334,9.3843,0,16.0798.4126,19.8988,1.2264,3.1795.6776,5.4874,1.8656,6.8568,3.5309.1849.231.367.5017.5255.786.8411,1.4598,1.7976,4.1663,1.9589,9.1703-1.7156-.7634-3.5938-1.347-5.6264-1.7472-5.3219-1.0401-15.6738-1.5453-31.6563-1.5453-20.9193,0-27.4049,1.7217-30.4648,3.0165-4.8478,2.1101-8.3305,5.247-10.3853,9.3398-1.9505,3.8854-2.9001,8.9672-2.9001,15.5358,0,5.3619.6103,9.5539,1.8643,12.8154,1.336,3.4889,3.7551,6.5076,7.1904,8.9665,3.4479,2.5534,8.0705,4.1626,14.1292,4.92,5.4762.6864,15.0218,1.0345,28.3683,1.0345,12.1884,0,20.448-.6651,25.2513-2.0329,1.482-.4209,2.8959-.9763,4.2375-1.6636l-.0862,3.4411h22.3749v-45.3177c0-8.4914-.3462-14.5609-1.0608-18.5539ZM712.2487,113.2552c0,3.9289-1.5974,5.0967-3.1615,5.7208-2.2633.9002-8.0816,1.9757-22.9226,1.9757-23.0158,0-27.4327-1.226-28.239-1.6019-1.2457-.594-2.7068-1.8-2.7068-5.7694,0-4.871,1.6822-5.8605,2.2355-6.1856.3907-.2205,1.9033-.8536,6.2701-1.2594,3.6383-.3258,10.3602-.4916,19.967-.4916,15.7322,0,22.1483,1.1616,24.7606,2.136,2.6985,1.0008,3.7968,2.5864,3.7968,5.4755Z" fill="#fff"/><path d="M435.0929,184.1266c.4732.5402,1.0033,1.0889,1.5962,1.6461.59.5573,1.257,1.0547,2.001,1.4936.7411.439,1.5677.7938,2.4799,1.0632.9121.2708,1.9069.4062,2.9901.4062,2.229,0,3.9678-.5074,5.2162-1.5207,1.2485-1.0119,1.8727-2.3801,1.8727-4.1017,0-1.857-.7069-3.2495-2.1264-4.1787-1.4167-.9292-3.4604-1.6803-6.1284-2.2547-1.4537-.3036-2.7706-.7254-3.9507-1.2656-1.1829-.5402-2.2034-1.2157-3.0642-2.0266s-1.5278-1.7473-2.001-2.8105c-.4732-1.0646-.7098-2.2718-.7098-3.6229,0-1.2485.2366-2.43.7098-3.5445.4732-1.1145,1.1801-2.0936,2.1264-2.9388.9463-.8437,2.1293-1.5193,3.5459-2.0252,1.4195-.5074,3.0556-.7596,4.9141-.7596,1.6532,0,3.0813.1767,4.2785.5316,1.2.3549,2.2205.7853,3.0642,1.2912s1.5221,1.0304,2.0266,1.5706c.5074.5402.895.9791,1.1658,1.3169l-3.2409,2.9887c-.2024-.2366-.5074-.5487-.9121-.9378-.4048-.3877-.9207-.7668-1.5449-1.1387-.6242-.372-1.3511-.6841-2.1777-.9378-.8295-.2537-1.7815-.3791-2.8618-.3791-1.0832,0-2.0095.1439-2.7877.4304-.7753.2865-1.4167.6584-1.924,1.1145-.5074.4546-.8779.9706-1.1145,1.5435-.2366.5758-.3535,1.1487-.3535,1.7231,0,.8437.1767,1.562.5302,2.1521.3563.5915.8694,1.1145,1.5449,1.5706s1.5107.8451,2.5084,1.1644c.9948.3221,2.135.6342,3.4176.9378,1.2513.3036,2.4742.7012,3.6742,1.19,1.1972.4903,2.2689,1.1487,3.2153,1.9753.9463.828,1.696,1.8414,2.2547,3.04.5558,1.1986.8352,2.658.8352,4.3811,0,1.4523-.3021,2.7863-.9121,4.0005-.6071,1.2157-1.4423,2.2718-2.5055,3.1668s-2.3231,1.5877-3.7739,2.0765c-1.4537.4888-3.0243.734-4.7117.734-1.5877,0-3.03-.1853-4.3298-.5573-1.2998-.3706-2.4827-.8437-3.5459-1.4181-1.0632-.5729-1.9924-1.2071-2.7848-1.8998-.7953-.6912-1.4452-1.3753-1.9525-2.0509l3.4461-3.1397Z" fill="#fff"/><path d="M485.237,193.1924c-1.8243,0-3.4946-.3292-5.0139-.9877s-2.8276-1.562-3.925-2.7107c-1.0974-1.1473-1.9582-2.4727-2.5825-3.9763-.6271-1.5022-.9378-3.1141-.9378-4.8371,0-1.7216.3107-3.3336.9378-4.8371.6242-1.5022,1.4851-2.8276,2.5825-3.9763,1.0974-1.1473,2.4057-2.0509,3.925-2.7093,1.5193-.6584,3.1896-.9877,5.0139-.9877,1.7901,0,3.4461.3292,4.9654.9877,1.5193.6584,2.8362,1.562,3.9507,2.7093,1.1145,1.1487,1.9839,2.4742,2.6081,3.9763.6242,1.5036.9378,3.1155.9378,4.8371,0,1.7231-.3135,3.335-.9378,4.8371-.6242,1.5036-1.4936,2.829-2.6081,3.9763-1.1145,1.1487-2.4314,2.0523-3.9507,2.7107s-3.1754.9877-4.9654.9877ZM485.237,189.2403c1.2171,0,2.3145-.2437,3.2922-.734.9805-.4888,1.8072-1.1302,2.4827-1.924s1.1915-1.706,1.5449-2.7364c.3535-1.029.533-2.0836.533-3.1654,0-1.0461-.1796-2.0851-.533-3.1155-.3535-1.029-.8779-1.9497-1.5706-2.7592-.6926-.8109-1.5193-1.4608-2.4827-1.9511-.9606-.4888-2.0494-.734-3.2666-.734-1.2143,0-2.3117.2451-3.2922.734-.9805.4903-1.8072,1.1316-2.4827,1.9254s-1.1886,1.7045-1.5449,2.735c-.3535,1.0304-.5302,2.0851-.5302,3.1654,0,1.0817.1767,2.1278.5302,3.1411.3563,1.0119.8779,1.924,1.5706,2.735.6926.8095,1.5193,1.4608,2.4827,1.9497.9634.4903,2.0523.734,3.2666.734Z" fill="#fff"/><path d="M519.8324,172.594h-4.2557v-3.7982h4.2557v-1.9254c0-1.5863.228-2.963.6841-4.1274.4561-1.1658,1.0632-2.1193,1.8214-2.8618.7611-.7425,1.6304-1.2912,2.6081-1.6461.9805-.3549,2.0095-.5316,3.0898-.5316,1.2513,0,2.4742.1938,3.6742.5815,1.1972.3891,2.3031,1.0561,3.3179,2.001l-2.2803,2.9388c-1.2485-1.0475-2.5825-1.5706-4.002-1.5706-1.3169,0-2.3715.4219-3.164,1.2656-.7953.8451-1.1915,2.2974-1.1915,4.3568v1.5193h6.7355v3.7982h-6.7355v20.5983h-4.5578v-20.5983Z" fill="#fff"/><path d="M553.5663,172.7619h-4.2557v-3.7982h4.2557v-7.6989h4.5578v7.6989h6.8894v3.7982h-6.8894v11.5997c0,1.8912.2936,3.191.8865,3.9008.59.7083,1.4252,1.0632,2.5055,1.0632.8779,0,1.6048-.134,2.1806-.4048.5729-.2708,1.1459-.6755,1.7216-1.2157l2.0751,2.7848c-.9777.9463-1.9839,1.6304-3.0129,2.0523-1.0318.4219-2.2547.6328-3.6713.6328-2.4998,0-4.3326-.6755-5.4956-2.0266-1.1658-1.3497-1.7473-3.4604-1.7473-6.3308v-12.0558Z" fill="#fff"/><path d="M584.1239,169.6394h5.0167l5.2676,17.9818,5.6723-17.9818h3.8994l5.6752,18.1329,5.1649-18.1329h4.7117l-7.8016,23.5529h-4.5065l-5.4728-16.4611-5.4186,16.4611h-4.2557l-7.9526-23.5529Z" fill="#fff"/><path d="M652.7076,189.6978c-.8779,1.1815-2.0352,2.0594-3.4689,2.6338-1.4366.5729-2.9131.8608-4.4324.8608-.9805,0-1.9497-.1268-2.9131-.3805-.9634-.2523-1.8414-.6741-2.6338-1.2656-.7953-.59-1.4366-1.3497-1.924-2.2789-.4903-.9292-.7354-2.068-.7354-3.4191,0-2.5326.8865-4.5592,2.6594-6.0785,1.773-1.5193,4.3298-2.2789,7.6733-2.2789.5387,0,1.1145.0171,1.7216.0499.6071.0342,1.1829.0684,1.7216.1012.5416.0342,1.0147.0684,1.4195.1012.4048.0342.6926.0684.8608.1012v-.8608c0-1.7544-.533-3.0129-1.5962-3.7739-1.0632-.7596-2.5055-1.1387-4.3298-1.1387-1.7901,0-3.2096.2451-4.2557.734-1.0461.4903-1.924.9877-2.6338,1.495l-2.1264-3.0898c.4048-.3378.895-.6755,1.468-1.0133.5758-.3378,1.2485-.6499,2.0266-.9378.7753-.2865,1.6532-.523,2.6338-.7083.9805-.1853,2.1093-.2793,3.3948-.2793,3.0385,0,5.4272.7354,7.1659,2.2034,1.7387,1.4694,2.6081,3.5545,2.6081,6.2566v13.7005c0,.828.0171,2.1863.0513,2.7606h-4.3221l-.0333-3.4946ZM652.6563,181.3902c-.134-.0328-.3962-.0755-.7839-.1268-.3905-.0499-.838-.0926-1.3425-.1254-.5074-.0342-1.0489-.0684-1.6219-.1026-.5758-.0328-1.1316-.0499-1.6703-.0499-1.2855,0-2.3231.1525-3.1155.4561-.7953.3036-1.4195.6841-1.8756,1.1387-.4561.4561-.7668.9634-.9349,1.5207-.171.5573-.2537,1.0889-.2537,1.5948,0,1.2841.439,2.2547,1.3169,2.9131.8779.6584,2.0922.9877,3.6457.9877.8779,0,1.7131-.1525,2.5084-.4561.7924-.3036,1.4936-.7098,2.1007-1.2157.6071-.5074,1.0974-1.0974,1.4708-1.773.3706-.6755.5558-1.3682.5558-2.0765v-2.6851Z" fill="#fff"/><path d="M679.2233,173.4908v-2.5582c0-.7254-.0171-1.4765-.0513-2.2532h4.3554l.1511,3.7982c.2708-.4048.6271-.8523,1.0661-1.3411.4361-.4903.9691-.9378,1.5934-1.3425.6242-.4062,1.3511-.7511,2.1806-1.039.8266-.2865,1.7787-.4304,2.8618-.4304.5045,0,.9691.0342,1.391.1012.4219.0684.8181.1696,1.1915.3036l-1.0147,4.2557c-.6071-.2366-1.3824-.3549-2.3288-.3549-.9805,0-1.8841.1867-2.7107.5573-.8266.372-1.5449.8865-2.1521,1.5449s-1.0889,1.4266-1.4423,2.3046c-.3563.8779-.533,1.8072-.533,2.7863l-.0513,13.3694h-4.5578l.0513-19.7016Z" fill="#fff"/><path d="M734.4738,188.9856c-.2708.305-.6755.6926-1.2143,1.1658-.5416.4732-1.2428.9292-2.1036,1.3668-.8608.439-1.8727.8195-3.0385,1.1402s-2.4913.4817-3.9763.4817c-1.8243,0-3.4946-.305-5.0139-.9121-1.5193-.6086-2.8191-1.4694-3.8994-2.5839-1.0832-1.1145-1.9183-2.4471-2.5084-4.0005-.59-1.5535-.8865-3.2751-.8865-5.1664,0-1.7231.2879-3.335.8608-4.8386.5729-1.5007,1.3853-2.8019,2.4314-3.8994s2.2889-1.9668,3.7226-2.6081c1.4366-.6413,3.0129-.9634,4.7374-.9634,2.0238,0,3.7625.3891,5.2162,1.1658,1.4509.7767,2.6423,1.8072,3.5716,3.0898.9264,1.2827,1.6105,2.7521,2.0494,4.4067.439,1.6547.6584,3.3763.6584,5.1664h-18.5875c.0342,1.0461.2594,2.0095.6841,2.8875.4219.8779.9862,1.6376,1.696,2.2789s1.5193,1.1487,2.4314,1.5193c.9121.372,1.8756.5573,2.8875.5573,1.9924,0,3.6286-.3378,4.9141-1.0133,1.2827-.6755,2.2091-1.334,2.7848-1.9753l2.5825,2.735ZM730.3721,178.603c-.1368-1.8243-.7782-3.3763-1.924-4.6604-1.1487-1.2827-2.7706-1.9254-4.8628-1.9254-1.0832,0-2.0523.1867-2.9131.5573-.8608.372-1.5962.8622-2.2034,1.4694-.6071.6071-1.0803,1.3083-1.4195,2.1022-.3363.7938-.5216,1.6133-.5558,2.4571h13.8786Z" fill="#fff"/><path d="M180.5144,46.2886c1.8152,2.6079,3.5131,5.3501,5.0514,8.1603l.2607-.1397c-4.3932-12.7169-12.8513-24.8425-23.8666-34.1996l-2.1272-1.7464-2.1881-1.6563c-1.5234-1.1264-3.05-2.1823-4.5319-3.1326-1.4761-.9515-3.0721-1.9526-4.7479-2.8376l-.1861-.0966c-1.5565-.8119-3.1668-1.6511-4.792-2.3664-6.2493-2.9459-13.2255-5.1739-20.7511-6.6267-12.4233-2.3977-25.3836-2.1732-37.4813.6448l-.0026.0013-.0032-.0131-.9255.2101-.0032-.0157c-2.0772.4908-4.1584,1.052-6.2071,1.6733-12.3779,3.7565-23.8731,9.6574-33.2444,17.0633l-2.6324,2.0962c-1.1842.9398-2.2465,1.7934-3.2764,2.7305-3.9236,3.3349-7.7363,7.2284-12.0167,12.2666-4.0475,4.8006-7.3375,9.3585-10.0555,13.9346-3.2038,5.3319-5.7713,10.3466-7.8524,15.3325-2.1953,5.1726-4.0371,10.6729-5.4769,16.3532-1.3561,5.3436-2.3548,11.0697-2.9677,17.0189-.5013,4.8672-.6168,9.8858-.3528,15.3417,1.1635,24.0084,9.8058,46.0968,24.3349,62.1995,15.1419,16.7827,35.2043,27.2689,56.4904,29.5256,19.5604,2.0701,40.1597-2.9616,56.613-13.825l-.2724-.5808c-18.8502,9.4381-41.2116,11.533-61.4673,5.7365-1.7484-.4999-3.5157-1.0716-5.2531-1.6968-20.3879-7.3432-37.4035-22.6914-47.9116-43.2136l-.2445-.5364c-.9566-2.1027-1.9456-4.2772-2.7608-6.4987-1.8101-4.7654-3.2446-9.6874-4.2615-14.6199-.9806-4.9455-1.5934-10.0372-1.8237-15.1394-.2413-4.9416-.0726-10.0699.5007-15.2425,2.1583-20.1032,10.3772-39.8226,23.1416-55.5206,3.4664-4.2511,6.879-7.8758,10.4336-11.0788,4.1467-3.7708,8.047-6.8564,11.9207-9.4329,4.1616-2.8167,8.6047-5.3423,13.2009-7.5051,4.3692-2.0557,9.0626-3.8243,13.9538-5.2601l-.0032-.0457.3496-.0509.7095-.201-.0026-.0418.3236-.0418v.0026c10.9122-2.9329,21.9781-3.793,32.8851-2.5517l.0006-.0013c.0571.0039.1103.0104.1595.0196l.8016.1018c.5474.0679,1.0928.1357,1.5727.2167,24.4938,4.4965,44.1962,16.6978,56.9859,35.2856Z" fill="#fff"/><path d="M166.434,167.3567c-.21,1.67-.46,3.3799-.74,5.1299-4.32,4.81-12.79,11.29-20.54,14.8701.51-1.25,1.01-2.59,1.49-4.02,1.9301-5.8,3.44-13.34,3.44-24.5v-1.66c.01-3.22.01-6.8199-.11-9.02,2.12-1.43,4.41-3.04,7.12-5.01,2.93-2.09,7.26-6.01,9.89-8.54.79,9.37,1.11,19.84-.55,32.75Z" fill="#fff"/><path d="M93.874,163.7066c4.7401-.68,15.53-2.32,20.56-3.72,8.13-2.2599,21.53-7.12,32.54-13.4.16-.11.36-.24.55-.37,2.34-1.56,4.79-3.29,7.77-5.45,3.72-2.65,9.93-8.54,11.35-10.02l1.4301-1.45c.39-.3799.78-.7599,1.16-1.15,8.07-8.11,14.53-17.1,19.25-26.76.99-2.05,1.96-4.25,2.95-6.73.51-2.28.82-4.55.98-6.79.71-10.4-2.07-20.02-5.29-25.09-.24.96-.53,1.95-.85,2.95-2.46,7.74-6.92,16.35-10.37,23.0099l-.28.54c-2.93,5.62-6.61,10.99-10.92,15.95,0,.0099-.0099.02-.02.03-.08.1-.17.21-.26.32-.1.12-.2.25-.3.37l-.09.09c-2.22,2.3-4.27,4.3-6.29,6.14-2.19,1.9901-4.49,3.91-6.84,5.71-1.6,1.23-3.25,2.4-4.93,3.58l-1.65,1.16-.06.04c-.54.3799-1.08.77-1.6201,1.16-1.9,1.37-3.8799,2.79-5.99,4.01-.93.54-1.9,1.1-2.88,1.64l-.82.44c-1.37.74-2.93,1.53-4.78,2.41-.34.19-.69.36-1.07.51-3.57,1.67-10.75,4.49-11.06,4.61-6.76,2.49-16.91,5.62-26.98,6.42-5.35.41-12.045-.755-14.225-1.265l-.235-1.175c-.04-.17-.07-.34-.1-.5-.09-.45-.17-.92-.25-1.39-.12-.66-.19-1.36-.24-2.28-.07-1.25-.06-2.55.04-4.1v-.01c.1-1.51.26-3.07.5-4.76.27-1.79.58-3.57.95-5.33.38-1.86.83-3.81,1.35-5.77.5-1.92,1.08-3.91,1.77-6.1.65-2.05,1.37-4.17,2.16-6.31.81-2.16,1.66-4.31,2.55-6.39.96-2.24,1.95-4.37,2.92-6.35,1.04-2.1,2.15-4.19,3.28-6.18,1.14-2.02,2.36-4,3.62-5.89,1.35-2.02,2.65-3.81,3.97-5.48,1.39-1.76,2.84-3.42,4.3-4.94,1.15-1.19,0,0,5.2963-5.4663,3.795,3.3369,5.4559,4.5507,9.1823,7.966,2.2716,2.082,4.4762,4.2376,6.6054,6.4652,2.4517,2.565,4.804,5.226,7.0326,7.9873,2.412,2.9885,4.68,6.0952,6.7561,9.3267,2.158,3.3589,4.1095,6.8543,5.7758,10.4835,1.6942,3.6899,3.0927,7.5203,4.0916,11.4576.01.0501.03.1.04.15,1.07-.77,2.1-1.52,3.1201-2.3,2.29-1.75,4.52-3.62,6.65-5.56,1.77-1.61,3.57-3.36,5.49-5.32-.02-.05-.05-.11-.07-.16-.81-1.87-1.78-3.88-2.7-5.66-.07-.15-.13-.27-.18-.37l-.21-.37c-12.01-22.5-34.23-43.18-43.11-49.66-2.95-2.15-10.77-7.86-17-4.08l-.35.21c-3.87,2.4-7.71,5.58-11.46,9.51l-4.17,4.71.0099-.01-.0099.01c-16.57,20.15-28.52,52.09-27.79,74.39.33,10.04,3.42,17.6299,9.19,22.55,4.68,3.98,10.67,6.51,17.82,7.51,3.75.53,7.92.62,12.44.29" fill="#fff"/></svg>