<?xml version="1.0" encoding="UTF-8"?><svg id="a" xmlns="http://www.w3.org/2000/svg" xmlns:xlink="http://www.w3.org/1999/xlink" viewBox="0 0 425.19685 425.19685"><defs><radialGradient id="b" cx="286.77951" cy="137.78705" fx="286.77951" fy="137.78705" r="214.27192" gradientTransform="translate(511.75238 -80.27385) rotate(112.14518) scale(1 .91575)" gradientUnits="userSpaceOnUse"><stop offset=".04835" stop-color="#a1d8f5"/><stop offset=".22916" stop-color="#5fc0ee"/><stop offset=".43524" stop-color="#1ba8e8"/><stop offset=".53179" stop-color="#009fe6"/><stop offset=".61843" stop-color="#009ce2"/><stop offset=".69228" stop-color="#0094d8"/><stop offset=".76125" stop-color="#0087c6"/><stop offset=".76941" stop-color="#0086c4"/><stop offset=".80503" stop-color="#0078b4"/><stop offset=".8833" stop-color="#006097"/><stop offset=".951" stop-color="#005185"/><stop offset="1" stop-color="#004c7f"/></radialGradient><radialGradient id="c" cx="400.88311" cy="263.94707" fx="400.88311" fy="263.94707" r="333.80733" gradientTransform="translate(524.44358 689.96398) rotate(-140.25672) scale(.969 .7451) skewX(.27153)" gradientUnits="userSpaceOnUse"><stop offset=".02305" stop-color="#e82e00"/><stop offset=".67189" stop-color="#e82e00"/><stop offset=".74306" stop-color="#e93200"/><stop offset=".8156" stop-color="#ec3e00"/><stop offset=".88879" stop-color="#f25200"/><stop offset=".96198" stop-color="#fa6f00"/><stop offset="1" stop-color="#ff8100"/></radialGradient><radialGradient id="d" cx="315.31313" cy="126.00851" fx="315.31313" fy="126.00851" r="233.13798" gradientUnits="userSpaceOnUse"><stop offset=".42556" stop-color="#0086c4"/><stop offset=".50012" stop-color="#0078b4"/><stop offset=".66394" stop-color="#006097"/><stop offset=".80566" stop-color="#005185"/><stop offset=".90822" stop-color="#004c7f"/></radialGradient><radialGradient id="e" cx="313.09773" cy="143.70183" fx="313.09773" fy="143.70183" r="292.07299" xlink:href="#d"/><radialGradient id="f" cx="313.10647" cy="143.7051" fx="313.10647" fy="143.7051" r="292.08386" xlink:href="#d"/><radialGradient id="g" cx="313.10298" cy="143.28808" fx="313.10298" fy="143.28808" r="290.6298" xlink:href="#d"/><radialGradient id="h" cx="313.43541" cy="143.37427" fx="313.43541" fy="143.37427" r="290.88329" xlink:href="#d"/><radialGradient id="i" cx="320.5373" cy="142.08001" fx="320.5373" fy="142.08001" r="284.65635" xlink:href="#d"/><radialGradient id="j" cx="297.92194" cy="149.08224" fx="297.92194" fy="149.08224" r="282.82733" xlink:href="#d"/><radialGradient id="k" cx="305.84859" cy="145.32896" fx="305.84859" fy="145.32896" r="289.94931" xlink:href="#d"/><radialGradient id="l" cx="308.65966" cy="135.74248" fx="308.65966" fy="135.74248" r="302.93536" xlink:href="#d"/><radialGradient id="m" cx="310.38484" cy="141.67411" fx="310.38484" fy="141.67411" r="293.05599" xlink:href="#d"/><radialGradient id="n" cx="311.52299" cy="143.54284" fx="311.52299" fy="143.54284" r="288.64663" xlink:href="#d"/><radialGradient id="o" cx="312.5131" cy="143.60096" fx="312.5131" fy="143.60096" r="289.3953" xlink:href="#d"/><linearGradient id="p" x1="249.10286" y1="85.97008" x2="304.56331" y2="384.76326" gradientUnits="userSpaceOnUse"><stop offset="0" stop-color="#e82e00"/><stop offset=".21215" stop-color="#f35700"/><stop offset=".39965" stop-color="#fb7500"/><stop offset=".50526" stop-color="#ff8100"/><stop offset=".60982" stop-color="#fd7c00"/><stop offset=".72072" stop-color="#fa6f00"/><stop offset=".83459" stop-color="#f45a00"/><stop offset=".94979" stop-color="#ec3d00"/><stop offset="1" stop-color="#e82e00"/></linearGradient><linearGradient id="q" x1="285.15752" y1="77.84653" x2="341.10556" y2="379.26661" xlink:href="#p"/><linearGradient id="r" x1="195.4537" y1="325.33918" x2="199.30867" y2="325.33918" gradientUnits="userSpaceOnUse"><stop offset=".16167" stop-color="#d5411f"/><stop offset=".27868" stop-color="#df571f"/><stop offset=".44631" stop-color="#eb721f"/><stop offset=".59618" stop-color="#f2821f"/><stop offset=".71233" stop-color="#f5881f"/><stop offset="1" stop-color="#f5881f"/></linearGradient><linearGradient id="s" x1="216.76807" y1="335.58841" x2="217.27798" y2="335.58841" xlink:href="#r"/><linearGradient id="t" x1="175.49808" y1="355.44306" x2="179.23743" y2="115.78415" gradientUnits="userSpaceOnUse"><stop offset=".16167" stop-color="#e82e00"/><stop offset=".35116" stop-color="#ef4700"/><stop offset=".71233" stop-color="#ff8100"/><stop offset="1" stop-color="#ff8100"/></linearGradient><linearGradient id="u" x1="169.83582" y1="228.55774" x2="410.3898" y2="228.55774" gradientUnits="userSpaceOnUse"><stop offset="0" stop-color="#ff8100"/><stop offset=".19487" stop-color="#fd7b00"/><stop offset=".43012" stop-color="#f96d00"/><stop offset=".68614" stop-color="#f25400"/><stop offset=".95533" stop-color="#e93200"/><stop offset=".99032" stop-color="#e82e00"/></linearGradient><linearGradient id="v" x1="197.18748" y1="330.45866" x2="220.01224" y2="330.45866" gradientUnits="userSpaceOnUse"><stop offset="0" stop-color="#f5881f"/><stop offset=".20869" stop-color="#f3831f"/><stop offset=".43217" stop-color="#ed761f"/><stop offset=".66251" stop-color="#e3611f"/><stop offset=".89626" stop-color="#d6431f"/><stop offset=".91464" stop-color="#d5411f"/></linearGradient></defs><path d="M408.78078,214.72886c-.32641,6.11895-.91787,12.19719-1.81532,18.29573-.16321,1.24416-.36712,2.44761-.57104,3.69176,0,.04083-.02042.10196-.02042.14279-.04083.20392-.06125.42825-.08167.63229-.20392,1.26457-.44866,2.50873-.69341,3.75289-4.36488,22.90536-12.82936,45.23943-25.14892,65.69718-.77508,1.28499-1.55015,2.5904-2.40677,3.87539-.08154.12237-.14279.22433-.22433.34671-.81591,1.28499-1.65211,2.56998-2.50885,3.87526-11.09558,16.58237-24.80209,31.73708-41.05805,44.70922-2.91681,2.32523-5.81308,4.54838-8.79089,6.60845q-.04083.02042-.06125.02042c-1.32582.95858-2.5904,1.87644-3.93651,2.73306-.306.20404-.53033.40795-.83633.61199h-.08154c-1.34611.91774-2.6311,1.79478-3.99776,2.65152h-.08154c-8.32181,5.26221-16.90866,9.74946-25.65884,13.50248-5.16025,2.22315-10.38175,4.16084-15.64408,5.83337-.02042,0-.04083.02042-.06112.04083-2.7536.89745-5.50708,1.71324-8.28098,2.44761-3.65105.97899-7.30198,1.83561-10.95304,2.56985,0,0-.04071.02042-.06112.02042-.46908.08167-.89745.16321-1.34624.22433,0,0-.04071.04083-.06112.04083-1.20345.22433-2.38636.42837-3.5898.63229-.53033.08167-.99941.16321-1.52974.22433h-.06112c-1.16262.20404-2.2844.40795-3.46743.57116h-.02042c-.57116.08154-1.12178.14279-1.69294.20392h-.04071c-.79549.10208-1.57057.20404-2.34565.28558h-.02042c-1.81532.22433-3.61022.40795-5.405.53033-.44879.06112-.87716.08154-1.32582.12237-17.64303,1.30541-35.16355-.16321-51.99067-4.36488-1.16262-.28558-2.32523-.57104-3.48785-.89745-.87703-.24475-1.73365-.4895-2.61069-.73424-.08167-.02042-.20404-.06125-.28558-.08154-.89745-.26516-1.77449-.50991-2.67194-.83633-.10196-.02042-.22433-.06112-.34671-.10196-12.58473-3.93651-24.67984-9.44359-35.97946-16.50083-.02042,0-.06125-.02029-.08154-.04071-.6527-.40795-1.32582-.83633-1.97853-1.26457-.08154-.04083-.14279-.10208-.22433-.16321-.63229-.40795-1.28499-.85662-1.91728-1.28499-9.76988-6.44524-18.9076-14.15518-27.22928-22.9869-.57116-.61187-1.1422-1.20332-1.69294-1.83561-.89745-.99941-1.7949-1.99894-2.67194-3.01877-.57116-.65258-1.1422-1.3257-1.69294-1.99882-.16321-.20392-.32629-.38754-.4895-.59145-.73424-.85674-1.4482-1.71336-2.14161-2.56998-2.1009-2.6311-4.14055-5.34387-6.09853-8.13818-40.54826-57.70179-40.65034-135.14725-6.24132-197.17309v-.02029s0-.02042.02029-.04083c.9587-1.75407,1.95811-3.46743,2.99835-5.18067.02042,0,.02042-.02042.02042-.04083,11.9319-20.09051,27.57599-38.38623,46.72833-53.68361,1.08107-.85662,2.16202-1.71336,3.26352-2.52915l.02029-.02042.38754-.28558c.4895-.38754.97912-.75466,1.46861-1.10137,17.84694-13.31898,37.08083-22.90523,56.76338-28.90181.77508-.26516,1.59099-.48962,2.38648-.73437.4895-.14267.99941-.28546,1.4889-.42825h.04083c.46908-.12237.91774-.24475,1.36653-.36712l.02042-.02042c.59145-.16321,1.12178-.28558,1.67253-.40795.55062-.12237,1.08095-.26516,1.6724-.42837-.03809.01818-.0722.04208-.11017.0605,20.0808-5.01721,40.53842-6.36494,60.32069-4.07855h.02042c.59145.06112,1.18303.14279,1.77449.22433.81591.10196,1.6317.20404,2.44761.306.57104.08154,1.1422.16308,1.71324.26516h.02042c3.75301.57104,7.48561,1.26457,11.15695,2.12119,1.61128.34671,3.22256.73424,4.79313,1.16262,2.52915.6527,5.038,1.36653,7.52631,2.12119,1.50932.4692,3.01864.9587,4.50767,1.48903.08154,0,.16308.04071.22433.08154,27.63724,9.52513,52.6842,26.71937,72.12201,51.23601.69354.85662,1.40736,1.73365,2.08048,2.6311l2.52915,3.40631c.42837.57104.8362,1.16262,1.22374,1.73365,5.48666,7.79148,10.21867,15.95008,14.23684,24.37385,3.67135,7.68952,6.75124,15.62367,9.21913,23.72114.79549,2.59027,1.50945,5.20108,2.18244,7.83219.306,1.08107.57116,2.14173.81591,3.22268.08154.32629.16321.6527.22433.97899.24475,1.10149.4895,2.20286.73424,3.30422.4692,2.28452.91787,4.60963,1.30541,6.93486.306,1.7949.63229,3.63064.83633,5.42542.44866,3.22268.79537,6.44536,1.06053,9.68834.73437,8.48502.89745,17.07199.42837,25.63842Z" fill="url(#b)"/><path d="M382.99336,94.41092c3.70246,5.3191,7.1655,10.91241,10.30313,16.64416l.53176-.28486c-8.96051-25.93795-26.2122-50.66991-48.6796-69.75532l-4.33872-3.56204-4.46306-3.37835c-3.10721-2.29749-6.22103-4.45122-9.24358-6.38931-3.01065-1.94075-6.26601-3.98267-9.68407-5.78765l-.37964-.197c-3.17467-1.6559-6.45913-3.3677-9.77402-4.82659-12.7463-6.00862-26.97544-10.55302-42.32497-13.51606-25.33916-4.89049-51.77358-4.43259-76.44871,1.31513l-.00529.00266-.00661-.02662-1.88761.42862-.00661-.03195c-4.23686,1.00099-8.48166,2.14574-12.66032,3.41296-25.24657,7.66185-48.69283,19.69772-67.80699,34.80312l-5.36916,4.27552c-2.4154,1.91679-4.58211,3.65788-6.68268,5.56935-8.00282,6.80196-15.77943,14.74334-24.50978,25.01948-8.25547,9.79162-14.96593,19.08807-20.50969,28.42179-6.53453,10.87514-11.77141,21.10337-16.01621,31.27302-4.47761,10.55035-8.2343,21.76892-11.17087,33.35488-2.76593,10.8991-4.80301,22.57823-6.05304,34.7126-1.02251,9.92739-1.25796,20.16361-.71959,31.29166,2.37307,48.96876,20.00042,94.0214,49.63465,126.86513,30.88425,34.23074,71.80443,55.61897,115.22069,60.22194,39.89635,4.22227,81.91179-6.04056,115.4707-28.19817l-.55557-1.18469c-38.4479,19.25047-84.05734,23.52332-125.3717,11.70043-3.56621-1.01963-7.17079-2.18568-10.71451-3.46088-41.58421-14.97761-76.28998-46.28259-97.72297-88.14057l-.49869-1.09417c-1.9511-4.28883-3.96834-8.72407-5.63107-13.25516-3.69188-9.71974-6.61787-19.75895-8.69198-29.81946-2.00004-10.08713-3.25007-20.47242-3.71966-30.87902-.49207-10.07914-.14815-20.53898,1.02119-31.08933,4.40221-41.00342,21.16579-81.22414,47.20074-113.24258,7.07026-8.67083,14.03072-16.0638,21.28087-22.59687,8.45785-7.69114,16.41305-13.98461,24.31401-19.23982,8.48828-5.74506,17.55064-10.89644,26.92517-15.30773,8.91156-4.19299,18.48452-7.80029,28.46092-10.72872l-.00661-.09318.71298-.10383,1.44712-.40998-.00529-.08519.66007-.08519v.00532c22.25709-5.98199,44.82767-7.73639,67.07417-5.20463l.00132-.00266c.1164.00799.22487.0213.3254.03993l1.63496.20765c1.11643.13844,2.22888.27687,3.20774.44193,49.95873,9.17133,90.14477,34.0577,116.2313,71.97028Z" fill="url(#c)"/><path d="M300.25705,250.89503c-.43232.28445-.87404.55187-1.30884.83195.00422.03577.0109.07215.01511.10792.43927-.30057.85721-.63487,1.29373-.93988Z" fill="none"/><path d="M299.78186,44.60168c-.06125-.04083-.14279-.08154-.22433-.08154-1.48903-.53033-2.99835-1.01983-4.50767-1.48903,8.87243,3.26352,17.60219,7.46519,26.04637,12.70711.04071,0,.06112-.02042.08154-.02042-6.95515-4.40571-14.11435-8.11789-21.39591-11.11612Z" fill="url(#d)"/><path d="M63.85555,222.37754c-.06125-.63229-.12237-1.24416-.12237-1.85603-.44879,5.64987-.63229,11.2792-.55075,16.88824l.10196,3.77343.14279,2.22315c-.30587-6.95515-.14279-13.95114.42837-21.02879ZM63.42718,243.40633c.10196,3.30422.34683,6.60857.6527,9.85155l-.6527-9.85155ZM84.08884,150.03121c-.02042.06112-.06112.10196-.08154.16321-11.07529,21.5387-17.58178,43.91361-19.88659,66.0846v.02042c.02042.59145.06112,1.24416.10196,1.87644,0-.02042,0-.04071.02042-.06112v-.04083c2.32523-22.04861,8.87243-44.42352,19.96813-65.96222v-.02042c.02042,0,.02042-.02042.02042-.02042-.10196-.69354-.12237-1.38695-.14279-2.03965ZM130.38893,91.14651c-17.41857,15.09334-32.53245,33.51144-44.11765,54.78498,0,.02042-.02042.02042-.02042.04083,0,.6527.06125,1.3257.12237,2.01923,11.5852-21.29395,26.67866-39.75276,44.11765-54.9686-.08154-.63229-.10196-1.26457-.10196-1.87644ZM192.53702,54.69797c-21.08991,7.58744-41.05805,18.90747-58.80303,33.59298v.02042h-.02042c.02042.306.04083.59145.06112.89745.02042.32629.04083.63229.06125.95858,17.72457-14.78746,37.6927-26.291,58.78274-34.06206-.02042-.4895-.06125-.93828-.08167-1.40736ZM262.3135,43.76535c-22.17099-.89733-44.48477,2.4069-65.7176,9.50484,0,.24475,0,.46908.02042.69341.02042.24487.02042.4692.06125.69354h.02042c21.2327-7.26115,43.50565-10.78971,65.63593-10.137-.02042-.26516-.02042-.50991-.02042-.75479ZM266.51517,44.01022c.04083.24475.04083.44866.06112.69341,18.27531.97899,36.40783,4.85438,53.76528,11.85036v-.10196c-17.37786-7.20003-35.55109-11.25891-53.8264-12.44182Z" fill="url(#e)"/><path d="M101.73187,345.51122c-4.34447-7.32227-7.66911-15.44004-9.99434-24.27176-.73424-.69354-1.40736-1.38695-2.06007-2.08048,2.36606,8.56656,5.64987,16.54153,9.87196,23.76198.16321.20392.32629.38754.4895.59145.57116.69354,1.16262,1.40736,1.75407,2.1009-.02042-.04083-.04071-.06125-.06112-.10208ZM90.0243,263.51738c-.93828-.91787-1.83574-1.85615-2.73319-2.7536-3.05948,19.96826-2.48831,38.69223,1.57057,55.25418.67299.73424,1.38695,1.42778,2.08036,2.14161-3.75289-16.33762-4.16084-34.81685-.91774-54.64219ZM109.84964,194.00606c-11.13654,21.55912-18.37727,42.83266-21.90582,62.94358.89745.91787,1.77449,1.81532,2.73319,2.77389,3.69176-19.98855,10.99362-41.13971,22.10974-62.69883-1.01983-1.04024-1.9784-1.99882-2.9371-3.01864ZM155.41548,133.02047c-.44879-.44866-.91787-.91774-1.36666-1.38695-16.154,17.25549-30.53351,36.89733-42.05758,58.29324.97912,1.01983,1.95811,1.99882,2.97793,3.01864,0,0,0-.02042.02042-.02042,11.50366-21.39591,25.8015-41.09888,41.81283-58.51757-.4692-.4895-.93828-.93816-1.38695-1.38695ZM211.56699,86.47563c-.34671-.34671-.69354-.69341-1.04024-1.06053-18.82593,11.46282-36.95845,25.96471-53.3572,42.9142v.02042h-.02042c.44879.46908.91787.93828,1.36653,1.38695.44879.46908.91787.91787,1.36666,1.36653,16.21512-17.09228,34.16402-31.83891,52.72491-43.58732-.36712-.36712-.69354-.69341-1.04024-1.04024ZM271.81821,60.02143c-19.19305,4.20167-38.73294,12.17665-57.64054,23.25206h-.02029c.6527.69341,1.3257,1.34611,2.01923,2.03965h.02042c18.66273-11.32016,37.87632-19.60113,56.72267-24.14951v-.02042c-.36712-.36712-.71395-.73424-1.10149-1.12178ZM321.30015,58.10415c-14.56313-2.42719-30.04401-1.93769-45.83088,1.16262l1.04024,1.04024c15.50129-3.34506,30.65588-4.20167,44.91302-2.08048-.04071-.02042-.06112-.08154-.12237-.12237Z" fill="url(#f)"/><path d="M137.48687,356.3826c-1.08095-.6527-2.14161-1.36653-3.22256-2.01923-.91787,8.36252-.59158,15.19542.97899,20.27413.08154.06112.14279.12237.22433.16321.6527.42825,1.32582.85662,1.97853,1.26457.02029.02042.06112.04071.08154.04071-1.26457-4.85425-1.24416-11.50353-.04083-19.72338ZM146.50222,307.47182c-6.3637,17.39815-10.36146,32.45078-11.95245,44.60714,1.08107.69341,2.18244,1.40736,3.30422,2.08048,1.99894-11.8912,6.34341-26.73991,12.8906-43.99527-1.42766-.89745-2.81473-1.7949-4.24238-2.69235ZM174.50658,245.03815c-11.19766,21.49787-20.15176,41.40488-26.80104,59.04778,0,.02042.02042.02042.02042.02042.73424.4692,1.42778.93828,2.16202,1.38695.71383.4692,1.42778.91787,2.16202,1.36666v-.02042c6.8532-17.52065,15.95008-37.34599,27.12732-58.84399-1.57057-.99941-3.1206-1.9784-4.67075-2.95739ZM213.58622,178.58631h-.02042c-12.97215,19.76422-25.55675,40.81342-36.8972,62.35213-.02042,0-.02042.02042-.02042.02042.77508.4895,1.55015.97899,2.34552,1.46849.77508.4895,1.52974.97899,2.32523,1.46861,11.36087-21.51841,23.78239-42.66957,36.57092-62.57658-1.44807-.93816-2.85544-1.83561-4.30363-2.73306ZM255.74576,121.06815h-.02029c-13.15577,15.9705-26.59712,34.16414-39.67122,53.76515h.02042c1.42766.91787,2.81473,1.81532,4.24238,2.69235,12.80906-19.7438,25.94442-38.16178,38.69223-54.39744-1.10149-.6527-2.20286-1.36653-3.26352-2.06007ZM295.72298,78.88819c-11.64645,10.17784-24.37385,23.49681-37.46837,39.18173,1.06053.65258,2.10078,1.3257,3.18185,1.99882,12.66615-15.90925,24.92447-29.59535,36.02017-40.07918-.59145-.38754-1.1422-.73424-1.73365-1.10137ZM323.72734,60.02143c-7.54673,3.10031-16.25595,8.93368-25.76079,16.99032.50991.34671,1.06066.69341,1.6114.99941,9.03564-8.30139,17.25536-14.44076,24.33301-17.86736-.06125-.06125-.12237-.08154-.18362-.12237Z" fill="url(#g)"/><path d="M192.80218,385.03966c-4.83396,4.22209-9.3008,7.36323-13.3801,9.32122,1.16262.32641,2.32523.61187,3.48785.89745,4.22209-1.87644,8.77047-4.79313,13.5636-8.70922-1.22374-.48962-2.4679-.97912-3.67135-1.50945ZM224.19243,348.18316h-.02042c-10.62662,15.15471-20.68208,27.0662-29.65647,35.32676l3.73247,1.57057c9.44359-8.09735,19.8663-19.84576,30.75796-34.89839-1.61128-.63229-3.22268-1.30541-4.81354-1.99894ZM259.3764,289.54321c-11.25891,21.43674-22.51769,40.18114-33.16473,55.72326,1.6317.69354,3.2431,1.34624,4.89521,2.01936,10.91208-15.44017,22.31378-34.10302,33.57256-55.58047-1.77449-.69354-3.50814-1.4482-5.30304-2.16215ZM291.7048,219.54253h-.02042c-8.8316,21.92624-19.00943,44.26031-30.1868,65.88068h.02042c1.75407.75466,3.48785,1.46849,5.28275,2.20286,11.17724-21.64078,21.17158-44.03611,29.77884-66.0643-1.6317-.67312-3.26339-1.32582-4.87479-2.01923ZM315.05883,152.17282h-.02042c-5.67016,19.86617-13.01298,41.32334-21.66108,63.18833,1.59099.67312,3.22268,1.32582,4.83396,1.99894,8.36264-21.98749,15.31779-43.56703,20.53929-63.65753-1.24416-.4895-2.44761-1.01983-3.69176-1.52974ZM327.13352,95.34819c-1.7949,15.31779-5.56821,33.36865-11.01404,53.05132.59145.24475,1.20332.4895,1.7949.73424.61187.24475,1.20332.4895,1.7949.75466v-.02042c4.97675-19.86617,8.19931-38.12107,9.36193-53.70403-.63229-.26504-1.28499-.55062-1.93769-.81579ZM327.09281,61.75508c-.06125-.02029-.14279-.04071-.20404-.08154,1.69294,7.97498,1.7949,18.43839.53033,30.77838.6527.26504,1.26457.50991,1.85615.77495.75466-12.56419.06112-23.27236-2.18244-31.47179Z" fill="url(#h)"/><path d="M298.82316,370.7621c-10.23896,9.64763-20.98796,17.50023-32.00199,23.43569,2.77389-.73437,5.52737-1.55015,8.28098-2.44761.02029-.02042.04071-.04083.06112-.04083,9.36205-5.50708,18.52006-12.33986,27.2497-20.45763-1.18291-.14279-2.36594-.32641-3.5898-.48962ZM340.92158,314.20264c-11.34045,21.43674-24.74097,39.4876-39.32439,53.86711h.02042c1.24416.20404,2.44748.34683,3.65093.50991,14.78746-14.35909,28.26952-32.38953,39.58956-53.82628-1.28499-.18362-2.59027-.34683-3.93651-.55075ZM368.59965,242.50888c-.61187-.08154-1.20332-.1835-1.81532-.28546h-.02029c-4.83409,23.14998-12.72752,46.17759-23.70085,67.85908h.02042c1.32582.20404,2.5904.36712,3.91622.55075,10.95291-21.68149,18.74439-44.7091,23.39473-67.8795-.59145-.08167-1.18303-.16321-1.7949-.24487ZM374.80014,169.77501c-.89733-.10196-1.83561-.22433-2.75348-.36712,1.4889,22.04861.08154,45.25985-4.3853,68.40983h.02042c1.18303.20404,2.40677.34683,3.54897.53033,4.28334-23.21123,5.40512-46.46317,3.56939-68.57303ZM358.7481,104.6694c-.4895-.06125-.97899-.14279-1.46849-.20404h-.02042c7.70994,18.21406,12.5439,38.83502,14.46118,60.74085h.02029c.89745.14279,1.77461.26516,2.67206.36712-2.26411-21.92624-7.50602-42.64903-15.66462-60.90393ZM330.09104,62.63212c-.06112,0-.10196-.02029-.16321-.02029,10.5655,10.6265,19.15235,23.65989,25.82204,38.40653h.02042c.46908.10208.89745.14279,1.36653.20404-7.05723-14.80788-16.07245-27.9024-27.04578-38.59027Z" fill="url(#i)"/><path d="M241.63141,398.9705c-1.81532.22433-3.61022.40795-5.405.53033-7.46519-1.73365-15.58296-4.12013-24.27189-7.11836-5.16038-1.77449-10.32063-3.75301-15.481-5.83337-1.22374-.48962-2.4679-.97912-3.67135-1.50945-19.21347-8.01581-38.22303-17.96931-55.31531-28.65706-1.08095-.6527-2.14161-1.36653-3.22256-2.01923-16.82712-10.78971-31.57387-22.19141-42.52678-33.1239-.73424-.69354-1.40736-1.38695-2.06007-2.08048-5.44583-5.64987-9.85142-11.15683-12.93131-16.33762-1.59099-2.67194-2.77389-5.16025-3.56939-7.48548l-1.12178-3.40618c.81579,2.30481,2.01923,4.7523,3.56939,7.38352,3.16143,5.30304,7.64869,10.91208,13.23731,16.70474.67299.73424,1.38695,1.42778,2.08036,2.14161,11.23849,11.19766,26.37279,22.90523,43.60773,33.91939,1.08107.69341,2.18244,1.40736,3.30422,2.08048,17.47982,10.95291,36.97887,21.11033,56.66155,29.35047l3.73247,1.57057c5.30317,2.14161,10.5655,4.14055,15.84812,5.95574,9.9535,3.46743,19.17276,6.09853,27.53528,7.93427Z" fill="url(#j)"/><path d="M320.54549,369.72199c-1.34611.91774-2.6311,1.79478-3.99776,2.65152h-.08154c-4.32405-.10196-9.01522-.4692-14.05322-1.12178-1.18291-.14279-2.36594-.32641-3.5898-.48962-14.11435-2.14161-30.6763-6.38412-49.25748-12.84977-6.8329-2.36594-13.66568-4.95634-20.53929-7.73023h-.02042c-1.61128-.63229-3.22268-1.30541-4.81354-1.99894h-.02042c-25.49563-10.66733-50.72609-23.84339-73.40699-38.01899h-.02042c-1.42766-.89745-2.81473-1.7949-4.24238-2.69235-22.3342-14.27755-41.91491-29.47297-56.47792-43.95444-.91787-.91787-1.81532-1.85615-2.71277-2.7536-7.24073-7.5059-13.07423-14.80788-17.15353-21.68149-3.73247-6.34328-5.79254-11.89107-6.28203-16.70474-.06125-.63229-.12237-1.24416-.12237-1.85603,0-.63229,0-1.24416.06112-1.85615l.32641-3.54897c0,.38754-.02042.77508-.02042,1.16262v.02042c.04083.57116.06112,1.18303.12237,1.77449v.10196c.4895,4.83396,2.56998,10.48383,6.38412,16.86795,4.09972,6.95515,10.01463,14.3388,17.31661,21.90582.89745.91787,1.77449,1.81532,2.73319,2.77389l.02029.02042c14.68551,14.64467,34.47014,29.96247,57.00825,44.34198,0,.02042.02042.02042.02042.02042.73424.4692,1.42778.93828,2.16202,1.38695.71383.4692,1.42778.91787,2.16202,1.34624v.02042h.02042c22.88482,14.31826,48.38045,27.61682,74.14124,38.40653,1.6317.69354,3.2431,1.34624,4.89521,2.01936,6.93474,2.8146,13.84918,5.42542,20.76363,7.83219,18.76481,6.50649,35.48984,10.78971,49.72668,12.95173h.02042c1.24416.20404,2.44748.34683,3.65093.50991,5.50708.73437,10.62662,1.10149,15.27696,1.14232Z" fill="url(#k)"/><path d="M378.04324,310.81688c-.08154.12237-.14279.22433-.22433.34671-.81591,1.28499-1.65211,2.56998-2.50885,3.87526-8.1586,1.32582-18.39756,1.2647-30.45196-.28546-1.28499-.18362-2.59027-.34683-3.93651-.55075-15.37892-2.34565-33.49102-6.99599-53.80599-14.0328-7.44465-2.56998-14.95055-5.42542-22.43615-8.46447-1.77449-.69354-3.50814-1.4482-5.30304-2.16215-27.88198-11.64632-55.43768-26.08708-80.19907-41.54767-1.57057-.99941-3.1206-1.9784-4.67075-2.95739-24.39426-15.60337-45.79017-32.16533-61.71984-48.01345-1.01983-1.04024-1.9784-1.99882-2.9371-3.01864-7.91385-8.19943-14.27755-16.17441-18.74439-23.68031-2.97781-5.05842-5.60904-10.52467-6.60845-16.35804-.10196-.63229-.20392-1.24416-.28558-1.85603v-.02042c-.08154-.63229-.14279-1.26457-.20392-1.89686-.42837-5.01758.12237-9.6068,1.06066-15.15471v-.02029s0-.02042.02029-.04083c.9587-1.75407,1.95811-3.46743,2.99835-5.18067-.99941,2.75348-1.87644,13.19648-1.81532,16.13358v.04083c0,.6527.06125,1.3257.10196,2.01923.55075,5.24192,2.79431,11.34045,6.91444,18.2549,4.44642,7.5059,10.78971,15.48088,18.70356,23.68031.99941.99941,1.97853,1.99882,2.99835,2.99823,15.86841,15.86854,37.28474,32.41007,61.67901,48.01345.75466.50991,1.52974.99941,2.32511,1.4889.77508.4895,1.52974.97899,2.32523,1.46861h.02042c24.76138,15.48088,52.27625,29.8808,80.15823,41.52725h.02042c1.75407.75466,3.48785,1.46849,5.28275,2.20286h.02042c7.48548,3.01864,14.97096,5.85379,22.41574,8.42364,20.31484,7.07765,38.38623,11.7077,53.82628,14.0328h.02042c1.32582.20404,2.5904.36712,3.91622.55075h.02029c12.31957,1.61128,22.76257,1.65211,31.02313.18362Z" fill="url(#l)"/><path d="M406.39443,236.71635c0,.04083-.02042.10196-.02042.14279-.04083.20392-.06125.42825-.08167.63229-.20392,1.26457-.44866,2.50873-.69341,3.75289-8.30139,2.87598-20.25371,3.4266-35.20438,1.48903-.59145-.06125-1.20345-.14279-1.7949-.22446-.61187-.08154-1.20332-.1835-1.81532-.28546h-.02029c-14.17559-2.14173-30.83963-6.40453-49.54319-12.8906-6.83278-2.38636-13.72681-4.99717-20.62083-7.77106h-.02042c-1.6317-.67312-3.26339-1.32582-4.87479-2.01923h-.02042c-25.618-10.72858-51.01155-24.00672-73.77412-38.22315h-.02042c-1.44807-.93816-2.85544-1.83561-4.30363-2.73306h-.02042c-22.43615-14.35909-42.13912-29.61576-56.74296-44.1789h-.02042c-.4692-.4895-.93828-.93816-1.38695-1.38695-.44879-.46908-.89745-.93816-1.34624-1.40736-7.28157-7.54661-13.13535-14.88942-17.23507-21.78345-3.7733-6.3637-5.83337-11.99315-6.32287-16.8067-.08154-.63229-.12237-1.26457-.12237-1.87644-.08154-5.30317,3.92826-14.44565,7.7221-17.6275l1.99147-1.49973c-3.50826,3.10031-6.45018,11.21337-6.36852,16.27166v.02042c0,.28558.02042.59145.04071.89745.02042.32629.04083.63229.06125.95858.50991,4.77284,2.52915,10.34104,6.26174,16.6232,4.09972,6.83278,9.87184,14.09405,17.07186,21.5387v.02042c.44866.46908.89745.91787,1.34611,1.38695.44879.46908.91787.91787,1.36666,1.36653,14.46105,14.42034,33.93969,29.5138,56.17192,43.73011h.02042c1.42766.91787,2.81473,1.81532,4.24238,2.69235h.02042c22.53811,14.11435,47.66662,27.22941,73.03987,37.83549,1.59099.67312,3.22268,1.32582,4.83396,1.99894,6.81249,2.75348,13.62485,5.32346,20.43734,7.70981,18.47923,6.40453,34.95964,10.62662,49.01273,12.74781h.02042c1.18303.20404,2.40677.34683,3.54897.53033,15.01192,1.93769,26.94383,1.34624,35.16368-1.6317Z" fill="url(#m)"/><path d="M404.4159,163.7376c.24475,1.10149.4895,2.20286.73424,3.30422-6.18008,3.5491-16.60266,4.52809-30.35001,2.73319-.89733-.10196-1.81519-.22433-2.75348-.36712-10.749-1.6317-23.41515-4.87479-37.61116-9.7903-5.20108-1.83574-10.46342-3.79384-15.6645-5.91504h-.02042c-1.24416-.4895-2.44761-1.01983-3.69176-1.52974h-.02042c-19.47864-8.1586-38.71252-18.21406-56.02913-29.0446-1.10149-.6527-2.20286-1.36653-3.26352-2.06007h-.02029c-17.03115-10.89166-32.00212-22.47699-43.09782-33.55227h-.02042c-.36712-.36712-.69354-.69341-1.04024-1.04024-.32629-.34671-.67312-.69341-1.01983-1.06053-5.50708-5.711-9.97392-11.29974-13.0741-16.56195-2.87598-4.79325-4.46684-9.05605-4.83409-12.74781-.04071-.4895-.06112-.9587-.08154-1.40736-.10196-5.56833,4.03826-10.5409,9.4841-13.0088,1.16262-.306,2.18585-.52253,3.34846-.84895-5.09913,2.42719-8.87563,7.12692-8.79409,12.42996,0,.24475,0,.46908.02042.69341.02042.24487.06125.4692.08167.69354.36712,3.5898,1.89686,7.75065,4.69117,12.46223,3.03906,5.13996,7.38352,10.54508,12.76823,16.1337v.02042h.02029c.6527.69341,1.32582,1.34611,1.99894,2.03965h.02042c10.83054,10.81012,25.43438,22.10974,42.05758,32.75678,1.06053.65258,2.10078,1.3257,3.18185,1.99882h.02042c16.86782,10.56537,35.67346,20.3965,54.6626,28.33077.59145.24475,1.20332.4895,1.7949.73424.59145.24475,1.20332.4895,1.7949.73424h.02029c5.11954,2.1009,10.21867,3.99776,15.29738,5.77225,13.84931,4.81354,26.16875,7.97498,36.69341,9.56596h.02029c.89745.14279,1.77461.26516,2.67206.36712h.02029c13.54331,1.75407,23.72114.75466,29.75855-2.81473.08154.32629.16321.6527.22433.97899Z" fill="url(#n)"/><path d="M376.5135,101.87509c-.22433.24475-.4895.4895-.77508.71383h-.02042c-.1835.14279-.36712.26516-.57104.40795-3.2431,2.06007-8.85214,2.6311-16.39887,1.67253-.4895-.06125-.97899-.14279-1.46849-.20404h-.02042c-5.69058-.85662-12.36028-2.56998-19.88659-5.18067-2.75348-.9587-5.50708-1.99882-8.30139-3.12072-.63229-.26504-1.28499-.55062-1.93769-.81579-10.30021-4.32405-20.51888-9.64751-29.65647-15.35863h-.02042c-.59145-.38754-1.1422-.73424-1.73365-1.10137-8.99493-5.77225-16.90878-11.8912-22.80328-17.74498-.36712-.36712-.71395-.73424-1.10149-1.12178-2.91669-3.03906-5.26221-5.97616-6.91432-8.75006-1.50945-2.54956-2.34565-4.81367-2.54956-6.75124-.04083-.26516-.04083-.53033-.04083-.75479-.04083-3.16143,1.71324-5.42542,5.07871-6.7104.81591.10196,1.6317.20404,2.44761.306.57104.08154,1.1422.16308,1.71324.26516-3.30422,1.1422-5.07871,3.30422-5.03788,6.3637v.02042c.04083.24475.04083.44866.06112.69341.18362,1.81532.9587,3.93651,2.38648,6.34328,1.55015,2.61081,3.75289,5.38471,6.50649,8.21985l1.04024,1.04024c5.50696,5.50708,12.95173,11.2792,21.45704,16.70474.50991.34671,1.06066.69341,1.6114.99941,8.60726,5.405,18.17323,10.40217,27.84115,14.44076.6527.26504,1.26457.50991,1.85615.77495,2.61069,1.04024,5.2215,2.03965,7.81177,2.9371,7.05723,2.44761,13.31898,4.03859,18.66285,4.85438h.02042c.46908.10208.89745.14279,1.36653.20404h.02042c7.05723.93816,12.36028.34671,15.39933-1.59099h.02042c.20392-.12237.34671-.22433.53033-.36712h.02042c.30587-.24475.61187-.50991.85662-.79549l2.52915,3.40631Z" fill="url(#o)"/><path d="M347.55044,214.46369c-4.0793,4.22209-8.30139,8.38306-12.66615,12.36028-4.40571,4.01818-8.99493,7.85273-13.74735,11.48324-3.26339,2.50885-6.60845,4.87479-9.9738,7.24086-10.42271-49.03327-53.03091-90.51969-78.139-110.01874-.04083.02029-.06125.04071-.08167.06112-11.72799-11.91149-35.06159-31.1455-52.45975-17.41857,10.17784-12.33986,21.31437-22.66049,33.08307-29.79926h.02042c14.35909-8.72976,31.45137,3.75289,37.87632,8.44406,19.98855,14.60397,64.84044,57.41621,88.78604,102.2681l.04071-.02042s.26516.53033.75466,1.55015c2.30481,4.42601,4.65046,9.42317,6.50649,13.84918Z" fill="url(#p)"/><path d="M355.48471,353.09879c-10.34104,11.82995-32.32841,28.02478-50.09381,34.44972,6.44524-14.21643,12.64586-31.49221,12.64586-63.57599,0-8.07694.08154-18.64231-.34683-23.25194,5.44596-3.63064,10.749-7.40394,15.84812-11.11612,8.21985-5.85379,22.64019-19.60101,24.19022-21.47758,2.26411,23.76198,3.44701,50.37939-2.24357,84.9719Z" fill="url(#q)"/><path d="M197.18748,325.23709c.69341.44879,1.40736.91787,2.12119,1.36666-.8362-.4895-1.6317-1.01983-2.40677-1.52974-.4895-.32641-.97899-.67312-1.4482-.99941.57116.38754,1.1422.79537,1.73378,1.16249Z" fill="url(#r)"/><path d="M217.27798,335.6598c-.06112.02042-.10196.02042-.16321.02042-.12237-.06125-.24475-.10208-.34671-.16321.06125,0,.10196,0,.14279-.02042.12237.06125.24475.12237.36712.16321Z" fill="url(#s)"/><path d="M168.73433,271.75752c-.16321,2.69235-.22433,5.36429-.08154,8.03623.08154,1.4482.20392,2.89627.44866,4.32405.16321.93828.32641,1.87644.50991,2.81473.06125.34671.14279.69354.22446,1.04024v.02042c.59145,2.89627,1.38695,5.77212,2.4679,8.52572,1.95811,4.93592,4.75242,9.50472,8.07706,13.64527,1.46849,1.81519,3.03906,3.54897,4.69117,5.20108.77508.75466,1.57045,1.52974,2.40677,2.30481.32629.28558.63229.57104.95858.87703.57116.4895,1.16262.99941,1.77449,1.50932.42837.36712.87716.71395,1.34624,1.10137.63229.50991,1.30541.99953,1.9784,1.50945.08167.08154.18362.14279.26516.20392.55075.40795,1.08107.81591,1.65211,1.20345.4692.32629.9587.67299,1.4482.99941.77508.50991,1.57057,1.04024,2.40677,1.52974,2.1009,1.3257,4.34447,2.59027,6.73082,3.85497,3.30422,1.75407,6.93486,3.4266,10.87137,5.03788-.04083.02042-.08154.02042-.14279.02042.10196.06112.22433.10196.34671.16321h-.06112c-13.46164,1.81519-25.65884,2.01923-36.5505.4895-15.15459-2.12132-27.80044-7.44477-37.81507-15.9705-12.42153-10.58579-19.07081-26.78062-19.76422-48.11541-1.4482-44.34198,22.31378-111.24248,57.55887-153.91193,17.39815-13.72693,40.73176,5.50708,52.45975,17.41857-3.24297,2.63123-6.28203,5.46625-9.17843,8.4646-3.03906,3.14102-5.89449,6.44524-8.58685,9.87184-2.81473,3.54897-5.44596,7.22044-7.95469,10.97333-2.56998,3.85497-4.99717,7.8119-7.28157,11.85036-2.32523,4.0793-4.52796,8.24027-6.60845,12.46236-2.08048,4.20167-4.03847,8.48489-5.89462,12.80894-1.81532,4.24251-3.52856,8.54614-5.13983,12.8906-1.55015,4.20167-3.01877,8.4646-4.36488,12.7274-1.28499,4.0793-2.48844,8.17902-3.56939,12.31944-1.01983,3.85497-1.93769,7.73035-2.73319,11.62603-.73424,3.54897-1.36653,7.11836-1.89686,10.68775-.44866,3.16156-.79537,6.32299-.99941,9.48442Z" fill="url(#t)"/><path d="M408.02612,193.92452c-1.91728,4.81354-3.95693,9.54555-6.1802,14.13476-11.07529,22.70132-26.291,42.58791-44.26031,59.70048,0,.02042-.04083.10208-.14279.20404-1.55015,1.87644-15.9705,15.62367-24.19035,21.47745-5.09913,3.71218-10.40217,7.48561-15.848,11.11612-.44879.32641-.91787.63229-1.38695.93828-23.66002,13.50248-51.92954,23.41515-67.023,27.5964-11.25879,3.14114-21.80387,5.30317-31.71654,6.64928-.06112-.02042-.10196-.04083-.16321-.06112-.12237-.06125-.24475-.10208-.34671-.16321.06125,0,.10196,0,.14279-.02042.02042.02042.06125,0,.08154,0-3.95693-1.61128-7.60786-3.30422-10.95291-5.03788-2.38636-1.2647-4.62992-2.52927-6.73082-3.85497-.8362-.4895-1.6317-1.01983-2.40677-1.52974-.4895-.32641-.97899-.67312-1.4482-.99941-.57104-.38754-1.10137-.79549-1.65211-1.20345-.08154-.06112-.1835-.12237-.26516-.20392-.67299-.50991-1.34611-.99953-1.9784-1.50945-.46908-.38741-.91787-.73424-1.34624-1.10137-.61187-.50991-1.20332-1.01983-1.77449-1.50932-.32629-.306-.63229-.59145-.95858-.87703-.83633-.77508-1.6317-1.55015-2.40677-2.30481-1.65211-1.65211-3.22268-3.38589-4.69117-5.20108-3.32464-4.14055-6.11895-8.70935-8.07706-13.64527-1.08095-2.7536-1.87644-5.62945-2.4679-8.52572v-.02042c0-.02042.02029-.02042.02029-.02042,3.40631,1.75407,11.82995,3.71218,26.37266,2.61069,17.41869-1.38695,36.61175-6.42482,54.21394-12.9109,0,0,15.11375-5.93545,22.51769-9.38247.69354-.28546,1.32582-.59145,1.93769-.93816,3.26352-1.55015,6.56774-3.18185,9.72917-4.89521.53033-.28558,1.06066-.57104,1.6317-.87703,1.97853-1.10137,3.93651-2.22327,5.83337-3.32464,5.36429-3.10031,10.27992-6.8532,15.29738-10.40217,1.16262-.81591,2.32523-1.63182,3.48785-2.44761,3.36547-2.36606,6.7104-4.732,9.97392-7.24073,4.7523-3.63064,9.34151-7.46519,13.74722-11.48324,4.36488-3.97734,8.58685-8.13818,12.66615-12.36028.04083-.04083.06125-.06125.10208-.10196.38754-.44879.77508-.9587,1.16262-1.40736,8.42364-9.70876,15.848-20.3965,21.92624-32.02253,8.79089-16.96991,21.45704-41.13984,24.4758-59.39461,10.443,10.52454,20.04967,41.91479,13.09452,72.55038Z" fill="url(#u)"/><path d="M217.27798,335.6598c-.08154.02042-.14279.02042-.22433.02042-7.8526-3.20227-14.39993-6.75124-19.86617-10.44312,5.52737,3.67147,12.15624,7.20003,20.09051,10.42271Z" fill="url(#v)"/></svg>