<?xml version="1.0" encoding="UTF-8"?><svg id="a" xmlns="http://www.w3.org/2000/svg" width="342" height="96" xmlns:xlink="http://www.w3.org/1999/xlink" viewBox="0 0 342 96"><defs><radialGradient id="b" cx="61.4718" cy="31.0849" fx="61.4718" fy="31.0849" r="49.5458" gradientTransform="translate(118.7665 -8.7596) rotate(116.9119) scale(.9884 1.017)" gradientUnits="userSpaceOnUse"><stop offset=".0711" stop-color="#b6d7eb"/><stop offset=".3401" stop-color="#5cb3e6"/><stop offset=".5256" stop-color="#009adf"/><stop offset=".8268" stop-color="#0f508d"/><stop offset=".8666" stop-color="#0e3f80"/><stop offset="1" stop-color="#02101b"/></radialGradient><radialGradient id="c" cx="54.5999" cy="35.948" fx="54.5999" fy="35.948" r="83.4885" gradientTransform="translate(120.5933 110.4555) rotate(-166.7958) scale(.9556) skewX(.1575)" gradientUnits="userSpaceOnUse"><stop offset="0" stop-color="#bc3003"/><stop offset=".5" stop-color="#e65303"/><stop offset=".866" stop-color="#f6930c"/><stop offset="1" stop-color="#ffad00"/></radialGradient><radialGradient id="d" cx="67.9898" cy="28.3943" fx="67.9898" fy="28.3943" r="53.2562" gradientTransform="translate(2.3209 .3859) scale(.9884)" gradientUnits="userSpaceOnUse"><stop offset="0" stop-color="#0082cb"/><stop offset=".8" stop-color="#002454"/></radialGradient><radialGradient id="e" cx="102.7087" cy="-53.3384" fx="102.7087" fy="-53.3384" r="157.3105" gradientTransform="translate(2.3209 .3859) scale(.9884)" gradientUnits="userSpaceOnUse"><stop offset=".3619" stop-color="#009adf"/><stop offset=".7668" stop-color="#0f508d"/><stop offset=".8571" stop-color="#02101b"/></radialGradient><linearGradient id="f" x1="67.8223" y1="25.3429" x2="74.4564" y2="85.5224" gradientUnits="userSpaceOnUse"><stop offset=".53" stop-color="#ffad00"/><stop offset=".7" stop-color="#f6930c"/><stop offset=".88" stop-color="#e65303"/><stop offset="1" stop-color="#bc3003"/></linearGradient><linearGradient id="g" x1="46.4685" y1="22.4745" x2="86.5231" y2="68.3574" gradientUnits="userSpaceOnUse"><stop offset="0" stop-color="#bc3003"/><stop offset=".15" stop-color="#e65303"/><stop offset=".45" stop-color="#f6930c"/><stop offset=".75" stop-color="#ffad00"/></linearGradient><linearGradient id="h" x1="42.4587" y1="73.4542" x2="43.3291" y2="73.4542" gradientUnits="userSpaceOnUse"><stop offset=".1617" stop-color="#d54125"/><stop offset=".2998" stop-color="#e15d27"/><stop offset=".4592" stop-color="#ec782a"/><stop offset=".6018" stop-color="#f3882c"/><stop offset=".7123" stop-color="#f68e2d"/><stop offset="1" stop-color="#f68e2d"/></linearGradient><linearGradient id="i" x1="47.271" y1="75.7682" x2="47.3861" y2="75.7682" xlink:href="#h"/><linearGradient id="j" x1="33.1622" y1="72.0076" x2="51.8113" y2="28.4204" gradientUnits="userSpaceOnUse"><stop offset="0" stop-color="#bc3003"/><stop offset=".23" stop-color="#e65303"/><stop offset=".68" stop-color="#f6930c"/><stop offset="1" stop-color="#ffad00"/></linearGradient><linearGradient id="k" x1="42.5585" y1="74.8486" x2="92.5691" y2="36.3973" gradientUnits="userSpaceOnUse"><stop offset="0" stop-color="#ffad00"/><stop offset=".29" stop-color="#f6930c"/><stop offset=".8" stop-color="#e65303"/><stop offset="1" stop-color="#bc3003"/></linearGradient><linearGradient id="l" x1="42.8502" y1="74.61" x2="48.0035" y2="74.61" gradientUnits="userSpaceOnUse"><stop offset="0" stop-color="#f68e2d"/><stop offset=".1999" stop-color="#f4892c"/><stop offset=".4141" stop-color="#ee7c2b"/><stop offset=".6348" stop-color="#e56728"/><stop offset=".8587" stop-color="#d84925"/><stop offset=".9146" stop-color="#d54125"/></linearGradient></defs><path d="M90.6229,48.481c-.0737,1.3815-.2072,2.7538-.4099,4.1307-.0368.2809-.0829.5526-.1289.8335,0,.0092-.0046.023-.0046.0322-.0092.046-.0138.0967-.0184.1428-.046.2855-.1013.5664-.1566.8473-.9855,5.1715-2.8966,10.214-5.678,14.8329-.175.2901-.35.5848-.5434.875-.0184.0276-.0322.0506-.0506.0783-.1842.2901-.373.5802-.5664.8749-2.5051,3.7439-5.5997,7.1655-9.2699,10.0943-.6585.525-1.3125,1.0269-1.9848,1.492q-.0092.0046-.0138.0046c-.2993.2164-.5848.4237-.8888.6171-.0691.0461-.1197.0921-.1888.1382h-.0184c-.3039.2072-.594.4052-.9026.5986h-.0184c-1.8789,1.1881-3.8176,2.2012-5.7932,3.0485-1.1651.5019-2.344.9394-3.5321,1.317-.0046,0-.0092.0046-.0138.0092-.6217.2026-1.2434.3868-1.8696.5526-.8243.221-1.6486.4144-2.4729.5802,0,0-.0092.0046-.0138.0046-.1059.0184-.2026.0368-.3039.0506,0,0-.0092.0092-.0138.0092-.2717.0506-.5388.0967-.8105.1428-.1197.0184-.2256.0368-.3454.0506h-.0138c-.2625.0461-.5158.0921-.7829.129h-.0046c-.129.0184-.2533.0322-.3822.046h-.0092c-.1796.023-.3546.0461-.5296.0645h-.0046c-.4099.0506-.8151.0921-1.2203.1197-.1013.0138-.198.0184-.2993.0276-3.9834.2947-7.9391-.0368-11.7383-.9855-.2625-.0645-.525-.1289-.7875-.2026-.198-.0553-.3914-.1105-.5894-.1658-.0184-.0046-.0461-.0138-.0645-.0184-.2026-.0599-.4006-.1151-.6033-.1888-.023-.0046-.0506-.0138-.0783-.023-2.8413-.8888-5.5721-2.1321-8.1233-3.7255-.0046,0-.0138-.0046-.0184-.0092-.1474-.0921-.2993-.1888-.4467-.2855-.0184-.0092-.0322-.023-.0506-.0368-.1428-.0921-.2901-.1934-.4329-.2901-2.2058-1.4552-4.2689-3.1959-6.1477-5.1899-.129-.1381-.2579-.2717-.3822-.4144-.2026-.2256-.4052-.4513-.6033-.6816-.129-.1473-.2579-.2993-.3822-.4513-.0368-.046-.0737-.0875-.1105-.1335-.1658-.1934-.327-.3868-.4835-.5802-.4743-.594-.9348-1.2065-1.3769-1.8374-9.1548-13.0277-9.1779-30.513-1.4091-44.517v-.0046s0-.0046.0046-.0092c.2165-.396.4421-.7829.677-1.1697.0046,0,.0046-.0046.0046-.0092,2.6939-4.536,6.226-8.6667,10.5501-12.1205.2441-.1934.4881-.3868.7368-.571l.0046-.0046.0875-.0645c.1105-.0875.2211-.1704.3316-.2487,4.0294-3.0071,8.372-5.1715,12.8158-6.5253.175-.0599.3592-.1105.5388-.1658.1105-.0322.2256-.0644.3362-.0967h.0092c.1059-.0276.2072-.0553.3085-.0829l.0046-.0046c.1335-.0368.2533-.0645.3776-.0921.1243-.0276.2441-.0599.3776-.0967-.0086.0041-.0163.0095-.0249.0137,4.5338-1.1328,9.1526-1.4371,13.619-.9208h.0046c.1335.0138.2671.0322.4006.0506.1842.023.3684.0461.5526.0691.1289.0184.2579.0368.3868.0599h.0046c.8473.1289,1.6901.2855,2.519.4789.3638.0783.7276.1658,1.0822.2625.571.1474,1.1375.3085,1.6993.4789.3408.1059.6815.2165,1.0177.3362.0184,0,.0368.0092.0506.0184,6.2398,2.1505,11.8948,6.0326,16.2834,11.5679.1566.1934.3177.3914.4697.594l.571.7691c.0967.1289.1888.2625.2763.3914,1.2388,1.7591,2.3071,3.6011,3.2143,5.503.8289,1.7361,1.5243,3.5275,2.0815,5.3557.1796.5848.3408,1.1743.4927,1.7683.0691.2441.129.4836.1842.7276.0184.0737.0368.1474.0506.221.0553.2487.1105.4974.1658.746.1059.5158.2072,1.0407.2947,1.5657.0691.4052.1428.8197.1888,1.2249.1013.7276.1796,1.4552.2394,2.1874.1658,1.9157.2026,3.8544.0967,5.7885Z" fill="url(#b)"/><path d="M153.9878,34.7796c-.4629-2.0318-1.4597-3.8226-2.9649-5.3318-1.7888-1.8443-4.2306-3.1006-7.2576-3.7339-2.8202-.5955-7.1852-.8853-13.3429-.8853-7.9804,0-13.3915.7366-16.544,2.2519-3.2779,1.5714-5.1224,4.5353-5.3324,8.5701l-.1005,1.9408h10.4305l.3726-1.3555c.185-.6727.5199-1.062,1.1197-1.3018.7849-.3165,3.1857-.8443,10.4964-.8443,4.3215,0,7.4048.19,9.1635.5648,1.4648.312,2.527.8591,3.1576,1.626.1012.1261.1844.2472.2484.362.3873.6724.8284,1.9191.9027,4.2244-.7913-.3528-1.6563-.6219-2.5916-.806-2.4501-.479-7.2204-.7116-14.5843-.7116-9.6334,0-12.6201.7928-14.0292,1.3891-2.2222.9671-3.8247,2.4099-4.7793,4.2953-.897,1.7861-1.3317,4.1263-1.3317,7.16,0,2.4807.2785,4.4111.8515,5.9016.6255,1.6129,1.7414,3.0004,3.3176,4.1289,1.5871,1.1754,3.7133,1.9166,6.4995,2.2658,2.5295.3161,6.9246.4764,13.0644.4764,5.6103,0,9.4151-.3061,11.6335-.9358.6825-.1938,1.3342-.4504,1.9533-.7683l-.0403,1.5865h10.2973v-20.869c0-3.9072-.1581-6.705-.4834-8.5532-.0346-.2137-.08-.4381-.1268-.6469ZM143.944,52.1545c0,1.807-.7388,2.3458-1.4623,2.6344-1.0423.4145-3.7216.9098-10.556.9098-10.5989,0-12.6329-.5647-13.0042-.7377-.5736-.2735-1.2465-.8289-1.2465-2.6568,0-1.4859.3483-2.4442,1.0359-2.8485.1376-.0785.8124-.387,2.8816-.58,1.6806-.15,4.7786-.2263,9.2006-.2263,7.246,0,10.1962.5345,11.3947.983,1.2491.4632,1.7561,1.1934,1.7561,2.5222Z" fill="#e65927"/><polygon points="162.5521 8.574 162.5521 9.1434 162.5521 63.0377 162.5521 64.8825 164.3972 64.8825 170.9966 64.8825 172.8417 64.8825 172.8417 63.0377 172.8417 9.1434 172.8417 8.574 162.5521 8.574" fill="#e65927"/><path d="M229.5372,34.4429c-1.0724-2.8735-3.0673-5.1908-5.9214-6.8673-1.8387-1.0606-4.0436-1.7651-6.7531-2.1614-2.5622-.368-6.1737-.5466-11.0451-.5466-5.7934,0-9.8056.3599-12.2667,1.1001-.7875.2404-1.5237.5445-2.2056.9108v-1.7202h-10.289v63.79h10.289v-25.9452c.7241.3725,1.5064.6787,2.3439.9167,2.4565.7039,6.2332,1.0466,11.5426,1.0466,7.1615,0,12.1213-.433,15.163-1.324,3.2754-.9573,5.9118-2.9556,7.8338-5.9392,1.8534-2.8755,2.7542-7.0537,2.7542-12.7732,0-3.9761-.3989-7.2532-1.1857-9.7402-.08-.2462-.1633-.4978-.2599-.747ZM220.3225,45.0797c0,2.7654-.2497,4.9051-.742,6.3596-.4366,1.2688-1.0807,2.1806-1.9668,2.7792-.5083.3363-1.5769.8081-3.7037,1.0931-1.8733.2571-4.842.3872-8.8274.3872-7.0444,0-9.8396-.7306-10.9446-1.3434l-.0141-.0078-.0141-.0076c-1.0032-.5336-1.7068-1.4115-2.1518-2.6839-.5275-1.5075-.7945-3.893-.7945-7.0905,0-2.6889.2484-4.7753.7388-6.2013.2119-.6038.4674-1.121.7772-1.5712.3342-.4915.7158-.8799,1.1729-1.1971.4866-.3275,1.5557-.7948,3.7651-1.0788,2.0058-.2578,5.196-.3885,9.4823-.3885,6.5367,0,9.1949.7267,10.2743,1.3365l.0166.0094.0166.0091c.6127.3292,1.0961.7583,1.4783,1.3116.2689.3863.4898.8283.6594,1.319.5167,1.474.7772,3.8156.7772,6.9654Z" fill="#e65927"/><path d="M285.7199,35.2404c-.4738-2.1249-1.4367-3.9706-2.8592-5.4781l-.0141-.015-.0141-.0146c-1.6915-1.714-4.011-2.9187-6.8952-3.5809-2.7197-.6228-6.4842-.9254-11.5099-.9254-5.9829,0-10.248.4283-13.0388,1.3093-.9763.3113-1.8694.706-2.6761,1.182V8.574h-10.2896v56.3086h10.2896v-18.5654c0-3.8943.1876-5.6115.3451-6.3662.1927-.9059.6089-1.7072,1.2702-2.4424.0359-.0402.0621-.0714.0896-.0988l.0154-.0156.0205-.0217c.8669-.9166,2.2312-1.6175,4.0558-2.0833,2.1083-.5316,5.2127-.8018,9.2218-.8018,3.5494,0,6.2178.1989,7.933.5913,1.4168.3293,2.4117.8367,2.9508,1.5065.1242.157.233.3135.3124.4496l.0154.0265.0166.026c.3745.5953.63,1.2922.7804,2.1304.2228,1.2244.3355,3.612.3355,7.0993v18.5654h10.296v-20.2902c0-3.9696-.1773-6.8501-.5416-8.8045-.032-.1947-.0704-.3748-.1095-.5474Z" fill="#e65927"/><path d="M339.8385,35.4356c-.0378-.2333-.0826-.4518-.128-.6556-.4526-2.0203-1.4501-3.8159-2.9661-5.3399-1.783-1.8354-4.2293-3.0945-7.2576-3.7266-2.8119-.5952-7.1756-.885-13.3352-.885-7.9778,0-13.3909.7363-16.5491,2.2512-3.2799,1.5763-5.1237,4.5399-5.3337,8.5708l-.1005,1.9408h10.4369l.3726-1.3556c.1857-.6747.5186-1.064,1.1127-1.3017.7856-.3165,3.187-.8443,10.5035-.8443,4.3215,0,7.4048.19,9.1635.5648,1.4642.312,2.527.8591,3.1576,1.626.0851.1064.169.231.242.362.3873.6722.8278,1.9186.9021,4.223-.79-.3516-1.655-.6203-2.591-.8046-2.4508-.479-7.2179-.7116-14.5779-.7116-9.6334,0-12.6201.7928-14.0292,1.3891-2.2325.9717-3.8362,2.4163-4.7825,4.301-.8982,1.7893-1.3355,4.1294-1.3355,7.1543,0,2.4692.2811,4.3996.8585,5.9016.6153,1.6066,1.7292,2.9968,3.3112,4.1291,1.5878,1.1758,3.7165,1.9169,6.5066,2.2657,2.5218.3161,6.9176.4764,13.0637.4764,5.6128,0,9.4164-.3063,11.6284-.9362.6825-.1938,1.3336-.4496,1.9514-.7661l-.0397,1.5846h10.3037v-20.869c0-3.9103-.1594-6.7054-.4885-8.5442ZM329.6666,52.1545c0,1.8093-.7356,2.3471-1.4559,2.6344-1.0423.4145-3.7216.9098-10.556.9098-10.5989,0-12.6329-.5646-13.0042-.7377-.5736-.2735-1.2465-.8289-1.2465-2.6568,0-2.2431.7747-2.6988,1.0295-2.8485.1799-.1016.8765-.3931,2.8874-.58,1.6755-.1501,4.7709-.2264,9.1949-.2264,7.2448,0,10.1994.5349,11.4024.9836,1.2427.4609,1.7484,1.1911,1.7484,2.5215Z" fill="#e65927"/><path d="M202.0352,84.7911c.2179.2487.462.5014.7351.758.2717.2566.5789.4857.9215.6878.3413.2021.7219.3656,1.142.4896.42.1247.8781.187,1.3769.187,1.0265,0,1.8272-.2336,2.4021-.7003.5749-.466.8624-1.096.8624-1.8889,0-.8552-.3255-1.4964-.9792-1.9243-.6524-.4279-1.5935-.7738-2.8221-1.0383-.6694-.1398-1.2759-.3341-1.8193-.5828-.5447-.2487-1.0147-.5598-1.4111-.9333s-.7036-.8046-.9215-1.2942c-.2179-.4903-.3268-1.0462-.3268-1.6683,0-.5749.1089-1.119.3268-1.6322s.5434-.9641.9792-1.3533c.4358-.3885.9805-.6996,1.6329-.9326.6537-.2336,1.4071-.3498,2.263-.3498.7613,0,1.4189.0814,1.9702.2448.5526.1634,1.0225.3616,1.4111.5946s.7009.4745.9333.7233c.2336.2487.4122.4509.5369.6064l-1.4925,1.3763c-.0932-.1089-.2336-.2527-.42-.4319-.1864-.1785-.424-.3531-.7114-.5244s-.6222-.315-1.0028-.4319c-.382-.1168-.8204-.1746-1.3179-.1746-.4988,0-.9254.0663-1.2837.1982-.357.1319-.6524.3032-.886.5132-.2336.2094-.4043.4469-.5132.7108-.1089.2652-.1628.529-.1628.7935,0,.3885.0814.7193.2441.991.1641.2724.4004.5132.7114.7233s.6957.3892,1.1551.5362c.4581.1483.9832.2921,1.5738.4319.5762.1398,1.1394.3229,1.692.548.5513.2258,1.0448.529,1.4806.9096.4358.3813.781.848,1.0383,1.3999.256.552.3846,1.224.3846,2.0175,0,.6688-.1391,1.2831-.42,1.8423-.2796.5598-.6642,1.0462-1.1538,1.4583s-1.0698.7311-1.7379.9562c-.6694.2251-1.3927.338-2.1698.338-.7311,0-1.3953-.0853-1.9939-.2566-.5986-.1706-1.1433-.3885-1.6329-.653-.4896-.2638-.9175-.5559-1.2824-.8749-.3662-.3183-.6655-.6333-.8991-.9444l1.587-1.4459Z" fill="#0f508d"/><path d="M225.1268,88.9659c-.8401,0-1.6093-.1516-2.3089-.4548s-1.3021-.7193-1.8075-1.2483c-.5054-.5283-.9018-1.1387-1.1892-1.8311-.2888-.6918-.4319-1.434-.4319-2.2275,0-.7928.1431-1.5351.4319-2.2275.2875-.6918.6839-1.3021,1.1892-1.8311.5054-.5283,1.1079-.9444,1.8075-1.2476s1.4688-.4548,2.3089-.4548c.8243,0,1.587.1516,2.2866.4548s1.3061.7193,1.8193,1.2476c.5132.529.9136,1.1394,1.2011,1.8311.2875.6924.4319,1.4347.4319,2.2275,0,.7935-.1444,1.5358-.4319,2.2275-.2875.6924-.6878,1.3028-1.2011,1.8311-.5132.529-1.1197.9451-1.8193,1.2483s-1.4623.4548-2.2866.4548ZM225.1268,87.146c.5605,0,1.0659-.1122,1.5161-.338.4515-.2251.8322-.5205,1.1433-.886s.5487-.7856.7114-1.2601c.1628-.4739.2455-.9595.2455-1.4577,0-.4817-.0827-.9602-.2455-1.4347-.1628-.4739-.4043-.8978-.7233-1.2706-.319-.3734-.6996-.6727-1.1433-.8985-.4424-.2251-.9438-.338-1.5043-.338-.5592,0-1.0645.1129-1.5161.338-.4515.2258-.8322.5211-1.1433.8867s-.5474.7849-.7114,1.2595c-.1628.4745-.2441.9602-.2441,1.4577,0,.4981.0814.9799.2441,1.4465.1641.466.4043.886.7233,1.2595.319.3728.6996.6727,1.1433.8978.4437.2258.9451.338,1.5043.338Z" fill="#0f508d"/><path d="M241.0581,79.4803h-1.9597v-1.7491h1.9597v-.8867c0-.7305.105-1.3645.315-1.9007.21-.5369.4896-.9759.8388-1.3179.3505-.3419.7508-.5946,1.2011-.758.4515-.1634.9254-.2448,1.4229-.2448.5762,0,1.1394.0893,1.692.2678.5513.1792,1.0606.4863,1.5279.9215l-1.0501,1.3533c-.5749-.4824-1.1892-.7233-1.8429-.7233-.6064,0-1.0921.1943-1.457.5828-.3662.3892-.5487,1.058-.5487,2.0063v.6996h3.1017v1.7491h-3.1017v9.4856h-2.0989v-9.4856Z" fill="#0f508d"/><path d="M256.5927,79.5576h-1.9597v-1.7491h1.9597v-3.5454h2.0989v3.5454h3.1726v1.7491h-3.1726v5.3417c0,.8709.1352,1.4695.4082,1.7963.2717.3262.6563.4896,1.1538.4896.4043,0,.739-.0617,1.0042-.1864.2638-.1247.5277-.3111.7928-.5598l.9556,1.2824c-.4502.4358-.9136.7508-1.3874.9451-.4752.1943-1.0383.2914-1.6907.2914-1.1512,0-1.9952-.3111-2.5307-.9333-.5369-.6215-.8046-1.5935-.8046-2.9153v-5.5517Z" fill="#0f508d"/><path d="M270.6646,78.1197h2.3102l2.4257,8.2807,2.6121-8.2807h1.7957l2.6134,8.3503,2.3785-8.3503h2.1698l-3.5927,10.8462h-2.0753l-2.5202-7.5804-2.4953,7.5804h-1.9597l-3.6622-10.8462Z" fill="#0f508d"/><path d="M302.2477,87.3566c-.4043.5441-.9372.9484-1.5975,1.2129-.6616.2638-1.3415.3964-2.0411.3964-.4515,0-.8978-.0584-1.3415-.1752-.4437-.1162-.848-.3104-1.2129-.5828-.3662-.2717-.6616-.6215-.886-1.0494-.2258-.4279-.3387-.9523-.3387-1.5745,0-1.1663.4082-2.0995,1.2247-2.7992s1.9939-1.0494,3.5336-1.0494c.2481,0,.5132.0079.7928.023.2796.0158.5447.0315.7928.0466.2494.0158.4673.0315.6537.0466.1864.0158.319.0315.3964.0466v-.3964c0-.8079-.2455-1.3874-.7351-1.7379-.4896-.3498-1.1538-.5244-1.9939-.5244-.8243,0-1.478.1129-1.9597.338-.4817.2258-.886.4548-1.2129.6885l-.9792-1.4229c.1864-.1555.4122-.3111.676-.4666.2652-.1555.5749-.2993.9333-.4319.357-.1319.7613-.2409,1.2129-.3262s.9713-.1286,1.5633-.1286c1.3993,0,2.4992.3387,3.2999,1.0147.8007.6767,1.2011,1.6368,1.2011,2.8812v6.3091c0,.3813.0079,1.0068.0236,1.2713h-1.9904l-.0153-1.6093ZM302.2241,83.531c-.0617-.0151-.1825-.0348-.361-.0584-.1798-.023-.3859-.0427-.6182-.0578-.2336-.0158-.483-.0315-.7469-.0473-.2652-.0151-.5211-.023-.7692-.023-.592,0-1.0698.0702-1.4347.21-.3662.1398-.6537.315-.8637.5244-.21.21-.3531.4437-.4305.7003-.0788.2566-.1168.5014-.1168.7344,0,.5913.2021,1.0383.6064,1.3415s.9635.4548,1.6788.4548c.4043,0,.7889-.0702,1.1551-.21.3649-.1398.6878-.3268.9674-.5598.2796-.2336.5054-.5054.6773-.8165.1706-.3111.256-.6301.256-.9562v-1.2365Z" fill="#0f508d"/><path d="M314.4583,79.8932v-1.1781c0-.3341-.0079-.6799-.0236-1.0376h2.0057l.0696,1.7491c.1247-.1864.2888-.3925.4909-.6176.2008-.2258.4463-.4319.7338-.6182.2875-.187.6222-.3459,1.0042-.4785.3807-.1319.8191-.1982,1.3179-.1982.2323,0,.4463.0158.6406.0466.1943.0315.3767.0781.5487.1398l-.4673,1.9597c-.2796-.1089-.6366-.1634-1.0724-.1634-.4515,0-.8676.086-1.2483.2566-.3807.1713-.7114.4082-.991.7114s-.5014.657-.6642,1.0613c-.1641.4043-.2455.8322-.2455,1.2831l-.0236,6.1567h-2.0989l.0236-9.0727Z" fill="#0f508d"/><path d="M339.9014,87.0287c-.1247.1405-.3111.319-.5592.5369-.2494.2179-.5723.4279-.9687.6294-.3964.2021-.8624.3774-1.3993.525s-1.1472.2218-1.8311.2218c-.8401,0-1.6093-.1405-2.3089-.42-.6996-.2802-1.2982-.6767-1.7957-1.1899-.4988-.5132-.8834-1.1269-1.1551-1.8423s-.4082-1.5082-.4082-2.3791c0-.7935.1326-1.5358.3964-2.2282.2638-.6911.6379-1.2903,1.1197-1.7957s1.054-.9057,1.7143-1.2011c.6616-.2953,1.3874-.4437,2.1816-.4437.932,0,1.7327.1792,2.4021.5369.6681.3577,1.2168.8322,1.6447,1.4229.4266.5907.7416,1.2673.9438,2.0293s.3032,1.5548.3032,2.3791h-8.5596c.0158.4817.1194.9254.315,1.3297.1943.4043.4542.7541.781,1.0494s.6996.529,1.1197.6996c.42.1713.8637.2566,1.3297.2566.9175,0,1.671-.1555,2.263-.4666.5907-.3111,1.0173-.6143,1.2824-.9096l1.1892,1.2595ZM338.0125,82.2474c-.063-.8401-.3583-1.5548-.886-2.1461-.529-.5907-1.2759-.8867-2.2393-.8867-.4988,0-.9451.086-1.3415.2566-.3964.1713-.7351.3971-1.0147.6767s-.4975.6025-.6537.9681c-.1549.3656-.2402.7429-.256,1.1315h6.3912Z" fill="#0f508d"/><path d="M84.8007,21.3161c.8359,1.2009,1.6178,2.4638,2.3262,3.7579l.1201-.0643c-2.0231-5.8562-5.9181-11.4401-10.9907-15.7491l-.9796-.8042-1.0077-.7628c-.7015-.5187-1.4046-1.005-2.087-1.4426-.6797-.4382-1.4147-.8992-2.1864-1.3067l-.0857-.0445c-.7168-.3739-1.4583-.7603-2.2067-1.0897-2.8778-1.3566-6.0904-2.3826-9.556-3.0516-5.721-1.1042-11.6892-1.0008-17.2603.2969l-.0012.0006-.0015-.006-.4262.0968-.0015-.0072c-.9566.226-1.915.4845-2.8584.7706-5.7001,1.7299-10.9937,4.4473-15.3092,7.8577l-1.2122.9653c-.5453.4328-1.0345.8259-1.5088,1.2574-1.8068,1.5357-3.5626,3.3287-5.5337,5.6488-1.8639,2.2107-3.3789,4.3096-4.6306,6.417-1.4753,2.4553-2.6577,4.7646-3.6161,7.0607-1.0109,2.382-1.8591,4.9149-2.5221,7.5307-.6245,2.4608-1.0844,5.0976-1.3666,7.8373-.2309,2.2414-.284,4.5525-.1625,7.0649.5358,11.056,4.5156,21.2278,11.2063,28.6431,6.9729,7.7285,16.2117,12.5574,26.0141,13.5967,9.0076.9533,18.4937-1.3638,26.0705-6.3665l-.1254-.2675c-8.6806,4.3463-18.9781,5.311-28.3059,2.6417-.8052-.2302-1.619-.4935-2.4191-.7814-9.3887-3.3816-17.2245-10.4495-22.0635-19.9l-.1126-.247c-.4405-.9683-.896-1.9697-1.2714-2.9927-.8335-2.1945-1.4942-4.4611-1.9624-6.7325-.4516-2.2774-.7338-4.6222-.8398-6.9717-.1111-2.2756-.0334-4.6372.2306-7.0192.9939-9.2576,4.7787-18.3385,10.6568-25.5675,1.5963-1.9577,3.1678-3.6268,4.8047-5.1018,1.9096-1.7365,3.7057-3.1574,5.4895-4.3439,1.9164-1.2971,3.9625-2.4602,6.0791-3.4561,2.012-.9467,4.1734-1.7611,6.4258-2.4223l-.0015-.021.161-.0234.3267-.0926-.0012-.0192.149-.0192v.0012c5.0251-1.3506,10.121-1.7467,15.1437-1.1751l.0003-.0006c.0263.0018.0508.0048.0735.009l.3691.0469c.2521.0313.5032.0625.7242.0998,11.2795,2.0707,20.3525,7.6894,26.2422,16.2492Z" fill="url(#c)"/><path d="M66.1208,56.6465c-.0976.0642-.1973.1246-.2955.1878.001.0081.0025.0163.0034.0244.0992-.0679.1935-.1433.2921-.2122Z" fill="none"/><path d="M66.0135,10.0703c-.0138-.0092-.0322-.0184-.0506-.0184-.3362-.1197-.677-.2303-1.0177-.3362,2.0032.7368,3.9742,1.6855,5.8806,2.869.0092,0,.0138-.0046.0184-.0046-1.5703-.9947-3.1867-1.8328-4.8307-2.5098Z" fill="url(#d)"/><path d="M82.145,53.8136c.9671-5.2405,1.2203-10.4903.8058-15.4821,3.1039.4052,5.457.1842,6.8523-.6171-.0553-.2486-.1105-.4973-.1657-.746-.0138-.0737-.0323-.1474-.0507-.2211-1.3631.8059-3.661,1.0316-6.7188.6355h-.0046c-.5111-4.9504-1.6946-9.6291-3.5367-13.7506,1.7039.2164,2.9703.0875,3.7025-.3777.046-.0322.0875-.0599.1289-.0921h.0046c.0645-.0507.1243-.1059.175-.1611l-.571-.7691c-.0553.0645-.1243.1244-.1934.1797h-.0046c-.0414.0322-.0736.0552-.1197.0829h-.0046c-.6862.4375-1.8834.571-3.4769.3592h-.0046c-1.5933-3.3433-3.6287-6.2998-6.1063-8.7128-.0137,0-.023-.0046-.0368-.0046,2.3854,2.3992,4.3241,5.3418,5.83,8.6713-1.2065-.1842-2.6203-.5433-4.2136-1.096-.5848-.2026-1.1743-.4283-1.7638-.6631.1704-2.8367.0138-5.2544-.4928-7.1056-.0138-.0046-.0322-.0092-.046-.0185.3822,1.8006.4053,4.163.1198,6.949-2.1828-.9118-4.3426-2.04-6.2859-3.2604,2.04-1.8742,3.8959-3.2604,5.4938-4.034-.0138-.0137-.0276-.0184-.0414-.0276-1.7039.7-3.6703,2.0171-5.8161,3.836-1.9204-1.225-3.6012-2.5282-4.8446-3.7715,3.4998-.7553,6.9214-.9487,10.1403-.4698-.0091-.0046-.0137-.0184-.0276-.0276-3.288-.548-6.7832-.4375-10.3475.2625-.6217-.6401-1.119-1.2664-1.4689-1.8559-.3224-.5434-.4974-1.0223-.5389-1.4322,4.1262.2211,8.22,1.0961,12.139,2.6755v-.023c-3.9236-1.6256-8.0266-2.542-12.1527-2.8091v-.0046c-.0092-.6908.3914-1.1789,1.1374-1.4368-.1289-.0231-.2578-.0414-.3868-.0599-.1842-.023-.3684-.046-.5525-.069-.7599.2901-1.1559.8012-1.1467,1.515,0,.0508,0,.1105.0092.1704.046.4375.2348.9487.5756,1.5243.3731.6263.9026,1.2894,1.5611,1.9755-4.3334.9486-8.745,2.7492-13.0139,5.2498h-.0046v-.0046c-1.2157-1.2618-2.1966-2.4821-2.8827-3.6426-.6309-1.0638-.9763-2.0032-1.0591-2.8137,4.7938-1.6394,9.8225-2.4361,14.819-2.2887-.0046-.0599-.0046-.1151-.0046-.1704-5.0057-.2025-10.0436.5435-14.8374,2.146-.0185-1.1973.8342-2.2584,1.9855-2.8064-.2625.0737-.4936.1226-.756.1917-1.2296.5572-2.1643,1.6799-2.1413,2.937.0046.1013.0092.2073.0184.3177.083.8335.4421,1.796,1.0914,2.8782.6999,1.1881,1.7085,2.4499,2.9518,3.7393.0782.0829.1566.1612.2302.2395-.0782-.0782-.1566-.1566-.2348-.2395-4.2504,2.5881-8.3443,5.8622-12.0468,9.689-1.6255-1.6808-2.9287-3.3202-3.8544-4.8628-.8428-1.4184-1.2987-2.6755-1.4138-3.7531,4.0017-3.3387,8.51-5.9359,13.2717-7.6905-.0045-.1105-.0137-.2118-.0184-.3177-4.7616,1.713-9.2699,4.2689-13.2764,7.5845-.0185-1.1421.6458-2.9738,1.4378-3.6738l-.4496.3386c-.8566.7184-1.7619,2.7826-1.7435,3.9799,0,.1381.0092.281.0276.4237.1105,1.0867.5756,2.3577,1.4276,3.7945.9256,1.5565,2.2472,3.2143,3.8913,4.9182.1013.1059.2025.2119.3039.3178-.1013-.1013-.2072-.2073-.3085-.3132-3.6472,3.8959-6.8937,8.3306-9.4956,13.1612-1.7867-1.8512-3.2189-3.6518-4.2228-5.3465-.9302-1.5611-1.4367-2.938-1.5611-4.1215,2.6157-4.8077,6.0234-8.9752,9.9607-12.4106-.0184-.1428-.023-.2856-.023-.4237-3.9327,3.4077-7.3451,7.5662-9.9607,12.3692-.0138-.6632.1842-3.0209.4098-3.6426-.2348.3868-.4605.7736-.6769,1.1697-.0045.0046-.0045.0091-.0045.0091v.0046c-.2119,1.2526-.3363,2.2887-.2395,3.4216-2.5005,4.8629-3.9695,9.9147-4.4899,14.9203,0-.0875.0046-.175.0046-.2624l-.0737.8012c-.0137.1382-.0137.2764-.0137.4191,0,.1381.0137.2763.0276.419.1105,1.0868.5756,2.3394,1.4184,3.7715.921,1.5519,2.2381,3.2006,3.8728,4.8952.2026.2025.4053.4144.6125.6217,3.288,3.2696,7.7088,6.7003,12.7513,9.9239-1.4367,3.9281-2.3394,7.3266-2.6986,10.0712-3.8912-2.4867-7.3082-5.13-9.8456-7.6582-.8473-3.6886-.9395-7.8608-.2072-12.3369-.2119-.2073-.4145-.4191-.6171-.6217-.6908,4.5083-.5618,8.7358.3546,12.4751-1.2618-1.3078-2.2749-2.5742-2.9887-3.7715-.3499-.5941-.6217-1.1467-.8058-1.6671l.2533.769c.1796.525.4466,1.0868.8058,1.69.6954,1.1697,1.69,2.413,2.9196,3.6886.5342,1.9341,1.2756,3.7347,2.2288,5.3649.0368.046.0737.0875.1105.1335.1289.1566.2624.3177.396.4743-.0046-.0092-.0092-.0138-.0138-.023-.9809-1.6532-1.7315-3.486-2.2565-5.48,2.4729,2.4683,5.8024,5.0425,9.6016,7.4786-.2073,1.8881-.1336,3.4307.221,4.5773.0185.0138.0323.0277.0507.0369.1474.0966.2993.1934.4467.2855.0046.0046.0138.0091.0185.0091-.2856-1.096-.281-2.5972-.0092-4.453,3.859,2.413,8.1509,4.6603,12.4888,6.4701-1.0913.9532-2.0998,1.6624-3.0208,2.1045.2624.0736.525.1381.7875.2025.9532-.4236,1.9801-1.0821,3.0623-1.9663,1.1651.4697,2.3302.9164,3.4952,1.3171,1.9618.6769,3.7946,1.2157,5.4801,1.6072.4052-.0277.8105-.0691,1.2203-.1198-1.8881-.4144-3.9695-1.0085-6.2168-1.7914-1.1927-.4098-2.3807-.8611-3.5781-1.3446,2.1321-1.8282,4.4853-4.4807,6.9444-7.8793h.0046c1.5519.6263,3.0946,1.2111,4.6373,1.7453,4.1951,1.4598,7.9344,2.4176,11.1211,2.9012-2.3117,2.1783-4.7386,3.9512-7.2252,5.2913.6263-.1658,1.2479-.35,1.8696-.5526.0046-.0046.0092-.0092.0138-.0092,2.1137-1.2434,4.1814-2.7861,6.1523-4.6189,1.1375.1474,2.1966.2302,3.1729.2533h.0184c.3086-.1934.5987-.3914.9026-.5987-1.05-.0092-2.2059-.0921-3.4492-.2579,3.3386-3.2419,6.3825-7.3128,8.9383-12.1526,2.7217.35,5.0334.3638,6.8754.0644.1934-.2946.3822-.5848.5664-.875.0185-.0276.0323-.0506.0507-.0782-1.865.3315-4.2228.3223-7.0043-.0414h-.0045c2.4729-4.8951,4.232-10.0942,5.282-15.3255-.1335-.0185-.2671-.0369-.4053-.0554.1335.0185.2718.0369.4053.0508,3.3755.4374,6.0741.3131,7.9483-.3363.0553-.2809.1105-.5618.1566-.8473.0046-.046.0092-.0967.0185-.1428,0-.0092.0046-.0231.0046-.0322-1.8559.6723-4.5498.8058-7.9391.3684ZM81.3391,53.6939c-3.1728-.4789-6.8937-1.4321-11.0659-2.8781-1.5381-.5388-3.0761-1.119-4.6143-1.7407,1.8881-4.9643,3.4584-9.8364,4.6373-14.3724h.0046c1.1743.4789,2.3624.921,3.5367,1.3355,3.2051,1.1098,6.0648,1.842,8.4917,2.2105.3362,4.978.0185,10.2185-.9901,15.4452ZM32.6592,69.2774c1.5473-3.9558,3.6012-8.4319,6.1247-13.2856,5.5905,3.4906,11.812,6.751,18.107,9.3805-2.542,4.8399-5.0839,9.0719-7.4878,12.581-5.8161-2.4361-11.5725-5.4386-16.7393-8.6713h-.0046v-.0046ZM57.3699,64.4421c-6.2951-2.6295-12.5073-5.8806-18.0978-9.3759h-.0046c2.565-4.8583,5.3694-9.6338,8.2568-14.1283h.0046c5.1392,3.2097,10.8725,6.2076,16.6564,8.6299-1.994,4.9504-4.2919,9.9928-6.8155,14.8742ZM48.0769,40.0814h-.0046c2.892-4.4578,5.8577-8.6161,8.7358-12.2816,3.9096,2.4452,8.2522,4.7156,12.65,6.5576-1.2801,4.4853-2.938,9.3298-4.8905,14.2664-5.7287-2.3947-11.4021-5.3557-16.4907-8.5423ZM74.5006,22.4164c1.6993.5895,3.2051.9763,4.49,1.1697,1.7407,4.1124,2.8321,8.7681,3.265,13.7139-2.3762-.3592-5.1577-1.073-8.2845-2.1597-1.1466-.4007-2.2979-.8289-3.4538-1.3033h-.0045c1.1236-4.4853,1.8511-8.6068,2.1137-12.125.6309.2533,1.2526.4881,1.8742.7045ZM65.4932,18.0601c2.063,1.2895,4.3702,2.4914,6.6957,3.4676-.4053,3.4584-1.2572,7.5339-2.4867,11.9777-4.2872-1.7914-8.5331-4.011-12.3415-6.3964h-.0046c2.8597-3.5919,5.6274-6.682,8.1325-9.0489h.0046ZM59.9487,13.8096v-.0046c1.3308,1.3217,3.1176,2.7031,5.1484,4.0063-2.6295,2.2979-5.5031,5.305-8.4595,8.8463-3.7531-2.4038-7.0503-4.955-9.4956-7.3956,4.2136-2.5559,8.5516-4.4256,12.8066-5.4524ZM46.3316,19.7593h.0046c2.5052,2.5006,5.8853,5.1162,9.7305,7.5753-2.9703,3.6058-6.0049,7.7134-8.9568,12.1389-5.0194-3.2097-9.4173-6.6175-12.6822-9.8732,3.661-3.859,7.7134-7.1884,11.904-9.8409ZM33.7322,30.3463h.0046c3.2972,3.288,7.7456,6.7326,12.8112,9.9746-2.9288,4.4623-5.7701,9.2147-8.3305,14.0776-5.5077-3.5229-10.343-7.2576-13.9257-10.8403,2.5973-4.8306,5.8254-9.2792,9.4404-13.2119ZM14.276,53.0676c-.8612-1.4413-1.3309-2.717-1.4414-3.8083v-.0231c.525-4.978,2.0032-10.0297,4.5083-14.8927.0185.1381.0415.2763.0645.419.2256,1.3171.8197,2.5512,1.492,3.6932,1.0086,1.6946,2.4453,3.4952,4.232,5.3465-2.5143,4.8676-4.1491,9.6706-4.9458,14.2111-1.6486-1.7084-2.984-3.3755-3.9096-4.9458ZM18.8073,58.6443l-.0045-.0046c.8334-4.5129,2.482-9.2883,4.9918-14.1559,3.5965,3.5781,8.4272,7.3174,13.9349,10.8403-2.5282,4.8537-4.5498,9.3482-6.0511,13.3316-5.0886-3.2465-9.5554-6.7049-12.8711-10.0114ZM42.247,86.5877c-4.4439-1.8605-8.8463-4.1537-12.7928-6.6266.4513-2.6848,1.4322-6.0372,2.9104-9.9331h.0046c5.1208,3.2005,10.8172,6.1754,16.5736,8.5838-2.3993,3.4216-4.6695,6.1109-6.6957,7.976ZM66.4234,83.1017c-3.2143-.4881-6.9905-1.4552-11.2271-2.9242-1.5611-.5434-3.1222-1.1329-4.6879-1.7683,2.4637-3.4861,5.0379-7.6997,7.5798-12.5488,1.6901.6862,3.3848,1.3308,5.0656,1.911,4.5867,1.5888,8.6759,2.6387,12.1481,3.1683-2.5604,4.84-5.5859,8.9154-8.8785,12.162ZM75.7855,70.0095c-3.486-.525-7.5661-1.5703-12.1527-3.1682-1.6808-.5802-3.3708-1.2203-5.0609-1.9019h-.0046c2.5236-4.886,4.78-9.9423,6.7233-14.9157h.0046c1.5565.6263,3.113,1.2157,4.6557,1.7545,4.2228,1.4644,7.9852,2.4269,11.1857,2.9104-1.0914,5.2267-2.8736,10.4258-5.3511,15.3209Z" fill="url(#e)"/><path d="M78.5899,79.7216c-2.3348,2.6709-7.299,6.3273-11.31,7.7779,1.4552-3.2097,2.8551-7.1102,2.8551-14.3539,0-1.8236.0184-4.209-.0783-5.2497,1.2296-.8197,2.4269-1.6716,3.5781-2.5098,1.8558-1.3216,5.1116-4.4254,5.4616-4.8491.5112,5.3649.7783,11.3745-.5065,19.1846Z" fill="url(#f)"/><path d="M76.7986,48.4211c-.921.9532-1.8743,1.8927-2.8597,2.7907-.9947.9072-2.0308,1.773-3.1038,2.5926-.7368.5664-1.492,1.1006-2.2518,1.6348-2.3532-11.0705-11.9731-20.4372-17.6419-24.8396-.0092.0046-.0138.0092-.0184.0138-2.6479-2.6893-7.9161-7.0319-11.8442-3.9327,2.2979-2.786,4.8123-5.1162,7.4694-6.728h.0046c3.2419-1.971,7.101.8473,8.5516,1.9065,4.5129,3.2972,14.6394,12.9632,20.0458,23.0897l.0092-.0046s.0599.1197.1704.35c.5204.9993,1.05,2.1275,1.469,3.1268Z" fill="url(#g)"/><path d="M42.8502,73.4311c.1566.1013.3177.2072.4789.3086-.1888-.1105-.3684-.2303-.5434-.3454-.1105-.0737-.221-.152-.327-.2256.129.0875.2579.1796.3914.2625Z" fill="url(#h)"/><path d="M47.3861,75.7843c-.0138.0046-.023.0046-.0368.0046-.0276-.0138-.0553-.023-.0783-.0368.0138,0,.023,0,.0322-.0046.0276.0138.0553.0276.0829.0368Z" fill="url(#i)"/><path d="M36.4261,61.3567c-.0368.6079-.0506,1.2111-.0184,1.8144.0184.327.046.6539.1013.9763.0368.2118.0737.4237.1151.6355.0138.0783.0322.1566.0507.2349v.0046c.1335.6539.3131,1.3032.5572,1.9249.4421,1.1144,1.073,2.1459,1.8236,3.0808.3315.4098.6861.8013,1.0592,1.1743.175.1704.3546.3454.5434.5204.0737.0645.1428.1289.2164.198.129.1105.2625.2256.4006.3408.0967.0829.198.1612.3039.2487.1428.1151.2947.2257.4467.3408.0184.0184.0415.0322.0599.046.1243.0921.2441.1842.373.2717.1059.0737.2165.1519.327.2256.175.1151.3546.2349.5434.3454.4743.2993.9809.5848,1.5197.8704.746.396,1.5657.7736,2.4545,1.1374-.0092.0046-.0184.0046-.0322.0046.023.0138.0506.023.0783.0368h-.0138c-3.0393.4098-5.7932.4559-8.2522.1105-3.4215-.4789-6.2767-1.6809-8.5377-3.6058-2.8045-2.39-4.3057-6.0464-4.4623-10.8633-.327-10.0114,5.0379-25.1159,12.9954-34.7496,3.9281-3.0992,9.1963,1.2434,11.8442,3.9327-.7322.5941-1.4183,1.2341-2.0723,1.9111-.6861.7092-1.3308,1.4552-1.9387,2.2288-.6355.8013-1.2296,1.6302-1.796,2.4775-.5802.8704-1.1282,1.7637-1.644,2.6755-.525.921-1.0223,1.8605-1.492,2.8137-.4697.9486-.9118,1.9157-1.3309,2.892-.4099.9579-.7967,1.9295-1.1605,2.9104-.35.9486-.6816,1.9111-.9855,2.8735-.2901.921-.5618,1.8466-.8059,2.7814-.2303.8704-.4375,1.7453-.6171,2.6249-.1658.8013-.3085,1.6072-.4283,2.413-.1013.7138-.1796,1.4276-.2256,2.1414Z" fill="url(#j)"/><path d="M90.4525,43.7839c-.4329,1.0868-.8934,2.1552-1.3953,3.1913-2.5005,5.1254-5.9359,9.6153-9.9929,13.4789,0,.0046-.0092.023-.0322.0461-.35.4237-3.6058,3.5275-5.4616,4.8491-1.1513.8381-2.3486,1.6901-3.5781,2.5098-.1013.0737-.2072.1428-.3131.2118-5.3419,3.0485-11.7244,5.2866-15.1322,6.2306-2.542.7092-4.9228,1.1973-7.1608,1.5012-.0138-.0046-.023-.0092-.0368-.0138-.0276-.0138-.0553-.023-.0783-.0368.0138,0,.023,0,.0322-.0046.0046.0046.0138,0,.0184,0-.8934-.3638-1.7177-.746-2.4729-1.1374-.5388-.2855-1.0453-.571-1.5197-.8704-.1888-.1105-.3684-.2303-.5434-.3454-.1105-.0737-.221-.152-.327-.2256-.1289-.0875-.2487-.1796-.373-.2717-.0184-.0138-.0414-.0276-.0599-.046-.1519-.1151-.3039-.2257-.4467-.3408-.1059-.0875-.2072-.1658-.3039-.2487-.1381-.1151-.2717-.2303-.4006-.3408-.0737-.0691-.1428-.1335-.2164-.198-.1888-.175-.3684-.35-.5434-.5204-.373-.373-.7276-.7645-1.0592-1.1743-.7506-.9348-1.3815-1.9664-1.8236-3.0808-.2441-.6217-.4237-1.271-.5572-1.9249v-.0046c0-.0046.0046-.0046.0046-.0046.7691.396,2.6709.8381,5.9543.5894,3.9327-.3131,8.2661-1.4506,12.2402-2.915,0,0,3.4123-1.3401,5.084-2.1183.1566-.0644.2993-.1335.4375-.2118.7368-.35,1.4828-.7184,2.1966-1.1052.1197-.0645.2395-.1289.3684-.198.4467-.2487.8888-.502,1.317-.7506,1.2111-.7,2.321-1.5473,3.4538-2.3486.2625-.1842.525-.3684.7875-.5526.7598-.5342,1.515-1.0684,2.2519-1.6348,1.073-.8197,2.1091-1.6855,3.1038-2.5926.9855-.898,1.9387-1.8374,2.8597-2.7907.0092-.0092.0138-.0138.023-.023.0875-.1013.175-.2165.2625-.3177,1.9019-2.192,3.5781-4.605,4.9504-7.2299,1.9848-3.8314,4.8445-9.2884,5.5261-13.4099,2.3578,2.3762,4.5267,9.4634,2.9564,16.3801Z" fill="url(#k)"/><path d="M47.3861,75.7843c-.0184.0046-.0322.0046-.0506.0046-1.7729-.723-3.2512-1.5243-4.4853-2.3578,1.2479.8289,2.7446,1.6256,4.536,2.3532Z" fill="url(#l)"/></svg>