<?xml version="1.0" encoding="UTF-8"?><svg id="a" xmlns="http://www.w3.org/2000/svg" xmlns:xlink="http://www.w3.org/1999/xlink" viewBox="0 0 161 46"><defs><radialGradient id="b" cx="29.19259" cy="14.97" fx="29.19259" fy="14.97" r="22.99922" gradientTransform="translate(52.89433 -6.90154) rotate(112.14518) scale(1 .91575)" gradientUnits="userSpaceOnUse"><stop offset=".04835" stop-color="#acd6f2"/><stop offset=".24491" stop-color="#60bcea"/><stop offset=".44084" stop-color="#1ba5e2"/><stop offset=".53179" stop-color="#009ce0"/><stop offset=".61957" stop-color="#0099dc"/><stop offset=".6944" stop-color="#0091d2"/><stop offset=".76428" stop-color="#0084c0"/><stop offset=".76941" stop-color="#0083bf"/><stop offset=".80319" stop-color="#0076b0"/><stop offset=".88219" stop-color="#005e93"/><stop offset=".95053" stop-color="#004f81"/><stop offset="1" stop-color="#004a7b"/></radialGradient><radialGradient id="c" cx="32.01538" cy="1.97387" fx="32.01538" fy="1.97387" r="35.82974" gradientTransform="translate(58.95926 52.23724) rotate(-140.25672) scale(.969 .7451) skewX(.27153)" gradientUnits="userSpaceOnUse"><stop offset=".02305" stop-color="#d5411f"/><stop offset=".67189" stop-color="#d5411f"/><stop offset=".74893" stop-color="#d6451f"/><stop offset=".82746" stop-color="#dc511f"/><stop offset=".90668" stop-color="#e5651f"/><stop offset=".98593" stop-color="#f2821f"/><stop offset="1" stop-color="#f5881f"/></radialGradient><radialGradient id="d" cx="32.25529" cy="13.70574" fx="32.25529" fy="13.70574" r="25.02423" gradientUnits="userSpaceOnUse"><stop offset=".42556" stop-color="#0083bf"/><stop offset=".49627" stop-color="#0076b0"/><stop offset=".66163" stop-color="#005e93"/><stop offset=".80468" stop-color="#004f81"/><stop offset=".90822" stop-color="#004a7b"/></radialGradient><radialGradient id="e" cx="32.0175" cy="15.60488" fx="32.0175" fy="15.60488" r="31.35012" xlink:href="#d"/><radialGradient id="f" cx="32.01844" cy="15.60523" fx="32.01844" fy="15.60523" r="31.35128" xlink:href="#d"/><radialGradient id="g" cx="32.01807" cy="15.56046" fx="32.01807" fy="15.56046" r="31.19521" xlink:href="#d"/><radialGradient id="h" cx="32.05375" cy="15.56972" fx="32.05375" fy="15.56972" r="31.22242" xlink:href="#d"/><radialGradient id="i" cx="32.81604" cy="15.43079" fx="32.81604" fy="15.43079" r="30.55404" xlink:href="#d"/><radialGradient id="j" cx="30.38858" cy="16.18239" fx="30.38858" fy="16.18239" r="30.35772" xlink:href="#d"/><radialGradient id="k" cx="31.2394" cy="15.77953" fx="31.2394" fy="15.77953" r="31.12217" xlink:href="#d"/><radialGradient id="l" cx="31.54113" cy="14.75055" fx="31.54113" fy="14.75055" r="32.51605" xlink:href="#d"/><radialGradient id="m" cx="31.72631" cy="15.38723" fx="31.72631" fy="15.38723" r="31.45563" xlink:href="#d"/><radialGradient id="n" cx="31.84847" cy="15.58781" fx="31.84847" fy="15.58781" r="30.98234" xlink:href="#d"/><radialGradient id="o" cx="31.95475" cy="15.59405" fx="31.95475" fy="15.59405" r="31.0627" xlink:href="#d"/><linearGradient id="p" x1="25.14851" y1="9.40815" x2="31.10145" y2="41.47958" gradientUnits="userSpaceOnUse"><stop offset="0" stop-color="#d5411f"/><stop offset=".17472" stop-color="#e25e1f"/><stop offset=".38587" stop-color="#ef7c1f"/><stop offset=".50526" stop-color="#f5881f"/><stop offset=".61874" stop-color="#f3831f"/><stop offset=".73911" stop-color="#ed761f"/><stop offset=".86267" stop-color="#e3611f"/><stop offset=".98774" stop-color="#d6441f"/><stop offset="1" stop-color="#d5411f"/></linearGradient><linearGradient id="q" x1="29.01849" y1="8.53619" x2="35.02377" y2="40.88959" xlink:href="#p"/><linearGradient id="r" x1="19.38999" y1="35.10121" x2="19.80377" y2="35.10121" gradientUnits="userSpaceOnUse"><stop offset=".16167" stop-color="#d5411f"/><stop offset=".27868" stop-color="#df571f"/><stop offset=".44631" stop-color="#eb721f"/><stop offset=".59618" stop-color="#f2821f"/><stop offset=".71233" stop-color="#f5881f"/><stop offset="1" stop-color="#f5881f"/></linearGradient><linearGradient id="s" x1="21.67781" y1="36.20132" x2="21.73254" y2="36.20132" xlink:href="#r"/><linearGradient id="t" x1="17.24803" y1="38.33245" x2="17.6494" y2="12.60829" gradientUnits="userSpaceOnUse"><stop offset=".16167" stop-color="#d5411f"/><stop offset=".37962" stop-color="#e05a1f"/><stop offset=".71233" stop-color="#f5881f"/><stop offset="1" stop-color="#f5881f"/></linearGradient><linearGradient id="u" x1="16.64026" y1="24.71302" x2="42.4605" y2="24.71302" gradientUnits="userSpaceOnUse"><stop offset="0" stop-color="#f5881f"/><stop offset=".21341" stop-color="#f2821f"/><stop offset=".47104" stop-color="#ec741f"/><stop offset=".75025" stop-color="#e15b1f"/><stop offset=".99032" stop-color="#d5411f"/></linearGradient><linearGradient id="v" x1="19.57609" y1="35.65071" x2="22.02602" y2="35.65071" gradientUnits="userSpaceOnUse"><stop offset="0" stop-color="#f5881f"/><stop offset=".20869" stop-color="#f3831f"/><stop offset=".43217" stop-color="#ed761f"/><stop offset=".66251" stop-color="#e3611f"/><stop offset=".89626" stop-color="#d6431f"/><stop offset=".91464" stop-color="#d5411f"/></linearGradient></defs><path d="M72.41221,16.71488c-.22006-.96595-.69396-1.81731-1.40953-2.53482-.85041-.87681-2.01127-1.47406-3.45033-1.77516-1.34075-.2831-3.41593-.42087-6.34335-.42087-3.79396,0-6.36648.35018-7.8652,1.07058-1.55837.74707-2.43526,2.15611-2.53509,4.07432l-.04779.92266h4.95878l.17714-.64443c.08796-.31982.24715-.50491.53234-.6189.37316-.15047,1.51454-.40139,4.99013-.40139,2.05449,0,3.52033.09032,4.35643.26849.6964.14834,1.20134.40843,1.50115.77302.04809.05996.08766.11752.1181.17208.18414.31966.39385.91238.42916,2.00834-.3762-.16771-.7874-.29566-1.23209-.3832-1.16482-.22771-3.43267-.33831-6.93352-.33831-4.57984,0-5.99972.37692-6.66964.6604-1.05646.45979-1.8183,1.14568-2.27211,2.04205-.42642.84915-.63309,1.9617-.63309,3.40395,0,1.17935.1324,2.0971.40481,2.80571.29737.76678.82788,1.42642,1.57724,1.96291.75453.55878,1.76534.91117,3.08995,1.0772,1.20256.15028,3.29205.22649,6.21095.22649,2.66718,0,4.47605-.14553,5.53069-.44487.32446-.09215.6343-.21412.92863-.36528l-.01918.75423h4.89547v-9.92136c0-1.85753-.07518-3.18762-.2298-4.06629-.01644-.10158-.03805-.20826-.06027-.30756ZM67.63727,24.97511c0,.85908-.35124,1.11521-.69518,1.25244-.49551.19708-1.7693.43255-5.01843.43255-5.03883,0-6.00581-.26845-6.18234-.35071-.27271-.13004-.59261-.39408-.59261-1.26309,0-.7064.16558-1.162.49247-1.35421.06544-.03732.38624-.18399,1.36996-.27576.79897-.0713,2.27181-.10759,4.37409-.10759,3.44485,0,4.84738.25411,5.41716.46732.59382.22021.83488.56734.83488,1.19906Z" fill="#e85c21"/><polygon points="76.48375 4.25641 76.48375 4.52711 76.48375 30.14908 76.48375 31.02615 77.36094 31.02615 80.49838 31.02615 81.37557 31.02615 81.37557 30.14908 81.37557 4.52711 81.37557 4.25641 76.48375 4.25641" fill="#e85c21"/><path d="M108.32926,16.55478c-.50982-1.36608-1.45823-2.46779-2.81511-3.26478-.87415-.50423-1.92239-.83915-3.21048-1.02755-1.21808-.17497-2.93503-.25985-5.25097-.25985-2.75423,0-4.66171.17109-5.83171.52298-.37437.11429-.7244.25887-1.04855.433v-.8178h-4.89151v30.32652h4.89151v-12.33466c.34424.1771.71618.32267,1.11429.43582,1.16786.33465,2.96334.49757,5.48747.49757,3.40467,0,5.76262-.20587,7.20867-.62943,1.55715-.45511,2.81054-1.40512,3.72426-2.82355.88115-1.36703,1.3094-3.35342,1.3094-6.07254,0-1.89028-.18962-3.44823-.56369-4.63059-.03805-.11703-.07761-.23665-.12357-.35512ZM103.94848,21.61164c0,1.31472-.1187,2.33196-.35276,3.02345-.20758.60318-.51377,1.03668-.93502,1.32127-.24167.15987-.74966.38419-1.76077.51967-.89058.12224-2.30194.18407-4.19664.18407-3.34897,0-4.67785-.34732-5.20319-.63868l-.0067-.00373-.0067-.00361c-.47695-.25369-.81145-.67106-1.02298-1.27595-.2508-.71667-.37772-1.85079-.37772-3.37089,0-1.27835.1181-2.27025.35124-2.94819.10075-.28706.22219-.53295.3695-.74696.15888-.23364.34028-.41832.5576-.56909.23132-.15568.73962-.37784,1.78999-.51286.95359-.12255,2.47026-.18468,4.50801-.18468,3.10761,0,4.37135.3455,4.88451.63537l.00791.00445.00791.00434c.29128.15652.52108.36049.70279.62354.12783.18365.23284.39378.3135.62708.24563.70077.3695,1.81396.3695,3.31142Z" fill="#e85c21"/><path d="M135.03916,16.93395c-.22523-1.0102-.683-1.88766-1.35931-2.60437l-.0067-.00711-.0067-.00696c-.80414-.81483-1.90687-1.38758-3.27805-1.70241-1.29296-.29607-3.08265-.43997-5.47194-.43997-2.84433,0-4.87203.20362-6.19878.62243-.46416.148-.88876.33564-1.27226.56194V4.25641h-4.89182v26.76974h4.89182v-8.8262c0-1.8514.08918-2.66776.16405-3.02657.09162-.43068.28945-.81164.60387-1.16113.01704-.0191.02952-.03394.04261-.04695l.0073-.00742.00974-.01031c.41212-.43578,1.06073-.76899,1.92818-.99042,1.00229-.25274,2.47817-.38118,4.38413-.38118,1.68742,0,2.95603.09458,3.77144.28112.67357.15656,1.14656.39777,1.40284.71622.05905.07465.11079.14903.14853.21374l.0073.01259.00791.01236c.17806.28303.2995.61433.37103,1.01283.10592.58211.15949,1.71717.15949,3.37511v8.8262h4.89486v-9.64621c0-1.8872-.08431-3.2566-.2575-4.18576-.01522-.09257-.03348-.17821-.05205-.26024Z" fill="#e85c21"/><path d="M160.76777,17.02674c-.01796-.1109-.03926-.21481-.06087-.31167-.21519-.96047-.6894-1.81411-1.41014-2.53863-.84767-.87259-2.01066-1.47117-3.45033-1.77166-1.33679-.28295-3.41137-.42075-6.3397-.42075-3.79274,0-6.36618.35006-7.86763,1.07024-1.55928.74939-2.43586,2.15832-2.5357,4.07466l-.04779.92266h4.96182l.17714-.64446c.08827-.32077.24654-.50582.52899-.61886.37346-.15047,1.51515-.40139,4.99348-.40139,2.05449,0,3.52033.09032,4.35643.26849.69609.14834,1.20134.40843,1.50115.77302.04048.05056.08035.10984.11505.17208.18414.31959.39355.91212.42886,2.00766-.37559-.16714-.78679-.2949-1.23178-.38252-1.16512-.22771-3.43146-.33831-6.93048-.33831-4.57984,0-5.99972.37692-6.66964.6604-1.06133.46196-1.82378,1.14873-2.27364,2.04475-.42703.85064-.63491,1.96318-.63491,3.40125,0,1.17387.13362,2.09162.40816,2.80567.2925.76381.8221,1.42471,1.5742,1.96303.75483.55901,1.76686.91132,3.0933,1.07712,1.19891.15028,3.28871.22649,6.21065.22649,2.6684,0,4.47666-.1456,5.52825-.44506.32446-.09215.634-.21374.92772-.36422l-.01887.75335h4.89851v-9.92136c0-1.85901-.07579-3.18781-.23223-4.06199ZM155.93195,24.97511c0,.86015-.34972,1.11582-.69213,1.25244-.49551.19708-1.7693.43255-5.01843.43255-5.03883,0-6.00581-.26842-6.18234-.35071-.27271-.13004-.59261-.39408-.59261-1.26309,0-1.06639.36829-1.28303.48943-1.35421.08553-.04828.41668-.18688,1.3727-.27572.79653-.07134,2.26816-.10763,4.37135-.10763,3.44424,0,4.8489.2543,5.42081.46762.59078.21911.83123.56624.83123,1.19876Z" fill="#e85c21"/><path d="M95.2545,40.49092c.10359.11826.21966.23838.34946.36038.12918.122.2752.23089.43807.327.16225.0961.34322.17379.54291.23277.19969.05928.41748.08893.65461.08893.488,0,.86866-.11108,1.14199-.33292.27333-.22153.40999-.52107.40999-.89799,0-.40656-.15476-.7114-.46553-.91484-.31015-.20344-.75758-.36787-1.34168-.49361-.31826-.06646-.60656-.15882-.86492-.27707-.25898-.11826-.48238-.26615-.67084-.44369s-.33448-.38253-.43807-.6153c-.10359-.23308-.15539-.49736-.15539-.79315,0-.27333.0518-.53199.15539-.77599s.25835-.45836.46553-.64338c.20718-.18471.46616-.33261.7763-.44338.31077-.11108.66897-.16631,1.07584-.16631.36194,0,.67458.03869.93668.11638.26272.07769.48612.17192.67084.28269s.33324.22559.44369.34384c.11108.11826.19595.21436.25523.28831l-.70953.6543c-.04431-.0518-.11108-.12013-.19969-.20531-.08861-.08487-.20156-.16787-.33823-.2493s-.29579-.14977-.47676-.20531c-.18159-.05554-.39002-.083-.62653-.083-.23713,0-.43995.03151-.61031.09423-.16974.06272-.31015.14415-.42122.244-.11108.09953-.1922.21248-.244.33792-.0518.12606-.07738.25149-.07738.37723,0,.18471.03869.34197.11607.47115.078.12949.19033.244.33823.34384s.33074.18503.54915.25492c.21779.07052.4674.13885.74822.20531.27395.06646.54166.15351.80438.26054.2621.10733.49673.25149.70391.43246.20718.18128.3713.40313.49361.66554.12169.26241.18284.58191.18284.95914,0,.31795-.06615.61-.19969.87584-.13292.26615-.31576.49736-.54853.69331s-.50859.34759-.82622.45461c-.31826.10702-.6621.16069-1.03153.16069-.34759,0-.66335-.04056-.94791-.122-.28456-.08112-.54354-.18471-.7763-.31046-.23277-.12543-.4362-.26428-.60968-.41592-.17411-.15133-.31639-.3011-.42747-.44899l.75446-.68738Z" fill="#0c4f94"/><path d="M106.23249,42.47567c-.39938,0-.76507-.07208-1.09768-.21623s-.61904-.34197-.8593-.59346c-.24025-.25117-.42871-.54135-.56538-.87053-.13729-.32887-.20531-.68176-.20531-1.05899,0-.37692.06802-.72981.20531-1.05899.13666-.32887.32512-.61904.56538-.87053.24025-.25117.52669-.44899.8593-.59315s.6983-.21623,1.09768-.21623c.3919,0,.75446.07208,1.08707.21623s.62092.34197.86492.59315c.244.25149.43433.54166.57099.87053.13666.32918.20531.68207.20531,1.05899,0,.37723-.06864.73012-.20531,1.05899-.13666.32918-.327.61936-.57099.87053-.244.25149-.5323.44931-.86492.59346s-.69518.21623-1.08707.21623ZM106.23249,41.61044c.26646,0,.50672-.05336.72076-.16069.21467-.10702.39564-.24743.54354-.42122s.26085-.37349.33823-.59908c.07738-.22528.11669-.45617.11669-.69299,0-.22902-.03931-.45648-.11669-.68207-.07738-.22528-.1922-.42684-.34384-.60407-.15164-.17754-.33261-.31982-.54354-.42715-.2103-.10702-.44868-.16069-.71515-.16069-.26584,0-.50609.05367-.72076.16069-.21467.10733-.39564.24774-.54354.42154s-.26022.37317-.33823.59876c-.07738.22559-.11607.45648-.11607.69299,0,.23682.03869.46584.11607.68769.078.22153.1922.42122.34384.59876.15164.17723.33261.31982.54354.42684.21092.10733.44931.16069.71515.16069Z" fill="#0c4f94"/><path d="M113.80643,37.96609h-.93169v-.83153h.93169v-.42154c0-.34728.04992-.64869.14977-.90361.09985-.25523.23277-.46397.39876-.62653.16662-.16256.35695-.28269.57099-.36038.21467-.07769.43995-.11638.67646-.11638.27395,0,.54166.04243.80438.1273.2621.08518.50422.23121.72638.43807l-.49923.64338c-.27333-.22933-.56538-.34384-.87615-.34384-.28831,0-.5192.09236-.69268.27707-.17411.18503-.26085.50297-.26085.95384v.33261h1.4746v.83153h-1.4746v4.50958h-.99784v-4.50958Z" fill="#0c4f94"/><path d="M121.19177,38.00286h-.93169v-.83153h.93169v-1.68552h.99784v1.68552h1.5083v.83153h-1.5083v2.53952c0,.41405.06428.69861.19408.85399.12918.15507.31202.23277.54853.23277.1922,0,.35133-.02933.47739-.08861.12543-.05928.25086-.1479.37692-.26615l.4543.60968c-.21404.20718-.43433.35695-.65961.44931-.2259.09236-.49361.13854-.80376.13854-.54728,0-.94854-.1479-1.20314-.44369-.25523-.29548-.38253-.75758-.38253-1.38599v-2.63936Z" fill="#0c4f94"/><path d="M127.88172,37.31925h1.09831l1.15322,3.93674,1.24183-3.93674h.85368l1.24246,3.96981,1.13075-3.96981h1.03153l-1.70799,5.15642h-.9866l-1.19815-3.60381-1.18629,3.60381h-.93169l-1.74106-5.15642Z" fill="#0c4f94"/><path d="M142.89667,41.7106c-.1922.25866-.44556.45087-.75945.57661-.31451.12543-.63777.18846-.97038.18846-.21467,0-.42684-.02777-.63777-.08331-.21092-.05523-.40313-.14758-.57661-.27707-.17411-.12918-.31451-.29548-.42122-.49892-.10733-.20344-.161-.45274-.161-.74853,0-.55446.19408-.99815.58223-1.33076s.94791-.49892,1.67991-.49892c.11794,0,.244.00374.37692.01092.13292.00749.25898.01498.37692.02215.11857.00749.22216.01498.31077.02215.08861.00749.15164.01498.18846.02215v-.18846c0-.38409-.11669-.65961-.34946-.82622-.23277-.16631-.54853-.2493-.94791-.2493-.3919,0-.70267.05367-.93169.16069-.22902.10733-.42122.21623-.57661.32731l-.46553-.67646c.08861-.07395.19595-.1479.32138-.22185.12606-.07395.27333-.14228.44369-.20531.16974-.06272.36194-.11451.57661-.15507s.46179-.06116.74323-.06116c.66522,0,1.18817.161,1.56883.48238.38066.32169.57099.77817.57099,1.36976v2.99943c0,.18128.00374.47864.01123.60438h-.94624l-.00729-.76507ZM142.88544,39.89184c-.02933-.00718-.08674-.01654-.17161-.02777-.08549-.01092-.18347-.02028-.29392-.02746-.11108-.00749-.22965-.01498-.35508-.02247-.12606-.00718-.24774-.01092-.36569-.01092-.28144,0-.50859.03339-.68207.09985-.17411.06646-.31077.14977-.41062.2493-.09985.09985-.16787.21092-.20468.33292-.03744.122-.05554.23838-.05554.34915,0,.28113.0961.49361.28831.63777s.45804.21623.79814.21623c.1922,0,.37505-.03339.54915-.09985.17348-.06646.327-.15539.45992-.26615.13292-.11108.24025-.24025.322-.38815.08112-.1479.12169-.29954.12169-.45461v-.58784Z" fill="#0c4f94"/><path d="M148.70174,38.16242v-.56007c0-.15882-.00374-.32325-.01123-.4933h.95353l.03307.83153c.05928-.08861.13729-.18659.23339-.29361.09548-.10733.21217-.20531.34884-.29392.13666-.08893.29579-.16443.47739-.22746.18097-.06272.3894-.09423.62653-.09423.11045,0,.21217.00749.30453.02215.09236.01498.1791.03713.26085.06646l-.22216.93169c-.13292-.0518-.30266-.07769-.50984-.07769-.21467,0-.41249.04087-.59346.122-.18097.08144-.33823.19408-.47115.33823s-.23838.31233-.31576.50453c-.078.1922-.11669.39564-.11669.61l-.01123,2.92695h-.99784l.01123-4.31325Z" fill="#0c4f94"/><path d="M160.79769,41.55469c-.05928.06677-.1479.15164-.26584.25523-.11857.10359-.27208.20344-.46054.29923-.18846.0961-.40999.17941-.66522.24961s-.54541.10546-.87053.10546c-.39938,0-.76507-.06677-1.09768-.19969-.33261-.13323-.61717-.32169-.85368-.56569-.23713-.244-.41998-.53574-.54915-.87584s-.19408-.71702-.19408-1.13107c0-.37723.06303-.73012.18846-1.0593.12543-.32856.30328-.61343.5323-.85368s.5011-.43059.81499-.57099c.31451-.14041.65961-.21092,1.03715-.21092.44307,0,.82373.08518,1.14199.25523.31763.17005.57848.39564.78192.67646.20281.28082.35258.60251.44868.96476s.14415.73917.14415,1.13107h-4.06935c.00749.22902.05679.43995.14977.63215.09236.1922.21592.35851.3713.49892s.33261.25149.5323.33261c.19969.08144.41062.122.63215.122.4362,0,.7944-.07395,1.07584-.22185.28082-.1479.48363-.29205.60968-.43246l.56538.59876ZM159.8997,39.28163c-.02995-.39938-.17036-.73917-.42122-1.0203-.25149-.28082-.60656-.42154-1.06461-.42154-.23713,0-.44931.04087-.63777.122-.18846.08144-.34946.18877-.48238.32169s-.23651.28643-.31077.46023c-.07364.17379-.1142.3532-.12169.53792h3.03844Z" fill="#0c4f94"/><path d="M42.28779,23.22867c-.03504.65679-.09852,1.30921-.19485,1.9638-.01752.13354-.03941.26272-.06129.39626,0,.00438-.00219.01094-.00219.01533-.00438.02189-.00657.04597-.00877.06787-.02189.13573-.04816.26928-.07443.40282-.46851,2.45858-1.37706,4.85585-2.6994,7.05171-.08319.13793-.16639.27804-.25833.41597-.00875.01314-.01533.02408-.02408.03721-.08758.13793-.17733.27585-.26929.41596-1.19096,1.77989-2.66217,3.40655-4.40703,4.79894-.31308.24958-.62396.48821-.94358.70933q-.00438.00219-.00657.00219c-.14231.10289-.27804.20141-.42253.29336-.03284.0219-.05692.04379-.08977.06569h-.00875c-.14449.09851-.28241.19265-.42911.28461h-.00875c-.89323.56483-1.81492,1.04647-2.75413,1.44931-.55388.23863-1.11434.44661-1.67918.62613-.00219,0-.00438.00219-.00656.00438-.29556.09633-.59111.18389-.88885.26272-.39189.10508-.78377.19703-1.17566.27584,0,0-.00437.00219-.00656.00219-.05035.00877-.09633.01752-.1445.02408,0,0-.00437.00438-.00656.00438-.12917.02408-.25614.04598-.38532.06787-.05692.00877-.10727.01752-.1642.02408h-.00656c-.12479.0219-.2452.04379-.37218.06131h-.00219c-.06131.00875-.12041.01533-.18171.02189h-.00437c-.08539.01096-.16858.0219-.25177.03065h-.00219c-.19485.02408-.38751.04379-.58015.05692-.04817.00656-.09415.00875-.14231.01314-1.89374.14012-3.77434-.01752-5.5805-.46851-.12479-.03065-.24958-.06129-.37437-.09633-.09414-.02627-.18608-.05254-.28022-.07881-.00877-.00219-.0219-.00657-.03065-.00875-.09633-.02846-.19047-.05473-.2868-.08977-.01094-.00219-.02408-.00656-.03721-.01094-1.3508-.42253-2.64905-1.01364-3.86191-1.77114-.00219,0-.00657-.00218-.00875-.00437-.07006-.04379-.14231-.08977-.21237-.13573-.00875-.00438-.01533-.01096-.02408-.01752-.06787-.04379-.13793-.09195-.20579-.13793-1.04867-.69181-2.02948-1.51937-2.9227-2.46734-.06131-.06568-.1226-.12916-.18171-.19703-.09633-.10727-.19266-.21456-.2868-.32402-.06131-.07005-.1226-.1423-.18171-.21455-.01752-.02189-.03502-.0416-.05254-.06348-.07881-.09196-.15544-.18391-.22987-.27585-.2255-.28241-.44443-.57359-.6546-.87352-4.35231-6.19351-4.36327-14.50624-.66992-21.16388v-.00218s0-.00219.00218-.00438c.1029-.18828.21018-.37218.32183-.55608.00219,0,.00219-.00219.00219-.00438,1.28073-2.15645,2.95991-4.12025,5.01566-5.76222.11604-.09195.23206-.18391.35029-.27147l.00218-.00219.0416-.03065c.05254-.0416.1051-.081.15764-.11822,1.91563-1.42961,3.98013-2.45857,6.09279-3.10222.08319-.02846.17077-.05255.25616-.07882.05254-.01531.10727-.03064.15981-.04597h.00438c.05035-.01314.09851-.02627.14668-.03941l.00219-.00219c.06348-.01752.12041-.03065.17952-.04379.0591-.01314.11603-.02846.17951-.04598-.00409.00195-.00775.00452-.01183.00649,2.1554-.53853,4.35126-.68319,6.47462-.43778h.00219c.06348.00656.12698.01533.19047.02408.08758.01094.17514.0219.26272.03284.06129.00875.1226.0175.18389.02846h.00219c.40284.06129.80348.13573,1.19755.22768.17295.03721.3459.07881.51448.12479.27147.07006.54076.14668.80785.22768.16201.05036.32401.1029.48384.15983.00875,0,.0175.00437.02408.00875,2.96649,1.0224,5.65494,2.86797,7.74133,5.4995.07444.09195.15106.18608.22331.28241l.27147.36562c.04598.06129.08976.12479.13135.18608.58892.83631,1.09684,1.71203,1.52813,2.61621.39407.82537.72465,1.67699.98955,2.54615.08539.27803.16202.55827.23426.84068.03284.11604.06131.22989.08758.34591.00875.03502.01752.07006.02408.10508.02627.11823.05254.23645.07881.35466.05036.24521.09852.49478.14012.74436.03284.19266.06787.3897.08977.58235.04816.34591.08537.69182.11383,1.03991.07882.91075.09633,1.83245.04598,2.75194Z" fill="url(#b)"/><path d="M39.51986,10.31416c.39741.57093.76912,1.1713,1.1059,1.78653l.05708-.03058c-.96179-2.78409-2.81353-5.43874-5.2251-7.4873l-.4657-.38234-.47905-.36262c-.33352-.2466-.66774-.47778-.99217-.68581-.32315-.20831-.67257-.42749-1.03945-.62123l-.04075-.02115c-.34076-.17774-.6933-.36148-1.04911-.51807-1.36814-.64494-2.89545-1.13272-4.54302-1.45077-2.71982-.52493-5.5572-.47578-8.20574.14116l-.00057.00029-.00071-.00286-.20261.04601-.00071-.00343c-.45477.10744-.91039.23032-1.35892.36634-2.70988.8224-5.22652,2.11429-7.27817,3.73565l-.57631.45892c-.25926.20574-.49183.39262-.7173.5978-.85899.7301-1.69371,1.5825-2.6308,2.68551-.88611,1.051-1.60639,2.04885-2.20144,3.0507-.70139,1.1673-1.2635,2.26516-1.71913,3.35674-.48061,1.13244-.88384,2.3366-1.19904,3.5802-.29689,1.16987-.51554,2.42347-.64971,3.72593-.10975,1.06557-.13503,2.16429-.07724,3.35874.25472,5.25614,2.14678,10.09194,5.32761,13.61727,3.31501,3.67421,7.70724,5.96995,12.3674,6.46402,4.28234.4532,8.79213-.64837,12.39423-3.02669l-.05963-.12716c-4.12687,2.06628-9.02243,2.52491-13.45697,1.25588-.38279-.10944-.76969-.2346-1.15006-.37148-4.46351-1.60765-8.18871-4.96781-10.48925-9.46071l-.05353-.11744c-.20942-.46035-.42595-.93641-.60442-1.42276-.39627-1.04328-.71034-2.12086-.93297-3.20072-.21468-1.08272-.34885-2.19744-.39926-3.31445-.05282-1.08186-.0159-2.20458.10961-3.33702.47252-4.40117,2.27186-8.71832,5.06637-12.15507.7589-.9307,1.50601-1.72423,2.28422-2.42547.90784-.82554,1.76172-1.50106,2.60978-2.06514.9111-.61665,1.88383-1.16959,2.89006-1.64308.95654-.45006,1.98407-.83726,3.0549-1.15158l-.00071-.01.07653-.01114.15533-.04401-.00057-.00914.07085-.00914v.00057c2.389-.64209,4.81165-.8304,7.19951-.55865l.00014-.00029c.01249.00086.02414.00229.03493.00429l.17549.02229c.11983.01486.23924.02972.34431.04743,5.3624.98442,9.67583,3.65564,12.47587,7.72504Z" fill="url(#c)"/><path d="M30.63923,27.11063c-.0464.03053-.09382.05924-.14049.0893.00045.00384.00117.00774.00162.01158.04715-.03226.09201-.06815.13886-.10088Z" fill="none"/><path d="M30.58822,4.9678c-.00657-.00438-.01533-.00875-.02408-.00875-.15983-.05692-.32183-.10946-.48384-.15983.95234.35029,1.88936.80129,2.79573,1.36394.00437,0,.00656-.00219.00875-.00219-.74654-.47289-1.51499-.87135-2.29656-1.19317Z" fill="url(#d)"/><path d="M5.2647,24.04966c-.00657-.06787-.01314-.13354-.01314-.19922-.04817.60644-.06787,1.21067-.05912,1.81273l.01094.40503.01533.23863c-.03283-.74654-.01533-1.49747.04598-2.25716ZM5.21872,26.30682c.01094.35466.03723.70934.07006,1.05743l-.07006-1.05743ZM7.43647,16.28425c-.00219.00656-.00656.01094-.00875.01752-1.18878,2.31189-1.88717,4.71354-2.13456,7.09329v.00219c.00219.06348.00656.13354.01094.20141,0-.00219,0-.00437.00219-.00656v-.00438c.24958-2.36662.95234-4.76827,2.14331-7.08016v-.00219c.00219,0,.00219-.00219.00219-.00219-.01094-.07444-.01314-.14887-.01533-.21893ZM12.40616,9.96377c-1.86965,1.62007-3.49192,3.597-4.73544,5.88043,0,.00219-.00219.00219-.00219.00438,0,.07006.00657.1423.01314.21674,1.24352-2.28562,2.8636-4.26693,4.73544-5.90014-.00875-.06787-.01094-.13573-.01094-.20141ZM19.07693,6.05151c-2.26372.81441-4.40703,2.02946-6.31172,3.60576v.00219h-.00219c.00219.03284.00438.06348.00656.09633.00219.03502.00438.06787.00657.10289,1.90249-1.58724,4.04581-2.82199,6.30954-3.65611-.00219-.05254-.00657-.10071-.00877-.15106ZM26.5665,4.87804c-2.37976-.09632-4.77484.25835-7.0539,1.02022,0,.02627,0,.05035.00219.07443.00219.02628.00219.05036.00657.07444h.00219c2.27905-.77939,4.66975-1.15813,7.04514-1.08807-.00219-.02846-.00219-.05473-.00219-.08102ZM27.01749,4.90432c.00438.02627.00438.04816.00656.07443,1.96161.10508,3.90789.52105,5.77098,1.27198v-.01094c-1.86528-.77283-3.81593-1.20849-5.77754-1.33546Z" fill="url(#e)"/><path d="M9.33021,37.26641c-.46632-.78595-.82318-1.65728-1.07276-2.60525-.07881-.07444-.15106-.14887-.22112-.22331.25397.9195.60644,1.77551,1.05962,2.55053.01752.02189.03502.0416.05254.06348.06131.07444.12479.15106.18828.2255-.00219-.00438-.00437-.00657-.00656-.01096ZM8.07356,28.46547c-.10071-.09852-.19704-.19923-.29337-.29556-.32839,2.14332-.26709,4.15309.16858,5.93079.07224.07881.14887.15325.2233.22987-.40282-1.75362-.44661-3.73712-.09851-5.86511ZM10.20155,21.00436c-1.19536,2.31408-1.97255,4.59751-2.3513,6.75615.09633.09852.19047.19485.29337.29774.39626-2.1455,1.18002-4.4158,2.37318-6.72988-.10946-.11166-.21235-.21455-.31526-.32401ZM15.09243,14.45837c-.04817-.04816-.09852-.09851-.14669-.14887-1.73391,1.85214-3.27736,3.96043-4.51432,6.257.1051.10946.21018.21455.31964.32401,0,0,0-.00219.00219-.00219,1.23476-2.29656,2.76944-4.41141,4.48805-6.28108-.05036-.05254-.10071-.1007-.14887-.14887ZM21.11954,9.46241c-.03721-.03721-.07444-.07443-.11166-.11383-2.02071,1.23038-3.96699,2.78696-5.72718,4.60626v.00219h-.00219c.04817.05035.09852.10071.14668.14887.04817.05035.09852.09852.14669.14668,1.74048-1.83463,3.66705-3.41748,5.65931-4.67851-.03941-.03941-.07444-.07443-.11166-.11166ZM27.5867,6.62291c-2.06012.45099-4.15746,1.307-6.18694,2.4958h-.00218c.07006.07443.1423.14449.21674.21893h.00219c2.00319-1.21507,4.06551-2.10392,6.08842-2.59213v-.00219c-.03941-.03941-.07663-.07881-.11823-.12041ZM32.89792,6.41711c-1.56316-.26053-3.22482-.20799-4.91933.12479l.11166.11166c1.66386-.35905,3.2905-.45099,4.82081-.22331-.00437-.00219-.00656-.00875-.01314-.01314Z" fill="url(#f)"/><path d="M13.16803,38.4333c-.11603-.07006-.22987-.14668-.3459-.21674-.09852.8976-.0635,1.63102.10508,2.17616.00875.00656.01533.01314.02408.01752.07006.04597.14231.09195.21237.13573.00218.00219.00656.00437.00875.00437-.13573-.52104-.13354-1.23475-.00438-2.11704ZM14.13571,33.18339c-.68306,1.86746-1.11216,3.48316-1.28293,4.78798.11604.07443.23426.15106.35466.22331.21456-1.27636.68088-2.87017,1.38363-4.7223-.15324-.09633-.30212-.19266-.45536-.28899ZM17.1416,26.48197c-1.20192,2.30751-2.16302,4.44426-2.87673,6.33799,0,.00219.00219.00219.00219.00219.07881.05036.15325.10071.23206.14887.07662.05036.15325.09852.23206.14669v-.00219c.7356-1.88061,1.71203-4.00859,2.91175-6.31611-.16858-.10727-.33495-.21235-.50134-.31744ZM21.33628,19.34926h-.00219c-1.39239,2.12142-2.74317,4.38077-3.96042,6.69266-.00219,0-.00219.00219-.00219.00219.08319.05254.16639.10508.25176.15762.08319.05254.1642.10508.24958.15764,1.21944-2.30971,2.55272-4.58001,3.9254-6.71676-.15543-.1007-.30649-.19703-.46194-.29336ZM25.86154,13.17545h-.00218c-1.4121,1.71422-2.85484,3.66706-4.25817,5.77097h.00219c.15324.09852.30212.19485.45536.28899,1.37488-2.11923,2.78478-4.09615,4.15309-5.83884-.11823-.07006-.23645-.14668-.35029-.22112ZM30.15256,8.648c-1.25009,1.09245-2.61621,2.52207-4.02173,4.20563.11383.07005.22549.1423.34153.21455,1.35954-1.70764,2.67531-3.17666,3.86628-4.30196-.06348-.0416-.1226-.07881-.18608-.11822ZM33.15845,6.62291c-.81004.33278-1.74486.95891-2.76508,1.82368.05473.03721.11385.07443.17296.10727.96985-.89104,1.85213-1.55002,2.61182-1.91782-.00657-.00657-.01314-.00875-.01971-.01314Z" fill="url(#g)"/><path d="M19.10539,41.50925c-.51886.45318-.99832.79034-1.43617,1.00051.12479.03504.24958.06568.37437.09633.45318-.20141.94139-.51448,1.45587-.93482-.13135-.05255-.2649-.1051-.39407-.16202ZM22.47471,37.5532h-.00219c-1.14063,1.62665-2.21994,2.90519-3.18322,3.79185l.40063.16858c1.01364-.86914,2.13238-2.13018,3.30145-3.74587-.17295-.06787-.34591-.14012-.51667-.21456ZM26.25124,31.25899c-1.20849,2.30095-2.41697,4.31291-3.55979,5.98114.17514.07444.3481.1445.52544.21675,1.17127-1.65729,2.39508-3.6605,3.60356-5.96582-.19047-.07444-.37655-.15544-.56921-.23208ZM29.72126,23.74536h-.00219c-.94795,2.35349-2.04041,4.75075-3.24015,7.07141h.00219c.18828.081.37437.15762.56703.23645,1.19973-2.32285,2.27249-4.72668,3.19636-7.09112-.17514-.07225-.35028-.14231-.52324-.21674ZM32.228,16.51412h-.00219c-.60862,2.13237-1.39677,4.43551-2.32503,6.78242.17077.07225.34591.14231.51886.21456.89762-2.36006,1.64416-4.67634,2.20462-6.83278-.13354-.05254-.26272-.10946-.39626-.1642ZM33.52406,10.41476c-.19266,1.64416-.59767,3.58168-1.18221,5.69435.06348.02627.12916.05254.19266.07881.06568.02627.12916.05254.19266.081v-.00219c.53419-2.13237.88009-4.09179,1.00488-5.76441-.06787-.02845-.13793-.0591-.20799-.08756ZM33.51969,6.80899c-.00657-.00218-.01533-.00437-.0219-.00875.18171.85601.19266,1.97911.05692,3.30365.07006.02845.13573.05473.19923.08318.081-1.3486.00656-2.49798-.23426-3.37807Z" fill="url(#h)"/><path d="M30.48532,39.97675c-1.09901,1.03554-2.25278,1.87842-3.43498,2.51551.29774-.07882.59329-.16639.88885-.26272.00218-.00219.00437-.00438.00656-.00438,1.00489-.59111,1.98788-1.32452,2.92489-2.19585-.12697-.01533-.25395-.03504-.38532-.05255ZM35.00402,33.90585c-1.21725,2.30095-2.65561,4.23846-4.22095,5.78191h.00219c.13354.0219.2627.03723.39188.05473,1.58724-1.54126,3.03435-3.47658,4.24941-5.77753-.13793-.01971-.27803-.03723-.42253-.05912ZM37.97489,26.21049c-.06568-.00875-.12916-.0197-.19485-.03064h-.00218c-.51887,2.48484-1.36613,4.95654-2.54397,7.28376h.00219c.14231.0219.27804.03941.42035.05912,1.17565-2.32722,2.01196-4.79892,2.51111-7.28595-.06348-.00877-.12698-.01752-.19266-.02628ZM38.64043,18.40348c-.09632-.01094-.19703-.02408-.29555-.03941.15981,2.36662.00875,4.85804-.4707,7.34288h.00219c.12698.0219.25833.03723.38093.05692.45976-2.49141.58017-4.9872.38313-7.36039ZM36.91746,11.41527c-.05254-.00657-.10508-.01533-.15762-.0219h-.00219c.82756,1.95504,1.34642,4.16842,1.55221,6.51971h.00218c.09633.01533.19048.02846.28681.03941-.24302-2.35349-.80567-4.5778-1.68139-6.53722ZM33.84151,6.90313c-.00656,0-.01094-.00218-.01752-.00218,1.13406,1.14061,2.05575,2.53957,2.77165,4.12243h.00219c.05035.01096.09633.01533.14668.0219-.7575-1.58943-1.72516-2.99495-2.903-4.14215Z" fill="url(#i)"/><path d="M24.34655,43.00454c-.19485.02408-.38751.04379-.58015.05692-.80129-.18608-1.67262-.44224-2.60526-.76406-.5539-.19047-1.10778-.40284-1.66168-.62613-.13135-.05255-.2649-.1051-.39407-.16202-2.06231-.86039-4.10273-1.92876-5.93736-3.07595-.11603-.07006-.22987-.14668-.3459-.21674-1.80617-1.15813-3.38903-2.38195-4.56468-3.55541-.07881-.07444-.15106-.14887-.22112-.22331-.58454-.60644-1.05742-1.19754-1.388-1.75362-.17077-.2868-.29774-.55388-.38313-.80347l-.12041-.36561c.08756.24739.21674.5101.38313.79252.33934.56921.82098,1.17127,1.42085,1.79303.07224.07881.14887.15325.2233.22987,1.2063,1.20192,2.83076,2.45857,4.68071,3.64079.11604.07443.23426.15106.35466.22331,1.87622,1.17565,3.96919,2.26591,6.08186,3.15038l.40063.16858c.56922.22987,1.13406.44443,1.70108.63927,1.06838.37218,2.05794.6546,2.95554.85164Z" fill="url(#j)"/><path d="M32.81692,39.86511c-.14449.09851-.28241.19265-.42911.28461h-.00875c-.46413-.01094-.96766-.05036-1.50842-.12041-.12697-.01533-.25395-.03504-.38532-.05255-1.51499-.22987-3.29269-.68525-5.28713-1.37925-.73342-.25395-1.46683-.532-2.20462-.82974h-.00219c-.17295-.06787-.34591-.14012-.51667-.21456h-.00219c-2.73661-1.14499-5.44477-2.55927-7.87926-4.08083h-.00219c-.15324-.09633-.30212-.19266-.45536-.28899-2.39728-1.5325-4.499-3.16353-6.06215-4.71792-.09852-.09852-.19485-.19923-.29118-.29556-.7772-.80566-1.40334-1.58943-1.8412-2.32722-.40063-.68087-.62175-1.27635-.67429-1.79303-.00657-.06787-.01314-.13354-.01314-.19922,0-.06787,0-.13354.00656-.19923l.03504-.38093c0,.0416-.00219.08319-.00219.12479v.00219c.00438.06131.00656.12698.01314.19047v.01094c.05254.51886.27585,1.1253.68525,1.81055.44005.74654,1.07494,1.53908,1.85871,2.3513.09633.09852.19047.19485.29337.29774l.00218.00219c1.57629,1.57191,3.69991,3.21607,6.11907,4.75952,0,.00219.00219.00219.00219.00219.07881.05036.15325.10071.23206.14887.07662.05036.15325.09852.23206.1445v.00219h.00219c2.45638,1.53687,5.19299,2.9643,7.95807,4.12243.17514.07444.3481.1445.52544.21675.74435.30211,1.48652.58235,2.2287.84068,2.01415.69838,3.80936,1.15813,5.33749,1.39019h.00219c.13354.0219.2627.03723.39188.05473.59111.07882,1.14063.11823,1.63978.12261Z" fill="url(#k)"/><path d="M38.98853,33.54243c-.00875.01314-.01533.02408-.02408.03721-.08758.13793-.17733.27585-.26929.41596-.87572.14231-1.97473.13575-3.26861-.03064-.13793-.01971-.27803-.03723-.42253-.05912-1.65072-.25177-3.59481-.75093-5.77535-1.50623-.79908-.27585-1.60474-.58235-2.40822-.90855-.19047-.07444-.37655-.15544-.56921-.23208-2.99276-1.25008-5.95049-2.8001-8.60829-4.45958-.16858-.10727-.33495-.21235-.50134-.31744-2.6184-1.67481-4.91496-3.45252-6.6248-5.1536-.10946-.11166-.21235-.21455-.31526-.32401-.84945-.8801-1.5325-1.73611-2.01196-2.54176-.31963-.54295-.60206-1.12968-.70933-1.75582-.01094-.06787-.02189-.13354-.03065-.19922v-.00219c-.00875-.06787-.01533-.13573-.02189-.2036-.04598-.53857.01314-1.03116.11385-1.62665v-.00218s0-.00219.00218-.00438c.1029-.18828.21018-.37218.32183-.55608-.10727.29555-.20141,1.41646-.19485,1.73172v.00438c0,.07006.00657.1423.01094.21674.05912.56265.29993,1.21725.74217,1.95942.47726.80566,1.15813,1.66166,2.00758,2.54176.10727.10727.21237.21455.32183.32182,1.70326,1.70327,4.00202,3.47879,6.62041,5.1536.081.05473.1642.10727.24957.15981.08319.05254.1642.10508.24958.15764h.00219c2.6578,1.66166,5.61115,3.2073,8.60391,4.45739h.00219c.18828.081.37437.15762.56703.23645h.00219c.80347.32401,1.60693.62833,2.40603.90416,2.18053.75969,4.12025,1.25666,5.77753,1.50623h.00219c.14231.0219.27804.03941.42035.05912h.00218c1.32234.17295,2.44326.17733,3.32992.01971Z" fill="url(#l)"/><path d="M42.03165,25.58874c0,.00438-.00219.01094-.00219.01533-.00438.02189-.00657.04597-.00877.06787-.02189.13573-.04816.26928-.07443.40282-.89104.3087-2.17396.3678-3.77872.15983-.06348-.00657-.12917-.01533-.19266-.02409-.06568-.00875-.12916-.0197-.19485-.03064h-.00218c-1.52156-.22989-3.31022-.68744-5.3178-1.38363-.73341-.25614-1.47339-.53638-2.21337-.83412h-.00219c-.17514-.07225-.35028-.14231-.52324-.21674h-.00219c-2.74975-1.15157-5.47541-2.5768-7.91866-4.10274h-.00219c-.15543-.1007-.30649-.19703-.46194-.29336h-.00219c-2.40822-1.54126-4.52307-3.17885-6.0906-4.74201h-.00219c-.05036-.05254-.10071-.1007-.14887-.14887-.04817-.05035-.09633-.1007-.1445-.15106-.78158-.81003-1.4099-1.59818-1.84995-2.33816-.40501-.68306-.62613-1.2873-.67867-1.80397-.00875-.06787-.01314-.13573-.01314-.20141-.00875-.56922.42165-1.55055.82886-1.89208l.21376-.16098c-.37656.33278-.69234,1.2036-.68357,1.74654v.00219c0,.03065.00219.06348.00437.09633.00219.03502.00438.06787.00657.10289.05473.5123.27147,1.10997.67211,1.78428.44005.73341,1.05961,1.51281,1.83244,2.31189v.00219c.04816.05035.09633.09852.14449.14887.04817.05035.09852.09852.14669.14668,1.5522,1.54783,3.64297,3.16791,6.0293,4.69384h.00219c.15324.09852.30212.19485.45536.28899h.00219c2.41916,1.51499,5.11637,2.92271,7.83985,4.06113.17077.07225.34591.14231.51886.21456.73123.29555,1.46244.5714,2.19367.82755,1.9835.68744,3.75245,1.14063,5.26086,1.36831h.00219c.12698.0219.25833.03723.38093.05692,1.61133.20799,2.89206.1445,3.77435-.17514Z" fill="url(#m)"/><path d="M41.81928,17.75545c.02627.11823.05254.23645.07881.35466-.66335.38095-1.78207.48603-3.25767.29337-.09632-.01094-.19484-.02408-.29555-.03941-1.15376-.17514-2.5133-.52324-4.03705-1.05086-.55827-.19704-1.12311-.40722-1.68137-.6349h-.00219c-.13354-.05254-.26272-.10946-.39626-.1642h-.00219c-2.09077-.87572-4.15527-1.95504-6.01398-3.11755-.11823-.07006-.23645-.14668-.35029-.22112h-.00218c-1.82807-1.16907-3.435-2.4126-4.62597-3.60139h-.00219c-.03941-.03941-.07444-.07443-.11166-.11166-.03502-.03721-.07225-.07443-.10946-.11383-.59111-.613-1.07057-1.21288-1.40333-1.7777-.3087-.51449-.47946-.97205-.51887-1.36831-.00437-.05254-.00656-.1029-.00875-.15106-.01094-.59769.43345-1.13142,1.01799-1.39632.12479-.03284.23462-.05609.35941-.09112-.54732.26053-.95268.76498-.94393,1.33419,0,.02627,0,.05035.00219.07443.00219.02628.00657.05036.00877.07444.03941.38532.2036.83193.50353,1.33765.3262.55171.79252,1.13187,1.3705,1.73174v.00219h.00218c.07006.07443.14231.14449.21456.21893h.00219c1.16251,1.16032,2.73004,2.37318,4.51432,3.516.11383.07005.22549.1423.34153.21455h.00219c1.81053,1.13405,3.82907,2.18929,5.8673,3.04093.06348.02627.12916.05254.19266.07881.06348.02627.12916.05254.19266.07881h.00218c.54951.2255,1.09684.42911,1.64197.61957,1.48654.51667,2.80886.85601,3.93855,1.02678h.00218c.09633.01533.19048.02846.28681.03941h.00218c1.45369.18828,2.54615.081,3.19418-.30212.00875.03502.01752.07006.02408.10508Z" fill="url(#n)"/><path d="M38.82433,11.11534c-.02408.02627-.05254.05254-.08319.07662h-.00219c-.0197.01533-.03941.02846-.06129.04379-.3481.22112-.95016.28241-1.7602.17952-.05254-.00657-.10508-.01533-.15762-.0219h-.00219c-.61081-.09195-1.32671-.27585-2.13456-.55608-.29555-.1029-.59111-.21455-.89104-.33497-.06787-.02845-.13793-.0591-.20799-.08756-1.10559-.46413-2.20243-1.03553-3.18322-1.64854h-.00219c-.06348-.0416-.1226-.07881-.18608-.11822-.96548-.61957-1.81493-1.27636-2.44763-1.90469-.03941-.03941-.07663-.07881-.11823-.12041-.31307-.3262-.56483-.64146-.74216-.9392-.16202-.27366-.25177-.51668-.27366-.72465-.00438-.02846-.00438-.05692-.00438-.08102-.00438-.33934.18389-.58235.54513-.72027.08758.01094.17514.0219.26272.03284.06129.00875.1226.0175.18389.02846-.35466.1226-.54513.35466-.54075.68306v.00219c.00438.02627.00438.04816.00656.07443.01971.19485.1029.42253.25616.68087.16639.28024.40282.57798.69838.88229l.11166.11166c.5911.59111,1.39019,1.21067,2.30312,1.79303.05473.03721.11385.07443.17296.10727.92387.58015,1.95065,1.11653,2.98837,1.55002.07006.02845.13573.05473.19923.08318.28022.11166.56046.21893.83849.31526.7575.26272,1.42961.43349,2.00321.52105h.00219c.05035.01096.09633.01533.14668.0219h.00219c.7575.1007,1.32671.03721,1.65291-.17077h.00219c.02189-.01314.03721-.02408.05692-.03941h.00219c.03283-.02627.06568-.05473.09195-.08539l.27147.36562Z" fill="url(#o)"/><path d="M35.71554,23.20021c-.43786.45318-.89104.89981-1.35954,1.32671-.47289.4313-.96548.84289-1.47559,1.23257-.35028.26929-.70933.52324-1.07055.77721-1.11874-5.26306-5.69216-9.71607-8.38717-11.80904-.00438.00218-.00657.00437-.00877.00656-1.25884-1.27854-3.76339-3.34305-5.63085-1.86965,1.09245-1.32452,2.28781-2.4323,3.55102-3.19855h.00219c1.54126-.93702,3.37588.40282,4.06551.90636,2.1455,1.56754,6.95975,6.16286,9.52999,10.97711l.00437-.00219s.02846.05692.081.16639c.24739.47507.49916,1.01145.69838,1.48652Z" fill="url(#p)"/><path d="M36.56718,38.08083c-1.10997,1.26979-3.47002,3.00808-5.3769,3.69772.69181-1.52594,1.35736-3.38027,1.35736-6.82403,0-.86695.00875-2.001-.03723-2.49578.58455-.3897,1.15376-.79471,1.70108-1.19317.88229-.62833,2.43012-2.10391,2.5965-2.30533.24302,2.55053.36999,5.40755-.24082,9.12059Z" fill="url(#q)"/><path d="M19.57609,35.09025c.07443.04817.15106.09852.22768.14669-.08976-.05254-.17514-.10946-.25833-.1642-.05254-.03504-.10508-.07225-.15544-.10727.06131.0416.1226.08537.1861.12478Z" fill="url(#r)"/><path d="M21.73254,36.20899c-.00656.00219-.01094.00219-.01752.00219-.01314-.00657-.02627-.01096-.03721-.01752.00657,0,.01094,0,.01533-.00219.01314.00657.02627.01314.03941.01752Z" fill="url(#s)"/><path d="M16.52203,29.34994c-.01752.28899-.02408.57578-.00875.86258.00875.15544.02189.31088.04816.46413.01752.10071.03504.20141.05473.30212.00657.03721.01533.07444.02409.11166v.00219c.06348.31088.14887.61956.2649.91512.21018.5298.51011,1.0202.86696,1.46464.15762.19484.3262.38093.50353.55827.08319.081.16857.1642.25833.24739.03502.03065.06787.06129.10289.09414.06131.05254.12479.10727.19047.16201.04598.03941.09415.07663.1445.11822.06787.05473.14012.10729.21235.16202.00877.00875.01971.01533.02846.02189.05912.04379.11604.08758.17733.12917.05036.03502.1029.07224.15544.10727.08319.05473.16858.11166.25833.1642.2255.1423.46632.27803.72246.41378.35466.18828.74436.3678,1.1669.54075-.00438.00219-.00875.00219-.01533.00219.01094.00656.02408.01094.03721.01752h-.00656c-1.44493.19484-2.75413.21674-3.92321.05254-1.62664-.22769-2.984-.7991-4.05894-1.71422-1.33328-1.13624-2.047-2.87454-2.12142-5.16454-.15544-4.75952,2.39508-11.94039,6.17817-16.52038,1.86746-1.4734,4.37201.59111,5.63085,1.86965-.34809.28243-.67429.58673-.98518.90856-.3262.33715-.63269.69181-.92168,1.05961-.30212.38093-.58455.77502-.85383,1.17784-.27585.41378-.53638.8385-.78158,1.27198-.24958.43786-.48602.88448-.70933,1.33767-.22331.45099-.43348.91074-.63271,1.37487-.19485.45538-.37874.91731-.55169,1.38363-.16639.45099-.32402.90856-.46851,1.36612-.13793.43786-.2671.87791-.38313,1.32233-.10946.41378-.20799.82975-.29337,1.2479-.07881.38093-.14668.76406-.2036,1.14719-.04816.33935-.08537.67869-.10727,1.01803Z" fill="url(#t)"/><path d="M42.20679,20.99561c-.20579.51667-.42472,1.02459-.66336,1.51718-1.18878,2.43668-2.82199,4.57124-4.75075,6.40805,0,.00219-.00438.01096-.01533.0219-.16639.20141-1.71422,1.67699-2.59651,2.30532-.54732.39845-1.11653.80348-1.70107,1.19317-.04817.03504-.09852.06787-.14887.10071-2.53959,1.44931-5.57394,2.5133-7.19402,2.9621-1.20848.33716-2.34035.56922-3.40434.71371-.00656-.00219-.01094-.00438-.01752-.00656-.01314-.00657-.02627-.01096-.03721-.01752.00657,0,.01094,0,.01533-.00219.00219.00219.00657,0,.00875,0-.42472-.17295-.8166-.35466-1.17565-.54075-.25614-.13575-.49696-.27148-.72246-.41378-.08976-.05254-.17514-.10946-.25833-.1642-.05254-.03504-.10508-.07225-.15544-.10727-.06129-.0416-.11822-.08539-.17733-.12917-.00875-.00656-.0197-.01314-.02846-.02189-.07224-.05473-.14449-.10729-.21235-.16202-.05035-.04158-.09852-.07881-.1445-.11822-.06568-.05473-.12916-.10946-.19047-.16201-.03502-.03284-.06787-.06348-.10289-.09414-.08977-.08319-.17514-.16639-.25833-.24739-.17733-.17733-.34591-.36343-.50353-.55827-.35686-.44443-.65679-.93483-.86696-1.46464-.11603-.29556-.20141-.60425-.2649-.91512v-.00219c0-.00219.00218-.00219.00218-.00219.36562.18828,1.26979.39845,2.83075.28022,1.86966-.14887,3.92978-.68962,5.81914-1.38581,0,0,1.62226-.63709,2.41697-1.00708.07444-.03064.14231-.06348.20799-.1007.35029-.16639.70496-.34153,1.0443-.52544.05692-.03065.11385-.06129.17514-.09414.21237-.11822.42253-.23864.62613-.35686.57578-.33278,1.10341-.7356,1.64197-1.11653.12479-.08758.24958-.17515.37437-.26272.36124-.25397.72027-.50792,1.07057-.7772.5101-.3897,1.00269-.80129,1.47558-1.23257.46851-.42691.92168-.87352,1.35954-1.32671.00438-.00438.00657-.00657.01096-.01094.0416-.04817.08319-.1029.12479-.15106.90416-1.0421,1.70107-2.18929,2.35349-3.43719.94358-1.82149,2.30312-4.41581,2.62715-6.37521,1.12092,1.12967,2.15206,4.49899,1.40552,7.78731Z" fill="url(#u)"/><path d="M21.73254,36.20899c-.00875.00219-.01533.00219-.02408.00219-.84287-.34372-1.54564-.72465-2.13237-1.12093.59329.39408,1.30481.77283,2.15645,1.11874Z" fill="url(#v)"/></svg>