<?xml version="1.0" encoding="UTF-8"?><svg id="a" xmlns="http://www.w3.org/2000/svg" viewBox="0 0 161 46"><path d="M72.41221,16.71488c-.22006-.96595-.69396-1.81731-1.40953-2.53482-.85041-.87681-2.01127-1.47406-3.45033-1.77516-1.34075-.2831-3.41593-.42087-6.34335-.42087-3.79396,0-6.36648.35018-7.8652,1.07058-1.55837.74707-2.43526,2.15611-2.53509,4.07432l-.04779.92266h4.95878l.17714-.64443c.08796-.31982.24715-.50491.53234-.6189.37316-.15047,1.51454-.40139,4.99013-.40139,2.05449,0,3.52033.09032,4.35643.26849.6964.14834,1.20134.40843,1.50115.77302.04809.05996.08766.11752.1181.17208.18414.31966.39385.91238.42916,2.00834-.3762-.16771-.7874-.29566-1.23209-.3832-1.16482-.22771-3.43267-.33831-6.93352-.33831-4.57984,0-5.99972.37692-6.66964.6604-1.05646.45979-1.8183,1.14568-2.27211,2.04205-.42642.84915-.63309,1.9617-.63309,3.40395,0,1.17935.1324,2.0971.40481,2.80571.29737.76678.82788,1.42642,1.57724,1.96291.75453.55878,1.76534.91117,3.08995,1.0772,1.20256.15028,3.29205.22649,6.21095.22649,2.66718,0,4.47605-.14553,5.53069-.44487.32446-.09215.6343-.21412.92863-.36528l-.01918.75423h4.89547v-9.92136c0-1.85753-.07518-3.18762-.2298-4.06629-.01644-.10158-.03805-.20826-.06027-.30756ZM67.63727,24.97511c0,.85908-.35124,1.11521-.69518,1.25244-.49551.19708-1.7693.43255-5.01843.43255-5.03883,0-6.00581-.26845-6.18234-.35071-.27271-.13004-.59261-.39408-.59261-1.26309,0-.7064.16558-1.162.49247-1.35421.06544-.03732.38624-.18399,1.36996-.27576.79897-.0713,2.27181-.10759,4.37409-.10759,3.44485,0,4.84738.25411,5.41716.46732.59382.22021.83488.56734.83488,1.19906Z" fill="#fff"/><polygon points="76.48375 4.25641 76.48375 4.52711 76.48375 30.14908 76.48375 31.02615 77.36094 31.02615 80.49838 31.02615 81.37557 31.02615 81.37557 30.14908 81.37557 4.52711 81.37557 4.25641 76.48375 4.25641" fill="#fff"/><path d="M108.32926,16.55478c-.50982-1.36608-1.45823-2.46779-2.81511-3.26478-.87415-.50423-1.92239-.83915-3.21048-1.02755-1.21808-.17497-2.93503-.25985-5.25097-.25985-2.75423,0-4.66171.17109-5.83171.52298-.37437.11429-.7244.25887-1.04855.433v-.8178h-4.89151v30.32652h4.89151v-12.33466c.34424.1771.71618.32267,1.11429.43582,1.16786.33465,2.96334.49757,5.48747.49757,3.40467,0,5.76262-.20587,7.20867-.62943,1.55715-.45511,2.81054-1.40512,3.72426-2.82355.88115-1.36703,1.3094-3.35342,1.3094-6.07254,0-1.89028-.18962-3.44823-.56369-4.63059-.03805-.11703-.07761-.23665-.12357-.35512ZM103.94848,21.61164c0,1.31472-.1187,2.33196-.35276,3.02345-.20758.60318-.51377,1.03668-.93502,1.32127-.24167.15987-.74966.38419-1.76077.51967-.89058.12224-2.30194.18407-4.19664.18407-3.34897,0-4.67785-.34732-5.20319-.63868l-.0067-.00373-.0067-.00361c-.47695-.25369-.81145-.67106-1.02298-1.27595-.2508-.71667-.37772-1.85079-.37772-3.37089,0-1.27835.1181-2.27025.35124-2.94819.10075-.28706.22219-.53295.3695-.74696.15888-.23364.34028-.41832.5576-.56909.23132-.15568.73962-.37784,1.78999-.51286.95359-.12255,2.47026-.18468,4.50801-.18468,3.10761,0,4.37135.3455,4.88451.63537l.00791.00445.00791.00434c.29128.15652.52108.36049.70279.62354.12783.18365.23284.39378.3135.62708.24563.70077.3695,1.81396.3695,3.31142Z" fill="#fff"/><path d="M135.03916,16.93395c-.22523-1.0102-.683-1.88766-1.35931-2.60437l-.0067-.00711-.0067-.00696c-.80414-.81483-1.90687-1.38758-3.27805-1.70241-1.29296-.29607-3.08265-.43997-5.47194-.43997-2.84433,0-4.87203.20362-6.19878.62243-.46416.148-.88876.33564-1.27226.56194V4.25641h-4.89182v26.76974h4.89182v-8.8262c0-1.8514.08918-2.66776.16405-3.02657.09162-.43068.28945-.81164.60387-1.16113.01704-.0191.02952-.03394.04261-.04695l.0073-.00742.00974-.01031c.41212-.43578,1.06073-.76899,1.92818-.99042,1.00229-.25274,2.47817-.38118,4.38413-.38118,1.68742,0,2.95603.09458,3.77144.28112.67357.15656,1.14656.39777,1.40284.71622.05905.07465.11079.14903.14853.21374l.0073.01259.00791.01236c.17806.28303.2995.61433.37103,1.01283.10592.58211.15949,1.71717.15949,3.37511v8.8262h4.89486v-9.64621c0-1.8872-.08431-3.2566-.2575-4.18576-.01522-.09257-.03348-.17821-.05205-.26024Z" fill="#fff"/><path d="M160.76777,17.02674c-.01796-.1109-.03926-.21481-.06087-.31167-.21519-.96047-.6894-1.81411-1.41014-2.53863-.84767-.87259-2.01066-1.47117-3.45033-1.77166-1.33679-.28295-3.41137-.42075-6.3397-.42075-3.79274,0-6.36618.35006-7.86763,1.07024-1.55928.74939-2.43586,2.15832-2.5357,4.07466l-.04779.92266h4.96182l.17714-.64446c.08827-.32077.24654-.50582.52899-.61886.37346-.15047,1.51515-.40139,4.99348-.40139,2.05449,0,3.52033.09032,4.35643.26849.69609.14834,1.20134.40843,1.50115.77302.04048.05056.08035.10984.11505.17208.18414.31959.39355.91212.42886,2.00766-.37559-.16714-.78679-.2949-1.23178-.38252-1.16512-.22771-3.43146-.33831-6.93048-.33831-4.57984,0-5.99972.37692-6.66964.6604-1.06133.46196-1.82378,1.14873-2.27364,2.04475-.42703.85064-.63491,1.96318-.63491,3.40125,0,1.17387.13362,2.09162.40816,2.80567.2925.76381.8221,1.42471,1.5742,1.96303.75483.55901,1.76686.91132,3.0933,1.07712,1.19891.15028,3.28871.22649,6.21065.22649,2.6684,0,4.47666-.1456,5.52825-.44506.32446-.09215.634-.21374.92772-.36422l-.01887.75335h4.89851v-9.92136c0-1.85901-.07579-3.18781-.23223-4.06199ZM155.93195,24.97511c0,.86015-.34972,1.11582-.69213,1.25244-.49551.19708-1.7693.43255-5.01843.43255-5.03883,0-6.00581-.26842-6.18234-.35071-.27271-.13004-.59261-.39408-.59261-1.26309,0-1.06639.36829-1.28303.48943-1.35421.08553-.04828.41668-.18688,1.3727-.27572.79653-.07134,2.26816-.10763,4.37135-.10763,3.44424,0,4.8489.2543,5.42081.46762.59078.21911.83123.56624.83123,1.19876Z" fill="#fff"/><path d="M95.2545,40.49092c.10359.11826.21966.23838.34946.36038.12918.122.2752.23089.43807.327.16225.0961.34322.17379.54291.23277.19969.05928.41748.08893.65461.08893.488,0,.86866-.11108,1.14199-.33292.27333-.22153.40999-.52107.40999-.89799,0-.40656-.15476-.7114-.46553-.91484-.31015-.20344-.75758-.36787-1.34168-.49361-.31826-.06646-.60656-.15882-.86492-.27707-.25898-.11826-.48238-.26615-.67084-.44369s-.33448-.38253-.43807-.6153c-.10359-.23308-.15539-.49736-.15539-.79315,0-.27333.0518-.53199.15539-.77599s.25835-.45836.46553-.64338c.20718-.18471.46616-.33261.7763-.44338.31077-.11108.66897-.16631,1.07584-.16631.36194,0,.67458.03869.93668.11638.26272.07769.48612.17192.67084.28269s.33324.22559.44369.34384c.11108.11826.19595.21436.25523.28831l-.70953.6543c-.04431-.0518-.11108-.12013-.19969-.20531-.08861-.08487-.20156-.16787-.33823-.2493s-.29579-.14977-.47676-.20531c-.18159-.05554-.39002-.083-.62653-.083-.23713,0-.43995.03151-.61031.09423-.16974.06272-.31015.14415-.42122.244-.11108.09953-.1922.21248-.244.33792-.0518.12606-.07738.25149-.07738.37723,0,.18471.03869.34197.11607.47115.078.12949.19033.244.33823.34384s.33074.18503.54915.25492c.21779.07052.4674.13885.74822.20531.27395.06646.54166.15351.80438.26054.2621.10733.49673.25149.70391.43246.20718.18128.3713.40313.49361.66554.12169.26241.18284.58191.18284.95914,0,.31795-.06615.61-.19969.87584-.13292.26615-.31576.49736-.54853.69331s-.50859.34759-.82622.45461c-.31826.10702-.6621.16069-1.03153.16069-.34759,0-.66335-.04056-.94791-.122-.28456-.08112-.54354-.18471-.7763-.31046-.23277-.12543-.4362-.26428-.60968-.41592-.17411-.15133-.31639-.3011-.42747-.44899l.75446-.68738Z" fill="#fff"/><path d="M106.23249,42.47567c-.39938,0-.76507-.07208-1.09768-.21623s-.61904-.34197-.8593-.59346c-.24025-.25117-.42871-.54135-.56538-.87053-.13729-.32887-.20531-.68176-.20531-1.05899,0-.37692.06802-.72981.20531-1.05899.13666-.32887.32512-.61904.56538-.87053.24025-.25117.52669-.44899.8593-.59315s.6983-.21623,1.09768-.21623c.3919,0,.75446.07208,1.08707.21623s.62092.34197.86492.59315c.244.25149.43433.54166.57099.87053.13666.32918.20531.68207.20531,1.05899,0,.37723-.06864.73012-.20531,1.05899-.13666.32918-.327.61936-.57099.87053-.244.25149-.5323.44931-.86492.59346s-.69518.21623-1.08707.21623ZM106.23249,41.61044c.26646,0,.50672-.05336.72076-.16069.21467-.10702.39564-.24743.54354-.42122s.26085-.37349.33823-.59908c.07738-.22528.11669-.45617.11669-.69299,0-.22902-.03931-.45648-.11669-.68207-.07738-.22528-.1922-.42684-.34384-.60407-.15164-.17754-.33261-.31982-.54354-.42715-.2103-.10702-.44868-.16069-.71515-.16069-.26584,0-.50609.05367-.72076.16069-.21467.10733-.39564.24774-.54354.42154s-.26022.37317-.33823.59876c-.07738.22559-.11607.45648-.11607.69299,0,.23682.03869.46584.11607.68769.078.22153.1922.42122.34384.59876.15164.17723.33261.31982.54354.42684.21092.10733.44931.16069.71515.16069Z" fill="#fff"/><path d="M113.80643,37.96609h-.93169v-.83153h.93169v-.42154c0-.34728.04992-.64869.14977-.90361.09985-.25523.23277-.46397.39876-.62653.16662-.16256.35695-.28269.57099-.36038.21467-.07769.43995-.11638.67646-.11638.27395,0,.54166.04243.80438.1273.2621.08518.50422.23121.72638.43807l-.49923.64338c-.27333-.22933-.56538-.34384-.87615-.34384-.28831,0-.5192.09236-.69268.27707-.17411.18503-.26085.50297-.26085.95384v.33261h1.4746v.83153h-1.4746v4.50958h-.99784v-4.50958Z" fill="#fff"/><path d="M121.19177,38.00286h-.93169v-.83153h.93169v-1.68552h.99784v1.68552h1.5083v.83153h-1.5083v2.53952c0,.41405.06428.69861.19408.85399.12918.15507.31202.23277.54853.23277.1922,0,.35133-.02933.47739-.08861.12543-.05928.25086-.1479.37692-.26615l.4543.60968c-.21404.20718-.43433.35695-.65961.44931-.2259.09236-.49361.13854-.80376.13854-.54728,0-.94854-.1479-1.20314-.44369-.25523-.29548-.38253-.75758-.38253-1.38599v-2.63936Z" fill="#fff"/><path d="M127.88172,37.31925h1.09831l1.15322,3.93674,1.24183-3.93674h.85368l1.24246,3.96981,1.13075-3.96981h1.03153l-1.70799,5.15642h-.9866l-1.19815-3.60381-1.18629,3.60381h-.93169l-1.74106-5.15642Z" fill="#fff"/><path d="M142.89667,41.7106c-.1922.25866-.44556.45087-.75945.57661-.31451.12543-.63777.18846-.97038.18846-.21467,0-.42684-.02777-.63777-.08331-.21092-.05523-.40313-.14758-.57661-.27707-.17411-.12918-.31451-.29548-.42122-.49892-.10733-.20344-.161-.45274-.161-.74853,0-.55446.19408-.99815.58223-1.33076s.94791-.49892,1.67991-.49892c.11794,0,.244.00374.37692.01092.13292.00749.25898.01498.37692.02215.11857.00749.22216.01498.31077.02215.08861.00749.15164.01498.18846.02215v-.18846c0-.38409-.11669-.65961-.34946-.82622-.23277-.16631-.54853-.2493-.94791-.2493-.3919,0-.70267.05367-.93169.16069-.22902.10733-.42122.21623-.57661.32731l-.46553-.67646c.08861-.07395.19595-.1479.32138-.22185.12606-.07395.27333-.14228.44369-.20531.16974-.06272.36194-.11451.57661-.15507s.46179-.06116.74323-.06116c.66522,0,1.18817.161,1.56883.48238.38066.32169.57099.77817.57099,1.36976v2.99943c0,.18128.00374.47864.01123.60438h-.94624l-.00729-.76507ZM142.88544,39.89184c-.02933-.00718-.08674-.01654-.17161-.02777-.08549-.01092-.18347-.02028-.29392-.02746-.11108-.00749-.22965-.01498-.35508-.02247-.12606-.00718-.24774-.01092-.36569-.01092-.28144,0-.50859.03339-.68207.09985-.17411.06646-.31077.14977-.41062.2493-.09985.09985-.16787.21092-.20468.33292-.03744.122-.05554.23838-.05554.34915,0,.28113.0961.49361.28831.63777s.45804.21623.79814.21623c.1922,0,.37505-.03339.54915-.09985.17348-.06646.327-.15539.45992-.26615.13292-.11108.24025-.24025.322-.38815.08112-.1479.12169-.29954.12169-.45461v-.58784Z" fill="#fff"/><path d="M148.70174,38.16242v-.56007c0-.15882-.00374-.32325-.01123-.4933h.95353l.03307.83153c.05928-.08861.13729-.18659.23339-.29361.09548-.10733.21217-.20531.34884-.29392.13666-.08893.29579-.16443.47739-.22746.18097-.06272.3894-.09423.62653-.09423.11045,0,.21217.00749.30453.02215.09236.01498.1791.03713.26085.06646l-.22216.93169c-.13292-.0518-.30266-.07769-.50984-.07769-.21467,0-.41249.04087-.59346.122-.18097.08144-.33823.19408-.47115.33823s-.23838.31233-.31576.50453c-.078.1922-.11669.39564-.11669.61l-.01123,2.92695h-.99784l.01123-4.31325Z" fill="#fff"/><path d="M160.79769,41.55469c-.05928.06677-.1479.15164-.26584.25523-.11857.10359-.27208.20344-.46054.29923-.18846.0961-.40999.17941-.66522.24961s-.54541.10546-.87053.10546c-.39938,0-.76507-.06677-1.09768-.19969-.33261-.13323-.61717-.32169-.85368-.56569-.23713-.244-.41998-.53574-.54915-.87584s-.19408-.71702-.19408-1.13107c0-.37723.06303-.73012.18846-1.0593.12543-.32856.30328-.61343.5323-.85368s.5011-.43059.81499-.57099c.31451-.14041.65961-.21092,1.03715-.21092.44307,0,.82373.08518,1.14199.25523.31763.17005.57848.39564.78192.67646.20281.28082.35258.60251.44868.96476s.14415.73917.14415,1.13107h-4.06935c.00749.22902.05679.43995.14977.63215.09236.1922.21592.35851.3713.49892s.33261.25149.5323.33261c.19969.08144.41062.122.63215.122.4362,0,.7944-.07395,1.07584-.22185.28082-.1479.48363-.29205.60968-.43246l.56538.59876ZM159.8997,39.28163c-.02995-.39938-.17036-.73917-.42122-1.0203-.25149-.28082-.60656-.42154-1.06461-.42154-.23713,0-.44931.04087-.63777.122-.18846.08144-.34946.18877-.48238.32169s-.23651.28643-.31077.46023c-.07364.17379-.1142.3532-.12169.53792h3.03844Z" fill="#fff"/><path d="M39.51986,10.31416c.39741.57093.76912,1.1713,1.1059,1.78653l.05708-.03058c-.96179-2.78409-2.81353-5.43874-5.2251-7.4873l-.4657-.38234-.47905-.36262c-.33352-.2466-.66774-.47778-.99217-.68581-.32315-.20831-.67257-.42749-1.03945-.62123l-.04075-.02115c-.34076-.17774-.6933-.36148-1.04911-.51807-1.36814-.64494-2.89545-1.13272-4.54302-1.45077-2.71982-.52493-5.5572-.47578-8.20574.14116l-.00057.00029-.00071-.00286-.20261.04601-.00071-.00343c-.45477.10744-.91039.23032-1.35892.36634-2.70988.8224-5.22652,2.11429-7.27817,3.73565l-.57631.45892c-.25926.20574-.49183.39262-.7173.5978-.85899.7301-1.69371,1.5825-2.6308,2.68551-.88611,1.051-1.60639,2.04885-2.20144,3.0507-.70139,1.1673-1.2635,2.26516-1.71913,3.35674-.48061,1.13244-.88384,2.3366-1.19904,3.5802-.29689,1.16987-.51554,2.42347-.64971,3.72593-.10975,1.06557-.13503,2.16429-.07724,3.35874.25472,5.25614,2.14678,10.09194,5.32761,13.61727,3.31501,3.67421,7.70724,5.96995,12.3674,6.46402,4.28234.4532,8.79213-.64837,12.39423-3.02669l-.05963-.12716c-4.12687,2.06628-9.02243,2.52491-13.45697,1.25588-.38279-.10944-.76969-.2346-1.15006-.37148-4.46351-1.60765-8.18871-4.96781-10.48925-9.46071l-.05353-.11744c-.20942-.46035-.42595-.93641-.60442-1.42276-.39627-1.04328-.71034-2.12086-.93297-3.20072-.21468-1.08272-.34885-2.19744-.39926-3.31445-.05282-1.08186-.0159-2.20458.10961-3.33702.47252-4.40117,2.27186-8.71832,5.06637-12.15507.7589-.9307,1.50601-1.72423,2.28422-2.42547.90784-.82554,1.76172-1.50106,2.60978-2.06514.9111-.61665,1.88383-1.16959,2.89006-1.64308.95654-.45006,1.98407-.83726,3.0549-1.15158l-.00071-.01.07653-.01114.15533-.04401-.00057-.00914.07085-.00914v.00057c2.389-.64209,4.81165-.8304,7.19951-.55865l.00014-.00029c.01249.00086.02414.00229.03493.00429l.17549.02229c.11983.01486.23924.02972.34431.04743,5.3624.98442,9.67583,3.65564,12.47587,7.72504Z" fill="#fff"/><path d="M36.43724,36.81948c-.04598.36561-.10071.73997-.16201,1.12309-.94578,1.05305-2.80011,2.47172-4.49681,3.25549.11166-.27366.22112-.56703.3262-.8801.42254-1.26979.75312-2.92052.75312-5.36376v-.36343c.00219-.70495.00219-1.49308-.02408-1.97473.46413-.31307.96548-.66555,1.55877-1.09684.64146-.45757,1.58943-1.31577,2.16521-1.86965.17295,2.05136.24301,4.34355-.12041,7.16993Z" fill="#fff"/><path d="M20.55174,36.02039c1.03774-.14887,3.39996-.50792,4.50118-.81442,1.77989-.49477,4.71354-1.55877,7.12395-2.93364.03504-.02408.07881-.05254.12041-.081.5123-.34153,1.04868-.72029,1.70108-1.19317.81442-.58017,2.17396-1.86965,2.48484-2.19367l.31308-.31745c.08537-.08318.17076-.16637.25395-.25176,1.76676-1.77551,3.18105-3.7437,4.21439-5.85854.21674-.4488.42911-.93045.64584-1.47339.11166-.49916.17952-.99612.21455-1.48654.15544-2.27685-.45318-4.38295-1.15813-5.49292-.05254.21016-.11604.42691-.1861.64584-.53856,1.69451-1.51499,3.57949-2.27029,5.03755l-.06129.11823c-.64146,1.23038-1.44712,2.40603-2.39072,3.49192,0,.00218-.00218.00437-.00437.00656-.01752.0219-.03721.04598-.05692.07006-.02189.02627-.04379.05473-.06568.081l-.01971.01971c-.48602.50353-.93482.94139-1.37706,1.34421-.47946.43568-.98299.85602-1.49748,1.25009-.35028.26928-.71152.52544-1.07932.78377l-.36122.25395-.01314.00877c-.11823.08318-.23645.16857-.35468.25395-.41596.29993-.84943.61081-1.31138.87791-.2036.11822-.41596.24082-.63052.35905l-.17952.09633c-.29993.16201-.64146.33495-1.04647.52761-.07444.0416-.15106.07881-.23426.11166-.78158.36561-2.35349.98299-2.42136,1.00926-1.47996.54513-3.70209,1.23038-5.9067,1.40552-1.17127.08977-2.63701-.16528-3.11427-.27694l-.05145-.25725c-.00875-.03721-.01533-.07443-.02189-.10946-.01971-.09851-.03721-.20141-.05473-.3043-.02627-.1445-.0416-.29775-.05254-.49916-.01533-.27366-.01314-.55827.00875-.8976v-.00219c.0219-.33059.05692-.67211.10946-1.0421.05912-.39188.12698-.78158.20799-1.1669.08319-.4072.18171-.83412.29555-1.26321.10946-.42035.23645-.85602.38751-1.33548.14231-.4488.29993-.91293.47288-1.38144.17733-.47288.36343-.94358.55828-1.39896.21016-.4904.4269-.95672.63927-1.39019.22768-.45975.47069-.91731.71808-1.35298.24958-.44224.51667-.87572.79252-1.2895.29556-.44224.58017-.83412.86916-1.19973.30431-.38532.62175-.74873.94139-1.08151.25177-.26053,0,0,1.15951-1.19673.83083.73055,1.19446.99628,2.01027,1.744.49733.45582.97996.92774,1.4461,1.41542.53675.56155,1.05173,1.14412,1.53964,1.74865.52805.65426,1.02459,1.33443,1.4791,2.04189.47244.73537.89968,1.5006,1.26448,2.29514.3709.80783.67709,1.64642.89578,2.50839.00219.01096.00657.0219.00875.03285.23426-.16858.45976-.33278.68307-.50353.50134-.38313.98955-.79252,1.45587-1.21725.38751-.35249.78158-.73561,1.20192-1.1647-.00437-.01094-.01094-.02408-.01533-.03504-.17733-.4094-.38969-.84945-.5911-1.23913-.01533-.03284-.02846-.05912-.03941-.081l-.04598-.081c-2.62934-4.9259-7.49394-9.45336-9.43803-10.87203-.64584-.47069-2.35787-1.72078-3.72179-.89322l-.07663.04597c-.84725.52544-1.68793,1.22163-2.50892,2.08202l-.91293,1.03116.00218-.00219-.00218.00219c-3.62766,4.41141-6.24386,11.40401-6.08405,16.28614.07225,2.19804.74873,3.85971,2.01196,4.93685,1.02459.87133,2.33597,1.42523,3.90132,1.64416.82098.11603,1.73391.13573,2.72348.06348" fill="#fff"/></svg>