<svg xmlns="http://www.w3.org/2000/svg" viewBox="0 0 342 96"><path fill="#fff" d="M153.9878 34.7796c-.4628-2.0318-1.4597-3.8226-2.9649-5.3318-1.7887-1.8444-4.2306-3.1006-7.2575-3.734-2.8202-.5955-7.1852-.8852-13.3429-.8852-7.9803 0-13.3915.7366-16.544 2.2519-3.2779 1.5714-5.1223 4.5352-5.3324 8.57l-.1005 1.9408h10.4305l.3727-1.3555c.185-.6727.5198-1.062 1.1197-1.3018.785-.3165 3.1858-.8443 10.4964-.8443 4.3216 0 7.4049.19 9.1635.5647 1.4649.312 2.527.8591 3.1576 1.626.1012.1262.1844.2473.2484.362.3874.6724.8285 1.9191.9027 4.2244-.7913-.3527-1.6563-.6218-2.5916-.806-2.4501-.479-7.2204-.7116-14.5843-.7116-9.6334 0-12.62.7929-14.0291 1.3891-2.2223.9672-3.8247 2.4099-4.7793 4.2954-.897 1.786-1.3316 4.1262-1.3316 7.16 0 2.4806.2784 4.411.8514 5.9016.6256 1.6129 1.7415 3.0004 3.3177 4.1288 1.5871 1.1754 3.7133 1.9167 6.4995 2.2659 2.5295.3161 6.9246.4764 13.0643.4764 5.6103 0 9.4152-.3061 11.6335-.9358a10.6106 10.6106 0 0 0 1.9533-.7683l-.0403 1.5864h10.2974v-20.869c0-3.9072-.1582-6.7049-.4834-8.5532a11.331 11.331 0 0 0-.1268-.6469Zm-11.506 20.0094c-1.0423.4145-3.7217.9098-10.556.9098-10.599 0-12.6329-.5647-13.0042-.7377-.5736-.2736-1.2465-.829-1.2465-2.6569 0-1.4858.3483-2.4442 1.0358-2.8485.1377-.0785.8125-.387 2.8817-.58 1.6806-.15 4.7786-.2263 9.2006-.2263 7.246 0 10.1962.5345 11.3947.983 1.249.4631 1.7561 1.1933 1.7561 2.5221 0 1.807-.7388 2.3458-1.4623 2.6345ZM162.5521 9.1433V64.8825h10.2896V8.5739h-10.2896v.5694zM229.5372 34.4428c-1.0724-2.8734-3.0673-5.1908-5.9214-6.8672-1.8387-1.0606-4.0437-1.765-6.753-2.1614-2.5622-.368-6.1737-.5466-11.0452-.5466-5.7933 0-9.8056.3599-12.2666 1.1-.7875.2405-1.5237.5446-2.2056.9108v-1.7201h-10.289v63.79h10.289V63.0031c.7241.3725 1.5065.6787 2.3439.9167 2.4565.7039 6.2332 1.0466 11.5425 1.0466 7.1616 0 12.1213-.433 15.163-1.324 3.2754-.9573 5.9118-2.9555 7.8338-5.9392 1.8534-2.8754 2.7542-7.0537 2.7542-12.7732 0-3.9761-.3988-7.2532-1.1857-9.7402-.08-.2461-.1632-.4978-.2599-.747Zm-9.9567 16.9965c-.4366 1.2687-1.0807 2.1806-1.9668 2.7792-.5083.3363-1.5768.8081-3.7037 1.0931-1.8733.2572-4.842.3872-8.8274.3872-7.0443 0-9.8395-.7306-10.9445-1.3434l-.0141-.0079-.014-.0076c-1.0033-.5336-1.707-1.4115-2.1519-2.6839-.5276-1.5075-.7945-3.893-.7945-7.0904 0-2.689.2484-4.7754.7388-6.2014.212-.6038.4673-1.121.7772-1.5712.3342-.4914.7158-.8799 1.173-1.197.4865-.3275 1.5557-.7948 3.765-1.0788 2.0059-.2578 5.1961-.3885 9.4824-.3885 6.5366 0 9.1949.7268 10.2743 1.3365l.0166.0094.0167.009c.6127.3294 1.096.7584 1.4783 1.3117.2688.3862.4897.8283.6594 1.319.5166 1.474.7772 3.8155.7772 6.9654 0 2.7654-.2497 4.905-.742 6.3596ZM274.6146 36.5853c.1242.157.233.3135.3124.4496l.0154.0265.0166.026c.3745.5953.63 1.2922.7805 2.1304.2228 1.2244.3354 3.612.3354 7.0993v18.5654h10.296V44.5923c0-3.9697-.1772-6.85-.5416-8.8045a9.1999 9.1999 0 0 0-.1094-.5474c-.4738-2.1249-1.4366-3.9706-2.8593-5.4781l-.014-.015-.014-.0147c-1.6916-1.7139-4.0111-2.9186-6.8953-3.5808-2.7197-.6228-6.4842-.9255-11.51-.9255-5.9828 0-10.248.4283-13.0387 1.3092-.9763.3113-1.8694.706-2.676 1.182V8.574h-10.2898v56.3086h10.2897V46.3171c0-3.8943.1876-5.6114.345-6.3662.1928-.9059.609-1.7072 1.2702-2.4423.036-.0403.0622-.0714.0897-.0988l.0154-.0156.0204-.0217c.867-.9166 2.2312-1.6175 4.0559-2.0833 2.1082-.5316 5.2126-.8017 9.2217-.8017 3.5494 0 6.2179.1989 7.933.5913 1.4168.3292 2.4118.8366 2.9508 1.5065ZM339.8385 35.4356a11.2496 11.2496 0 0 0-.128-.6556c-.4527-2.0203-1.4502-3.8159-2.9662-5.3398-1.783-1.8355-4.2293-3.0945-7.2576-3.7266-2.8118-.5952-7.1756-.885-13.3352-.885-7.9777 0-13.3908.7363-16.549 2.2511-3.2799 1.5763-5.1238 4.54-5.3337 8.5708l-.1005 1.9408h10.4369l.3726-1.3556c.1856-.6747.5185-1.064 1.1126-1.3017.7856-.3165 3.1871-.8443 10.5035-.8443 4.3216 0 7.4049.19 9.1635.5647 1.4642.312 2.527.8591 3.1576 1.626.0852.1064.169.2311.242.362.3874.6723.8279 1.9186.902 4.223-.79-.3516-1.6549-.6203-2.5909-.8046-2.4508-.479-7.2179-.7116-14.5779-.7116-9.6334 0-12.62.7929-14.0291 1.3891-2.2324.9717-3.8362 2.4163-4.7825 4.301-.8982 1.7893-1.3355 4.1294-1.3355 7.1543 0 2.4692.281 4.3996.8586 5.9016.6152 1.6067 1.7292 2.9968 3.3112 4.1291 1.5878 1.1759 3.7165 1.9169 6.5066 2.2657 2.5218.3161 6.9175.4764 13.0637.4764 5.6128 0 9.4164-.3063 11.6284-.9362a10.655 10.655 0 0 0 1.9513-.766l-.0397 1.5845h10.3038v-20.869c0-3.9103-.1595-6.7053-.4885-8.5441ZM328.2107 54.789c-1.0422.4145-3.7215.9098-10.556.9098-10.5988 0-12.6327-.5646-13.004-.7377-.5737-.2736-1.2466-.829-1.2466-2.6569 0-2.243.7747-2.6987 1.0295-2.8485.1799-.1015.8764-.393 2.8874-.58 1.6755-.15 4.771-.2263 9.1949-.2263 7.2447 0 10.1993.5349 11.4023.9836 1.2427.4609 1.7484 1.191 1.7484 2.5215 0 1.8093-.7356 2.347-1.4559 2.6345Z"/><path fill="#fff" d="M210.3152 80.9536c-.4358-.3806-.9293-.6839-1.4806-.9096a11.9424 11.9424 0 0 0-1.692-.548c-.5906-.1398-1.1157-.2836-1.5738-.4319-.4594-.147-.844-.3262-1.1551-.5362s-.5474-.451-.7114-.7232c-.1628-.2718-.2442-.6025-.2442-.991 0-.2646.0539-.5284.1628-.7936.109-.2638.2795-.5014.5132-.7107.2337-.21.529-.3814.886-.5133.3584-.1319.785-.1982 1.2838-.1982.4975 0 .9359.0578 1.3179.1746.3806.1168.7153.2605 1.0028.4318.2875.1713.525.3459.7114.5244.1865.1792.3269.323.42.432l1.4925-1.3764c-.1247-.1556-.3032-.3577-.5368-.6064-.2323-.2488-.5448-.4903-.9333-.7233-.3885-.233-.8584-.4312-1.411-.5946-.5514-.1634-1.209-.2448-1.9703-.2448-.8558 0-1.6093.1161-2.263.3498-.6524.233-1.1971.544-1.6329.9326-.4358.3892-.7613.8401-.9792 1.3533s-.3268 1.0574-.3268 1.6323c0 .6222.109 1.178.3268 1.6683.218.4897.525.9208.9215 1.2943.3964.3734.8663.6845 1.411.9333.5434.2487 1.1499.443 1.8193.5827 1.2287.2646 2.1698.6105 2.8222 1.0384.6536.4279.9792 1.069.9792 1.9242 0 .7929-.2875 1.423-.8624 1.889-.575.4666-1.3756.7002-2.4021.7002-.4988 0-.957-.0623-1.377-.187-.42-.1241-.8006-.2875-1.142-.4896-.3425-.2022-.6497-.4312-.9214-.6878a10.9137 10.9137 0 0 1-.735-.7581l-1.587 1.4459c.2336.311.5329.626.8991.9444.365.319.7928.611 1.2825.8748.4895.2646 1.0343.4825 1.6328.653.5986.1714 1.2628.2567 1.994.2567.777 0 1.5002-.113 2.1697-.338.6681-.2251 1.2483-.544 1.7379-.9562.4896-.4122.8742-.8985 1.1538-1.4584.2809-.5592.42-1.1735.42-1.8422 0-.7935-.1286-1.4656-.3845-2.0176-.2573-.5519-.6025-1.0186-1.0384-1.3999ZM229.2327 79.1455c-.5133-.5283-1.1197-.9444-1.8193-1.2476s-1.4623-.4549-2.2866-.4549c-.84 0-1.6093.1516-2.309.4549-.6995.3032-1.302.7193-1.8074 1.2476-.5053.529-.9018 1.1394-1.1892 1.831-.2888.6925-.4319 1.4348-.4319 2.2276 0 .7935.1431 1.5358.4319 2.2276.2874.6923.6839 1.3028 1.1892 1.831.5053.529 1.1079.9452 1.8075 1.2484.6996.3032 1.4688.4548 2.3089.4548.8243 0 1.587-.1516 2.2866-.4548s1.306-.7193 1.8193-1.2483c.5132-.5283.9136-1.1388 1.201-1.8311.2875-.6918.4319-1.4341.4319-2.2276 0-.7928-.1444-1.535-.4319-2.2275-.2874-.6917-.6878-1.3021-1.201-1.8311Zm-.735 5.5163c-.1629.4745-.4004.8946-.7115 1.2601-.3111.3656-.6918.661-1.1433.886-.4503.2258-.9557.338-1.5161.338-.5592 0-1.0606-.1122-1.5043-.338a3.6832 3.6832 0 0 1-1.1433-.8978c-.319-.3735-.5592-.7935-.7232-1.2594a4.359 4.359 0 0 1-.2442-1.4466c0-.4975.0814-.9831.2442-1.4576.164-.4746.4003-.894.7114-1.2595.311-.3656.6918-.661 1.1433-.8867.4515-.225.957-.338 1.516-.338.5605 0 1.062.113 1.5043.338.4437.2258.8244.525 1.1433.8985.319.3728.5605.7968.7233 1.2706.1628.4745.2455.953.2455 1.4347 0 .4982-.0827.9839-.2455 1.4577ZM244.8359 72.6231c-.4975 0-.9714.0814-1.423.2448-.4501.1634-.8505.4161-1.201.758-.3492.342-.6287.781-.8387 1.318-.21.5362-.3151 1.1701-.3151 1.9006v.8867h-1.9597v1.749h1.9597v9.4857h2.0989v-9.4856h3.1017v-1.749h-3.1017v-.6997c0-.9484.1825-1.6172.5487-2.0064.365-.3885.8506-.5828 1.457-.5828.6537 0 1.268.2409 1.843.7233l1.05-1.3534c-.4673-.435-.9766-.7422-1.5279-.9214a5.467 5.467 0 0 0-1.692-.2678ZM261.2578 86.9989c-.2651.1247-.5999.1864-1.0041.1864-.4975 0-.8821-.1635-1.1539-.4897-.273-.3268-.4082-.9254-.4082-1.7963v-5.3417h3.1726v-1.749h-3.1726V74.263h-2.0989v3.5455h-1.9597v1.749h1.9597v5.5517c0 1.3219.2678 2.2939.8047 2.9154.5355.6222 1.3795.9333 2.5307.9333.6524 0 1.2155-.0972 1.6907-.2914.4738-.1943.9372-.5093 1.3874-.9451l-.9556-1.2824c-.2651.2487-.529.435-.7928.5598ZM282.4218 86.4699l-2.6134-8.3502h-1.7957l-2.6121 8.2807-2.4258-8.2807h-2.3101l3.6622 10.8462h1.9597l2.4953-7.5804 2.5203 7.5804h2.0752l3.5927-10.8462h-2.1698l-2.3785 8.3502zM304.2298 86.5166v-5.1311c0-1.2444-.4004-2.2046-1.201-2.8812-.8008-.676-1.9008-1.0147-3.3-1.0147-.592 0-1.1118.0433-1.5633.1287s-.8559.1942-1.213.3261c-.3583.1326-.668.2763-.9332.432-.2638.1554-.4896.311-.676.4665l.9792 1.423c.3268-.2337.7311-.4628 1.2129-.6885.4817-.2251 1.1354-.338 1.9597-.338.8401 0 1.5043.1745 1.9939.5244.4896.3504.735.93.735 1.7379v.3964c-.0773-.0151-.21-.0309-.3963-.0466a37.4162 37.4162 0 0 0-.6537-.0466 169.4398 169.4398 0 0 0-.7928-.0466 14.8012 14.8012 0 0 0-.7929-.023c-1.5397 0-2.717.3498-3.5336 1.0495s-1.2246 1.6328-1.2246 2.799c0 .6223.1128 1.1467.3386 1.5746.2245.428.5198.7777.886 1.0495.365.2724.7693.4666 1.213.5828.4436.1168.8899.1752 1.3414.1752.6997 0 1.3796-.1326 2.0412-.3964.6602-.2645 1.1931-.6688 1.5974-1.213l.0154 1.6094h1.9903c-.0157-.2645-.0236-.89-.0236-1.2713v-1.178Zm-2.0057-1.7491c0 .3262-.0853.6451-.256.9562-.172.3111-.3977.5828-.6773.8165-.2796.233-.6025.42-.9674.5598-.3662.1398-.7508.21-1.1551.21-.7154 0-1.2746-.1516-1.6789-.4548s-.6064-.7502-.6064-1.3415c0-.233.038-.4778.1168-.7344.0775-.2566.2205-.4903.4305-.7003.21-.2093.4975-.3846.8638-.5244.3649-.1398.8427-.21 1.4346-.21.2482 0 .5041.0078.7693.023.2638.0157.5132.0315.7469.0472.2323.0151.4384.0348.6182.0578.1785.0236.2993.0433.361.0584v1.2365ZM320.0567 77.5141c-.4988 0-.9373.0663-1.3179.1982-.382.1326-.7167.2914-1.0042.4785-.2874.1864-.5329.3924-.7337.6182-.2021.2251-.3663.4312-.491.6176l-.0695-1.749h-2.0057a23.61 23.61 0 0 1 .0236 1.0376v1.178l-.0236 9.0727h2.0989l.0236-6.1567c0-.4508.0814-.8788.2455-1.283.1627-.4043.3845-.7581.6641-1.0613s.6104-.5402.991-.7115c.3808-.1706.7968-.2566 1.2484-.2566.4358 0 .7928.0545 1.0724.1634l.4673-1.9597a3.083 3.083 0 0 0-.5486-.1398c-.1943-.0308-.4083-.0466-.6406-.0466ZM339.8778 81.431c-.2022-.762-.5172-1.4387-.9438-2.0294-.428-.5906-.9766-1.0651-1.6447-1.4228-.6694-.3577-1.4702-.5369-2.4021-.5369-.7941 0-1.52.1483-2.1816.4437-.6603.2953-1.2325.6957-1.7143 1.201s-.8558 1.1046-1.1197 1.7957c-.2638.6924-.3963 1.4347-.3963 2.2282 0 .871.1364 1.6638.4082 2.379.2717.7155.6563 1.3291 1.155 1.8424.4976.5132 1.0961.9096 1.7958 1.1899.6996.2796 1.4688.42 2.3089.42.6838 0 1.2942-.0742 1.831-.2218.537-.1477 1.0029-.323 1.3993-.525.3964-.2016.7193-.4116.9688-.6295.248-.2179.4344-.3964.5591-.5368l-1.1892-1.2595c-.2652.2953-.6918.5986-1.2825.9097-.592.311-1.3454.4666-2.2629.4666-.466 0-.9097-.0854-1.3297-.2566-.42-.1707-.7928-.4043-1.1196-.6997s-.5868-.6451-.7811-1.0494c-.1956-.4043-.2993-.848-.315-1.3297h8.5596c0-.8243-.101-1.6171-.3032-2.3791Zm-8.2564.8164c.0157-.3885.101-.7659.256-1.1315a3.052 3.052 0 0 1 .6537-.968c.2795-.2796.6182-.5054 1.0146-.6767.3964-.1706.8427-.2566 1.3415-.2566.9634 0 1.7103.296 2.2393.8867.5277.5914.823 1.306.886 2.1461h-6.3911ZM36.596 91.7975a38.1765 38.1765 0 0 1-2.4192-.7814c-9.3887-3.3816-17.2244-10.4495-22.0635-19.9l-.1126-.2471c-.4405-.9683-.896-1.9697-1.2713-2.9927-.8336-2.1945-1.4942-4.4611-1.9625-6.7325-.4515-2.2774-.7338-4.6222-.8398-6.9718-.111-2.2756-.0334-4.6372.2306-7.0192.9939-9.2576 4.7787-18.3384 10.6567-25.5674 1.5964-1.9577 3.1679-3.6269 4.8048-5.102 1.9095-1.7364 3.7057-3.1573 5.4895-4.3438 1.9164-1.297 3.9625-2.4601 6.0791-3.4561 2.012-.9467 4.1733-1.7611 6.4258-2.4223l-.0015-.021.161-.0234.3267-.0926-.0012-.0193.149-.0192v.0012c5.0251-1.3506 10.121-1.7467 15.1437-1.175l.0004-.0007a.6537.6537 0 0 1 .0734.009l.3691.047c.252.0312.5033.0624.7243.0997 11.2794 2.0706 20.3525 7.6894 26.2422 16.2492a41.3776 41.3776 0 0 1 2.3262 3.7578l.1201-.0643c-2.023-5.8561-5.918-11.44-10.9907-15.749l-.9796-.8043-1.0076-.7627c-.7015-.5188-1.4046-1.005-2.087-1.4426-.6797-.4382-1.4147-.8992-2.1864-1.3067l-.0857-.0445c-.7168-.3738-1.4583-.7604-2.2068-1.0897-2.8778-1.3566-6.0904-2.3826-9.556-3.0517-5.721-1.104-11.6892-1.0007-17.2602.297l-.0013.0006-.0014-.006-.4262.0968-.0015-.0072c-.9566.226-1.915.4844-2.8584.7705-5.7 1.7299-10.9937 4.4473-15.3092 7.8577l-1.2122.9653c-.5454.4328-1.0346.8259-1.5088 1.2575-1.8069 1.5357-3.5626 3.3286-5.5338 5.6488-1.8639 2.2107-3.3789 4.3096-4.6305 6.4169-1.4754 2.4554-2.6577 4.7646-3.6161 7.0607-1.011 2.382-1.8591 4.915-2.5222 7.5307-.6244 2.4608-1.0843 5.0977-1.3665 7.8373-.231 2.2414-.2841 4.5525-.1625 7.065.5357 11.056 4.5156 21.2277 11.2063 28.643 6.9729 7.7285 16.2117 12.5575 26.014 13.5968 9.0077.9532 18.4938-1.3639 26.0706-6.3666l-.1255-.2674c-8.6806 4.3463-18.9781 5.311-28.3059 2.6417Z"/><path fill="#fff" d="M74.0155 65.9196c-1.248.9072-2.3025 1.6487-3.2788 2.3072.0553 1.013.0553 2.6709.0506 4.1537v.7644c0 5.1392-.6953 8.6115-1.584 11.2824a31.0969 31.0969 0 0 1-.6862 1.8512c3.5689-1.6486 7.4694-4.6327 9.4588-6.8477.1289-.8059.244-1.5933.3407-2.3624.7644-5.945.6171-10.7666.2533-15.0815-1.2111 1.1651-3.2051 2.9703-4.5544 3.9327ZM87.453 30.2674c-1.1328 3.5643-3.1867 7.5293-4.7754 10.5962l-.129.2487c-1.3492 2.588-3.0438 5.0609-5.0287 7.345 0 .0046-.0045.0092-.0092.0138-.0368.046-.0782.0967-.1197.1474-.046.0552-.0921.1151-.1381.1703l-.0415.0415c-1.0223 1.0592-1.9664 1.9802-2.8966 2.8275a49.039 49.039 0 0 1-3.1498 2.6295c-.7368.5664-1.4967 1.1052-2.2703 1.6486l-.7598.5342-.0277.0184c-.2486.175-.4973.3546-.746.5342-.875.6309-1.7867 1.2848-2.7584 1.8466-.4282.2486-.875.5066-1.3263.7552l-.3776.2027c-.6308.3407-1.3492.7045-2.2012 1.1098a4.0596 4.0596 0 0 1-.4927.2348c-1.644.769-4.9504 2.0677-5.0932 2.123-3.113 1.1466-7.7871 2.588-12.4244 2.9564-1.8275.14-3.192.0669-4.1855-.076-1.0776-.288-1.8678-.6022-2.433-.8796-.0108-.0497-.0254-.0948-.0358-.145l-.0046-.023c-.0184-.0783-.0322-.1566-.046-.2303-.0415-.2072-.0783-.4236-.1151-.64-.0553-.304-.0876-.6264-.1106-1.05-.0322-.5757-.0276-1.1743.0185-1.8881v-.0046c.046-.6954.1196-1.4138.2302-2.192.1243-.8243.267-1.644.4375-2.4545.175-.8566.3822-1.7546.6216-2.657.2303-.8843.4974-1.8007.8152-2.8092.2993-.944.6308-1.9203.9946-2.9058.373-.9947.7644-1.9847 1.1743-2.9426.442-1.0315.898-2.0124 1.3447-2.9242.4789-.967.99-1.9295 1.5105-2.8459a43.0743 43.0743 0 0 1 1.667-2.7124c.6217-.9302 1.2203-1.7545 1.8282-2.5236a31.306 31.306 0 0 1 1.9802-2.2749c.4677-.484.9285-.9199 1.3913-1.3335.4685-.3233.9295-.6225 1.3869-.8974 1.3072 1.115 2.6223 2.221 3.8892 3.3821a64.4042 64.4042 0 0 1 3.0417 2.9773c1.1291 1.1812 2.2123 2.4066 3.2386 3.6781 1.1107 1.3762 2.1552 2.8069 3.1112 4.295.9938 1.5468 1.8924 3.1564 2.6598 4.8277.7802 1.6992 1.4242 3.4632 1.8842 5.2762.0046.0231.0138.0461.0184.0691.4927-.3545.9671-.7 1.4368-1.0591 1.0545-.8059 2.0815-1.667 3.0623-2.5604.8151-.7414 1.644-1.5473 2.5282-2.4499-.0092-.023-.023-.0506-.0322-.0737-.373-.8611-.8197-1.7867-1.2434-2.6064-.0322-.0691-.0599-.1244-.0829-.1704l-.0967-.1704c-5.5307-10.3613-15.763-19.8846-19.8523-22.8687-1.3585-.99-4.9597-3.6195-7.8286-1.8788l-.1612.0967c-1.5813.9806-3.15 2.2602-4.6901 3.7967-.0189.008-.0422.0235-.061.0353l-.0049.0042c-.1078.1113-.213.2304-.3201.3435-.0669.0689-.1346.1298-.2013.1997.0055-.0006.0111-.001.0166-.0015a47.15 47.15 0 0 0-1.8771 2.1276c-.0176.0097-.0382.0255-.0552.0382l-.0046.0047c-.2345.2852-.4605.5906-.691.8858a56.2098 56.2098 0 0 0-.4194.5378c-.1366.1805-.2747.357-.4098.5409-.139.1848-.2809.3651-.4185.5526l.0274.0022c-6.6153 9.268-11.1934 22.351-10.886 31.7376.1519 4.6235 1.5749 8.1187 4.232 10.3844 2.1551 1.8327 4.9136 2.9978 8.2062 3.4584 1.369.1934 2.864.2545 4.4601.1978l.0272.0247c.2053-.0127.4212-.0426.6283-.058.2052-.0113.4046-.0158.613-.031h.023c-.0146-.008-.0293-.0156-.044-.0235.8375-.0715 1.6807-.1567 2.5416-.2717a.2992.2992 0 0 0 .049.0189h.0185l.0966.0046c.797-.1143 1.6111-.2592 2.4318-.4185.0073-.0013.0142-.002.0215-.0033.4766-.0867 1.0027-.1933 1.5513-.31v-.0163c.9188-.207 1.8449-.4333 2.7787-.6933 3.744-1.0407 9.9146-3.2788 14.9848-6.1708.0737-.0506.1658-.1104.2532-.1703 1.0777-.7184 2.206-1.515 3.5782-2.5098 1.7131-1.2203 4.5728-3.9326 5.2267-4.6142l.6585-.6677c.1797-.175.3592-.35.5342-.5297 3.7163-3.7346 6.6912-7.8746 8.8648-12.323.4558-.944.9025-1.9572 1.3584-3.0992.2349-1.05.3776-2.0953.4513-3.1269.327-4.7892-.9532-9.2192-2.436-11.554-.1106.442-.2441.898-.3915 1.3585Z"/></svg>