<svg xmlns="http://www.w3.org/2000/svg" width="559.486" height="159.958" viewBox="0 0 3064 876">
  <metadata><?xpacket begin="﻿" id="W5M0MpCehiHzreSzNTczkc9d"?>
<x:xmpmeta xmlns:x="adobe:ns:meta/" x:xmptk="Adobe XMP Core 9.1-c002 79.a6a6396, 2024/03/12-07:48:23        ">
   <rdf:RDF xmlns:rdf="http://www.w3.org/1999/02/22-rdf-syntax-ns#">
      <rdf:Description rdf:about=""
            xmlns:dc="http://purl.org/dc/elements/1.1/"
            xmlns:xmp="http://ns.adobe.com/xap/1.0/"
            xmlns:xmpRights="http://ns.adobe.com/xap/1.0/rights/">
         <dc:rights>
            <rdf:Alt>
               <rdf:li xml:lang="x-default">Copyright © 2021–2024 Alpha Software Development Company Limited. All Rights Reserved.</rdf:li>
            </rdf:Alt>
         </dc:rights>
         <xmp:CreatorTool>Adobe Photoshop 25.4 (Windows)</xmp:CreatorTool>
         <xmpRights:Marked>True</xmpRights:Marked>
      </rdf:Description>
   </rdf:RDF>
</x:xmpmeta>
                                                                                                    
                                                                                                    
                                                                                                    
                                                                                                    
                                                                                                    
                                                                                                    
                                                                                                    
                                                                                                    
                                                                                                    
                                                                                                    
                                                                                                    
                                                                                                    
                                                                                                    
                                                                                                    
                                                                                                    
                                                                                                    
                                                                                                    
                                                                                                    
                                                                                                    
                                                                                                    
                           
<?xpacket end="w"?></metadata>
<defs>
    <style>
      .cls-1 {
        fill: #fff;
        fill-rule: evenodd;
      }
    </style>
  </defs>
  <path id="Color_Fill_5" data-name="Color Fill 5" class="cls-1" d="M411,4C520.061,1.948,591.073,27.4,653,71c25.308,17.821,47.642,37.269,66,62,15.977,21.523,31.344,41.4,43,68,3.879,8.853,10.415,17.92,12,29h-1v-1c-7.367-7.329-11.149-19.249-17-28-9.6-14.364-21.611-27.248-32-41-5.838-7.728-15.2-15.112-23-21l-7-8c-13.37-10.086-26.783-21.032-41-30-39.7-25.04-85.616-39.064-138-52-9.187-2.269-17.155.053-27-2-16.415-3.423-44.888-2.387-60,1-10.442,2.34-19.174.48-29,3-25.735,6.6-50.895,12.678-73,22C196.626,127.562,119.165,217.066,74,356c-6.615,20.348-9.736,44.1-15,67-2.766,12.032.642,23.291-2,36-2.861,13.763-1.876,35.97,1,49l2,27c9.964,41.856,17.555,74.833,33,110,7.513,17.107,19.69,33.348,30,48,39.707,56.428,87.768,97.835,155,127,19.388,8.41,41.48,15.019,64,21,11.253,2.988,20.938,1.39,33,4,6.587,1.425,33.826,4.509,41,3,10.442-2.2,24.024.479,35-2,25.669-5.8,51.279-7.622,74-16,11.2-4.13,22.819-8.106,34-13,4-1.749,9.629-6.6,13-6,0.8,1.021.355,0.274,1,2-15.6,8.624-31.18,19.573-48,27-21.291,9.4-44.31,16.218-68,23-72.747,20.825-164.063,4.531-219-19C144.346,803.887,75.6,735.933,35,643c-9.222-21.112-13.85-42.348-21-66-5.761-19.058-7.075-41.931-12-63q-0.5-14-1-28c-2.961-13.629-2.085-52.712,1-66,6.264-26.977,6.878-54.167,15-79C50.806,237.634,102.352,155.205,181,97c26-19.245,52.475-40.1,84-54,27.346-12.061,56.2-21.255,87-30,12.864-3.653,26.4-4.025,39-7C397.43,4.482,406.078,7.084,411,4ZM1456,81h93V591h-93V81Zm686,0h93V254h1c7.44-7.008,19.91-8.648,31-12,28.65-8.661,64.94-10,102-10,73.41,0,149.01,3.318,180,45,26.76,36,27,85.068,27,148V591h-93V461c0-20.838,3.08-47.105-1-66V374c-4.59-21.081-5.41-37.432-21-47-18.25-11.2-50.65-11-79-11-47.52,0-111.99-.13-132,26-15.34,20.032-15,54.122-15,90V591h-93V81ZM421,184c46.776-.514,65.526,29.985,92,50,17.021,12.868,34.138,28.976,47,46,7.605,10.066,19.36,17.862,27,28,16.56,21.973,34.635,42.922,50,66,8.6,12.915,16.007,26.838,24,40,4.638,7.637,5.987,18.693,12,25-2.8,7.772-12.75,14.279-19,19-15.219,11.5-27.1,27.994-45,37v-2l-12-36a407.737,407.737,0,0,0-40-71c-10.039-14.277-22.445-27.032-33-41l-10-9c-6.915-9.136-15.929-20.139-25-27-13.64-10.317-30.358-23.637-42-36h-1v1c-13.332,4.941-37.328,35.935-46,48-36.8,51.19-60.212,105.831-81,174-4.556,14.941-13.464,58.6-10,75,2.992,14.165-2.183,26.272,11,30h9c41.7,9.359,98.085-5.109,130-17,25.327-9.436,48.34-16.584,72-27,27.346-12.039,50.943-29.8,74-46,43.419-30.512,83.416-63.83,112-109,18.585-29.369,34.829-63.314,49-96,2.973-6.858,10.543-37.36,15-40v2c7.605,7.5,9.3,20.55,13,32,7.424,22.986,13.37,71.928,4,99-8.564,24.743-23.419,48.617-37,69-39.6,59.439-90.682,111.48-152,149-38.51,23.564-83.329,36.776-130,52-46.168,15.06-123.207,28.825-174,8-36.193-14.839-60.419-37.465-73-76q-2.5-13.5-5-27V558c-2.236-10.665-1.717-30.258,1-42q4.5-25.5,9-51c22.978-80.564,50.559-138.92,93-199,11.139-15.769,22.658-28.661,36-42l11-12c10.133-7.643,20.219-16.353,31-23C411.85,186.626,417.322,186.6,421,184Zm963,406h-93V576h-1c-7.94,7.415-21.45,7.012-34,10-29.39,7-67.53,5-103,5-81.53,0-155.971.32-187-50-6.771-10.981-8.831-25.488-12-40V488c-1.891-8.9-2.154-28.36,0-38,8.442-37.774,16.33-56.585,45-74,18.37-11.159,44.07-9.637,69-15h18c17.74-3.755,42.36-1,62-1,25.36,0,54.54-2.862,77,2l34,2c11.11,2.576,21.98,6.362,32,9v-6c-2.31-3.8-.71-10.112-2-15-3.1-11.72-7.87-22.328-17-28-10.93-6.788-22.75-5.693-38-9-19.64-4.259-44.06-3-67-3-10.63,0-24.04-.932-33,1-6.2,1.338-15.05-.073-20,1-15.81,3.425-32.8-.6-44,7-6.62,4.493-5.19,15.674-10,22-4.91,3.065-18.98,1-26,1H966c0.245-74.94,32.764-93.976,93-109,17-4.241,35.97-1.165,54-5,16.73-3.558,67.54-4.767,85-1l44,1c26.78,5.817,52.28,5.6,74,15,27.12,11.741,49.6,34.5,60,63,4.96,13.572,3.7,30.635,7,46v26c4.31,20.124,1,47.907,1,70V590Zm1680,0h-93V576h-1c-7.69,7.247-20.8,7.088-33,10-29.47,7.038-67.5,5-103,5-75.86,0-151.41,1.194-183-43-7.02-9.823-11.56-22.83-15-36q-0.495-7.5-1-15c-1.76-8.161-3.11-32.393-1-42,7.26-33.121,12.75-56.686,36-73,33.54-23.53,93.11-22,150-22,19.9,0,45.02-2.891,63,1h23c7.42,1.619,16.62.131,25,2,14.24,3.175,28.25,5.113,40,10V362c-1.94-3.139-.84-7.859-2-12-2.78-9.924-7.28-19.957-15-25-10.33-6.749-24.97-7.931-39-11h-12c-16.44-3.472-37.05-2-56-2-10.63,0-24.05-.94-33,1-6.2,1.343-15.05-.078-20,1-15.64,3.4-31.92-.466-43,7-5.99,4.038-8.32,14.787-10,23h-94c-0.44-74.967,32.45-94.163,92-109,17.35-4.323,36.6-1.088,55-5,16.6-3.528,66.64-4.745,84-1l44,1c30.35,6.591,57.26,5.705,81,18,22.58,11.694,41.94,31.782,52,56,11.14,26.822,9,67.466,9,104V590ZM1716,808h-93V231h93v15h2c8.12-7.583,22.44-7.8,35-11,32.93-8.389,76.6-6,117-6,92.75,0,162.24,15.653,190,80,7.04,16.332,8.74,35.667,13,55q0.495,13.5,1,27c3.34,15.738,1.46,56.183-2,71-13.06,56-26.73,83.074-70,109-16.31,9.773-38.83,11.24-60,16l-19,1c-21.33,4.561-47.38,3-72,3-38.13,0-76.99,1.694-108-7-9.19-2.577-18.17-7.593-27-10V808Zm118-496c-7.32,4.393-22.64-1.037-32,1-36.84,8.019-64.89-.67-79,32-5.38,12.466-7.95,29.1-8,46-0.11,38.471-.83,75.69,16,97,17.01,21.536,83.79,19,124,19,33.98,0,79.7.755,100-13,28.07-19.014,32.3-128.106,10-159C1946.87,309.888,1878.59,311.741,1834,312ZM1108,444c-4.62,2.793-13.77-.358-20,1-10.08,2.2-20.99,3.91-30,6-10.51,15.651-9.42,25.363-4,45,23.91,15.2,82.2,11,121,11,15.26,0,34.55,1.935,48-1h15c12.73-2.822,30.23-1.653,40-8,10.78-7,9.47-23.942,6-37C1247.24,436.986,1168.18,444.183,1108,444Zm1680,0c-4.41,2.654-13.03-.3-19,1-11.03,2.411-22.85,4.537-32,7-6.13,11.514-13.31,42.082,4,48,11.16,8.657,37.97,2.474,55,6,14.76,3.055,35.43,1,52,1,34.01,0,76.46,2.864,103-6,9.74-3.253,24.92-20.437,15-35-4.39-15.509-21.49-14.245-38-18C2889.6,439.266,2832.86,443.907,2788,444ZM694,565h2c0.295,21.76,2,44.97,2,69v24c-1.673,7.746-.1,17.347-2,26-2.562,11.667-4.744,25.288-5,38-6.924,5.243-12.045,13.752-19,19-15.291,11.539-30.182,21.6-47,32-6.146,3.8-12.223,8.868-20,11v-2c7.016-8.015,7.559-22.568,11-34,10.527-34.979,8.856-82.134,9-128,7.91-2.47,13.775-9.616,20-14C660.586,595.023,683.783,580.664,694,565Zm1146,96c20.29-.395,35.66.807,47,9,3.35,2.417,5.42,6.562,9,9-1.71,5.165-8.89,11.286-14,13-11.85-18.489-56.77-21.747-56,12,3.37,3.352,4.94,8.317,9,11,8.64,5.708,20.11,5.354,31,9,19.92,6.665,29.16,15.458,34,38,1.35,6.307.56,15.257-2,21-13.66,30.6-60.77,30.916-87,12-5.01-3.612-9.92-5.415-12-12,5.3-3.535,8.52-9.7,15-12,15.78,25.161,76.09,30.338,63-17-3.48-2.2-6.19-6.249-10-8-26.29-12.091-50.93-6.153-60-37-2.18-7.422-2.09-16.209,1-23,2.15-4.716,3.59-9.592,7-13C1821.91,666.089,1832.07,666.366,1840,661Zm345,46h28v16h-28v85h-19V723h-17c-1.32-3.856-1.07-10.614-1-16h18c-0.74-21.677,4.6-37.795,19-44,13.54-5.832,41.16-1.39,44,10-4.29,3.04-5.09,8.67-11,10-6.44-8.774-26.55-7.486-30,3C2184.51,690.409,2184.86,699.018,2185,707Zm122-32h18c2.78,8.258,1.08,22.9,1,33h28v15h-28c-0.16,20.682-1.98,46.622,2,64,13.28,9.071,16.85,3.238,29-1,1.18,3.737,4.36,7.577,7,10-0.63,1.754-.19.971-1,2-7.74,11.725-40.63,14.747-50,2-10.47-14.239-6.4-52.238-6-76-4.36-1.488-12.07-1.075-18-1V708h17C2308.78,699.742,2307.08,685.1,2307,675Zm-291,29c27.78-.491,46.02,11.944,54,31,14.7,35.134-9.59,66.31-37,73-43.76,10.68-75.08-36.6-59-74,4.41-10.25,15.71-21.641,26-26C2004.82,705.956,2011.56,706.708,2016,704Zm1047,58h-78v1c2.76,4.481,2.17,10.813,5,15,6.76,9.991,26.73,19.106,44,12,6.09-2.5,10.27-8.489,17-10,2.7,4.227,7.24,7.091,9,12h-1c-7.56,11.648-35.58,21.512-57,15-23.61-7.178-46.97-38.461-33-72,8.15-19.558,35.24-40.564,65-28C3052.34,714.744,3063.17,735.755,3063,762Zm-325,46h-18V795h-1c-15.19,23.675-77.1,16.832-66-26,6.94-26.774,34.04-25.723,66-25a51.86,51.86,0,0,0-2-15c-5.47-3.675-13.51-10.718-24-9-10.89,1.783-17.56,4.942-25,9-1.41.771-1.15,1.518-2,0-3.35-2.564-7.57-8.757-9-13,8.73-2.926,16.44-8.56,27-11,6.66-1.539,18.9-.284,24,1,13.73,3.457,23.48,7.791,28,20C2741.73,741.5,2738.17,787.209,2738,808Zm153-102-3,18c-48.48-3.981-39.64,38.273-39,84h-19V706h18q0.495,7.5,1,15h1v-1C2861.58,708.88,2868.14,703.188,2891,706Zm-436,4c1.78,16.654,9.99,34.848,15,50,2.58,7.808,2.3,18.15,7,24v-1c4.29-6.323,4.39-15.124,7-23,5.2-15.664,13.38-32.746,16-50h17q11.505,37.5,23,75h1c0.79-15.215,9.51-35.3,14-49,2.64-8.043,2.32-18.744,7-25,3.49-2.28,13.65-1.131,19-1-0.93,8.654-5.33,16.683-8,24-5.38,14.748-8.87,29.2-14,43-3.46,9.3-4.1,22.743-10,30-3.49,2.28-13.65,1.131-19,1v-1h-1c-1.62-15.247-9.97-31.458-15-45-2.53-6.812-2.75-15.786-7-21v2c-2.98,4.128-3.03,9.708-5,15-3.9,10.481-8.1,22.517-12,33q-2.505,8.5-5,17h-18v-1h-1q-16.005-48.5-32-97h21Zm531,38h57C3042.56,710.686,2985.5,711.85,2986,748Zm-971-27c-12.07,8.206-20.23,8.84-25,25-6.7,22.706,13.67,52.314,38,46C2065.87,782.171,2064.54,719.762,2015,721Zm704,38c-16.07-.831-40.34-4.566-45,9-4.46,4.614-2.51,12.119-1,18,15.75,10.965,40.09,8.774,46-10V759Z"/>
</svg>
