<?xml version="1.0" encoding="UTF-8"?><svg id="a" xmlns="http://www.w3.org/2000/svg" xmlns:xlink="http://www.w3.org/1999/xlink" viewBox="0 0 140 40"><defs><radialGradient id="b" cx="-379.6225" cy="-176.2707" fx="-379.6225" fy="-176.2707" r="105.0533" gradientTransform="translate(-30.3206 68.3723) rotate(112.1452) scale(.1904 .1743)" gradientUnits="userSpaceOnUse"><stop offset=".0483" stop-color="#acd6f2"/><stop offset=".2449" stop-color="#60bcea"/><stop offset=".4408" stop-color="#1ba5e2"/><stop offset=".5318" stop-color="#009ce0"/><stop offset=".6196" stop-color="#0099dc"/><stop offset=".6944" stop-color="#0091d2"/><stop offset=".7643" stop-color="#0084c0"/><stop offset=".7694" stop-color="#0083bf"/><stop offset=".8032" stop-color="#0076b0"/><stop offset=".8822" stop-color="#005e93"/><stop offset=".9505" stop-color="#004f81"/><stop offset="1" stop-color="#004a7b"/></radialGradient><radialGradient id="c" cx="-374.2701" cy="-130.6357" fx="-374.2701" fy="-130.6357" r="163.6591" gradientTransform="translate(-9.9905 -31.2756) rotate(-140.2567) scale(.1845 .1418) skewX(.2715)" gradientUnits="userSpaceOnUse"><stop offset=".0231" stop-color="#d5411f"/><stop offset=".6719" stop-color="#d5411f"/><stop offset=".7489" stop-color="#d6451f"/><stop offset=".8275" stop-color="#dc511f"/><stop offset=".9067" stop-color="#e5651f"/><stop offset=".9859" stop-color="#f2821f"/><stop offset="1" stop-color="#f5881f"/></radialGradient><radialGradient id="d" cx="-365.633" cy="-182.0455" fx="-365.633" fy="-182.0455" r="114.3029" gradientTransform="translate(97.6548 46.5746) scale(.1904)" gradientUnits="userSpaceOnUse"><stop offset=".4256" stop-color="#0083bf"/><stop offset=".4963" stop-color="#0076b0"/><stop offset=".6616" stop-color="#005e93"/><stop offset=".8047" stop-color="#004f81"/><stop offset=".9082" stop-color="#004a7b"/></radialGradient><radialGradient id="e" cx="-366.7192" cy="-173.3708" fx="-366.7192" fy="-173.3708" r="143.1976" xlink:href="#d"/><radialGradient id="f" cx="-366.7149" cy="-173.3692" fx="-366.7149" fy="-173.3692" r="143.2029" xlink:href="#d"/><radialGradient id="g" cx="-366.7166" cy="-173.5736" fx="-366.7166" fy="-173.5736" r="142.49" xlink:href="#d"/><radialGradient id="h" cx="-366.5536" cy="-173.5314" fx="-366.5536" fy="-173.5314" r="142.6143" xlink:href="#d"/><radialGradient id="i" cx="-363.0717" cy="-174.1659" fx="-363.0717" fy="-174.1659" r="139.5614" xlink:href="#d"/><radialGradient id="j" cx="-374.1596" cy="-170.7329" fx="-374.1596" fy="-170.7329" r="138.6646" xlink:href="#d"/><radialGradient id="k" cx="-370.2733" cy="-172.573" fx="-370.2733" fy="-172.573" r="142.1564" xlink:href="#d"/><radialGradient id="l" cx="-368.8951" cy="-177.2731" fx="-368.8951" fy="-177.2731" r="148.5232" xlink:href="#d"/><radialGradient id="m" cx="-368.0493" cy="-174.3649" fx="-368.0493" fy="-174.3649" r="143.6795" xlink:href="#d"/><radialGradient id="n" cx="-367.4913" cy="-173.4487" fx="-367.4913" fy="-173.4487" r="141.5177" xlink:href="#d"/><radialGradient id="o" cx="-367.0058" cy="-173.4202" fx="-367.0058" fy="-173.4202" r="141.8848" xlink:href="#d"/><linearGradient id="p" x1="21.8683" y1="8.181" x2="27.0447" y2="36.0692" gradientUnits="userSpaceOnUse"><stop offset="0" stop-color="#d5411f"/><stop offset=".1747" stop-color="#e25e1f"/><stop offset=".3859" stop-color="#ef7c1f"/><stop offset=".5053" stop-color="#f5881f"/><stop offset=".6187" stop-color="#f3831f"/><stop offset=".7391" stop-color="#ed761f"/><stop offset=".8627" stop-color="#e3611f"/><stop offset=".9877" stop-color="#d6441f"/><stop offset="1" stop-color="#d5411f"/></linearGradient><linearGradient id="q" x1="25.2335" y1="7.4228" x2="30.4554" y2="35.5562" xlink:href="#p"/><linearGradient id="r" x1="16.8609" y1="30.5228" x2="17.2207" y2="30.5228" gradientUnits="userSpaceOnUse"><stop offset=".1617" stop-color="#d5411f"/><stop offset=".2787" stop-color="#df571f"/><stop offset=".4463" stop-color="#eb721f"/><stop offset=".5962" stop-color="#f2821f"/><stop offset=".7123" stop-color="#f5881f"/><stop offset="1" stop-color="#f5881f"/></linearGradient><linearGradient id="s" x1="18.8503" y1="31.4794" x2="18.8979" y2="31.4794" xlink:href="#r"/><linearGradient id="t" x1="14.9983" y1="33.3326" x2="15.3473" y2="10.9637" gradientUnits="userSpaceOnUse"><stop offset=".1617" stop-color="#d5411f"/><stop offset=".3796" stop-color="#e05a1f"/><stop offset=".7123" stop-color="#f5881f"/><stop offset="1" stop-color="#f5881f"/></linearGradient><linearGradient id="u" x1="14.4698" y1="21.4896" x2="36.9222" y2="21.4896" gradientUnits="userSpaceOnUse"><stop offset="0" stop-color="#f5881f"/><stop offset=".2134" stop-color="#f2821f"/><stop offset=".471" stop-color="#ec741f"/><stop offset=".7503" stop-color="#e15b1f"/><stop offset=".9903" stop-color="#d5411f"/></linearGradient><linearGradient id="v" x1="17.0227" y1="31.0006" x2="19.1531" y2="31.0006" gradientUnits="userSpaceOnUse"><stop offset="0" stop-color="#f5881f"/><stop offset=".2087" stop-color="#f3831f"/><stop offset=".4322" stop-color="#ed761f"/><stop offset=".6625" stop-color="#e3611f"/><stop offset=".8963" stop-color="#d6431f"/><stop offset=".9146" stop-color="#d5411f"/></linearGradient></defs><path d="M62.9671,14.5347c-.1914-.84-.6034-1.5803-1.2257-2.2042-.7395-.7624-1.7489-1.2818-3.0003-1.5436-1.1659-.2462-2.9704-.366-5.516-.366-3.2991,0-5.5361.3045-6.8393.9309-1.3551.6496-2.1176,1.8749-2.2044,3.5429l-.0416.8023h4.312l.154-.5604c.0765-.2781.2149-.4391.4629-.5382.3245-.1308,1.317-.349,4.3392-.349,1.7865,0,3.0612.0785,3.7882.2335.6056.129,1.0446.3552,1.3053.6722.0418.0521.0762.1022.1027.1496.1601.278.3425.7934.3732,1.7464-.3271-.1458-.6847-.2571-1.0714-.3332-1.0129-.198-2.9849-.2942-6.0292-.2942-3.9825,0-5.2171.3278-5.7997.5743-.9187.3998-1.5811.9962-1.9758,1.7757-.3708.7384-.5505,1.7058-.5505,2.96,0,1.0255.1151,1.8236.352,2.4397.2586.6668.7199,1.2404,1.3715,1.7069.6561.4859,1.5351.7923,2.6869.9367,1.0457.1307,2.8627.1969,5.4008.1969,2.3193,0,3.8922-.1265,4.8093-.3868.2821-.0801.5516-.1862.8075-.3176l-.0167.6558h4.2569v-8.6273c0-1.6152-.0654-2.7718-.1998-3.5359-.0143-.0883-.0331-.1811-.0524-.2674ZM58.815,21.7175c0,.747-.3054.9697-.6045,1.0891-.4309.1714-1.5385.3761-4.3639.3761-4.3816,0-5.2224-.2334-5.3759-.305-.2371-.1131-.5153-.3427-.5153-1.0983,0-.6143.144-1.0104.4282-1.1776.0569-.0325.3359-.16,1.1913-.2398.6948-.062,1.9755-.0936,3.8036-.0936,2.9955,0,4.2151.221,4.7106.4064.5164.1915.726.4933.726,1.0427Z" fill="#e85c21"/><polygon points="66.5076 3.7012 66.5076 3.9366 66.5076 26.2166 66.5076 26.9793 67.2704 26.9793 69.9986 26.9793 70.7614 26.9793 70.7614 26.2166 70.7614 3.9366 70.7614 3.7012 66.5076 3.7012" fill="#e85c21"/><path d="M94.1994,14.3955c-.4433-1.1879-1.268-2.1459-2.4479-2.8389-.7601-.4385-1.6716-.7297-2.7917-.8935-1.0592-.1522-2.5522-.226-4.5661-.226-2.395,0-4.0537.1488-5.0711.4548-.3255.0994-.6299.2251-.9118.3765v-.7111h-4.2535v26.3709h4.2535v-10.7258c.2993.154.6228.2806.969.379,1.0155.291,2.5768.4327,4.7717.4327,2.9606,0,5.011-.179,6.2684-.5473,1.354-.3957,2.444-1.2218,3.2385-2.4553.7662-1.1887,1.1386-2.916,1.1386-5.2805,0-1.6437-.1649-2.9985-.4902-4.0266-.0331-.1018-.0675-.2058-.1075-.3088ZM90.39,18.7927c0,1.1432-.1032,2.0278-.3068,2.6291-.1805.5245-.4468.9015-.8131,1.1489-.2101.139-.6519.3341-1.5311.4519-.7744.1063-2.0017.1601-3.6493.1601-2.9121,0-4.0677-.302-4.5245-.5554l-.0058-.0032-.0058-.0031c-.4147-.2206-.7056-.5835-.8896-1.1095-.2181-.6232-.3285-1.6094-.3285-2.9312,0-1.1116.1027-1.9741.3054-2.5636.0876-.2496.1932-.4634.3213-.6495.1382-.2032.2959-.3638.4849-.4949.2011-.1354.6431-.3286,1.5565-.446.8292-.1066,2.1481-.1606,3.92-.1606,2.7023,0,3.8012.3004,4.2474.5525l.0069.0039.0069.0038c.2533.1361.4531.3135.6111.5422.1112.1597.2025.3424.2726.5453.2136.6094.3213,1.5774.3213,2.8795Z" fill="#e85c21"/><path d="M117.4254,14.7252c-.1959-.8784-.5939-1.6414-1.182-2.2647l-.0058-.0062-.0058-.0061c-.6993-.7086-1.6581-1.2066-2.8505-1.4804-1.1243-.2575-2.6806-.3826-4.7582-.3826-2.4733,0-4.2366.1771-5.3902.5412-.4036.1287-.7728.2919-1.1063.4886V3.7012h-4.2538v23.278h4.2538v-7.675c0-1.6099.0775-2.3198.1427-2.6318.0797-.3745.2517-.7058.5251-1.0097.0148-.0166.0257-.0295.0371-.0408l.0064-.0065.0085-.009c.3584-.3789.9224-.6687,1.6767-.8612.8716-.2198,2.1549-.3315,3.8123-.3315,1.4673,0,2.5705.0822,3.2795.2445.5857.1361.997.3459,1.2199.6228.0513.0649.0963.1296.1292.1859l.0064.011.0069.0108c.1548.2461.2604.5342.3226.8807.0921.5062.1387,1.4932.1387,2.9349v7.675h4.2564v-8.388c0-1.641-.0733-2.8318-.2239-3.6398-.0132-.0805-.0291-.155-.0453-.2263Z" fill="#e85c21"/><path d="M139.7981,14.8059c-.0156-.0964-.0341-.1868-.0529-.271-.1871-.8352-.5995-1.5775-1.2262-2.2075-.7371-.7588-1.7484-1.2793-3.0003-1.5406-1.1624-.246-2.9664-.3659-5.5128-.3659-3.298,0-5.5358.3044-6.8414.9306-1.3559.6516-2.1181,1.8768-2.205,3.5432l-.0416.8023h4.3146l.154-.5604c.0768-.2789.2144-.4398.46-.5381.3247-.1308,1.3175-.349,4.3422-.349,1.7865,0,3.0612.0785,3.7882.2335.6053.129,1.0446.3552,1.3053.6722.0352.044.0699.0955.1.1496.1601.2779.3422.7931.3729,1.7458-.3266-.1453-.6842-.2564-1.0711-.3326-1.0132-.198-2.9839-.2942-6.0265-.2942-3.9825,0-5.2171.3278-5.7997.5743-.9229.4017-1.5859.9989-1.9771,1.778-.3713.7397-.5521,1.7071-.5521,2.9576,0,1.0208.1162,1.8188.3549,2.4397.2543.6642.7149,1.2389,1.3689,1.707.6564.4861,1.5364.7925,2.6898.9366,1.0425.1307,2.8597.1969,5.4006.1969,2.3203,0,3.8927-.1266,4.8072-.387.2821-.0801.5513-.1859.8067-.3167l-.0164.6551h4.2596v-8.6273c0-1.6165-.0659-2.772-.2019-3.5322ZM135.593,21.7175c0,.748-.3041.9703-.6019,1.0891-.4309.1714-1.5385.3761-4.3639.3761-4.3816,0-5.2224-.2334-5.3759-.305-.2371-.1131-.5153-.3427-.5153-1.0983,0-.9273.3202-1.1157.4256-1.1776.0744-.042.3623-.1625,1.1937-.2398.6926-.062,1.9723-.0936,3.8012-.0936,2.995,0,4.2164.2211,4.7137.4066.5137.1905.7228.4924.7228,1.0424Z" fill="#e85c21"/><path d="M82.83,35.2095c.0901.1028.191.2073.3039.3134.1123.1061.2393.2008.3809.2843.1411.0836.2985.1511.4721.2024.1736.0516.363.0773.5692.0773.4243,0,.7554-.0966.993-.2895.2377-.1926.3565-.4531.3565-.7809,0-.3535-.1346-.6186-.4048-.7955-.2697-.1769-.6588-.3199-1.1667-.4292-.2767-.0578-.5274-.1381-.7521-.2409-.2252-.1028-.4195-.2314-.5833-.3858s-.2909-.3326-.3809-.535c-.0901-.2027-.1351-.4325-.1351-.6897,0-.2377.045-.4626.1351-.6748s.2247-.3986.4048-.5595c.1802-.1606.4054-.2892.675-.3855.2702-.0966.5817-.1446.9355-.1446.3147,0,.5866.0336.8145.1012.2285.0676.4227.1495.5833.2458s.2898.1962.3858.299c.0966.1028.1704.1864.2219.2507l-.617.569c-.0385-.045-.0966-.1045-.1736-.1785-.0771-.0738-.1753-.146-.2941-.2168s-.2572-.1302-.4146-.1785c-.1579-.0483-.3392-.0722-.5448-.0722-.2062,0-.3826.0274-.5307.0819-.1476.0545-.2697.1254-.3663.2122-.0966.0866-.1671.1848-.2122.2938-.045.1096-.0673.2187-.0673.328,0,.1606.0336.2974.1009.4097.0678.1126.1655.2122.2941.299s.2876.1609.4775.2217c.1894.0613.4064.1207.6506.1785.2382.0578.471.1335.6995.2266.2279.0933.4319.2187.6121.3761.1802.1576.3229.3505.4292.5787.1058.2282.159.506.159.834,0,.2765-.0575.5304-.1736.7616-.1156.2314-.2746.4325-.477.6029s-.4423.3023-.7185.3953c-.2767.0931-.5757.1397-.897.1397-.3023,0-.5768-.0353-.8243-.1061-.2474-.0705-.4726-.1606-.675-.27-.2024-.1091-.3793-.2298-.5302-.3617-.1514-.1316-.2751-.2618-.3717-.3904l.6561-.5977Z" fill="#0c4f94"/><path d="M92.3761,36.9354c-.3473,0-.6653-.0627-.9545-.188s-.5383-.2974-.7472-.5161c-.2089-.2184-.3728-.4707-.4916-.757-.1194-.286-.1785-.5928-.1785-.9209,0-.3278.0591-.6346.1785-.9209.1188-.286.2827-.5383.4916-.757.2089-.2184.458-.3904.7472-.5158s.6072-.188.9545-.188c.3408,0,.6561.0627.9453.188s.5399.2974.7521.5158c.2122.2187.3777.471.4965.757.1188.2862.1785.5931.1785.9209,0,.328-.0597.6349-.1785.9209-.1188.2862-.2843.5386-.4965.757-.2122.2187-.4629.3907-.7521.5161s-.6045.188-.9453.188ZM92.3761,36.183c.2317,0,.4406-.0464.6268-.1397.1867-.0931.344-.2152.4726-.3663s.2268-.3248.2941-.5209c.0673-.1959.1015-.3967.1015-.6026,0-.1991-.0342-.3969-.1015-.5931-.0673-.1959-.1671-.3712-.299-.5253-.1319-.1544-.2892-.2781-.4726-.3714-.1829-.0931-.3902-.1397-.6219-.1397-.2312,0-.4401.0467-.6268.1397-.1867.0933-.344.2154-.4726.3666s-.2263.3245-.2941.5207c-.0673.1962-.1009.3969-.1009.6026,0,.2059.0336.4051.1009.598.0678.1926.1671.3663.299.5207.1319.1541.2892.2781.4726.3712.1834.0933.3907.1397.6219.1397Z" fill="#0c4f94"/><path d="M98.9621,33.014h-.8102v-.7231h.8102v-.3666c0-.302.0434-.5641.1302-.7857.0868-.2219.2024-.4035.3467-.5448.1449-.1414.3104-.2458.4965-.3134.1867-.0676.3826-.1012.5882-.1012.2382,0,.471.0369.6995.1107.2279.0741.4385.201.6316.3809l-.4341.5595c-.2377-.1994-.4916-.299-.7619-.299-.2507,0-.4515.0803-.6023.2409-.1514.1609-.2268.4374-.2268.8294v.2892h1.2823v.7231h-1.2823v3.9214h-.8677v-3.9214Z" fill="#0c4f94"/><path d="M105.3841,33.046h-.8102v-.7231h.8102v-1.4657h.8677v1.4657h1.3116v.7231h-1.3116v2.2083c0,.36.0559.6075.1688.7426.1123.1348.2713.2024.477.2024.1671,0,.3055-.0255.4151-.0771.1091-.0516.2181-.1286.3278-.2314l.395.5302c-.1861.1802-.3777.3104-.5736.3907-.1964.0803-.4292.1205-.6989.1205-.4759,0-.8248-.1286-1.0462-.3858-.2219-.2569-.3326-.6588-.3326-1.2052v-2.2951Z" fill="#0c4f94"/><path d="M111.2015,32.4515h.955l1.0028,3.4232,1.0799-3.4232h.7423l1.0804,3.452.9833-3.452h.897l-1.4852,4.4838h-.8579l-1.0419-3.1338-1.0316,3.1338h-.8102l-1.514-4.4838Z" fill="#0c4f94"/><path d="M124.258,36.2701c-.1671.2249-.3874.3921-.6604.5014-.2735.1091-.5546.1639-.8438.1639-.1867,0-.3712-.0241-.5546-.0724-.1834-.048-.3505-.1283-.5014-.2409-.1514-.1123-.2735-.2569-.3663-.4338-.0933-.1769-.14-.3937-.14-.6509,0-.4821.1688-.868.5063-1.1572s.8243-.4338,1.4608-.4338c.1026,0,.2122.0033.3278.0095.1156.0065.2252.013.3278.0193.1031.0065.1932.013.2702.0193.0771.0065.1319.013.1639.0193v-.1639c0-.334-.1015-.5736-.3039-.7185-.2024-.1446-.477-.2168-.8243-.2168-.3408,0-.611.0467-.8102.1397-.1991.0933-.3663.188-.5014.2846l-.4048-.5882c.0771-.0643.1704-.1286.2795-.1929.1096-.0643.2377-.1237.3858-.1785.1476-.0545.3147-.0996.5014-.1348s.4016-.0532.6463-.0532c.5785,0,1.0332.14,1.3642.4195.331.2797.4965.6767.4965,1.1911v2.6082c0,.1576.0033.4162.0098.5255h-.8228l-.0063-.6653ZM124.2482,34.6886c-.0255-.0062-.0754-.0144-.1492-.0241-.0743-.0095-.1595-.0176-.2556-.0239-.0966-.0065-.1997-.013-.3088-.0195-.1096-.0062-.2154-.0095-.318-.0095-.2447,0-.4423.029-.5931.0868-.1514.0578-.2702.1302-.3571.2168-.0868.0868-.146.1834-.178.2895-.0326.1061-.0483.2073-.0483.3036,0,.2445.0836.4292.2507.5546s.3983.188.694.188c.1671,0,.3261-.029.4775-.0868.1509-.0578.2843-.1351.3999-.2314.1156-.0966.2089-.2089.28-.3375.0705-.1286.1058-.2605.1058-.3953v-.5112Z" fill="#0c4f94"/><path d="M129.3059,33.1847v-.487c0-.1381-.0033-.2811-.0098-.429h.8292l.0288.7231c.0516-.0771.1194-.1622.2029-.2553.083-.0933.1845-.1785.3033-.2556.1188-.0773.2572-.143.4151-.1978.1574-.0545.3386-.0819.5448-.0819.096,0,.1845.0065.2648.0193.0803.013.1557.0323.2268.0578l-.1932.8102c-.1156-.045-.2632-.0676-.4433-.0676-.1867,0-.3587.0355-.5161.1061-.1574.0708-.2941.1688-.4097.2941s-.2073.2716-.2746.4387c-.0678.1671-.1015.344-.1015.5304l-.0098,2.5452h-.8677l.0098-3.7507Z" fill="#0c4f94"/><path d="M139.8241,36.1345c-.0516.0581-.1286.1319-.2312.2219-.1031.0901-.2366.1769-.4005.2602-.1639.0836-.3565.156-.5785.2171s-.4743.0917-.757.0917c-.3473,0-.6653-.0581-.9545-.1736-.2892-.1159-.5367-.2797-.7423-.4919-.2062-.2122-.3652-.4659-.4775-.7616s-.1688-.6235-.1688-.9835c0-.328.0548-.6349.1639-.9211.1091-.2857.2637-.5334.4629-.7423s.4357-.3744.7087-.4965c.2735-.1221.5736-.1834.9019-.1834.3853,0,.7163.0741.993.2219.2762.1479.503.344.6799.5882.1764.2442.3066.5239.3902.8389s.1254.6428.1254.9835h-3.5386c.0065.1991.0494.3826.1302.5497.0803.1671.1878.3117.3229.4338s.2892.2187.4629.2892c.1736.0708.3571.1061.5497.1061.3793,0,.6908-.0643.9355-.1929.2442-.1286.4205-.254.5302-.3761l.4916.5207ZM139.0432,34.1579c-.026-.3473-.1481-.6428-.3663-.8872-.2187-.2442-.5274-.3666-.9257-.3666-.2062,0-.3907.0355-.5546.1061-.1639.0708-.3039.1641-.4195.2797s-.2057.2491-.2702.4002c-.064.1511-.0993.3071-.1058.4678h2.6421Z" fill="#0c4f94"/><path d="M36.772,20.1988c-.0305.5711-.0857,1.1384-.1694,1.7077-.0152.1161-.0343.2285-.0533.3446,0,.0038-.0019.0095-.0019.0133-.0038.019-.0057.04-.0076.059-.019.118-.0419.2342-.0647.3503-.4074,2.1379-1.1974,4.2225-2.3473,6.1319-.0723.1199-.1447.2418-.2246.3617-.0076.0114-.0133.0209-.0209.0324-.0762.1199-.1542.2399-.2342.3617-1.0356,1.5477-2.3149,2.9622-3.8322,4.173-.2722.217-.5426.4245-.8205.6168q-.0038.0019-.0057.0019c-.1237.0895-.2418.1751-.3674.2551-.0286.019-.0495.0381-.0781.0571h-.0076c-.1256.0857-.2456.1675-.3731.2475h-.0076c-.7767.4912-1.5782.91-2.3949,1.2603-.4816.2075-.969.3884-1.4602.5445-.0019,0-.0038.0019-.0057.0038-.257.0838-.514.1599-.7729.2285-.3408.0914-.6815.1713-1.0223.2399,0,0-.0038.0019-.0057.0019-.0438.0076-.0838.0152-.1257.0209,0,0-.0038.0038-.0057.0038-.1123.0209-.2227.04-.3351.059-.0495.0076-.0933.0152-.1428.0209h-.0057c-.1085.019-.2132.0381-.3236.0533h-.0019c-.0533.0076-.1047.0133-.158.019h-.0038c-.0742.0095-.1466.019-.2189.0267h-.0019c-.1694.0209-.337.0381-.5045.0495-.0419.0057-.0819.0076-.1237.0114-1.6467.1218-3.282-.0152-4.8526-.4074-.1085-.0267-.217-.0533-.3255-.0838-.0819-.0228-.1618-.0457-.2437-.0685-.0076-.0019-.019-.0057-.0267-.0076-.0838-.0247-.1656-.0476-.2494-.0781-.0095-.0019-.0209-.0057-.0324-.0095-1.1746-.3674-2.3035-.8814-3.3582-1.5401-.0019,0-.0057-.0019-.0076-.0038-.0609-.0381-.1237-.0781-.1847-.118-.0076-.0038-.0133-.0095-.0209-.0152-.059-.0381-.1199-.08-.179-.1199-.9119-.6016-1.7648-1.3212-2.5415-2.1455-.0533-.0571-.1066-.1123-.158-.1713-.0838-.0933-.1675-.1866-.2494-.2818-.0533-.0609-.1066-.1237-.158-.1866-.0152-.019-.0305-.0362-.0457-.0552-.0685-.08-.1352-.1599-.1999-.2399-.1961-.2456-.3865-.4988-.5692-.7596-3.7846-5.3857-3.7941-12.6141-.5825-18.4034v-.0019s0-.0019.0019-.0038c.0895-.1637.1828-.3236.2799-.4835.0019,0,.0019-.0019.0019-.0038,1.1137-1.8752,2.5738-3.5828,4.3614-5.0106.1009-.08.2018-.1599.3046-.2361l.0019-.0019.0362-.0267c.0457-.0362.0914-.0704.1371-.1028,1.6658-1.2431,3.461-2.1379,5.2981-2.6976.0723-.0247.1485-.0457.2227-.0685.0457-.0133.0933-.0266.139-.04h.0038c.0438-.0114.0857-.0228.1275-.0343l.0019-.0019c.0552-.0152.1047-.0267.1561-.0381.0514-.0114.1009-.0247.1561-.04-.0036.0017-.0067.0039-.0103.0056,1.8743-.4683,3.7837-.5941,5.6301-.3807h.0019c.0552.0057.1104.0133.1656.0209.0762.0095.1523.019.2285.0286.0533.0076.1066.0152.1599.0247h.0019c.3503.0533.6987.118,1.0413.198.1504.0324.3008.0685.4474.1085.2361.0609.4702.1275.7025.198.1409.0438.2817.0895.4207.139.0076,0,.0152.0038.0209.0076,2.5796.889,4.9173,2.4939,6.7316,4.7822.0647.08.1314.1618.1942.2456l.2361.3179c.04.0533.078.1085.1142.1618.5121.7272.9538,1.4887,1.3288,2.275.3427.7177.6301,1.4583.8605,2.214.0742.2418.1409.4854.2037.731.0286.1009.0533.1999.0762.3008.0076.0305.0152.0609.0209.0914.0228.1028.0457.2056.0685.3084.0438.2132.0857.4302.1218.6473.0286.1675.059.3389.0781.5064.0419.3008.0742.6016.099.9043.0685.792.0838,1.5934.04,2.393Z" fill="url(#b)"/><path d="M34.3651,8.9688c.3456.4965.6688,1.0185.9617,1.5535l.0496-.0266c-.8363-2.4209-2.4465-4.7293-4.5436-6.5107l-.405-.3325-.4166-.3153c-.29-.2144-.5806-.4155-.8628-.5964-.281-.1811-.5848-.3717-.9039-.5402l-.0354-.0184c-.2963-.1546-.6029-.3143-.9123-.4505-1.1897-.5608-2.5178-.985-3.9505-1.2615-2.3651-.4565-4.8323-.4137-7.1354.1227l-.0005.0002-.0006-.0025-.1762.04-.0006-.003c-.3955.0934-.7916.2003-1.1817.3186-2.3564.7151-4.5448,1.8385-6.3288,3.2484l-.5011.3991c-.2254.1789-.4277.3414-.6237.5198-.747.6349-1.4728,1.3761-2.2876,2.3352-.7705.9139-1.3969,1.7816-1.9143,2.6528-.6099,1.015-1.0987,1.9697-1.4949,2.9189-.4179.9847-.7686,2.0318-1.0426,3.1132-.2582,1.0173-.4483,2.1074-.565,3.2399-.0954.9266-.1174,1.882-.0672,2.9206.2215,4.5706,1.8668,8.7756,4.6327,11.8411,2.8826,3.195,6.7019,5.1913,10.7543,5.6209,3.7238.3941,7.6453-.5638,10.7776-2.6319l-.0519-.1106c-3.5886,1.7968-7.8456,2.1956-11.7017,1.0921-.3329-.0952-.6693-.204-1.0001-.323-3.8813-1.398-7.1206-4.3198-9.1211-8.2267l-.0465-.1021c-.1821-.4003-.3704-.8143-.5256-1.2372-.3446-.9072-.6177-1.8442-.8113-2.7832-.1867-.9415-.3033-1.9108-.3472-2.8821-.0459-.9407-.0138-1.917.0953-2.9018.4109-3.8271,1.9755-7.5811,4.4055-10.5696.6599-.8093,1.3096-1.4993,1.9863-2.1091.7894-.7179,1.5319-1.3053,2.2694-1.7958.7923-.5362,1.6381-1.017,2.5131-1.4288.8318-.3914,1.7253-.728,2.6564-1.0014l-.0006-.0087.0665-.0097.1351-.0383-.0005-.008.0616-.008v.0005c2.0774-.5583,4.184-.7221,6.2604-.4858v-.0002c.011.0007.0211.002.0305.0037l.1526.0194c.1042.0129.208.0258.2994.0412,4.663.856,8.4138,3.1788,10.8486,6.7174Z" fill="url(#c)"/><path d="M26.6428,23.5745c-.0404.0265-.0816.0515-.1222.0777.0004.0033.001.0067.0014.0101.041-.0281.08-.0593.1208-.0877Z" fill="none"/><path d="M26.5985,4.3198c-.0057-.0038-.0133-.0076-.0209-.0076-.139-.0495-.2799-.0952-.4207-.139.8281.3046,1.6429.6968,2.4311,1.186.0038,0,.0057-.0019.0076-.0019-.6492-.4112-1.3174-.7577-1.997-1.0375Z" fill="url(#d)"/><path d="M4.578,20.9127c-.0057-.059-.0114-.1161-.0114-.1732-.0419.5273-.059,1.0528-.0514,1.5763l.0095.3522.0133.2075c-.0285-.6492-.0133-1.3021.04-1.9627ZM4.538,22.8755c.0095.3084.0324.6168.0609.9195l-.0609-.9195ZM6.4665,14.1602c-.0019.0057-.0057.0095-.0076.0152-1.0337,2.0103-1.641,4.0987-1.8561,6.1681v.0019c.0019.0552.0057.1161.0095.1751,0-.0019,0-.0038.0019-.0057v-.0038c.217-2.0579.8281-4.1463,1.8637-6.1567v-.0019c.0019,0,.0019-.0019.0019-.0019-.0095-.0647-.0114-.1295-.0133-.1904ZM10.788,8.6641c-1.6258,1.4088-3.0365,3.1278-4.1178,5.1134,0,.0019-.0019.0019-.0019.0038,0,.0609.0057.1237.0114.1885,1.0813-1.9875,2.4901-3.7104,4.1178-5.1306-.0076-.059-.0095-.118-.0095-.1751ZM16.5886,5.2622c-1.9685.7082-3.8322,1.7648-5.4884,3.1354v.0019h-.0019c.0019.0286.0038.0552.0057.0838.0019.0305.0038.059.0057.0895,1.6543-1.3802,3.5181-2.4539,5.4866-3.1792-.0019-.0457-.0057-.0876-.0076-.1314ZM23.1013,4.2418c-2.0694-.0838-4.152.2247-6.1338.8871,0,.0228,0,.0438.0019.0647.0019.0229.0019.0438.0057.0647h.0019c1.9818-.6777,4.0607-1.0071,6.1262-.9461-.0019-.0247-.0019-.0476-.0019-.0704ZM23.4935,4.2646c.0038.0228.0038.0419.0057.0647,1.7057.0914,3.3982.4531,5.0182,1.1061v-.0095c-1.622-.672-3.3182-1.0509-5.0239-1.1613Z" fill="url(#e)"/><path d="M8.1132,32.4056c-.4055-.6834-.7158-1.4411-.9328-2.2654-.0685-.0647-.1314-.1295-.1923-.1942.2208.7996.5273,1.5439.9214,2.2179.0152.019.0305.0362.0457.0552.0533.0647.1085.1314.1637.1961-.0019-.0038-.0038-.0057-.0057-.0095ZM7.0205,24.7526c-.0876-.0857-.1713-.1732-.2551-.257-.2856,1.8638-.2322,3.6114.1466,5.1572.0628.0685.1295.1333.1942.1999-.3503-1.5249-.3884-3.2497-.0857-5.1001ZM8.8709,18.2647c-1.0394,2.0122-1.7153,3.9978-2.0446,5.8749.0838.0857.1656.1694.2551.2589.3446-1.8657,1.0261-3.8398,2.0636-5.8521-.0952-.0971-.1847-.1866-.2741-.2817ZM13.1239,12.5725c-.0419-.0419-.0857-.0857-.1276-.1295-1.5078,1.6106-2.8499,3.4439-3.9255,5.4409.0914.0952.1828.1866.2779.2817,0,0,0-.0019.0019-.0019,1.0737-1.997,2.4082-3.836,3.9026-5.4618-.0438-.0457-.0876-.0876-.1295-.1295ZM18.3648,8.2282c-.0324-.0324-.0647-.0647-.0971-.099-1.7571,1.0699-3.4496,2.4234-4.9802,4.0054v.0019h-.0019c.0419.0438.0857.0876.1275.1295.0419.0438.0857.0857.1276.1275,1.5135-1.5953,3.1887-2.9717,4.9211-4.0683-.0343-.0343-.0647-.0647-.0971-.0971ZM23.9884,5.759c-1.7914.3922-3.6152,1.1365-5.3799,2.1703h-.0019c.0609.0647.1237.1256.1885.1904h.0019c1.7419-1.0566,3.5352-1.8295,5.2943-2.254v-.0019c-.0343-.0343-.0666-.0685-.1028-.1047ZM28.6069,5.5801c-1.3593-.2265-2.8042-.1809-4.2777.1085l.0971.0971c1.4468-.3122,2.8613-.3922,4.192-.1942-.0038-.0019-.0057-.0076-.0114-.0114Z" fill="url(#f)"/><path d="M11.4505,33.4203c-.1009-.0609-.1999-.1275-.3008-.1885-.0857.7805-.0552,1.4183.0914,1.8923.0076.0057.0133.0114.0209.0152.0609.04.1237.08.1847.118.0019.0019.0057.0038.0076.0038-.118-.4531-.1161-1.0737-.0038-1.8409ZM12.2919,28.8551c-.594,1.6239-.9671,3.0288-1.1156,4.1635.1009.0647.2037.1314.3084.1942.1866-1.1099.5921-2.4958,1.2032-4.1063-.1333-.0838-.2627-.1675-.396-.2513ZM14.9057,23.0278c-1.0451,2.0065-1.8809,3.8646-2.5015,5.5113,0,.0019.0019.0019.0019.0019.0685.0438.1333.0876.2018.1295.0666.0438.1333.0857.2018.1276v-.0019c.6397-1.6353,1.4887-3.4857,2.532-5.4923-.1466-.0933-.2913-.1847-.436-.276ZM18.5533,16.8254h-.0019c-1.2108,1.8447-2.3854,3.8094-3.4438,5.8197-.0019,0-.0019.0019-.0019.0019.0723.0457.1447.0914.2189.1371.0723.0457.1428.0914.217.1371,1.0604-2.0084,2.2198-3.9826,3.4134-5.8407-.1352-.0876-.2665-.1713-.4017-.2551ZM22.4883,11.4569h-.0019c-1.2279,1.4906-2.4825,3.1887-3.7028,5.0182h.0019c.1333.0857.2627.1694.396.2513,1.1955-1.8428,2.4216-3.5619,3.6114-5.0772-.1028-.0609-.2056-.1275-.3046-.1923ZM26.2196,7.52c-1.087.95-2.275,2.1931-3.4972,3.6571.099.0609.1961.1237.297.1866,1.1822-1.4849,2.3264-2.7623,3.362-3.7408-.0552-.0362-.1066-.0685-.1618-.1028ZM28.8334,5.759c-.7044.2894-1.5173.8338-2.4044,1.5858.0476.0324.099.0647.1504.0933.8434-.7748,1.6105-1.3478,2.2711-1.6677-.0057-.0057-.0114-.0076-.0171-.0114Z" fill="url(#g)"/><path d="M16.6134,36.095c-.4512.3941-.8681.6873-1.2488.87.1085.0305.217.0571.3255.0838.3941-.1751.8186-.4474,1.266-.8129-.1142-.0457-.2303-.0914-.3427-.1409ZM19.5432,32.655h-.0019c-.9918,1.4145-1.9304,2.5263-2.768,3.2973l.3484.1466c.8814-.7558,1.8542-1.8523,2.8708-3.2573-.1504-.059-.3008-.1218-.4493-.1866ZM22.8272,27.1817c-1.0509,2.0008-2.1017,3.7504-3.0955,5.201.1523.0647.3027.1257.4569.1885,1.0185-1.4411,2.0827-3.183,3.1335-5.1877-.1656-.0647-.3274-.1352-.495-.2018ZM25.8446,20.6481h-.0019c-.8243,2.0465-1.7743,4.1311-2.8175,6.149h.0019c.1637.0704.3255.1371.4931.2056,1.0432-2.0199,1.9761-4.1102,2.7794-6.1662-.1523-.0628-.3046-.1237-.455-.1885ZM28.0243,14.3601h-.0019c-.5292,1.8542-1.2146,3.857-2.0218,5.8978.1485.0628.3008.1237.4512.1866.7805-2.0522,1.4297-4.0664,1.9171-5.9415-.1161-.0457-.2285-.0952-.3446-.1428ZM29.1514,9.0563c-.1675,1.4297-.5197,3.1145-1.028,4.9516.0552.0228.1123.0457.1675.0685.0571.0228.1123.0457.1675.0704v-.0019c.4645-1.8542.7653-3.5581.8738-5.0125-.059-.0247-.1199-.0514-.1809-.0761ZM29.1476,5.9209c-.0057-.0019-.0133-.0038-.019-.0076.158.7444.1675,1.721.0495,2.8727.0609.0247.118.0476.1732.0723.0704-1.1727.0057-2.1722-.2037-2.9375Z" fill="url(#h)"/><path d="M26.509,34.7624c-.9557.9005-1.9589,1.6334-2.9869,2.1874.2589-.0685.5159-.1447.7729-.2285.0019-.0019.0038-.0038.0057-.0038.8738-.514,1.7286-1.1518,2.5434-1.9094-.1104-.0133-.2208-.0305-.3351-.0457ZM30.4383,29.4833c-1.0585,2.0008-2.3092,3.6856-3.6704,5.0277h.0019c.1161.019.2284.0324.3408.0476,1.3802-1.3402,2.6386-3.0231,3.6951-5.0239-.1199-.0171-.2418-.0324-.3674-.0514ZM33.0216,22.7917c-.0571-.0076-.1123-.0171-.1694-.0266h-.0019c-.4512,2.1607-1.1879,4.31-2.2121,6.3337h.0019c.1237.019.2418.0343.3655.0514,1.0223-2.0237,1.7495-4.173,2.1836-6.3356-.0552-.0076-.1104-.0152-.1675-.0229ZM33.6004,16.003c-.0838-.0095-.1713-.0209-.257-.0343.139,2.0579.0076,4.2244-.4093,6.3851h.0019c.1104.019.2246.0324.3312.0495.3998-2.1664.5045-4.3367.3332-6.4003ZM32.1021,9.9263c-.0457-.0057-.0914-.0133-.1371-.019h-.0019c.7196,1.7,1.1708,3.6247,1.3498,5.6693h.0019c.0838.0133.1656.0247.2494.0343-.2113-2.0465-.7006-3.9807-1.4621-5.6845ZM29.4274,6.0027c-.0057,0-.0095-.0019-.0152-.0019.9861.9918,1.7876,2.2083,2.4101,3.5847h.0019c.0438.0095.0838.0133.1275.019-.6587-1.3821-1.5001-2.6043-2.5243-3.6019Z" fill="url(#i)"/><path d="M21.1709,37.3953c-.1694.0209-.337.0381-.5045.0495-.6968-.1618-1.4545-.3846-2.2654-.6644-.4816-.1656-.9633-.3503-1.4449-.5445-.1142-.0457-.2303-.0914-.3427-.1409-1.7933-.7482-3.5676-1.6772-5.1629-2.6747-.1009-.0609-.1999-.1275-.3008-.1885-1.5706-1.0071-2.947-2.0713-3.9693-3.0917-.0685-.0647-.1314-.1295-.1923-.1942-.5083-.5273-.9195-1.0413-1.207-1.5249-.1485-.2494-.2589-.4816-.3332-.6987l-.1047-.3179c.0761.2151.1885.4436.3332.6891.2951.495.7139,1.0185,1.2355,1.5592.0628.0685.1295.1333.1942.1999,1.049,1.0451,2.4615,2.1379,4.0702,3.1659.1009.0647.2037.1314.3084.1942,1.6315,1.0223,3.4515,1.9704,5.2886,2.7395l.3484.1466c.495.1999.9861.3865,1.4792.5559.929.3236,1.7895.5692,2.57.7406Z" fill="url(#j)"/><path d="M28.5365,34.6653c-.1256.0857-.2456.1675-.3731.2475h-.0076c-.4036-.0095-.8414-.0438-1.3117-.1047-.1104-.0133-.2208-.0305-.3351-.0457-1.3174-.1999-2.8632-.5959-4.5975-1.1993-.6378-.2208-1.2755-.4626-1.9171-.7215h-.0019c-.1504-.059-.3008-.1218-.4493-.1866h-.0019c-2.3797-.9956-4.7346-2.2255-6.8515-3.5485h-.0019c-.1333-.0838-.2627-.1675-.396-.2513-2.0846-1.3326-3.9122-2.7509-5.2714-4.1025-.0857-.0857-.1694-.1732-.2532-.257-.6758-.7006-1.2203-1.3821-1.601-2.0237-.3484-.5921-.5407-1.1099-.5863-1.5592-.0057-.059-.0114-.1161-.0114-.1732,0-.059,0-.1161.0057-.1732l.0305-.3312c0,.0362-.0019.0723-.0019.1085v.0019c.0038.0533.0057.1104.0114.1656v.0095c.0457.4512.2399.9785.5959,1.5744.3827.6492.9347,1.3383,1.6163,2.0446.0838.0857.1656.1694.2551.2589l.0019.0019c1.3707,1.3669,3.2173,2.7966,5.3209,4.1387,0,.0019.0019.0019.0019.0019.0685.0438.1333.0876.2018.1295.0666.0438.1333.0857.2018.1257v.0019h.0019c2.136,1.3364,4.5156,2.5776,6.9201,3.5847.1523.0647.3027.1257.4569.1885.6473.2627,1.2926.5064,1.938.731,1.7514.6073,3.3125,1.0071,4.6413,1.2089h.0019c.1161.019.2284.0324.3408.0476.514.0685.9918.1028,1.4259.1066Z" fill="url(#k)"/><path d="M33.9031,29.1673c-.0076.0114-.0133.0209-.0209.0324-.0762.1199-.1542.2399-.2342.3617-.7615.1237-1.7172.118-2.8423-.0266-.1199-.0171-.2418-.0324-.3674-.0514-1.4354-.2189-3.1259-.653-5.022-1.3098-.6949-.2399-1.3954-.5064-2.0941-.79-.1656-.0647-.3274-.1352-.495-.2018-2.6024-1.087-5.1743-2.4349-7.4855-3.8779-.1466-.0933-.2913-.1847-.436-.276-2.2769-1.4564-4.2739-3.0022-5.7607-4.4814-.0952-.0971-.1847-.1866-.2741-.2817-.7386-.7653-1.3326-1.5097-1.7495-2.2102-.2779-.4721-.5235-.9823-.6168-1.5268-.0095-.059-.019-.1161-.0267-.1732v-.0019c-.0076-.059-.0133-.118-.019-.177-.04-.4683.0114-.8967.099-1.4145v-.0019s0-.0019.0019-.0038c.0895-.1637.1828-.3236.2799-.4835-.0933.257-.1751,1.2317-.1694,1.5058v.0038c0,.0609.0057.1237.0095.1885.0514.4893.2608,1.0585.6454,1.7038.415.7006,1.0071,1.4449,1.7457,2.2102.0933.0933.1847.1866.2799.2798,1.4811,1.4811,3.48,3.025,5.7569,4.4814.0704.0476.1428.0933.217.139.0723.0457.1428.0914.217.1371h.0019c2.3111,1.4449,4.8793,2.789,7.4817,3.876h.0019c.1637.0704.3255.1371.4931.2056h.0019c.6987.2817,1.3973.5464,2.0922.7862,1.8961.6606,3.5828,1.0928,5.0239,1.3098h.0019c.1237.019.2418.0343.3655.0514h.0019c1.1499.1504,2.1246.1542,2.8956.0171Z" fill="url(#l)"/><path d="M36.5493,22.2511c0,.0038-.0019.0095-.0019.0133-.0038.019-.0057.04-.0076.059-.019.118-.0419.2342-.0647.3503-.7748.2684-1.8904.3198-3.2858.139-.0552-.0057-.1123-.0133-.1675-.0209-.0571-.0076-.1123-.0171-.1694-.0266h-.0019c-1.3231-.1999-2.8785-.5978-4.6242-1.2032-.6377-.2227-1.2812-.4664-1.9247-.7253h-.0019c-.1523-.0628-.3046-.1237-.455-.1885h-.0019c-2.3911-1.0014-4.7612-2.2407-6.8858-3.5676h-.0019c-.1352-.0876-.2665-.1713-.4017-.2551h-.0019c-2.0941-1.3402-3.9331-2.7642-5.2962-4.1235h-.0019c-.0438-.0457-.0876-.0876-.1295-.1295-.0419-.0438-.0838-.0876-.1257-.1314-.6796-.7044-1.226-1.3897-1.6087-2.0332-.3522-.594-.5445-1.1194-.5902-1.5687-.0076-.059-.0114-.118-.0114-.1751-.0076-.495.3666-1.3483.7208-1.6453l.1859-.14c-.3274.2894-.602,1.0466-.5944,1.5187v.0019c0,.0267.0019.0552.0038.0838.0019.0305.0038.059.0057.0895.0476.4455.2361.9652.5844,1.5515.3827.6377.9214,1.3155,1.5934,2.0103v.0019c.0419.0438.0838.0857.1256.1295.0419.0438.0857.0857.1276.1275,1.3497,1.3459,3.1678,2.7547,5.2429,4.0816h.0019c.1333.0857.2627.1694.396.2513h.0019c2.1036,1.3174,4.449,2.5415,6.8173,3.5314.1485.0628.3008.1237.4512.1866.6359.257,1.2717.4969,1.9075.7196,1.7248.5978,3.263.9918,4.5747,1.1898h.0019c.1104.019.2246.0324.3312.0495,1.4012.1809,2.5148.1257,3.282-.1523Z" fill="url(#m)"/><path d="M36.3646,15.4395c.0228.1028.0457.2056.0685.3084-.5768.3313-1.5496.4226-2.8328.2551-.0838-.0095-.1694-.0209-.257-.0343-1.0033-.1523-2.1855-.455-3.5105-.9138-.4854-.1713-.9766-.3541-1.4621-.5521h-.0019c-.1161-.0457-.2285-.0952-.3446-.1428h-.0019c-1.8181-.7615-3.6133-1.7-5.2295-2.7109-.1028-.0609-.2056-.1275-.3046-.1923h-.0019c-1.5896-1.0166-2.987-2.0979-4.0226-3.1316h-.0019c-.0343-.0343-.0647-.0647-.0971-.0971-.0305-.0324-.0628-.0647-.0952-.099-.514-.533-.9309-1.0547-1.2203-1.5458-.2684-.4474-.4169-.8453-.4512-1.1898-.0038-.0457-.0057-.0895-.0076-.1314-.0095-.5197.3769-.9838.8852-1.2142.1085-.0286.204-.0488.3125-.0792-.4759.2265-.8284.6652-.8208,1.1602,0,.0228,0,.0438.0019.0647.0019.0229.0057.0438.0076.0647.0343.3351.177.7234.4379,1.1632.2837.4797.6891.9842,1.1917,1.5059v.0019h.0019c.0609.0647.1237.1256.1866.1904h.0019c1.0109,1.009,2.3739,2.0636,3.9255,3.0574.099.0609.1961.1237.297.1866h.0019c1.5744.9861,3.3296,1.9037,5.102,2.6443.0552.0228.1123.0457.1675.0685.0552.0228.1123.0457.1675.0685h.0019c.4778.1961.9538.3731,1.4278.5388,1.2926.4493,2.4425.7444,3.4248.8929h.0019c.0838.0133.1656.0247.2494.0343h.0019c1.2641.1637,2.214.0704,2.7775-.2627.0076.0305.0152.0609.0209.0914Z" fill="url(#n)"/><path d="M33.7603,9.6655c-.0209.0228-.0457.0457-.0723.0666h-.0019c-.0171.0133-.0343.0247-.0533.0381-.3027.1923-.8262.2456-1.5306.1561-.0457-.0057-.0914-.0133-.1371-.019h-.0019c-.5311-.08-1.1537-.2399-1.8561-.4835-.257-.0895-.514-.1866-.7748-.2913-.059-.0247-.1199-.0514-.1809-.0761-.9614-.4036-1.9152-.9005-2.768-1.4335h-.0019c-.0552-.0362-.1066-.0685-.1618-.1028-.8396-.5388-1.5782-1.1099-2.1284-1.6562-.0343-.0343-.0666-.0685-.1028-.1047-.2722-.2837-.4912-.5578-.6454-.8167-.1409-.238-.2189-.4493-.238-.6301-.0038-.0247-.0038-.0495-.0038-.0704-.0038-.2951.1599-.5064.474-.6263.0762.0095.1523.019.2285.0286.0533.0076.1066.0152.1599.0247-.3084.1066-.474.3084-.4702.594v.0019c.0038.0228.0038.0419.0057.0647.0171.1694.0895.3674.2227.5921.1447.2437.3503.5026.6073.7672l.0971.0971c.514.514,1.2089,1.0528,2.0027,1.5592.0476.0324.099.0647.1504.0933.8034.5045,1.6962.9709,2.5986,1.3478.0609.0247.118.0476.1732.0723.2437.0971.4874.1904.7291.2741.6587.2285,1.2431.3769,1.7419.4531h.0019c.0438.0095.0838.0133.1275.019h.0019c.6587.0876,1.1537.0324,1.4373-.1485h.0019c.019-.0114.0324-.0209.0495-.0343h.0019c.0285-.0228.0571-.0476.08-.0742l.2361.3179Z" fill="url(#o)"/><path d="M31.057,20.1741c-.3807.3941-.7748.7824-1.1822,1.1537-.4112.375-.8396.7329-1.2831,1.0718-.3046.2342-.6168.455-.9309.6758-.9728-4.5766-4.9497-8.4488-7.2932-10.2687-.0038.0019-.0057.0038-.0076.0057-1.0946-1.1118-3.2725-2.907-4.8964-1.6258.95-1.1518,1.9894-2.115,3.0878-2.7813h.0019c1.3402-.8148,2.9356.3503,3.5352.7881,1.8657,1.3631,6.052,5.359,8.2869,9.5453l.0038-.0019s.0247.0495.0704.1447c.2151.4131.4341.8795.6073,1.2926Z" fill="url(#p)"/><path d="M31.7975,33.1138c-.9652,1.1042-3.0174,2.6157-4.6756,3.2154.6016-1.3269,1.1803-2.9394,1.1803-5.9339,0-.7539.0076-1.74-.0324-2.1702.5083-.3389,1.0033-.6911,1.4792-1.0375.7672-.5464,2.1131-1.8295,2.2578-2.0046.2113,2.2179.3217,4.7022-.2094,7.931Z" fill="url(#q)"/><path d="M17.0227,30.5133c.0647.0419.1314.0857.198.1276-.078-.0457-.1523-.0952-.2246-.1428-.0457-.0305-.0914-.0628-.1352-.0933.0533.0362.1066.0742.1618.1085Z" fill="url(#r)"/><path d="M18.8979,31.4861c-.0057.0019-.0095.0019-.0152.0019-.0114-.0057-.0228-.0095-.0324-.0152.0057,0,.0095,0,.0133-.0019.0114.0057.0228.0114.0343.0152Z" fill="url(#s)"/><path d="M14.367,25.5217c-.0152.2513-.0209.5007-.0076.7501.0076.1352.019.2703.0419.4036.0152.0876.0305.1751.0476.2627.0057.0324.0133.0647.0209.0971v.0019c.0552.2703.1295.5387.2303.7958.1828.4607.4436.8871.7539,1.2736.1371.1694.2837.3312.4379.4854.0723.0704.1466.1428.2246.2151.0305.0267.059.0533.0895.0819.0533.0457.1085.0933.1656.1409.04.0343.0819.0666.1257.1028.059.0476.1218.0933.1847.1409.0076.0076.0171.0133.0247.019.0514.0381.1009.0762.1542.1123.0438.0305.0895.0628.1352.0933.0723.0476.1466.0971.2246.1428.1961.1237.4055.2418.6282.3598.3084.1637.6473.3198,1.0147.4702-.0038.0019-.0076.0019-.0133.0019.0095.0057.0209.0095.0324.0152h-.0057c-1.2565.1694-2.3949.1885-3.4115.0457-1.4145-.198-2.5948-.6949-3.5295-1.4906-1.1594-.988-1.78-2.4996-1.8447-4.4909-.1352-4.1387,2.0827-10.3829,5.3723-14.3655,1.6239-1.2812,3.8017.514,4.8964,1.6258-.3027.2456-.5863.5102-.8567.7901-.2837.2932-.5502.6016-.8015.9214-.2627.3312-.5083.6739-.7425,1.0242-.2399.3598-.4664.7291-.6796,1.1061-.217.3807-.4226.7691-.6168,1.1632-.1942.3922-.3769.7919-.5502,1.1955-.1694.396-.3293.7977-.4797,1.2032-.1447.3922-.2818.7901-.4074,1.1879-.1199.3807-.2323.7634-.3332,1.1498-.0952.3598-.1809.7215-.2551,1.0851-.0685.3312-.1275.6644-.177.9976-.0419.2951-.0742.5902-.0933.8852Z" fill="url(#t)"/><path d="M36.7016,18.257c-.179.4493-.3693.8909-.5768,1.3193-1.0337,2.1189-2.4539,3.975-4.1311,5.5722,0,.0019-.0038.0095-.0133.019-.1447.1751-1.4906,1.4583-2.2578,2.0046-.4759.3465-.9709.6987-1.4792,1.0375-.0419.0305-.0857.059-.1295.0876-2.2083,1.2603-4.8469,2.1855-6.2557,2.5757-1.0509.2932-2.0351.495-2.9603.6206-.0057-.0019-.0095-.0038-.0152-.0057-.0114-.0057-.0228-.0095-.0324-.0152.0057,0,.0095,0,.0133-.0019.0019.0019.0057,0,.0076,0-.3693-.1504-.7101-.3084-1.0223-.4702-.2227-.118-.4321-.2361-.6282-.3598-.078-.0457-.1523-.0952-.2246-.1428-.0457-.0305-.0914-.0628-.1352-.0933-.0533-.0362-.1028-.0742-.1542-.1123-.0076-.0057-.0171-.0114-.0247-.019-.0628-.0476-.1256-.0933-.1847-.1409-.0438-.0362-.0857-.0685-.1257-.1028-.0571-.0476-.1123-.0952-.1656-.1409-.0305-.0286-.059-.0552-.0895-.0819-.0781-.0723-.1523-.1447-.2246-.2151-.1542-.1542-.3008-.316-.4379-.4854-.3103-.3865-.5711-.8129-.7539-1.2736-.1009-.257-.1751-.5254-.2303-.7958v-.0019c0-.0019.0019-.0019.0019-.0019.3179.1637,1.1042.3465,2.4615.2437,1.6258-.1295,3.4172-.5997,5.0601-1.2051,0,0,1.4107-.554,2.1017-.8757.0647-.0266.1237-.0552.1809-.0876.3046-.1447.613-.297.9081-.4569.0495-.0267.099-.0533.1523-.0819.1847-.1028.3674-.2075.5445-.3103.5007-.2894.9595-.6397,1.4278-.9709.1085-.0762.217-.1523.3255-.2285.3141-.2208.6263-.4417.9309-.6758.4436-.3389.8719-.6968,1.2831-1.0718.4074-.3712.8015-.7596,1.1822-1.1537.0038-.0038.0057-.0057.0095-.0095.0362-.0419.0723-.0895.1085-.1314.7862-.9062,1.4792-1.9037,2.0465-2.9889.8205-1.5839,2.0027-3.8398,2.2845-5.5437.9747.9823,1.8714,3.9122,1.2222,6.7716Z" fill="url(#u)"/><path d="M18.8979,31.4861c-.0076.0019-.0133.0019-.0209.0019-.7329-.2989-1.344-.6301-1.8542-.9747.5159.3427,1.1346.672,1.8752.9728Z" fill="url(#v)"/></svg>