<?xml version="1.0" encoding="UTF-8"?><svg id="a" xmlns="http://www.w3.org/2000/svg" viewBox="0 0 304 86"><path d="M136.759912,31.156745c-.414664-1.820176-1.307653-3.424417-2.656027-4.776447-1.602449-1.652203-3.7899-2.777616-6.50156-3.344983-2.526409-.533457-6.436751-.793052-11.952983-.793052-7.149078,0-11.996571.659849-14.820644,2.017328-2.936484,1.407735-4.588831,4.06283-4.776949,7.677373l-.090045,1.738591h9.343985l.333796-1.214311c.165751-.602639.465708-.951418,1.003108-1.166206.70315-.28354,2.853896-.756345,9.403059-.756345,3.871342,0,6.633473.170196,8.208965.505927,1.312242.279525,2.263731.769608,2.82866,1.456628.090618.112986.165177.221455.22253.324261.346987.602352.742151,1.719234.80868,3.78438-.708886-.316016-1.483728-.557115-2.321658-.722077-2.194907-.429074-6.468295-.637481-13.065062-.637481-8.629938,0-11.305465.710248-12.567809,1.244421-1.99073.866392-3.426281,2.158847-4.281417,3.847899-.803519,1.600083-1.192947,3.696486-1.192947,6.414168,0,2.222294.249486,3.951636.762798,5.286891.560341,1.444871,1.560007,2.687858,2.972043,3.69878,1.421786,1.052933,3.326486,1.71694,5.822498,2.029802,2.266025.283181,6.203323.42678,11.703497.42678,5.025862,0,8.434363-.27422,10.421652-.838289.611385-.173637,1.195241-.40348,1.749847-.68831l-.036133,1.421213h9.224691v-18.69514c0-3.500195-.141662-6.00653-.433017-7.662246-.030971-.191416-.071692-.392439-.113559-.579554ZM127.76234,46.721762c0,1.618794-.661856,2.101422-1.309947,2.360013-.93371.371362-3.333942.815061-9.456398.815061-9.494824,0-11.316936-.505855-11.649585-.660852-.513885-.245042-1.116667-.742581-1.116667-2.380087,0-1.331096.312001-2.189602.927975-2.551788.123309-.070329.727812-.3467,2.581468-.51962,1.505522-.13435,4.280844-.202744,8.24223-.202744,6.491237,0,9.134073.478828,10.207725.880587,1.118961.41495,1.573199,1.069064,1.573199,2.25943Z" fill="#fff"/><polygon points="144.432051 7.680852 144.432051 8.190942 144.432051 56.471234 144.432051 58.123939 146.08497 58.123939 151.99694 58.123939 153.649859 58.123939 153.649859 56.471234 153.649859 8.190942 153.649859 7.680852 144.432051 7.680852" fill="#fff"/><path d="M204.43957,30.855067c-.960666-2.574156-2.747792-4.650127-5.304599-6.151921-1.647184-.950128-3.622429-1.581228-6.049617-1.936244-2.295276-.329709-5.53057-.489653-9.894576-.489653-5.189892,0-8.784218.322397-10.988876.985472-.705445.215361-1.365006.487789-1.975818.815921v-1.541009h-9.217235v57.145233h9.217235v-23.242602c.648665.333724,1.349521.608016,2.099701.821226,2.200643.630599,5.583909.937582,10.340211.937582,6.41553,0,10.858684-.387923,13.583535-1.186064,2.93419-.857574,5.295996-2.647711,7.017739-5.320514,1.660376-2.575948,2.467335-6.318962,2.467335-11.442683,0-3.561921-.357311-6.497617-1.062181-8.725574-.071692-.220523-.146251-.445921-.232854-.669169ZM196.184722,40.383873c0,2.477372-.223678,4.394188-.664724,5.697181-.391149,1.136597-.968122,1.95345-1.761891,2.489703-.455385.301248-1.41261.723941-3.317883.979234-1.678155.230345-4.337623.346844-7.907861.346844-6.310574,0-8.814615-.654472-9.804532-1.203485l-.012618-.007026-.012618-.006811c-.898725-.478039-1.529037-1.264495-1.927641-2.404318-.47259-1.350453-.711753-3.487505-.711753-6.351868,0-2.408835.22253-4.277904.661856-5.555376.189839-.540912.418678-1.004255.696268-1.40752.299384-.440258.641209-.788248,1.050711-1.072362.435884-.293362,1.393683-.711968,3.372942-.966402,1.796876-.230918,4.654787-.347991,8.494584-.347991,5.855763,0,8.237068.651031,9.204044,1.197248l.014912.008388.014912.008173c.54887.294939.981887.679277,1.324286,1.174952.240883.346055.438752.742007.590738,1.18162.46284,1.320486.696268,3.418108.696268,6.239814Z" fill="#fff"/><path d="M254.769882,31.569545c-.424414-1.903553-1.287006-3.556975-2.561394-4.907499l-.012618-.013406-.012618-.01312c-1.515272-1.535417-3.593179-2.614661-6.176941-3.207909-2.436364-.557903-5.808733-.829041-10.310961-.829041-5.359658,0-9.180529.383693-11.680555,1.172873-.874636.27888-1.674714.632463-2.397364,1.058884V7.680852h-9.217808v50.443087h9.217808v-16.6315c0-3.488653.168045-5.026937.309134-5.70306.172633-.811548.545429-1.529395,1.137888-2.187953.032118-.035989.055633-.063949.080294-.088467l.013765-.01398.018353-.019428c.776562-.821155,1.998759-1.449029,3.633326-1.866274,1.888641-.476247,4.669699-.718277,8.261157-.718277,3.179662,0,5.570144.178225,7.106637.529729,1.269227.295011,2.160496.749535,2.64341,1.349593.111265.140659.208766.280816.279884.402763l.013765.02373.014912.0233c.335516.533313.564356,1.157603.699136,1.9085.199589,1.09688.300531,3.235725.300531,6.359826v16.6315h9.223544v-18.176667c0-3.556114-.158868-6.136507-.485208-7.887357-.028677-.174425-.063089-.335803-.098074-.49037Z" fill="#fff"/><path d="M303.251126,31.744401c-.033838-.208981-.073986-.40477-.114706-.587297-.405487-1.809852-1.29905-3.418395-2.657174-4.783616-1.597287-1.644245-3.788753-2.772168-6.50156-3.338387-2.518953-.53317-6.428148-.792836-11.946101-.792836-7.146784,0-11.995998.659634-14.825232,2.016682-2.938205,1.412108-4.589978,4.066988-4.778096,7.678018l-.090045,1.738591h9.349721l.333796-1.214383c.166324-.604431.464561-.953139.996799-1.166134.703724-.28354,2.855043-.756345,9.409368-.756345,3.871342,0,6.633473.170196,8.208965.505927,1.311668.279525,2.263731.769608,2.82866,1.456628.07628.095278.151412.206973.216795.324261.346987.602209.741577,1.718732.808107,3.78309-.707739-.314941-1.482581-.555681-2.321085-.720786-2.195481-.429074-6.466001-.637481-13.059327-.637481-8.629938,0-11.305465.710248-12.567809,1.244421-1.999907.870478-3.436604,2.164582-4.284285,3.852989-.804666,1.602879-1.196388,3.699282-1.196388,6.409078,0,2.21197.251781,3.941313.769107,5.286819.551164,1.439279,1.54911,2.684632,2.966308,3.698995,1.42236,1.053363,3.329354,1.717227,5.828807,2.029659,2.259143.283181,6.197015.42678,11.702923.42678,5.028156,0,8.435511-.274363,10.417064-.838647.611385-.173637,1.194667-.402763,1.748126-.686303l-.035559,1.419564h9.230426v-18.69514c0-3.502991-.142809-6.006889-.437605-7.654145ZM294.138847,46.721762c0,1.620802-.658988,2.102569-1.304212,2.360013-.93371.371362-3.333942.815061-9.456398.815061-9.494824,0-11.316936-.505784-11.649585-.660852-.513885-.245042-1.116667-.742581-1.116667-2.380087,0-2.009441.693974-2.417653.92224-2.551788.161163-.090977.785165-.352149,2.58663-.519548,1.500934-.134422,4.273961-.202815,8.237068-.202815,6.49009,0,9.13694.479186,10.214607.88116,1.113226.412871,1.566316,1.066985,1.566316,2.258856Z" fill="#fff"/><path d="M179.802381,75.958701c.195198.222832.413914.449191.6585.679078.24341.229887.518569.43508.825477.616168.305732.181088.646741.327486,1.023027.438608.376286.11171.786672.167565,1.233512.167565.919548,0,1.636843-.209309,2.151884-.627339.515041-.417442.772562-.981871.772562-1.69211,0-.766094-.291621-1.340518-.877216-1.723859-.584419-.383341-1.427534-.693189-2.52817-.930131-.599705-.125233-1.142968-.299265-1.629788-.522096-.487996-.222832-.908965-.501518-1.264085-.83606s-.630279-.720822-.825477-1.15943c-.195198-.439196-.292797-.937187-.292797-1.49456,0-.515041.097599-1.002449.292797-1.462223s.48682-.863693.877216-1.212346c.390396-.348064.878392-.626751,1.462811-.835472.585595-.209309,1.260557-.313375,2.027239-.313375.682018,0,1.27114.072905,1.765015.219304.495051.146399.916021.323958,1.264085.532679s.627927.425085.83606.647917c.209309.222832.36923.403919.48094.543263l-1.33699,1.232924c-.083488-.097599-.209309-.226359-.376286-.386869-.166977-.159921-.379813-.316315-.637334-.469769s-.557373-.282214-.898382-.386869c-.342185-.104654-.734933-.156394-1.180596-.156394-.446839,0-.829004.059383-1.150023.17756-.319843.118177-.584419.271631-.793728.459774-.209309.187555-.362175.400392-.459774.636746-.097599.23753-.145811.473885-.145811.710827,0,.348064.072905.644389.218716.887799.146987.243998.358647.459774.637334.647917s.623223.348652,1.034786.480352c.410387.132876.880744.261636,1.409896.386869.516217.125233,1.020675.28927,1.515726.490935.493875.202254.936011.473885,1.326407.814894.390396.341597.699656.759627.930131,1.25409.229299.494463.344537,1.09652.344537,1.807347,0,.599117-.124645,1.149435-.376286,1.650366-.250465.501518-.595002.937187-1.03361,1.306417s-.958353.654972-1.556882.856638c-.599705.201666-1.247622.302792-1.943751.302792-.654972,0-1.249974-.076433-1.786181-.229887-.536207-.152866-1.024203-.348064-1.462811-.585007-.438608-.236354-.821949-.497991-1.148847-.783733-.328074-.285154-.596178-.567368-.805487-.846055l1.421654-1.295246Z" fill="#fff"/><path d="M200.488565,79.698629c-.752571,0-1.441645-.135816-2.068396-.407447s-1.166486-.644389-1.619204-1.118274c-.452719-.473297-.807838-1.020087-1.065359-1.640371-.258696-.619696-.386869-1.284663-.386869-1.99549,0-.710239.128172-1.375207.386869-1.99549.257521-.619696.61264-1.166486,1.065359-1.640371.452719-.473297.992454-.846055,1.619204-1.117686s1.315824-.407447,2.068396-.407447c.738461,0,1.421654.135816,2.048405.407447s1.170013.644389,1.629788,1.117686c.459774.473885.818421,1.020675,1.075942,1.640371.257521.620283.386869,1.285251.386869,1.99549,0,.710827-.129348,1.375795-.386869,1.99549-.257521.620283-.616168,1.167074-1.075942,1.640371-.459774.473885-1.003037.846643-1.629788,1.118274s-1.309945.407447-2.048405.407447ZM200.488565,78.068253c.502106,0,.954825-.100539,1.358156-.302792.404507-.201666.745516-.466242,1.024203-.793728s.491523-.703772.637334-1.128857c.145811-.424497.219892-.859578.219892-1.305829,0-.431553-.074081-.860166-.219892-1.285251-.145811-.424497-.362175-.804311-.647917-1.138264-.285742-.334542-.626751-.602645-1.024203-.804899-.396276-.201666-.845467-.302792-1.347573-.302792-.50093,0-.953649.101127-1.358156.302792-.404507.202254-.745516.466829-1.024203.794316s-.490347.703184-.637334,1.128269c-.145811.425085-.218716.860166-.218716,1.305829,0,.446251.072905.877804.218716,1.295834.146987.417442.362175.793728.647917,1.128269.285742.333954.626751.602645,1.024203.804311.397452.202254.846643.302792,1.347573.302792Z" fill="#fff"/><path d="M214.760377,71.201089h-1.755608v-1.566877h1.755608v-.794316c0-.654384.094071-1.222341.282214-1.702693.188143-.48094.438608-.874276.751396-1.180596.313963-.30632.672611-.532679,1.075942-.679078.404507-.146399.829004-.219304,1.274668-.219304.516217,0,1.020675.079961,1.515726.239882.493875.160509.950121.435668,1.368739.825477l-.940714,1.212346c-.515041-.432141-1.065359-.647917-1.650954-.647917-.543263,0-.978343.174032-1.305241.522096-.328074.348652-.491523.94777-.491523,1.797352v.626751h2.778635v1.566877h-2.778635v8.497539h-1.880253v-8.497539Z" fill="#fff"/><path d="M228.676802,71.270366h-1.755608v-1.566877h1.755608v-3.176087h1.880253v3.176087h2.842133v1.566877h-2.842133v4.785296c0,.780205.121117,1.316412.365703,1.609209.24341.292209.587946.438608,1.03361.438608.362175,0,.662028-.055267.899558-.166977.236354-.11171.472709-.278687.710239-.501518l.85605,1.148847c-.403331.390396-.818421.672611-1.242919.846643-.425673.174032-.930131.261048-1.51455.261048-1.031258,0-1.787357-.278687-2.267121-.83606-.48094-.556785-.720822-1.427534-.720822-2.611658v-4.973439Z" fill="#fff"/><path d="M241.282896,69.982226h2.069571l2.17305,7.41812,2.340027-7.41812h1.608621l2.341203,7.480442,2.130718-7.480442h1.943751l-3.218419,9.716403h-1.859087l-2.257714-6.790781-2.235372,6.790781h-1.755608l-3.280741-9.716403Z" fill="#fff"/><path d="M269.576055,78.256984c-.362175.487408-.839588.849583-1.431062,1.086525-.59265.236354-1.201763.35512-1.828513.35512-.404507,0-.804311-.052327-1.201763-.156982-.397452-.104067-.759627-.278099-1.086525-.522096-.328074-.24341-.59265-.556785-.793728-.940126-.202254-.383341-.30338-.85311-.30338-1.410483,0-1.044781.365703-1.880841,1.097108-2.507592s1.786181-.940126,3.165504-.940126c.222244,0,.459774.007055.710239.020578.250465.014111.487996.028221.710239.041744.22342.014111.418618.028221.585595.041744.166977.014111.285742.028221.35512.041744v-.35512c0-.723762-.219892-1.242919-.6585-1.556882-.438608-.313375-1.03361-.469769-1.786181-.469769-.738461,0-1.324055.101127-1.755608.302792-.431553.202254-.793728.407447-1.086525.616756l-.877216-1.274668c.166977-.139343.36923-.278687.605585-.41803.23753-.139343.515041-.268104.83606-.386869.319843-.118177.682018-.215776,1.086525-.292209s.870161-.115238,1.400488-.115238c1.253502,0,2.2389.30338,2.956195.908965.717295.606173,1.075942,1.466338,1.075942,2.581085v5.651929c0,.341597.007055.90191.021166,1.138852h-1.783026l-.013738-1.441645ZM269.554889,74.829844c-.055267-.013523-.163449-.031161-.323371-.052327-.161097-.020578-.345713-.038217-.553846-.051739-.209309-.014111-.432729-.028221-.669083-.042332-.23753-.013523-.466829-.020578-.689073-.020578-.530328,0-.958353.06291-1.285251.188143-.328074.125233-.585595.282214-.773738.469769-.188143.188143-.316315.397452-.385693.627339-.070554.229887-.104654.449191-.104654.657912,0,.52974.181088.930131.543263,1.201763s.863105.407447,1.503967.407447c.362175,0,.706712-.06291,1.034786-.188143.326898-.125233.616168-.292797.866633-.501518.250465-.209309.452719-.452719.606761-.731405.152866-.278687.229299-.564429.229299-.856638v-1.107691Z" fill="#fff"/><path d="M280.514734,71.571032v-1.055364c0-.299265-.007055-.609113-.021166-.929543h1.796764l.062322,1.566877c.11171-.166977.258696-.351592.439784-.553258.179912-.202254.399804-.386869.657324-.553846.257521-.167565.557373-.309848.899558-.428613.341009-.118177.733757-.17756,1.180596-.17756.208133,0,.399804.014111.573836.041744.174032.028221.337481.069966.491523.125233l-.418618,1.755608c-.250465-.097599-.570308-.146399-.960704-.146399-.404507,0-.777265.077021-1.118274.229887-.341009.153454-.637334.365703-.887799.637334s-.449191.588534-.595002.950709c-.146987.362175-.219892.745516-.219892,1.149435l-.021166,5.51535h-1.880253l.021166-8.127596Z" fill="#fff"/><path d="M303.307512,77.96319c-.11171.125821-.278687.285742-.50093.48094-.22342.195198-.512689.383341-.867809.563841-.35512.181088-.772562.338069-1.253502.470357s-1.02773.198726-1.640371.198726c-.752571,0-1.441645-.125821-2.068396-.376286-.626751-.251053-1.162958-.606173-1.608621-1.065947-.446839-.459774-.791376-1.009504-1.034786-1.650366s-.365703-1.351101-.365703-2.131306c0-.710827.118765-1.375795.35512-1.996078.236354-.619108.571484-1.155903,1.003037-1.608621s.944242-.811366,1.535716-1.075942c.59265-.264576,1.242919-.397452,1.954334-.397452.834884,0,1.552179.160509,2.151884.48094.598529.320431,1.090053.745516,1.473394,1.274668.382165.529152.664379,1.135325.845467,1.81793s.271631,1.392845.271631,2.131306h-7.667997c.014111.431553.107006.829004.282214,1.191179.174032.362175.406859.67555.699656.940126s.626751.473885,1.003037.626751c.376286.153454.773738.229887,1.191179.229887.821949,0,1.496912-.139343,2.027239-.41803.529152-.278687.911317-.550318,1.148847-.814894l1.065359,1.128269ZM301.615402,73.68c-.056443-.752571-.321019-1.392845-.793728-1.922585-.473885-.529152-1.142968-.794316-2.006073-.794316-.446839,0-.846643.077021-1.201763.229887-.35512.153454-.6585.355708-.908965.606173s-.445663.539735-.585595.867221c-.138755.327486-.215188.665555-.229299,1.01362h5.725422Z" fill="#fff"/><path d="M74.779807,19.095659c.748851,1.07583,1.449277,2.20712,2.083888,3.366411l.107552-.057615c-1.812332-5.246151-5.30162-10.248383-9.845827-14.108555l-.877539-.720451-.902688-.683297c-.628457-.464685-1.258252-.900294-1.869586-1.292288-.608926-.392533-1.267348-.805526-1.958678-1.170598l-.076785-.039846c-.642102-.334918-1.306409-.681144-1.976871-.976216-2.578038-1.215289-5.455992-2.134429-8.560554-2.733728-5.125042-.989139-10.471609-.896525-15.462345.265996l-.00107.000538-.001338-.005385-.381783.086691-.001338-.006461c-.856938.202458-1.715482.433993-2.560648.690297-5.106314,1.549669-9.848503,3.984017-13.71449,7.039201l-1.085955.864756c-.488532.387686-.926767.739835-1.351624,1.126444-1.618631,1.375748-3.191513,2.981955-4.957293,5.060385-1.669732,1.980432-3.026975,3.860711-4.148245,5.748528-1.321659,2.199582-2.38086,4.26832-3.239403,6.325212-.905631,2.133891-1.665451,4.402933-2.259395,6.746282-.559431,2.204428-.971446,4.566623-1.224274,7.020894-.20681,2.007893-.254433,4.078246-.145543,6.328981.479971,9.904311,4.045241,19.016558,10.038993,25.659457,6.24658,6.923434,14.523003,11.249368,23.30428,12.180354,8.069346.853987,16.567295-1.221751,23.354845-5.703298l-.112368-.239612c-7.776387,3.893556-17.001249,4.757774-25.3574,2.366503-.721294-.206228-1.450347-.44207-2.167093-.699989-8.41073-3.029339-15.43024-9.361012-19.765229-17.827115l-.100863-.221304c-.394625-.867448-.802627-1.764512-1.138928-2.680959-.746711-1.965893-1.338515-3.996401-1.758021-6.031216-.404524-2.0402-.657352-4.140706-.752329-6.245521-.099526-2.038584-.029965-4.154168.206543-6.288059.890381-8.293259,4.280946-16.428213,9.546715-22.904191,1.430014-1.753743,2.837822-3.249028,4.304222-4.570392,1.710666-1.555592,3.319666-2.828496,4.917697-3.891403,1.71682-1.161982,3.549752-2.20389,5.445825-3.096107,1.802433-.848064,3.738637-1.577668,5.756442-2.169967l-.001338-.018846.144205-.021.292691-.082922-.00107-.017231.133504-.017231v.001077c4.501668-1.209905,9.066744-1.564746,13.566272-1.052676l.000268-.000538c.023544.001615.045482.004308.065815.008077l.330682.041999c.225806.028.450809.055999.64879.089383,10.104541,1.854972,18.232479,6.888434,23.508682,14.556549Z" fill="#fff"/><path d="M68.971127,69.040499c-.086641.688927-.189775,1.394345-.305272,2.116282-1.782155,1.984293-5.27634,4.657537-8.473487,6.13442.210397-.515669.416664-1.068477.614673-1.658399.796215-2.392699,1.419122-5.503229,1.419122-10.10711v-.684822c.004129-1.328351.004129-2.813467-.045373-3.72105.874572-.589922,1.819294-1.254123,2.937248-2.066805,1.208725-.862209,2.995009-2.47934,4.079978-3.523041.325894,3.865452.457908,8.184682-.226889,13.510525Z" fill="#fff"/><path d="M39.037581,67.534735c1.955438-.280521,6.406657-.957084,8.481721-1.534644,3.353912-.932308,8.881868-2.937248,13.423883-5.527955.06602-.045373.148507-.099004.226889-.152636.965343-.643554,1.976059-1.357257,3.205406-2.248321,1.534644-1.093228,4.096471-3.523041,4.682263-4.13361l.589947-.598181c.16087-.15674.321764-.313506.47853-.4744,3.329161-3.345654,5.994147-7.054365,7.941301-11.039443.408406-.845692.808578-1.753274,1.216984-2.776353.210397-.940592.338282-1.87703.404276-2.801129.292909-4.29035-.853951-8.258936-2.182302-10.350492-.099004.396018-.218656.804448-.35067,1.216984-1.01482,3.193018-2.854736,6.744939-4.277987,9.492412l-.115497.222785c-1.208725,2.318445-2.726851,4.533757-4.504901,6.57994,0,.004104-.004104.008234-.008234.012363-.03301.041269-.070124.086641-.107263.132014-.041243.049502-.082512.103134-.123755.152636l-.037139.037139c-.915816.948826-1.761508,1.773896-2.594837,2.532946-.903453.820966-1.852279,1.613026-2.821751,2.355585-.660046.50741-1.340739.990094-2.033795,1.476883l-.680668.47853-.024751.016518c-.222785.15674-.445545.317635-.66833.47853-.783802.565171-1.600613,1.150964-2.471081,1.65427-.383655.22276-.783802.453779-1.188103.676564l-.338282.181516c-.565171.305272-1.208725.631166-1.971905.994199-.140273.078383-.28465.148507-.441416.210397-1.472753.688927-4.434752,1.852279-4.562637,1.901781-2.788741,1.027208-6.975958,2.318445-11.130189,2.648468-2.207053.169153-4.968994-.311445-5.868318-.521841l-.096949-.484745c-.016492-.070124-.02888-.140248-.041243-.206268-.037139-.185621-.070124-.379525-.103134-.573405-.049502-.272287-.078383-.561067-.099004-.940592-.02888-.515669-.024751-1.051959.016492-1.691384v-.004129c.041269-.622932.107263-1.266486.206268-1.963671.111393-.738429.239277-1.472753.391913-2.198819.156765-.767309.342411-1.571758.556912-2.38031.206268-.792086.445545-1.613026.730195-2.516479.268158-.845692.565171-1.720264.891065-2.603096.334152-.891065.684822-1.778025,1.051985-2.636105.396018-.924075.804423-1.802776,1.204595-2.619588.429027-.866314.886935-1.728523,1.353102-2.549464.470296-.833329.973577-1.65014,1.493375-2.429838.556938-.833329,1.093228-1.571758,1.637777-2.260684.57343-.726066,1.171586-1.410863,1.773896-2.037924.474425-.490918,0,0,2.184899-2.255032,1.565559,1.376597,2.250752,1.877324,3.78801,3.28627.937131.858916,1.846574,1.748175,2.724941,2.667117,1.011424,1.058147,1.981813,2.155908,2.901198,3.295035.99503,1.232851,1.930664,2.514503,2.787119,3.847595.890243,1.385684,1.695299,2.827629,2.382702,4.324798.698904,1.522221,1.275865,3.102408,1.687948,4.726645.00413.020649.012389.041271.016493.061893.441416-.31766.866339-.627061,1.287133-.948826.944696-.721936,1.864642-1.493375,2.743343-2.293694.730195-.664201,1.472753-1.386137,2.264814-2.19469-.008234-.020622-.020622-.045373-.02888-.06602-.334152-.771439-.734299-1.600638-1.113825-2.334938-.02888-.06189-.053632-.111393-.074253-.152636l-.086641-.152636c-4.954551-9.28204-14.121069-17.813263-17.784382-20.486507-1.216984-.886935-4.443011-3.24252-7.013097-1.683125l-.144402.086616c-1.596509.990094-3.18063,2.301953-4.727636,3.923213l-1.720264,1.943049.004104-.004129-.004104.004129c-6.83571,8.312567-11.765509,21.48894-11.464367,30.688493.136144,4.141843,1.410863,7.272971,3.791199,9.302662,1.930661,1.641882,4.401743,2.685608,7.351379,3.098143,1.547007.218631,3.267271.25577,5.131938.119626" fill="#fff"/></svg>