<?xml version="1.0" encoding="UTF-8"?><svg id="a" xmlns="http://www.w3.org/2000/svg" width="342" height="96" xmlns:xlink="http://www.w3.org/1999/xlink" viewBox="0 0 342 96"><defs><radialGradient id="b" cx="63.08" cy="31.11" fx="63.08" fy="31.11" r="48.38" gradientTransform="translate(113.24 -16.58) rotate(112.15) scale(1 .92)" gradientUnits="userSpaceOnUse"><stop offset=".17" stop-color="#acd6f2"/><stop offset=".62" stop-color="#5ca9d4"/><stop offset=".77" stop-color="#006ba5"/><stop offset=".82" stop-color="#02518b"/><stop offset="1" stop-color="#003d63"/></radialGradient><radialGradient id="c" cx="56.09" cy="35.56" fx="56.09" fy="35.56" r="75.37" gradientTransform="translate(102.45 120.61) rotate(-140.26) scale(.97 .75) skewX(.27)" gradientUnits="userSpaceOnUse"><stop offset=".02" stop-color="#c33b1a"/><stop offset=".67" stop-color="#c33b1a"/><stop offset=".72" stop-color="#c73e1a"/><stop offset=".78" stop-color="#d3471d"/><stop offset=".79" stop-color="#d64a1e"/><stop offset=".89" stop-color="#e87a20"/><stop offset="1" stop-color="#f8a843"/></radialGradient><radialGradient id="d" cx="69.52" cy="28.45" fx="69.52" fy="28.45" r="52.64" gradientUnits="userSpaceOnUse"><stop offset=".06" stop-color="#5ca9d4"/><stop offset=".28" stop-color="#006ba5"/><stop offset=".76" stop-color="#003d63"/></radialGradient><radialGradient id="e" cx="69.02" cy="32.44" fx="69.02" fy="32.44" r="65.94" xlink:href="#d"/><radialGradient id="f" cx="69.02" cy="32.45" fx="69.02" fy="32.45" r="65.95" xlink:href="#d"/><radialGradient id="g" cx="69.02" cy="32.35" fx="69.02" fy="32.35" r="65.62" xlink:href="#d"/><radialGradient id="h" cx="69.1" cy="32.37" fx="69.1" fy="32.37" r="65.67" xlink:href="#d"/><radialGradient id="i" cx="70.7" cy="32.08" fx="70.7" fy="32.08" r="64.27" xlink:href="#d"/><radialGradient id="j" cx="65.59" cy="33.66" fx="65.59" fy="33.66" r="63.86" xlink:href="#d"/><radialGradient id="k" cx="67.38" cy="32.81" fx="67.38" fy="32.81" r="65.46" xlink:href="#d"/><radialGradient id="l" cx="68.02" cy="30.65" fx="68.02" fy="30.65" r="68.4" xlink:href="#d"/><radialGradient id="m" cx="68.41" cy="31.99" fx="68.41" fy="31.99" r="66.17" xlink:href="#d"/><radialGradient id="n" cx="68.66" cy="32.41" fx="68.66" fy="32.41" r="65.17" xlink:href="#d"/><radialGradient id="o" cx="68.89" cy="32.42" fx="68.89" fy="32.42" r="65.34" xlink:href="#d"/><linearGradient id="p" x1="54.57" y1="19.41" x2="67.09" y2="86.87" gradientUnits="userSpaceOnUse"><stop offset="0" stop-color="#c33b1a"/><stop offset=".18" stop-color="#d64a1e"/><stop offset=".31" stop-color="#e87a20"/><stop offset=".42" stop-color="#f8a843"/><stop offset=".51" stop-color="#fbb670"/><stop offset=".62" stop-color="#f8a843"/><stop offset=".74" stop-color="#e87a20"/><stop offset=".87" stop-color="#d64a1e"/><stop offset=".96" stop-color="#c33b1a"/></linearGradient><linearGradient id="q" x1="62.71" y1="17.58" x2="75.34" y2="85.63" xlink:href="#p"/><linearGradient id="r" x1="42.46" y1="73.45" x2="43.33" y2="73.45" gradientUnits="userSpaceOnUse"><stop offset=".16" stop-color="#d5411f"/><stop offset=".28" stop-color="#df581f"/><stop offset=".45" stop-color="#ec731f"/><stop offset=".6" stop-color="#f3831f"/><stop offset=".71" stop-color="#f6891f"/><stop offset="1" stop-color="#f6891f"/></linearGradient><linearGradient id="s" x1="47.27" y1="75.77" x2="47.39" y2="75.77" xlink:href="#r"/><linearGradient id="t" x1="37.95" y1="80.25" x2="38.8" y2="26.14" gradientUnits="userSpaceOnUse"><stop offset=".17" stop-color="#c33b1a"/><stop offset=".36" stop-color="#d64a1e"/><stop offset=".62" stop-color="#e87a20"/><stop offset=".76" stop-color="#f8a843"/><stop offset=".84" stop-color="#fbb670"/></linearGradient><linearGradient id="u" x1="36.67" y1="51.6" x2="90.99" y2="51.6" gradientUnits="userSpaceOnUse"><stop offset="0" stop-color="#fbb670"/><stop offset=".19" stop-color="#f8a843"/><stop offset=".53" stop-color="#e87a20"/><stop offset=".81" stop-color="#d64a1e"/><stop offset=".99" stop-color="#c33b1a"/></linearGradient><linearGradient id="v" x1="42.85" y1="74.61" x2="48" y2="74.61" gradientUnits="userSpaceOnUse"><stop offset="0" stop-color="#f6891f"/><stop offset=".21" stop-color="#f4841f"/><stop offset=".43" stop-color="#ee771f"/><stop offset=".66" stop-color="#e4621f"/><stop offset=".89" stop-color="#d6441f"/><stop offset=".91" stop-color="#d5411f"/></linearGradient></defs><path d="M153.99,34.78c-.46-2.03-1.46-3.82-2.96-5.33-1.79-1.84-4.23-3.1-7.26-3.73-2.82-.6-7.19-.89-13.34-.89-7.98,0-13.39.74-16.54,2.25-3.28,1.57-5.12,4.54-5.33,8.57l-.1,1.94h10.43l.37-1.36c.19-.67.52-1.06,1.12-1.3.78-.32,3.19-.84,10.5-.84,4.32,0,7.4.19,9.16.56,1.46.31,2.53.86,3.16,1.63.1.13.18.25.25.36.39.67.83,1.92.9,4.22-.79-.35-1.66-.62-2.59-.81-2.45-.48-7.22-.71-14.58-.71-9.63,0-12.62.79-14.03,1.39-2.22.97-3.82,2.41-4.78,4.3-.9,1.79-1.33,4.13-1.33,7.16,0,2.48.28,4.41.85,5.9.63,1.61,1.74,3,3.32,4.13,1.59,1.18,3.71,1.92,6.5,2.27,2.53.32,6.92.48,13.06.48,5.61,0,9.42-.31,11.63-.94.68-.19,1.33-.45,1.95-.77l-.04,1.59h10.3v-20.87c0-3.91-.16-6.7-.48-8.55-.03-.21-.08-.44-.13-.65ZM143.94,52.15c0,1.81-.74,2.35-1.46,2.63-1.04.41-3.72.91-10.56.91-10.6,0-12.63-.56-13-.74-.57-.27-1.25-.83-1.25-2.66,0-1.49.35-2.44,1.04-2.85.14-.08.81-.39,2.88-.58,1.68-.15,4.78-.23,9.2-.23,7.25,0,10.2.53,11.39.98,1.25.46,1.76,1.19,1.76,2.52Z" fill="#d64a1e"/><polygon points="162.55 8.57 162.55 9.14 162.55 63.04 162.55 64.88 164.4 64.88 171 64.88 172.84 64.88 172.84 63.04 172.84 9.14 172.84 8.57 162.55 8.57" fill="#d64a1e"/><path d="M229.54,34.44c-1.07-2.87-3.07-5.19-5.92-6.87-1.84-1.06-4.04-1.77-6.75-2.16-2.56-.37-6.17-.55-11.05-.55-5.79,0-9.81.36-12.27,1.1-.79.24-1.52.54-2.21.91v-1.72h-10.29v63.79h10.29v-25.95c.72.37,1.51.68,2.34.92,2.46.7,6.23,1.05,11.54,1.05,7.16,0,12.12-.43,15.16-1.32,3.28-.96,5.91-2.96,7.83-5.94,1.85-2.88,2.75-7.05,2.75-12.77,0-3.98-.4-7.25-1.19-9.74-.08-.25-.16-.5-.26-.75ZM220.32,45.08c0,2.77-.25,4.91-.74,6.36-.44,1.27-1.08,2.18-1.97,2.78-.51.34-1.58.81-3.7,1.09-1.87.26-4.84.39-8.83.39-7.04,0-9.84-.73-10.94-1.34h-.01s-.01-.02-.01-.02c-1-.53-1.71-1.41-2.15-2.68-.53-1.51-.79-3.89-.79-7.09,0-2.69.25-4.78.74-6.2.21-.6.47-1.12.78-1.57.33-.49.72-.88,1.17-1.2.49-.33,1.56-.79,3.77-1.08,2.01-.26,5.2-.39,9.48-.39,6.54,0,9.19.73,10.27,1.34h.02s.02.02.02.02c.61.33,1.1.76,1.48,1.31.27.39.49.83.66,1.32.52,1.47.78,3.82.78,6.97Z" fill="#d64a1e"/><path d="M285.72,35.24c-.47-2.12-1.44-3.97-2.86-5.48h-.01s-.01-.03-.01-.03c-1.69-1.71-4.01-2.92-6.9-3.58-2.72-.62-6.48-.93-11.51-.93-5.98,0-10.25.43-13.04,1.31-.98.31-1.87.71-2.68,1.18V8.57h-10.29v56.31h10.29v-18.57c0-3.89.19-5.61.35-6.37.19-.91.61-1.71,1.27-2.44.04-.04.06-.07.09-.1l.02-.02.02-.02c.87-.92,2.23-1.62,4.06-2.08,2.11-.53,5.21-.8,9.22-.8,3.55,0,6.22.2,7.93.59,1.42.33,2.41.84,2.95,1.51.12.16.23.31.31.45l.02.03.02.03c.37.6.63,1.29.78,2.13.22,1.22.34,3.61.34,7.1v18.57h10.3v-20.29c0-3.97-.18-6.85-.54-8.8-.03-.19-.07-.37-.11-.55Z" fill="#d64a1e"/><path d="M339.84,35.44c-.04-.23-.08-.45-.13-.66-.45-2.02-1.45-3.82-2.97-5.34-1.78-1.84-4.23-3.09-7.26-3.73-2.81-.6-7.18-.89-13.34-.89-7.98,0-13.39.74-16.55,2.25-3.28,1.58-5.12,4.54-5.33,8.57l-.1,1.94h10.44l.37-1.36c.19-.67.52-1.06,1.11-1.3.79-.32,3.19-.84,10.5-.84,4.32,0,7.4.19,9.16.56,1.46.31,2.53.86,3.16,1.63.09.11.17.23.24.36.39.67.83,1.92.9,4.22-.79-.35-1.65-.62-2.59-.8-2.45-.48-7.22-.71-14.58-.71-9.63,0-12.62.79-14.03,1.39-2.23.97-3.84,2.42-4.78,4.3-.9,1.79-1.34,4.13-1.34,7.15,0,2.47.28,4.4.86,5.9.62,1.61,1.73,3,3.31,4.13,1.59,1.18,3.72,1.92,6.51,2.27,2.52.32,6.92.48,13.06.48,5.61,0,9.42-.31,11.63-.94.68-.19,1.33-.45,1.95-.77l-.04,1.58h10.3v-20.87c0-3.91-.16-6.71-.49-8.54ZM329.67,52.15c0,1.81-.74,2.35-1.46,2.63-1.04.41-3.72.91-10.56.91-10.6,0-12.63-.56-13-.74-.57-.27-1.25-.83-1.25-2.66,0-2.24.77-2.7,1.03-2.85.18-.1.88-.39,2.89-.58,1.68-.15,4.77-.23,9.19-.23,7.24,0,10.2.53,11.4.98,1.24.46,1.75,1.19,1.75,2.52Z" fill="#d64a1e"/><path d="M202.04,84.79c.22.25.46.5.74.76.27.26.58.49.92.69.34.2.72.37,1.14.49.42.12.88.19,1.38.19,1.03,0,1.83-.23,2.4-.7.57-.47.86-1.1.86-1.89,0-.86-.33-1.5-.98-1.92-.65-.43-1.59-.77-2.82-1.04-.67-.14-1.28-.33-1.82-.58-.54-.25-1.01-.56-1.41-.93s-.7-.8-.92-1.29c-.22-.49-.33-1.05-.33-1.67,0-.57.11-1.12.33-1.63s.54-.96.98-1.35c.44-.39.98-.7,1.63-.93.65-.23,1.41-.35,2.26-.35.76,0,1.42.08,1.97.24.55.16,1.02.36,1.41.59s.7.47.93.72c.23.25.41.45.54.61l-1.49,1.38c-.09-.11-.23-.25-.42-.43-.19-.18-.42-.35-.71-.52s-.62-.32-1-.43c-.38-.12-.82-.17-1.32-.17s-.93.07-1.28.2c-.36.13-.65.3-.89.51-.23.21-.4.45-.51.71-.11.27-.16.53-.16.79,0,.39.08.72.24.99.16.27.4.51.71.72s.7.39,1.16.54c.46.15.98.29,1.57.43.58.14,1.14.32,1.69.55.55.23,1.04.53,1.48.91.44.38.78.85,1.04,1.4.26.55.38,1.22.38,2.02,0,.67-.14,1.28-.42,1.84-.28.56-.66,1.05-1.15,1.46s-1.07.73-1.74.96c-.67.23-1.39.34-2.17.34-.73,0-1.4-.09-1.99-.26-.6-.17-1.14-.39-1.63-.65-.49-.26-.92-.56-1.28-.87-.37-.32-.67-.63-.9-.94l1.59-1.45Z" fill="#02518b"/><path d="M225.13,88.97c-.84,0-1.61-.15-2.31-.45s-1.3-.72-1.81-1.25c-.51-.53-.9-1.14-1.19-1.83-.29-.69-.43-1.43-.43-2.23s.14-1.54.43-2.23c.29-.69.68-1.3,1.19-1.83.51-.53,1.11-.94,1.81-1.25s1.47-.45,2.31-.45,1.59.15,2.29.45,1.31.72,1.82,1.25c.51.53.91,1.14,1.2,1.83.29.69.43,1.43.43,2.23s-.14,1.54-.43,2.23c-.29.69-.69,1.3-1.2,1.83-.51.53-1.12.95-1.82,1.25s-1.46.45-2.29.45ZM225.13,87.15c.56,0,1.07-.11,1.52-.34.45-.23.83-.52,1.14-.89s.55-.79.71-1.26c.16-.47.25-.96.25-1.46s-.08-.96-.25-1.43c-.16-.47-.4-.9-.72-1.27-.32-.37-.7-.67-1.14-.9-.44-.23-.94-.34-1.5-.34s-1.06.11-1.52.34c-.45.23-.83.52-1.14.89s-.55.78-.71,1.26c-.16.47-.24.96-.24,1.46s.08.98.24,1.45c.16.47.4.89.72,1.26.32.37.7.67,1.14.9.44.23.95.34,1.5.34Z" fill="#02518b"/><path d="M241.06,79.48h-1.96v-1.75h1.96v-.89c0-.73.11-1.36.32-1.9.21-.54.49-.98.84-1.32.35-.34.75-.59,1.2-.76.45-.16.93-.24,1.42-.24.58,0,1.14.09,1.69.27.55.18,1.06.49,1.53.92l-1.05,1.35c-.57-.48-1.19-.72-1.84-.72-.61,0-1.09.19-1.46.58-.37.39-.55,1.06-.55,2.01v.7h3.1v1.75h-3.1v9.49h-2.1v-9.49Z" fill="#02518b"/><path d="M256.59,79.56h-1.96v-1.75h1.96v-3.55h2.1v3.55h3.17v1.75h-3.17v5.34c0,.87.14,1.47.41,1.8.27.33.66.49,1.15.49.4,0,.74-.06,1-.19.26-.12.53-.31.79-.56l.96,1.28c-.45.44-.91.75-1.39.95-.48.19-1.04.29-1.69.29-1.15,0-2-.31-2.53-.93-.54-.62-.8-1.59-.8-2.92v-5.55Z" fill="#02518b"/><path d="M270.66,78.12h2.31l2.43,8.28,2.61-8.28h1.8l2.61,8.35,2.38-8.35h2.17l-3.59,10.85h-2.08l-2.52-7.58-2.5,7.58h-1.96l-3.66-10.85Z" fill="#02518b"/><path d="M302.25,87.36c-.4.54-.94.95-1.6,1.21-.66.26-1.34.4-2.04.4-.45,0-.9-.06-1.34-.18-.44-.12-.85-.31-1.21-.58-.37-.27-.66-.62-.89-1.05-.23-.43-.34-.95-.34-1.57,0-1.17.41-2.1,1.22-2.8s1.99-1.05,3.53-1.05c.25,0,.51,0,.79.02.28.02.54.03.79.05.25.02.47.03.65.05.19.02.32.03.4.05v-.4c0-.81-.25-1.39-.74-1.74-.49-.35-1.15-.52-1.99-.52s-1.48.11-1.96.34c-.48.23-.89.45-1.21.69l-.98-1.42c.19-.16.41-.31.68-.47.27-.16.57-.3.93-.43.36-.13.76-.24,1.21-.33s.97-.13,1.56-.13c1.4,0,2.5.34,3.3,1.01.8.68,1.2,1.64,1.2,2.88v6.31c0,.38,0,1.01.02,1.27h-1.99l-.02-1.61ZM302.22,83.53c-.06-.02-.18-.03-.36-.06-.18-.02-.39-.04-.62-.06-.23-.02-.48-.03-.75-.05-.27-.02-.52-.02-.77-.02-.59,0-1.07.07-1.43.21-.37.14-.65.32-.86.52-.21.21-.35.44-.43.7-.08.26-.12.5-.12.73,0,.59.2,1.04.61,1.34s.96.45,1.68.45c.4,0,.79-.07,1.16-.21.36-.14.69-.33.97-.56.28-.23.51-.51.68-.82.17-.31.26-.63.26-.96v-1.24Z" fill="#02518b"/><path d="M314.46,79.89v-1.18c0-.33,0-.68-.02-1.04h2.01l.07,1.75c.12-.19.29-.39.49-.62.2-.23.45-.43.73-.62.29-.19.62-.35,1-.48.38-.13.82-.2,1.32-.2.23,0,.45.02.64.05.19.03.38.08.55.14l-.47,1.96c-.28-.11-.64-.16-1.07-.16s-.87.09-1.25.26c-.38.17-.71.41-.99.71s-.5.66-.66,1.06c-.16.4-.25.83-.25,1.28l-.02,6.16h-2.1l.02-9.07Z" fill="#02518b"/><path d="M339.9,87.03c-.12.14-.31.32-.56.54-.25.22-.57.43-.97.63-.4.2-.86.38-1.4.53s-1.15.22-1.83.22c-.84,0-1.61-.14-2.31-.42-.7-.28-1.3-.68-1.8-1.19-.5-.51-.88-1.13-1.16-1.84s-.41-1.51-.41-2.38c0-.79.13-1.54.4-2.23.26-.69.64-1.29,1.12-1.8s1.05-.91,1.71-1.2c.66-.3,1.39-.44,2.18-.44.93,0,1.73.18,2.4.54.67.36,1.22.83,1.64,1.42.43.59.74,1.27.94,2.03s.3,1.55.3,2.38h-8.56c.02.48.12.93.32,1.33.19.4.45.75.78,1.05s.7.53,1.12.7c.42.17.86.26,1.33.26.92,0,1.67-.16,2.26-.47.59-.31,1.02-.61,1.28-.91l1.19,1.26ZM338.01,82.25c-.06-.84-.36-1.55-.89-2.15-.53-.59-1.28-.89-2.24-.89-.5,0-.95.09-1.34.26-.4.17-.74.4-1.01.68s-.5.6-.65.97c-.15.37-.24.74-.26,1.13h6.39Z" fill="#02518b"/><path d="M90.62,48.48c-.07,1.38-.21,2.75-.41,4.13-.04.28-.08.55-.13.83,0,0,0,.02,0,.03,0,.05-.01.1-.02.14-.05.29-.1.57-.16.85-.99,5.17-2.9,10.21-5.68,14.83-.17.29-.35.58-.54.87-.02.03-.03.05-.05.08-.18.29-.37.58-.57.87-2.51,3.74-5.6,7.17-9.27,10.09-.66.52-1.31,1.03-1.98,1.49t-.01,0c-.3.22-.58.42-.89.62-.07.05-.12.09-.19.14h-.02c-.3.21-.59.41-.9.6h-.02c-1.88,1.19-3.82,2.2-5.79,3.05-1.17.5-2.34.94-3.53,1.32,0,0,0,0-.01,0-.62.2-1.24.39-1.87.55-.82.22-1.65.41-2.47.58,0,0,0,0-.01,0-.11.02-.2.04-.3.05,0,0,0,0-.01,0-.27.05-.54.1-.81.14-.12.02-.23.04-.35.05h-.01c-.26.05-.52.09-.78.13h0c-.13.02-.25.03-.38.05h0c-.18.02-.35.05-.53.06h0c-.41.05-.82.09-1.22.12-.1.01-.2.02-.3.03-3.98.29-7.94-.04-11.74-.99-.26-.06-.52-.13-.79-.2-.2-.06-.39-.11-.59-.17-.02,0-.05-.01-.06-.02-.2-.06-.4-.12-.6-.19-.02,0-.05-.01-.08-.02-2.84-.89-5.57-2.13-8.12-3.73,0,0-.01,0-.02,0-.15-.09-.3-.19-.45-.29-.02,0-.03-.02-.05-.04-.14-.09-.29-.19-.43-.29-2.21-1.46-4.27-3.2-6.15-5.19-.13-.14-.26-.27-.38-.41-.2-.23-.41-.45-.6-.68-.13-.15-.26-.3-.38-.45-.04-.05-.07-.09-.11-.13-.17-.19-.33-.39-.48-.58-.47-.59-.93-1.21-1.38-1.84-9.15-13.03-9.18-30.51-1.41-44.52h0s0,0,0-.01c.22-.4.44-.78.68-1.17,0,0,0,0,0,0,2.69-4.54,6.23-8.67,10.55-12.12.24-.19.49-.39.74-.57h0s.09-.07.09-.07c.11-.09.22-.17.33-.25,4.03-3.01,8.37-5.17,12.82-6.53.17-.06.36-.11.54-.17.11-.03.23-.06.34-.1h0c.11-.03.21-.06.31-.08h0c.13-.04.25-.07.38-.1.12-.03.24-.06.38-.1,0,0-.02,0-.02.01,4.53-1.13,9.15-1.44,13.62-.92h0c.13.01.27.03.4.05.18.02.37.05.55.07.13.02.26.04.39.06h0c.85.13,1.69.29,2.52.48.36.08.73.17,1.08.26.57.15,1.14.31,1.7.48.34.11.68.22,1.02.34.02,0,.04,0,.05.02,6.24,2.15,11.89,6.03,16.28,11.57.16.19.32.39.47.59l.57.77c.1.13.19.26.28.39,1.24,1.76,2.31,3.6,3.21,5.5.83,1.74,1.52,3.53,2.08,5.36.18.58.34,1.17.49,1.77.07.24.13.48.18.73.02.07.04.15.05.22.06.25.11.5.17.75.11.52.21,1.04.29,1.57.07.41.14.82.19,1.22.1.73.18,1.46.24,2.19.17,1.92.2,3.85.1,5.79Z" fill="url(#b)"/><path d="M84.8,21.32c.84,1.2,1.62,2.46,2.33,3.76l.12-.06c-2.02-5.86-5.92-11.44-10.99-15.75l-.98-.8-1.01-.76c-.7-.52-1.4-1-2.09-1.44-.68-.44-1.41-.9-2.19-1.31l-.09-.04c-.72-.37-1.46-.76-2.21-1.09-2.88-1.36-6.09-2.38-9.56-3.05-5.72-1.1-11.69-1-17.26.3h0s0,0,0,0l-.43.1h0c-.96.22-1.91.48-2.86.76-5.7,1.73-10.99,4.45-15.31,7.86l-1.21.97c-.55.43-1.03.83-1.51,1.26-1.81,1.54-3.56,3.33-5.53,5.65-1.86,2.21-3.38,4.31-4.63,6.42-1.48,2.46-2.66,4.76-3.62,7.06-1.01,2.38-1.86,4.91-2.52,7.53-.62,2.46-1.08,5.1-1.37,7.84-.23,2.24-.28,4.55-.16,7.06.54,11.06,4.52,21.23,11.21,28.64,6.97,7.73,16.21,12.56,26.01,13.6,9.01.95,18.49-1.36,26.07-6.37l-.13-.27c-8.68,4.35-18.98,5.31-28.31,2.64-.81-.23-1.62-.49-2.42-.78-9.39-3.38-17.22-10.45-22.06-19.9l-.11-.25c-.44-.97-.9-1.97-1.27-2.99-.83-2.19-1.49-4.46-1.96-6.73-.45-2.28-.73-4.62-.84-6.97-.11-2.28-.03-4.64.23-7.02.99-9.26,4.78-18.34,10.66-25.57,1.6-1.96,3.17-3.63,4.8-5.1,1.91-1.74,3.71-3.16,5.49-4.34,1.92-1.3,3.96-2.46,6.08-3.46,2.01-.95,4.17-1.76,6.43-2.42v-.02s.16-.02.16-.02l.33-.09v-.02s.15-.02.15-.02h0c5.03-1.35,10.12-1.75,15.14-1.17h0s.05,0,.07,0l.37.05c.25.03.5.06.72.1,11.28,2.07,20.35,7.69,26.24,16.25Z" fill="url(#c)"/><path d="M66.12,56.65c-.1.06-.2.12-.3.19,0,0,0,.02,0,.02.1-.07.19-.14.29-.21Z" fill="none"/><path d="M66.01,10.07s-.03-.02-.05-.02c-.34-.12-.68-.23-1.02-.34,2,.74,3.97,1.69,5.88,2.87,0,0,.01,0,.02,0-1.57-.99-3.19-1.83-4.83-2.51Z" fill="url(#d)"/><path d="M12.75,50.21c-.01-.14-.03-.28-.03-.42-.1,1.28-.14,2.55-.12,3.81l.02.85.03.5c-.07-1.57-.03-3.15.1-4.75ZM12.65,54.96c.02.75.08,1.49.15,2.22l-.15-2.22ZM17.32,33.87s-.01.02-.02.04c-2.5,4.86-3.97,9.91-4.49,14.92h0c0,.14.01.29.02.43,0,0,0,0,0-.01h0c.52-4.99,2-10.04,4.51-14.9h0s0,0,0,0c-.02-.16-.03-.31-.03-.46ZM27.77,20.58c-3.93,3.41-7.35,7.57-9.96,12.37,0,0,0,0,0,0,0,.15.01.3.03.46,2.62-4.81,6.02-8.98,9.96-12.41-.02-.14-.02-.29-.02-.42ZM41.8,12.35c-4.76,1.71-9.27,4.27-13.28,7.58h0s0,0,0,0c0,.07,0,.13.01.2,0,.07,0,.14.01.22,4-3.34,8.51-5.94,13.27-7.69,0-.11-.01-.21-.02-.32ZM57.55,9.88c-5.01-.2-10.04.54-14.84,2.15,0,.06,0,.11,0,.16,0,.06,0,.11.01.16h0c4.79-1.64,9.82-2.44,14.82-2.29,0-.06,0-.12,0-.17ZM58.5,9.94c0,.06,0,.1.01.16,4.13.22,8.22,1.1,12.14,2.68v-.02c-3.92-1.63-8.03-2.54-12.15-2.81Z" fill="url(#e)"/><path d="M21.3,78.01c-.98-1.65-1.73-3.49-2.26-5.48-.17-.16-.32-.31-.47-.47.53,1.93,1.28,3.73,2.23,5.36.04.05.07.09.11.13.13.16.26.32.4.47,0,0,0-.01-.01-.02ZM18.66,59.5c-.21-.21-.41-.42-.62-.62-.69,4.51-.56,8.74.35,12.48.15.17.31.32.47.48-.85-3.69-.94-7.86-.21-12.34ZM23.13,43.8c-2.51,4.87-4.15,9.67-4.95,14.21.2.21.4.41.62.63.83-4.51,2.48-9.29,4.99-14.16-.23-.23-.45-.45-.66-.68ZM33.42,30.03c-.1-.1-.21-.21-.31-.31-3.65,3.9-6.89,8.33-9.5,13.16.22.23.44.45.67.68,0,0,0,0,0,0,2.6-4.83,5.83-9.28,9.44-13.21-.11-.11-.21-.21-.31-.31ZM46.1,19.52c-.08-.08-.16-.16-.23-.24-4.25,2.59-8.34,5.86-12.05,9.69h0s0,0,0,0c.1.11.21.21.31.31.1.11.21.21.31.31,3.66-3.86,7.71-7.19,11.9-9.84-.08-.08-.16-.16-.23-.23ZM59.7,13.55c-4.33.95-8.74,2.75-13.01,5.25h0c.15.16.3.3.46.46h0c4.21-2.56,8.55-4.43,12.81-5.45h0c-.08-.09-.16-.17-.25-.26ZM70.87,13.12c-3.29-.55-6.78-.44-10.35.26l.23.23c3.5-.76,6.92-.95,10.14-.47,0,0-.01-.02-.03-.03Z" fill="url(#f)"/><path d="M29.37,80.46c-.24-.15-.48-.31-.73-.46-.21,1.89-.13,3.43.22,4.58.02.01.03.03.05.04.15.1.3.19.45.29,0,0,.01,0,.02,0-.29-1.1-.28-2.6,0-4.45ZM31.41,69.42c-1.44,3.93-2.34,7.33-2.7,10.07.24.16.49.32.75.47.45-2.68,1.43-6.04,2.91-9.93-.32-.2-.64-.41-.96-.61ZM37.73,55.32c-2.53,4.85-4.55,9.35-6.05,13.33,0,0,0,0,0,0,.17.11.32.21.49.31.16.11.32.21.49.31h0c1.55-3.96,3.6-8.44,6.12-13.29-.35-.23-.7-.45-1.05-.67ZM46.55,40.32h0c-2.93,4.46-5.77,9.21-8.33,14.08,0,0,0,0,0,0,.17.11.35.22.53.33.17.11.35.22.52.33,2.57-4.86,5.37-9.63,8.26-14.13-.33-.21-.64-.41-.97-.62ZM56.07,27.33h0c-2.97,3.61-6,7.71-8.96,12.14h0c.32.21.64.41.96.61,2.89-4.46,5.86-8.62,8.74-12.28-.25-.15-.5-.31-.74-.47ZM65.1,17.81c-2.63,2.3-5.5,5.31-8.46,8.85.24.15.47.3.72.45,2.86-3.59,5.63-6.68,8.13-9.05-.13-.09-.26-.17-.39-.25ZM71.42,13.55c-1.7.7-3.67,2.02-5.82,3.84.12.08.24.16.36.23,2.04-1.87,3.9-3.26,5.49-4.03-.01-.01-.03-.02-.04-.03Z" fill="url(#g)"/><path d="M41.86,86.93c-1.09.95-2.1,1.66-3.02,2.1.26.07.52.14.79.2.95-.42,1.98-1.08,3.06-1.97-.28-.11-.56-.22-.83-.34ZM48.95,78.61h0c-2.4,3.42-4.67,6.11-6.7,7.98l.84.35c2.13-1.83,4.49-4.48,6.94-7.88-.36-.14-.73-.29-1.09-.45ZM56.89,65.37c-2.54,4.84-5.08,9.07-7.49,12.58.37.16.73.3,1.11.46,2.46-3.49,5.04-7.7,7.58-12.55-.4-.16-.79-.33-1.2-.49ZM64.19,49.57h0c-1.99,4.95-4.29,9.99-6.82,14.87h0c.4.17.79.33,1.19.5,2.52-4.89,4.78-9.94,6.72-14.92-.37-.15-.74-.3-1.1-.46ZM69.46,34.36h0c-1.28,4.49-2.94,9.33-4.89,14.27.36.15.73.3,1.09.45,1.89-4.96,3.46-9.84,4.64-14.37-.28-.11-.55-.23-.83-.35ZM72.19,21.53c-.41,3.46-1.26,7.53-2.49,11.98.13.06.27.11.41.17.14.06.27.11.41.17h0c1.12-4.49,1.85-8.61,2.11-12.13-.14-.06-.29-.12-.44-.18ZM72.18,13.94s-.03,0-.05-.02c.38,1.8.41,4.16.12,6.95.15.06.29.12.42.17.17-2.84.01-5.25-.49-7.11Z" fill="url(#h)"/><path d="M65.8,83.71c-2.31,2.18-4.74,3.95-7.23,5.29.63-.17,1.25-.35,1.87-.55,0,0,0,0,.01,0,2.11-1.24,4.18-2.79,6.15-4.62-.27-.03-.53-.07-.81-.11ZM75.3,70.94c-2.56,4.84-5.59,8.92-8.88,12.16h0c.28.05.55.08.82.12,3.34-3.24,6.38-7.31,8.94-12.15-.29-.04-.58-.08-.89-.12ZM81.55,54.75c-.14-.02-.27-.04-.41-.06h0c-1.09,5.23-2.87,10.43-5.35,15.32h0c.3.05.58.08.88.12,2.47-4.9,4.23-10.09,5.28-15.33-.13-.02-.27-.04-.41-.06ZM82.95,38.33c-.2-.02-.41-.05-.62-.08.34,4.98.02,10.22-.99,15.45h0c.27.05.54.08.8.12.97-5.24,1.22-10.49.81-15.48ZM79.33,23.63c-.11-.01-.22-.03-.33-.05h0c1.74,4.11,2.83,8.77,3.26,13.71h0c.2.03.4.06.6.08-.51-4.95-1.69-9.63-3.54-13.75ZM72.86,14.14s-.02,0-.04,0c2.39,2.4,4.32,5.34,5.83,8.67h0c.11.02.2.03.31.05-1.59-3.34-3.63-6.3-6.11-8.71Z" fill="url(#i)"/><path d="M52.88,90.08c-.41.05-.82.09-1.22.12-1.69-.39-3.52-.93-5.48-1.61-1.17-.4-2.33-.85-3.5-1.32-.28-.11-.56-.22-.83-.34-4.34-1.81-8.63-4.06-12.49-6.47-.24-.15-.48-.31-.73-.46-3.8-2.44-7.13-5.01-9.6-7.48-.17-.16-.32-.31-.47-.47-1.23-1.28-2.22-2.52-2.92-3.69-.36-.6-.63-1.17-.81-1.69l-.25-.77c.18.52.46,1.07.81,1.67.71,1.2,1.73,2.46,2.99,3.77.15.17.31.32.47.48,2.54,2.53,5.95,5.17,9.85,7.66.24.16.49.32.75.47,3.95,2.47,8.35,4.77,12.79,6.63l.84.35c1.2.48,2.39.93,3.58,1.34,2.25.78,4.33,1.38,6.22,1.79Z" fill="url(#j)"/><path d="M70.7,83.47c-.3.21-.59.41-.9.6h-.02c-.98-.02-2.04-.11-3.17-.25-.27-.03-.53-.07-.81-.11-3.19-.48-6.93-1.44-11.12-2.9-1.54-.53-3.09-1.12-4.64-1.75h0c-.36-.14-.73-.29-1.09-.45h0c-5.76-2.41-11.45-5.38-16.57-8.58h0c-.32-.2-.64-.41-.96-.61-5.04-3.22-9.46-6.65-12.75-9.92-.21-.21-.41-.42-.61-.62-1.63-1.69-2.95-3.34-3.87-4.9-.84-1.43-1.31-2.68-1.42-3.77-.01-.14-.03-.28-.03-.42s0-.28.01-.42l.07-.8c0,.09,0,.17,0,.26h0c0,.13.01.27.03.41h0v.02c.11,1.09.58,2.37,1.44,3.81.93,1.57,2.26,3.24,3.91,4.95.2.21.4.41.62.63h0c3.32,3.31,7.78,6.77,12.87,10.02,0,0,0,0,0,0,.17.11.32.21.49.31.16.11.32.21.49.3h0s0,0,0,0c5.17,3.23,10.92,6.24,16.74,8.67.37.16.73.3,1.11.46,1.57.64,3.13,1.22,4.69,1.77,4.24,1.47,8.01,2.44,11.23,2.92h0c.28.05.55.08.82.12,1.24.17,2.4.25,3.45.26Z" fill="url(#k)"/><path d="M83.68,70.18s-.03.05-.05.08c-.18.29-.37.58-.57.87-1.84.3-4.15.29-6.88-.06-.29-.04-.58-.08-.89-.12-3.47-.53-7.56-1.58-12.15-3.17-1.68-.58-3.38-1.22-5.07-1.91-.4-.16-.79-.33-1.2-.49-6.3-2.63-12.52-5.89-18.11-9.38-.35-.23-.7-.45-1.05-.67-5.51-3.52-10.34-7.26-13.93-10.84-.23-.23-.45-.45-.66-.68-1.79-1.85-3.22-3.65-4.23-5.35-.67-1.14-1.27-2.38-1.49-3.69-.02-.14-.05-.28-.06-.42h0c-.02-.15-.03-.29-.05-.43-.1-1.13.03-2.17.24-3.42h0s0,0,0-.01c.22-.4.44-.78.68-1.17-.23.62-.42,2.98-.41,3.64h0c0,.16.01.31.02.47.12,1.18.63,2.56,1.56,4.12,1,1.69,2.44,3.5,4.22,5.35.23.23.45.45.68.68,3.58,3.58,8.42,7.32,13.93,10.84.17.12.35.23.52.34.17.11.35.22.52.33h0c5.59,3.5,11.8,6.75,18.1,9.38h0c.4.17.79.33,1.19.5h0c1.69.68,3.38,1.32,5.06,1.9,4.59,1.6,8.67,2.64,12.15,3.17h0c.3.05.58.08.88.12h0c2.78.36,5.14.37,7,.04Z" fill="url(#l)"/><path d="M90.08,53.45s0,.02,0,.03c0,.05-.01.1-.02.14-.05.29-.1.57-.16.85-1.87.65-4.57.77-7.95.34-.13-.01-.27-.03-.41-.05-.14-.02-.27-.04-.41-.06h0c-3.2-.48-6.96-1.45-11.19-2.91-1.54-.54-3.1-1.13-4.66-1.75h0c-.37-.15-.74-.3-1.1-.46h0c-5.78-2.42-11.52-5.42-16.66-8.63h0c-.33-.21-.64-.41-.97-.62h0c-5.07-3.24-9.51-6.69-12.81-9.97h0c-.11-.11-.21-.21-.31-.31-.1-.11-.2-.21-.3-.32-1.64-1.7-2.97-3.36-3.89-4.92-.85-1.44-1.32-2.71-1.43-3.79-.02-.14-.03-.29-.03-.42-.02-1.2.89-3.26,1.74-3.98l.45-.34c-.79.7-1.46,2.53-1.44,3.67h0c0,.07,0,.14,0,.21,0,.07,0,.14.01.22.12,1.08.57,2.33,1.41,3.75.93,1.54,2.23,3.18,3.85,4.86h0c.1.11.2.21.3.32.1.11.21.21.31.31,3.26,3.26,7.66,6.66,12.68,9.87h0c.32.21.64.41.96.61h0c5.09,3.19,10.76,6.15,16.49,8.54.36.15.73.3,1.09.45,1.54.62,3.08,1.2,4.61,1.74,4.17,1.45,7.89,2.4,11.07,2.88h0c.27.05.54.08.8.12,3.39.44,6.08.3,7.94-.37Z" fill="url(#m)"/><path d="M89.64,36.97c.06.25.11.5.17.75-1.4.8-3.75,1.02-6.85.62-.2-.02-.41-.05-.62-.08-2.43-.37-5.29-1.1-8.49-2.21-1.17-.41-2.36-.86-3.54-1.34h0c-.28-.11-.55-.23-.83-.35h0c-4.4-1.84-8.74-4.11-12.65-6.56-.25-.15-.5-.31-.74-.47h0c-3.85-2.46-7.23-5.07-9.73-7.58h0c-.08-.08-.16-.16-.23-.23-.07-.08-.15-.16-.23-.24-1.24-1.29-2.25-2.55-2.95-3.74-.65-1.08-1.01-2.04-1.09-2.88,0-.11-.01-.22-.02-.32-.02-1.26.91-2.38,2.14-2.94.26-.07.49-.12.76-.19-1.15.55-2,1.61-1.99,2.81,0,.06,0,.11,0,.16,0,.06.01.11.02.16.08.81.43,1.75,1.06,2.81.69,1.16,1.67,2.38,2.88,3.64h0s0,0,0,0c.15.16.3.3.45.46h0c2.45,2.44,5.74,4.99,9.5,7.4.24.15.47.3.72.45h0c3.81,2.39,8.05,4.61,12.34,6.4.13.06.27.11.41.17.13.06.27.11.41.17h0c1.16.47,2.31.9,3.45,1.3,3.13,1.09,5.91,1.8,8.28,2.16h0c.2.03.4.06.6.08h0c3.06.4,5.36.17,6.72-.64.02.07.04.15.05.22Z" fill="url(#n)"/><path d="M83.34,23c-.05.06-.11.11-.17.16h0s-.08.06-.13.09c-.73.47-2,.59-3.7.38-.11-.01-.22-.03-.33-.05h0c-1.28-.19-2.79-.58-4.49-1.17-.62-.22-1.24-.45-1.87-.7-.14-.06-.29-.12-.44-.18-2.33-.98-4.63-2.18-6.7-3.47h0c-.13-.09-.26-.17-.39-.25-2.03-1.3-3.82-2.68-5.15-4.01-.08-.08-.16-.17-.25-.25-.66-.69-1.19-1.35-1.56-1.98-.34-.58-.53-1.09-.58-1.52,0-.06,0-.12,0-.17,0-.71.39-1.22,1.15-1.52.18.02.37.05.55.07.13.02.26.04.39.06-.75.26-1.15.75-1.14,1.44h0c0,.06,0,.11.01.16.04.41.22.89.54,1.43.35.59.85,1.22,1.47,1.86l.23.23c1.24,1.24,2.92,2.55,4.84,3.77.12.08.24.16.36.23,1.94,1.22,4.1,2.35,6.29,3.26.15.06.29.12.42.17.59.23,1.18.46,1.76.66,1.59.55,3.01.91,4.21,1.1h0c.11.02.2.03.31.05h0c1.59.21,2.79.08,3.48-.36h0s.08-.05.12-.08h0c.07-.06.14-.12.19-.18l.57.77Z" fill="url(#o)"/><path d="M76.8,48.42c-.92.95-1.87,1.89-2.86,2.79-.99.91-2.03,1.77-3.1,2.59-.74.57-1.49,1.1-2.25,1.63-2.35-11.07-11.97-20.44-17.64-24.84,0,0-.01,0-.02.01-2.65-2.69-7.92-7.03-11.84-3.93,2.3-2.79,4.81-5.12,7.47-6.73h0c3.24-1.97,7.1.85,8.55,1.91,4.51,3.3,14.64,12.96,20.05,23.09h0s.06.12.17.35c.52,1,1.05,2.13,1.47,3.13Z" fill="url(#p)"/><path d="M78.59,79.72c-2.33,2.67-7.3,6.33-11.31,7.78,1.46-3.21,2.86-7.11,2.86-14.35,0-1.82.02-4.21-.08-5.25,1.23-.82,2.43-1.67,3.58-2.51,1.86-1.32,5.11-4.43,5.46-4.85.51,5.36.78,11.37-.51,19.18Z" fill="url(#q)"/><path d="M42.85,73.43c.16.1.32.21.48.31-.19-.11-.37-.23-.54-.35-.11-.07-.22-.15-.33-.23.13.09.26.18.39.26Z" fill="url(#r)"/><path d="M47.39,75.78s-.02,0-.04,0c-.03-.01-.06-.02-.08-.04.01,0,.02,0,.03,0,.03.01.06.03.08.04Z" fill="url(#s)"/><path d="M36.43,61.36c-.04.61-.05,1.21-.02,1.81.02.33.05.65.1.98.04.21.07.42.12.64.01.08.03.16.05.23h0c.13.66.31,1.31.56,1.93.44,1.11,1.07,2.15,1.82,3.08.33.41.69.8,1.06,1.17.17.17.35.35.54.52.07.06.14.13.22.2.13.11.26.23.4.34.1.08.2.16.3.25.14.12.29.23.45.34.02.02.04.03.06.05.12.09.24.18.37.27.11.07.22.15.33.23.17.12.35.23.54.35.47.3.98.58,1.52.87.75.4,1.57.77,2.45,1.14,0,0-.02,0-.03,0,.02.01.05.02.08.04h-.01c-3.04.41-5.79.46-8.25.11-3.42-.48-6.28-1.68-8.54-3.61-2.8-2.39-4.31-6.05-4.46-10.86-.33-10.01,5.04-25.12,13-34.75,3.93-3.1,9.2,1.24,11.84,3.93-.73.59-1.42,1.23-2.07,1.91-.69.71-1.33,1.46-1.94,2.23-.64.8-1.23,1.63-1.8,2.48-.58.87-1.13,1.76-1.64,2.68-.52.92-1.02,1.86-1.49,2.81-.47.95-.91,1.92-1.33,2.89-.41.96-.8,1.93-1.16,2.91-.35.95-.68,1.91-.99,2.87-.29.92-.56,1.85-.81,2.78-.23.87-.44,1.75-.62,2.62-.17.8-.31,1.61-.43,2.41-.1.71-.18,1.43-.23,2.14Z" fill="url(#t)"/><path d="M90.45,43.78c-.43,1.09-.89,2.16-1.4,3.19-2.5,5.13-5.94,9.62-9.99,13.48,0,0,0,.02-.03.05-.35.42-3.61,3.53-5.46,4.85-1.15.84-2.35,1.69-3.58,2.51-.1.07-.21.14-.31.21-5.34,3.05-11.72,5.29-15.13,6.23-2.54.71-4.92,1.2-7.16,1.5-.01,0-.02,0-.04-.01-.03-.01-.06-.02-.08-.04.01,0,.02,0,.03,0,0,0,.01,0,.02,0-.89-.36-1.72-.75-2.47-1.14-.54-.29-1.05-.57-1.52-.87-.19-.11-.37-.23-.54-.35-.11-.07-.22-.15-.33-.23-.13-.09-.25-.18-.37-.27-.02-.01-.04-.03-.06-.05-.15-.12-.3-.23-.45-.34-.11-.09-.21-.17-.3-.25-.14-.12-.27-.23-.4-.34-.07-.07-.14-.13-.22-.2-.19-.17-.37-.35-.54-.52-.37-.37-.73-.76-1.06-1.17-.75-.93-1.38-1.97-1.82-3.08-.24-.62-.42-1.27-.56-1.92h0s0,0,0,0c.77.4,2.67.84,5.95.59,3.93-.31,8.27-1.45,12.24-2.91,0,0,3.41-1.34,5.08-2.12.16-.06.3-.13.44-.21.74-.35,1.48-.72,2.2-1.11.12-.06.24-.13.37-.2.45-.25.89-.5,1.32-.75,1.21-.7,2.32-1.55,3.45-2.35.26-.18.52-.37.79-.55.76-.53,1.52-1.07,2.25-1.63,1.07-.82,2.11-1.69,3.1-2.59.99-.9,1.94-1.84,2.86-2.79,0,0,.01-.01.02-.02.09-.1.17-.22.26-.32,1.9-2.19,3.58-4.61,4.95-7.23,1.98-3.83,4.84-9.29,5.53-13.41,2.36,2.38,4.53,9.46,2.96,16.38Z" fill="url(#u)"/><path d="M47.39,75.78s-.03,0-.05,0c-1.77-.72-3.25-1.52-4.49-2.36,1.25.83,2.74,1.63,4.54,2.35Z" fill="url(#v)"/></svg>