<?xml version="1.0" encoding="UTF-8"?>
<svg id="a" xmlns="http://www.w3.org/2000/svg" width="342" height="96" viewBox="0 0 342 96">
    <path d="M153.987844238,34.779628023c-.462890625-2.031860352-1.459716797-3.822631836-2.964904785-5.331848145-1.788757324-1.844360352-4.23059082-3.100585938-7.257568359-3.733947754-2.820129395-.59552002-7.185180664-.885253906-13.342834473-.885253906-7.98034668,0-13.391540527.736572266-16.543945312,2.25189209-3.277954102,1.571411133-5.122436523,4.535217285-5.332458496,8.570068359l-.100524902,1.940734863h10.430541992l.372619629-1.35546875c.184997559-.672729492.519836426-1.062072754,1.119750977-1.301818848.784912109-.31652832,3.18572998-.844299316,10.496398926-.844299316,4.321533203,0,7.404846191.190002441,9.163513184.564758301,1.46484375.312011719,2.526977539.859069824,3.157592773,1.625976562.101135254.126159668.184387207.247253418.248352051.361999512.387390137.672363281.828491211,1.919128418.902770996,4.22442627-.791320801-.352783203-1.656311035-.621887207-2.591674805-.806030273-2.450073242-.479003906-7.220397949-.711608887-14.584228516-.711608887-9.633422852,0-12.620056152.79284668-14.029174805,1.389099121-2.222229004.967163086-3.824707031,2.409851074-4.77923584,4.295349121-.896972656,1.786132812-1.331665039,4.126281738-1.331665039,7.159973145,0,2.480712891.278442383,4.411132812.85144043,5.901672363.625549316,1.612854004,1.741455078,3.000366211,3.317687988,4.128845215,1.587097168,1.175354004,3.713256836,1.916625977,6.499511719,2.265808105,2.52947998.316162109,6.924621582.47644043,13.064331055.47644043,5.610290527,0,9.415161133-.306091309,11.633483887-.935791016.682495117-.193786621,1.334228516-.450378418,1.953308105-.768310547l-.040283203,1.586425781h10.297302246v-20.86895752c0-3.907226562-.15814209-6.704956055-.483337402-8.553222656-.034606934-.213684082-.080078125-.438049316-.12677002-.646911621ZM142.481740723,54.788966402c-1.042236328.414489746-3.721618652.909790039-10.555969238.909790039-10.598876953,0-12.632873535-.56463623-13.004211426-.737670898-.573608398-.27355957-1.246459961-.828918457-1.246459961-2.656860352,0-1.485839844.348266602-2.444213867,1.035827637-2.848510742.137695312-.078491211.8125-.387023926,2.881652832-.58001709,1.680603027-.149963379,4.778625488-.226318359,9.200622559-.226318359,7.246032715,0,10.196166992.534484863,11.394714355.982971191,1.249023438.463195801,1.756103516,1.193359375,1.756103516,2.522155762,0,1.807006836-.738830566,2.34576416-1.462280273,2.634460449Z"
          fill="#f5f5f7"/>
    <polygon
            points="162.552053223 9.143336519 162.552053223 63.037623629 162.552053223 64.882533297 164.397207031 64.882533297 170.996572266 64.882533297 172.841726074 64.882533297 172.841726074 63.037623629 172.841726074 9.143336519 172.841726074 8.573939547 162.552053223 8.573939547 162.552053223 9.143336519"
            fill="#f5f5f7"/>
    <path d="M229.53722168,34.442836031c-1.072387695-2.873474121-3.067321777-5.190795898-5.921447754-6.867248535-1.838684082-1.06060791-4.043640137-1.765075684-6.753051758-2.161376953-2.562133789-.368041992-6.17364502-.546569824-11.04510498-.546569824-5.793334961,0-9.805603027.359863281-12.266662598,1.100036621-.787475586.24041748-1.523681641.544494629-2.205566406.910766602v-1.720153809h-10.289001465v63.790039062h10.289001465v-25.945251465c.724121094.372497559,1.506469727.678710938,2.34387207.916687012,2.456542969.703918457,6.233215332,1.046630859,11.542541504,1.046630859,7.161560059,0,12.121337891-.433044434,15.163024902-1.323974609,3.275390625-.957275391,5.911804199-2.955566406,7.833740234-5.939208984,1.85345459-2.875427246,2.754272461-7.053710938,2.754272461-12.773193359,0-3.976135254-.398864746-7.253173828-1.18572998-9.74017334-.08001709-.246154785-.163208008-.497802734-.259887695-.747009277ZM219.580495605,51.439295992c-.436645508,1.268737793-1.080688477,2.180603027-1.966796875,2.77923584-.508300781.336242676-1.576843262.808105469-3.703674316,1.093078613-1.873291016.257141113-4.84197998.387145996-8.827392578.387145996-7.044311523,0-9.839538574-.730529785-10.944580078-1.343383789l-.014099121-.007873535-.014038086-.007568359c-1.003234863-.533630371-1.706848145-1.411560059-2.151794434-2.683898926-.527587891-1.507507324-.794555664-3.893066406-.794555664-7.090454102,0-2.688964844.248413086-4.77532959.738830566-6.20135498.211914062-.603820801.467346191-1.121032715.77722168-1.571228027.334228516-.491394043.715759277-.879882812,1.172912598-1.197021484.486572266-.327453613,1.555725098-.79473877,3.765136719-1.078796387,2.00579834-.257751465,5.196044922-.388427734,9.482299805-.388427734,6.536682129,0,9.194885254.726745605,10.274291992,1.336425781l.016662598.009399414.016662598.009094238c.612670898.329284668,1.096069336.758300781,1.478271484,1.311584473.268859863.386291504.489746094.828308105.659423828,1.319030762.516662598,1.474060059.77722168,3.815551758.77722168,6.965393066,0,2.765441895-.249694824,4.905090332-.742004395,6.359619141Z"
          fill="#f5f5f7"/>
    <path d="M274.614614258,36.585292086c.124206543.156982422.233032227.313476562.31237793.449584961l.015380859.026489258.016662598.026000977c.374511719.595336914.630004883,1.292236328.780456543,2.130432129.22277832,1.22442627.335449219,3.611938477.335449219,7.099304199v18.565429688h10.296020508v-20.290222168c0-3.969665527-.177307129-6.850097656-.541625977-8.804504395-.031982422-.194702148-.070373535-.37487793-.109436035-.547424316-.473754883-2.12487793-1.436645508-3.970581055-2.85925293-5.478088379l-.014099121-.015014648-.014038086-.014648438c-1.691467285-1.713928223-4.011047363-2.918640137-6.895202637-3.580871582-2.719665527-.622802734-6.484191895-.925476074-11.50994873-.925476074-5.982849121,0-10.24798584.428344727-13.038757324,1.309265137-.976318359.311279297-1.869445801.705993652-2.676086426,1.182006836V8.573939547h-10.289672852v56.30859375h10.289672852v-18.565429688c0-3.894287109.187561035-5.611450195.345031738-6.366210938.192749023-.905883789.608886719-1.707214355,1.270202637-2.442321777.035888672-.040222168.062133789-.071411133.089660645-.098754883l.015380859-.015625.020446777-.02166748c.866882324-.916625977,2.231201172-1.617553711,4.055847168-2.083312988,2.108215332-.531616211,5.212646484-.801757812,9.221740723-.801757812,3.549377441,0,6.217834473.198913574,7.932983398.591308594,1.416809082.329284668,2.411743164.836669922,2.950805664,1.506530762Z"
          fill="#f5f5f7"/>
    <path d="M339.838491211,35.435572847c-.037780762-.233276367-.082580566-.451843262-.128051758-.655578613-.452636719-2.020263672-1.450134277-3.815856934-2.966125488-5.33984375-1.78302002-1.835449219-4.229309082-3.094482422-7.257568359-3.7265625-2.811889648-.595153809-7.175598145-.885009766-13.335205078-.885009766-7.977783203,0-13.390869141.736328125-16.549072266,2.251159668-3.279846191,1.576293945-5.123718262,4.539916992-5.333679199,8.570800781l-.100524902,1.940734863h10.436889648l.372619629-1.35559082c.185668945-.674682617.518554688-1.063964844,1.112670898-1.301696777.785583496-.31652832,3.187072754-.844299316,10.503479004-.844299316,4.321533203,0,7.404846191.190002441,9.163513184.564758301,1.464172363.312011719,2.526977539.859069824,3.157592773,1.625976562.085144043.106384277.169006348.231079102.242004395.361999512.387329102.672241211.827819824,1.918579102.902038574,4.222961426-.790039062-.3515625-1.654968262-.620300293-2.590942383-.80456543-2.450805664-.479003906-7.217895508-.711608887-14.577880859-.711608887-9.633422852,0-12.620056152.79284668-14.029174805,1.389099121-2.232421875.971679688-3.836181641,2.416259766-4.782470703,4.301025391-.898193359,1.789245605-1.335510254,4.129394531-1.335510254,7.154296875,0,2.469177246.281066895,4.399597168.858581543,5.901550293.615234375,1.606689453,1.729248047,2.996826172,3.311218262,4.129150391,1.587768555,1.175842285,3.716491699,1.916870117,6.506591797,2.265625,2.521789551.316162109,6.917541504.47644043,13.063720703.47644043,5.612792969,0,9.416381836-.306274414,11.628356934-.936157227.682434082-.193847656,1.333557129-.449584961,1.95135498-.766113281l-.039672852,1.584594727h10.303710938v-20.86895752c0-3.910339355-.159423828-6.705383301-.488464355-8.544189453ZM328.210744629,54.788966402c-1.042236328.414489746-3.721557617.909790039-10.555969238.909790039-10.598876953,0-12.6328125-.564575195-13.004150391-.737670898-.573669434-.27355957-1.246520996-.828918457-1.246520996-2.656860352,0-2.243103027.774658203-2.698730469,1.02947998-2.848510742.179870605-.1015625.876464844-.393066406,2.887390137-.579956055,1.675476074-.150024414,4.770935059-.226379395,9.194885254-.226379395,7.244750977,0,10.19934082.534912109,11.40234375.983642578,1.242675781.460876465,1.748413086,1.191040039,1.748413086,2.521484375,0,1.809265137-.735595703,2.347045898-1.455871582,2.634460449Z"
          fill="#f5f5f7"/>
    <path d="M210.315236816,80.953639254c-.435791016-.38067627-.929321289-.683898926-1.48059082-.909667969-.552612305-.225097656-1.115722656-.408203125-1.692016602-.548034668-.590637207-.139770508-1.115722656-.283508301-1.573791504-.43182373-.459411621-.147033691-.844055176-.326171875-1.155151367-.536193848s-.547363281-.450927734-.711425781-.723266602c-.162780762-.271728516-.244140625-.602478027-.244140625-.991027832,0-.264526367.053833008-.528320312.162780762-.793518066.108947754-.263793945.279541016-.501403809.513244629-.710754395.233642578-.210021973.528930664-.381347656.885986328-.513244629.358337402-.131896973.784973145-.198181152,1.283752441-.198181152.497497559,0,.935913086.057739258,1.317871094.174560547.38067627.116821289.715393066.260559082,1.002868652.43182373.287475586.171325684.525024414.34588623.711425781.524414062.186401367.179199219.326843262.322937012.420043945.431884766l1.492431641-1.376281738c-.124694824-.155578613-.303222656-.357727051-.536865234-.606445312-.232299805-.248779297-.54473877-.49029541-.933227539-.723266602-.388549805-.232971191-.858459473-.431213379-1.411071777-.594604492-.551330566-.163452148-1.208984375-.244812012-1.970275879-.244812012-.855834961,0-1.60925293.116149902-2.262939453.34979248-.652404785.232971191-1.197143555.544067383-1.63293457.932617188-.435791016.389221191-.761291504.840087891-.979187012,1.35333252s-.326843262,1.057312012-.326843262,1.632263184c0,.622192383.108947754,1.178039551.326843262,1.668334961.217895508.489624023.525024414.920776367.921447754,1.294250488.39642334.373413086.866333008.684509277,1.411071777.933288574.543395996.248718262,1.149841309.442993164,1.819274902.582763672,1.228637695.264526367,2.169799805.610412598,2.822143555,1.038330078.653686523.42791748.979248047,1.069091797.979248047,1.924255371,0,.79284668-.287475586,1.422912598-.862426758,1.888916016-.574890137.46661377-1.375610352.700256348-2.402099609.700256348-.498779297,0-.95690918-.062316895-1.376953125-.187011719-.420043945-.124084473-.80065918-.287475586-1.141967773-.489624023-.342590332-.202148438-.649719238-.431213379-.921447754-.687805176-.273010254-.256652832-.517211914-.509338379-.735107422-.758056641l-1.586914062,1.445861816c.233642578.311096191.532897949.626098633.899108887.944396973.364929199.318969727.79284668.611022949,1.282470703.87487793.489562988.264526367,1.034301758.482421875,1.632873535.653015137.598571777.171325684,1.262756348.256652832,1.993896484.256652832.777038574,0,1.500305176-.112915039,2.16973877-.338012695.668151855-.225097656,1.248352051-.544067383,1.737915039-.956237793.489624023-.41217041.874206543-.898498535,1.153808594-1.458312988.280883789-.559204102.420043945-1.173522949.420043945-1.842285156,0-.793457031-.128662109-1.465576172-.38458252-2.01751709-.257263184-.551940918-.602478027-1.018615723-1.038330078-1.399902344Z"
          fill="#f5f5f7"/>
    <path d="M229.23265625,79.14547275c-.513244629-.528320312-1.119628906-.944396973-1.819274902-1.247619629s-1.462280273-.454833984-2.286621094-.454833984c-.840026855,0-1.60925293.151611328-2.308898926.454833984-.699584961.303222656-1.302124023.719299316-1.807495117,1.247619629-.505310059.528991699-.901733398,1.139404297-1.189208984,1.831115723-.288757324.692443848-.43182373,1.434692383-.43182373,2.227539062,0,.793457031.143066406,1.535766602.43182373,2.227539062.287475586.692382812.683898926,1.30279541,1.189208984,1.831115723.505371094.528991699,1.107910156.945068359,1.807495117,1.248291016.699645996.303222656,1.46887207.454833984,2.308898926.454833984.82434082,0,1.586975098-.151611328,2.286621094-.454833984s1.306030273-.719299316,1.819274902-1.248291016c.513244629-.528320312.913635254-1.13873291,1.201049805-1.831115723.287475586-.691772461.431884766-1.434082031.431884766-2.227539062,0-.79284668-.14440918-1.535095215-.431884766-2.227539062-.287414551-.691711426-.687805176-1.302124023-1.201049805-1.831115723ZM228.497609863,84.661830172c-.162780762.474487305-.40032959.89453125-.711425781,1.260070801-.311096191.365600586-.691772461.660949707-1.143310547.886047363-.450256348.225769043-.955627441.338012695-1.516113281.338012695-.559143066,0-1.060546875-.112243652-1.504272461-.338012695-.443664551-.225097656-.824279785-.525085449-1.143249512-.897827148-.318969727-.373474121-.559204102-.793518066-.723266602-1.259460449-.162780762-.466674805-.244140625-.948364258-.244140625-1.446533203,0-.497497559.081359863-.983154297.244140625-1.457641602.1640625-.47454834.40032959-.893920898.711425781-1.259460449.311096191-.365600586.691772461-.660949707,1.143310547-.88671875.451538086-.225097656.95690918-.338012695,1.516052246-.338012695.56048584,0,1.061950684.112915039,1.504272461.338012695.443664551.225769043.82434082.525085449,1.143310547.898498535.318969727.372802734.56048584.79675293.723266602,1.270629883.162780762.474487305.245483398.952941895.245483398,1.434692383,0,.498168945-.082702637.983825684-.245483398,1.457702637Z"
          fill="#f5f5f7"/>
    <path d="M244.835866699,72.623133883c-.497497559,0-.971374512.081359863-1.422912598.244812012-.450195312.163391113-.850585938.41607666-1.201049805.757995605-.349182129.34197998-.628723145.781005859-.838745117,1.317871094-.210021973.536254883-.315063477,1.170227051-.315063477,1.900695801v.88671875h-1.959716797v1.749023438h1.959716797v9.485656738h2.098876953v-9.485656738h3.101745605v-1.749023438h-3.101745605v-.699645996c0-.948364258.182495117-1.6171875.548706055-2.006347656.364929199-.388549805.850585938-.582824707,1.45703125-.582824707.653686523,0,1.267944336.240844727,1.842895508.723266602l1.050109863-1.35333252c-.467285156-.435119629-.976623535-.742248535-1.527893066-.921447754-.552612305-.178527832-1.115722656-.26776123-1.691955566-.26776123Z"
          fill="#f5f5f7"/>
    <path d="M261.257802734,86.998866304c-.265136719.124694824-.599853516.186401367-1.004150391.186401367-.497497559,0-.882080078-.163452148-1.153808594-.489624023-.273010254-.326843262-.408203125-.925415039-.408203125-1.796325684v-5.34173584h3.172607422v-1.749023438h-3.172607422v-3.545410156h-2.098937988v3.545410156h-1.959716797v1.749023438h1.959716797v5.551757812c0,1.321838379.267822266,2.293823242.8046875,2.915344238.535522461.622192383,1.379516602.933288574,2.530700684.933288574.652404785,0,1.215515137-.097167969,1.690673828-.291381836.473876953-.194274902.937194824-.509338379,1.387451172-.945129395l-.955627441-1.282409668c-.265136719.248718262-.528930664.435119629-.792785645.559814453Z"
          fill="#f5f5f7"/>
    <polygon
            points="282.421804199 86.46993564 279.808400879 78.119654879 278.012746582 78.119654879 275.400563965 86.400355562 272.97484375 78.119654879 270.664663086 78.119654879 274.326894531 88.96590732 276.286611328 88.96590732 278.781911621 81.385462984 281.302175293 88.96590732 283.377431641 88.96590732 286.970083008 78.119654879 284.800283203 78.119654879 282.421804199 86.46993564"
            fill="#f5f5f7"/>
    <path d="M304.229787598,86.5165665v-5.131103516c0-1.24432373-.400390625-2.204528809-1.201049805-2.881164551-.800720215-.676025391-1.900695801-1.014709473-3.299987793-1.014709473-.59197998,0-1.111755371.043334961-1.563293457.128662109s-.855834961.194274902-1.212890625.326171875c-.358337402.132568359-.66809082.276306152-.933288574.431884766-.263793945.155517578-.489562988.311096191-.675964355.46661377l.979187012,1.422912598c.326843262-.233642578.731140137-.46270752,1.212890625-.688476562.481750488-.225097656,1.135437012-.338012695,1.959716797-.338012695.840087891,0,1.504272461.174560547,1.993896484.524414062.489624023.350463867.735046387.929992676.735046387,1.737915039v.39642334c-.077392578-.015136719-.210021973-.030883789-.396362305-.046630859-.186401367-.015075684-.404296875-.030822754-.653686523-.046569824-.24810791-.015136719-.513244629-.030883789-.79284668-.046630859-.279602051-.015075684-.54473877-.022949219-.79284668-.022949219-1.539672852,0-2.717102051.34979248-3.533569336,1.049438477s-1.22467041,1.632873535-1.22467041,2.799133301c0,.622192383.112854004,1.146606445.338623047,1.574523926.224487305.42791748.519836426.777709961.886047363,1.049438477.364929199.272399902.769226074.46661377,1.212890625.582824707.443664551.116821289.889953613.175231934,1.341491699.175231934.699645996,0,1.379577637-.132568359,2.041137695-.39642334.660217285-.264465332,1.19317627-.668762207,1.597473145-1.212890625l.015319824,1.609313965h1.990356445c-.01574707-.264526367-.023620605-.889953613-.023620605-1.27130127v-1.178039551ZM302.224050293,84.767482027c0,.326171875-.085266113.645141602-.25592041.956237793-.17199707.311096191-.397766113.582824707-.677307129.816467285-.279602051.232971191-.602539062.420043945-.967407227.559814453-.366210938.139770508-.750854492.210021973-1.155151367.210021973-.715332031,0-1.274536133-.151611328-1.678833008-.454833984s-.606445312-.750183105-.606445312-1.341491699c0-.232971191.038085938-.477783203.116821289-.734436035.077453613-.256591797.22052002-.490234375.430541992-.700256348.210021973-.209350586.497497559-.38458252.863708496-.524414062.364929199-.139770508.842712402-.210021973,1.434692383-.210021973.24810791,0,.504089355.007873535.769226074.023010254.26385498.01574707.513244629.031494141.746887207.047241211.232299805.015075684.438415527.034790039.618225098.057739258.178527832.023620605.299316406.043334961.360961914.058410645v1.23651123Z"
          fill="#f5f5f7"/>
    <path d="M320.056691895,77.514125093c-.498840332,0-.937255859.06628418-1.317871094.198181152-.382019043.132568359-.71673584.291381836-1.004211426.47845459-.287414551.186401367-.532897949.392456055-.733703613.618225098-.202148438.225158691-.366271973.431213379-.490966797.617614746l-.069580078-1.749084473h-2.00567627c.01574707.357666016.023620605.703552246.023620605,1.037658691v1.178039551l-.023620605,9.072692871h2.098876953l.023620605-6.156677246c0-.450866699.081420898-.87878418.245483398-1.283081055.162780762-.404296875.38458252-.758056641.66418457-1.061279297s.610351562-.540161133.991027832-.711425781c.38067627-.170654297.79675293-.256652832,1.248291016-.256652832.435791016,0,.79284668.054504395,1.07244873.163452148l.467285156-1.959777832c-.171936035-.061645508-.354431152-.108276367-.54864502-.139770508-.194274902-.030822754-.40826416-.046569824-.640563965-.046569824Z"
          fill="#f5f5f7"/>
    <path d="M339.877797852,81.430995211c-.202148438-.762023926-.517150879-1.438659668-.943786621-2.02935791-.42791748-.590637207-.9765625-1.065185547-1.644714355-1.422851562-.669433594-.357727051-1.470153809-.536865234-2.402099609-.536865234-.794128418,0-1.520019531.14831543-2.18157959.443664551-.66027832.295349121-1.232543945.695678711-1.714294434,1.201049805s-.855834961,1.104553223-1.119689941,1.795654297c-.263793945.692443848-.396362305,1.434692383-.396362305,2.228210449,0,.870910645.136474609,1.663757324.408203125,2.379089355.271728516.715393066.656311035,1.329040527,1.155090332,1.842285156.497497559.513244629,1.096069336.909667969,1.795715332,1.189880371.699584961.279602051,1.468811035.420043945,2.308898926.420043945.683837891,0,1.294250488-.074157715,1.831115723-.221801758.536865234-.147705078,1.002807617-.322937012,1.399230957-.525085449.39642334-.201477051.719299316-.411499023.96875-.629394531.248046875-.217895508.434448242-.39642334.559143066-.536865234l-1.189208984-1.259460449c-.265197754.295349121-.691772461.598571777-1.282470703.909667969-.59197998.311096191-1.345397949.46661377-2.262939453.46661377-.466003418,0-.909667969-.085327148-1.329711914-.256591797-.420043945-.170654297-.792785645-.404296875-1.119628906-.699645996s-.586791992-.645141602-.781066895-1.049438477c-.195556641-.404296875-.299255371-.847961426-.315002441-1.329711914h8.559631348c0-.824279785-.101074219-1.617126465-.303222656-2.379089355ZM331.62138916,82.247401461c.01574707-.38848877.101074219-.765869141.255981445-1.131469727.156188965-.365539551.374084473-.688476562.653686523-.968017578.279541016-.279602051.618225098-.505371094,1.014648438-.676696777.39642334-.170654297.842712402-.256591797,1.341491699-.256591797.963439941,0,1.710327148.295959473,2.239318848.886657715.527709961.591369629.823059082,1.306091309.886047363,2.146118164h-6.391174316Z"
          fill="#f5f5f7"/>
    <path d="M36.5959375,91.797450289c-.805175781-.230224609-1.619018555-.493469238-2.419128418-.78137207-9.388671875-3.381591797-17.22442627-10.449523926-22.063476562-19.900024414l-.112609863-.247070312c-.440490723-.968261719-.895935059-1.969665527-1.271362305-2.992675781-.833557129-2.194458008-1.494140625-4.461120605-1.962463379-6.732543945-.451538086-2.277404785-.733764648-4.622131348-.839782715-6.971740723-.111083984-2.275634766-.033447266-4.637207031.23059082-7.019226074.993896484-9.257568359,4.778686523-18.338439941,10.656738281-25.567443848,1.596313477-1.957702637,3.16784668-3.626831055,4.804748535-5.101867676,1.909545898-1.736450195,3.705688477-3.157348633,5.489501953-4.34387207,1.916442871-1.297058105,3.962524414-2.460144043,6.079101562-3.456115723,2.011962891-.946655273,4.173339844-1.761108398,6.42578125-2.422302246l-.001525879-.020996094.161010742-.0234375.326721191-.092590332-.001220703-.019226074.149047852-.019226074v.001159668c5.025085449-1.350585938,10.121032715-1.746643066,15.143737793-1.175048828l.000305176-.000610352c.026245117.001831055.05078125.004821777.073486328.009033203l.36907959.046875c.252075195.03125.503234863.0625.724243164.09979248,11.27947998,2.070617676,20.352539062,7.68939209,26.242248535,16.249145508.8359375,1.200927734,1.617797852,2.463745117,2.32623291,3.757873535l.120056152-.064331055c-2.023071289-5.856140137-5.91809082-11.440063477-10.990722656-15.749084473l-.979553223-.804199219-1.007629395-.762756348c-.701538086-.518737793-1.404602051-1.005004883-2.087036133-1.442565918-.6796875-.438171387-1.414672852-.899169922-2.186401367-1.30670166l-.085693359-.044494629c-.716796875-.373840332-1.458312988-.760375977-2.206787109-1.08972168-2.877807617-1.356628418-6.090393066-2.382629395-9.555969238-3.051635742-5.720947266-1.104125977-11.689208984-1.000732422-17.260253906.296936035l-.001220703.000610352-.001464844-.005981445-.426208496.096740723-.001464844-.007202148c-.956604004.226013184-1.914978027.484436035-2.858398438.770568848-5.700073242,1.729858398-10.993713379,4.447265625-15.309204102,7.857727051l-1.212219238.965270996c-.545349121.432800293-1.034545898.825866699-1.508789062,1.257446289-1.806884766,1.535705566-3.56262207,3.328674316-5.533752441,5.648803711-1.863891602,2.210693359-3.37890625,4.309631348-4.630554199,6.416931152-1.475341797,2.455383301-2.657714844,4.764648438-3.616088867,7.06072998-1.010925293,2.382019043-1.859130859,4.914916992-2.522155762,7.530700684-.624450684,2.460754395-1.084350586,5.09765625-1.366577148,7.837280273-.230895996,2.241394043-.284057617,4.552490234-.162475586,7.064941406.535766602,11.055969238,4.515625,21.227783203,11.206298828,28.643127441,6.972900391,7.72845459,16.211730957,12.557434082,26.014099121,13.596679688,9.007629395.95324707,18.493713379-1.363830566,26.070495605-6.366516113l-.125427246-.267456055c-8.680603027,4.346313477-18.978149414,5.310974121-28.305908203,2.641662598Z"
          fill="#f5f5f7"/>
    <path d="M74.015493164,65.919642672c-1.247924805.907165527-2.302490234,1.648620605-3.278808594,2.307128906.055297852,1.013122559.055297852,2.670898438.05065918,4.153747559v.764404297c0,5.139221191-.6953125,8.611450195-1.584106445,11.282348633-.221069336.658569336-.451293945,1.275634766-.686157227,1.851257324,3.568908691-1.648620605,7.469421387-4.63269043,9.45880127-6.847717285.12890625-.805908203.244018555-1.593322754.340759277-2.362365723.764404297-5.945129395.61706543-10.766601562.253234863-15.081542969-1.211120605,1.165100098-3.205078125,2.970275879-4.554382324,3.932739258Z"
          fill="#f5f5f7"/>
    <path d="M87.452993164,30.267420992c-1.1328125,3.56427002-3.186645508,7.52923584-4.775390625,10.596130371l-.128967285.248718262c-1.349243164,2.588012695-3.043884277,5.060913086-5.028686523,7.345031738,0,.004577637-.004577637.009216309-.009216309.013793945-.036865234.046081543-.07824707.096740723-.119750977.147399902-.046020508.055236816-.092102051.115112305-.138122559.170349121l-.041442871.041503906c-1.022338867,1.059143066-1.966369629,1.980163574-2.896606445,2.827453613-1.008483887.916442871-2.067626953,1.800598145-3.149841309,2.629455566-.736816406.566467285-1.496643066,1.105224609-2.270263672,1.648620605l-.75982666.534179688-.027648926.018432617c-.248657227.174987793-.497314453.354614258-.746032715.534179688-.874938965.63092041-1.786743164,1.284790039-2.758422852,1.846618652-.428222656.248657227-.874938965.506591797-1.32623291.755249023l-.377624512.202636719c-.630859375.340759277-1.349243164.704528809-2.201171875,1.109802246-.156616211.087463379-.317749023.165771484-.492736816.234863281-1.644042969.769042969-4.950439453,2.067626953-5.093200684,2.122924805-3.113037109,1.146606445-7.787109375,2.588012695-12.424377441,2.956420898-1.827514648.140075684-3.191955566.066894531-4.18548584-.075927734-1.077636719-.288146973-1.867858887-.602294922-2.433044434-.879638672-.010803223-.049743652-.025390625-.094848633-.035766602-.145019531l-.004638672-.023071289c-.018371582-.07824707-.032226562-.156555176-.046020508-.230224609-.041442871-.207214355-.078308105-.42364502-.115112305-.640075684-.055297852-.303955078-.087524414-.626342773-.110534668-1.049987793-.032226562-.575622559-.027648926-1.174255371.018432617-1.888061523v-.004577637c.046020508-.695373535.119689941-1.413757324.230224609-2.192016602.124328613-.824279785.267089844-1.643981934.4375-2.454528809.174987793-.856506348.382202148-1.754516602.621643066-2.657043457.230285645-.884216309.497375488-1.800598145.815124512-2.809082031.299316406-.944030762.630859375-1.920349121.994689941-2.905822754.37298584-.994689941.764404297-1.984741211,1.174255371-2.942626953.442077637-1.031494141.898010254-2.012390137,1.344665527-2.924194336.478942871-.967041016.990112305-1.929504395,1.510498047-2.84588623.524963379-.930236816,1.086730957-1.842041016,1.666992188-2.712402344.621704102-.930236816,1.220336914-1.754516602,1.82824707-2.52355957.640075684-.81048584,1.307800293-1.574890137,1.980163574-2.274902344.467712402-.483947754.928527832-.919921875,1.391357422-1.333557129.468444824-.323242188.929504395-.622436523,1.38684082-.897338867,1.307189941,1.114990234,2.622375488,2.220947266,3.889221191,3.382080078,1.046081543.95880127,2.061279297,1.951416016,3.041748047,2.977233887,1.129089355,1.181213379,2.212280273,2.406616211,3.238586426,3.678161621,1.110717773,1.376220703,2.155151367,2.806884766,3.111206055,4.29498291.993774414,1.546813965,1.89239502,3.156433105,2.659729004,4.827697754.780212402,1.69921875,1.424255371,3.463195801,1.884216309,5.276245117.004638672.023071289.01385498.046081543.018432617.069091797.492736816-.354553223.967102051-.699951172,1.436828613-1.059143066,1.054504395-.805847168,2.081420898-1.666992188,3.062316895-2.56036377.815063477-.741455078,1.643981934-1.547363281,2.528137207-2.449890137-.009155273-.023071289-.023010254-.05065918-.032226562-.073730469-.37298584-.86114502-.819702148-1.786743164-1.243347168-2.606445312-.032226562-.069091797-.059875488-.124328613-.082885742-.170349121l-.096679688-.170410156c-5.530700684-10.361328125-15.763061523-19.88458252-19.852355957-22.868652344-1.358520508-.99005127-4.959655762-3.619567871-7.828552246-1.878845215l-.161193848.096679688c-1.581298828.980651855-3.149963379,2.260253906-4.690185547,3.79675293-.018859863.007995605-.042175293.0234375-.060974121.035217285l-.004882812.004272461c-.107788086.11126709-.21295166.230407715-.320129395.343505859-.066833496.068847656-.134521484.129760742-.20123291.199645996.005432129-.000610352.011108398-.000915527.016540527-.001525879-.63659668.680236816-1.263671875,1.387695312-1.877075195,2.127685547-.017578125.00970459-.038208008.025512695-.055175781.038208008l-.004577637.004638672c-.234558105.285217285-.460571289.590576172-.690979004.885803223-.140686035.177856445-.280212402.35723877-.419494629.537780762-.13659668.180541992-.274719238.357055664-.409729004.540893555-.139099121.184875488-.280944824.36517334-.418518066.552612305l.02734375.002197266c-6.61529541,9.268005371-11.193359375,22.351074219-10.886047363,31.737609863.151977539,4.623474121,1.574951172,8.118713379,4.232055664,10.384399414,2.155151367,1.832763672,4.913574219,2.99786377,8.206176758,3.458374023,1.369018555.193481445,2.864013672.254516602,4.460144043.197875977l.02722168.024658203c.20526123-.012695312.421203613-.042602539.628234863-.057922363.205200195-.011352539.404602051-.015869141.613098145-.031066895h.023010254c-.014709473-.008056641-.02935791-.015625-.044067383-.023498535.837524414-.071472168,1.680725098-.156677246,2.541564941-.27166748.016174316.007446289.033996582.015136719.049072266.018859863h.018432617l.096679688.004577637c.79699707-.114318848,1.611083984-.259155273,2.431762695-.418457031.007263184-.001342773.014221191-.001953125.021484375-.003295898.476623535-.086669922,1.002685547-.19329834,1.551269531-.309997559v-.016357422c.918884277-.20690918,1.844909668-.433288574,2.778747559-.693237305,3.743896484-1.040710449,9.914611816-3.278808594,14.984802246-6.170776367.073669434-.05065918.165771484-.110473633.253234863-.170349121,1.077636719-.718383789,2.205871582-1.515075684,3.578125-2.509765625,1.713134766-1.220336914,4.572814941-3.932678223,5.226745605-4.614257812l.658508301-.667724609c.179626465-.174987793.359191895-.349975586.534179688-.529602051,3.716308594-3.734680176,6.691162109-7.874633789,8.864746094-12.323059082.455871582-.944030762.902587891-1.95715332,1.358459473-3.099182129.234863281-1.049987793.377624512-2.095336914.451293945-3.12689209.326965332-4.78918457-.95324707-9.219238281-2.436035156-11.554016113-.110534668.442077637-.24407959.898010254-.391479492,1.358520508Z"
          fill="#f5f5f7"/>
</svg>