<?xml version="1.0" encoding="UTF-8"?><svg id="a" xmlns="http://www.w3.org/2000/svg" width="342" height="96" viewBox="0 0 342 96"><path d="M153.99,34.78c-.46-2.03-1.46-3.82-2.96-5.33-1.79-1.84-4.23-3.1-7.26-3.73-2.82-.6-7.19-.89-13.34-.89-7.98,0-13.39.74-16.54,2.25-3.28,1.57-5.12,4.54-5.33,8.57l-.1,1.94h10.43l.37-1.36c.18-.67.52-1.06,1.12-1.3.78-.32,3.19-.84,10.5-.84,4.32,0,7.4.19,9.16.56,1.46.31,2.53.86,3.16,1.63.1.13.18.25.25.36.39.67.83,1.92.9,4.22-.79-.35-1.66-.62-2.59-.81-2.45-.48-7.22-.71-14.58-.71-9.63,0-12.62.79-14.03,1.39-2.22.97-3.82,2.41-4.78,4.3-.9,1.79-1.33,4.13-1.33,7.16,0,2.48.28,4.41.85,5.9.63,1.61,1.74,3,3.32,4.13,1.59,1.18,3.71,1.92,6.5,2.27,2.53.32,6.92.48,13.06.48,5.61,0,9.42-.31,11.63-.94.68-.19,1.33-.45,1.95-.77l-.04,1.59h10.3v-20.87c0-3.91-.16-6.7-.48-8.55-.03-.21-.08-.44-.13-.65ZM142.48,54.79c-1.04.41-3.72.91-10.56.91-10.6,0-12.63-.56-13-.74-.57-.27-1.25-.83-1.25-2.66,0-1.49.35-2.44,1.04-2.85.14-.08.81-.39,2.88-.58,1.68-.15,4.78-.23,9.2-.23,7.25,0,10.2.53,11.39.98,1.25.46,1.76,1.19,1.76,2.52,0,1.81-.74,2.35-1.46,2.63Z" fill="#fff"/><polygon points="162.55 9.14 162.55 63.04 162.55 64.88 164.4 64.88 171 64.88 172.84 64.88 172.84 63.04 172.84 9.14 172.84 8.57 162.55 8.57 162.55 9.14" fill="#fff"/><path d="M229.54,34.44c-1.07-2.87-3.07-5.19-5.92-6.87-1.84-1.06-4.04-1.77-6.75-2.16-2.56-.37-6.17-.55-11.05-.55-5.79,0-9.81.36-12.27,1.1-.79.24-1.52.54-2.21.91v-1.72h-10.29v63.79h10.29v-25.95c.72.37,1.51.68,2.34.92,2.46.7,6.23,1.05,11.54,1.05,7.16,0,12.12-.43,15.16-1.32,3.28-.96,5.91-2.96,7.83-5.94,1.85-2.88,2.75-7.05,2.75-12.77,0-3.98-.4-7.25-1.19-9.74-.08-.25-.16-.5-.26-.75ZM219.58,51.44c-.44,1.27-1.08,2.18-1.97,2.78-.51.34-1.58.81-3.7,1.09-1.87.26-4.84.39-8.83.39-7.04,0-9.84-.73-10.94-1.34h-.01s-.01-.02-.01-.02c-1-.53-1.71-1.41-2.15-2.68-.53-1.51-.79-3.89-.79-7.09,0-2.69.25-4.78.74-6.2.21-.6.47-1.12.78-1.57.33-.49.72-.88,1.17-1.2.49-.33,1.56-.79,3.77-1.08,2.01-.26,5.2-.39,9.48-.39,6.54,0,9.19.73,10.27,1.34h.02s.02.02.02.02c.61.33,1.1.76,1.48,1.31.27.39.49.83.66,1.32.52,1.47.78,3.82.78,6.97,0,2.77-.25,4.91-.74,6.36Z" fill="#fff"/><path d="M274.61,36.59c.12.16.23.31.31.45l.02.03.02.03c.37.6.63,1.29.78,2.13.22,1.22.34,3.61.34,7.1v18.57h10.3v-20.29c0-3.97-.18-6.85-.54-8.8-.03-.19-.07-.37-.11-.55-.47-2.12-1.44-3.97-2.86-5.48v-.02s-.03-.01-.03-.01c-1.69-1.71-4.01-2.92-6.9-3.58-2.72-.62-6.48-.93-11.51-.93-5.98,0-10.25.43-13.04,1.31-.98.31-1.87.71-2.68,1.18V8.57h-10.29v56.31h10.29v-18.57c0-3.89.19-5.61.35-6.37.19-.91.61-1.71,1.27-2.44.04-.04.06-.07.09-.1l.02-.02.02-.02c.87-.92,2.23-1.62,4.06-2.08,2.11-.53,5.21-.8,9.22-.8,3.55,0,6.22.2,7.93.59,1.42.33,2.41.84,2.95,1.51Z" fill="#fff"/><path d="M339.84,35.44c-.04-.23-.08-.45-.13-.66-.45-2.02-1.45-3.82-2.97-5.34-1.78-1.84-4.23-3.09-7.26-3.73-2.81-.6-7.18-.89-13.34-.89-7.98,0-13.39.74-16.55,2.25-3.28,1.58-5.12,4.54-5.33,8.57l-.1,1.94h10.44l.37-1.36c.19-.67.52-1.06,1.11-1.3.79-.32,3.19-.84,10.5-.84,4.32,0,7.4.19,9.16.56,1.46.31,2.53.86,3.16,1.63.09.11.17.23.24.36.39.67.83,1.92.9,4.22-.79-.35-1.65-.62-2.59-.8-2.45-.48-7.22-.71-14.58-.71-9.63,0-12.62.79-14.03,1.39-2.23.97-3.84,2.42-4.78,4.3-.9,1.79-1.34,4.13-1.34,7.15,0,2.47.28,4.4.86,5.9.62,1.61,1.73,3,3.31,4.13,1.59,1.18,3.72,1.92,6.51,2.27,2.52.32,6.92.48,13.06.48,5.61,0,9.42-.31,11.63-.94.68-.19,1.33-.45,1.95-.77l-.04,1.58h10.3v-20.87c0-3.91-.16-6.71-.49-8.54ZM328.21,54.79c-1.04.41-3.72.91-10.56.91-10.6,0-12.63-.56-13-.74-.57-.27-1.25-.83-1.25-2.66,0-2.24.77-2.7,1.03-2.85.18-.1.88-.39,2.89-.58,1.68-.15,4.77-.23,9.19-.23,7.24,0,10.2.53,11.4.98,1.24.46,1.75,1.19,1.75,2.52,0,1.81-.74,2.35-1.46,2.63Z" fill="#fff"/><path d="M210.32,80.95c-.44-.38-.93-.68-1.48-.91-.55-.23-1.12-.41-1.69-.55-.59-.14-1.12-.28-1.57-.43-.46-.15-.84-.33-1.16-.54s-.55-.45-.71-.72c-.16-.27-.24-.6-.24-.99,0-.26.05-.53.16-.79.11-.26.28-.5.51-.71.23-.21.53-.38.89-.51.36-.13.78-.2,1.28-.2s.94.06,1.32.17c.38.12.72.26,1,.43.29.17.53.35.71.52.19.18.33.32.42.43l1.49-1.38c-.12-.16-.3-.36-.54-.61-.23-.25-.54-.49-.93-.72-.39-.23-.86-.43-1.41-.59-.55-.16-1.21-.24-1.97-.24-.86,0-1.61.12-2.26.35-.65.23-1.2.54-1.63.93-.44.39-.76.84-.98,1.35s-.33,1.06-.33,1.63c0,.62.11,1.18.33,1.67.22.49.53.92.92,1.29.4.37.87.68,1.41.93.54.25,1.15.44,1.82.58,1.23.26,2.17.61,2.82,1.04.65.43.98,1.07.98,1.92,0,.79-.29,1.42-.86,1.89-.57.47-1.38.7-2.4.7-.5,0-.96-.06-1.38-.19-.42-.12-.8-.29-1.14-.49-.34-.2-.65-.43-.92-.69-.27-.26-.52-.51-.74-.76l-1.59,1.45c.23.31.53.63.9.94.36.32.79.61,1.28.87.49.26,1.03.48,1.63.65.6.17,1.26.26,1.99.26.78,0,1.5-.11,2.17-.34.67-.23,1.25-.54,1.74-.96.49-.41.87-.9,1.15-1.46.28-.56.42-1.17.42-1.84,0-.79-.13-1.47-.38-2.02-.26-.55-.6-1.02-1.04-1.4Z" fill="#fff"/><path d="M229.23,79.15c-.51-.53-1.12-.94-1.82-1.25s-1.46-.45-2.29-.45-1.61.15-2.31.45c-.7.3-1.3.72-1.81,1.25-.51.53-.9,1.14-1.19,1.83-.29.69-.43,1.43-.43,2.23s.14,1.54.43,2.23c.29.69.68,1.3,1.19,1.83.51.53,1.11.95,1.81,1.25.7.3,1.47.45,2.31.45s1.59-.15,2.29-.45,1.31-.72,1.82-1.25c.51-.53.91-1.14,1.2-1.83.29-.69.43-1.43.43-2.23s-.14-1.54-.43-2.23c-.29-.69-.69-1.3-1.2-1.83ZM228.5,84.66c-.16.47-.4.89-.71,1.26-.31.37-.69.66-1.14.89-.45.23-.96.34-1.52.34s-1.06-.11-1.5-.34c-.44-.23-.82-.53-1.14-.9-.32-.37-.56-.79-.72-1.26-.16-.47-.24-.95-.24-1.45s.08-.98.24-1.46c.16-.47.4-.89.71-1.26.31-.37.69-.66,1.14-.89.45-.23.96-.34,1.52-.34s1.06.11,1.5.34c.44.23.82.53,1.14.9.32.37.56.8.72,1.27.16.47.25.95.25,1.43s-.08.98-.25,1.46Z" fill="#fff"/><path d="M244.84,72.62c-.5,0-.97.08-1.42.24-.45.16-.85.42-1.2.76-.35.34-.63.78-.84,1.32-.21.54-.32,1.17-.32,1.9v.89h-1.96v1.75h1.96v9.49h2.1v-9.49h3.1v-1.75h-3.1v-.7c0-.95.18-1.62.55-2.01.36-.39.85-.58,1.46-.58.65,0,1.27.24,1.84.72l1.05-1.35c-.47-.44-.98-.74-1.53-.92-.55-.18-1.12-.27-1.69-.27Z" fill="#fff"/><path d="M261.26,87c-.27.12-.6.19-1,.19-.5,0-.88-.16-1.15-.49-.27-.33-.41-.93-.41-1.8v-5.34h3.17v-1.75h-3.17v-3.55h-2.1v3.55h-1.96v1.75h1.96v5.55c0,1.32.27,2.29.8,2.92.54.62,1.38.93,2.53.93.65,0,1.22-.1,1.69-.29.47-.19.94-.51,1.39-.95l-.96-1.28c-.27.25-.53.44-.79.56Z" fill="#fff"/><polygon points="282.42 86.47 279.81 78.12 278.01 78.12 275.4 86.4 272.97 78.12 270.66 78.12 274.33 88.97 276.29 88.97 278.78 81.39 281.3 88.97 283.38 88.97 286.97 78.12 284.8 78.12 282.42 86.47" fill="#fff"/><path d="M304.23,86.52v-5.13c0-1.24-.4-2.2-1.2-2.88-.8-.68-1.9-1.01-3.3-1.01-.59,0-1.11.04-1.56.13s-.86.19-1.21.33c-.36.13-.67.28-.93.43-.26.16-.49.31-.68.47l.98,1.42c.33-.23.73-.46,1.21-.69.48-.23,1.14-.34,1.96-.34s1.5.17,1.99.52c.49.35.74.93.74,1.74v.4c-.08-.02-.21-.03-.4-.05-.19-.02-.4-.03-.65-.05-.25-.02-.51-.03-.79-.05-.28-.02-.54-.02-.79-.02-1.54,0-2.72.35-3.53,1.05s-1.22,1.63-1.22,2.8c0,.62.11,1.15.34,1.57.22.43.52.78.89,1.05.36.27.77.47,1.21.58.44.12.89.18,1.34.18.7,0,1.38-.13,2.04-.4.66-.26,1.19-.67,1.6-1.21l.02,1.61h1.99c-.02-.26-.02-.89-.02-1.27v-1.18ZM302.22,84.77c0,.33-.09.65-.26.96-.17.31-.4.58-.68.82-.28.23-.6.42-.97.56-.37.14-.75.21-1.16.21-.72,0-1.27-.15-1.68-.45s-.61-.75-.61-1.34c0-.23.04-.48.12-.73.08-.26.22-.49.43-.7.21-.21.5-.38.86-.52.36-.14.84-.21,1.43-.21.25,0,.5,0,.77.02.26.02.51.03.75.05.23.02.44.03.62.06.18.02.3.04.36.06v1.24Z" fill="#fff"/><path d="M320.06,77.51c-.5,0-.94.07-1.32.2-.38.13-.72.29-1,.48-.29.19-.53.39-.73.62-.2.23-.37.43-.49.62l-.07-1.75h-2.01c.02.36.02.7.02,1.04v1.18l-.02,9.07h2.1l.02-6.16c0-.45.08-.88.25-1.28.16-.4.38-.76.66-1.06s.61-.54.99-.71c.38-.17.8-.26,1.25-.26s.79.05,1.07.16l.47-1.96c-.17-.06-.35-.11-.55-.14-.19-.03-.41-.05-.64-.05Z" fill="#fff"/><path d="M339.88,81.43c-.2-.76-.52-1.44-.94-2.03-.43-.59-.98-1.07-1.64-1.42-.67-.36-1.47-.54-2.4-.54-.79,0-1.52.15-2.18.44-.66.3-1.23.7-1.71,1.2s-.86,1.1-1.12,1.8c-.26.69-.4,1.43-.4,2.23,0,.87.14,1.66.41,2.38.27.72.66,1.33,1.16,1.84.5.51,1.1.91,1.8,1.19.7.28,1.47.42,2.31.42.68,0,1.29-.07,1.83-.22.54-.15,1-.32,1.4-.53.4-.2.72-.41.97-.63.25-.22.43-.4.56-.54l-1.19-1.26c-.27.3-.69.6-1.28.91-.59.31-1.35.47-2.26.47-.47,0-.91-.09-1.33-.26-.42-.17-.79-.4-1.12-.7s-.59-.65-.78-1.05c-.2-.4-.3-.85-.32-1.33h8.56c0-.82-.1-1.62-.3-2.38ZM331.62,82.25c.02-.39.1-.77.26-1.13.16-.37.37-.69.65-.97.28-.28.62-.51,1.01-.68.4-.17.84-.26,1.34-.26.96,0,1.71.3,2.24.89.53.59.82,1.31.89,2.15h-6.39Z" fill="#fff"/><path d="M36.6,91.8c-.81-.23-1.62-.49-2.42-.78-9.39-3.38-17.22-10.45-22.06-19.9l-.11-.25c-.44-.97-.9-1.97-1.27-2.99-.83-2.19-1.49-4.46-1.96-6.73-.45-2.28-.73-4.62-.84-6.97-.11-2.28-.03-4.64.23-7.02.99-9.26,4.78-18.34,10.66-25.57,1.6-1.96,3.17-3.63,4.8-5.1,1.91-1.74,3.71-3.16,5.49-4.34,1.92-1.3,3.96-2.46,6.08-3.46,2.01-.95,4.17-1.76,6.43-2.42v-.02s.16-.02.16-.02l.33-.09v-.02s.15-.02.15-.02h0c5.03-1.35,10.12-1.75,15.14-1.17h0s.05,0,.07,0l.37.05c.25.03.5.06.72.1,11.28,2.07,20.35,7.69,26.24,16.25.84,1.2,1.62,2.46,2.33,3.76l.12-.06c-2.02-5.86-5.92-11.44-10.99-15.75l-.98-.8-1.01-.76c-.7-.52-1.4-1.01-2.09-1.44-.68-.44-1.41-.9-2.19-1.31l-.09-.04c-.72-.37-1.46-.76-2.21-1.09-2.88-1.36-6.09-2.38-9.56-3.05-5.72-1.1-11.69-1-17.26.3h0s0,0,0,0l-.43.1h0c-.96.22-1.91.48-2.86.76-5.7,1.73-10.99,4.45-15.31,7.86l-1.21.97c-.55.43-1.03.83-1.51,1.26-1.81,1.54-3.56,3.33-5.53,5.65-1.86,2.21-3.38,4.31-4.63,6.42-1.48,2.46-2.66,4.76-3.62,7.06-1.01,2.38-1.86,4.91-2.52,7.53-.62,2.46-1.08,5.1-1.37,7.84-.23,2.24-.28,4.55-.16,7.06.54,11.06,4.52,21.23,11.21,28.64,6.97,7.73,16.21,12.56,26.01,13.6,9.01.95,18.49-1.36,26.07-6.37l-.13-.27c-8.68,4.35-18.98,5.31-28.31,2.64Z" fill="#fff"/><path d="M74.02,65.92c-1.25.91-2.3,1.65-3.28,2.31.06,1.01.06,2.67.05,4.15v.76c0,5.14-.7,8.61-1.58,11.28-.22.66-.45,1.28-.69,1.85,3.57-1.65,7.47-4.63,9.46-6.85.13-.81.24-1.59.34-2.36.76-5.95.62-10.77.25-15.08-1.21,1.17-3.21,2.97-4.55,3.93Z" fill="#fff"/><path d="M87.45,30.27c-1.13,3.56-3.19,7.53-4.78,10.6l-.13.25c-1.35,2.59-3.04,5.06-5.03,7.35,0,0,0,0,0,.01-.04.05-.08.1-.12.15-.05.06-.09.12-.14.17l-.04.04c-1.02,1.06-1.97,1.98-2.9,2.83-1.01.92-2.07,1.8-3.15,2.63-.74.57-1.5,1.11-2.27,1.65l-.76.53-.03.02c-.25.17-.5.35-.75.53-.87.63-1.79,1.28-2.76,1.85-.43.25-.87.51-1.33.76l-.38.2c-.63.34-1.35.7-2.2,1.11-.16.09-.32.17-.49.23-1.64.77-4.95,2.07-5.09,2.12-3.11,1.15-7.79,2.59-12.42,2.96-1.83.14-3.19.07-4.19-.08-1.08-.29-1.87-.6-2.43-.88-.01-.05-.03-.09-.04-.15v-.02c-.02-.08-.04-.16-.05-.23-.04-.21-.08-.42-.12-.64-.06-.3-.09-.63-.11-1.05-.03-.58-.03-1.17.02-1.89h0c.05-.7.12-1.42.23-2.2.12-.82.27-1.64.44-2.45.17-.86.38-1.75.62-2.66.23-.88.5-1.8.82-2.81.3-.94.63-1.92.99-2.91.37-.99.76-1.98,1.17-2.94.44-1.03.9-2.01,1.34-2.92.48-.97.99-1.93,1.51-2.85.52-.93,1.09-1.84,1.67-2.71.62-.93,1.22-1.75,1.83-2.52.64-.81,1.31-1.57,1.98-2.27.47-.48.93-.92,1.39-1.33.47-.32.93-.62,1.39-.9,1.31,1.11,2.62,2.22,3.89,3.38,1.05.96,2.06,1.95,3.04,2.98,1.13,1.18,2.21,2.41,3.24,3.68,1.11,1.38,2.16,2.81,3.11,4.29.99,1.55,1.89,3.16,2.66,4.83.78,1.7,1.42,3.46,1.88,5.28,0,.02.01.05.02.07.49-.35.97-.7,1.44-1.06,1.05-.81,2.08-1.67,3.06-2.56.82-.74,1.64-1.55,2.53-2.45,0-.02-.02-.05-.03-.07-.37-.86-.82-1.79-1.24-2.61-.03-.07-.06-.12-.08-.17l-.1-.17c-5.53-10.36-15.76-19.88-19.85-22.87-1.36-.99-4.96-3.62-7.83-1.88l-.16.1c-1.58.98-3.15,2.26-4.69,3.8-.02,0-.04.02-.06.04h0c-.11.12-.21.23-.32.35-.07.07-.13.13-.2.2,0,0,.01,0,.02,0-.64.68-1.26,1.39-1.88,2.13-.02,0-.04.03-.06.04h0c-.23.29-.46.6-.69.89-.14.18-.28.36-.42.54-.14.18-.27.36-.41.54-.14.18-.28.37-.42.55h.03c-6.62,9.27-11.19,22.35-10.89,31.74.15,4.62,1.57,8.12,4.23,10.38,2.16,1.83,4.91,3,8.21,3.46,1.37.19,2.86.25,4.46.2l.03.02c.21-.01.42-.04.63-.06.21-.01.4-.02.61-.03h.02s-.03-.02-.04-.02c.84-.07,1.68-.16,2.54-.27.02,0,.03.02.05.02h.12c.8-.11,1.61-.25,2.43-.41,0,0,.01,0,.02,0,.48-.09,1-.19,1.55-.31v-.02c.92-.21,1.84-.43,2.78-.69,3.74-1.04,9.91-3.28,14.98-6.17.07-.05.17-.11.25-.17,1.08-.72,2.21-1.52,3.58-2.51,1.71-1.22,4.57-3.93,5.23-4.61l.66-.67c.18-.17.36-.35.53-.53,3.72-3.73,6.69-7.87,8.86-12.32.46-.94.9-1.96,1.36-3.1.23-1.05.38-2.1.45-3.13.33-4.79-.95-9.22-2.44-11.55-.11.44-.24.9-.39,1.36Z" fill="#fff"/></svg>