<?xml version="1.0" encoding="UTF-8"?><svg id="a" xmlns="http://www.w3.org/2000/svg" width="342" height="96" xmlns:xlink="http://www.w3.org/1999/xlink" viewBox="0 0 342 96"><defs><radialGradient id="b" cx="63.07792636" cy="31.10937991" fx="63.07792636" fy="31.10937991" r="48.37747937" gradientTransform="translate(113.2421993 -16.57660031) rotate(112.14518004) scale(1 .91574573)" gradientUnits="userSpaceOnUse"><stop offset=".17279527" stop-color="#acd6f2"/><stop offset=".61722077" stop-color="#5ca9d4"/><stop offset=".7717887" stop-color="#006ba5"/><stop offset=".82274721" stop-color="#02518b"/><stop offset=".99999966" stop-color="#003d63"/></radialGradient><radialGradient id="c" cx="56.08636799" cy="35.55851808" fx="56.08636799" fy="35.55851808" r="75.36572003" gradientTransform="translate(102.453093 120.61097405) rotate(-140.25671538) scale(.96900303 .7450998) skewX(.27152963)" gradientUnits="userSpaceOnUse"><stop offset=".02305175" stop-color="#c33b1a"/><stop offset=".67189187" stop-color="#c33b1a"/><stop offset=".72425225" stop-color="#c73e1a"/><stop offset=".77753874" stop-color="#d3471d"/><stop offset=".78611018" stop-color="#d64a1e"/><stop offset=".8883333" stop-color="#e87a20"/><stop offset="1" stop-color="#f8a843"/></radialGradient><radialGradient id="d" cx="69.52017703" cy="28.45006721" fx="69.52017703" fy="28.45006721" r="52.63698445" gradientUnits="userSpaceOnUse"><stop offset=".06166631" stop-color="#5ca9d4"/><stop offset=".2794437" stop-color="#006ba5"/><stop offset=".76155624" stop-color="#003d63"/></radialGradient><radialGradient id="e" cx="69.01999381" cy="32.44479611" fx="69.01999381" fy="32.44479611" r="65.94310135" xlink:href="#d"/><radialGradient id="f" cx="69.0219667" cy="32.44553235" fx="69.0219667" fy="32.44553235" r="65.94555687" xlink:href="#d"/><radialGradient id="g" cx="69.02117861" cy="32.35138024" fx="69.02117861" fy="32.35138024" r="65.61726472" xlink:href="#d"/><radialGradient id="h" cx="69.09623328" cy="32.37083978" fx="69.09623328" fy="32.37083978" r="65.67449734" xlink:href="#d"/><radialGradient id="i" cx="70.6996708" cy="32.07862763" fx="70.6996708" fy="32.07862763" r="64.26860299" xlink:href="#d"/><radialGradient id="j" cx="65.59366305" cy="33.65956409" fx="65.59366305" fy="33.65956409" r="63.85565231" xlink:href="#d"/><radialGradient id="k" cx="67.38331002" cy="32.81216164" fx="67.38331002" fy="32.81216164" r="65.46362626" xlink:href="#d"/><radialGradient id="l" cx="68.01798358" cy="30.64776474" fx="68.01798358" fy="30.64776474" r="68.39556482" xlink:href="#d"/><radialGradient id="m" cx="68.4074881" cy="31.98698495" fx="68.4074881" fy="31.98698495" r="66.16503926" xlink:href="#d"/><radialGradient id="n" cx="68.6644536" cy="32.40889815" fx="68.6644536" fy="32.40889815" r="65.16951306" xlink:href="#d"/><radialGradient id="o" cx="68.88799878" cy="32.42202104" fx="68.88799878" fy="32.42202104" r="65.33854272" xlink:href="#d"/><linearGradient id="p" x1="54.57144025" y1="19.41034582" x2="67.09308478" y2="86.8707057" gradientUnits="userSpaceOnUse"><stop offset="0" stop-color="#c33b1a"/><stop offset=".17722251" stop-color="#d64a1e"/><stop offset=".31055489" stop-color="#e87a20"/><stop offset=".4172198" stop-color="#f8a843"/><stop offset=".50526123" stop-color="#fbb670"/><stop offset=".62166528" stop-color="#f8a843"/><stop offset=".73722034" stop-color="#e87a20"/><stop offset=".87055469" stop-color="#d64a1e"/><stop offset=".95555471" stop-color="#c33b1a"/></linearGradient><linearGradient id="q" x1="62.71171982" y1="17.57624301" x2="75.3434508" y2="85.62969365" xlink:href="#p"/><linearGradient id="r" x1="42.45874169" y1="73.45416788" x2="43.32910157" y2="73.45416788" gradientUnits="userSpaceOnUse"><stop offset=".16167092" stop-color="#d5411f"/><stop offset=".28239126" stop-color="#df581f"/><stop offset=".44857918" stop-color="#ec731f"/><stop offset=".59717219" stop-color="#f3831f"/><stop offset=".71233259" stop-color="#f6891f"/><stop offset="1" stop-color="#f6891f"/></linearGradient><linearGradient id="s" x1="47.27101729" y1="75.7681992" x2="47.38614337" y2="75.7681992" xlink:href="#r"/><linearGradient id="t" x1="37.9532382" y1="80.25090484" x2="38.7974961" y2="26.1416491" gradientUnits="userSpaceOnUse"><stop offset=".16611538" stop-color="#c33b1a"/><stop offset=".363888" stop-color="#d64a1e"/><stop offset=".62344271" stop-color="#e87a20"/><stop offset=".76388745" stop-color="#f8a843"/><stop offset=".83999956" stop-color="#fbb670"/></linearGradient><linearGradient id="u" x1="36.67483686" y1="51.60323303" x2="90.98617666" y2="51.60323303" gradientUnits="userSpaceOnUse"><stop offset=".00000014" stop-color="#fbb670"/><stop offset=".18611012" stop-color="#f8a843"/><stop offset=".53111127" stop-color="#e87a20"/><stop offset=".81277729" stop-color="#d64a1e"/><stop offset=".9903166" stop-color="#c33b1a"/></linearGradient><linearGradient id="v" x1="42.85018721" y1="74.61002413" x2="48.00347211" y2="74.61002413" gradientUnits="userSpaceOnUse"><stop offset="0" stop-color="#f6891f"/><stop offset=".20715139" stop-color="#f4841f"/><stop offset=".42899531" stop-color="#ee771f"/><stop offset=".65768082" stop-color="#e4621f"/><stop offset=".88972586" stop-color="#d6441f"/><stop offset=".91464047" stop-color="#d5411f"/></linearGradient></defs><path d="M153.98780827,34.77962251c-.46288044-2.03182425-1.45970595-3.82260496-2.96486765-5.33184808-1.78878001-1.84431926-4.23058637-3.1005947-7.25755555-3.73393422-2.8201775-.5954864-7.18521047-.88526684-13.34286478-.88526684-7.98036608,0-13.39152164.7365753-16.54397432,2.25190053-3.27793617,1.57142467-5.12241548,4.53525197-5.33240827,8.57009048l-.10051484,1.94075269h10.43049532l.37260915-1.35550983c.18502413-.67271317.51986019-1.06204812,1.11974812-1.30181122.78491206-.31650971,3.18574421-.84429264,10.49643818-.84429264,4.32149788,0,7.40480658.18998585,9.16349617.56475575,1.46482772.31202815,2.52695587.85909777,3.15757445,1.62600359.10115506.12612372.18438391.24720568.2484061.36196546.38733425.67239306.82844715,1.9191452.90271289,4.22442423-.79131428-.35276227-1.65625408-.62189556-2.59161828-.80603938-2.45012924-.47896601-7.22042268-.71160665-14.58425506-.71160665-9.63341905,0-12.62005425.7928348-14.02918266,1.38912148-2.22221024.96713522-3.82468568,2.40987529-4.77925654,4.29532881-.89695089,1.78613909-1.33166157,4.12631022-1.33166157,7.16000173,0,2.48069984.27849653,4.41112894.85149514,5.90164557.6254968,1.61287904,1.74140359,3.00039997,3.31762993,4.12887111,1.58711011,1.17536739,3.71328706,1.91658431,6.49953281,2.26582536,2.52951676.31610957,6.92464015.47640513,13.06436825.47640513,5.61026458,0,9.41510338-.3061061,11.63347229-.93576435.68247655-.19382718,1.33422246-.45039611,1.95331704-.76834632l-.04033398,1.58646989h10.29732916v-20.86899342c0-3.90719428-.15813481-6.70496401-.48336754-8.55320463-.03457198-.21367406-.08002774-.43807184-.12676394-.64694424ZM143.94400698,52.15452484c0,1.80702633-.73881608,2.34577307-1.46226684,2.63443312-1.04228127.41454369-3.72160995.90983536-10.55597881.90983536-10.59887368,0-12.63285868-.56467572-13.00418739-.73769569-.57363883-.27353481-1.24651205-.82892732-1.24651205-2.65684089,0-1.48587502.34828072-2.44420719,1.03587905-2.84850732.13764771-.07850721.8124416-.38701414,2.88163881-.58004105,1.68058251-.14997198,4.77861632-.22631844,9.20062904-.22631844,7.24603155,0,10.1961741.53450527,11.39466951.98298071,1.24907294.46320055,1.75612869,1.19337364,1.75612869,2.52215421Z" fill="#d64a1e"/><polygon points="162.55205673 8.57397465 162.55205673 9.14337671 162.55205673 63.03765704 162.55205673 64.8825365 164.39717627 64.8825365 170.9965837 64.8825365 172.84170323 64.8825365 172.84170323 63.03765704 172.84170323 9.14337671 172.84170323 8.57397465 162.55205673 8.57397465" fill="#d64a1e"/><path d="M229.53719449,34.44286579c-1.0723717-2.87347598-3.06730316-5.1908392-5.92141242-6.86726027-1.83871732-1.06060762-4.04364157-1.7650918-6.75306068-2.16138916-2.56216807-.36804757-6.17365986-.54658945-11.04510835-.54658945-5.79336804,0-9.80563874.35988474-12.26665175,1.10006129-.78747295.24040333-1.52372814.54450873-2.20556447.91079569v-1.72019624h-10.28900628v63.79002778h10.28900628v-25.94523037c.72409098.37252912,1.50644215.67871525,2.3438524.91671774,2.45653146.70392399,6.23320049,1.04660276,11.54256077,1.04660276,7.16152226,0,12.12132138-.43303009,15.16301566-1.32397891,3.27537528-.95729181,5.9118091-2.95558444,7.83375526-5.93917858,1.85344242-2.87547667,2.75423465-7.0537249,2.75423465-12.77322734,0-3.97609816-.39885825-7.25315402-1.18569097-9.74017605-.08002774-.24616532-.16325659-.49777253-.25993009-.74697891ZM220.32248058,45.07967262c0,2.76543853-.24968654,4.90514017-.74201719,6.35964432-.43663134,1.26875977-1.08069458,2.18059582-1.9667617,2.7792033-.50833619.33627656-1.57686656.8081201-3.70368374,1.09309888-1.8732893.25712912-4.84199829.3871742-8.82737966.3871742-7.04436165,0-9.8395705-.73057322-10.94459351-1.34342565l-.01408488-.00784272-.01408488-.00760264c-1.00322773-.53362496-1.70683161-1.41152925-2.15178583-2.68389026-.52754285-1.50748251-.79451539-3.89302937-.79451539-7.09045763,0-2.68893201.2484061-4.77533518.73881608-6.20134945.21191345-.60380929.46736199-1.12102856.7772294-1.57118459.33419584-.49145034.71576809-.87990498,1.17288653-1.19705491.48656865-.32747351,1.55573924-.79475547,3.76514504-1.07877391,2.00581524-.25776935,5.196041-.38845464,9.48232668-.38845464,6.53666568,0,9.19486704.72673189,10.27428118,1.33646323l.01664577.00936325.01664577.00912316c.61269237.32923412,1.09605991.75826282,1.47827238,1.31157461.2688932.38629389.48976976.82828709.65942856,1.31901719.51665908,1.47403091.7772294,3.81556251.7772294,6.96537427Z" fill="#d64a1e"/><path d="M285.71986801,35.24042223c-.47376421-2.12489651-1.43665796-3.97057624-2.85923104-5.47813878l-.01408488-.01496519-.01408488-.01464508c-1.69146628-1.71395407-4.01099025-2.91869165-6.89518995-3.58092119-2.71966266-.62277586-6.48416748-.92544077-11.50990946-.92544077-5.98287373,0-10.24803208.42830846-13.03875937,1.3092538-.97633841.3113079-1.86944797.70600471-2.67612757,1.1820097V8.57397465h-10.2896465v56.30856185h10.2896465v-18.56539496c0-3.89430981.18758502-5.61146499.34507961-6.3662066.19270679-.905914.60885103-1.70723174,1.27020026-2.44236655.03585243-.04017392.06210153-.07138474.08963107-.09875423l.01536533-.01560541.0204871-.02168752c.86686046-.91663772,2.23117335-1.61752065,4.05580579-2.08328209,2.10825074-.53162427,5.21268677-.80179791,9.22175636-.80179791,3.54939026,0,6.21783517.19894896,7.93298966.59132496,1.41681108.32931414,2.41171593.83669001,2.95078277,1.50652218.12420305.15701442.23304077.31346865.31242829.44959583l.01536533.02648918.01664577.02600902c.37452982.59532635.62997836,1.29220789.78043051,2.13041843.22279722,1.2244244.33547628,3.61197195.33547628,7.09934071v18.56539496h10.29604872v-20.29023281c0-3.96961591-.17734147-6.8500543-.54162773-8.80449173-.0320111-.19470749-.07042441-.37484993-.10947795-.54738973Z" fill="#d64a1e"/><path d="M339.83846609,35.43560988c-.03777309-.23328086-.08258863-.45183661-.12804438-.65558723-.45263689-2.02030026-1.45010262-3.81588263-2.9661481-5.33985085-1.78301801-1.83543618-4.22930592-3.09451259-7.25755555-3.72657167-2.81185462-.59516629-7.17560714-.88502676-13.33518212-.88502676-7.97780519,0-13.39088142.73633522-16.54909609,2.25118028-3.27985683,1.57630636-5.12369593,4.53989358-5.33368871,8.57081073l-.10051484,1.94075269h10.43689754l.37260915-1.35558986c.18566435-.67471386.51857975-1.06396878,1.11270568-1.30173119.78555228-.31650971,3.18702466-.84429264,10.50348062-.84429264,4.32149788,0,7.40480658.18998585,9.16349617.56475575,1.4641875.31202815,2.52695587.85909777,3.15757445,1.62600359.08514951.10635686.16901858.23104008.24200388.36196546.38733425.672233.82780693,1.918585.90207267,4.22298373-.79003383-.35156186-1.65497363-.620295-2.59097806-.80459888-2.45076946-.47896601-7.21786179-.71160665-14.57785284-.71160665-9.63341905,0-12.62005425.7928348-14.02918266,1.38912148-2.23245379.9716968-3.83620967,2.41627751-4.78245765,4.30101078-.89823134,1.78926018-1.3355029,4.1294313-1.3355029,7.15431976,0,2.46917584.28105742,4.39960495.85853758,5.90156555.61525325,1.60663688,1.72923937,2.99679872,3.31122771,4.12911119,1.58775033,1.17584756,3.71648817,1.91690442,6.50657525,2.2656653,2.52183409.31610957,6.91759771.47640513,13.06372803.47640513,5.61282547,0,9.41638382-.30626616,11.62835051-.93616448.68247655-.19382718,1.33358223-.44959583,1.95139637-.76610554l-.03969376,1.58462925h10.30373138v-20.86899342c0-3.91031536-.15941526-6.70536415-.48848932-8.5441615ZM329.66662042,52.15452484c0,1.80926711-.73561497,2.34705351-1.45586462,2.63443312-1.04228127.41454369-3.72160995.90983536-10.55597881.90983536-10.59887368,0-12.63285868-.56459569-13.00418739-.73769569-.57363883-.27353481-1.24651205-.82892732-1.24651205-2.65684089,0-2.24309748.77466851-2.69877542,1.02947683-2.84850732.17990236-.1015552.87646379-.39309625,2.8874008-.57996102,1.67546073-.15005201,4.77093366-.22639847,9.19486704-.22639847,7.24475111,0,10.19937521.5349054,11.40235218.98362093,1.24267072.46087975,1.74844603,1.19105283,1.74844603,2.52151398Z" fill="#d64a1e"/><path d="M202.03521605,84.79110844c.21789568.24874236.46204386.50142259.73506977.7580407.27171329.25661811.57886745.4856711.92146246.68781529.34128239.20214419.72194353.36556595,1.1419834.48960897.42003987.12469934.87814585.187049,1.3769432.187049,1.02647243,0,1.82717343-.23364718,2.402103-.70028522.57492957-.46598173.86239436-1.09604153.86239436-1.88886679,0-.85517492-.3255309-1.49639204-.97921795-1.92430765-.65237442-.42791562-1.59352625-.7737922-2.82214287-1.03828605-.66943854-.13979452-1.2758711-.33406296-1.81929768-.58280532-.54473921-.24874236-1.01465881-.55983439-1.41107144-.93327609s-.70356678-.80463888-.92146246-1.29424785c-.21789568-.49026529-.32684352-1.0461618-.32684352-1.66834586,0-.57492957.10894784-1.11901246.32684352-1.63224868s.54342658-.96412276.97921795-1.35331595c.43579136-.38853688.98053057-.69962891,1.63290499-.93261977.65368705-.23364718,1.40713356-.34981445,2.2629648-.34981445.76132226,0,1.41894718.08138272,1.97024951.24480449.55261495.16342176,1.02253456.36162808,1.41107144.59461894s.70094153.47451379.93327609.72325615c.23364718.24874236.41216412.45088655.53686346.60643256l-1.49245416,1.37628688c-.09319635-.10894784-.23364718-.25268023-.42003987-.43185349-.18639269-.17851694-.42397774-.35309602-.71144253-.52439352s-.62218406-.3150299-1.00284519-.43185349c-.38197376-.11682359-.82039037-.17457907-1.31787509-.17457907-.49879735,0-.92540034.06628754-1.28374685.19820631-.35703389.13191877-.65237442.30321628-.8860216.51323622-.23364718.20936362-.40428837.44694867-.51323622.71078622-.10894784.26515017-.16276545.52898771-.16276545.79348157,0,.38853688.08138272.71931828.24414817.99103157.16407807.2723696.4003505.51323622.71144253.72325615s.69569103.38919319,1.15510964.53620715c.45810598.14832658.98315582.29205897,1.57383689.43185349.5762422.13979452,1.13935815.32290565,1.6919731.54802077.55130233.22577143,1.04484918.52898771,1.48064054.90964884.43579136.38131744.78101163.84795549,1.03828605,1.39991413.2559618.55195864.38459901,1.22402243.38459901,2.017504,0,.66878223-.13913821,1.28309054-.42003987,1.84226862-.27958904.55983439-.66418804,1.0461618-1.15379702,1.45832592s-1.06978904.7311319-1.73791496.95624702c-.66943854.22511512-1.39269469.33800083-2.16976845.33800083-.7311319,0-1.39531994-.0853206-1.99387676-.25661811-.59855681-.1706412-1.14329602-.38853688-1.63290499-.65303073-.48960897-.26383754-.91752459-.55589651-1.28243423-.87486429-.36622226-.31831146-.66550067-.63334137-.89914785-.94443339l1.58696313-1.44585599Z" fill="#02518b"/><path d="M225.12677028,88.96591095c-.84007974,0-1.60927775-.15160814-2.30890666-.45482442s-1.3021236-.71931828-1.80748406-1.24830599c-.50536047-.5283314-.90177309-1.13870183-1.18923788-1.83111131-.28877741-.69175316-.43185349-1.43404237-.43185349-2.22752393,0-.79282525.14307608-1.53511446.43185349-2.22752393.28746479-.69175316.68387741-1.3021236,1.18923788-1.83111131.50536047-.5283314,1.10785516-.94443339,1.80748406-1.24764967s1.46882692-.45482442,2.30890666-.45482442c.82432824,0,1.58696313.15160814,2.28659204.45482442s1.30606147.71931828,1.81929768,1.24764967c.51323622.52898771.91358672,1.13935815,1.2010515,1.83111131.28746479.69240947.43185349,1.43469868.43185349,2.22752393,0,.79348157-.14438871,1.53577077-.43185349,2.22752393-.28746479.69240947-.68781529,1.30277991-1.2010515,1.83111131-.51323622.52898771-1.11966878.94508971-1.81929768,1.24830599s-1.4622638.45482442-2.28659204.45482442ZM225.12677028,87.14595696c.5604907,0,1.06585117-.1122294,1.5160814-.33800083.45154286-.22511512.83220399-.52045565,1.14329602-.8860216s.54867708-.78560582.71144253-1.26011961c.16276545-.47385748.2454608-.95952858.2454608-1.45766961,0-.48173323-.08269535-.96018489-.2454608-1.43469868-.16276545-.47385748-.40428837-.89783522-.72325615-1.27062061-.31896778-.3734417-.69962891-.6727201-1.14329602-.89849153-.44235449-.22511512-.94377708-.33800083-1.50426778-.33800083-.55917808,0-1.06453854.11288571-1.5160814.33800083-.45154286.22577143-.83220399.52111196-1.14329602.88667791s-.54736445.78494951-.71144253,1.2594633c-.16276545.47451379-.24414817.96018489-.24414817,1.45766961,0,.49814103.08138272.97987426.24414817,1.4465123.16407807.46598173.40428837.8860216.72325615,1.2594633.31896778.37278538.69962891.6727201,1.14329602.89783522.44366711.22577143.94508971.33800083,1.50426778.33800083Z" fill="#02518b"/><path d="M241.05809495,79.48028566h-1.95974852v-1.74907227h1.95974852v-.88667791c0-.73047559.10500997-1.36447326.3150299-1.90068041.21001993-.53686346.48960897-.97593638.83876711-1.31787509.35047077-.34193871.75082127-.59461894,1.2010515-.7580407.45154286-.16342176.92540034-.24480449,1.42288506-.24480449.5762422,0,1.13935815.08925847,1.6919731.26777542.55130233.17917326,1.06060067.48632741,1.52789503.92146246l-1.05009967,1.35331595c-.57492957-.48238954-1.18923788-.72325615-1.84292493-.72325615-.60643256,0-1.09210366.19426844-1.4570133.58280532-.36622226.38919319-.54867708,1.05797542-.54867708,2.00634669v.69962891h3.10173191v1.74907227h-3.10173191v9.48562529h-2.09888672v-9.48562529Z" fill="#02518b"/><path d="M256.59270912,79.55761786h-1.95974852v-1.74907227h1.95974852v-3.54539902h2.09888672v3.54539902h3.17261364v1.74907227h-3.17261364v5.34172578c0,.87092642.13520033,1.46948323.40822625,1.79632675.27171329.32618721.6563123.48960897,1.15379702.48960897.40428837,0,.73900765-.06169336,1.00415781-.18639269.26383754-.12469934.52767509-.31109203.79282525-.55983439l.9555907,1.28243423c-.45023024.43579136-.91358672.75082127-1.38744419.94508971-.4751701.19426844-1.03828605.29140266-1.69066047.29140266-1.15117177,0-1.99518938-.31109203-2.53074021-.93327609-.53686346-.62152774-.80463888-1.59352625-.80463888-2.91533922v-5.55174571Z" fill="#02518b"/><path d="M270.66462863,78.11969395h2.31021928l2.42573025,8.28069224,2.61212294-8.28069224h1.79567044l2.61343556,8.35026134,2.37847576-8.35026134h2.16976845l-3.59265351,10.84621701h-2.07525948l-2.52023922-7.58040702-2.49529935,7.58040702h-1.95974852l-3.66222261-10.84621701Z" fill="#02518b"/><path d="M302.24768894,87.3566332c-.40428837.54408289-.93721396.94837127-1.59746413,1.21286512-.66156279.26383754-1.34150233.39641263-2.04113124.39641263-.45154286,0-.89783522-.05841179-1.34150233-.17523538-.44366711-.11616728-.84795549-.31043572-1.21286512-.58280532-.36622226-.27171329-.66156279-.62152774-.8860216-1.04944336-.22577143-.42791562-.33865714-.95230914-.33865714-1.5744932,0-1.16626695.40822625-2.09954304,1.22467874-2.79917194s1.99387676-1.04944336,3.5335854-1.04944336c.24808605,0,.51323622.00787575.79282525.02297093.27958904.0157515.54473921.03150299.79282525.04659817.24939867.0157515.46729435.03150299.65368705.04659817.18639269.0157515.31896778.03150299.39641263.04659817v-.39641263c0-.80792044-.2454608-1.38744419-.73506977-1.73791496-.48960897-.34981445-1.15379702-.52439352-1.99387676-.52439352-.82432824,0-1.47801529.11288571-1.95974852.33800083-.48173323.22577143-.8860216.45482442-1.21286512.6884716l-.97921795-1.42288506c.18639269-.15554601.41216412-.31109203.67600167-.46663804.26515017-.15554601.57492957-.29927841.93327609-.43185349.35703389-.13191877.76132226-.24086661,1.21286512-.32618721s.9713422-.12863721,1.56333589-.12863721c1.39925782,0,2.49923722.33865714,3.29993822,1.01465881.800701.67665798,1.2010515,1.63684287,1.2010515,2.88121098v6.3091301c0,.38131744.00787575,1.00678306.02362724,1.27127692h-1.99035441l-.01533596-1.60927775ZM302.2240617,83.53098883c-.06169336-.01509518-.18245482-.03478455-.36097176-.05841179-.17982957-.02297093-.38591163-.0426603-.61824618-.05775548-.23364718-.0157515-.48304585-.03150299-.74688339-.04725449-.26515017-.01509518-.52111196-.02297093-.76919801-.02297093-.59199369,0-1.06978904.07022542-1.43469868.21001993-.36622226.13979452-.65368705.3150299-.86370698.52439352-.21001993.21001993-.35309602.44366711-.43054087.70028522-.07875748.25661811-.11682359.50142259-.11682359.73441346,0,.59133738.20214419,1.03828605.60643256,1.34150233s.96346645.45482442,1.67884685.45482442c.40428837,0,.78888738-.07022542,1.15510964-.21001993.36490964-.13979452.68781529-.32684352.96740432-.55983439.27958904-.23364718.50536047-.50536047.67731429-.8164525.1706412-.31109203.2559618-.6300598.2559618-.95624702v-1.23649237Z" fill="#02518b"/><path d="M314.45830758,79.89324536v-1.17808057c0-.33406296-.00787575-.67993954-.02362724-1.03762974h2.00569038l.0695691,1.74907227c.12469934-.18639269.28877741-.39247475.4909216-.61758987.20083156-.22577143.44629236-.43185349.73375715-.61824618.28746479-.187049.62218406-.34587658,1.00415781-.47845166.38066113-.13191877.81907775-.19820631,1.31787509-.19820631.23233455,0,.44629236.0157515.6405608.04659817.19426844.03150299.37672326.07810116.54867708.13979452l-.46729435,1.95974852c-.27958904-.10894784-.63662293-.16342176-1.07241429-.16342176-.45154286,0-.86764486.08597691-1.24830599.25661811-.38066113.17129751-.71144253.40822625-.99103157.71144253s-.50142259.65696861-.66418804,1.06125698c-.16407807.40428837-.2454608.83220399-.2454608,1.28309054l-.02362724,6.15667006h-2.09888672l.02362724-9.07266559Z" fill="#02518b"/><path d="M339.90140884,87.02867748c-.12469934.14045083-.31109203.31896778-.55917808.53686346-.24939867.21789568-.57230432.42791562-.96871695.62940349-.39641263.20214419-.86239436.37737957-1.39925782.52504984s-1.14723389.22183356-1.83111131.22183356c-.84007974,0-1.60927775-.14045083-2.30890666-.42003987-.69962891-.28024535-1.29818572-.67665798-1.79567044-1.18989419-.49879735-.51323622-.88339635-1.12688821-1.15510964-1.84226862s-.40822625-1.50820566-.40822625-2.37913207c0-.79348157.13257508-1.53577077.39641263-2.22818025.26383754-.69109685.63793555-1.29030997,1.11966878-1.79567044s1.05403755-.90571097,1.71428772-1.2010515c.66156279-.29534053,1.38744419-.44366711,2.18158207-.44366711.93196346,0,1.73266446.17917326,2.402103.53686346.66812592.3576902,1.216803.83220399,1.64471861,1.42288506.42660299.59068107.74163289,1.26733904.94377708,2.02931762s.30321628,1.55480383.30321628,2.37913207h-8.55962497c.0157515.48173323.11944884.92540034.3150299,1.32968871.19426844.40428837.45416811.75410283.78101163,1.04944336s.69962891.52898771,1.11966878.69962891c.42003987.17129751.86370698.25661811,1.32968871.25661811.91752459,0,1.67097111-.15554601,2.2629648-.46663804.59068107-.31109203,1.01728406-.61430831,1.28243423-.90964884l1.18923788,1.2594633ZM338.01254205,82.2474424c-.06300598-.84007974-.35834651-1.55480383-.8860216-2.14614121-.52898771-.59068107-1.2758711-.88667791-2.23933755-.88667791-.49879735,0-.94508971.08597691-1.34150233.25661811-.39641263.17129751-.73506977.39706894-1.01465881.67665798s-.49748472.60249469-.65368705.96806064c-.1548897.36556595-.2402103.74294552-.2559618,1.1314824h6.39116914Z" fill="#02518b"/><path d="M90.62289923,48.48100035c-.07369643,1.38151291-.20723256,2.75383485-.40985558,4.13073822-.03684821.28090088-.0828874.55261079-.12892659.83351167,0,.00921908-.00460954.02301959-.00460954.03223867-.00921908.04603919-.01382862.09668792-.01843816.14275521-.04603919.28551042-.10129746.5664113-.15655572.84731218-.98548596,5.17148245-2.89656195,10.21398209-5.67802594,14.83285376-.17499388.29011996-.34998777.58484946-.54339171.87496942-.01841005.02762913-.03223867.05064873-.05064873.07827786-.18421296.29011996-.37300736.58023992-.56643941.87494131-2.50511643,3.74390224-5.59971997,7.16547396-9.26992578,10.09427458-.65854589.52498165-1.31245413,1.0269156-1.98477243,1.49202945q-.00921908.00460954-.01382862.00460954c-.29933904.21642353-.58484946.42365609-.88876993.61706003-.06908689.04606729-.11973562.09210648-.1888225.13817378h-.01841005c-.30392047.20720445-.59404043.40521793-.90259855.59864997h-.01841005c-1.87886543,1.18808087-3.81757056,2.20119596-5.79315202,3.04853625-1.16506127.50193395-2.34395117.93941866-3.53206014,1.31703556-.00460954,0-.00921908.00460954-.01380051.00921908-.62169767.20262302-1.24336724.38680788-1.86964635.55261079-.82432069.22103307-1.64861328.41443701-2.47293397.58021181,0,0-.00919097.00460954-.01380051.00460954-.105907.01843816-.20262302.03684821-.30394858.05064873,0,0-.00919097.00921908-.01380051.00921908-.27170991.05064873-.53878217.09671602-.81049207.14275521-.11973562.01843816-.22564261.03684821-.34537823.05064873h-.01380051c-.26249083.04606729-.51576257.09210648-.78286294.1289547h-.00460954c-.1289547.01841005-.25327175.03223867-.38222644.04603919h-.00919097c-.17960342.0230477-.35459731.04606729-.52959119.06447735h-.00460954c-.40985558.05064873-.81510161.09210648-1.22031954.11973562-.10132556.01380051-.19804158.01841005-.29933904.02762913-3.98337347.2947295-7.93908971-.03684821-11.73825022-.98548596-.26249083-.06447735-.52498165-.12892659-.78747248-.20262302-.19801348-.05525827-.39141742-.11051654-.58943089-.1657748-.01843816-.00460954-.04606729-.01382862-.06447735-.01841005-.20262302-.05986781-.4006365-.11512608-.60325951-.1888225-.02301959-.00460954-.05064873-.01380051-.07827786-.02301959-2.84133179-.88876993-5.57211894-2.13213718-8.12330267-3.72549219-.00460954,0-.01382862-.00458143-.01841005-.00919097-.14736475-.09210648-.29933904-.1888225-.44670379-.28551042-.01841005-.00921908-.03223867-.0230477-.05064873-.03684821-.14275521-.09210648-.29011996-.19340394-.43287517-.29011996-2.2058055-1.45518123-4.26888389-3.195901-6.14772122-5.1898925-.1289547-.13814567-.25788129-.2716818-.38222644-.41443701-.20262302-.22564261-.40524604-.45131333-.60325951-.68156548-.1289547-.14733664-.25788129-.29931093-.38222644-.45128522-.03684821-.04603919-.07366832-.08749694-.11051654-.13353613-.1657748-.19343204-.32696817-.38683598-.4835239-.58023992-.47433292-.59404043-.93483723-1.20651903-1.37690337-1.83740768-9.15482782-13.02768475-9.17787552-30.51301969-1.40914205-44.51697132v-.00458143s0-.00460954.00458143-.00921908c.21645164-.39602696.44209425-.78286294.67695594-1.16967081.00460954,0,.00460954-.00460954.00460954-.00921908,2.69393894-4.53595615,6.22599908-8.66669438,10.55014124-12.12047666.24408077-.19340394.48813344-.38683598.73682375-.57102084l.00458143-.00460954.08749694-.06447735c.11051654-.08749694.22106118-.17038434.33157771-.24866221,4.02941266-3.0071066,8.37196488-5.17145434,12.81581455-6.52533812.17499388-.05986781.35920685-.11054464.53881027-.16580291.11051654-.03221057.22564261-.06444924.33615915-.09668792h.00921908c.105907-.02762913.20720445-.05525827.30853001-.0828874l.00460954-.00460954c.13353613-.03684821.25327175-.06447735.3776169-.09210648.12431705-.02762913.24405267-.05986781.3775888-.09671602-.00860073.00410362-.01630203.00950015-.02487465.01365998,4.53376381-1.13276639,9.15260737-1.43705225,13.61897071-.92083997h.00460954c.13353613.01380051.26710037.03223867.4006365.05064873.18421296.02301959.36839782.04606729.55261079.06908689.12892659.01841005.25788129.03682011.38680788.05986781h.00460954c.84734029.12892659,1.69007103.28551042,2.51897316.47891436.36378828.07827786.72757656.1657748,1.08217387.26249083.57102084.14736475,1.13746025.30853001,1.69926201.47891436.34076869.1059351.68153738.21645164,1.01772463.33618725.01841005,0,.03682011.00919097.05064873.01841005,6.2398277,2.15054723,11.89483405,6.03259514,16.28342545,11.56786587.15658383.19340394.31774909.39141742.46972338.59404043l.57102084.76906243c.09671602.12892659.1887944.26249083.27629134.39141742,1.2387577,1.75912981,2.30713106,3.60114703,3.21433916,5.50303206.82890213,1.73611022,1.52426812,3.5274506,2.08146034,5.35566731.17960342.58482135.34079679,1.17428035.49274298,1.76832079.06908689.24408077.1289547.483552.18421296.72760467.01841005.07366832.03684821.14736475.05064873.22103307.05525827.24869031.11051654.49735252.1657748.74601472.1059351.51579068.20723256,1.04074422.2947295,1.56572588.06908689.40524604.14275521.81971115.1888225,1.22492908.10129746.72760467.17957532,1.45520934.23944313,2.18739544.16580291,1.91571365.20262302,3.85444688.09671602,5.78854248Z" fill="url(#b)"/><path d="M84.8007148,21.31608487c.83592686,1.20092635,1.61779771,2.46376232,2.32620018,3.75785362l.12005809-.06431387c-2.02306843-5.85616888-5.9180874-11.44005566-10.99069107-15.74908519l-.97957845-.80422395-1.00765174-.76275052c-.70153347-.51871844-1.40456021-1.00497941-2.08697995-1.44255417-.67973188-.43817583-1.41471437-.8991921-2.18643106-1.30671366l-.08571311-.04447875c-.71676472-.37386196-1.45831756-.76034626-2.20673939-1.08972947-2.87781036-1.35660199-6.09040958-2.38261864-9.55596702-3.05160314-5.7209771-1.10415501-11.68923803-1.00077196-17.26029183.29692573l-.00119461.00060106-.00149326-.00601064-.42617636.09677134-.00149326-.00721277c-.95658225.22600015-1.91495642.48445778-2.85839799.77056435-5.70007146,1.72986288-10.99367759,4.4472743-15.30919853,7.8577128l-1.21222834.96530917c-.54533849.43276625-1.03453042.82586226-1.50878974,1.25742639-1.80684441,1.53571913-3.56261933,3.32869376-5.53372231,5.64880172-1.86388693,2.21071427-3.37894837,4.30963059-4.63059876,6.41696182-1.47534072,2.45534742-2.65770386,4.76463622-3.61607803,7.06070162-1.01093691,2.38201758-1.8591085,4.91490228-2.52211587,7.53073385-.62448126,2.46075699-1.0844053,5.09762581-1.36663141,7.83727661-.23085797,2.24136855-.28401802,4.55246055-.16246667,7.06490907.53578163,11.05597561,4.51561776,21.22778573,11.20631779,28.64311525,6.97292615,7.72848399,16.21172478,12.55743408,26.01407967,13.59667415,9.007642.95328788,18.49372446-1.36381476,26.07052489-6.36647242l-.12543383-.26747359c-8.6806181,4.34629551-18.97813795,5.31100362-28.30593487,2.64167733-.80516571-.2302076-1.61899232-.49347374-2.41908094-.78138351-9.38872192-3.38158741-17.2244536-10.4495018-22.06351144-19.90003483l-.11259179-.2470374c-.44051165-.96831449-.8959559-1.96968751-1.27136143-2.99269885-.83353764-2.19448554-1.4941558-4.46109878-1.96244208-6.73252054-.45156178-2.2774324-.73378789-4.622184-.83980933-6.97174411-.11109853-2.27562921-.03344902-4.6372106.23055932-7.01922818.99391375-9.25759141,4.77873014-18.33846993,10.65679817-25.56746954,1.59629477-1.95766623,3.16780142-3.62682162,4.80471286-5.10183326,1.90958068-1.73647459,3.70567362-3.15739045,5.48952182-4.34389126,1.91644968-1.29709663,3.96251431-2.46015593,6.07906081-3.45611937,2.01201831-.94667618,4.1733626-1.76111822,6.42579574-2.42228888l-.00149326-.02103725.16097341-.02344151.32672525-.09256389-.00119461-.01923406.14902733-.01923406v.00120213c5.02511801-1.35059135,10.12101654-1.74669268,15.14374534-1.17508059l.00029865-.00060106c.02628137.00180319.05077083.00480851.07346838.00901596l.36913383.04688301c.25206226.03125534.50322857.06251068.72423102.09977666,11.27948753,2.0706663,20.35253431,7.68941481,26.24224977,16.24917064Z" fill="url(#c)"/><path d="M66.120834,56.64645816c-.09760736.06422166-.19733782.12459917-.29550566.18783481.000952.00807644.00246007.01629009.00341207.02436653.09917749-.06786098.19353836-.14333908.29209358-.21220134Z" fill="none"/><path d="M66.01358904,10.07034871c-.01382862-.00921908-.03223867-.01841005-.05064873-.01841005-.33618725-.11973562-.67695594-.23025215-1.01772463-.33618725,2.00318248.73682375,3.97415439,1.68546149,5.88064896,2.86896093.00919097,0,.01380051-.00460954.01841005-.00460954-1.57030731-.99470504-3.18668192-1.83282624-4.83068565-2.50975408Z" fill="url(#d)"/><path d="M12.74706405,50.20789149c-.01382862-.14275521-.02762913-.28090088-.02762913-.41904655-.10132556,1.27560592-.14275521,2.54657419-.12434516,3.81296102l.02301959.85194983.03223867.50193395c-.06905878-1.57030731-.03223867-3.1498337.09671602-4.74779825ZM12.65034802,54.95568974c.02301959.74601472.07830597,1.49205756.14736475,2.22424366l-.14736475-2.22424366ZM17.31525887,33.87381731c-.00460954.01380051-.01380051.02301959-.01841005.03684821-2.500535,4.86292433-3.96954485,9.91464305-4.48991697,14.92032259v.00460954c.00460954.13353613.01380051.28090088.02301959.42365609,0-.00460954,0-.00919097.00460954-.01380051v-.00921908c.52498165-4.9780504,2.00318248-10.02976913,4.50832702-14.89269346v-.00460954c.00460954,0,.00460954-.00460954.00460954-.00460954-.02301959-.15658383-.02762913-.31313955-.03223867-.4605043ZM27.7687122,20.5790603c-3.93269664,3.40771499-7.34504927,7.56608234-9.96071035,12.36913886,0,.00460954-.00460954.00460954-.00460954.00921908,0,.14736475.01382862.29931093.02762913.45589476,2.61566107-4.80766606,6.02340417-8.97522439,9.96071035-12.41059662-.01841005-.14275521-.02301959-.28551042-.02301959-.42365609ZM41.80026486,12.34985063c-4.76159877,1.71306252-9.26992578,4.26885579-13.27631885,7.5844924v.00460954h-.00460954c.00460954.06908689.00921908.13353613.01380051.20262302.00460954.07366832.00921908.14275521.01382862.21642353,4.00178353-3.33865621,8.51011055-5.93587912,13.27173742-7.69039939-.00460954-.11051654-.01382862-.2118421-.01843816-.31774909ZM57.55412722,9.8815262c-5.00567954-.20259491-10.04359775.54341981-14.8374633,2.1459658,0,.05525827,0,.105907.00460954.15655572.00460954.05528637.00460954.1059351.01382862.15658383h.00460954c4.79383744-1.6393942,9.82253657-2.43605765,14.81902514-2.2886929-.00460954-.05986781-.00460954-.11512608-.00460954-.17041245ZM58.50276496,9.93681258c.00921908.05525827.00921908.10129746.01380051.15655572,4.12612868.22103307,8.22001869,1.09600249,12.13891482,2.67552888v-.02301959c-3.92350567-1.62559369-8.02658665-2.54199275-12.15271533-2.80906501Z" fill="url(#e)"/><path d="M21.29863235,78.00853409c-.98087642-1.65319471-1.73150068-3.48599285-2.25648233-5.47998436-.1657748-.15658383-.31774909-.31313955-.46511384-.46972338.53420073,1.9341237,1.27560592,3.73468316,2.2288532,5.36488639.03684821.04603919.07366832.08749694.11051654.13353613.1289547.15658383.26249083.31774909.39602696.47433292-.00460954-.00921908-.00919097-.01382862-.01380051-.0230477ZM18.65534214,59.49628354c-.2118421-.20723256-.41446512-.41907466-.61708813-.62169767-.69075646,4.50835513-.56180176,8.73578127.35459731,12.47507397.15194618.1657748.31313955.32235863.46969528.4835239-.84731218-3.68864397-.93941866-7.86081185-.20720445-12.33690019ZM23.13143048,43.80228899c-2.51436362,4.86753387-4.14914828,9.67059039-4.94581173,14.21115608.20262302.20723256.4006365.40985558.61708813.62627911.83351167-4.51293656,2.48209684-9.28836395,4.99185092-14.15589781-.23025215-.23486169-.44667568-.45128522-.66312732-.68153738ZM33.41910901,30.03319905c-.10132556-.10129746-.20723256-.20720445-.30855812-.31313955-3.64718622,3.89587653-6.89373594,8.33053523-9.4955965,13.16122088.22106118.23025215.44209425.45128522.6723464.68153738,0,0,0-.00460954.00460954-.00460954,2.59725102-4.83068565,5.82536258-9.27914487,9.44033824-13.21186961-.1059351-.11051654-.2118421-.21181399-.31313955-.31313955ZM46.09677788,19.52448746c-.07827786-.07827786-.15658383-.15655572-.23486169-.23944313-4.25044573,2.58803194-8.34433574,5.8622108-12.04678023,9.68900044v.00460954h-.00460954c.10132556.105907.20723256.2118421.30853001.31313955.10132556.105907.20723256.20723256.30855812.30853001,3.66098673-3.85902832,7.71341899-7.18846544,11.90402502-9.84097473-.0828874-.0828874-.15658383-.15655572-.23486169-.23486169ZM59.70006491,13.55176012c-4.33333314.94863774-8.74497224,2.7491972-13.01385613,5.24976031h-.00458143c.14736475.15655572.29931093.30392047.45589476.4605043h.00460954c4.21359752-2.55582137,8.5515683-4.42546772,12.80662358-5.45238333v-.00460954c-.0828874-.0828874-.16119337-.1657748-.24869031-.25327175ZM70.87190383,13.11888495c-3.28800748-.54800125-6.78321941-.43748471-10.34751822.26249083l.23486169.23486169c3.49982147-.7552338,6.92136508-.94863774,10.14028567-.46972338-.00919097-.00460954-.01380051-.01841005-.02762913-.02762913Z" fill="url(#f)"/><path d="M29.37125818,80.4630299c-.24405267-.14736475-.4835239-.30853001-.72757656-.45589476-.20723256,1.8880564-.13356424,3.43076269.22103307,4.57741391.01841005.01380051.03223867.02762913.05064873.03684821.14736475.09668792.29933904.19340394.44670379.28551042.00458143.00460954.01380051.00919097.01841005.00919097-.28551042-1.09597439-.28090088-2.59722291-.00921908-4.45306875ZM31.40670745,69.42014568c-1.43677118,3.9280871-2.33936974,7.32661111-2.69857658,10.07122688.24408077.15655572.49274298.31774909.74601472.46972338.45131333-2.68474796,1.43218975-6.03723279,2.91039058-9.93308121-.32233053-.20262302-.63549819-.40524604-.95782872-.60786905ZM37.72942255,55.32411567c-2.52816413,4.85370525-4.54978477,9.34823175-6.0510333,13.33157712,0,.00460954.00460954.00460954.00460954.00460954.1657748.1059351.32235863.2118421.48813344.31313955.16116526.1059351.32235863.20723256.48813344.30855812v-.00460954c1.54728772-3.95574434,3.60114703-8.43183269,6.12470162-13.28556604-.35459731-.22564261-.70455697-.44667568-1.05454474-.66770876ZM46.55267265,40.32087757h-.00460954c-2.92880063,4.46228783-5.77010432,9.21469562-8.33050712,14.07761995-.00460954,0-.00460954.00460954-.00460954.00460954.17499388.11051654.34998777.22103307.52956309.33154961.17499388.11051654.34537823.22103307.52498165.33157771,2.56501235-4.85834289,5.36949593-9.63377028,8.2568388-14.12829679-.32694007-.21181399-.64468916-.41443701-.97165734-.61706003ZM56.07128875,27.33465057h-.00458143c-2.97025838,3.60575657-6.00499412,7.7134471-8.95681434,12.13888671h.00460954c.32233053.20723256.63549819.40985558.95782872.60786905,2.89198052-4.45767829,5.85762936-8.61601754,8.73578127-12.28164192-.24869031-.14736475-.49735252-.30853001-.73682375-.46511384ZM65.09718997,17.81142494c-2.6294897,2.29791198-5.50303206,5.30501858-8.45946182,8.8462978.23944313.14733664.47430482.29931093.71838559.45128522,2.85971374-3.59192795,5.62734911-6.68192195,8.13249364-9.04892082-.13353613-.08749694-.25788129-.1657748-.39141742-.24866221ZM71.41990508,13.55176012c-1.70387155.69997554-3.67020581,2.0170111-5.81617161,3.83600872.11512608.07827786.23947123.15655572.36381639.22564261,2.04003069-1.87425589,3.89584842-3.26037834,5.49381298-4.0340222-.01382862-.01382862-.02762913-.01841005-.04145775-.02762913Z" fill="url(#g)"/><path d="M41.86013266,86.93310975c-1.09139295.95324728-2.0998985,1.6624419-3.02090711,2.10450804.26249083.07369643.52498165.13814567.78747248.20262302.95324728-.42365609,1.98016289-1.08217387,3.06233676-1.96633427-.27629134-.11054464-.55719222-.22106118-.82890213-.34079679ZM48.94730065,78.6117936h-.00460954c-2.39923754,3.42157171-4.66952039,6.11090111-6.69572246,7.97593792l.84270264.35459731c2.13213718-1.8281886,4.48533553-4.48069789,6.94441278-7.8792219-.36378828-.14275521-.72760467-.2947295-1.08678341-.45131333ZM56.8909999,65.37229486c-2.54199275,4.83990473-5.0839574,9.07194041-7.48780448,12.58098096.36839782.15658383.73221421.30394858,1.10522157.45592287,2.46368678-3.48602096,5.03791821-7.69964658,7.57988286-12.54874229-.4006365-.15658383-.79205391-.32696817-1.19729995-.48816155ZM64.18998188,49.56781187h-.00460954c-1.9939634,4.95042127-4.29187538,9.99292092-6.81545808,14.8742834h.00460954c.39602696.17038434.78747248.33154961,1.19271851.49735252,2.52355459-4.88597203,4.78003693-9.94230029,6.7233516-14.91574116-.36839782-.15197429-.73679564-.29933904-1.10061203-.45589476ZM69.46276178,34.35734121h-.00460954c-1.28018735,4.48530743-2.93801971,9.3298217-4.89055346,14.26641435.35920685.15197429.72760467.29933904,1.09139295.45131333,1.88808451-4.96424989,3.45839182-9.8363933,4.63728172-14.37234945-.28090088-.11051654-.55261079-.23025215-.83351167-.34537823ZM72.18893939,21.52769804c-.40524604,3.45839182-1.25716776,7.53384367-2.48670638,11.97772145.13353613.05525827.2716818.11051654.40524604.1657748.13814567.05525827.2716818.11051654.40524604.17038434v-.00460954c1.12363163-4.48530743,1.85120819-8.60682657,2.11369902-12.1250862-.14275521-.0598397-.29011996-.12431705-.43748471-.18418486ZM72.17974842,13.94317754c-.01382862-.00458143-.03223867-.00919097-.04606729-.01841005.38222644,1.80055946.40524604,4.16294879.11973562,6.94902232.14736475.0598397.28551042.11512608.41907466.17496578.17038434-2.83669415.01380051-5.25434174-.49274298-7.10557804Z" fill="url(#h)"/><path d="M65.7971374,83.70957962c-2.31171249,2.17820447-4.73857917,3.9511348-7.22528555,5.29121806.62627911-.16580291,1.24794868-.34998777,1.86964635-.55261079.00458143-.00460954.00919097-.00921908.01380051-.00921908,2.11372712-1.24336724,4.18138695-2.78604542,6.15233076-4.61884356-.26707226-.03223867-.53417263-.07369643-.81049207-.11054464ZM75.30195299,70.93980426c-2.56040281,4.83990473-5.58591946,8.91535658-8.87850837,12.16190631h.00460954c.28090088.04606729.55258268.07830597.82429259.11512608,3.33865621-3.24194018,6.38258291-7.31278249,8.93837618-12.15268723-.29011996-.04145775-.58482135-.07830597-.88876993-.12434516ZM81.55099977,54.75306673c-.13814567-.01841005-.2716818-.04142965-.40985558-.06444924h-.00458143c-1.09142106,5.22671261-2.87357047,10.42579609-5.35108587,15.32095909h.00460954c.29933904.04606729.58484946.0828874.8841885.12434516,2.47290586-4.895163,4.23203568-10.09424648,5.28197088-15.32556863-.13353613-.01843816-.26710037-.03684821-.40524604-.05528637ZM82.95092273,38.33149561c-.20259491-.02301959-.41443701-.05064873-.62166957-.0828874.33615915,4.9780504.01841005,10.21859163-.9900955,15.44530424h.00460954c.26710037.04606729.54339171.07830597.80127299.11973562.9670759-5.24054123,1.22034765-10.49027343.80588253-15.48215246ZM79.32675611,23.63220609c-.11051654-.01382862-.22103307-.03223867-.33154961-.04606729h-.00460954c1.74071976,4.11230006,2.83211271,8.76801994,3.26498788,13.71383167h.00458143c.20262302.03223867.4006646.05986781.60328762.0828874-.51118114-4.95042127-1.69468057-9.62913263-3.53669779-13.75065178ZM72.85667626,14.14119102c-.01380051,0-.02301959-.00458143-.03684821-.00458143,2.38543703,2.39920944,4.32414216,5.34183869,5.83000023,8.67127581h.00460954c.105907.0230477.20262302.03223867.30853001.04606729-1.59335501-3.34326575-3.62877617-6.29969551-6.10629157-8.71276167Z" fill="url(#i)"/><path d="M52.88460683,90.07836202c-.40985558.05064873-.81510161.09210648-1.22031954.11973562-1.68546149-.39141742-3.51825963-.93022769-5.48001246-1.60715552-1.16508938-.4006365-2.33015065-.84734029-3.49524004-1.31703556-.27629134-.11054464-.55719222-.22106118-.82890213-.34079679-4.33794268-1.80977854-8.62984616-4.0570418-12.48887448-6.47007985-.24405267-.14736475-.4835239-.30853001-.72757656-.45589476-3.79916051-2.43605765-7.12862574-5.01028908-9.60153161-7.4785854-.1657748-.15658383-.31774909-.31313955-.46511384-.46972338-1.22953862-1.27560592-2.22421555-2.51894505-2.91958155-3.68864397-.35920685-.60325951-.62627911-1.16506127-.80588253-1.69004293l-.25327175-.76903432c.18418486.52037211.45589476,1.07295479.80588253,1.66702333.71377605,1.19729995,1.72689114,2.46368678,2.98866844,3.77153138.15194618.1657748.31313955.32235863.46969528.4835239,2.53738321,2.52816413,5.95434539,5.17145434,9.84558427,7.65818883.24408077.15655572.49274298.31774909.74601472.46972338,3.94652526,2.47290586,8.34894528,4.76620831,12.79282306,6.62663558l.84270264.35459731c1.19732806.4835239,2.38543703.93483723,3.57812744,1.3446647,2.24726325.78286294,4.3287517,1.37690337,6.21680811,1.79136849Z" fill="url(#j)"/><path d="M70.70151948,83.47474604c-.30392047.20720445-.59404043.40521793-.90259855.59864997h-.01841005c-.97626688-.02301959-2.03542115-.1059351-3.1728814-.25327175-.26707226-.03223867-.53417263-.07369643-.81049207-.11054464-3.18668192-.4835239-6.92597462-1.44138072-11.12116208-2.9011715-1.54270628-.53417263-3.08538446-1.11902209-4.63728172-1.74530119h-.00460954c-.36378828-.14275521-.72760467-.2947295-1.08678341-.45131333h-.00460954c-5.7563038-2.40842852-11.4527398-5.38326833-16.57354541-8.58377887h-.00460954c-.32233053-.20262302-.63549819-.40524604-.95782872-.60786905-5.04252775-3.22353013-9.46338594-6.65429282-12.75136531-9.92386213-.20723256-.20723256-.40985558-.41907466-.61247859-.62169767-1.63478466-1.69465247-2.95184833-3.34326575-3.87285694-4.895163-.84270264-1.43216164-1.30781648-2.68471986-1.41833302-3.77153138-.01382862-.14275521-.02762913-.28090088-.02762913-.41904655,0-.14275521,0-.28090088.01380051-.41907466l.07369643-.80127299c0,.08749694-.00460954.17499388-.00460954.26249083v.00460954c.00921908.1289547.01380051.26710037.02762913.4006365v.02301959c.11051654,1.09139295.58023992,2.36699887,1.44138072,3.80837959.92561815,1.57030731,2.26106377,3.23735875,3.90967705,4.94581173.20262302.20723256.4006365.40985558.61708813.62627911l.00458143.00460954c3.31563661,3.30641753,7.78253398,6.76480935,12.87110092,10.01135908,0,.00460954.00460954.00460954.00460954.00460954.1657748.1059351.32235863.2118421.48813344.31313955.16116526.1059351.32235863.20723256.48813344.30394858v.00460954h.00460954c5.1668448,3.2327211,10.9231486,6.23521816,16.73932021,8.67127581.36839782.15658383.73221421.30394858,1.10522157.45592287,1.56569777.63547008,3.12681411,1.22492908,4.68793044,1.76832079,4.23664522,1.46900985,8.01275803,2.43605765,11.22709718,2.92419109h.00460954c.28090088.04606729.55258268.07830597.82429259.11512608,1.24336724.16580291,2.39923754.24869031,3.44917274.25790939Z" fill="url(#k)"/><path d="M83.68313694,70.17537948c-.01841005.02762913-.03223867.05064873-.05064873.07827786-.18421296.29011996-.37300736.58023992-.56643941.87494131-1.84201722.29933904-4.15372971.28553853-6.87532589-.06444924-.29011996-.04145775-.58482135-.07830597-.88876993-.12434516-3.47219234-.52959119-7.5614728-1.57952639-12.14810579-3.16827186-1.68082385-.58023992-3.37547631-1.22492908-5.06554735-1.911076-.4006365-.15658383-.79205391-.32696817-1.19729995-.48816155-6.29508597-2.62946159-12.51650362-5.88983993-18.10703261-9.38047043-.35459731-.22564261-.70455697-.44667568-1.05454474-.66770876-5.5076416-3.52286917-10.33832725-7.26216187-13.93486474-10.84028931-.23025215-.23486169-.44667568-.45128522-.66312732-.68153738-1.78675895-1.8512363-3.22353013-3.65179576-4.23203568-5.34644823-.6723183-1.14206979-1.26638684-2.37621795-1.49202945-3.69325351-.02301959-.14275521-.04603919-.28090088-.06447735-.41904655v-.00460954c-.01841005-.14275521-.03223867-.28551042-.04603919-.42826563-.09671602-1.13285071.02762913-2.16898539.23947123-3.42157171v-.00458143s0-.00460954.00458143-.00921908c.21645164-.39602696.44209425-.78286294.67695594-1.16967081-.22564261.62166957-.42365609,2.97944936-.40985558,3.64257668v.00921908c0,.14736475.01382862.29931093.02301959.45589476.12434516,1.18349943.63088865,2.56040281,1.56111634,4.12151914,1.00389601,1.69465247,2.43605765,3.49521193,4.2228166,5.34644823.22564261.22564261.44670379.45128522.67695594.67692784,3.58270887,3.58273698,8.41800406,7.31742014,13.92564566,10.84028931.17038434.11512608.34537823.22564261.52495355.33615915.17499388.11051654.34537823.22103307.52498165.33157771h.00460954c5.590529,3.49521193,11.80272756,6.74637119,18.09781353,9.37586089h.00460954c.39602696.17038434.78747248.33154961,1.19271851.49735252h.00460954c1.69004293.68153738,3.38008585,1.3216451,5.06093781,1.90185692,4.58660488,1.59796455,8.66669438,2.64331832,12.15268723,3.16827186h.00460954c.29933904.04606729.58484946.0828874.8841885.12434516h.00458143c2.78146399.36378828,5.13924377.37300736,7.00428059.04145775Z" fill="url(#l)"/><path d="M90.08415802,53.44525024c0,.00921908-.00460954.02301959-.00460954.03223867-.00921908.04603919-.01382862.09668792-.01843816.14275521-.04603919.28551042-.10129746.5664113-.15655572.84731218-1.87425589.64932681-4.57280437.77364386-7.94830879.33618725-.13353613-.01382862-.27170991-.03223867-.40524604-.05067683-.13814567-.01841005-.2716818-.04142965-.40985558-.06444924h-.00458143c-3.20051054-.483552-6.96285094-1.44599026-11.18566754-2.91039058-1.54267818-.53878217-3.09918497-1.12824117-4.65569177-1.75452027h-.00460954c-.36839782-.15197429-.73679564-.29933904-1.10061203-.45589476h-.00460954c-5.78393294-2.42225714-11.51718904-5.42014465-16.65643281-8.62987427h-.00460954c-.32694007-.21181399-.64468916-.41443701-.97165734-.61706003h-.00460954c-5.06554735-3.24194018-9.51400656-6.68653149-12.81120501-9.97453897h-.00460954c-.1059351-.11051654-.2118421-.21181399-.31313955-.31313955-.10132556-.105907-.20262302-.21181399-.30394858-.31774909-1.64400374-1.70384344-2.96564884-3.3616758-3.89126699-4.9181826-.85192172-1.43677118-1.31703556-2.70776756-1.4275521-3.79455097-.01841005-.14275521-.02762913-.28551042-.02762913-.42365609-.01841005-1.19732806.88690641-3.26148189,1.74346578-3.97986748l.44962666-.33860238c-.79208202.69997554-1.45629679,2.53171092-1.43785863,3.6737526v.00460954c0,.06447735.00460954.13353613.00919097.20262302.00460954.07366832.00921908.14275521.01382862.21642353.11512608,1.07759244.57102084,2.3347602,1.41375159,3.75312132.92561815,1.54267818,2.22882509,3.18210048,3.85441878,4.86292433v.00460954c.10129746.105907.20262302.20723256.30392047.31313955.10132556.105907.20723256.20723256.30855812.30853001,3.26495978,3.2557688,7.66277026,6.6635119,12.68227842,9.87321341h.00460954c.32233053.20723256.63549819.40985558.95782872.60786905h.00460954c5.08856694,3.18668192,10.76198334,6.14774933,16.49065801,8.54234922.35920685.15197429.72760467.29933904,1.09139295.45131333,1.53809674.62166957,3.07616538,1.20190949,4.61426212,1.74069165,4.17216787,1.44599026,7.89305052,2.39923754,11.06590381,2.8781519h.00460954c.26710037.04606729.54339171.07830597.80127299.11973562,3.38933304.43748471,6.08327198.30394858,7.93911781-.36839782Z" fill="url(#m)"/><path d="M89.63745422,36.96839275c.05525827.24869031.11051654.49735252.1657748.74601472-1.39531343.8013011-3.74848367,1.02233417-6.85230629.61708813-.20259491-.02301959-.40982747-.05064873-.62166957-.0828874-2.42686668-.36839782-5.28658042-1.10061203-8.49170049-2.21041504-1.17428035-.41446512-2.36238933-.85655937-3.53666968-1.33547372h-.00460954c-.28090088-.11051654-.55261079-.23025215-.83351167-.34537823h-.00460954c-4.39781048-1.84201722-8.7403627-4.11230006-12.65003974-6.55757679-.24869031-.14736475-.49735252-.30853001-.73682375-.46511384h-.00458143c-3.8452278-2.45907724-7.22531366-5.07476643-9.7304582-7.57530143h-.00460954c-.0828874-.0828874-.15658383-.15655572-.23486169-.23486169-.07366832-.07827786-.15197429-.15655572-.23025215-.23944313-1.24336724-1.28940643-2.25187279-2.55121183-2.95182022-3.7392927-.64932681-1.08220198-1.00850555-2.04464023-1.09142106-2.8781519-.00919097-.11051654-.01380051-.21645164-.01841005-.31774909-.02301959-1.25719586.91174374-2.37988327,2.14128236-2.93707549.26249083-.06908689.4935119-.11797537.75600272-.1916718-1.15126076.54800125-2.00390561,1.60908871-1.98549555,2.80638866,0,.05525827,0,.105907.00460954.15655572.00460954.05528637.01382862.1059351.01843816.15658383.0828874.81049207.42826563,1.74991073,1.05915428,2.81367455.68614692,1.16047984,1.66702333,2.38082749,2.88276144,3.64260479v.00460954h.00458143c.14736475.15655572.29933904.30392047.45131333.4605043h.00460954c2.44527673,2.44066719,5.74247518,4.99185092,9.4955965,7.395698.23944313.14733664.47430482.29931093.71838559.45128522h.00460954c3.80835148,2.38540892,8.05421578,4.60504304,12.34150973,6.39641153.13353613.05525827.2716818.11051654.40524604.1657748.13353613.05525827.2716818.11051654.40524604.1657748h.00458143c1.1558703.47433292,2.30713106.90259855,3.45378228,1.30323505,3.12684221,1.08678341,5.90827809,1.80055946,8.28449604,2.15976631h.00458143c.20262302.03223867.4006646.05986781.60328762.0828874h.00458143c3.05775533.39602696,5.35566731.17038434,6.71877017-.63549819.01841005.07366832.03684821.14736475.05064873.22103307Z" fill="url(#n)"/><path d="M83.33775872,23.00131744c-.05064873.05525827-.11051654.11051654-.17499388.16116526h-.00460954c-.04142965.03223867-.0828874.05986781-.12892659.09210648-.73221421.46511384-1.99860105.59404043-3.70247259.3776169-.11051654-.01382862-.22103307-.03223867-.33154961-.04606729h-.00460954c-1.28479689-.19340394-2.79065496-.58023992-4.48991697-1.16967081-.62166957-.21645164-1.24336724-.45128522-1.87425589-.70458508-.14275521-.0598397-.29011996-.12431705-.43748471-.18418486-2.32554111-.97626688-4.63267218-2.17817636-6.69572246-3.4676109h-.00460954c-.13353613-.08749694-.25788129-.1657748-.39141742-.24866221-2.03083972-1.30323505-3.81759867-2.68474796-5.14843475-4.00639307-.0828874-.0828874-.16119337-.1657748-.24869031-.25327175-.65851778-.68614692-1.18808087-1.34927424-1.56108823-1.97555335-.34079679-.57563038-.52959119-1.08681152-.57563038-1.52426812-.00921908-.05986781-.00921908-.11973562-.00921908-.17041245-.00921908-.71377605.38680788-1.22492908,1.14665122-1.51504904.18421296.02301959.36839782.04606729.55261079.06908689.12892659.01841005.25788129.03682011.38680788.05986781-.74601472.25788129-1.14665122.74601472-1.13743214,1.43677118v.00460954c.00921908.05525827.00921908.10129746.01380051.15655572.04145775.40985558.21645164.88876993.53881027,1.43216164.34998777.589459.84731218,1.21573811,1.46900985,1.85584584l.23486169.23486169c1.24333914,1.24336724,2.92419109,2.54657419,4.84448617,3.77153138.11512608.07827786.23947123.15655572.36381639.22564261,1.94331467,1.22031954,4.10308098,2.34856071,6.28586689,3.26037834.14736475.0598397.28551042.11512608.41907466.17496578.58943089.23486169,1.17888989.4605043,1.76371125.66312732,1.59335501.55261079,3.0071066.91181764,4.21362563,1.09600249h.00460954c.105907.0230477.20262302.03223867.30853001.04606729h.00460954c1.59335501.21181399,2.79065496.07827786,3.47680188-.35920685h.00460954c.04603919-.02762913.07827786-.05064873.11973562-.0828874h.00460954c.06905878-.05525827.13814567-.11512608.19340394-.17960342l.57102084.76906243Z" fill="url(#o)"/><path d="M76.79855103,48.42113254c-.92100861.95324728-1.87425589,1.89269405-2.85971374,2.79065496-.99470504.90720809-2.03083972,1.77295844-3.10382262,2.59264148-.73679564.56643941-1.49202945,1.10061203-2.25184469,1.63481277-2.35319836-11.07054146-11.97311191-20.43718327-17.64191877-24.83960329-.00921908.00458143-.01382862.00919097-.01843816.01380051-2.64789975-2.6893294-7.91607011-7.03190972-11.84415721-3.93269664,2.29791198-2.78604542,4.8122756-5.11619607,7.46936632-6.72796114h.00460954c3.24194018-1.97097191,7.1009685.84731218,8.5515683,1.90646646,4.51293656,3.29722656,14.63942171,12.96320741,20.04576585,23.08969256l.00919097-.00460954s.05986781.11973562.17038434.34998777c.52037211.99928647,1.0499633,2.12752764,1.46900985,3.12681411Z" fill="url(#p)"/><path d="M78.58991952,79.72162471c-2.3347602,2.67091934-7.29898198,6.32732464-11.30998459,7.77792444,1.45518123-3.20972962,2.85513231-7.11018758,2.85513231-14.3539394,0-1.82357906.01841005-4.20898798-.07830597-5.2497322,1.22956673-.81971115,2.42686668-1.67163287,3.57812744-2.50975408,1.85584584-1.3216451,5.11161464-4.42543962,5.4615743-4.84912381.51118114,5.36488639.7782534,11.37446193-.50654349,19.18462505Z" fill="url(#q)"/><path d="M42.85018721,73.43112018c.15655572.10132556.31774909.20723256.47891436.30855812-.1887944-.11051654-.36839782-.23025215-.54339171-.34537823-.11051654-.07369643-.22103307-.15197429-.32696817-.22564261.1289547.08749694.25788129.17957532.39144552.26246272Z" fill="url(#r)"/><path d="M47.38614337,75.78431854c-.01380051.00460954-.02301959.00460954-.03684821.00460954-.02762913-.01382862-.05525827-.0230477-.07827786-.03684821.01382862,0,.02301959,0,.03223867-.00460954.02762913.01382862.05525827.02762913.0828874.03684821Z" fill="url(#s)"/><path d="M36.42614655,61.35671082c-.03684821.60786905-.05064873,1.21112857-.01841005,1.81438808.01841005.32696817.04603919.65390824.10129746.97626688.03684821.2118421.07369643.42365609.11512608.63549819.01382862.07827786.03223867.15658383.05067683.23486169v.00460954c.13353613.65390824.31313955,1.30320694.55719222,1.92490462.44209425,1.11441255,1.0729829,2.14593769,1.82360716,3.08077492.33154961.40982747.68614692.80127299,1.05915428,1.17428035.17499388.17038434.3545692.34537823.54339171.52037211.07366832.06447735.14275521.12892659.21642353.19801348.1289547.11051654.26249083.22564261.4006365.34076869.09671602.0828874.19804158.16119337.30394858.24866221.14275521.11512608.2947295.22567072.44667568.34079679.01843816.01841005.04145775.03223867.05986781.04603919.12434516.09210648.24408077.18421296.37300736.27170991.1059351.07366832.21645164.15194618.32696817.22564261.17499388.11512608.35459731.23486169.54339171.34537823.47433292.29931093.98087642.58482135,1.51965858.87035988.74601472.39602696,1.56572588.77364386,2.45449581,1.13743214-.00921908.00460954-.01841005.00460954-.03223867.00460954.02301959.01380051.05064873.02301959.07827786.03684821h-.01380051c-3.03931716.40982747-5.79315202.45589476-8.25222926.11051654-3.42154361-.47894246-6.27667591-1.68085195-8.53773968-3.60575657-2.80448358-2.39001846-4.30573211-6.04642376-4.46228783-10.8633089-.32696817-10.01135908,5.03791821-25.11589463,12.99541797-34.74963681,3.9280871-3.09921308,9.19625746,1.24336724,11.84415721,3.93269664-.7321861.59406854-1.41833302,1.23414816-2.07226937,1.91110411-.68614692.70916651-1.33083608,1.45518123-1.93870513,2.22882509-.63549819.80127299-1.22956673,1.63020323-1.79597803,2.47751541-.58023992.87035988-1.12824117,1.76373935-1.64400374,2.67552888-.52498165.92100861-1.02230606,1.86045538-1.49202945,2.81370266-.46972338.94863774-.91178953,1.91568554-1.33086418,2.89195241-.40985558.95785682-.79666345,1.92951416-1.16045173,2.91039058-.34998777.94863774-.68156548,1.91110411-.98548596,2.87354236-.29011996.92100861-.56182987,1.84662676-.80588253,2.78143588-.23025215.87035988-.43748471,1.7453293-.61708813,2.62488016-.1657748.80127299-.30853001,1.60715552-.42826563,2.41303806-.10129746.71380416-.17957532,1.42758021-.22564261,2.14135626Z" fill="url(#t)"/><path d="M90.45251489,43.78387893c-.43287517,1.08678341-.89337947,2.15515677-1.39534153,3.19129146-2.500535,5.12541515-5.93587912,9.61533212-9.99292092,13.47894187,0,.00460954-.00921908.0230477-.03223867.04606729-.34998777.42365609-3.60575657,3.5274506-5.46160241,4.84909571-1.15126076.83812121-2.34856071,1.69007103-3.57809933,2.50975408-.10132556.07369643-.20723256.14275521-.31313955.2118421-5.34186679,3.04853625-11.7244497,5.28658042-15.1321928,6.23060862-2.54196465.70919462-4.92279214,1.19732806-7.16083631,1.50124853-.01380051-.00460954-.02301959-.00921908-.03684821-.01380051-.02762913-.01382862-.05525827-.0230477-.07827786-.03684821.01382862,0,.02301959,0,.03223867-.00460954.00460954.00460954.01382862,0,.01841005,0-.89337947-.36378828-1.71767206-.74601472-2.47290586-1.13743214-.53878217-.28553853-1.04532566-.57104895-1.51965858-.87035988-.1887944-.11051654-.36839782-.23025215-.54339171-.34537823-.11051654-.07369643-.22103307-.15197429-.32696817-.22564261-.12892659-.08749694-.24866221-.17960342-.37300736-.27170991-.01841005-.01380051-.04142965-.02762913-.05986781-.04603919-.15194618-.11512608-.30392047-.22567072-.44667568-.34079679-.105907-.08746884-.20723256-.1657748-.30394858-.24866221-.13814567-.11512608-.2716818-.23025215-.4006365-.34076869-.07366832-.06908689-.14275521-.13353613-.21642353-.19801348-.1888225-.17499388-.36839782-.34998777-.54339171-.52037211-.37300736-.37300736-.72760467-.76445288-1.05915428-1.17428035-.75062426-.93483723-1.38151291-1.96636237-1.82360716-3.08077492-.24405267-.62169767-.42365609-1.27099638-.55719222-1.92490462v-.00460954c0-.00460954.00458143-.00460954.00458143-.00460954.76906243.39602696,2.67091934.83812121,5.95431728.58943089,3.93272475-.31313955,8.26605788-1.45057169,12.24021228-2.91497201,0,0,3.41232453-1.34008327,5.0839574-2.11833666.15658383-.06444924.29933904-.13353613.43748471-.21181399.73682375-.34998777,1.48283848-.71838559,2.19661453-1.10522157.11973562-.06447735.23947123-.12892659.36839782-.19801348.44670379-.24866221.88876993-.50196206,1.31703556-.75062426,1.21112857-.69997554,2.32095968-1.54728772,3.45378228-2.34856071.26249083-.18421296.52498165-.36842593.78747248-.55261079.75984334-.53420073,1.51504904-1.06837336,2.25187279-1.63478466,1.07295479-.81971115,2.10908948-1.68546149,3.10379451-2.59264148.98548596-.89798901,1.93870513-1.83740768,2.85971374-2.79065496.00921908-.00921908.01382862-.01382862.0230477-.02301959.08749694-.10132556.17499388-.21645164.26249083-.31774909,1.90185692-2.19200499,3.57809933-4.60504304,4.95042127-7.2299232,1.98477243-3.83139918,4.84448617-9.28839205,5.52605165-13.40988309,2.35777979,2.37618984,4.52673707,9.46335783,2.95642976,16.38014147Z" fill="url(#u)"/><path d="M47.38614337,75.78431854c-.01841005.00460954-.03223867.00460954-.05064873.00460954-1.77293033-.72299513-3.25115926-1.52426812-4.48530743-2.3578079,1.24794868.82893023,2.74458766,1.62559369,4.53595615,2.35319836Z" fill="url(#v)"/></svg>