<?xml version="1.0" encoding="UTF-8"?><svg id="a" xmlns="http://www.w3.org/2000/svg" viewBox="0 0 286 80"><path d="M128.8231735603,28.9830187576c-.3857336994-1.6931868766-1.2164216247-3.1855041297-2.4707230456-4.4432067294-1.4906500085-1.5369327173-3.5254886386-2.583828916-6.047962955-3.1116118511-2.3501479196-.4962386683-5.9876753921-.7377223691-11.1190539825-.7377223691-6.6503050666,0-11.15960137.613812754-13.7866452648,1.8765837773-2.731613473,1.3095205604-4.2686795698,3.7793766389-4.4436735579,7.1417420705l-.0837623663,1.6172939046h8.692079434l.3105076253-1.1295915285c.1541867761-.560594308.4332168242-.8850400977.9331234305-1.0848426847.6540933824-.263758088,2.6547868441-.7035772007,8.7470318144-.7035772007,3.601248231,0,6.170672154.1583215426,7.6362468045.470629792,1.2206897707.2600234602,2.1057965582.7159148104,2.6313120408,1.3550029918.0842958845.1051030965.1536532579.2060047368.2070050835.3016378842.3227785452.5603275488.6903726238,1.5992876635.7522607416,3.5203535254-.659428565-.2939685593-1.3802117294-.5182462964-2.1596819021-.6716994849-2.0417743674-.3991383456-6.0170188962-.593005542-12.1535458818-.593005542-8.0278492047,0-10.516711871.6606956708-11.6909855534,1.1576012369-1.8518418681.8059460161-3.187238064,2.008229407-3.9827137844,3.5794406723-.7474590773,1.4884492457-1.1097179734,3.4385918526-1.1097179734,5.9666681107,0,2.0672498642.2320804416,3.6759407869.7095792811,4.9180379777.5212473365,1.3440658675,1.4511696575,2.5003333088,2.7646916049,3.4407259256,1.3225917577.979472829,3.0944058874,1.5971535905,5.4162773394,1.8881877993,2.1079306312.2634246391,5.7705334617.3970042726,10.886973541.3970042726,4.6752204812,0,7.8459194793-.2550884164,9.6945602378-.7798036216.5687304614-.1615226521,1.1118520464-.3753300934,1.6277642004-.6402885975l-.0336116502,1.3220582395h8.5811076366v-17.3908278462c0-3.2559952293-.1317790093-5.58747001-.4028062836-7.1276705265-.0288099858-.1780617181-.0666897821-.365059867-.1056366148-.5391201981ZM120.4533391532,43.4621040295c0,1.5058552788-.6156800679,1.9548108916-1.2185556977,2.1953609355-.8685677215.3454530711-3.1013416247.7581961322-8.7966490122.7581961322-8.8323947354,0-10.5273822361-.4705631022-10.8368228249-.614746411-.4780323578-.2279456751-1.0387600453-.6907727625-1.0387600453-2.2140340745,0-1.2382291834.2902339315-2.0368393235.8632325389-2.3737561025.1147064251-.0654226762.6770346674-.322511786,2.4013656723-.4833675403,1.4004854232-.1249766516,3.9821802661-.1885987037,7.6671908633-.1885987037,6.0383596264,0,8.4968117521.4454210543,9.4955579282.819150593,1.0408941183.3860004585,1.4634405774.99447803,1.4634405774,2.1017951713Z" fill="#fff"/><polygon points="135.9600472768 7.1449788758 135.9600472768 7.6194805944 135.9600472768 52.5313808707 135.9600472768 54.0687804165 137.4976468918 54.0687804165 142.9971530793 54.0687804165 144.5347526943 54.0687804165 144.5347526943 52.5313808707 144.5347526943 7.6194805944 144.5347526943 7.1449788758 135.9600472768 7.1449788758" fill="#fff"/><path d="M191.780995412,28.7023881547c-.8936430795-2.3945633145-2.5560859666-4.3256993335-4.9345103538-5.722716888-1.5322644325-.8838396816-3.3697013077-1.470909833-5.627550569-1.8011576338-2.1351400623-.3067063077-5.1447165469-.4554912114-9.2042569602-.4554912114-4.8278067026,0-8.1713656157.2999039499-10.2222097935.9167177441-.6562274554.2003361053-1.2697734503.4537572771-1.8379703935.7589964096v-1.4334968653h-8.5741718993v53.1583564828h8.5741718993v-21.6210253079c.603409148.3104409355,1.2553684574.5655960416,1.9532103368.7639314534,2.04710955.586603323,5.1943337447.8721689697,9.6188006454.8721689697,5.9679352166,0,10.1011011492-.3608584107,12.6358463856-1.1033157543,2.7294794-.7977431729,4.92650758-2.4629870309,6.5281293858-4.9493154855,1.5445353524-2.396230559,2.2951955392-5.8781040802,2.2951955392-10.6443561139,0-3.3134151316-.3323818738-6.044295017-.9880758109-8.116813374-.0666897821-.2051377696-.1360471554-.4148104444-.2166084121-.6224824257ZM184.102067147,37.5663938468c0,2.3045321087-.20807212,4.0876168115-.6183476592,5.2997036004-.3638594509,1.0572998047-.9005788169,1.8171631814-1.6389680838,2.3160027512-.4236134956.2802304642-1.3140554656.6734334192-3.0864031135.9109157331-1.5610744184.2142742697-4.0349985735.3226451656-7.3561497198.3226451656-5.8703013757,0-8.1996420833-.6088110204-9.1204945939-1.1195213714l-.0117374016-.0065355986-.0117374016-.0063355293c-.8360231078-.4446874667-1.4223596717-1.1762743759-1.7931548599-2.2365752208-.4396190433-1.2562354246-.6620961562-3.2441911379-.6620961562-5.9087146901,0-2.2407766771.2070050835-3.979445985.6156800679-5.1677912115.1765945429-.5031744056.3894683272-.934190467.6476911633-1.3093204911.2784965299-.4095419516.5964734107-.7332541537.9774054458-.99754576.4054738749-.2728945882,1.2964493632-.6622962256,3.1376208661-.8989782621,1.6715126974-.214807788,4.3300341693-.3237122021,7.9019388962-.3237122021,5.4472213983,0,7.662389199.6056099108,8.5619009794,1.1137193603l.0138714747.0078027045.0138714747.0076026352c.5105769714.2743617634.913383255.631885685,1.2318936541,1.0929788381.2240776677.321911578.4081414662.6902392443.5495238041,1.0991809878.4305492329,1.2283590957.6476911633,3.1796354288.6476911633,5.8044785608Z" fill="#fff"/><path d="M238.5998900062,29.3670185227c-.3948035098-1.7707470931-1.1972149675-3.3088135367-2.3826925333-4.565115651l-.0117374016-.0124709892-.0117374016-.0122042301c-1.4095552335-1.4282950623-3.3424918766-2.4322430413-5.7459916219-2.9841009879-2.2663855534-.518979884-5.4034729013-.7712006397-9.5915912143-.7712006397-4.9857281065,0-8.5400267309.3569237136-10.8656328107,1.0910448344-.8136153411.2594232522-1.5578733088.5883372573-2.2301063119.985008081V7.1449788758h-8.5747054176v46.9238015406h8.5747054176v-15.4711624697c0-3.2452581744.1563208491-4.6762208279.2875663402-5.3051721625.1605889952-.7549283329.5073758619-1.4226931206,1.0585002208-2.0353054585.0298770224-.0334782706.0517512709-.0594872856.0746925559-.0822951911l.0128044382-.0130045075.0170725842-.0180729309c.7223837192-.7638647637,1.8593111237-1.3479338749,3.3798381546-1.7360684065,1.7568756185-.4430202222,4.343905644-.6681649264,7.6847969658-.6681649264,2.9578252137,0,5.1815293066.1657907982,6.6108247156.4927707996,1.1806759015.2744284532,2.009763272.6972416714,2.4589856439,1.2554351472.1035025417.1308453524.1942006453.2612238763.2603569091.3746631956l.0128044382.0220743179.0138714747.0216741792c.31210818.4961052887.5249819643,1.0768399109.6503587546,1.7753486881.1856643532,1.0203536654.2795635664,3.0099766233.2795635664,5.9161172559v15.4711624697h8.5800406001v-16.9085273423c0-3.3080132593-.147784557-5.7083785848-.451356445-7.3370764422-.0266759128-.1622562397-.0586870082-.3123749392-.0912316219-.4561581093Z" fill="#fff"/><path d="M283.6987217416,29.5296749011c-.0314775771-.1944007147-.0688238551-.3765305095-.1067036513-.5463226946-.3771974073-1.683583548-1.2084188508-3.179902188-2.4717900821-4.4498757076-1.4858483442-1.5295301514-3.5244216021-2.5787604925-6.047962955-3.1054763912-2.3432121823-.4959719091-5.9796726182-.7375222998-11.1126517635-.7375222998-6.6481709935,0-11.1590678518.6136126847-13.7909134108,1.8759835692-2.7332140278,1.3135886371-4.2697466063,3.7832446462-4.4447405944,7.1423422786l-.0837623663,1.6172939046h8.6974146165l.3105076253-1.1296582182c.1547202944-.5622615525.4321497877-.8866406524.9272547297-1.0847759949.6546269007-.263758088,2.6558538806-.7035772007,8.7529005152-.7035772007,3.601248231,0,6.170672154.1583215426,7.6362468045.470629792,1.2201562525.2600234602,2.1057965582.7159148104,2.6313120408,1.3550029918.0709579281.0886307204.1408488197.1925334008.2016699009.3016378842.3227785451.5601941693.6898391056,1.598820835.7517272233,3.5191531093-.6583615284-.2929682126-1.3791446929-.5169125007-2.1591483838-.6704990688-2.0423078857-.3991383456-6.0148848232-.593005542-12.1482106992-.593005542-8.0278492047,0-10.516711871.6606956708-11.6909855534,1.1576012369-1.8603781602.8097473337-3.1968413926,2.0135645896-3.9853813756,3.5841756468-.7485261138,1.4910501472-1.1129190829,3.4411927541-1.1129190829,5.9619331362,0,2.0576465355.2342145146,3.6663374583.7154479819,4.9179712879.5127110444,1.3388640645,1.4410328107,2.4973322686,2.7593564223,3.4409259949,1.323125276.9798729677,3.0970734787,1.5974203496,5.4221460402,1.8880544198,2.1015284121.2634246391,5.7646647609.3970042726,10.8864400227.3970042726,4.6773545542,0,7.8469865158-.2552217959,9.6902920918-.7801370705.5687304614-.1615226521,1.1113185282-.3746631956,1.6261636456-.6384212836l-.0330781319,1.3205243745h8.5864428192v-17.3908278462c0-3.2585961308-.1328460459-5.5878034589-.4070744297-7.1201345811ZM275.2221836832,43.4621040295c0,1.5077225927-.6130124767,1.9558779281-1.2132205152,2.1953609355-.8685677215.3454530711-3.1013416247.7581961322-8.7966490122.7581961322-8.8323947354,0-10.5273822361-.4704964124-10.8368228249-.614746411-.4780323578-.2279456751-1.0387600453-.6907727625-1.0387600453-2.2140340745,0-1.8692479012.6455570903-2.2489795203.8578973564-2.3737561025.1499186301-.0846293334.7303864931-.3275802095,2.4061673366-.4833008506,1.3962172771-.1250433414,3.975778047-.1886653934,7.662389199-.1886653934,6.0372925899,0,8.4994793434.4457545033,9.5019601473.8196841112,1.0355589358.3840664549,1.4570383584.9925440263,1.4570383584,2.101261653Z" fill="#fff"/><path d="M168.8626800437,70.6592570321c.1815797353.2072853002.3850365471.4178521619.612558143.631700585.2264277422.2138484232.4823895376.4047259159.7678853865.5731794053.284401995.1684534893.6016196048.3046382908.9516528294.4080074774.3500332246.1039161136.7317882102.1558741703,1.1474526644.1558741703.8553936926,0,1.522644527-.1947059812,2.0017525032-.5835710166.4791079762-.3883181085.7186619643-.9133679454.7186619643-1.5740556569,0-.7126457682-.2712757491-1.2469933626-.8160149548-1.6035897102-.543645352-.3565963476-1.3279385458-.6448268309-2.3517857278-.8652383771-.5578654517-.1164954326-1.0632259197-.2783857989-1.516081404-.4856710991-.4539493381-.2072853002-.8455490082-.4665286572-1.1758928639-.7777300709s-.5863056512-.6705323959-.7678853865-1.0785398733c-.1815797353-.4085544043-.2723696029-.8718015-.2723696029-1.3902882139,0-.4791079762.0907898676-.9325103874.2723696029-1.3602072337s.4528554843-.8034356358.8160149548-1.1277632955c.3631594705-.3237807328.8171088087-.5830240897,1.3607541606-.777183144.5447392058-.1947059812,1.1726113024-.2915120449,1.8858039975-.2915120449.6344352196,0,1.1824559868.0678189373,1.6418745941.2040037387.4605124611.1361848014.8521121311.3013567293,1.1758928639.4955157836s.5841179435.3954281584.7777300709.6027134586c.1947059812.2072853002.3434701016.3757387895.4473862152.505360468l-1.2437118011,1.1469057375c-.0776636217-.0907898676-.1947059812-.2105668617-.3500332246-.359877909-.1553272434-.1487641205-.3533147861-.2942466794-.5928687742-.4369946038s-.5184867139-.2625249184-.8357043237-.359877909c-.3183114636-.0973529906-.6836586418-.145482559-1.0982292422-.145482559-.4156644542,0-.7711669479.0552396183-1.0697890427.1651719279-.2975282409.1099323096-.5436453519.252680234-.7383513331.4276968463-.1947059812.1744696854-.3369069787.3724572281-.4276968463.5923218473-.0907898676.220958473-.1356378745.4408230922-.1356378745.6612346383,0,.3237807328.0678189373.5994318971.2034568118.8258596393.1367317284.2269746691.3336254172.4276968463.5928687742.6027134586s.5797425282.3243276597.9625913676.4468392883c.3817549856.1236054824.8192965163.2433824765,1.3115307384.359877909.48020183.1164954326.9494651217.2690880414,1.4099775828.4566839727.4594186073.1881428582.8707076462.4408230922,1.2338671167.758040702.3631594705.3177645367.650843027.7066295722.8652383771,1.1665951064.2133014962.4599655342.3204991713,1.0200186936.3204991713,1.6812533319,0,.5573185248-.1159485056,1.0692421158-.3500332246,1.535223846-.2329908651.4665286572-.5534900364.8718015-.9614975138,1.2152716017s-.8914908689.6092765816-1.4482624668.7968725129c-.5578654517.1875959313-1.1605789103.2816673604-1.8081403758.2816673604-.6092765816,0-1.162766618-.0711004987-1.661563963-.2138484232-.4987973451-.1422009975-.9527466832-.3237807328-1.3607541606-.5441922789-.4080074774-.2198646192-.764603825-.4632470957-1.0686951888-.7290535756-.3051852177-.265259553-.5545838902-.5277844715-.7492898714-.7870278284l1.3224692767-1.2048799903Z" fill="#fff"/><path d="M188.1056418959,74.1382591284c-.7000664492,0-1.3410647917-.126340117-1.9240888815-.379020351s-1.0851029963-.5994318971-1.5062367196-1.0402549894c-.4211337234-.4402761653-.7514775791-.9489181948-.9910315671-1.5259260885-.2406478419-.5764609668-.359877909-1.1950353059-.359877909-1.8562699442,0-.6606877114.1192300671-1.2792620505.359877909-1.8562699442.2395539881-.5764609668.5698978438-1.0851029963.9910315671-1.5259260885.4211337233-.4402761653.9232126299-.7870278284,1.5062367196-1.0397080624s1.2240224323-.379020351,1.9240888815-.379020351c.6869402033,0,1.3224692767.126340117,1.9054933664.379020351s1.0883845577.5994318971,1.516081404,1.0397080624c.4276968463.4408230922.7613222635.9494651217,1.0008762516,1.5259260885.2395539881.5770078937.359877909,1.1955822328.359877909,1.8562699442,0,.6612346383-.120323921,1.2798089774-.359877909,1.8562699442-.2395539881.5770078937-.5731794053,1.0856499232-1.0008762516,1.5259260885-.4276968463.4408230922-.9330573143.7875747553-1.516081404,1.0402549894s-1.2185531631.379020351-1.9054933664.379020351ZM188.1056418959,72.6216307975c.4670755841,0,.8882093074-.0935245022,1.26340117-.2816673604.3762857164-.1875959313.6935033262-.4337130424.9527466832-.7383513331s.4572308996-.6546715154.5928687742-1.0500996738c.1356378745-.3948812315.2045506656-.7996071474.2045506656-1.2147246747,0-.4014443545-.0689127911-.8001540744-.2045506656-1.1955822328-.1356378745-.3948812315-.3369069787-.7481960176-.6027134586-1.0588505044-.2658064799-.3112014137-.5830240897-.5606000863-.9527466832-.7487429445-.3686287397-.1875959313-.7864809015-.2816673604-1.2535564856-.2816673604-.4659817302,0-.8871154536.0940714291-1.26340117.2816673604-.3762857164.1881428582-.6935033262.4342599693-.9527466832.7388982601s-.4561370458.6541245885-.5928687742,1.0495527469c-.1356378745.3954281584-.2034568118.8001540744-.2034568118,1.2147246747,0,.4151175273.0678189373.8165618818.2034568118,1.2054269172.1367317284.3883181085.3369069787.7383513331.6027134586,1.0495527469.2658064799.3106544868.5830240897.5606000863.9527466832.7481960176.3697225935.1881428582.7875747553.2816673604,1.2535564856.2816673604Z" fill="#fff"/><path d="M201.3817457927,66.2335713866h-1.6331237635v-1.4575602243h1.6331237635v-.73889826c0-.6087296547.0875083062-1.137061053.2625249184-1.5839003413.1750166123-.4473862152.4080074774-.8132803203.6989725954-1.0982292422.2920589718-.2849489219.625684389-.4955157836,1.0008762516-.631700585.3762857164-.1361848014.7711669479-.2040037387,1.1857375483-.2040037387.48020183,0,.9494651217.0743820602,1.4099775828.2231461807.4594186073.1493110474.8838338921.4052728429,1.2732458545.7678853865l-.8750830615,1.1277632955c-.4791079762-.4019912814-.9910315671-.6027134586-1.5357707729-.6027134586-.505360468,0-.910086384.1618903664-1.2141777478.4856710991-.3051852177.3243276597-.4572308996.8816461845-.4572308996,1.6719555744v.5830240897h2.5847765929v1.4575602243h-2.5847765929v7.9046877418h-1.7490722692v-7.9046877418Z" fill="#fff"/><path d="M214.3272575959,66.2980148863h-1.6331237635v-1.4575602243h1.6331237635v-2.9544991864h1.7490722692v2.9544991864h2.6438446995v1.4575602243h-2.6438446995v4.4514381484c0,.7257720141.1126669442,1.2245693592.3401885402,1.4969389621.2264277422.271822676.5469269134.4080074774.9614975138.4080074774.3369069787,0,.6158397045-.0514111299.8367981776-.1553272434.2198646192-.1039161136.4397292384-.259243357.6606877114-.4665286572l.796325586,1.0686951889c-.3751918626.3631594705-.7613222635.625684389-1.156203495.7875747553-.3959750853.1618903664-.8652383771.2428355496-1.408883729.2428355496-.9593098062,0-1.6626578168-.259243357-2.1089501782-.7777300709-.4473862152-.517939787-.6705323959-1.3279385458-.6705323959-2.4294493495v-4.6264547607Z" fill="#fff"/><path d="M226.0538571896,65.099744957h1.9251827353l2.021441872,6.9005768668,2.1767691155-6.9005768668h1.4963920352l2.1778629693,6.9585511196,1.9820631343-6.9585511196h1.8081403758l-2.9938779241,9.0385141714h-1.7293829003l-2.1001993476-6.3170058502-2.0794161249,6.3170058502h-1.6331237635l-3.051852177-9.0385141714Z" fill="#fff"/><path d="M252.3730741179,72.7971943367c-.3369069787.4534024112-.7810116324.7903093899-1.3312201073,1.010720936-.5513023287.2198646192-1.1179186111.3303438557-1.7009427008.3303438557-.3762857164,0-.7481960176-.0486764953-1.1179186111-.1460294859-.3697225935-.0968060637-.7066295722-.2586964301-1.010720936-.4856710991-.3051852177-.2264277422-.5513023287-.517939787-.7383513331-.8745361346-.1881428582-.3565963476-.2822142873-.7935909514-.2822142873-1.3120776653,0-.9718891252.3401885402-1.7496191961,1.0205656205-2.3326432858s1.661563963-.8745361346,2.9446545019-.8745361346c.2067383733,0,.4276968463.006563123.6606877114.019142442.2329908651.0131262459.4539493382.0262524918.6606877114.0388318109.2078322271.0131262459.3894119624.0262524918.5447392058.0388318109.1553272434.0131262459.2658064799.0262524919.3303438557.0388318109v-.3303438557c0-.6732670304-.2045506656-1.156203495-.612558143-1.4482624668-.4080074774-.2915120449-.9614975138-.4369946038-1.661563963-.4369946038-.6869402033,0-1.2316794091.0940714291-1.6331237635.2816673604-.4014443545.1881428582-.7383513331.379020351-1.010720936.5737263322l-.8160149548-1.1857375483c.1553272434-.1296216785.3434701016-.259243357.5633347208-.3888650355.220958473-.1296216785.4791079762-.2493986725.7777300709-.359877909.2975282409-.1099323096.6344352196-.2007221772,1.010720936-.271822676s.8094518319-.107197675,1.3027799078-.107197675c1.1660481794,0,2.0826976864.2822142873,2.7499485207.8455490082.6672508344.5638816478,1.0008762516,1.3640357221,1.0008762516,2.40100915v5.2576084188c0,.3177645367.006563123.8389858852.0196893689,1.0593974313h-1.6586286788l-.0127799687-1.3410647917ZM252.353384749,69.6091573583c-.0514111299-.012579319-.1520456819-.0289871264-.3008098024-.0486764953-.1498579743-.019142442-.3215930251-.0355502494-.5152051525-.0481295684-.1947059812-.0131262459-.4025382083-.0262524919-.6224028275-.0393787378-.220958473-.012579319-.4342599693-.019142442-.6409983425-.019142442-.4933280759,0-.8914908689.0585211797-1.1955822328.1750166123-.3051852177.1164954326-.5447392058.2625249184-.7197558181.4369946038-.1750166123.1750166123-.2942466794.3697225935-.3587840552.5835710166-.0656312296.2138484232-.0973529906.4178521619-.0973529906.6120112161,0,.492781149.1684534893.865238377.505360468,1.1179186111s.8028887089.379020351,1.3990390446.379020351c.3369069787,0,.6574061499-.0585211797.9625913676-.1750166123.3040913639-.1164954326.5731794053-.2723696029.8061702704-.4665286572.2329908651-.1947059812.4211337233-.4211337233.5644285747-.6803770803.1422009975-.259243357.2133014962-.5250498369.2133014962-.7968725129v-1.0304103049Z" fill="#fff"/><path d="M262.5485896474,66.5777044687v-.9817338096c0-.2783857989-.006563123-.5666162823-.0196893689-.8646914501h1.6714086475l.0579742528,1.4575602243c.1039161136-.1553272434.2406478419-.3270622942.4091013313-.5146582255.1673596355-.1881428582.3719103011-.359877909.6114642892-.5152051525.2395539881-.1558741703.5184867139-.2882304834.8367981776-.3987097199.3172176098-.1099323096.682564788-.1651719279,1.0982292422-.1651719279.1936121274,0,.3719103011.0131262459.5338006675.0388318109.1618903664.0262524918.3139360483.0650843027.4572308996.1164954326l-.3894119624,1.6331237635c-.2329908651-.0907898676-.530519106-.1361848014-.8936785766-.1361848014-.3762857164,0-.7230373796.0716474257-1.0402549894.2138484232-.3172176098.1427479244-.5928687742.3401885402-.8258596393.5928687742s-.4178521619.5474738403-.5534900364.884380819c-.1367317284.3369069787-.2045506656.6935033262-.2045506656,1.0692421158l-.0196893689,5.1305583833h-1.7490722692l.0196893689-7.5605546597Z" fill="#fff"/><path d="M283.7511740308,72.5238979c-.1039161135.1170423595-.259243357.2658064799-.4659817302.4473862152-.2078322271.1815797353-.4769202685.3565963476-.8072641242.52450291-.3303438557.1684534893-.7186619642.3144829752-1.1660481794.4375415307s-.9560282447.1848612967-1.5259260885.1848612967c-.7000664492,0-1.3410647917-.1170423595-1.9240888815-.3500332246-.5830240897-.233537792-1.0818214348-.5638816478-1.4963920352-.9915784941-.4156644542-.4276968463-.7361636255-.9390735104-.9625913676-1.535223846s-.3401885402-1.2568380471-.3401885402-1.9826100612c0-.6612346383.1104792365-1.2798089774.3303438557-1.8568168711.2198646192-.5759140398.5316129598-1.0752583118.9330573143-1.4963920352s.878364623-.7547591405,1.4285730979-1.0008762516c.5513023287-.246117111,1.156203495-.3697225935,1.8179850603-.3697225935.7766362171,0,1.4438870515.1493110474,2.0017525032.4473862152.5567715979.2980751678,1.0140024975.6935033262,1.3705988451,1.1857375483.3555024937.4922342221.6180274122,1.0561158698.7864809015,1.6910980163s.252680234,1.2956698579.252680234,1.9826100612h-7.133020805c.0131262459.4014443545.0995406982.7711669479.2625249184,1.1080739266.1618903664.3369069787.3784734241.6284190235.650843027.8745361346s.5830240897.4408230922.9330573143.5830240897c.3500332246.1427479244.7197558181.2138484232,1.1080739266.2138484232.764603825,0,1.3924759216-.1296216785,1.8858039975-.3888650355.4922342221-.259243357.8477367158-.511923591,1.0686951888-.758040702l.9910315671,1.0495527469ZM282.1771183739,68.5395353356c-.0525049837-.7000664492-.2986220947-1.2956698579-.7383513331-1.7884510069-.4408230922-.4922342221-1.0632259197-.73889826-1.8661146286-.73889826-.4156644542,0-.7875747553.0716474257-1.1179186111.2138484232-.3303438557.1427479244-.6125581431.3308907826-.8455490082.5638816478s-.4145706004.5020789065-.5447392058.8067171973c-.1290747516.3046382908-.2001752503.619121266-.2133014962.9429019988h5.325974283Z" fill="#fff"/><path d="M71.1672623347,17.7634040571c.6966057152,1.0007719581,1.3481647586,2.0531352633,1.9385001486,3.1315446856l.1000484093-.0535948947c-1.685890359-4.8801407344-4.9317394972-9.5333797186-9.1589092267-13.1242376602l-.8163153791-.6701866266-.8397097832-.6356254328c-.5846112272-.4322653653-1.1704668377-.8374828398-1.7391499599-1.2021284781-.5664432325-.3651465252-1.1789286434-.7493267514-1.8220258811-1.0889280465l-.0714275957-.0370656281c-.5973039359-.3115516306-1.2152646328-.6336218854-1.8389494926-.9081078879-2.3981753026-1.1305016564-5.0753413185-1.9855155364-7.9633058484-2.5430026182-4.7674809149-.9201291726-9.7410316876-.8339766317-14.3835765291.2474381118l-.0009955066.0005008869-.0012443832-.0050088687-.3551469652.0806427854-.0012443832-.0060106424c-.7971518778.1883334616-1.5957970154.4037148139-2.3819983209.6421369621-4.7500595501,1.4415524001-9.1613979931,3.7060619207-12.7576654404,6.5480939979l-1.0101902815.8044243066c-.4544487445.3606385434-.8621086808.6882185537-1.257324785,1.0478553235-1.5057036717,1.2797659424-2.9688494379,2.7739114633-4.6114352616,4.7073347657-1.5532391099,1.8422618928-2.8157903043,3.5913588285-3.8588323024,5.3474681803-1.2294506013,2.0461228472-2.2147532189,3.970530186-3.0133983565,5.8839180137-.8424474262,1.9850146495-1.5492570837,4.0957519024-2.1017632244,6.2756115428-.5204010541,2.050630829-.9036710796,4.2480215097-1.1388595044,6.5310638444-.1923816427,1.8678071229-.2366816846,3.7937171223-.1353888921,5.8874242217.4464846921,9.2133130113,3.763014796,17.6898214428,9.3385981607,23.8692627074,5.8107717895,6.4404033217,13.5097706463,10.4645284023,21.6783997227,11.3305617934,7.5063683374.7944065693,15.4114370521-1.1365122987,21.7254374076-5.3053936836l-.1045281888-.2228946553c-7.2338484167,3.6219129273-15.8151149621,4.425836347-23.5882790576,2.2013977756-.6709714213-.1918396696-1.3491602652-.4112281169-2.0159007836-.6511529257-7.82393493-2.8179895075-14.3537113323-8.7079181636-18.3862595294-16.5833623561l-.0938264933-.2058645019c-.3670930439-.806928741-.7466299198-1.6414062595-1.0594678563-2.4939157053-.6946147021-1.8287379474-1.2451298296-3.7175823187-1.6353684011-5.6104337849-.3763014796-1.8978603349-.6114899043-3.8518199988-.6998411115-5.8097867575-.09258211-1.8963576743-.0278741837-3.8643421704.1921327661-5.8493568199.8282614577-7.7146595085,3.9822751158-15.2820582785,8.8806651433-21.3062246146,1.3302456405-1.6313885222,2.6398345199-3.0223513488,4.0039273835-4.2515277177,1.5913172358-1.4470621556,3.0880613485-2.6311587066,4.5746015189-3.6199093799,1.5970413985-1.0809138566,3.3020952588-2.0501299421,5.0658840061-2.8800994789,1.6766819233-.7888968138,3.4778021666-1.4675985171,5.3548297851-2.0185740695l-.0012443832-.0175310403.1341445089-.0195345878.2722710441-.0771365773-.0009955065-.0160283797.1241894434-.0160283797v.0010017737c4.1875983438-1.1254927877,8.4341804512-1.4555772323,12.6197877818-.9792338228l.0002488767-.0005008869c.0219011443.0015026606.0423090288.0040070949.0612236534.007513303l.307611527.0390691755c.2100518841.026046117.4193571383.0520922341.6035258519.0831472198,9.3995729375,1.725555253,16.9604452592,6.4078456754,21.8685414756,13.5409755326Z" fill="#fff"/><path d="M65.7638390323,64.223719666c-.0805966853.6408619317-.176535082,1.2970655748-.2839739067,1.9686343517-1.6578183058,1.8458538157-4.9082233659,4.3325929856-7.8823136637,5.7064373847.1957180769-.4796919835.3875948703-.9939320958.5717890968-1.5426969142.7406650343-2.2257661191,1.3201132756-5.1192831541,1.3201132756-9.4019628772v-.6370440707c.0038412835-1.2356753068.0038412835-2.6171788504-.0422072732-3.4614414259.8135557303-.5487648185,1.6923664345-1.1666258943,2.7323236644-1.9226092176,1.1243951987-.8020553023,2.7860547879-2.3063628044,3.7953285951-3.2772471994.3031569015,3.5957692347.42596086,7.613658046-.2110597883,12.5679299685Z" fill="#fff"/><path d="M37.9186797093,62.8230097051c1.8190116764-.2609496283,5.9596810237-.8903111321,7.8899728082-1.4275755227,3.1199185347-.8672634314,8.2622025446-2.7323236644,12.4873332832-5.14228401.0614136905-.0422072732.1381456699-.0920971132.2110597883-.1419869533.8979936991-.5986546585,1.8381946713-1.262564291,2.9817728648-2.0914617327,1.4275755227-1.0169563741,3.8106703065-3.2772471994,4.3555938415-3.8452184352l.5487882409-.5564473854c.1496460978-.1458048143.299315618-.2916330511.4451438548-.4413025714,3.0968942564-3.1122359678,5.5759508593-6.5622003882,7.3872565464-10.269249731.3799123034-.7866901685.7521654623-1.630952744,1.1320777656-2.5826541441.1957180769-.8749694207.3146807519-1.7460741356.3760710199-2.6057018449.2724734787-3.9910232495-.7943727354-7.6827308809-2.0300480422-9.6283643768-.0920971132.368388453-.2034006438.7483241788-.3262046023,1.1320777656-.9440188332,2.9702490144-2.6555682625,6.2743617756-3.9795228216,8.830150358l-.1074388246.2072419273c-1.1243951987,2.1566932842-2.5366055875,4.2174481716-4.1906060323,6.1208743943,0,.003817861-.003817861.0076591445-.0076591445.0115004279-.0307068452.0383894122-.0652315515.0805966853-.0997796802.1228039585-.0383659897.0460485566-.0767554019.0959383967-.1151213916.1419869533l-.0345481287.0345481287c-.85192172.8826285652-1.6386118885,1.6501357389-2.413801629,2.356229222-.840421292.7636893126-1.7230498572,1.5004896411-2.6248848398,2.1912414129-.6139963699.4720094166-1.2471991572.9210179774-1.8919023724,1.3738443991l-.6331793648.4451438548-.0230242783.0153651338c-.2072419273.1458048143-.4144604321.2954743346-.6217023593.4451438548-.7291177615.5257405401-1.4889423682,1.0706640752-2.2986802375,1.5388556308-.3568880251.2072185048-.7291177615.4221195765-1.1052122039.6293615038l-.3146807519.1688525151c-.5257405402.2839739067-1.1243951987.5871308082-1.8343299653.9248358384-.1304865254.0729141184-.2647909118.1381456699-.4106191486.1957180769-1.3700031157.6408619317-4.1253510584,1.7230498572-4.2443137334,1.7690984139-2.5941779945.9555426836-6.4892628473,2.1566932842-10.3536642773,2.4636914691-2.0530723205.1573520872-4.6223201686-.2897158635-5.4589001772-.4854339404l-.0901851204-.4509257483c-.0153417114-.0652315515-.0268655618-.1304631029-.0383659897-.1918767934-.0345481287-.1726703761-.0652315515-.3530467416-.0959383967-.5333996846-.0460485566-.2532904839-.0729141184-.5219226792-.0920971132-.8749694207-.0268655618-.4796919835-.0230242783-.9785669619.0153417114-1.573380337v-.0038412835c.0383894122-.5794716637.0997796802-1.1781263222.1918767934-1.8266708209.1036209636-.6869104883.2225836386-1.3700031157.364570592-2.0454131761.1458282368-.7137760501.3185220354-1.4621002289.5180579732-2.2142422687.1918767934-.7368237509.4144604321-1.5004896411.6792513439-2.3409109331.2494492004-.7866901685.5257405402-1.6002458988.8288974417-2.421484196.3108394684-.8288974417.6370440707-1.6539770223.9785903844-2.4521910412.368388453-.8596042869.7483007563-1.6770013006,1.1205539152-2.4368259074.3990952982-.8058731633.8250561582-1.6079284657,1.2586995851-2.3715943559.4374847104-.7751897406.9056528435-1.5350143473,1.3891861105-2.2603142478.5180813957-.7751897406,1.0169563741-1.4621002289,1.5235139194-2.1029621606.5334231071-.6754100604,1.08984707-1.3124307087,1.6501357389-1.8957436558.4413259938-.4566677052,0,0,2.0324642035-2.0977041631,1.4563337604,1.2805557903,2.0937231593,1.7463482758,3.5237298744,3.0569951636.8717495837.798992035,1.7177435653,1.6262088763,2.5348289471,2.4810395346.9408596574.9843226891,1.843546873,2.0054957048,2.6987891529,3.065148482.9256094469,1.1468383217,1.7959663587,2.3390722245,2.5926684457,3.5791580576.828132938,1.2890087036,1.5770227111,2.6303523506,2.2164668236,4.0230682598.6501434216,1.4160191155,1.18685124,2.885960989,1.5701837441,4.3968792685.003841819.0192085282.0115243859.0383915231.0153422469.0575745179.4106191486-.295497757.8058965858-.5833129472,1.1973327396-.8826285652.8787872817-.6715687769,1.7345502852-1.3891861105,2.5519472989-2.1336690058.6792513439-.6178610759,1.3700031157-1.2894298528,2.1068034441-2.0415718926-.0076591445-.0191829948-.0191829948-.0422072732-.0268655618-.0614136905-.3108394684-.7176173336-.6830692049-1.4889657907-1.0361159465-2.1720349955-.0268655618-.057572407-.0498898401-.1036209636-.0690728349-.1419869533l-.0805966853-.1419869533c-4.6088843254-8.6344557035-13.1358777818-16.5704770684-16.5436115066-19.0572162383-1.1320777656-.8250561582-4.1330336253-3.016297571-6.523810976-1.5656977701l-.1343278089.0805732629c-1.4851245072.9210179774-2.958725164,2.1413515728-4.3978011146,3.6495003583l-1.6002458988,1.807487826.003817861-.0038412835-.003817861.0038412835c-6.3587997444,7.732620721-10.9446597914,19.9897112211-10.6645271682,28.5474349452.1266452419,3.8528775796,1.3124307087,6.765554187,3.5266963998,8.6536386984,1.7959639756,1.5273317804,4.0946442131,2.4982395978,6.8384917279,2.8819931846,1.4390759506.2033772213,3.0393218494.23792535,4.773895557.1112801081" fill="#fff"/></svg>