<?xml version="1.0" encoding="UTF-8"?><svg id="a" xmlns="http://www.w3.org/2000/svg" width="342" height="96" viewBox="0 0 342 96"><path d="M153.98784424,34.77962802c-.46289062-2.03186035-1.4597168-3.82263184-2.96490479-5.33184814-1.78875732-1.84436035-4.23059082-3.10058594-7.25756836-3.73394775-2.82012939-.59552002-7.18518066-.88525391-13.34283447-.88525391-7.98034668,0-13.39154053.73657227-16.54394531,2.25189209-3.2779541,1.57141113-5.12243652,4.53521729-5.3324585,8.57006836l-.1005249,1.94073486h10.43054199l.37261963-1.35546875c.18499756-.67272949.51983643-1.06207275,1.11975098-1.30181885.78491211-.31652832,3.18572998-.84429932,10.49639893-.84429932,4.3215332,0,7.40484619.19000244,9.16351318.5647583,1.46484375.31201172,2.52697754.85906982,3.15759277,1.62597656.10113525.12615967.18438721.24725342.24835205.36199951.38739014.67236328.82849121,1.91912842.902771,4.22442627-.7913208-.3527832-1.65631104-.62188721-2.5916748-.80603027-2.45007324-.47900391-7.22039795-.71160889-14.58422852-.71160889-9.63342285,0-12.62005615.79284668-14.0291748,1.38909912-2.222229.96716309-3.82470703,2.40985107-4.77923584,4.29534912-.89697266,1.78613281-1.33166504,4.12628174-1.33166504,7.15997314,0,2.48071289.27844238,4.41113281.85144043,5.90167236.62554932,1.612854,1.74145508,3.00036621,3.31768799,4.12884521,1.58709717,1.175354,3.71325684,1.91662598,6.49951172,2.26580811,2.52947998.31616211,6.92462158.47644043,13.06433105.47644043,5.61029053,0,9.41516113-.30609131,11.63348389-.93579102.68249512-.19378662,1.33422852-.45037842,1.95330811-.76831055l-.0402832,1.58642578h10.29730225v-20.86895752c0-3.90722656-.15814209-6.70495605-.4833374-8.55322266-.03460693-.21368408-.08007812-.43804932-.12677002-.64691162ZM142.48174072,54.7889664c-1.04223633.41448975-3.72161865.90979004-10.55596924.90979004-10.59887695,0-12.63287354-.56463623-13.00421143-.7376709-.5736084-.27355957-1.24645996-.82891846-1.24645996-2.65686035,0-1.48583984.3482666-2.44421387,1.03582764-2.84851074.13769531-.07849121.8125-.38702393,2.88165283-.58001709,1.68060303-.14996338,4.77862549-.22631836,9.20062256-.22631836,7.24603271,0,10.19616699.53448486,11.39471436.98297119,1.24902344.4631958,1.75610352,1.19335938,1.75610352,2.52215576,0,1.80700684-.73883057,2.34576416-1.46228027,2.63446045Z" fill="#fff"/><polygon points="162.55205322 9.14333652 162.55205322 63.03762363 162.55205322 64.8825333 164.39720703 64.8825333 170.99657227 64.8825333 172.84172607 64.8825333 172.84172607 63.03762363 172.84172607 9.14333652 172.84172607 8.57393955 162.55205322 8.57393955 162.55205322 9.14333652" fill="#fff"/><path d="M229.53722168,34.44283603c-1.0723877-2.87347412-3.06732178-5.1907959-5.92144775-6.86724854-1.83868408-1.06060791-4.04364014-1.76507568-6.75305176-2.16137695-2.56213379-.36804199-6.17364502-.54656982-11.04510498-.54656982-5.79333496,0-9.80560303.35986328-12.2666626,1.10003662-.78747559.24041748-1.52368164.54449463-2.20556641.9107666v-1.72015381h-10.28900146v63.79003906h10.28900146v-25.94525146c.72412109.37249756,1.50646973.67871094,2.34387207.91668701,2.45654297.70391846,6.23321533,1.04663086,11.5425415,1.04663086,7.16156006,0,12.12133789-.43304443,15.1630249-1.32397461,3.27539062-.95727539,5.9118042-2.95556641,7.83374023-5.93920898,1.85345459-2.87542725,2.75427246-7.05371094,2.75427246-12.77319336,0-3.97613525-.39886475-7.25317383-1.18572998-9.74017334-.08001709-.24615479-.16320801-.49780273-.2598877-.74700928ZM219.58049561,51.43929599c-.43664551,1.26873779-1.08068848,2.18060303-1.96679688,2.77923584-.50830078.33624268-1.57684326.80810547-3.70367432,1.09307861-1.87329102.25714111-4.84197998.387146-8.82739258.387146-7.04431152,0-9.83953857-.73052979-10.94458008-1.34338379l-.01409912-.00787354-.01403809-.00756836c-1.00323486-.53363037-1.70684814-1.41156006-2.15179443-2.68389893-.52758789-1.50750732-.79455566-3.89306641-.79455566-7.0904541,0-2.68896484.24841309-4.77532959.73883057-6.20135498.21191406-.6038208.46734619-1.12103271.77722168-1.57122803.33422852-.49139404.71575928-.87988281,1.1729126-1.19702148.48657227-.32745361,1.5557251-.79473877,3.76513672-1.07879639,2.00579834-.25775146,5.19604492-.38842773,9.4822998-.38842773,6.53668213,0,9.19488525.72674561,10.27429199,1.33642578l.0166626.00939941.0166626.00909424c.6126709.32928467,1.09606934.75830078,1.47827148,1.31158447.26885986.3862915.48974609.82830811.65942383,1.31903076.5166626,1.47406006.77722168,3.81555176.77722168,6.96539307,0,2.76544189-.24969482,4.90509033-.74200439,6.35961914Z" fill="#fff"/><path d="M274.61461426,36.58529209c.12420654.15698242.23303223.31347656.31237793.44958496l.01538086.02648926.0166626.02600098c.37451172.59533691.63000488,1.29223633.78045654,2.13043213.22277832,1.22442627.33544922,3.61193848.33544922,7.0993042v18.56542969h10.29602051v-20.29022217c0-3.96966553-.17730713-6.85009766-.54162598-8.80450439-.03198242-.19470215-.07037354-.37487793-.10943604-.54742432-.47375488-2.12487793-1.43664551-3.97058105-2.85925293-5.47808838l-.01409912-.01501465-.01403809-.01464844c-1.69146729-1.71392822-4.01104736-2.91864014-6.89520264-3.58087158-2.71966553-.62280273-6.48419189-.92547607-11.50994873-.92547607-5.98284912,0-10.24798584.42834473-13.03875732,1.30926514-.97631836.3112793-1.8694458.70599365-2.67608643,1.18200684V8.57393955h-10.28967285v56.30859375h10.28967285v-18.56542969c0-3.89428711.18756104-5.6114502.34503174-6.36621094.19274902-.90588379.60888672-1.70721436,1.27020264-2.44232178.03588867-.04022217.06213379-.07141113.08966064-.09875488l.01538086-.015625.02044678-.02166748c.86688232-.91662598,2.23120117-1.61755371,4.05584717-2.08331299,2.10821533-.53161621,5.21264648-.80175781,9.22174072-.80175781,3.54937744,0,6.21783447.19891357,7.9329834.59130859,1.41680908.32928467,2.41174316.83666992,2.95080566,1.50653076Z" fill="#fff"/><path d="M339.83849121,35.43557285c-.03778076-.23327637-.08258057-.45184326-.12805176-.65557861-.45263672-2.02026367-1.45013428-3.81585693-2.96612549-5.33984375-1.78302002-1.83544922-4.22930908-3.09448242-7.25756836-3.7265625-2.81188965-.59515381-7.17559814-.88500977-13.33520508-.88500977-7.9777832,0-13.39086914.73632812-16.54907227,2.25115967-3.27984619,1.57629395-5.12371826,4.53991699-5.3336792,8.57080078l-.1005249,1.94073486h10.43688965l.37261963-1.35559082c.18566895-.67468262.51855469-1.06396484,1.1126709-1.30169678.7855835-.31652832,3.18707275-.84429932,10.503479-.84429932,4.3215332,0,7.40484619.19000244,9.16351318.5647583,1.46417236.31201172,2.52697754.85906982,3.15759277,1.62597656.08514404.10638428.16900635.2310791.24200439.36199951.3873291.67224121.82781982,1.9185791.90203857,4.22296143-.79003906-.3515625-1.65496826-.62030029-2.59094238-.80456543-2.45080566-.47900391-7.21789551-.71160889-14.57788086-.71160889-9.63342285,0-12.62005615.79284668-14.0291748,1.38909912-2.23242188.97167969-3.83618164,2.41625977-4.7824707,4.30102539-.89819336,1.78924561-1.33551025,4.12939453-1.33551025,7.15429688,0,2.46917725.28106689,4.39959717.85858154,5.90155029.61523438,1.60668945,1.72924805,2.99682617,3.31121826,4.12915039,1.58776855,1.17584229,3.7164917,1.91687012,6.5065918,2.265625,2.52178955.31616211,6.9175415.47644043,13.0637207.47644043,5.61279297,0,9.41638184-.30627441,11.62835693-.93615723.68243408-.19384766,1.33355713-.44958496,1.95135498-.76611328l-.03967285,1.58459473h10.30371094v-20.86895752c0-3.91033936-.15942383-6.7053833-.48846436-8.54418945ZM328.21074463,54.7889664c-1.04223633.41448975-3.72155762.90979004-10.55596924.90979004-10.59887695,0-12.6328125-.5645752-13.00415039-.7376709-.57366943-.27355957-1.246521-.82891846-1.246521-2.65686035,0-2.24310303.7746582-2.69873047,1.02947998-2.84851074.17987061-.1015625.87646484-.39306641,2.88739014-.57995605,1.67547607-.15002441,4.77093506-.22637939,9.19488525-.22637939,7.24475098,0,10.19934082.53491211,11.40234375.98364258,1.24267578.46087646,1.74841309,1.19104004,1.74841309,2.52148438,0,1.80926514-.7355957,2.3470459-1.45587158,2.63446045Z" fill="#fff"/><path d="M210.31523682,80.95363925c-.43579102-.38067627-.92932129-.68389893-1.48059082-.90966797-.5526123-.22509766-1.11572266-.40820312-1.6920166-.54803467-.59063721-.13977051-1.11572266-.2835083-1.5737915-.43182373-.45941162-.14703369-.84405518-.32617188-1.15515137-.53619385s-.54736328-.45092773-.71142578-.7232666c-.16278076-.27172852-.24414062-.60247803-.24414062-.99102783,0-.26452637.05383301-.52832031.16278076-.79351807.10894775-.26379395.27954102-.50140381.51324463-.71075439.23364258-.21002197.52893066-.38134766.88598633-.51324463.3583374-.13189697.78497314-.19818115,1.28375244-.19818115.49749756,0,.93591309.05773926,1.31787109.17456055.38067627.11682129.71539307.26055908,1.00286865.43182373.28747559.17132568.52502441.34588623.71142578.52441406.18640137.17919922.32684326.32293701.42004395.43188477l1.49243164-1.37628174c-.12469482-.15557861-.30322266-.35772705-.53686523-.60644531-.2322998-.2487793-.54473877-.49029541-.93322754-.7232666-.3885498-.23297119-.85845947-.43121338-1.41107178-.59460449-.55133057-.16345215-1.20898438-.24481201-1.97027588-.24481201-.85583496,0-1.60925293.1161499-2.26293945.34979248-.65240479.23297119-1.19714355.54406738-1.63293457.93261719-.43579102.38922119-.7612915.84008789-.97918701,1.35333252s-.32684326,1.05731201-.32684326,1.63226318c0,.62219238.10894775,1.17803955.32684326,1.66833496.21789551.48962402.52502441.92077637.92144775,1.29425049.39642334.37341309.86633301.68450928,1.41107178.93328857.543396.24871826,1.14984131.44299316,1.8192749.58276367,1.2286377.26452637,2.1697998.6104126,2.82214355,1.03833008.65368652.42791748.97924805,1.0690918.97924805,1.92425537,0,.79284668-.28747559,1.4229126-.86242676,1.88891602-.57489014.46661377-1.37561035.70025635-2.40209961.70025635-.4987793,0-.95690918-.06231689-1.37695312-.18701172-.42004395-.12408447-.80065918-.28747559-1.14196777-.48962402-.34259033-.20214844-.64971924-.43121338-.92144775-.68780518-.27301025-.25665283-.51721191-.50933838-.73510742-.75805664l-1.58691406,1.44586182c.23364258.31109619.53289795.62609863.89910889.94439697.3649292.31896973.79284668.61102295,1.2824707.87487793.48956299.26452637,1.03430176.48242188,1.63287354.65301514.59857178.17132568,1.26275635.25665283,1.99389648.25665283.77703857,0,1.50030518-.11291504,2.16973877-.3380127.66815186-.22509766,1.24835205-.54406738,1.73791504-.95623779.48962402-.41217041.87420654-.89849854,1.15380859-1.45831299.28088379-.5592041.42004395-1.17352295.42004395-1.84228516,0-.79345703-.12866211-1.46557617-.38458252-2.01751709-.25726318-.55194092-.60247803-1.01861572-1.03833008-1.39990234Z" fill="#fff"/><path d="M229.23265625,79.14547275c-.51324463-.52832031-1.11962891-.94439697-1.8192749-1.24761963s-1.46228027-.45483398-2.28662109-.45483398c-.84002686,0-1.60925293.15161133-2.30889893.45483398-.69958496.30322266-1.30212402.71929932-1.80749512,1.24761963-.50531006.5289917-.9017334,1.1394043-1.18920898,1.83111572-.28875732.69244385-.43182373,1.43469238-.43182373,2.22753906,0,.79345703.14306641,1.5357666.43182373,2.22753906.28747559.69238281.68389893,1.30279541,1.18920898,1.83111572.50537109.5289917,1.10791016.94506836,1.80749512,1.24829102.699646.30322266,1.46887207.45483398,2.30889893.45483398.82434082,0,1.5869751-.15161133,2.28662109-.45483398s1.30603027-.71929932,1.8192749-1.24829102c.51324463-.52832031.91363525-1.13873291,1.2010498-1.83111572.28747559-.69177246.43188477-1.43408203.43188477-2.22753906,0-.79284668-.14440918-1.53509521-.43188477-2.22753906-.28741455-.69171143-.68780518-1.30212402-1.2010498-1.83111572ZM228.49760986,84.66183017c-.16278076.4744873-.40032959.89453125-.71142578,1.2600708-.31109619.36560059-.69177246.66094971-1.14331055.88604736-.45025635.22576904-.95562744.3380127-1.51611328.3380127-.55914307,0-1.06054688-.11224365-1.50427246-.3380127-.44366455-.22509766-.82427979-.52508545-1.14324951-.89782715-.31896973-.37347412-.5592041-.79351807-.7232666-1.25946045-.16278076-.4666748-.24414062-.94836426-.24414062-1.4465332,0-.49749756.08135986-.9831543.24414062-1.4576416.1640625-.47454834.40032959-.8939209.71142578-1.25946045.31109619-.36560059.69177246-.66094971,1.14331055-.88671875.45153809-.22509766.95690918-.3380127,1.51605225-.3380127.56048584,0,1.06195068.11291504,1.50427246.3380127.44366455.22576904.82434082.52508545,1.14331055.89849854.31896973.37280273.56048584.79675293.7232666,1.27062988.16278076.4744873.2454834.95294189.2454834,1.43469238,0,.49816895-.08270264.98382568-.2454834,1.45770264Z" fill="#fff"/><path d="M244.8358667,72.62313388c-.49749756,0-.97137451.08135986-1.4229126.24481201-.45019531.16339111-.85058594.41607666-1.2010498.75799561-.34918213.34197998-.62872314.78100586-.83874512,1.31787109-.21002197.53625488-.31506348,1.17022705-.31506348,1.9006958v.88671875h-1.9597168v1.74902344h1.9597168v9.48565674h2.09887695v-9.48565674h3.10174561v-1.74902344h-3.10174561v-.699646c0-.94836426.18249512-1.6171875.54870605-2.00634766.3649292-.3885498.85058594-.58282471,1.45703125-.58282471.65368652,0,1.26794434.24084473,1.84289551.7232666l1.05010986-1.35333252c-.46728516-.43511963-.97662354-.74224854-1.52789307-.92144775-.5526123-.17852783-1.11572266-.26776123-1.69195557-.26776123Z" fill="#fff"/><path d="M261.25780273,86.9988663c-.26513672.12469482-.59985352.18640137-1.00415039.18640137-.49749756,0-.88208008-.16345215-1.15380859-.48962402-.27301025-.32684326-.40820312-.92541504-.40820312-1.79632568v-5.34173584h3.17260742v-1.74902344h-3.17260742v-3.54541016h-2.09893799v3.54541016h-1.9597168v1.74902344h1.9597168v5.55175781c0,1.32183838.26782227,2.29382324.8046875,2.91534424.53552246.62219238,1.3795166.93328857,2.53070068.93328857.65240479,0,1.21551514-.09716797,1.69067383-.29138184.47387695-.1942749.93719482-.50933838,1.38745117-.94512939l-.95562744-1.28240967c-.26513672.24871826-.52893066.43511963-.79278564.55981445Z" fill="#fff"/><polygon points="282.4218042 86.46993564 279.80840088 78.11965488 278.01274658 78.11965488 275.40056396 86.40035556 272.97484375 78.11965488 270.66466309 78.11965488 274.32689453 88.96590732 276.28661133 88.96590732 278.78191162 81.38546298 281.30217529 88.96590732 283.37743164 88.96590732 286.97008301 78.11965488 284.8002832 78.11965488 282.4218042 86.46993564" fill="#fff"/><path d="M304.2297876,86.5165665v-5.13110352c0-1.24432373-.40039062-2.20452881-1.2010498-2.88116455-.80072021-.67602539-1.9006958-1.01470947-3.29998779-1.01470947-.59197998,0-1.11175537.04333496-1.56329346.12866211s-.85583496.1942749-1.21289062.32617188c-.3583374.13256836-.66809082.27630615-.93328857.43188477-.26379395.15551758-.48956299.31109619-.67596436.46661377l.97918701,1.4229126c.32684326-.23364258.73114014-.46270752,1.21289062-.68847656.48175049-.22509766,1.13543701-.3380127,1.9597168-.3380127.84008789,0,1.50427246.17456055,1.99389648.52441406.48962402.35046387.73504639.92999268.73504639,1.73791504v.39642334c-.07739258-.01513672-.21002197-.03088379-.3963623-.04663086-.18640137-.01507568-.40429688-.03082275-.65368652-.04656982-.24810791-.01513672-.51324463-.03088379-.79284668-.04663086-.27960205-.01507568-.54473877-.02294922-.79284668-.02294922-1.53967285,0-2.71710205.34979248-3.53356934,1.04943848s-1.22467041,1.63287354-1.22467041,2.7991333c0,.62219238.112854,1.14660645.33862305,1.57452393.2244873.42791748.51983643.77770996.88604736,1.04943848.3649292.2723999.76922607.46661377,1.21289062.58282471.44366455.11682129.88995361.17523193,1.3414917.17523193.699646,0,1.37957764-.13256836,2.0411377-.39642334.66021729-.26446533,1.19317627-.66876221,1.59747314-1.21289062l.01531982,1.60931396h1.99035645c-.01574707-.26452637-.02362061-.88995361-.02362061-1.27130127v-1.17803955ZM302.22405029,84.76748203c0,.32617188-.08526611.6451416-.25592041.95623779-.17199707.31109619-.39776611.58282471-.67730713.81646729-.27960205.23297119-.60253906.42004395-.96740723.55981445-.36621094.13977051-.75085449.21002197-1.15515137.21002197-.71533203,0-1.27453613-.15161133-1.67883301-.45483398s-.60644531-.75018311-.60644531-1.3414917c0-.23297119.03808594-.4777832.11682129-.73443604.07745361-.2565918.22052002-.49023438.43054199-.70025635.21002197-.20935059.49749756-.38458252.8637085-.52441406.3649292-.13977051.8427124-.21002197,1.43469238-.21002197.24810791,0,.50408936.00787354.76922607.02301025.26385498.01574707.51324463.03149414.74688721.04724121.2322998.01507568.43841553.03479004.6182251.05773926.17852783.02362061.29931641.04333496.36096191.05841064v1.23651123Z" fill="#fff"/><path d="M320.05669189,77.51412509c-.49884033,0-.93725586.06628418-1.31787109.19818115-.38201904.13256836-.71673584.29138184-1.00421143.47845459-.28741455.18640137-.53289795.39245605-.73370361.6182251-.20214844.22515869-.36627197.43121338-.4909668.61761475l-.06958008-1.74908447h-2.00567627c.01574707.35766602.02362061.70355225.02362061,1.03765869v1.17803955l-.02362061,9.07269287h2.09887695l.02362061-6.15667725c0-.4508667.0814209-.87878418.2454834-1.28308105.16278076-.40429688.38458252-.75805664.66418457-1.0612793s.61035156-.54016113.99102783-.71142578c.38067627-.1706543.79675293-.25665283,1.24829102-.25665283.43579102,0,.79284668.05450439,1.07244873.16345215l.46728516-1.95977783c-.17193604-.06164551-.35443115-.10827637-.54864502-.13977051-.1942749-.03082275-.40826416-.04656982-.64056396-.04656982Z" fill="#fff"/><path d="M339.87779785,81.43099521c-.20214844-.76202393-.51715088-1.43865967-.94378662-2.02935791-.42791748-.59063721-.9765625-1.06518555-1.64471436-1.42285156-.66943359-.35772705-1.47015381-.53686523-2.40209961-.53686523-.79412842,0-1.52001953.14831543-2.18157959.44366455-.66027832.29534912-1.23254395.69567871-1.71429443,1.2010498s-.85583496,1.10455322-1.11968994,1.7956543c-.26379395.69244385-.3963623,1.43469238-.3963623,2.22821045,0,.87091064.13647461,1.66375732.40820312,2.37908936.27172852.71539307.65631104,1.32904053,1.15509033,1.84228516.49749756.51324463,1.09606934.90966797,1.79571533,1.18988037.69958496.27960205,1.46881104.42004395,2.30889893.42004395.68383789,0,1.29425049-.07415771,1.83111572-.22180176.53686523-.14770508,1.00280762-.32293701,1.39923096-.52508545.39642334-.20147705.71929932-.41149902.96875-.62939453.24804688-.21789551.43444824-.39642334.55914307-.53686523l-1.18920898-1.25946045c-.26519775.29534912-.69177246.59857178-1.2824707.90966797-.59197998.31109619-1.34539795.46661377-2.26293945.46661377-.46600342,0-.90966797-.08532715-1.32971191-.2565918-.42004395-.1706543-.79278564-.40429688-1.11962891-.699646s-.58679199-.6451416-.78106689-1.04943848c-.19555664-.40429688-.29925537-.84796143-.31500244-1.32971191h8.55963135c0-.82427979-.10107422-1.61712646-.30322266-2.37908936ZM331.62138916,82.24740146c.01574707-.38848877.10107422-.76586914.25598145-1.13146973.15618896-.36553955.37408447-.68847656.65368652-.96801758.27954102-.27960205.6182251-.50537109,1.01464844-.67669678.39642334-.1706543.8427124-.2565918,1.3414917-.2565918.96343994,0,1.71032715.29595947,2.23931885.88665771.52770996.59136963.82305908,1.30609131.88604736,2.14611816h-6.39117432Z" fill="#fff"/><path d="M36.5959375,91.79745029c-.80517578-.23022461-1.61901855-.49346924-2.41912842-.78137207-9.38867188-3.3815918-17.22442627-10.44952393-22.06347656-19.90002441l-.11260986-.24707031c-.44049072-.96826172-.89593506-1.96966553-1.2713623-2.99267578-.83355713-2.19445801-1.49414062-4.46112061-1.96246338-6.73254395-.45153809-2.27740479-.73376465-4.62213135-.83978271-6.97174072-.11108398-2.27563477-.03344727-4.63720703.23059082-7.01922607.99389648-9.25756836,4.77868652-18.33843994,10.65673828-25.56744385,1.59631348-1.95770264,3.16784668-3.62683105,4.80474854-5.10186768,1.9095459-1.7364502,3.70568848-3.15734863,5.48950195-4.34387207,1.91644287-1.29705811,3.96252441-2.46014404,6.07910156-3.45611572,2.01196289-.94665527,4.17333984-1.7611084,6.42578125-2.42230225l-.00152588-.02099609.16101074-.0234375.32672119-.09259033-.0012207-.01922607.14904785-.01922607v.00115967c5.02508545-1.35058594,10.12103271-1.74664307,15.14373779-1.17504883l.00030518-.00061035c.02624512.00183105.05078125.00482178.07348633.0090332l.36907959.046875c.2520752.03125.50323486.0625.72424316.09979248,11.27947998,2.07061768,20.35253906,7.68939209,26.24224854,16.24914551.8359375,1.20092773,1.61779785,2.46374512,2.32623291,3.75787354l.12005615-.06433105c-2.02307129-5.85614014-5.91809082-11.44006348-10.99072266-15.74908447l-.97955322-.80419922-1.00762939-.76275635c-.70153809-.51873779-1.40460205-1.00500488-2.08703613-1.44256592-.6796875-.43817139-1.41467285-.89916992-2.18640137-1.30670166l-.08569336-.04449463c-.71679688-.37384033-1.45831299-.76037598-2.20678711-1.08972168-2.87780762-1.35662842-6.09039307-2.38262939-9.55596924-3.05163574-5.72094727-1.10412598-11.68920898-1.00073242-17.26025391.29693604l-.0012207.00061035-.00146484-.00598145-.4262085.09674072-.00146484-.00720215c-.956604.22601318-1.91497803.48443604-2.85839844.77056885-5.70007324,1.7298584-10.99371338,4.44726562-15.3092041,7.85772705l-1.21221924.965271c-.54534912.43280029-1.0345459.8258667-1.50878906,1.25744629-1.80688477,1.53570557-3.56262207,3.32867432-5.53375244,5.64880371-1.8638916,2.21069336-3.37890625,4.30963135-4.6305542,6.41693115-1.4753418,2.4553833-2.65771484,4.76464844-3.61608887,7.06072998-1.01092529,2.38201904-1.85913086,4.91491699-2.52215576,7.53070068-.62445068,2.46075439-1.08435059,5.09765625-1.36657715,7.83728027-.230896,2.24139404-.28405762,4.55249023-.16247559,7.06494141.5357666,11.05596924,4.515625,21.2277832,11.20629883,28.64312744,6.97290039,7.72845459,16.21173096,12.55743408,26.01409912,13.59667969,9.00762939.95324707,18.49371338-1.36383057,26.07049561-6.36651611l-.12542725-.26745605c-8.68060303,4.34631348-18.97814941,5.31097412-28.3059082,2.6416626Z" fill="#fff"/><path d="M74.01549316,65.91964267c-1.2479248.90716553-2.30249023,1.64862061-3.27880859,2.30712891.05529785,1.01312256.05529785,2.67089844.05065918,4.15374756v.7644043c0,5.13922119-.6953125,8.6114502-1.58410645,11.28234863-.22106934.65856934-.45129395,1.27563477-.68615723,1.85125732,3.56890869-1.64862061,7.46942139-4.63269043,9.45880127-6.84771729.12890625-.8059082.24401855-1.59332275.34075928-2.36236572.7644043-5.94512939.61706543-10.76660156.25323486-15.08154297-1.21112061,1.1651001-3.20507812,2.97027588-4.55438232,3.93273926Z" fill="#fff"/><path d="M87.45299316,30.26742099c-1.1328125,3.56427002-3.18664551,7.52923584-4.77539062,10.59613037l-.12896729.24871826c-1.34924316,2.5880127-3.04388428,5.06091309-5.02868652,7.34503174,0,.00457764-.00457764.00921631-.00921631.01379395-.03686523.04608154-.07824707.09674072-.11975098.1473999-.04602051.05523682-.09210205.1151123-.13812256.17034912l-.04144287.04150391c-1.02233887,1.05914307-1.96636963,1.98016357-2.89660645,2.82745361-1.00848389.91644287-2.06762695,1.80059814-3.14984131,2.62945557-.73681641.56646729-1.49664307,1.10522461-2.27026367,1.64862061l-.75982666.53417969-.02764893.01843262c-.24865723.17498779-.49731445.35461426-.74603271.53417969-.87493896.63092041-1.78674316,1.28479004-2.75842285,1.84661865-.42822266.24865723-.87493896.5065918-1.32623291.75524902l-.37762451.20263672c-.63085938.34075928-1.34924316.70452881-2.20117188,1.10980225-.15661621.08746338-.31774902.16577148-.49273682.23486328-1.64404297.76904297-4.95043945,2.06762695-5.09320068,2.1229248-3.11303711,1.14660645-7.78710938,2.5880127-12.42437744,2.9564209-1.82751465.14007568-3.19195557.06689453-4.18548584-.07592773-1.07763672-.28814697-1.86785889-.60229492-2.43304443-.87963867-.01080322-.04974365-.02539062-.09484863-.0357666-.14501953l-.00463867-.02307129c-.01837158-.07824707-.03222656-.15655518-.04602051-.23022461-.04144287-.20721436-.07830811-.42364502-.1151123-.64007568-.05529785-.30395508-.08752441-.62634277-.11053467-1.04998779-.03222656-.57562256-.02764893-1.17425537.01843262-1.88806152v-.00457764c.04602051-.69537354.11968994-1.41375732.23022461-2.1920166.12432861-.82427979.26708984-1.64398193.4375-2.45452881.17498779-.85650635.38220215-1.7545166.62164307-2.65704346.23028564-.88421631.49737549-1.80059814.81512451-2.80908203.29931641-.94403076.63085938-1.92034912.99468994-2.90582275.37298584-.99468994.7644043-1.98474121,1.17425537-2.94262695.44207764-1.03149414.89801025-2.01239014,1.34466553-2.92419434.47894287-.96704102.9901123-1.92950439,1.51049805-2.84588623.52496338-.93023682,1.08673096-1.84204102,1.66699219-2.71240234.6217041-.93023682,1.22033691-1.7545166,1.82824707-2.52355957.64007568-.81048584,1.30780029-1.57489014,1.98016357-2.27490234.4677124-.48394775.92852783-.91992188,1.39135742-1.33355713.46844482-.32324219.92950439-.62243652,1.38684082-.89733887,1.30718994,1.11499023,2.62237549,2.22094727,3.88922119,3.38208008,1.04608154.95880127,2.0612793,1.95141602,3.04174805,2.97723389,1.12908936,1.18121338,2.21228027,2.40661621,3.23858643,3.67816162,1.11071777,1.3762207,2.15515137,2.80688477,3.11120605,4.29498291.99377441,1.54681396,1.89239502,3.15643311,2.659729,4.82769775.7802124,1.69921875,1.42425537,3.4631958,1.88421631,5.27624512.00463867.02307129.01385498.04608154.01843262.0690918.49273682-.35455322.96710205-.69995117,1.43682861-1.05914307,1.05450439-.80584717,2.0814209-1.66699219,3.06231689-2.56036377.81506348-.74145508,1.64398193-1.54736328,2.52813721-2.44989014-.00915527-.02307129-.02301025-.05065918-.03222656-.07373047-.37298584-.86114502-.81970215-1.78674316-1.24334717-2.60644531-.03222656-.0690918-.05987549-.12432861-.08288574-.17034912l-.09667969-.17041016c-5.53070068-10.36132812-15.76306152-19.88458252-19.85235596-22.86865234-1.35852051-.99005127-4.95965576-3.61956787-7.82855225-1.87884521l-.16119385.09667969c-1.58129883.98065186-3.14996338,2.26025391-4.69018555,3.79675293-.01885986.00799561-.04217529.0234375-.06097412.03521729l-.00488281.00427246c-.10778809.11126709-.21295166.23040771-.32012939.34350586-.0668335.06884766-.13452148.12976074-.20123291.199646.00543213-.00061035.0111084-.00091553.01654053-.00152588-.63659668.68023682-1.26367188,1.38769531-1.8770752,2.12768555-.01757812.00970459-.03820801.0255127-.05517578.03820801l-.00457764.00463867c-.23455811.28521729-.46057129.59057617-.690979.88580322-.14068604.17785645-.2802124.35723877-.41949463.53778076-.13659668.18054199-.27471924.35705566-.409729.54089355-.13909912.18487549-.28094482.36517334-.41851807.5526123l.02734375.00219727c-6.61529541,9.26800537-11.19335938,22.35107422-10.88604736,31.73760986.15197754,4.62347412,1.57495117,8.11871338,4.23205566,10.38439941,2.15515137,1.83276367,4.91357422,2.99786377,8.20617676,3.45837402,1.36901855.19348145,2.86401367.2545166,4.46014404.19787598l.02722168.0246582c.20526123-.01269531.42120361-.04260254.62823486-.05792236.2052002-.01135254.40460205-.01586914.61309814-.03106689h.02301025c-.01470947-.00805664-.02935791-.015625-.04406738-.02349854.83752441-.07147217,1.6807251-.15667725,2.54156494-.27166748.01617432.00744629.03399658.01513672.04907227.01885986h.01843262l.09667969.00457764c.79699707-.11431885,1.61108398-.25915527,2.4317627-.41845703.00726318-.00134277.01422119-.00195312.02148438-.0032959.47662354-.08666992,1.00268555-.19329834,1.55126953-.30999756v-.01635742c.91888428-.20690918,1.84490967-.43328857,2.77874756-.6932373,3.74389648-1.04071045,9.91461182-3.27880859,14.98480225-6.17077637.07366943-.05065918.16577148-.11047363.25323486-.17034912,1.07763672-.71838379,2.20587158-1.51507568,3.578125-2.50976562,1.71313477-1.22033691,4.57281494-3.93267822,5.22674561-4.61425781l.6585083-.66772461c.17962646-.17498779.35919189-.34997559.53417969-.52960205,3.71630859-3.73468018,6.69116211-7.87463379,8.86474609-12.32305908.45587158-.94403076.90258789-1.95715332,1.35845947-3.09918213.23486328-1.04998779.37762451-2.09533691.45129395-3.12689209.32696533-4.78918457-.95324707-9.21923828-2.43603516-11.55401611-.11053467.44207764-.24407959.89801025-.39147949,1.35852051Z" fill="#fff"/></svg>