<svg xmlns="http://www.w3.org/2000/svg" xmlns:xlink="http://www.w3.org/1999/xlink" viewBox="0 0 342 96"><defs><linearGradient id="f" x1="67.8223" x2="74.4564" y1="25.3429" y2="85.5224" gradientUnits="userSpaceOnUse"><stop offset=".5611" stop-color="#fbb34c"/><stop offset=".7" stop-color="#f58d28"/><stop offset=".8578" stop-color="#e1592a"/><stop offset="1" stop-color="#cc3626"/></linearGradient><linearGradient id="g" x1="46.4685" x2="86.5231" y1="22.4745" y2="68.3574" gradientUnits="userSpaceOnUse"><stop offset="0" stop-color="#cc3626"/><stop offset=".1767" stop-color="#e1592a"/><stop offset=".4456" stop-color="#f58d28"/><stop offset=".6922" stop-color="#fbb34c"/></linearGradient><linearGradient id="a" x1="42.4587" x2="43.3291" y1="73.4542" y2="73.4542" gradientUnits="userSpaceOnUse"><stop offset=".1617" stop-color="#d54125"/><stop offset=".2998" stop-color="#e15d27"/><stop offset=".4592" stop-color="#ec782a"/><stop offset=".6018" stop-color="#f3882c"/><stop offset=".7123" stop-color="#f68e2d"/><stop offset="1" stop-color="#f68e2d"/></linearGradient><linearGradient xlink:href="#a" id="h" x1="47.271" x2="47.3861" y1="75.7682" y2="75.7682"/><linearGradient id="i" x1="33.1622" x2="51.8113" y1="72.0076" y2="28.4204" gradientUnits="userSpaceOnUse"><stop offset="0" stop-color="#cc3626"/><stop offset=".2789" stop-color="#e1592a"/><stop offset=".68" stop-color="#f58d28"/><stop offset="1" stop-color="#fbb34c"/></linearGradient><linearGradient id="j" x1="42.5585" x2="92.5691" y1="74.8486" y2="36.3973" gradientUnits="userSpaceOnUse"><stop offset="0" stop-color="#fbb34c"/><stop offset=".2767" stop-color="#f58d28"/><stop offset=".76" stop-color="#e1592a"/><stop offset="1" stop-color="#cc3626"/></linearGradient><linearGradient id="k" x1="42.8502" x2="48.0035" y1="74.61" y2="74.61" gradientUnits="userSpaceOnUse"><stop offset="0" stop-color="#f68e2d"/><stop offset=".1999" stop-color="#f4892c"/><stop offset=".4141" stop-color="#ee7c2b"/><stop offset=".6348" stop-color="#e56728"/><stop offset=".8587" stop-color="#d84925"/><stop offset=".9146" stop-color="#d54125"/></linearGradient><radialGradient id="b" cx="61.4718" cy="31.0849" r="49.5458" fx="61.4718" fy="31.0849" gradientTransform="matrix(-.44735632 .88133518 -.906831 -.46029772 118.7665 -8.7596)" gradientUnits="userSpaceOnUse"><stop offset=".1378" stop-color="#8cc6ea"/><stop offset=".3801" stop-color="#5eb4e4"/><stop offset=".5489" stop-color="#179bd7"/><stop offset=".8666" stop-color="#02518b"/><stop offset="1" stop-color="#00253d"/></radialGradient><radialGradient id="c" cx="54.5999" cy="35.948" r="83.4885" fx="54.5999" fy="35.948" gradientTransform="matrix(-.93033788 -.2182806 .2157227 -.93093803 120.5933 110.4555)" gradientUnits="userSpaceOnUse"><stop offset="0" stop-color="#cc3626"/><stop offset=".5" stop-color="#e1592a"/><stop offset=".866" stop-color="#f58d28"/><stop offset="1" stop-color="#fbb34c"/></radialGradient><radialGradient id="d" cx="67.9898" cy="28.3943" r="53.2562" fx="67.9898" fy="28.3943" gradientTransform="translate(2.321 .386) scale(.98837209)" gradientUnits="userSpaceOnUse"><stop offset="0" stop-color="#0082cb"/><stop offset=".8" stop-color="#002454"/></radialGradient><radialGradient id="e" cx="102.7087" cy="-53.3384" r="157.3105" fx="102.7087" fy="-53.3384" gradientTransform="translate(2.321 .386) scale(.98837209)" gradientUnits="userSpaceOnUse"><stop offset=".3619" stop-color="#179bd7"/><stop offset=".7668" stop-color="#02518b"/><stop offset=".8571" stop-color="#00253d"/></radialGradient></defs><path fill="url(#b)" d="M90.6229 48.481c-.0737 1.3815-.2072 2.7538-.4099 4.1307-.0368.281-.0828.5526-.1289.8336 0 .0092-.0046.023-.0046.0322-.0092.046-.0138.0967-.0184.1427-.046.2856-.1013.5665-.1566.8474-.9855 5.1714-2.8965 10.214-5.678 14.8328-.175.2901-.35.5849-.5434.875-.0184.0276-.0322.0506-.0507.0783-.1842.29-.373.5802-.5664.8749-2.5051 3.7439-5.5997 7.1655-9.27 10.0943-.6585.525-1.3124 1.0269-1.9847 1.492q-.0092.0046-.0138.0046c-.2994.2164-.5849.4237-.8888.617-.069.0461-.1197.0922-.1888.1382h-.0184c-.304.2073-.594.4053-.9026.5987h-.0184a41.2786 41.2786 0 0 1-5.7932 3.0485c-1.165.502-2.344.9395-3.532 1.317-.0047 0-.0093.0047-.0138.0093a34.6156 34.6156 0 0 1-1.8697.5526 39.987 39.987 0 0 1-2.473.5802s-.0091.0046-.0137.0046c-.106.0185-.2026.0369-.304.0507 0 0-.0092.0092-.0138.0092a49.7312 49.7312 0 0 1-.8105.1427c-.1197.0185-.2256.0369-.3453.0507h-.0138c-.2625.046-.5158.0921-.783.129h-.0045c-.129.0184-.2533.0322-.3822.046h-.0092c-.1796.023-.3546.046-.5296.0645h-.0046c-.4099.0506-.8151.092-1.2204.1197-.1013.0138-.198.0184-.2993.0276-3.9834.2948-7.939-.0368-11.7382-.9855-.2625-.0644-.525-.1289-.7875-.2026-.198-.0552-.3914-.1105-.5894-.1658-.0185-.0046-.0461-.0138-.0645-.0184-.2026-.0598-.4007-.115-.6033-.1888a.7095.7095 0 0 1-.0783-.023c-2.8413-.8888-5.572-2.1321-8.1233-3.7255a.0347.0347 0 0 1-.0184-.0092 24.2697 24.2697 0 0 1-.4467-.2855c-.0184-.0092-.0322-.023-.0506-.0369-.1428-.092-.2901-.1934-.4329-.29-2.2058-1.4553-4.2689-3.196-6.1477-5.19-.129-.1381-.2579-.2716-.3822-.4144-.2027-.2256-.4053-.4513-.6033-.6816a17.8967 17.8967 0 0 1-.3822-.4513c-.0369-.046-.0737-.0874-.1106-.1335a26.9183 26.9183 0 0 1-.4835-.5802 36.6816 36.6816 0 0 1-1.3769-1.8374c-9.1548-13.0277-9.1779-30.513-1.4091-44.517v-.0046s0-.0046.0046-.0092c.2164-.396.442-.7829.677-1.1697.0045 0 .0045-.0046.0045-.0092 2.694-4.536 6.226-8.6667 10.5502-12.1205.244-.1934.4881-.3868.7368-.571l.0046-.0046.0875-.0645a7.764 7.764 0 0 1 .3315-.2486c4.0295-3.0071 8.372-5.1715 12.8159-6.5254.175-.0598.3592-.1105.5388-.1658.1105-.0322.2256-.0644.3361-.0967h.0093c.1059-.0276.2072-.0552.3085-.0829l.0046-.0046a7.4271 7.4271 0 0 1 .3776-.092c.1243-.0277.244-.06.3776-.0968-.0086.0041-.0163.0095-.0249.0137 4.5338-1.1328 9.1526-1.437 13.619-.9209H58.3c.1335.0138.2671.0323.4006.0507l.5526.069c.129.0185.258.0369.3869.06h.0046c.8473.1289 1.69.2854 2.519.4788.3637.0783.7275.1658 1.0821.2625.571.1474 1.1375.3086 1.6993.479.3407.1059.6815.2164 1.0177.3361.0184 0 .0368.0092.0506.0184 6.2399 2.1506 11.8949 6.0326 16.2835 11.568.1566.1933.3177.3913.4697.594l.571.769c.0967.129.1888.2625.2763.3914 1.2388 1.7592 2.3071 3.6012 3.2143 5.503a38.45 38.45 0 0 1 2.0815 5.3557c.1796.5849.3408 1.1743.4928 1.7684.069.244.129.4835.1842.7276.0184.0736.0368.1473.0506.221l.1658.746c.106.5158.2072 1.0408.2947 1.5657.0691.4053.1428.8197.1888 1.225.1013.7276.1796 1.4552.2395 2.1874.1658 1.9157.2026 3.8544.0967 5.7885Z"/><path fill="#e1592a" d="M153.9878 34.7796c-.4629-2.0318-1.4597-3.8226-2.9649-5.3318-1.7887-1.8443-4.2305-3.1006-7.2575-3.734-2.8202-.5954-7.1852-.8852-13.3429-.8852-7.9803 0-13.3915.7365-16.544 2.2519-3.2779 1.5714-5.1224 4.5352-5.3324 8.57l-.1005 1.9408h10.4305l.3726-1.3555c.185-.6727.5199-1.062 1.1198-1.3018.7849-.3165 3.1857-.8443 10.4964-.8443 4.3215 0 7.4048.19 9.1635.5648 1.4648.312 2.527.859 3.1576 1.626.1011.126.1844.2472.2484.362.3873.6723.8284 1.919.9027 4.2244-.7913-.3528-1.6563-.622-2.5916-.806-2.4501-.479-7.2204-.7117-14.5843-.7117-9.6334 0-12.62.7928-14.0292 1.3891-2.2222.9672-3.8246 2.4099-4.7792 4.2954-.897 1.7861-1.3317 4.1263-1.3317 7.16 0 2.4807.2785 4.411.8515 5.9016.6255 1.6129 1.7414 3.0004 3.3177 4.1289 1.587 1.1753 3.7132 1.9166 6.4995 2.2658 2.5295.3161 6.9246.4764 13.0644.4764 5.6102 0 9.415-.3061 11.6334-.9358a10.6134 10.6134 0 0 0 1.9533-.7683l-.0403 1.5865h10.2973v-20.869c0-3.9072-.1581-6.705-.4833-8.5532a11.267 11.267 0 0 0-.1268-.647Zm-10.0438 17.375c0 1.807-.7388 2.3457-1.4623 2.6344-1.0422.4145-3.7216.9098-10.556.9098-10.5988 0-12.6328-.5647-13.0041-.7377-.5737-.2735-1.2465-.829-1.2465-2.6568 0-1.486.3482-2.4443 1.0358-2.8486.1377-.0785.8125-.387 2.8817-.58 1.6806-.15 4.7786-.2263 9.2006-.2263 7.246 0 10.1962.5345 11.3947.983 1.249.4632 1.7561 1.1933 1.7561 2.5221ZM162.5521 8.574v56.3085h10.2896V8.574h-10.2896zM229.5372 34.4429c-1.0724-2.8735-3.0673-5.1909-5.9214-6.8673-1.8387-1.0606-4.0437-1.765-6.753-2.1614-2.5622-.368-6.1737-.5466-11.0452-.5466-5.7934 0-9.8056.36-12.2666 1.1-.7875.2405-1.5238.5446-2.2056.9109v-1.7202h-10.289v63.79h10.289V63.0031c.724.3725 1.5064.6787 2.3438.9167 2.4566.704 6.2332 1.0466 11.5426 1.0466 7.1615 0 12.1213-.433 15.163-1.324 3.2754-.9573 5.9118-2.9556 7.8338-5.9392 1.8534-2.8754 2.7542-7.0537 2.7542-12.7732 0-3.976-.3988-7.2531-1.1857-9.7402-.08-.2461-.1632-.4977-.26-.747Zm-9.2147 10.6368c0 2.7654-.2497 4.9051-.742 6.3596-.4367 1.2688-1.0807 2.1806-1.9668 2.7792-.5083.3363-1.5769.8081-3.7037 1.0931-1.8733.2571-4.842.3872-8.8274.3872-7.0443 0-9.8395-.7306-10.9446-1.3434l-.014-.0079-.0141-.0076c-1.0033-.5336-1.7069-1.4115-2.1518-2.6839-.5276-1.5075-.7945-3.893-.7945-7.0904 0-2.689.2484-4.7754.7388-6.2014.2119-.6038.4674-1.121.7772-1.5712.3342-.4914.7158-.8799 1.173-1.197.4865-.3275 1.5556-.7948 3.765-1.0788 2.0059-.2578 5.196-.3884 9.4824-.3884 6.5366 0 9.1948.7267 10.2743 1.3364l.0166.0094.0167.0091c.6126.3292 1.096.7583 1.4782 1.3116.269.3863.4898.8283.6595 1.319.5166 1.474.7772 3.8156.7772 6.9654ZM285.7199 35.2404c-.4738-2.1249-1.4367-3.9706-2.8593-5.4781l-.014-.015-.0141-.0146c-1.6915-1.714-4.011-2.9187-6.8952-3.581-2.7197-.6227-6.4842-.9254-11.51-.9254-5.9828 0-10.248.4283-13.0387 1.3093-.9763.3113-1.8694.706-2.6761 1.182V8.574h-10.2897v56.3085h10.2897V46.3171c0-3.8943.1876-5.6114.345-6.3662.1928-.9059.609-1.7072 1.2703-2.4423.0358-.0402.062-.0714.0896-.0988l.0154-.0156.0204-.0217c.8669-.9166 2.2312-1.6175 4.0559-2.0833 2.1082-.5316 5.2126-.8018 9.2217-.8018 3.5494 0 6.2178.199 7.933.5914 1.4168.3293 2.4117.8367 2.9508 1.5065.1242.157.233.3135.3124.4496l.0154.0265.0166.026c.3745.5953.63 1.2922.7804 2.1304.2228 1.2244.3355 3.612.3355 7.0993v18.5654h10.296V44.5923c0-3.9696-.1773-6.85-.5416-8.8045a9.2259 9.2259 0 0 0-.1094-.5474ZM339.8385 35.4356a11.2584 11.2584 0 0 0-.128-.6556c-.4527-2.0203-1.4502-3.8159-2.9662-5.3398-1.783-1.8355-4.2293-3.0945-7.2576-3.7266-2.8118-.5952-7.1756-.885-13.3352-.885-7.9778 0-13.3908.7363-16.549 2.2512-3.28 1.5763-5.1238 4.5398-5.3337 8.5708l-.1006 1.9407h10.437l.3725-1.3556c.1857-.6747.5186-1.064 1.1127-1.3017.7856-.3165 3.187-.8443 10.5035-.8443 4.3215 0 7.4048.19 9.1635.5648 1.4642.312 2.527.859 3.1576 1.626.0851.1063.169.231.242.362.3873.6722.8278 1.9185.902 4.223-.79-.3516-1.6549-.6204-2.5909-.8047-2.4508-.479-7.2179-.7116-14.5779-.7116-9.6334 0-12.62.7928-14.0291 1.3891-2.2325.9717-3.8362 2.4163-4.7825 4.301-.8982 1.7893-1.3355 4.1295-1.3355 7.1544 0 2.4691.281 4.3996.8585 5.9015.6153 1.6067 1.7293 2.9968 3.3113 4.1291 1.5877 1.1759 3.7165 1.917 6.5065 2.2657 2.5219.3161 6.9176.4764 13.0638.4764 5.6128 0 9.4164-.3063 11.6283-.9362a10.6544 10.6544 0 0 0 1.9514-.766l-.0397 1.5846h10.3038v-20.869c0-3.9103-.1595-6.7054-.4885-8.5442Zm-10.1719 16.719c0 1.8092-.7356 2.347-1.4558 2.6344-1.0423.4145-3.7217.9098-10.556.9098-10.5989 0-12.6329-.5646-13.0042-.7377-.5736-.2735-1.2465-.829-1.2465-2.6568 0-2.2431.7746-2.6988 1.0295-2.8486.1799-.1015.8764-.393 2.8874-.58 1.6754-.15 4.7709-.2263 9.1948-.2263 7.2448 0 10.1994.5349 11.4024.9836 1.2426.4609 1.7484 1.191 1.7484 2.5215Z"/><path fill="#02518b" d="M202.0352 84.7911c.218.2488.462.5014.735.758.2718.2567.579.4857.9215.6879.3413.2021.722.3655 1.142.4896.42.1247.8782.187 1.377.187 1.0264 0 1.8271-.2336 2.402-.7003.575-.466.8625-1.096.8625-1.8888 0-.8552-.3256-1.4964-.9792-1.9243-.6524-.428-1.5936-.7738-2.8222-1.0383-.6694-.1398-1.2759-.334-1.8193-.5828-.5447-.2488-1.0146-.5599-1.411-.9333s-.7036-.8046-.9215-1.2943c-.218-.4902-.3269-1.0461-.3269-1.6683 0-.575.109-1.119.3269-1.6322s.5434-.9642.9792-1.3534c.4358-.3885.9805-.6996 1.6329-.9326.6537-.2336 1.4071-.3498 2.263-.3498.7613 0 1.419.0814 1.9702.2448.5526.1634 1.0226.3616 1.411.5946s.701.4745.9334.7233c.2336.2487.4121.4509.5368.6064l-1.4924 1.3763c-.0932-.109-.2337-.2527-.42-.4319-.1865-.1785-.424-.353-.7115-.5243s-.6222-.315-1.0029-.4319c-.382-.1168-.8203-.1746-1.3178-.1746-.4988 0-.9254.0663-1.2838.1982-.357.132-.6524.3032-.886.5133-.2336.2093-.4043.447-.5132.7108-.109.2651-.1628.529-.1628.7934 0 .3886.0814.7194.2441.991.1641.2724.4004.5133.7115.7233s.6957.3892 1.1551.5362c.4581.1484.9832.292 1.5738.4319.5763.1398 1.1394.3229 1.692.548.5513.2258 1.0449.529 1.4807.9097.4357.3813.781.848 1.0382 1.3999.256.552.3846 1.224.3846 2.0175 0 .6688-.1391 1.283-.42 1.8422-.2796.5599-.6642 1.0462-1.1538 1.4584s-1.0698.7311-1.738.9562c-.6694.2251-1.3926.338-2.1697.338-.7311 0-1.3953-.0853-1.9939-.2566-.5985-.1706-1.1433-.3885-1.6329-.653-.4896-.2639-.9175-.556-1.2824-.8749-.3662-.3183-.6655-.6333-.8991-.9444l1.587-1.4459ZM225.1268 88.966c-.8401 0-1.6093-.1517-2.309-.455s-1.302-.7192-1.8074-1.2482c-.5054-.5284-.9018-1.1387-1.1893-1.8311-.2887-.6918-.4318-1.434-.4318-2.2276 0-.7928.143-1.535.4318-2.2275.2875-.6917.684-1.3021 1.1893-1.831.5053-.5284 1.1078-.9445 1.8075-1.2477s1.4688-.4549 2.3089-.4549c.8243 0 1.587.1516 2.2866.4549s1.306.7193 1.8193 1.2476c.5132.529.9135 1.1394 1.201 1.8311.2875.6924.4319 1.4347.4319 2.2275 0 .7935-.1444 1.5358-.4319 2.2276-.2875.6924-.6878 1.3027-1.201 1.831-.5133.529-1.1197.9452-1.8193 1.2484s-1.4623.4548-2.2866.4548Zm0-1.82c.5605 0 1.0658-.1123 1.516-.338.4516-.2252.8323-.5205 1.1433-.886s.5487-.7857.7115-1.2602c.1628-.4738.2455-.9595.2455-1.4577 0-.4817-.0827-.9601-.2455-1.4347-.1628-.4738-.4043-.8978-.7233-1.2706-.319-.3734-.6996-.6727-1.1433-.8985-.4423-.225-.9437-.338-1.5042-.338-.5592 0-1.0646.113-1.5161.338-.4516.2258-.8322.5211-1.1433.8867s-.5474.785-.7114 1.2595a4.4619 4.4619 0 0 0-.2442 1.4576c0 .4982.0814.98.2442 1.4466.164.466.4042.886.7232 1.2594a3.683 3.683 0 0 0 1.1433.8979c.4437.2257.945.338 1.5043.338ZM241.058 79.4803h-1.9597v-1.749h1.9598v-.8868c0-.7304.105-1.3644.315-1.9006.21-.537.4896-.976.8388-1.318.3505-.3419.7508-.5945 1.201-.758.4516-.1634.9254-.2448 1.423-.2448.5762 0 1.1393.0893 1.6919.2678.5513.1792 1.0606.4863 1.5279.9215l-1.0501 1.3533c-.575-.4824-1.1892-.7233-1.843-.7233-.6064 0-1.092.1943-1.457.5828-.3662.3892-.5486 1.058-.5486 2.0064v.6996h3.1017v1.749h-3.1017v9.4857h-2.099v-9.4856ZM256.5927 79.5576h-1.9597v-1.749h1.9597V74.263h2.0989v3.5454h3.1726v1.7491h-3.1726v5.3417c0 .871.1352 1.4695.4082 1.7964.2717.3262.6563.4896 1.1538.4896.4043 0 .739-.0617 1.0042-.1864.2638-.1247.5277-.3111.7928-.5598l.9556 1.2824c-.4502.4358-.9136.7508-1.3875.945-.4751.1943-1.0382.2915-1.6906.2915-1.1512 0-1.9952-.3111-2.5308-.9333-.5368-.6215-.8046-1.5935-.8046-2.9153v-5.5518ZM270.6646 78.1197h2.3102l2.4258 8.2807 2.6121-8.2807h1.7957l2.6134 8.3503 2.3785-8.3503h2.1698l-3.5927 10.8462h-2.0753l-2.5202-7.5804-2.4953 7.5804h-1.9597l-3.6623-10.8462ZM302.2477 87.3566c-.4043.5441-.9372.9484-1.5975 1.2129-.6615.2638-1.3415.3964-2.0411.3964a5.2427 5.2427 0 0 1-1.3415-.1752 3.4837 3.4837 0 0 1-1.2129-.5828c-.3662-.2717-.6615-.6216-.886-1.0495-.2258-.4279-.3387-.9523-.3387-1.5745 0-1.1662.4083-2.0995 1.2247-2.7991s1.9939-1.0495 3.5336-1.0495c.2481 0 .5132.0079.7928.023.2796.0157.5448.0315.7929.0466.2494.0157.4673.0315.6536.0466.1864.0157.319.0315.3965.0466v-.3964c0-.808-.2455-1.3875-.7351-1.738-.4896-.3498-1.1538-.5243-1.9939-.5243-.8243 0-1.478.1128-1.9597.338-.4818.2257-.886.4548-1.2129.6884l-.9792-1.4228c.1864-.1556.4121-.3111.676-.4667.2651-.1555.575-.2993.9333-.4318.357-.132.7613-.241 1.2128-.3262s.9714-.1287 1.5634-.1287c1.3992 0 2.4992.3387 3.2999 1.0147.8007.6767 1.201 1.6368 1.201 2.8812v6.3091c0 .3814.008 1.0068.0237 1.2713h-1.9904l-.0153-1.6093Zm-.0236-3.8256c-.0617-.0151-.1825-.0348-.361-.0584a10.063 10.063 0 0 0-.6183-.0578 97.8439 97.8439 0 0 0-.7468-.0472 13.5386 13.5386 0 0 0-.7692-.023c-.592 0-1.0698.0702-1.4347.21-.3663.1398-.6537.315-.8637.5244-.21.21-.3531.4437-.4306.7003-.0787.2566-.1168.5014-.1168.7344 0 .5913.2021 1.0383.6064 1.3415s.9635.4548 1.6789.4548c.4043 0 .7889-.0702 1.155-.21.365-.1398.6879-.3268.9675-.5598.2796-.2337.5053-.5054.6773-.8165.1706-.311.256-.63.256-.9562V83.531ZM314.4583 79.8932v-1.178c0-.3341-.0079-.68-.0236-1.0377h2.0057l.0695 1.7491c.1247-.1864.2888-.3925.491-.6176.2008-.2258.4463-.4318.7337-.6182.2875-.187.6222-.346 1.0042-.4785.3806-.1319.819-.1982 1.3179-.1982.2323 0 .4462.0158.6405.0466.1943.0315.3767.0781.5487.1398l-.4673 1.9598c-.2796-.109-.6366-.1635-1.0724-.1635-.4516 0-.8677.086-1.2483.2567-.3807.1712-.7115.4082-.991.7114s-.5015.657-.6642 1.0613c-.1641.4042-.2455.8322-.2455 1.283l-.0236 6.1567h-2.099l.0237-9.0727ZM339.9014 87.0287c-.1247.1404-.311.319-.5592.5368-.2494.218-.5723.428-.9687.6294-.3964.2022-.8624.3774-1.3992.525s-1.1473.222-1.8312.222c-.84 0-1.6092-.1405-2.3089-.4201-.6996-.2803-1.2981-.6767-1.7956-1.19-.4988-.5131-.8834-1.1268-1.1551-1.8422s-.4083-1.5082-.4083-2.3791c0-.7935.1326-1.5358.3964-2.2282.2639-.691.638-1.2903 1.1197-1.7957s1.054-.9057 1.7143-1.201c.6616-.2953 1.3874-.4437 2.1816-.4437.932 0 1.7326.1792 2.402.5369.6682.3577 1.2169.8322 1.6448 1.4229.4266.5907.7416 1.2673.9438 2.0293s.3032 1.5548.3032 2.3791h-8.5596c.0157.4818.1194.9254.315 1.3297.1943.4043.4542.7541.781 1.0495s.6996.529 1.1197.6996c.42.1713.8637.2566 1.3297.2566.9175 0 1.671-.1555 2.263-.4666.5906-.3111 1.0172-.6143 1.2824-.9097l1.1892 1.2595Zm-1.8889-4.7813c-.063-.84-.3583-1.5548-.886-2.1461-.529-.5907-1.2759-.8867-2.2393-.8867-.4988 0-.9451.086-1.3415.2566-.3964.1713-.735.3971-1.0147.6767s-.4975.6025-.6537.968c-.1549.3656-.2402.743-.256 1.1315h6.3912Z"/><path fill="url(#c)" d="M84.8007 21.316a41.377 41.377 0 0 1 2.3262 3.758l.12-.0644c-2.023-5.8561-5.918-11.44-10.9906-15.749l-.9796-.8043-1.0076-.7627c-.7016-.5188-1.4046-1.005-2.087-1.4426-.6798-.4382-1.4147-.8992-2.1865-1.3067l-.0857-.0445c-.7167-.3738-1.4583-.7603-2.2067-1.0897-2.8778-1.3566-6.0904-2.3826-9.556-3.0516-5.721-1.1042-11.6892-1.0008-17.2603.297l-.0012.0005-.0015-.006-.4261.0968-.0015-.0072c-.9566.226-1.915.4844-2.8584.7705C31.898 3.64 26.6045 6.3574 22.289 9.7678l-1.2123.9653c-.5453.4328-1.0345.826-1.5087 1.2575-1.8069 1.5357-3.5627 3.3287-5.5338 5.6488-1.8639 2.2107-3.379 4.3096-4.6306 6.417-1.4753 2.4553-2.6577 4.7646-3.616 7.0606-1.011 2.382-1.8592 4.915-2.5222 7.5308-.6244 2.4607-1.0844 5.0976-1.3666 7.8372-.2308 2.2414-.284 4.5525-.1625 7.065.5358 11.056 4.5157 21.2277 11.2064 28.643 6.9729 7.7286 16.2117 12.5575 26.014 13.5967 9.0077.9533 18.4938-1.3638 26.0706-6.3664l-.1255-.2675c-8.6806 4.3463-18.9781 5.311-28.3059 2.6417a38.1577 38.1577 0 0 1-2.419-.7814c-9.3888-3.3816-17.2245-10.4495-22.0636-19.9l-.1126-.247c-.4405-.9684-.896-1.9698-1.2713-2.9928-.8336-2.1945-1.4942-4.461-1.9625-6.7325-.4516-2.2774-.7338-4.6222-.8398-6.9717-.1111-2.2757-.0334-4.6373.2306-7.0193.9939-9.2576 4.7787-18.3384 10.6568-25.5674 1.5963-1.9577 3.1678-3.6269 4.8047-5.1019 1.9096-1.7364 3.7056-3.1574 5.4895-4.3439 1.9164-1.297 3.9625-2.4601 6.079-3.456 2.012-.9468 4.1734-1.7612 6.4258-2.4224l-.0014-.021.161-.0234.3267-.0926-.0012-.0192.149-.0193v.0012c5.0251-1.3506 10.121-1.7467 15.1437-1.175l.0003-.0007a.6468.6468 0 0 1 .0735.009l.3691.047c.2521.0312.5033.0624.7243.0997C69.838 7.1376 78.911 12.7563 84.8007 21.3161Z"/><path fill="none" d="M66.1208 56.6465c-.0976.0642-.1973.1246-.2955.1878.001.008.0025.0163.0034.0244.0992-.0679.1936-.1434.2921-.2122Z"/><path fill="url(#d)" d="M66.0135 10.0703c-.0138-.0092-.0322-.0184-.0506-.0184-.3362-.1197-.677-.2302-1.0177-.3361a32.2315 32.2315 0 0 1 5.8806 2.869c.0092 0 .0138-.0047.0184-.0047-1.5703-.9947-3.1866-1.8328-4.8307-2.5098Z"/><path fill="url(#e)" d="M82.145 53.8136c.967-5.2405 1.2204-10.4903.8059-15.4821 3.1039.4052 5.457.1842 6.8523-.6171a1768.081 1768.081 0 0 1-.1657-.746c-.0139-.0737-.0323-.1474-.0507-.2211-1.363.806-3.661 1.0316-6.7188.6355h-.0046c-.5111-4.9504-1.6946-9.629-3.5366-13.7506 1.7038.2164 2.9702.0875 3.7024-.3777.046-.0322.0875-.0598.129-.092h.0046a1.486 1.486 0 0 0 .175-.1612l-.5711-.769c-.0553.0644-.1243.1243-.1934.1796h-.0046a1.1146 1.1146 0 0 1-.1197.0828h-.0046c-.6862.4375-1.8835.571-3.4769.3593h-.0046c-1.5933-3.3434-3.6287-6.2998-6.1063-8.7128-.0137 0-.023-.0046-.0368-.0046 2.3854 2.3992 4.3242 5.3418 5.83 8.6712-1.2065-.1841-2.6203-.5433-4.2136-1.096-.5848-.2026-1.1743-.4282-1.7637-.663.1704-2.8368.0138-5.2544-.4928-7.1056-.0138-.0046-.0322-.0093-.046-.0185.3822 1.8006.4052 4.163.1197 6.949-2.1827-.9117-4.3426-2.04-6.2859-3.2604 2.04-1.8742 3.8959-3.2603 5.4938-4.034-.0138-.0137-.0276-.0183-.0414-.0276-1.7039.7-3.6703 2.017-5.8161 3.836-1.9204-1.225-3.6012-2.5281-4.8446-3.7715 3.4998-.7552 6.9214-.9487 10.1403-.4697-.0092-.0047-.0138-.0184-.0276-.0276-3.288-.548-6.7832-.4375-10.3476.2625-.6216-.6401-1.119-1.2664-1.4689-1.8559-.3224-.5434-.4974-1.0223-.5389-1.4322 4.1262.2211 8.22 1.096 12.139 2.6756v-.023c-3.9236-1.6256-8.0266-2.542-12.1527-2.809v-.0047c-.0093-.6908.3914-1.1789 1.1374-1.4368-.129-.023-.2579-.0414-.3869-.0599l-.5525-.069c-.7599.29-1.156.8012-1.1467 1.515 0 .0507 0 .1105.0092.1704.046.4375.2348.9487.5756 1.5243.373.6263.9027 1.2894 1.5611 1.9755-4.3333.9486-8.745 2.7492-13.0138 5.2498h-.0046v-.0046c-1.2158-1.2618-2.1966-2.4822-2.8827-3.6426-.631-1.0638-.9763-2.0032-1.0592-2.8137 4.7939-1.6394 9.8225-2.436 14.819-2.2887-.0046-.0599-.0046-.115-.0046-.1704-5.0057-.2026-10.0436.5435-14.8374 2.146-.0185-1.1974.8341-2.2584 1.9855-2.8065-.2626.0738-.4936.1227-.756.1918-1.2296.5572-2.1644 1.6799-2.1413 2.937.0046.1014.0092.2073.0184.3177.083.8336.442 1.796 1.0914 2.8782.7 1.188 1.7085 2.45 2.9518 3.7393.0783.0829.1566.1612.2302.2395-.0782-.0783-.1566-.1566-.2348-.2395-4.2504 2.588-8.3443 5.8622-12.0468 9.689-1.6255-1.6808-2.9288-3.3202-3.8544-4.8629-.8427-1.4183-1.2987-2.6755-1.4137-3.7531 4.0017-3.3387 8.51-5.936 13.2716-7.6905-.0045-.1104-.0137-.2117-.0183-.3177-4.7616 1.713-9.27 4.269-13.2764 7.5846-.0185-1.1421.6458-2.9738 1.4378-3.6738l-.4495.3385c-.8566.7184-1.762 2.7826-1.7435 3.9799 0 .1381.0092.281.0276.4237.1106 1.0868.5756 2.3578 1.4276 3.7945.9256 1.5565 2.2472 3.2143 3.8913 4.9182l.3038.3178a19.8954 19.8954 0 0 1-.3084-.3132c-3.6472 3.896-6.8938 8.3306-9.4957 13.1612-1.7867-1.8512-3.2188-3.6518-4.2228-5.3464-.9302-1.5611-1.4367-2.938-1.5611-4.1215 2.6156-4.8077 6.0234-8.9752 9.9607-12.4106-.0184-.1427-.023-.2856-.023-.4237-3.9327 3.4077-7.345 7.5662-9.9607 12.3692-.0138-.6632.1842-3.021.4098-3.6426a29.6795 29.6795 0 0 0-.677 1.1697c-.0045.0046-.0045.0091-.0045.0091v.0047c-.2118 1.2525-.3362 2.2887-.2395 3.4216-2.5005 4.8629-3.9695 9.9146-4.4899 14.9202 0-.0875.0046-.175.0046-.2624l-.0737.8012c-.0137.1382-.0137.2764-.0137.4191 0 .1382.0137.2763.0275.419.1106 1.0869.5757 2.3394 1.4184 3.7716.921 1.5519 2.238 3.2005 3.8728 4.8952.2027.2025.4053.4144.6126.6217 3.288 3.2696 7.7088 6.7003 12.7513 9.9239-1.4367 3.928-2.3394 7.3266-2.6986 10.0711-3.8912-2.4867-7.3082-5.13-9.8456-7.6581-.8472-3.6887-.9394-7.8608-.2071-12.337-.2119-.2072-.4145-.419-.6172-.6216-.6908 4.5083-.5617 8.7358.3546 12.475-1.2617-1.3078-2.2748-2.5742-2.9887-3.7715-.3499-.594-.6216-1.1467-.8058-1.667l.2533.769c.1795.525.4466 1.0868.8058 1.69.6954 1.1697 1.69 2.413 2.9196 3.6887.5342 1.934 1.2756 3.7347 2.2289 5.3649.0368.046.0737.0875.1105.1335.129.1566.2624.3177.396.4743-.0046-.0092-.0092-.0138-.0138-.023-.9809-1.6532-1.7315-3.486-2.2565-5.48 2.4729 2.4683 5.8024 5.0426 9.6016 7.4787-.2073 1.888-.1336 3.4307.221 4.5773.0184.0138.0323.0277.0506.037.1474.0965.2994.1933.4467.2854a.0348.0348 0 0 0 .0185.0091c-.2856-1.096-.281-2.5972-.0092-4.453 3.859 2.413 8.1509 4.6603 12.4888 6.4701-1.0914.9532-2.0999 1.6624-3.0209 2.1045.2625.0737.525.1382.7875.2026.9532-.4237 1.9802-1.0821 3.0623-1.9663 1.165.4697 2.3301.9164 3.4952 1.317 1.9618.677 3.7946 1.2158 5.48 1.6072.4053-.0277.8106-.0691 1.2203-.1198-1.888-.4144-3.9695-1.0085-6.2168-1.7913-1.1926-.4098-2.3807-.8611-3.578-1.3447 2.132-1.8281 4.4853-4.4807 6.9444-7.8792h.0046c1.5519.6263 3.0945 1.2111 4.6373 1.7453 4.1951 1.4598 7.9344 2.4176 11.121 2.9011-2.3116 2.1783-4.7385 3.9512-7.2251 5.2913.6263-.1658 1.248-.35 1.8696-.5526.0046-.0046.0092-.0092.0138-.0092 2.1137-1.2435 4.1814-2.7861 6.1523-4.619 1.1375.1474 2.1967.2303 3.173.2534h.0183c.3086-.1934.5987-.3915.9026-.5987-1.05-.0092-2.2058-.0921-3.4491-.258 3.3386-3.2418 6.3825-7.3127 8.9383-12.1526 2.7216.35 5.0333.3638 6.8753.0645a68.462 68.462 0 0 0 .5664-.875c.0185-.0276.0323-.0506.0507-.0783-1.865.3316-4.2228.3224-7.0043-.0414h-.0045c2.4729-4.8951 4.232-10.0942 5.282-15.3255a89.2994 89.2994 0 0 0-.4053-.0554c.1335.0185.2717.037.4052.0508 3.3755.4373 6.0741.313 7.9483-.3363.0553-.2809.1106-.5618.1566-.8473.0046-.046.0092-.0967.0185-.1427 0-.0093.0046-.0231.0046-.0322-1.8559.6723-4.5499.8058-7.9392.3683Zm-.8059-.1197c-3.1728-.479-6.8937-1.4322-11.0659-2.8781a104.6233 104.6233 0 0 1-4.6143-1.7407c1.8882-4.9643 3.4584-9.8364 4.6374-14.3724h.0046c1.1743.4789 2.3623.921 3.5366 1.3355 3.2051 1.1098 6.0649 1.842 8.4917 2.2104.3362 4.978.0185 10.2186-.9901 15.4453ZM32.6592 69.2774c1.5473-3.9558 3.6012-8.4319 6.1248-13.2856 5.5905 3.4906 11.812 6.751 18.107 9.3805-2.542 4.8399-5.084 9.072-7.4878 12.581-5.8162-2.4361-11.5725-5.4386-16.7393-8.6713h-.0047v-.0046ZM57.37 64.4421c-6.295-2.6295-12.5073-5.8807-18.0978-9.376h-.0046c2.565-4.8582 5.3694-9.6337 8.2568-14.1282h.0046c5.1393 3.2097 10.8725 6.2076 16.6565 8.63-1.994 4.9504-4.292 9.9928-6.8155 14.8742Zm-9.293-24.3607h-.0046c2.892-4.4577 5.8576-8.616 8.7358-12.2816 3.9097 2.4452 8.2522 4.7155 12.65 6.5576-1.2801 4.4852-2.938 9.3298-4.8905 14.2664-5.7287-2.3947-11.402-5.3557-16.4907-8.5424Zm26.4237-17.665c1.6993.5895 3.2051.9763 4.49 1.1697 1.7407 4.1124 2.8321 8.768 3.265 13.7138-2.3762-.3592-5.1577-1.073-8.2845-2.1597-1.1467-.4006-2.298-.8289-3.4538-1.3033h-.0046c1.1236-4.4852 1.8512-8.6068 2.1137-12.125a42.6936 42.6936 0 0 0 1.8742.7045Zm-9.0074-4.3563c2.063 1.2894 4.3702 2.4913 6.6957 3.4676-.4052 3.4584-1.2571 7.5339-2.4867 11.9777-4.2872-1.7914-8.5331-4.011-12.3415-6.3964h-.0046c2.8597-3.592 5.6273-6.682 8.1325-9.049h.0046Zm-5.5445-4.2505v-.0046c1.3308 1.3217 3.1177 2.7032 5.1485 4.0064-2.6295 2.298-5.503 5.305-8.4595 8.8463-3.7532-2.4038-7.0504-4.955-9.4956-7.3957 4.2136-2.5558 8.5516-4.4255 12.8066-5.4524Zm-13.6171 5.9497h.0046c2.5052 2.5006 5.8853 5.1163 9.7305 7.5753-2.9703 3.6058-6.005 7.7134-8.9569 12.1389-5.0194-3.2097-9.4173-6.6175-12.6822-9.8732 3.661-3.859 7.7135-7.1884 11.904-9.841Zm-12.5994 10.587h.0046c3.2972 3.288 7.7457 6.7326 12.8113 9.9746-2.9289 4.4622-5.7701 9.2146-8.3305 14.0776-5.5077-3.523-10.343-7.2576-13.9257-10.8403 2.5972-4.8307 5.8253-9.2792 9.4403-13.2119ZM14.276 53.0676c-.8613-1.4414-1.331-2.717-1.4415-3.8083v-.0231c.525-4.978 2.0032-10.0297 4.5083-14.8927.0185.1382.0416.2763.0645.419.2257 1.317.8197 2.5513 1.492 3.6933 1.0086 1.6946 2.4454 3.4952 4.232 5.3465-2.5142 4.8675-4.149 9.6706-4.9457 14.211-1.6486-1.7083-2.984-3.3754-3.9096-4.9457Zm4.5313 5.5767-.0046-.0046c.8335-4.513 2.482-9.2883 4.9919-14.1559 3.5964 3.578 8.4272 7.3174 13.9348 10.8403-2.5281 4.8537-4.5498 9.3482-6.051 13.3316-5.0886-3.2466-9.5555-6.705-12.8711-10.0114ZM42.247 86.5877c-4.444-1.8605-8.8463-4.1537-12.7929-6.6266.4514-2.6848 1.4322-6.0372 2.9104-9.9331h.0046c5.1209 3.2005 10.8173 6.1754 16.5736 8.5838-2.3993 3.4215-4.6695 6.1108-6.6957 7.976Zm24.1764-3.486c-3.2143-.4881-6.9904-1.4552-11.227-2.9242a99.0588 99.0588 0 0 1-4.688-1.7683c2.4637-3.486 5.038-7.6997 7.5799-12.5488 1.69.6862 3.3847 1.3308 5.0655 1.911 4.5867 1.5889 8.676 2.6388 12.1482 3.1684-2.5604 4.84-5.586 8.9154-8.8786 12.162Zm9.362-13.0922c-3.486-.525-7.566-1.5702-12.1527-3.1682-1.6808-.5802-3.3708-1.2203-5.0608-1.9019h-.0046c2.5235-4.886 4.78-9.9422 6.7233-14.9157h.0046c1.5565.6263 3.113 1.2157 4.6557 1.7545 4.2228 1.4644 7.9852 2.4269 11.1857 2.9104-1.0915 5.2267-2.8736 10.4258-5.3511 15.321Z"/><path fill="url(#f)" d="M78.59 79.7216c-2.3348 2.671-7.299 6.3273-11.31 7.778 1.4551-3.2098 2.855-7.1102 2.855-14.354 0-1.8236.0185-4.209-.0782-5.2497 1.2295-.8197 2.4268-1.6717 3.578-2.5098 1.856-1.3216 5.1117-4.4254 5.4617-4.8491.5111 5.3649.7782 11.3745-.5066 19.1846Z"/><path fill="url(#g)" d="M76.7986 48.4211c-.921.9533-1.8743 1.8927-2.8598 2.7907a46.4777 46.4777 0 0 1-3.1038 2.5926c-.7368.5665-1.492 1.1006-2.2518 1.6348C66.23 44.3687 56.61 35.0021 50.9412 30.5996a.0631.0631 0 0 0-.0184.0138c-2.6479-2.6893-7.916-7.0319-11.8441-3.9327 2.2979-2.786 4.8122-5.1162 7.4693-6.728h.0046c3.242-1.9709 7.101.8474 8.5516 1.9065 4.513 3.2973 14.6394 12.9633 20.0458 23.0897l.0092-.0046s.0598.1198.1703.35c.5204.9993 1.05 2.1275 1.469 3.1268Z"/><path fill="url(#a)" d="M42.8502 73.4311c.1565.1013.3177.2073.4789.3086-.1888-.1105-.3684-.2303-.5434-.3454-.1105-.0737-.221-.152-.327-.2256.129.0875.258.1795.3915.2624Z"/><path fill="url(#h)" d="M47.3861 75.7843c-.0138.0046-.023.0046-.0368.0046-.0276-.0138-.0553-.023-.0783-.0368.0138 0 .023 0 .0323-.0046a.6518.6518 0 0 0 .0828.0368Z"/><path fill="url(#i)" d="M36.4261 61.3567c-.0368.6079-.0506 1.2111-.0184 1.8144.0184.327.046.654.1013.9763.0369.2118.0737.4236.1152.6355.0138.0782.0322.1565.0506.2348v.0046c.1336.654.3132 1.3032.5572 1.925.4421 1.1144 1.073 2.1459 1.8236 3.0807.3316.4098.6862.8013 1.0592 1.1743.175.1704.3546.3454.5434.5204a8.434 8.434 0 0 1 .2164.198c.129.1105.2625.2256.4006.3407.0968.083.198.1612.304.2487.1427.1151.2947.2257.4467.3408.0184.0184.0414.0322.0598.046.1244.0922.2441.1843.373.2718.106.0736.2165.1519.327.2256.175.1151.3546.2349.5434.3454.4743.2993.9809.5848 1.5197.8703.746.396 1.5657.7737 2.4545 1.1375-.0093.0046-.0185.0046-.0323.0046.023.0138.0507.023.0783.0368h-.0138c-3.0393.4099-5.7932.456-8.2522.1105-3.4216-.4789-6.2767-1.6808-8.5378-3.6057-2.8045-2.39-4.3057-6.0464-4.4623-10.8633-.327-10.0114 5.038-25.116 12.9955-34.7497 3.928-3.0992 9.1962 1.2434 11.8441 3.9327-.7322.5941-1.4183 1.2342-2.0723 1.9111-.6861.7092-1.3308 1.4552-1.9387 2.2289-.6355.8012-1.2295 1.6302-1.796 2.4775a42.9126 42.9126 0 0 0-1.644 2.6755 52.9046 52.9046 0 0 0-1.492 2.8137c-.4697.9487-.9118 1.9157-1.3308 2.892a63.7768 63.7768 0 0 0-1.1605 2.9104 64.0248 64.0248 0 0 0-.9855 2.8735c-.29.921-.5618 1.8466-.8059 2.7814a47.154 47.154 0 0 0-.617 2.625 43.403 43.403 0 0 0-.4283 2.413c-.1013.7138-.1796 1.4275-.2257 2.1413Z"/><path fill="url(#j)" d="M90.4525 43.7839c-.4329 1.0868-.8934 2.1551-1.3953 3.1913-2.5006 5.1254-5.936 9.6153-9.993 13.479 0 .0045-.0092.023-.0322.046-.35.4236-3.6057 3.5274-5.4616 4.849-1.1512.8382-2.3485 1.6901-3.578 2.5098-.1014.0737-.2073.1428-.3132.2119-5.3419 3.0485-11.7245 5.2866-15.1322 6.2306-2.542.7092-4.9228 1.1973-7.1609 1.5012-.0138-.0046-.023-.0092-.0368-.0138-.0276-.0138-.0553-.023-.0783-.0368.0138 0 .023 0 .0323-.0046.0046.0046.0138 0 .0184 0-.8934-.3638-1.7177-.746-2.473-1.1375-.5387-.2855-1.0453-.571-1.5196-.8703-.1888-.1105-.3684-.2303-.5434-.3454-.1105-.0737-.221-.152-.327-.2256-.1289-.0875-.2486-.1796-.373-.2718-.0184-.0138-.0414-.0276-.0598-.046-.152-.1151-.304-.2257-.4467-.3408-.106-.0875-.2072-.1658-.304-.2487-.1381-.115-.2716-.2302-.4006-.3407a8.434 8.434 0 0 0-.2164-.198c-.1888-.175-.3684-.35-.5434-.5204a15.0444 15.0444 0 0 1-1.0592-1.1743c-.7506-.9348-1.3815-1.9663-1.8236-3.0808-.244-.6217-.4236-1.271-.5572-1.9249v-.0046c0-.0046.0046-.0046.0046-.0046.769.396 2.671.8381 5.9543.5894 3.9328-.313 8.266-1.4505 12.2402-2.915 0 0 3.4124-1.34 5.084-2.1183a3.8479 3.8479 0 0 0 .4375-.2118c.7368-.35 1.4828-.7184 2.1966-1.1052.1197-.0645.2395-.129.3684-.198.4467-.2487.8888-.502 1.317-.7506 1.2112-.7 2.321-1.5473 3.4538-2.3486l.7875-.5526c.7598-.5342 1.515-1.0684 2.2519-1.6348a46.5014 46.5014 0 0 0 3.1038-2.5926c.9854-.898 1.9387-1.8374 2.8597-2.7907l.023-.023c.0875-.1013.175-.2165.2625-.3178 1.9019-2.192 3.5781-4.605 4.9504-7.2299 1.9848-3.8314 4.8445-9.2884 5.526-13.4099 2.3579 2.3762 4.5268 9.4634 2.9565 16.3802Z"/><path fill="url(#k)" d="M47.3861 75.7843c-.0184.0046-.0322.0046-.0506.0046-1.773-.723-3.2512-1.5242-4.4853-2.3578 1.248.829 2.7446 1.6256 4.536 2.3532Z"/></svg>