<svg xmlns="http://www.w3.org/2000/svg" viewBox="0 0 342 96"><path fill="#fff" d="M153.988 34.78c-.463-2.032-1.46-3.823-2.965-5.332-1.789-1.844-4.231-3.101-7.258-3.734-2.82-.596-7.185-.885-13.343-.885-7.98 0-13.392.737-16.544 2.252-3.278 1.571-5.122 4.535-5.332 8.57l-.101 1.941h10.431l.373-1.355c.185-.673.52-1.062 1.12-1.302.785-.317 3.186-.844 10.496-.844 4.322 0 7.405.19 9.164.565 1.465.312 2.527.859 3.158 1.626q.152.19.248.362c.387.672.828 1.919.903 4.224a12 12 0 0 0-2.592-.806c-2.45-.479-7.22-.712-14.584-.712-9.633 0-12.62.793-14.029 1.389-2.222.967-3.825 2.41-4.779 4.295-.897 1.786-1.332 4.126-1.332 7.16 0 2.481.278 4.411.851 5.902.626 1.613 1.741 3 3.318 4.129 1.587 1.175 3.713 1.917 6.5 2.266 2.529.316 6.925.476 13.064.476 5.61 0 9.415-.306 11.633-.936q1.024-.291 1.953-.768l-.04 1.586h10.297V43.98c0-3.907-.158-6.705-.483-8.553-.035-.214-.08-.438-.127-.647m-11.506 20.009c-1.042.414-3.722.91-10.556.91-10.599 0-12.633-.565-13.004-.738-.574-.274-1.246-.829-1.246-2.657 0-1.486.348-2.444 1.036-2.849.138-.078.812-.387 2.882-.58 1.681-.15 4.779-.226 9.201-.226 7.246 0 10.196.534 11.395.983 1.249.463 1.756 1.193 1.756 2.522 0 1.807-.739 2.346-1.462 2.634Zm20.07-45.646v55.74h10.29V8.574h-10.29zm66.985 25.3c-1.072-2.873-3.067-5.191-5.921-6.867-1.839-1.061-4.044-1.765-6.753-2.161-2.562-.368-6.174-.547-11.045-.547-5.793 0-9.806.36-12.267 1.1q-1.182.36-2.206.911v-1.72h-10.289v63.79h10.289V63.004q1.087.559 2.344.917c2.457.704 6.233 1.047 11.543 1.047 7.162 0 12.121-.433 15.163-1.324 3.275-.957 5.912-2.956 7.834-5.939 1.853-2.875 2.754-7.054 2.754-12.773 0-3.976-.399-7.253-1.186-9.74a14 14 0 0 0-.26-.747Zm-9.957 16.996c-.437 1.269-1.081 2.181-1.967 2.779-.508.336-1.577.808-3.704 1.093-1.873.257-4.842.387-8.827.387-7.044 0-9.84-.731-10.945-1.343l-.014-.008-.014-.008c-1.003-.534-1.707-1.412-2.152-2.684-.528-1.508-.795-3.893-.795-7.09 0-2.689.248-4.775.739-6.201a6.6 6.6 0 0 1 .777-1.571c.334-.491.716-.88 1.173-1.197.487-.327 1.556-.795 3.765-1.079 2.006-.258 5.196-.388 9.482-.388 6.537 0 9.195.727 10.274 1.336l.017.009.017.009a4.1 4.1 0 0 1 1.478 1.312q.404.58.659 1.319c.517 1.474.777 3.816.777 6.965 0 2.765-.25 4.905-.742 6.36Zm55.035-14.854c.124.157.233.313.312.45l.015.026.017.026c.375.595.63 1.292.78 2.13.223 1.224.335 3.612.335 7.099v18.565h10.296v-20.29c0-3.97-.177-6.85-.542-8.805a9 9 0 0 0-.109-.547c-.474-2.125-1.437-3.971-2.859-5.478l-.014-.015-.014-.015c-1.691-1.714-4.011-2.919-6.895-3.581-2.72-.623-6.484-.925-11.51-.925-5.983 0-10.248.428-13.039 1.309q-1.465.467-2.676 1.182V8.574h-10.29v56.309h10.29V46.318c0-3.894.188-5.611.345-6.366.193-.906.609-1.707 1.27-2.442.036-.04.062-.071.09-.099l.015-.016.02-.022c.867-.917 2.231-1.618 4.056-2.083 2.108-.532 5.213-.802 9.222-.802 3.549 0 6.218.199 7.933.591 1.417.329 2.412.837 2.951 1.507Zm65.223-1.149a12 12 0 0 0-.128-.656c-.453-2.02-1.45-3.816-2.966-5.34-1.783-1.835-4.229-3.094-7.258-3.727-2.812-.595-7.176-.885-13.335-.885-7.978 0-13.391.736-16.549 2.251-3.28 1.576-5.124 4.54-5.334 8.571l-.101 1.941h10.437l.373-1.356c.186-.675.519-1.064 1.113-1.302.786-.317 3.187-.844 10.503-.844 4.322 0 7.405.19 9.164.565 1.464.312 2.527.859 3.158 1.626.085.106.169.231.242.362.387.672.828 1.919.902 4.223a12 12 0 0 0-2.591-.805c-2.451-.479-7.218-.712-14.578-.712-9.633 0-12.62.793-14.029 1.389-2.232.972-3.836 2.416-4.782 4.301-.898 1.789-1.336 4.129-1.336 7.154 0 2.469.281 4.4.859 5.902.615 1.607 1.729 2.997 3.311 4.129 1.588 1.176 3.716 1.917 6.507 2.266 2.522.316 6.918.476 13.064.476 5.613 0 9.416-.306 11.628-.936a10.7 10.7 0 0 0 1.951-.766l-.04 1.585h10.304V43.979c0-3.91-.159-6.705-.488-8.544Zm-11.627 19.353c-1.042.414-3.722.91-10.556.91-10.599 0-12.633-.565-13.004-.738-.574-.274-1.247-.829-1.247-2.657 0-2.243.775-2.699 1.029-2.849.18-.102.876-.393 2.887-.58 1.675-.15 4.771-.226 9.195-.226 7.245 0 10.199.535 11.402.984 1.243.461 1.748 1.191 1.748 2.521 0 1.809-.736 2.347-1.456 2.634Z"/><path fill="#fff" d="M210.315 80.954a5.3 5.3 0 0 0-1.481-.91 12 12 0 0 0-1.692-.548 21 21 0 0 1-1.574-.432q-.688-.22-1.155-.536c-.467-.316-.547-.451-.711-.723q-.244-.408-.244-.991 0-.396.163-.794.163-.396.513-.711t.886-.513 1.284-.198c.748 0 .936.058 1.318.175a4.6 4.6 0 0 1 1.003.432q.431.257.711.524.28.269.42.432l1.492-1.376a11 11 0 0 0-.537-.606 4.3 4.3 0 0 0-.933-.723 6.1 6.1 0 0 0-1.411-.595q-.827-.245-1.97-.245-1.283 0-2.263.35-.978.35-1.633.933-.653.584-.979 1.353c-.326.769-.327 1.057-.327 1.632q0 .933.327 1.668t.921 1.294c.594.559.866.685 1.411.933q.815.373 1.819.583 1.844.397 2.822 1.038.98.642.979 1.924 0 1.19-.862 1.889-.863.7-2.402.7-.748 0-1.377-.187a5.1 5.1 0 0 1-2.063-1.178 11 11 0 0 1-.735-.758l-1.587 1.446q.35.467.899.944.548.479 1.282.875.735.397 1.633.653a7.3 7.3 0 0 0 1.994.257q1.165 0 2.17-.338a5.3 5.3 0 0 0 1.738-.956 4.5 4.5 0 0 0 1.154-1.458q.42-.84.42-1.842 0-1.19-.385-2.018a4.2 4.2 0 0 0-1.038-1.4Zm18.918-1.809q-.77-.792-1.819-1.248c-1.049-.456-1.462-.455-2.287-.455a5.75 5.75 0 0 0-2.309.455q-1.05.454-1.807 1.248a5.9 5.9 0 0 0-1.189 1.831q-.433 1.038-.432 2.228c.001 1.19.143 1.536.432 2.228a5.9 5.9 0 0 0 1.189 1.831 5.5 5.5 0 0 0 1.807 1.248 5.75 5.75 0 0 0 2.309.455q1.237 0 2.287-.455c1.05-.455 1.306-.719 1.819-1.248a5.76 5.76 0 0 0 1.633-4.059q0-1.19-.432-2.228a5.8 5.8 0 0 0-1.201-1.831m-.735 5.517q-.245.712-.711 1.26a3.6 3.6 0 0 1-1.143.886q-.675.339-1.516.338c-.841-.001-1.061-.112-1.504-.338a3.7 3.7 0 0 1-1.143-.898 3.9 3.9 0 0 1-.723-1.259 4.45 4.45 0 0 1 0-2.905q.245-.712.711-1.259a3.6 3.6 0 0 1 1.143-.887q.678-.338 1.516-.338c.838 0 1.062.113 1.504.338q.665.339 1.143.898.478.56.723 1.271a4.4 4.4 0 0 1 0 2.893m16.338-12.039q-.745 0-1.423.245-.675.245-1.201.758-.524.513-.839 1.318-.315.804-.315 1.901v.887h-1.96v1.749h1.96v9.486h2.099v-9.486h3.102v-1.749h-3.102v-.7q0-1.422.549-2.006.548-.583 1.457-.583.98 0 1.843.723l1.05-1.353a4.1 4.1 0 0 0-1.528-.921 5.5 5.5 0 0 0-1.692-.268Zm16.422 14.376q-.398.187-1.004.186-.746 0-1.154-.49-.409-.49-.408-1.796v-5.342h3.173v-1.749h-3.173v-3.545h-2.099v3.545h-1.96v1.749h1.96v5.552q0 1.983.805 2.915.804.933 2.531.933.978 0 1.691-.291.711-.291 1.387-.945l-.956-1.282a3.1 3.1 0 0 1-.793.56m21.164-.529-2.614-8.35h-1.795l-2.612 8.28-2.426-8.28h-2.31l3.662 10.846h1.96l2.495-7.581 2.52 7.581h2.075l3.593-10.846h-2.17zm21.808.047v-5.131q0-1.867-1.201-2.881-1.202-1.015-3.3-1.015-.887 0-1.563.129c-.676.129-.856.194-1.213.326a6 6 0 0 0-.933.432q-.397.234-.676.467l.979 1.423a7.7 7.7 0 0 1 1.213-.688q.723-.338 1.96-.338 1.26 0 1.994.524.735.526.735 1.738v.396a4 4 0 0 0-.396-.047 40 40 0 0 0-.654-.047l-.793-.047q-.42-.023-.793-.023-2.31 0-3.534 1.049c-1.224 1.049-1.225 1.633-1.225 2.799q0 .933.339 1.575.337.642.886 1.049.547.409 1.213.583.665.175 1.341.175 1.05 0 2.041-.396a3.6 3.6 0 0 0 1.597-1.213l.015 1.609h1.99c-.016-.265-.024-.89-.024-1.271v-1.178Zm-2.006-1.75q0 .49-.256.956a2.9 2.9 0 0 1-.677.816q-.42.35-.967.56-.549.21-1.155.21-1.073 0-1.679-.455c-.606-.455-.606-.75-.606-1.341q0-.35.117-.734.116-.385.431-.7.314-.315.864-.524.547-.21 1.435-.21.372 0 .769.023.396.024.747.047.348.023.618.058.268.036.361.058v1.237Zm17.833-7.253q-.748 0-1.318.198a4.6 4.6 0 0 0-1.004.478 3.6 3.6 0 0 0-.734.618 6 6 0 0 0-.491.618l-.07-1.749h-2.006q.024.537.024 1.038v1.178l-.024 9.073h2.099l.024-6.157a3.47 3.47 0 0 1 .909-2.344q.419-.454.991-.711a3 3 0 0 1 1.248-.257q.654 0 1.072.163l.467-1.96a3 3 0 0 0-.549-.14 4 4 0 0 0-.641-.047Zm19.821 3.917a6.1 6.1 0 0 0-.944-2.029 4.8 4.8 0 0 0-1.645-1.423q-1.004-.537-2.402-.537a5.3 5.3 0 0 0-2.182.444q-.991.443-1.714 1.201c-.723.758-.856 1.105-1.12 1.796a6.2 6.2 0 0 0-.396 2.228q0 1.306.408 2.379a5.3 5.3 0 0 0 1.155 1.842q.746.77 1.796 1.19t2.309.42a7 7 0 0 0 1.831-.222 7.4 7.4 0 0 0 1.399-.525q.594-.302.969-.629.372-.326.559-.537l-1.189-1.259q-.397.443-1.282.91-.887.467-2.263.467-.7 0-1.33-.257-.63-.256-1.12-.7c-.49-.444-.587-.645-.781-1.049a3.3 3.3 0 0 1-.315-1.33h8.56q0-1.236-.303-2.379Zm-8.257.816q.024-.583.256-1.131.234-.549.654-.968c.42-.419.618-.505 1.015-.677a3.35 3.35 0 0 1 1.341-.257q1.445 0 2.239.887.792.886.886 2.146zm-295.025 9.55a38 38 0 0 1-2.419-.781c-9.389-3.382-17.224-10.45-22.063-19.9l-.113-.247c-.44-.968-.896-1.97-1.271-2.993a44 44 0 0 1-1.962-6.733 47 47 0 0 1-.84-6.972 44.3 44.3 0 0 1 .231-7.019c.994-9.258 4.779-18.338 10.657-25.567 1.596-1.958 3.168-3.627 4.805-5.102 1.91-1.736 3.706-3.157 5.49-4.344a45 45 0 0 1 6.079-3.456 44.6 44.6 0 0 1 6.426-2.422l-.002-.021.161-.023.327-.093v-.019l.148-.019c5.025-1.349 10.121-1.745 15.144-1.174a1 1 0 0 1 .073.008l.369.047c.252.031.503.062.724.1 11.279 2.071 20.353 7.689 26.242 16.249a41 41 0 0 1 2.326 3.758l.12-.064c-2.023-5.856-5.918-11.44-10.991-15.749l-.98-.804-1.008-.763a39 39 0 0 0-2.087-1.443 30 30 0 0 0-2.186-1.307L69.91 4.9c-.717-.374-1.458-.76-2.207-1.09-2.878-1.357-6.09-2.383-9.556-3.052-5.721-1.104-11.689-1.001-17.26.297h-.001l-.001-.005-.426.097V1.14c-.958.226-1.916.484-2.86.771-5.7 1.73-10.994 4.447-15.309 7.858l-1.212.965c-.545.433-1.035.826-1.509 1.257-1.807 1.536-3.563 3.329-5.534 5.649-1.864 2.211-3.379 4.31-4.631 6.417-1.475 2.455-2.658 4.765-3.616 7.061a52 52 0 0 0-2.522 7.531 55 55 0 0 0-1.367 7.837c-.231 2.241-.284 4.552-.162 7.065.536 11.056 4.516 21.228 11.206 28.643 6.973 7.728 16.212 12.557 26.014 13.597 9.008.953 18.494-1.364 26.07-6.367l-.125-.267c-8.681 4.346-18.978 5.311-28.306 2.642Z"/><path fill="#fff" d="M74.015 65.92a112 112 0 0 1-3.279 2.307c.055 1.013.055 2.671.051 4.154v.764c0 5.139-.695 8.611-1.584 11.282a31 31 0 0 1-.686 1.851c3.569-1.649 7.469-4.633 9.459-6.848q.195-1.209.341-2.362c.764-5.945.617-10.767.253-15.082-1.211 1.165-3.205 2.97-4.554 3.933Zm13.438-35.653c-1.133 3.564-3.187 7.529-4.775 10.596l-.129.249a38 38 0 0 1-5.029 7.345q-.001.007-.009.014l-.12.147c-.046.055-.092.115-.138.17l-.041.042a62 62 0 0 1-2.897 2.827 49 49 0 0 1-3.15 2.629 67 67 0 0 1-2.27 1.649l-.76.534-.028.018q-.373.264-.746.534c-.875.631-1.787 1.285-2.758 1.847-.428.249-.875.507-1.326.755l-.378.203c-.631.341-1.349.705-2.201 1.11a4 4 0 0 1-.493.235c-1.644.769-4.95 2.068-5.093 2.123-3.113 1.147-7.787 2.588-12.424 2.956-1.828.14-3.192.067-4.185-.076-1.078-.288-1.868-.602-2.433-.88-.011-.05-.025-.095-.036-.145l-.005-.023q-.026-.119-.046-.23c-.041-.207-.078-.424-.115-.64a8 8 0 0 1-.111-1.05 16 16 0 0 1 .018-1.888v-.005c.046-.695.12-1.414.23-2.192.124-.824.267-1.644.438-2.455.175-.857.382-1.755.622-2.657.23-.884.497-1.801.815-2.809.299-.944.631-1.92.995-2.906.373-.995.764-1.985 1.174-2.943a64 64 0 0 1 1.345-2.924c.479-.967.99-1.93 1.51-2.846a43 43 0 0 1 1.667-2.712 39 39 0 0 1 1.828-2.524c.64-.81 1.308-1.575 1.98-2.275a27 27 0 0 1 1.391-1.334q.702-.485 1.387-.897c1.307 1.115 2.622 2.221 3.889 3.382a65 65 0 0 1 3.042 2.977 59 59 0 0 1 3.239 3.678 49 49 0 0 1 3.111 4.295 39 39 0 0 1 2.66 4.828 31 31 0 0 1 1.884 5.276c.005.023.014.046.018.069a47 47 0 0 0 4.499-3.619 60 60 0 0 0 2.528-2.45l-.032-.074a44 44 0 0 0-1.243-2.606q-.048-.102-.083-.17l-.097-.17C69.041 34.894 58.809 25.37 54.72 22.386c-1.359-.99-4.96-3.62-7.829-1.879l-.161.097c-1.581.981-3.15 2.26-4.69 3.797-.019.008-.042.023-.061.035l-.005.004c-.108.111-.213.23-.32.344-.067.069-.135.13-.201.2q.008 0 .017-.002a47 47 0 0 0-1.877 2.128c-.018.01-.038.026-.055.038l-.005.005c-.235.285-.461.591-.691.886q-.211.267-.419.538c-.137.181-.275.357-.41.541-.139.185-.281.365-.419.553l.027.002c-6.615 9.268-11.193 22.351-10.886 31.738.152 4.623 1.575 8.119 4.232 10.384 2.155 1.833 4.914 2.998 8.206 3.458 1.369.193 2.864.255 4.46.198l.027.025c.205-.013.421-.043.628-.058.205-.011.405-.016.613-.031h.023l-.044-.023a53 53 0 0 0 2.542-.272q.025.012.049.019h.018l.097.005a50 50 0 0 0 2.432-.418l.021-.003a54 54 0 0 0 1.551-.31v-.016a57 57 0 0 0 2.779-.693c3.744-1.041 9.915-3.279 14.985-6.171.074-.051.166-.11.253-.17a109 109 0 0 0 3.578-2.51c1.713-1.22 4.573-3.933 5.227-4.614l.659-.668q.27-.261.534-.53c3.716-3.735 6.691-7.875 8.865-12.323a47 47 0 0 0 1.358-3.099c.235-1.05.378-2.095.451-3.127.327-4.789-.953-9.219-2.436-11.554-.111.442-.244.898-.391 1.359Z"/></svg>