<svg xmlns="http://www.w3.org/2000/svg" xmlns:xlink="http://www.w3.org/1999/xlink" viewBox="0 0 170 48"><defs><linearGradient id="f" x1="33.075" x2="36.392" y1="12.671" y2="42.761" gradientUnits="userSpaceOnUse"><stop offset=".539" stop-color="#ffb549"/><stop offset=".669" stop-color="#ff8f1c"/><stop offset=".888" stop-color="#e35205"/><stop offset="1" stop-color="#c63527"/></linearGradient><linearGradient id="g" x1="22.398" x2="42.425" y1="11.237" y2="34.179" gradientUnits="userSpaceOnUse"><stop offset="0" stop-color="#c63527"/><stop offset=".103" stop-color="#e35205"/><stop offset=".444" stop-color="#ff8f1c"/><stop offset=".741" stop-color="#ffb549"/></linearGradient><linearGradient id="a" x1="20.393" x2="20.828" y1="36.727" y2="36.727" gradientUnits="userSpaceOnUse"><stop offset=".162" stop-color="#d5411f"/><stop offset=".282" stop-color="#df581f"/><stop offset=".449" stop-color="#ec731f"/><stop offset=".597" stop-color="#f3831f"/><stop offset=".712" stop-color="#f6891f"/><stop offset="1" stop-color="#f6891f"/></linearGradient><linearGradient xlink:href="#a" id="h" x1="22.799" x2="22.857" y1="37.884" y2="37.884"/><linearGradient id="i" x1="15.745" x2="25.069" y1="36.004" y2="14.21" gradientUnits="userSpaceOnUse"><stop offset="0" stop-color="#c63527"/><stop offset=".199" stop-color="#e35205"/><stop offset=".622" stop-color="#ff8f1c"/><stop offset="1" stop-color="#ffb549"/></linearGradient><linearGradient id="j" x1="20.443" x2="45.448" y1="37.424" y2="18.199" gradientUnits="userSpaceOnUse"><stop offset="0" stop-color="#ffb549"/><stop offset=".311" stop-color="#ff8f1c"/><stop offset=".751" stop-color="#e35205"/><stop offset="1" stop-color="#c63527"/></linearGradient><linearGradient id="k" x1="20.589" x2="23.165" y1="37.305" y2="37.305" gradientUnits="userSpaceOnUse"><stop offset="0" stop-color="#f6891f"/><stop offset=".207" stop-color="#f4841f"/><stop offset=".429" stop-color="#ee771f"/><stop offset=".658" stop-color="#e4621f"/><stop offset=".89" stop-color="#d6441f"/><stop offset=".915" stop-color="#d5411f"/></linearGradient><radialGradient id="b" cx="30.702" cy="15.555" r="24.485" fx="30.702" fy="15.555" gradientTransform="rotate(116.912 30.84 15.78)scale(1 1.029)" gradientUnits="userSpaceOnUse"><stop offset=".045" stop-color="#8dc8e8"/><stop offset=".472" stop-color="#62b5e5"/><stop offset=".805" stop-color="#009cde"/><stop offset=".933" stop-color="#004c97"/><stop offset="1" stop-color="#003865"/></radialGradient><radialGradient id="c" cx="18.119" cy="2.62" r="41.259" fx="18.119" fy="2.62" gradientTransform="matrix(-.94144 -.22088 .21828 -.94204 54.391 39.14)" gradientUnits="userSpaceOnUse"><stop offset=".339" stop-color="#c63527"/><stop offset=".431" stop-color="#e35205"/><stop offset=".728" stop-color="#ff8f1c"/><stop offset=".96" stop-color="#ffb549"/></radialGradient><radialGradient id="d" cx="33.924" cy="14.225" r="26.318" fx="33.924" fy="14.225" gradientUnits="userSpaceOnUse"><stop offset="0" stop-color="#0084ca"/><stop offset=".8" stop-color="#002554"/></radialGradient><radialGradient id="e" cx="51.081" cy="-26.166" r="77.741" fx="51.081" fy="-26.166" gradientUnits="userSpaceOnUse"><stop offset=".464" stop-color="#009cde"/><stop offset=".793" stop-color="#004c97"/><stop offset=".879" stop-color="#003865"/></radialGradient></defs><path fill="#e35205" d="M75.985 17.443a5.44 5.44 0 0 0-1.482-2.666c-.894-.922-2.115-1.55-3.629-1.867-1.41-.298-3.593-.443-6.671-.443-3.99 0-6.696.368-8.272 1.126-1.639.786-2.561 2.268-2.666 4.285l-.05.97h5.215l.186-.678c.093-.336.26-.531.56-.651.392-.158 1.593-.422 5.248-.422 2.161 0 3.702.095 4.582.282.732.156 1.263.43 1.579.813q.076.095.124.181c.194.336.414.96.451 2.112a6 6 0 0 0-1.296-.403c-1.225-.239-3.61-.356-7.292-.356-4.817 0-6.31.396-7.015.695-1.111.484-1.912 1.205-2.39 2.148-.448.893-.666 2.063-.666 3.58 0 1.24.139 2.206.426 2.951.313.806.871 1.5 1.659 2.064.794.588 1.857.958 3.25 1.133 1.265.158 3.462.238 6.532.238 2.805 0 4.708-.153 5.817-.468q.512-.146.977-.384l-.02.793h5.149V22.042c0-1.954-.079-3.352-.242-4.277a6 6 0 0 0-.063-.323Zm-5.021 8.687c0 .904-.369 1.173-.731 1.317-.521.207-1.861.455-5.278.455-5.299 0-6.316-.282-6.502-.369-.287-.137-.623-.414-.623-1.328 0-.743.174-1.222.518-1.424.069-.039.406-.194 1.441-.29.84-.075 2.389-.113 4.6-.113 3.623 0 5.098.267 5.697.491.625.232.878.597.878 1.261m9.304-21.79v28.154h5.144V4.34zm33.492 12.934c-.536-1.437-1.534-2.595-2.961-3.434-.919-.53-2.022-.883-3.377-1.081-1.281-.184-3.087-.273-5.523-.273-2.897 0-4.903.18-6.133.55q-.591.18-1.103.455v-.86h-5.145v31.895h5.145V31.553q.543.28 1.172.458c1.228.352 3.117.523 5.771.523 3.581 0 6.061-.217 7.582-.662 1.638-.479 2.956-1.478 3.917-2.97.927-1.438 1.377-3.527 1.377-6.387 0-1.988-.199-3.627-.593-4.87a7 7 0 0 0-.13-.373Zm-4.607 5.319c0 1.383-.125 2.453-.371 3.18-.218.634-.54 1.09-.983 1.39-.254.168-.788.404-1.852.547-.937.129-2.421.194-4.414.194-3.522 0-4.92-.365-5.472-.672l-.007-.004-.007-.004c-.502-.267-.853-.706-1.076-1.342-.264-.754-.397-1.947-.397-3.545 0-1.344.124-2.388.369-3.101.106-.302.234-.561.389-.786a2.3 2.3 0 0 1 .586-.599c.243-.164.778-.397 1.883-.539 1.003-.129 2.598-.194 4.741-.194 3.268 0 4.597.363 5.137.668l.008.005.008.005c.306.165.548.379.739.656q.202.29.33.66c.258.737.389 1.908.389 3.483Zm32.698-4.92c-.237-1.062-.718-1.985-1.43-2.739l-.007-.007-.007-.007c-.846-.857-2.005-1.459-3.448-1.79-1.36-.311-3.242-.463-5.755-.463-2.991 0-5.124.214-6.519.655a6.5 6.5 0 0 0-1.338.591V4.34h-5.145v28.154h5.145v-9.283c0-1.947.094-2.806.173-3.183a2.6 2.6 0 0 1 .635-1.221q.026-.03.045-.049l.008-.008.01-.011c.433-.458 1.116-.809 2.028-1.042 1.054-.266 2.606-.401 4.611-.401 1.775 0 3.109.099 3.966.296.708.165 1.206.418 1.475.753.062.079.117.157.156.225l.008.013.008.013c.187.298.315.646.39 1.065.111.612.168 1.806.168 3.55v9.283h5.148V22.349c0-1.985-.089-3.425-.271-4.402a4 4 0 0 0-.055-.274Zm27.06.098a5.42 5.42 0 0 0-1.547-2.998c-.892-.918-2.115-1.547-3.629-1.863-1.406-.298-3.588-.443-6.668-.443-3.989 0-6.695.368-8.275 1.126-1.64.788-2.562 2.27-2.667 4.285l-.05.97h5.218l.186-.678c.093-.337.259-.532.556-.651.393-.158 1.594-.422 5.252-.422 2.161 0 3.702.095 4.582.282.732.156 1.263.43 1.579.813.043.053.085.116.121.181.194.336.414.959.451 2.111a6 6 0 0 0-1.295-.402c-1.225-.239-3.609-.356-7.289-.356-4.817 0-6.31.396-7.015.695-1.116.486-1.918 1.208-2.391 2.151-.449.895-.668 2.065-.668 3.577 0 1.235.141 2.2.429 2.951.308.803.865 1.498 1.656 2.065.794.588 1.858.958 3.253 1.133 1.261.158 3.459.238 6.532.238 2.806 0 4.708-.153 5.814-.468q.512-.146.976-.383l-.02.792h5.152V22.043c0-1.955-.08-3.353-.244-4.272Zm-5.086 8.359c0 .905-.368 1.174-.728 1.317-.521.207-1.861.455-5.278.455-5.299 0-6.316-.282-6.502-.369-.287-.137-.623-.414-.623-1.328 0-1.122.387-1.349.515-1.424.09-.051.438-.197 1.444-.29.838-.075 2.385-.113 4.597-.113 3.622 0 5.1.267 5.701.492.621.23.874.596.874 1.261Z"/><path fill="#004c97" d="M100.009 42.448q.163.186.368.379a2.56 2.56 0 0 0 1.032.589q.315.093.688.094.77 0 1.201-.35.43-.35.431-.944 0-.641-.49-.962t-1.411-.519a4.3 4.3 0 0 1-.91-.291q-.408-.186-.706-.467c-.298-.281-.352-.402-.461-.647a2 2 0 0 1-.163-.834q0-.431.163-.816c.163-.385.272-.482.49-.677q.327-.292.816-.466a3.4 3.4 0 0 1 1.131-.175q.571 0 .985.122.414.123.706.297c.292.174.35.237.467.362q.175.186.268.303l-.746.688a4 4 0 0 0-.21-.216q-.14-.134-.356-.262a1.8 1.8 0 0 0-.501-.216q-.286-.087-.659-.087c-.373 0-.463.033-.642.099a1.4 1.4 0 0 0-.443.257 1 1 0 0 0-.257.355 1 1 0 0 0-.081.397q0 .292.122.496t.356.362c.234.158.348.195.578.268q.344.111.787.216.432.105.846.274t.74.455q.327.286.519.7t.192 1.009q0 .502-.21.921t-.577.729c-.367.309-.535.366-.869.478a3.4 3.4 0 0 1-1.085.169q-.549 0-.997-.128a4 4 0 0 1-.816-.327 3.5 3.5 0 0 1-.641-.437 3 3 0 0 1-.45-.472l.793-.723Zm11.546 2.088q-.63 0-1.154-.227c-.524-.227-.651-.36-.904-.624a2.9 2.9 0 0 1-.595-.916q-.216-.519-.216-1.114c0-.595.072-.768.216-1.114a3 3 0 0 1 .595-.916q.38-.396.904-.624c.524-.228.734-.227 1.154-.227a2.8 2.8 0 0 1 2.053.851 2.9 2.9 0 0 1 .817 2.03 2.87 2.87 0 0 1-.817 2.03 2.8 2.8 0 0 1-2.053.851m0-.91q.42 0 .758-.169.339-.169.572-.443c.233-.274.274-.393.356-.63a2.18 2.18 0 0 0 0-1.446 1.9 1.9 0 0 0-.362-.635 1.8 1.8 0 0 0-.572-.449q-.332-.17-.752-.169c-.42.001-.532.056-.758.169q-.339.17-.572.443a1.5 1.5 0 0 0-.356.63 2.24 2.24 0 0 0 0 1.452q.122.35.362.63.239.28.572.449.333.17.752.169Zm7.966-3.833h-.98v-.875h.98v-.443a2.6 2.6 0 0 1 .158-.95 1.9 1.9 0 0 1 .419-.659q.262-.256.601-.379t.711-.122q.432 0 .846.134.413.135.764.461l-.525.677q-.431-.362-.921-.362-.454 0-.729.291-.274.292-.274 1.003v.35h1.551v.875h-1.551v4.743h-1.049zm7.767.039h-.98v-.875h.98v-1.773h1.049v1.773h1.586v.875h-1.586v2.671q0 .653.204.898t.577.245q.303 0 .502-.093c.199-.093.264-.156.396-.28l.478.641a2.2 2.2 0 0 1-.694.473 2.2 2.2 0 0 1-.845.146q-.864 0-1.265-.467-.402-.467-.402-1.458zm7.036-.719h1.155l1.213 4.14 1.306-4.14h.898l1.307 4.175 1.189-4.175h1.085l-1.796 5.423h-1.038l-1.26-3.79-1.248 3.79h-.98zm15.791 4.618a1.8 1.8 0 0 1-.799.606 2.7 2.7 0 0 1-1.021.198q-.339 0-.671-.088a1.7 1.7 0 0 1-.606-.291 1.5 1.5 0 0 1-.443-.525q-.17-.32-.169-.787 0-.875.612-1.4c.612-.525.997-.525 1.767-.525q.187 0 .396.011l.396.023.327.023q.14.012.198.023v-.198q0-.606-.368-.869-.367-.262-.997-.262-.618 0-.98.169a4 4 0 0 0-.606.344l-.49-.711q.14-.117.338-.233.198-.117.467-.216a3.8 3.8 0 0 1 1.388-.227q1.05 0 1.65.507t.601 1.441v3.155c0 .191.004.503.012.636h-.995l-.008-.805Zm-.011-1.913a2 2 0 0 0-.18-.029 6 6 0 0 0-.309-.029l-.373-.024a6 6 0 0 0-.385-.011q-.444 0-.717.105a1.2 1.2 0 0 0-.432.262.8.8 0 0 0-.215.35 1.3 1.3 0 0 0-.058.367q0 .444.303.671c.303.227.482.227.839.227q.303 0 .578-.105a1.7 1.7 0 0 0 .484-.28q.21-.175.339-.408a1 1 0 0 0 .128-.478v-.618Zm6.117-1.819v-.589q0-.25-.012-.519h1.003l.035.875q.093-.14.245-.309.15-.17.367-.309a2.3 2.3 0 0 1 .502-.239q.285-.099.659-.099.174 0 .32.023.145.024.274.07l-.234.98a1.5 1.5 0 0 0-.536-.082 1.5 1.5 0 0 0-.624.128q-.286.129-.496.356c-.21.227-.251.328-.332.531a1.7 1.7 0 0 0-.123.642l-.012 3.078h-1.049L156.22 40Zm12.721 3.568q-.094.105-.28.268a2.4 2.4 0 0 1-.484.315q-.297.152-.7.263c-.403.111-.574.111-.916.111q-.63 0-1.154-.21a2.55 2.55 0 0 1-1.476-1.516 3.3 3.3 0 0 1-.204-1.19q0-.595.198-1.114t.56-.898c.362-.379.527-.453.857-.601a2.6 2.6 0 0 1 1.091-.222q.699 0 1.201.268a2.4 2.4 0 0 1 .822.711q.32.443.472 1.015c.152.572.152.777.152 1.19h-4.28q.012.362.158.665.145.303.391.525c.246.222.35.264.56.35q.315.128.665.128.688 0 1.131-.233t.641-.455zm-.944-2.39a1.77 1.77 0 0 0-.443-1.073q-.397-.443-1.12-.443a1.62 1.62 0 0 0-1.178.466 1.5 1.5 0 0 0-.327.484q-.116.274-.128.566z"/><path fill="none" d="m32.052 28.376-.148.094.002.012q.074-.053.146-.106"/><path fill="url(#b)" d="M44.475 24.241a23 23 0 0 1-.205 2.065c-.018.14-.041.276-.064.417l-.002.016q-.007.035-.009.071-.036.214-.078.424a22.6 22.6 0 0 1-2.839 7.416c-.087.145-.175.292-.272.437l-.025.039q-.139.217-.283.437a22.3 22.3 0 0 1-5.627 5.793l-.007.002c-.15.108-.292.212-.444.309-.035.023-.06.046-.094.069h-.009c-.152.104-.297.203-.451.299h-.009a20.5 20.5 0 0 1-2.897 1.524q-.875.376-1.766.659-.003 0-.007.005a20 20 0 0 1-2.171.566l-.007.002q-.078.014-.152.025s-.005.005-.007.005q-.202.037-.405.071c-.06.009-.113.018-.173.025h-.007c-.131.023-.258.046-.391.064h-.002l-.191.023h-.005q-.134.018-.265.032h-.002q-.307.038-.61.06c-.051.007-.099.009-.15.014a18.5 18.5 0 0 1-5.869-.493q-.196-.047-.394-.101l-.295-.083-.032-.009c-.101-.03-.2-.058-.302-.094q-.018-.004-.039-.012a17.5 17.5 0 0 1-4.294-2.011q-.013-.008-.025-.018c-.071-.046-.145-.097-.216-.145a17.4 17.4 0 0 1-3.074-2.595q-.097-.102-.191-.207-.152-.169-.302-.341-.097-.111-.191-.226l-.055-.067a16 16 0 0 1-.242-.29 18 18 0 0 1-.688-.919c-4.577-6.514-4.589-15.257-.705-22.258v-.002l.002-.005q.162-.296.338-.585.003 0 .002-.005a22.4 22.4 0 0 1 5.643-6.346l.002-.002.044-.032a20.9 20.9 0 0 1 6.574-3.387c.087-.03.18-.055.269-.083l.168-.048h.005l.154-.041.002-.002c.067-.018.127-.032.189-.046s.122-.03.189-.048l-.012.007a19.1 19.1 0 0 1 6.809-.46h.002q.1.011.2.025l.276.035q.096.013.193.03h.002q.637.095 1.259.239a22 22 0 0 1 1.391.37 13 13 0 0 1 .534.177 17.7 17.7 0 0 1 8.142 5.784q.119.145.235.297l.286.385a19 19 0 0 1 1.745 2.948 19.3 19.3 0 0 1 1.379 3.926q.014.056.025.111l.083.373q.081.388.147.783c.035.203.071.41.094.612q.076.546.12 1.094c.083.958.101 1.927.048 2.894Z"/><path fill="url(#c)" d="M41.564 10.658c.418.6.809 1.232 1.163 1.879l.06-.032c-1.012-2.928-2.959-5.72-5.495-7.875l-.49-.402-.504-.381a20 20 0 0 0-1.043-.721c-.34-.219-.707-.45-1.093-.653l-.043-.022c-.358-.187-.729-.38-1.103-.545C31.577 1.228 29.971.715 28.238.38a20.9 20.9 0 0 0-8.63.148s0-.003 0-.003l-.213.048V.569a24 24 0 0 0-1.43.385c-2.85.865-5.497 2.224-7.655 3.929l-.606.483c-.273.216-.517.413-.754.629-.903.768-1.781 1.664-2.767 2.824-.932 1.105-1.689 2.155-2.315 3.208a27 27 0 0 0-1.808 3.53 26 26 0 0 0-1.261 3.765 27.4 27.4 0 0 0-.683 3.919 23 23 0 0 0-.081 3.532c.268 5.528 2.258 10.614 5.603 14.322 3.486 3.864 8.106 6.279 13.007 6.798 4.504.477 9.247-.682 13.035-3.183l-.063-.134c-4.34 2.173-9.489 2.656-14.153 1.321a19 19 0 0 1-1.21-.391c-4.694-1.691-8.612-5.225-11.032-9.95l-.056-.124c-.22-.484-.448-.985-.636-1.496a22 22 0 0 1-.981-3.366 23.4 23.4 0 0 1-.42-3.486 22 22 0 0 1 .115-3.51A24.7 24.7 0 0 1 8.572 10.79a23 23 0 0 1 2.402-2.551c.955-.868 1.853-1.579 2.745-2.172a22.5 22.5 0 0 1 3.04-1.728 22.3 22.3 0 0 1 3.213-1.211v-.011l.08-.012.163-.046v-.01l.074-.01a20.3 20.3 0 0 1 7.572-.587l.037.004.185.023c.126.016.252.031.362.05 5.64 1.035 10.176 3.845 13.121 8.125Z"/><path fill="none" d="m32.224 28.323-.148.094.002.012q.074-.053.146-.106"/><path fill="url(#d)" d="M32.17 5.035a16 16 0 0 1 2.406 1.257q.007-.001.009-.002a15.7 15.7 0 0 0-2.415-1.255"/><path fill="url(#e)" d="M40.236 26.907c.484-2.62.61-5.245.403-7.741 1.552.203 2.729.092 3.426-.309l-.083-.373q-.011-.055-.025-.111c-.682.403-1.831.516-3.359.318h-.002c-.256-2.475-.847-4.815-1.768-6.875.852.108 1.485.044 1.851-.189q.034-.023.064-.046h.002a1 1 0 0 0 .087-.081l-.286-.385a1 1 0 0 1-.097.09h-.002a1 1 0 0 1-.06.041h-.002c-.343.219-.942.286-1.738.18h-.002c-.797-1.672-1.814-3.15-3.053-4.356l-.018-.002c1.193 1.2 2.162 2.671 2.915 4.336a12 12 0 0 1-2.107-.548 20 20 0 0 1-.882-.332c.085-1.418.007-2.627-.246-3.553l-.023-.009c.191.9.203 2.082.06 3.475a22 22 0 0 1-3.143-1.63c1.02-.937 1.948-1.63 2.747-2.017q-.01-.009-.021-.014c-.852.35-1.835 1.009-2.908 1.918-.96-.612-1.801-1.264-2.422-1.886 1.75-.378 3.461-.474 5.07-.235q-.005-.005-.014-.014c-1.644-.274-3.392-.219-5.174.131a5 5 0 0 1-.734-.928q-.24-.408-.269-.716a18.9 18.9 0 0 1 6.069 1.338v-.011a19 19 0 0 0-6.076-1.405v-.002c-.005-.345.196-.589.569-.718q-.097-.017-.193-.03l-.276-.035c-.38.145-.578.401-.573.757q-.001.039.005.085.033.33.288.762c.187.313.451.645.781.988-2.167.474-4.372 1.375-6.507 2.625h-.002v-.002c-.608-.631-1.098-1.241-1.441-1.821-.315-.532-.488-1.002-.53-1.407a21 21 0 0 1 7.409-1.144q-.003-.045-.002-.085a20.8 20.8 0 0 0-7.419 1.073c-.009-.599.417-1.129.993-1.403-.131.037-.247.061-.378.096-.615.279-1.082.84-1.071 1.469l.009.159q.06.626.546 1.439c.35.594.854 1.225 1.476 1.87l.115.12-.117-.12a30.6 30.6 0 0 0-6.023 4.844c-.813-.84-1.464-1.66-1.927-2.431-.421-.709-.649-1.338-.707-1.877a22.6 22.6 0 0 1 6.636-3.845q-.005-.081-.009-.159a22.2 22.2 0 0 0-6.638 3.792c-.009-.571.323-1.487.719-1.837l-.225.169c-.428.359-.881 1.391-.872 1.99q0 .104.014.212c.055.543.288 1.179.714 1.897.463.778 1.124 1.607 1.946 2.459l.152.159-.154-.157a31.6 31.6 0 0 0-4.748 6.581c-.893-.926-1.609-1.826-2.111-2.673-.465-.781-.718-1.469-.781-2.061a22.5 22.5 0 0 1 4.98-6.205 2 2 0 0 1-.011-.212 22.3 22.3 0 0 0-4.98 6.185c-.007-.332.092-1.51.205-1.821q-.176.289-.338.585-.002.004-.002.005v.002c-.106.626-.168 1.144-.12 1.711a21 21 0 0 0-2.245 7.46l.002-.131-.037.401q-.009.103-.007.21.002.103.014.21c.055.543.288 1.17.709 1.886.461.776 1.119 1.6 1.936 2.448q.151.153.306.311c1.644 1.635 3.854 3.35 6.376 4.962-.718 1.964-1.17 3.663-1.349 5.036-1.946-1.243-3.654-2.565-4.923-3.829-.424-1.844-.47-3.93-.104-6.168q-.158-.158-.309-.311c-.345 2.254-.281 4.368.177 6.238-.631-.654-1.137-1.287-1.494-1.886a5 5 0 0 1-.403-.834l.127.385q.134.392.403.845c.348.585.845 1.207 1.46 1.844.267.967.638 1.867 1.114 2.682l.055.067q.097.119.198.237l-.007-.011a10.7 10.7 0 0 1-1.128-2.74c1.236 1.234 2.901 2.521 4.801 3.739-.104.944-.067 1.715.111 2.289q.012.011.025.018l.232.148c-.143-.548-.14-1.299-.005-2.227a43.6 43.6 0 0 0 6.244 3.235c-.546.477-1.05.831-1.51 1.052q.196.054.394.101.718-.319 1.531-.983a37 37 0 0 0 1.748.659q1.474.508 2.74.804.303-.022.61-.06a27 27 0 0 1-3.108-.896 37 37 0 0 1-1.789-.672c1.066-.914 2.243-2.24 3.472-3.94h.002q1.163.471 2.319.873c2.098.73 3.967 1.209 5.561 1.451-1.156 1.089-2.369 1.976-3.613 2.646q.469-.124.935-.276.003-.004.007-.005a17.8 17.8 0 0 0 3.076-2.309q.854.11 1.586.127h.009c.154-.097.299-.196.451-.299a14 14 0 0 1-1.725-.129c1.669-1.621 3.191-3.656 4.469-6.076 1.361.175 2.517.182 3.438.032q.145-.22.283-.437l.025-.039c-.932.166-2.111.161-3.502-.021h-.002a30.3 30.3 0 0 0 2.641-7.663l-.203-.028q.102.014.203.025c1.688.219 3.037.157 3.974-.168a11 11 0 0 0 .087-.495l.002-.016c-.928.336-2.275.403-3.97.184Zm-.403-.06c-1.586-.239-3.447-.716-5.533-1.439a53 53 0 0 1-2.307-.87 70 70 0 0 0 2.319-7.186h.002a40 40 0 0 0 1.768.668c1.603.555 3.032.921 4.246 1.105a30.2 30.2 0 0 1-.495 7.723Zm-24.34 7.792c.774-1.978 1.801-4.216 3.062-6.643a64 64 0 0 0 9.054 4.69c-1.271 2.42-2.542 4.536-3.744 6.29a59 59 0 0 1-8.37-4.336zv-.002Zm12.355-2.418a63.4 63.4 0 0 1-9.049-4.688h-.002a97 97 0 0 1 4.128-7.064h.002a59 59 0 0 0 8.328 4.315 88 88 0 0 1-3.408 7.437Zm-4.646-12.18H23.2a85 85 0 0 1 4.368-6.141 44.5 44.5 0 0 0 6.325 3.279 77 77 0 0 1-2.445 7.133 58 58 0 0 1-8.245-4.271Zm13.212-8.833c.85.295 1.603.488 2.245.585.87 2.056 1.416 4.384 1.632 6.857-1.188-.18-2.579-.536-4.142-1.08-.573-.2-1.149-.414-1.727-.652h-.002c.562-2.243.926-4.303 1.057-6.063q.471.19.937.352ZM31.91 9.03a24 24 0 0 0 3.348 1.734c-.203 1.729-.629 3.767-1.243 5.989a43 43 0 0 1-6.171-3.198h-.002c1.43-1.796 2.814-3.341 4.066-4.524zm-2.772-2.125v-.002c.665.661 1.559 1.352 2.574 2.003-1.315 1.149-2.752 2.653-4.23 4.423-1.877-1.202-3.525-2.478-4.748-3.698 2.107-1.278 4.276-2.213 6.403-2.726ZM22.329 9.88h.002c1.253 1.25 2.943 2.558 4.865 3.788a76 76 0 0 0-4.478 6.069c-2.51-1.605-4.709-3.309-6.341-4.937a31.5 31.5 0 0 1 5.952-4.92m-6.299 5.293h.002c1.649 1.644 3.873 3.366 6.406 4.987a86 86 0 0 0-4.165 7.039c-2.754-1.761-5.172-3.629-6.963-5.42a32.7 32.7 0 0 1 4.72-6.606M6.301 26.534c-.431-.721-.665-1.358-.721-1.904v-.012c.263-2.489 1.002-5.015 2.254-7.446q.014.103.032.21c.113.659.41 1.276.746 1.847.504.847 1.223 1.748 2.116 2.673-1.257 2.434-2.075 4.835-2.473 7.106-.824-.854-1.492-1.688-1.955-2.473Zm2.266 2.788-.002-.002c.417-2.256 1.241-4.644 2.496-7.078 1.798 1.789 4.214 3.659 6.967 5.42-1.264 2.427-2.275 4.674-3.026 6.666-2.544-1.623-4.778-3.352-6.436-5.006Zm11.72 13.972a45 45 0 0 1-6.396-3.313c.226-1.342.716-3.019 1.455-4.967h.002a58.4 58.4 0 0 0 8.287 4.292c-1.2 1.711-2.335 3.055-3.348 3.988m12.088-1.743c-1.607-.244-3.495-.728-5.614-1.462a49 49 0 0 1-2.344-.884c1.232-1.743 2.519-3.85 3.79-6.274.845.343 1.692.665 2.533.956 2.293.794 4.338 1.319 6.074 1.584-1.28 2.42-2.793 4.458-4.439 6.081Zm4.681-6.546c-1.743-.262-3.783-.785-6.076-1.584-.84-.29-1.685-.61-2.53-.951h-.002a79 79 0 0 0 3.362-7.458h.002a53 53 0 0 0 2.328.877c2.111.732 3.993 1.213 5.593 1.455a31 31 0 0 1-2.676 7.66Z"/><path fill="url(#f)" d="M38.458 39.861c-1.167 1.335-3.649 3.164-5.655 3.889.728-1.605 1.428-3.555 1.428-7.177 0-.912.009-2.104-.039-2.625.615-.41 1.213-.836 1.789-1.255.928-.661 2.556-2.213 2.731-2.425.256 2.682.389 5.687-.253 9.592Z"/><path fill="url(#g)" d="M37.563 24.211c-.461.477-.937.946-1.43 1.395q-.746.681-1.552 1.296c-.368.283-.746.55-1.126.817-1.177-5.535-5.987-10.219-8.821-12.42q-.007.003-.009.007c-1.324-1.345-3.958-3.516-5.922-1.966 1.149-1.393 2.406-2.558 3.735-3.364h.002c1.621-.985 3.55.424 4.276.953 2.256 1.649 7.32 6.482 10.023 11.545l.005-.002.085.175c.26.5.525 1.064.735 1.563Z"/><path fill="url(#a)" d="M20.589 36.716q.118.078.239.154-.14-.084-.272-.173l-.163-.113q.096.068.196.131Z"/><path fill="url(#h)" d="M22.857 37.892q-.01.003-.018.002l-.039-.018q.01 0 .016-.002z"/><path fill="url(#i)" d="M17.377 30.678a8 8 0 0 0-.009.907c.009.163.023.327.051.488q.027.159.058.318.011.059.025.117v.002c.067.327.157.652.279.962.221.557.536 1.073.912 1.54q.25.308.53.587.13.129.272.26.054.047.108.099.096.084.2.17.072.06.152.124.108.086.223.17.015.013.03.023.091.07.187.136l.163.113a11 11 0 0 0 1.032.608q.56.297 1.227.569-.006.002-.016.002.018.01.039.018h-.007c-1.52.205-2.897.228-4.126.055-1.711-.239-3.138-.84-4.269-1.803-1.402-1.195-2.153-3.023-2.231-5.432-.163-5.006 2.519-12.558 6.498-17.375 1.964-1.55 4.598.622 5.922 1.966q-.547.446-1.036.956a15 15 0 0 0-.969 1.114q-.475.602-.898 1.239-.435.653-.822 1.338a29 29 0 0 0-1.411 2.853 32 32 0 0 0-1.073 2.892q-.219.69-.403 1.391-.173.653-.309 1.312-.124.602-.214 1.207-.078.536-.113 1.071Z"/><path fill="url(#j)" d="M44.39 21.892a24 24 0 0 1-.698 1.596c-1.25 2.563-2.968 4.808-4.996 6.739a.1.1 0 0 1-.016.023c-.175.212-1.803 1.764-2.731 2.425-.576.419-1.174.845-1.789 1.255q-.077.054-.157.106c-2.671 1.524-5.862 2.643-7.566 3.115a27 27 0 0 1-3.58.751l-.018-.007-.039-.018q.01 0 .016-.002.005.002.009 0a15 15 0 0 1-1.236-.569 12 12 0 0 1-.76-.435q-.14-.084-.272-.173l-.163-.113q-.094-.067-.187-.136-.015-.01-.03-.023-.115-.086-.223-.17-.08-.064-.152-.124l-.2-.17-.108-.099q-.14-.132-.272-.26a8 8 0 0 1-.53-.587 6 6 0 0 1-.912-1.54 6 6 0 0 1-.279-.962v-.002l.002-.002c.385.198 1.335.419 2.977.295 1.966-.157 4.133-.725 6.12-1.457 0 0 1.706-.67 2.542-1.059q.116-.048.219-.106a23 23 0 0 0 1.098-.553l.184-.099q.335-.188.659-.375c.606-.35 1.16-.774 1.727-1.174l.394-.276c.38-.267.758-.534 1.126-.817q.805-.616 1.552-1.296a32 32 0 0 0 1.43-1.395l.012-.012c.044-.051.087-.108.131-.159a18.8 18.8 0 0 0 2.475-3.615c.992-1.916 2.422-4.644 2.763-6.705 1.179 1.188 2.263 4.732 1.478 8.19Z"/><path fill="url(#k)" d="M22.857 37.892q-.013.003-.025.002a12.2 12.2 0 0 1-2.243-1.179c.624.414 1.372.813 2.268 1.177"/></svg>