<svg xmlns="http://www.w3.org/2000/svg" xmlns:xlink="http://www.w3.org/1999/xlink" viewBox="0 0 170 48"><defs><linearGradient id="f" x1="33.075" x2="36.392" y1="12.671" y2="42.761" gradientUnits="userSpaceOnUse"><stop offset=".539" stop-color="#ffb549"/><stop offset=".669" stop-color="#ff8f1c"/><stop offset=".888" stop-color="#e35205"/><stop offset="1" stop-color="#c63527"/></linearGradient><linearGradient id="g" x1="22.398" x2="42.425" y1="11.237" y2="34.179" gradientUnits="userSpaceOnUse"><stop offset="0" stop-color="#c63527"/><stop offset=".103" stop-color="#e35205"/><stop offset=".444" stop-color="#ff8f1c"/><stop offset=".741" stop-color="#ffb549"/></linearGradient><linearGradient id="a" x1="20.393" x2="20.828" y1="36.727" y2="36.727" gradientUnits="userSpaceOnUse"><stop offset=".162" stop-color="#d5411f"/><stop offset=".282" stop-color="#df581f"/><stop offset=".449" stop-color="#ec731f"/><stop offset=".597" stop-color="#f3831f"/><stop offset=".712" stop-color="#f6891f"/><stop offset="1" stop-color="#f6891f"/></linearGradient><linearGradient xlink:href="#a" id="h" x1="22.799" x2="22.857" y1="37.884" y2="37.884"/><linearGradient id="i" x1="15.745" x2="25.069" y1="36.004" y2="14.21" gradientUnits="userSpaceOnUse"><stop offset="0" stop-color="#c63527"/><stop offset=".199" stop-color="#e35205"/><stop offset=".622" stop-color="#ff8f1c"/><stop offset="1" stop-color="#ffb549"/></linearGradient><linearGradient id="j" x1="20.443" x2="45.448" y1="37.424" y2="18.199" gradientUnits="userSpaceOnUse"><stop offset="0" stop-color="#ffb549"/><stop offset=".311" stop-color="#ff8f1c"/><stop offset=".751" stop-color="#e35205"/><stop offset="1" stop-color="#c63527"/></linearGradient><linearGradient id="k" x1="20.589" x2="23.165" y1="37.305" y2="37.305" gradientUnits="userSpaceOnUse"><stop offset="0" stop-color="#f6891f"/><stop offset=".207" stop-color="#f4841f"/><stop offset=".429" stop-color="#ee771f"/><stop offset=".658" stop-color="#e4621f"/><stop offset=".89" stop-color="#d6441f"/><stop offset=".915" stop-color="#d5411f"/></linearGradient><radialGradient id="b" cx="30.702" cy="15.555" r="24.485" fx="30.702" fy="15.555" gradientTransform="rotate(116.912 30.84 15.78) scale(1 1.029)" gradientUnits="userSpaceOnUse"><stop offset=".045" stop-color="#8dc8e8"/><stop offset=".472" stop-color="#62b5e5"/><stop offset=".805" stop-color="#009cde"/><stop offset=".933" stop-color="#004c97"/><stop offset="1" stop-color="#003865"/></radialGradient><radialGradient id="c" cx="18.119" cy="2.62" r="41.259" fx="18.119" fy="2.62" gradientTransform="matrix(-.94143538 -.22088102 .21828489 -.94204449 54.391 39.14)" gradientUnits="userSpaceOnUse"><stop offset=".339" stop-color="#c63527"/><stop offset=".431" stop-color="#e35205"/><stop offset=".728" stop-color="#ff8f1c"/><stop offset=".96" stop-color="#ffb549"/></radialGradient><radialGradient id="d" cx="33.924" cy="14.225" r="26.318" fx="33.924" fy="14.225" gradientUnits="userSpaceOnUse"><stop offset="0" stop-color="#0084ca"/><stop offset=".8" stop-color="#002554"/></radialGradient><radialGradient id="e" cx="51.081" cy="-26.166" r="77.741" fx="51.081" fy="-26.166" gradientUnits="userSpaceOnUse"><stop offset=".464" stop-color="#009cde"/><stop offset=".793" stop-color="#004c97"/><stop offset=".879" stop-color="#003865"/></radialGradient></defs><path fill="#e35205" d="M75.985 17.443a5.436 5.436 0 0 0-1.482-2.666c-.894-.922-2.115-1.55-3.629-1.867-1.41-.298-3.593-.443-6.671-.443-3.99 0-6.696.368-8.272 1.126-1.639.786-2.561 2.268-2.666 4.285l-.05.97h5.215l.186-.678c.093-.336.26-.531.56-.651.392-.158 1.593-.422 5.248-.422 2.161 0 3.702.095 4.582.282.732.156 1.263.43 1.579.813.051.063.092.124.124.181.194.336.414.96.451 2.112a6.06 6.06 0 0 0-1.296-.403c-1.225-.239-3.61-.356-7.292-.356-4.817 0-6.31.396-7.015.695-1.111.484-1.912 1.205-2.39 2.148-.448.893-.666 2.063-.666 3.58 0 1.24.139 2.206.426 2.951.313.806.871 1.5 1.659 2.064.794.588 1.857.958 3.25 1.133 1.265.158 3.462.238 6.532.238 2.805 0 4.708-.153 5.817-.468.341-.097.667-.225.977-.384l-.02.793h5.149V22.042c0-1.954-.079-3.352-.242-4.277a5.586 5.586 0 0 0-.063-.323Zm-5.021 8.687c0 .904-.369 1.173-.731 1.317-.521.207-1.861.455-5.278.455-5.299 0-6.316-.282-6.502-.369-.287-.137-.623-.414-.623-1.328 0-.743.174-1.222.518-1.424.069-.039.406-.194 1.441-.29.84-.075 2.389-.113 4.6-.113 3.623 0 5.098.267 5.697.491.625.232.878.597.878 1.261ZM80.268 4.34v28.154H85.412V4.34h-5.144zM113.76 17.274c-.536-1.437-1.534-2.595-2.961-3.434-.919-.53-2.022-.883-3.377-1.081-1.281-.184-3.087-.273-5.523-.273-2.897 0-4.903.18-6.133.55-.394.12-.762.272-1.103.455v-.86h-5.145v31.895h5.145V31.553c.362.186.753.339 1.172.458 1.228.352 3.117.523 5.771.523 3.581 0 6.061-.217 7.582-.662 1.638-.479 2.956-1.478 3.917-2.97.927-1.438 1.377-3.527 1.377-6.387 0-1.988-.199-3.627-.593-4.87a7.2 7.2 0 0 0-.13-.373Zm-4.607 5.319c0 1.383-.125 2.453-.371 3.18-.218.634-.54 1.09-.983 1.39-.254.168-.788.404-1.852.547-.937.129-2.421.194-4.414.194-3.522 0-4.92-.365-5.472-.672l-.007-.004-.007-.004c-.502-.267-.853-.706-1.076-1.342-.264-.754-.397-1.947-.397-3.545 0-1.344.124-2.388.369-3.101.106-.302.234-.561.389-.786a2.26 2.26 0 0 1 .586-.599c.243-.164.778-.397 1.883-.539 1.003-.129 2.598-.194 4.741-.194 3.268 0 4.597.363 5.137.668l.008.005.008.005c.306.165.548.379.739.656.134.193.245.414.33.66.258.737.389 1.908.389 3.483ZM141.851 17.673c-.237-1.062-.718-1.985-1.43-2.739l-.007-.007-.007-.007c-.846-.857-2.005-1.459-3.448-1.79-1.36-.311-3.242-.463-5.755-.463-2.991 0-5.124.214-6.519.655a6.539 6.539 0 0 0-1.338.591V4.34h-5.145v28.154h5.145v-9.283c0-1.947.094-2.806.173-3.183a2.59 2.59 0 0 1 .635-1.221c.018-.02.031-.036.045-.049l.008-.008.01-.011c.433-.458 1.116-.809 2.028-1.042 1.054-.266 2.606-.401 4.611-.401 1.775 0 3.109.099 3.966.296.708.165 1.206.418 1.475.753.062.079.117.157.156.225l.008.013.008.013c.187.298.315.646.39 1.065.111.612.168 1.806.168 3.55v9.283h5.148V22.349c0-1.985-.089-3.425-.271-4.402a4.419 4.419 0 0 0-.055-.274ZM168.911 17.771a5.42 5.42 0 0 0-1.547-2.998c-.892-.918-2.115-1.547-3.629-1.863-1.406-.298-3.588-.443-6.668-.443-3.989 0-6.695.368-8.275 1.126-1.64.788-2.562 2.27-2.667 4.285l-.05.97h5.218l.186-.678c.093-.337.259-.532.556-.651.393-.158 1.594-.422 5.252-.422 2.161 0 3.702.095 4.582.282.732.156 1.263.43 1.579.813.043.053.085.116.121.181.194.336.414.959.451 2.111a6.032 6.032 0 0 0-1.295-.402c-1.225-.239-3.609-.356-7.289-.356-4.817 0-6.31.396-7.015.695-1.116.486-1.918 1.208-2.391 2.151-.449.895-.668 2.065-.668 3.577 0 1.235.141 2.2.429 2.951.308.803.865 1.498 1.656 2.065.794.588 1.858.958 3.253 1.133 1.261.158 3.459.238 6.532.238 2.806 0 4.708-.153 5.814-.468.341-.097.667-.225.976-.383l-.02.792h5.152V22.043c0-1.955-.08-3.353-.244-4.272Zm-5.086 8.359c0 .905-.368 1.174-.728 1.317-.521.207-1.861.455-5.278.455-5.299 0-6.316-.282-6.502-.369-.287-.137-.623-.414-.623-1.328 0-1.122.387-1.349.515-1.424.09-.051.438-.197 1.444-.29.838-.075 2.385-.113 4.597-.113 3.622 0 5.1.267 5.701.492.621.23.874.596.874 1.261Z"/><path fill="#004c97" d="M100.009 42.448c.109.124.231.251.368.379a2.562 2.562 0 0 0 1.032.589c.21.062.439.094.688.094.513 0 .914-.117 1.201-.35.287-.233.431-.548.431-.944 0-.428-.163-.748-.49-.962-.326-.214-.797-.387-1.411-.519a4.316 4.316 0 0 1-.91-.291c-.272-.124-.507-.28-.706-.467s-.352-.402-.461-.647a2.031 2.031 0 0 1-.163-.834c0-.287.054-.56.163-.816s.272-.482.49-.677c.218-.194.49-.35.816-.466a3.35 3.35 0 0 1 1.131-.175c.381 0 .709.041.985.122.276.082.511.181.706.297s.35.237.467.362c.117.124.206.225.268.303l-.746.688a3.758 3.758 0 0 0-.21-.216c-.093-.089-.212-.177-.356-.262s-.311-.158-.501-.216c-.191-.058-.41-.087-.659-.087s-.463.033-.642.099a1.357 1.357 0 0 0-.443.257.981.981 0 0 0-.257.355 1.044 1.044 0 0 0-.081.397c0 .194.041.36.122.496.082.136.2.257.356.362s.348.195.578.268c.229.074.492.146.787.216.288.07.57.161.846.274.276.113.522.264.74.455.218.191.391.424.519.7.128.276.192.612.192 1.009 0 .334-.07.642-.21.921-.14.28-.332.523-.577.729s-.535.366-.869.478a3.37 3.37 0 0 1-1.085.169c-.366 0-.698-.043-.997-.128a3.971 3.971 0 0 1-.816-.327 3.478 3.478 0 0 1-.641-.437 3.148 3.148 0 0 1-.45-.472l.793-.723ZM111.555 44.536c-.42 0-.805-.076-1.154-.227s-.651-.36-.904-.624a2.936 2.936 0 0 1-.595-.916c-.144-.346-.216-.717-.216-1.114s.072-.768.216-1.114a2.96 2.96 0 0 1 .595-.916c.253-.264.554-.472.904-.624s.734-.227 1.154-.227a2.81 2.81 0 0 1 2.053.851 2.895 2.895 0 0 1 .817 2.03 2.869 2.869 0 0 1-.817 2.03 2.81 2.81 0 0 1-2.053.851Zm0-.91c.28 0 .533-.056.758-.169.226-.113.416-.26.572-.443s.274-.393.356-.63a2.18 2.18 0 0 0 0-1.446 1.914 1.914 0 0 0-.362-.635 1.833 1.833 0 0 0-.572-.449c-.221-.113-.472-.169-.752-.169s-.532.056-.758.169c-.226.113-.416.261-.572.443s-.274.392-.356.63a2.24 2.24 0 0 0 0 1.452c.082.233.202.443.362.63.159.186.35.336.572.449.222.113.473.169.752.169ZM119.521 39.793h-.98v-.875h.98v-.443a2.6 2.6 0 0 1 .158-.95 1.86 1.86 0 0 1 .419-.659c.175-.171.375-.297.601-.379.226-.082.463-.122.711-.122.288 0 .57.045.846.134.276.09.53.243.764.461l-.525.677c-.287-.241-.595-.362-.921-.362-.303 0-.546.097-.729.291-.183.195-.274.529-.274 1.003v.35h1.551v.875h-1.551v4.743h-1.049v-4.743ZM127.288 39.832h-.98v-.875h.98v-1.773h1.049v1.773h1.586v.875h-1.586v2.671c0 .435.068.735.204.898.136.163.328.245.577.245.202 0 .37-.031.502-.093s.264-.156.396-.28l.478.641a2.234 2.234 0 0 1-.694.473 2.23 2.23 0 0 1-.845.146c-.576 0-.998-.156-1.265-.467-.268-.311-.402-.797-.402-1.458v-2.776ZM134.324 39.113h1.155l1.213 4.14 1.306-4.14h.898l1.307 4.175 1.189-4.175h1.085l-1.796 5.423h-1.038l-1.26-3.79-1.248 3.79h-.98l-1.831-5.423ZM150.115 43.731a1.81 1.81 0 0 1-.799.606 2.732 2.732 0 0 1-1.021.198c-.226 0-.449-.029-.671-.088a1.735 1.735 0 0 1-.606-.291 1.524 1.524 0 0 1-.443-.525c-.113-.214-.169-.476-.169-.787 0-.583.204-1.05.612-1.4s.997-.525 1.767-.525c.124 0 .257.004.396.011l.396.023.327.023c.093.008.159.016.198.023v-.198c0-.404-.123-.694-.368-.869-.245-.175-.577-.262-.997-.262-.412 0-.739.056-.98.169a3.844 3.844 0 0 0-.606.344l-.49-.711c.093-.078.206-.156.338-.233.133-.078.287-.15.467-.216a3.841 3.841 0 0 1 1.388-.227c.7 0 1.25.169 1.65.507.4.338.601.818.601 1.441v3.155c0 .191.004.503.012.636h-.995l-.008-.805Zm-.011-1.913a1.982 1.982 0 0 0-.18-.029 5.906 5.906 0 0 0-.309-.029 51.763 51.763 0 0 0-.373-.024 6.388 6.388 0 0 0-.385-.011c-.296 0-.535.035-.717.105a1.23 1.23 0 0 0-.432.262.826.826 0 0 0-.215.35 1.26 1.26 0 0 0-.058.367c0 .296.101.519.303.671s.482.227.839.227c.202 0 .394-.035.578-.105a1.7 1.7 0 0 0 .484-.28c.14-.117.253-.253.339-.408a.988.988 0 0 0 .128-.478v-.618ZM156.221 39.999v-.589c0-.167-.004-.34-.012-.519h1.003l.035.875c.062-.093.144-.196.245-.309.1-.113.223-.216.367-.309a2.27 2.27 0 0 1 .502-.239c.19-.066.41-.099.659-.099.116 0 .223.008.32.023.097.016.188.039.274.07l-.234.98a1.503 1.503 0 0 0-.536-.082 1.51 1.51 0 0 0-.624.128c-.19.086-.356.204-.496.356s-.251.328-.332.531a1.69 1.69 0 0 0-.123.642l-.012 3.078h-1.049L156.22 40ZM168.942 43.567c-.062.07-.156.159-.28.268a2.385 2.385 0 0 1-.484.315c-.198.101-.431.189-.7.263s-.574.111-.916.111c-.42 0-.805-.07-1.154-.21a2.551 2.551 0 0 1-1.476-1.516 3.324 3.324 0 0 1-.204-1.19c0-.397.066-.768.198-1.114.132-.346.319-.645.56-.898s.527-.453.857-.601a2.64 2.64 0 0 1 1.091-.222c.466 0 .866.09 1.201.268a2.4 2.4 0 0 1 .822.711c.213.295.371.634.472 1.015s.152.777.152 1.19h-4.28c.008.241.06.463.158.665.097.202.227.377.391.525s.35.264.56.35c.21.086.432.128.665.128.459 0 .835-.078 1.131-.233.295-.156.509-.307.641-.455l.595.63Zm-.944-2.39a1.765 1.765 0 0 0-.443-1.073c-.264-.295-.638-.443-1.12-.443a1.624 1.624 0 0 0-1.178.466 1.527 1.527 0 0 0-.327.484c-.077.183-.12.371-.128.566h3.196Z"/><path fill="none" d="m32.052 28.376-.148.094a.05.05 0 0 0 .002.012c.05-.034.097-.072.146-.106Z"/><path fill="url(#b)" d="M44.475 24.241a22.446 22.446 0 0 1-.205 2.065c-.018.14-.041.276-.064.417l-.002.016c-.005.023-.007.048-.009.071-.023.143-.051.283-.078.424a22.591 22.591 0 0 1-2.839 7.416c-.087.145-.175.292-.272.437l-.025.039c-.092.145-.187.29-.283.437a22.343 22.343 0 0 1-5.627 5.793l-.007.002c-.15.108-.292.212-.444.309-.035.023-.06.046-.094.069h-.009c-.152.104-.297.203-.451.299h-.009a20.54 20.54 0 0 1-2.897 1.524c-.583.251-1.172.47-1.766.659-.002 0-.005.002-.007.005a19.714 19.714 0 0 1-2.171.566l-.007.002c-.053.009-.101.018-.152.025 0 0-.005.005-.007.005-.136.025-.269.048-.405.071-.06.009-.113.018-.173.025h-.007c-.131.023-.258.046-.391.064h-.002a6.213 6.213 0 0 1-.191.023h-.005c-.09.012-.177.023-.265.032h-.002c-.205.025-.408.046-.61.06-.051.007-.099.009-.15.014a18.54 18.54 0 0 1-5.869-.493c-.131-.032-.262-.064-.394-.101l-.295-.083-.032-.009c-.101-.03-.2-.058-.302-.094-.012-.002-.025-.007-.039-.012a17.53 17.53 0 0 1-4.294-2.011c-.009-.005-.016-.012-.025-.018-.071-.046-.145-.097-.216-.145a17.42 17.42 0 0 1-3.074-2.595c-.064-.069-.129-.136-.191-.207-.101-.113-.203-.226-.302-.341-.064-.074-.129-.15-.191-.226l-.055-.067a15.485 15.485 0 0 1-.242-.29 18.16 18.16 0 0 1-.688-.919c-4.577-6.514-4.589-15.257-.705-22.258v-.002l.002-.005c.108-.198.221-.391.338-.585.002 0 .002-.002.002-.005a22.362 22.362 0 0 1 5.643-6.346l.002-.002.044-.032a20.892 20.892 0 0 1 6.574-3.387c.087-.03.18-.055.269-.083l.168-.048h.005l.154-.041.002-.002c.067-.018.127-.032.189-.046.062-.014.122-.03.189-.048l-.012.007a19.065 19.065 0 0 1 6.809-.46h.002c.067.007.134.016.2.025l.276.035c.064.009.129.018.193.03h.002c.424.064.845.143 1.259.239a21.762 21.762 0 0 1 1.391.37 13.167 13.167 0 0 1 .534.177 17.709 17.709 0 0 1 8.142 5.784c.078.097.159.196.235.297l.286.385a18.93 18.93 0 0 1 1.745 2.948 19.338 19.338 0 0 1 1.379 3.926c.009.037.018.074.025.111l.083.373c.053.258.104.52.147.783.035.203.071.41.094.612.051.364.09.728.12 1.094.083.958.101 1.927.048 2.894Z"/><path fill="url(#c)" d="M41.564 10.658c.418.6.809 1.232 1.163 1.879l.06-.032c-1.012-2.928-2.959-5.72-5.495-7.875l-.49-.402-.504-.381a19.688 19.688 0 0 0-1.043-.721c-.34-.219-.707-.45-1.093-.653l-.043-.022c-.358-.187-.729-.38-1.103-.545C31.577 1.228 29.971.715 28.238.38a20.9 20.9 0 0 0-8.63.148s0-.003 0-.003l-.213.048V.569a23.75 23.75 0 0 0-1.43.385c-2.85.865-5.497 2.224-7.655 3.929l-.606.483c-.273.216-.517.413-.754.629-.903.768-1.781 1.664-2.767 2.824-.932 1.105-1.689 2.155-2.315 3.208a27.022 27.022 0 0 0-1.808 3.53 26.031 26.031 0 0 0-1.261 3.765 27.428 27.428 0 0 0-.683 3.919 23.252 23.252 0 0 0-.081 3.532c.268 5.528 2.258 10.614 5.603 14.322 3.486 3.864 8.106 6.279 13.007 6.798 4.504.477 9.247-.682 13.035-3.183l-.063-.134c-4.34 2.173-9.489 2.656-14.153 1.321a19.111 19.111 0 0 1-1.21-.391c-4.694-1.691-8.612-5.225-11.032-9.95l-.056-.124c-.22-.484-.448-.985-.636-1.496a22.026 22.026 0 0 1-.981-3.366 23.374 23.374 0 0 1-.42-3.486 22.115 22.115 0 0 1 .115-3.51A24.677 24.677 0 0 1 8.572 10.79a22.77 22.77 0 0 1 2.402-2.551c.955-.868 1.853-1.579 2.745-2.172a22.53 22.53 0 0 1 3.04-1.728 22.341 22.341 0 0 1 3.213-1.211v-.011l.08-.012.163-.046v-.01l.074-.01a20.249 20.249 0 0 1 7.572-.587.22.22 0 0 1 .037.004l.185.023c.126.016.252.031.362.05 5.64 1.035 10.176 3.845 13.121 8.125Z"/><path fill="none" d="m32.224 28.323-.148.094a.05.05 0 0 0 .002.012c.05-.034.097-.072.146-.106Z"/><path fill="url(#d)" d="M32.17 5.035a16.112 16.112 0 0 1 2.406 1.257c.005 0 .007-.002.009-.002a15.728 15.728 0 0 0-2.415-1.255Z"/><path fill="url(#e)" d="M40.236 26.907c.484-2.62.61-5.245.403-7.741 1.552.203 2.729.092 3.426-.309l-.083-.373c-.007-.037-.016-.074-.025-.111-.682.403-1.831.516-3.359.318h-.002c-.256-2.475-.847-4.815-1.768-6.875.852.108 1.485.044 1.851-.189.023-.016.044-.03.064-.046h.002a.677.677 0 0 0 .087-.081l-.286-.385a.76.76 0 0 1-.097.09h-.002a.489.489 0 0 1-.06.041h-.002c-.343.219-.942.286-1.738.18h-.002c-.797-1.672-1.814-3.15-3.053-4.356l-.018-.002c1.193 1.2 2.162 2.671 2.915 4.336a12.17 12.17 0 0 1-2.107-.548 19.933 19.933 0 0 1-.882-.332c.085-1.418.007-2.627-.246-3.553a.11.11 0 0 1-.023-.009c.191.9.203 2.082.06 3.475a21.855 21.855 0 0 1-3.143-1.63c1.02-.937 1.948-1.63 2.747-2.017-.007-.007-.014-.009-.021-.014-.852.35-1.835 1.009-2.908 1.918-.96-.612-1.801-1.264-2.422-1.886 1.75-.378 3.461-.474 5.07-.235-.005-.002-.007-.009-.014-.014-1.644-.274-3.392-.219-5.174.131a5.07 5.07 0 0 1-.734-.928c-.161-.272-.249-.511-.269-.716a18.91 18.91 0 0 1 6.069 1.338v-.011a19.072 19.072 0 0 0-6.076-1.405v-.002c-.005-.345.196-.589.569-.718-.064-.012-.129-.021-.193-.03l-.276-.035c-.38.145-.578.401-.573.757 0 .025 0 .055.005.085.023.219.117.474.288.762.187.313.451.645.781.988-2.167.474-4.372 1.375-6.507 2.625h-.002v-.002c-.608-.631-1.098-1.241-1.441-1.821-.315-.532-.488-1.002-.53-1.407a21.008 21.008 0 0 1 7.409-1.144c-.002-.03-.002-.058-.002-.085a20.802 20.802 0 0 0-7.419 1.073c-.009-.599.417-1.129.993-1.403-.131.037-.247.061-.378.096-.615.279-1.082.84-1.071 1.469l.009.159c.041.417.221.898.546 1.439.35.594.854 1.225 1.476 1.87l.115.12a4.47 4.47 0 0 1-.117-.12 30.56 30.56 0 0 0-6.023 4.844c-.813-.84-1.464-1.66-1.927-2.431-.421-.709-.649-1.338-.707-1.877a22.55 22.55 0 0 1 6.636-3.845c-.002-.055-.007-.106-.009-.159a22.226 22.226 0 0 0-6.638 3.792c-.009-.571.323-1.487.719-1.837l-.225.169c-.428.359-.881 1.391-.872 1.99 0 .069.005.14.014.212.055.543.288 1.179.714 1.897.463.778 1.124 1.607 1.946 2.459l.152.159a7.625 7.625 0 0 1-.154-.157 31.58 31.58 0 0 0-4.748 6.581c-.893-.926-1.609-1.826-2.111-2.673-.465-.781-.718-1.469-.781-2.061a22.51 22.51 0 0 1 4.98-6.205 1.692 1.692 0 0 1-.011-.212 22.275 22.275 0 0 0-4.98 6.185c-.007-.332.092-1.51.205-1.821-.117.193-.23.387-.338.585-.002.002-.002.005-.002.005v.002c-.106.626-.168 1.144-.12 1.711a21.056 21.056 0 0 0-2.245 7.46l.002-.131-.037.401c-.007.069-.007.138-.007.21 0 .069.007.138.014.21.055.543.288 1.17.709 1.886.461.776 1.119 1.6 1.936 2.448.101.101.203.207.306.311 1.644 1.635 3.854 3.35 6.376 4.962-.718 1.964-1.17 3.663-1.349 5.036-1.946-1.243-3.654-2.565-4.923-3.829-.424-1.844-.47-3.93-.104-6.168-.106-.104-.207-.21-.309-.311-.345 2.254-.281 4.368.177 6.238-.631-.654-1.137-1.287-1.494-1.886a4.838 4.838 0 0 1-.403-.834l.127.385c.09.262.223.543.403.845.348.585.845 1.207 1.46 1.844.267.967.638 1.867 1.114 2.682l.055.067c.064.078.131.159.198.237l-.007-.011a10.67 10.67 0 0 1-1.128-2.74c1.236 1.234 2.901 2.521 4.801 3.739-.104.944-.067 1.715.111 2.289.009.007.016.014.025.018a20.452 20.452 0 0 0 .232.148c-.143-.548-.14-1.299-.005-2.227a43.614 43.614 0 0 0 6.244 3.235c-.546.477-1.05.831-1.51 1.052.131.037.262.069.394.101.477-.212.99-.541 1.531-.983a36.57 36.57 0 0 0 1.748.659c.981.338 1.897.608 2.74.804.203-.014.405-.035.61-.06a27.16 27.16 0 0 1-3.108-.896 37.295 37.295 0 0 1-1.789-.672c1.066-.914 2.243-2.24 3.472-3.94h.002c.776.313 1.547.606 2.319.873 2.098.73 3.967 1.209 5.561 1.451-1.156 1.089-2.369 1.976-3.613 2.646.313-.083.624-.175.935-.276.002-.002.005-.005.007-.005a17.758 17.758 0 0 0 3.076-2.309c.569.074 1.098.115 1.586.127h.009c.154-.097.299-.196.451-.299a14.123 14.123 0 0 1-1.725-.129c1.669-1.621 3.191-3.656 4.469-6.076 1.361.175 2.517.182 3.438.032.097-.147.191-.292.283-.437l.025-.039c-.932.166-2.111.161-3.502-.021h-.002a30.26 30.26 0 0 0 2.641-7.663l-.203-.028c.067.009.136.018.203.025 1.688.219 3.037.157 3.974-.168a11.347 11.347 0 0 0 .087-.495l.002-.016c-.928.336-2.275.403-3.97.184Zm-.403-.06c-1.586-.239-3.447-.716-5.533-1.439a52.828 52.828 0 0 1-2.307-.87 70.07 70.07 0 0 0 2.319-7.186h.002a39.78 39.78 0 0 0 1.768.668c1.603.555 3.032.921 4.246 1.105a30.244 30.244 0 0 1-.495 7.723Zm-24.34 7.792c.774-1.978 1.801-4.216 3.062-6.643a63.784 63.784 0 0 0 9.054 4.69c-1.271 2.42-2.542 4.536-3.744 6.29a58.938 58.938 0 0 1-8.37-4.336h-.002v-.002Zm12.355-2.418a63.407 63.407 0 0 1-9.049-4.688h-.002a96.704 96.704 0 0 1 4.128-7.064h.002a58.979 58.979 0 0 0 8.328 4.315 87.5 87.5 0 0 1-3.408 7.437Zm-4.646-12.18H23.2a84.53 84.53 0 0 1 4.368-6.141 44.544 44.544 0 0 0 6.325 3.279 77.36 77.36 0 0 1-2.445 7.133 57.708 57.708 0 0 1-8.245-4.271Zm13.212-8.833c.85.295 1.603.488 2.245.585.87 2.056 1.416 4.384 1.632 6.857-1.188-.18-2.579-.536-4.142-1.08-.573-.2-1.149-.414-1.727-.652h-.002c.562-2.243.926-4.303 1.057-6.063.315.127.626.244.937.352ZM31.91 9.03a23.77 23.77 0 0 0 3.348 1.734c-.203 1.729-.629 3.767-1.243 5.989a43.109 43.109 0 0 1-6.171-3.198h-.002c1.43-1.796 2.814-3.341 4.066-4.524h.002Zm-2.772-2.125v-.002c.665.661 1.559 1.352 2.574 2.003-1.315 1.149-2.752 2.653-4.23 4.423-1.877-1.202-3.525-2.478-4.748-3.698 2.107-1.278 4.276-2.213 6.403-2.726ZM22.329 9.88h.002c1.253 1.25 2.943 2.558 4.865 3.788a75.793 75.793 0 0 0-4.478 6.069c-2.51-1.605-4.709-3.309-6.341-4.937a31.481 31.481 0 0 1 5.952-4.92Zm-6.299 5.293h.002c1.649 1.644 3.873 3.366 6.406 4.987a85.573 85.573 0 0 0-4.165 7.039c-2.754-1.761-5.172-3.629-6.963-5.42a32.708 32.708 0 0 1 4.72-6.606ZM6.301 26.534c-.431-.721-.665-1.358-.721-1.904v-.012c.263-2.489 1.002-5.015 2.254-7.446.009.069.021.138.032.21.113.659.41 1.276.746 1.847.504.847 1.223 1.748 2.116 2.673-1.257 2.434-2.075 4.835-2.473 7.106-.824-.854-1.492-1.688-1.955-2.473Zm2.266 2.788-.002-.002c.417-2.256 1.241-4.644 2.496-7.078 1.798 1.789 4.214 3.659 6.967 5.42-1.264 2.427-2.275 4.674-3.026 6.666-2.544-1.623-4.778-3.352-6.436-5.006Zm11.72 13.972a44.847 44.847 0 0 1-6.396-3.313c.226-1.342.716-3.019 1.455-4.967h.002a58.4 58.4 0 0 0 8.287 4.292c-1.2 1.711-2.335 3.055-3.348 3.988Zm12.088-1.743c-1.607-.244-3.495-.728-5.614-1.462a49.42 49.42 0 0 1-2.344-.884c1.232-1.743 2.519-3.85 3.79-6.274.845.343 1.692.665 2.533.956 2.293.794 4.338 1.319 6.074 1.584-1.28 2.42-2.793 4.458-4.439 6.081Zm4.681-6.546c-1.743-.262-3.783-.785-6.076-1.584-.84-.29-1.685-.61-2.53-.951h-.002a79.027 79.027 0 0 0 3.362-7.458h.002a53.3 53.3 0 0 0 2.328.877c2.111.732 3.993 1.213 5.593 1.455a31.086 31.086 0 0 1-2.676 7.66Z"/><path fill="url(#f)" d="M38.458 39.861c-1.167 1.335-3.649 3.164-5.655 3.889.728-1.605 1.428-3.555 1.428-7.177 0-.912.009-2.104-.039-2.625.615-.41 1.213-.836 1.789-1.255.928-.661 2.556-2.213 2.731-2.425.256 2.682.389 5.687-.253 9.592Z"/><path fill="url(#g)" d="M37.563 24.211c-.461.477-.937.946-1.43 1.395-.497.454-1.015.886-1.552 1.296-.368.283-.746.55-1.126.817-1.177-5.535-5.987-10.219-8.821-12.42-.005.002-.007.005-.009.007-1.324-1.345-3.958-3.516-5.922-1.966 1.149-1.393 2.406-2.558 3.735-3.364h.002c1.621-.985 3.55.424 4.276.953 2.256 1.649 7.32 6.482 10.023 11.545l.005-.002.085.175c.26.5.525 1.064.735 1.563Z"/><path fill="url(#a)" d="M20.589 36.716c.078.051.159.104.239.154-.094-.055-.184-.115-.272-.173a7.671 7.671 0 0 1-.163-.113c.064.044.129.09.196.131Z"/><path fill="url(#h)" d="M22.857 37.892c-.007.002-.012.002-.018.002l-.039-.018c.007 0 .012 0 .016-.002a.285.285 0 0 0 .041.018Z"/><path fill="url(#i)" d="M17.377 30.678a8.08 8.08 0 0 0-.009.907c.009.163.023.327.051.488.018.106.037.212.058.318.007.039.016.078.025.117v.002c.067.327.157.652.279.962.221.557.536 1.073.912 1.54.166.205.343.401.53.587.087.085.177.173.272.26.037.032.071.064.108.099.064.055.131.113.2.17.048.041.099.081.152.124.071.058.147.113.223.17.009.009.021.016.03.023.062.046.122.092.187.136l.163.113a11.375 11.375 0 0 0 1.032.608c.373.198.783.387 1.227.569-.005.002-.009.002-.016.002.012.007.025.012.039.018h-.007c-1.52.205-2.897.228-4.126.055-1.711-.239-3.138-.84-4.269-1.803-1.402-1.195-2.153-3.023-2.231-5.432-.163-5.006 2.519-12.558 6.498-17.375 1.964-1.55 4.598.622 5.922 1.966-.366.297-.709.617-1.036.956a14.61 14.61 0 0 0-.969 1.114c-.318.401-.615.815-.898 1.239-.29.435-.564.882-.822 1.338a28.656 28.656 0 0 0-1.411 2.853 32.153 32.153 0 0 0-1.073 2.892c-.145.461-.281.923-.403 1.391-.115.435-.219.873-.309 1.312-.083.401-.154.804-.214 1.207-.051.357-.09.714-.113 1.071Z"/><path fill="url(#j)" d="M44.39 21.892a24.042 24.042 0 0 1-.698 1.596c-1.25 2.563-2.968 4.808-4.996 6.739a.06.06 0 0 1-.016.023c-.175.212-1.803 1.764-2.731 2.425-.576.419-1.174.845-1.789 1.255-.051.037-.104.071-.157.106-2.671 1.524-5.862 2.643-7.566 3.115a26.624 26.624 0 0 1-3.58.751l-.018-.007-.039-.018c.007 0 .012 0 .016-.002.002.002.007 0 .009 0a14.69 14.69 0 0 1-1.236-.569 12.11 12.11 0 0 1-.76-.435c-.094-.055-.184-.115-.272-.173a7.671 7.671 0 0 1-.163-.113c-.064-.044-.124-.09-.187-.136-.009-.007-.021-.014-.03-.023-.076-.058-.152-.113-.223-.17-.053-.044-.104-.083-.152-.124a24.108 24.108 0 0 1-.2-.17 3.235 3.235 0 0 0-.108-.099c-.094-.087-.184-.175-.272-.26a7.546 7.546 0 0 1-.53-.587 6.02 6.02 0 0 1-.912-1.54 5.85 5.85 0 0 1-.279-.962v-.002l.002-.002c.385.198 1.335.419 2.977.295 1.966-.157 4.133-.725 6.12-1.457 0 0 1.706-.67 2.542-1.059.078-.032.15-.067.219-.106a22.99 22.99 0 0 0 1.098-.553l.184-.099c.223-.124.444-.251.659-.375.606-.35 1.16-.774 1.727-1.174l.394-.276c.38-.267.758-.534 1.126-.817.536-.41 1.055-.843 1.552-1.296a31.93 31.93 0 0 0 1.43-1.395l.012-.012c.044-.051.087-.108.131-.159a18.843 18.843 0 0 0 2.475-3.615c.992-1.916 2.422-4.644 2.763-6.705 1.179 1.188 2.263 4.732 1.478 8.19Z"/><path fill="url(#k)" d="M22.857 37.892c-.009.002-.016.002-.025.002a12.234 12.234 0 0 1-2.243-1.179c.624.414 1.372.813 2.268 1.177Z"/></svg>