<svg xmlns="http://www.w3.org/2000/svg" viewBox="0 0 32 32"><rect width="30" height="24" x="1" y="4" fill="#c93728" rx="4" ry="4"/><path d="M27 4H5a4 4 0 0 0-4 4v16a4 4 0 0 0 4 4h22a4 4 0 0 0 4-4V8a4 4 0 0 0-4-4m3 20c0 1.654-1.346 3-3 3H5c-1.654 0-3-1.346-3-3V8c0-1.654 1.346-3 3-3h22c1.654 0 3 1.346 3 3z" opacity=".15"/><path fill="#fff" d="M27 5H5a3 3 0 0 0-3 3v1a3 3 0 0 1 3-3h22a3 3 0 0 1 3 3V8a3 3 0 0 0-3-3" opacity=".2"/><path fill="#ff5" d="m18.008 16.366 3.249-2.36h-4.016L16 10.186l-1.241 3.82h-4.016l3.249 2.36-1.241 3.82L16 17.825l3.249 2.361z"/></svg>