<?xml version="1.0" encoding="UTF-8"?><svg id="a" xmlns="http://www.w3.org/2000/svg" width="96" height="96" xmlns:xlink="http://www.w3.org/1999/xlink" viewBox="0 0 96 96"><defs><radialGradient id="b" cx="64.7483" cy="31.1094" fx="64.7483" fy="31.1094" r="48.3775" gradientTransform="translate(115.5422 -18.1238) rotate(112.1452) scale(1 .9157)" gradientUnits="userSpaceOnUse"><stop offset=".1728" stop-color="#acd6f2"/><stop offset=".6172" stop-color="#5ca9d4"/><stop offset=".7718" stop-color="#006ba5"/><stop offset=".8227" stop-color="#02518b"/><stop offset="1" stop-color="#003d63"/></radialGradient><radialGradient id="c" cx="70.569" cy="35.5585" fx="70.569" fy="35.5585" r="75.3657" gradientTransform="translate(114.9143 129.5834) rotate(-140.2567) scale(.969 .7451) skewX(.2715)" gradientUnits="userSpaceOnUse"><stop offset=".0231" stop-color="#c33b1a"/><stop offset=".6719" stop-color="#c33b1a"/><stop offset=".7243" stop-color="#c73e1a"/><stop offset=".7775" stop-color="#d3471d"/><stop offset=".7861" stop-color="#d64a1e"/><stop offset=".8883" stop-color="#e87a20"/><stop offset="1" stop-color="#f8a843"/></radialGradient><radialGradient id="d" cx="71.1906" cy="28.4501" fx="71.1906" fy="28.4501" r="52.637" gradientUnits="userSpaceOnUse"><stop offset=".0617" stop-color="#5ca9d4"/><stop offset=".2794" stop-color="#006ba5"/><stop offset=".7616" stop-color="#003d63"/></radialGradient><radialGradient id="e" cx="70.6904" cy="32.4448" fx="70.6904" fy="32.4448" r="65.9431" xlink:href="#d"/><radialGradient id="f" cx="70.6924" cy="32.4455" fx="70.6924" fy="32.4455" r="65.9456" xlink:href="#d"/><radialGradient id="g" cx="70.6916" cy="32.3514" fx="70.6916" fy="32.3514" r="65.6173" xlink:href="#d"/><radialGradient id="h" cx="70.7666" cy="32.3708" fx="70.7666" fy="32.3708" r="65.6745" xlink:href="#d"/><radialGradient id="i" cx="72.3701" cy="32.0786" fx="72.3701" fy="32.0786" r="64.2686" xlink:href="#d"/><radialGradient id="j" cx="67.2641" cy="33.6596" fx="67.2641" fy="33.6596" r="63.8557" xlink:href="#d"/><radialGradient id="k" cx="69.0537" cy="32.8122" fx="69.0537" fy="32.8122" r="65.4636" xlink:href="#d"/><radialGradient id="l" cx="69.6884" cy="30.6478" fx="69.6884" fy="30.6478" r="68.3956" xlink:href="#d"/><radialGradient id="m" cx="70.0779" cy="31.987" fx="70.0779" fy="31.987" r="66.165" xlink:href="#d"/><radialGradient id="n" cx="70.3348" cy="32.4089" fx="70.3348" fy="32.4089" r="65.1695" xlink:href="#d"/><radialGradient id="o" cx="70.5584" cy="32.422" fx="70.5584" fy="32.422" r="65.3385" xlink:href="#d"/><linearGradient id="p" x1="56.2418" y1="19.4103" x2="68.7635" y2="86.8707" gradientUnits="userSpaceOnUse"><stop offset="0" stop-color="#c33b1a"/><stop offset=".1772" stop-color="#d64a1e"/><stop offset=".3106" stop-color="#e87a20"/><stop offset=".4172" stop-color="#f8a843"/><stop offset=".5053" stop-color="#fbb670"/><stop offset=".6217" stop-color="#f8a843"/><stop offset=".7372" stop-color="#e87a20"/><stop offset=".8706" stop-color="#d64a1e"/><stop offset=".9556" stop-color="#c33b1a"/></linearGradient><linearGradient id="q" x1="64.3821" y1="17.5762" x2="77.0138" y2="85.6297" xlink:href="#p"/><linearGradient id="r" x1="44.1291" y1="73.4542" x2="44.9995" y2="73.4542" gradientUnits="userSpaceOnUse"><stop offset=".1617" stop-color="#d5411f"/><stop offset=".2824" stop-color="#df581f"/><stop offset=".4486" stop-color="#ec731f"/><stop offset=".5972" stop-color="#f3831f"/><stop offset=".7123" stop-color="#f6891f"/><stop offset="1" stop-color="#f6891f"/></linearGradient><linearGradient id="s" x1="48.9414" y1="75.7682" x2="49.0565" y2="75.7682" xlink:href="#r"/><linearGradient id="t" x1="39.6236" y1="80.2509" x2="40.4679" y2="26.1416" gradientUnits="userSpaceOnUse"><stop offset=".1661" stop-color="#c33b1a"/><stop offset=".3639" stop-color="#d64a1e"/><stop offset=".6234" stop-color="#e87a20"/><stop offset=".7639" stop-color="#f8a843"/><stop offset=".84" stop-color="#fbb670"/></linearGradient><linearGradient id="u" x1="38.3452" y1="51.6032" x2="92.6566" y2="51.6032" gradientUnits="userSpaceOnUse"><stop offset="0" stop-color="#fbb670"/><stop offset=".1861" stop-color="#f8a843"/><stop offset=".5311" stop-color="#e87a20"/><stop offset=".8128" stop-color="#d64a1e"/><stop offset=".9903" stop-color="#c33b1a"/></linearGradient><linearGradient id="v" x1="44.5206" y1="74.61" x2="49.6739" y2="74.61" gradientUnits="userSpaceOnUse"><stop offset="0" stop-color="#f6891f"/><stop offset=".2072" stop-color="#f4841f"/><stop offset=".429" stop-color="#ee771f"/><stop offset=".6577" stop-color="#e4621f"/><stop offset=".8897" stop-color="#d6441f"/><stop offset=".9146" stop-color="#d5411f"/></linearGradient></defs><path d="M92.2933,48.481c-.0737,1.3815-.2072,2.7538-.4099,4.1307-.0368.2809-.0829.5526-.1289.8335,0,.0092-.0046.023-.0046.0322-.0092.046-.0138.0967-.0184.1428-.046.2855-.1013.5664-.1566.8473-.9855,5.1715-2.8966,10.214-5.678,14.8329-.175.2901-.35.5848-.5434.875-.0184.0276-.0322.0506-.0506.0783-.1842.2901-.373.5802-.5664.8749-2.5051,3.7439-5.5997,7.1655-9.2699,10.0943-.6585.525-1.3125,1.0269-1.9848,1.492q-.0092.0046-.0138.0046c-.2993.2164-.5848.4237-.8888.6171-.0691.0461-.1197.0921-.1888.1382h-.0184c-.3039.2072-.594.4052-.9026.5986h-.0184c-1.8789,1.1881-3.8176,2.2012-5.7932,3.0485-1.1651.5019-2.344.9394-3.5321,1.317-.0046,0-.0092.0046-.0138.0092-.6217.2026-1.2434.3868-1.8696.5526-.8243.221-1.6486.4144-2.4729.5802,0,0-.0092.0046-.0138.0046-.1059.0184-.2026.0368-.3039.0506,0,0-.0092.0092-.0138.0092-.2717.0506-.5388.0967-.8105.1428-.1197.0184-.2256.0368-.3454.0506h-.0138c-.2625.0461-.5158.0921-.7829.129h-.0046c-.129.0184-.2533.0322-.3822.046h-.0092c-.1796.023-.3546.0461-.5296.0645h-.0046c-.4099.0506-.8151.0921-1.2203.1197-.1013.0138-.198.0184-.2993.0276-3.9834.2947-7.9391-.0368-11.7383-.9855-.2625-.0645-.525-.1289-.7875-.2026-.198-.0553-.3914-.1105-.5894-.1658-.0184-.0046-.0461-.0138-.0645-.0184-.2026-.0599-.4006-.1151-.6033-.1888-.023-.0046-.0506-.0138-.0783-.023-2.8413-.8888-5.5721-2.1321-8.1233-3.7255-.0046,0-.0138-.0046-.0184-.0092-.1474-.0921-.2993-.1888-.4467-.2855-.0184-.0092-.0322-.023-.0506-.0368-.1428-.0921-.2901-.1934-.4329-.2901-2.2058-1.4552-4.2689-3.1959-6.1477-5.1899-.129-.1381-.2579-.2717-.3822-.4144-.2026-.2256-.4052-.4513-.6033-.6816-.129-.1473-.2579-.2993-.3822-.4513-.0368-.046-.0737-.0875-.1105-.1335-.1658-.1934-.327-.3868-.4835-.5802-.4743-.594-.9348-1.2065-1.3769-1.8374-9.1548-13.0277-9.1779-30.513-1.4091-44.517v-.0046s0-.0046.0046-.0092c.2165-.396.4421-.7829.677-1.1697.0046,0,.0046-.0046.0046-.0092,2.6939-4.536,6.226-8.6667,10.5501-12.1205.2441-.1934.4881-.3868.7368-.571l.0046-.0046.0875-.0645c.1105-.0875.2211-.1704.3316-.2487,4.0294-3.0071,8.372-5.1715,12.8158-6.5253.175-.0599.3592-.1105.5388-.1658.1105-.0322.2256-.0644.3362-.0967h.0092c.1059-.0276.2072-.0553.3085-.0829l.0046-.0046c.1335-.0368.2533-.0645.3776-.0921.1243-.0276.2441-.0599.3776-.0967-.0086.0041-.0163.0095-.0249.0137,4.5338-1.1328,9.1526-1.4371,13.619-.9208h.0046c.1335.0138.2671.0322.4006.0506.1842.023.3684.0461.5526.0691.1289.0184.2579.0368.3868.0599h.0046c.8473.1289,1.6901.2855,2.519.4789.3638.0783.7276.1658,1.0822.2625.571.1474,1.1375.3085,1.6993.4789.3408.1059.6815.2165,1.0177.3362.0184,0,.0368.0092.0506.0184,6.2398,2.1505,11.8948,6.0326,16.2834,11.5679.1566.1934.3177.3914.4697.594l.571.7691c.0967.1289.1888.2625.2763.3914,1.2388,1.7591,2.3071,3.6011,3.2143,5.503.8289,1.7361,1.5243,3.5275,2.0815,5.3557.1796.5848.3408,1.1743.4927,1.7683.0691.2441.129.4836.1842.7276.0184.0737.0368.1474.0506.221.0553.2487.1105.4974.1658.746.1059.5158.2072,1.0407.2947,1.5657.0691.4052.1428.8197.1888,1.2249.1013.7276.1796,1.4552.2394,2.1874.1658,1.9157.2026,3.8544.0967,5.7885Z" fill="url(#b)"/><path d="M86.4711,21.3161c.8359,1.2009,1.6178,2.4638,2.3262,3.7579l.1201-.0643c-2.0231-5.8562-5.9181-11.4401-10.9907-15.7491l-.9796-.8042-1.0077-.7628c-.7015-.5187-1.4046-1.005-2.087-1.4426-.6797-.4382-1.4147-.8992-2.1864-1.3067l-.0857-.0445c-.7168-.3739-1.4583-.7603-2.2067-1.0897-2.8778-1.3566-6.0904-2.3826-9.556-3.0516-5.721-1.1042-11.6892-1.0008-17.2603.2969l-.0012.0006-.0015-.006-.4262.0968-.0015-.0072c-.9566.226-1.915.4845-2.8584.7706-5.7001,1.7299-10.9937,4.4473-15.3092,7.8577l-1.2122.9653c-.5453.4328-1.0345.8259-1.5088,1.2574-1.8068,1.5357-3.5626,3.3287-5.5337,5.6488-1.8639,2.2107-3.3789,4.3096-4.6306,6.417-1.4753,2.4553-2.6577,4.7646-3.6161,7.0607-1.0109,2.382-1.8591,4.9149-2.5221,7.5307-.6245,2.4608-1.0844,5.0976-1.3666,7.8373-.2309,2.2414-.284,4.5525-.1625,7.0649.5358,11.056,4.5156,21.2278,11.2063,28.6431,6.9729,7.7285,16.2117,12.5574,26.0141,13.5967,9.0076.9533,18.4937-1.3638,26.0705-6.3665l-.1254-.2675c-8.6806,4.3463-18.9781,5.311-28.3059,2.6417-.8052-.2302-1.619-.4935-2.4191-.7814-9.3887-3.3816-17.2245-10.4495-22.0635-19.9l-.1126-.247c-.4405-.9683-.896-1.9697-1.2714-2.9927-.8335-2.1945-1.4942-4.4611-1.9624-6.7325-.4516-2.2774-.7338-4.6222-.8398-6.9717-.1111-2.2756-.0334-4.6372.2306-7.0192.9939-9.2576,4.7787-18.3385,10.6568-25.5675,1.5963-1.9577,3.1678-3.6268,4.8047-5.1018,1.9096-1.7365,3.7057-3.1574,5.4895-4.3439,1.9164-1.2971,3.9625-2.4602,6.0791-3.4561,2.012-.9467,4.1734-1.7611,6.4258-2.4223l-.0015-.021.161-.0234.3267-.0926-.0012-.0192.149-.0192v.0012c5.0251-1.3506,10.121-1.7467,15.1437-1.1751l.0003-.0006c.0263.0018.0508.0048.0735.009l.3691.0469c.2521.0313.5032.0625.7242.0998,11.2795,2.0707,20.3525,7.6894,26.2422,16.2492Z" fill="url(#c)"/><path d="M67.7912,56.6465c-.0976.0642-.1973.1246-.2955.1878.001.0081.0025.0163.0034.0244.0992-.0679.1935-.1433.2921-.2122Z" fill="none"/><path d="M67.684,10.0703c-.0138-.0092-.0322-.0184-.0506-.0184-.3362-.1197-.677-.2303-1.0177-.3362,2.0032.7368,3.9742,1.6855,5.8806,2.869.0092,0,.0138-.0046.0184-.0046-1.5703-.9947-3.1867-1.8328-4.8307-2.5098Z" fill="url(#d)"/><path d="M14.4175,50.2079c-.0138-.1428-.0276-.2809-.0276-.419-.1013,1.2756-.1428,2.5466-.1243,3.813l.023.8519.0322.5019c-.0691-1.5703-.0322-3.1498.0967-4.7478ZM14.3207,54.9557c.023.746.0783,1.4921.1474,2.2242l-.1474-2.2242ZM18.9856,33.8738c-.0046.0138-.0138.023-.0184.0368-2.5005,4.8629-3.9695,9.9146-4.4899,14.9203v.0046c.0046.1335.0138.2809.023.4237,0-.0046,0-.0092.0046-.0138v-.0092c.525-4.9781,2.0032-10.0298,4.5083-14.8927v-.0046c.0046,0,.0046-.0046.0046-.0046-.023-.1566-.0276-.3131-.0322-.4605ZM29.4391,20.5791c-3.9327,3.4077-7.345,7.5661-9.9607,12.3691,0,.0046-.0046.0046-.0046.0092,0,.1474.0138.2993.0276.4559,2.6157-4.8077,6.0234-8.9752,9.9607-12.4106-.0184-.1428-.023-.2855-.023-.4237ZM43.4707,12.3499c-4.7616,1.7131-9.2699,4.2689-13.2763,7.5845v.0046h-.0046c.0046.0691.0092.1335.0138.2026.0046.0737.0092.1428.0138.2164,4.0018-3.3387,8.5101-5.9359,13.2717-7.6904-.0046-.1105-.0138-.2118-.0184-.3177ZM59.2245,9.8815c-5.0057-.2026-10.0436.5434-14.8375,2.146,0,.0553,0,.1059.0046.1566.0046.0553.0046.1059.0138.1566h.0046c4.7938-1.6394,9.8225-2.4361,14.819-2.2887-.0046-.0599-.0046-.1151-.0046-.1704ZM60.1732,9.9368c.0092.0553.0092.1013.0138.1566,4.1261.221,8.22,1.096,12.1389,2.6755v-.023c-3.9235-1.6256-8.0266-2.542-12.1527-2.8091Z" fill="url(#e)"/><path d="M22.969,78.0085c-.9809-1.6532-1.7315-3.486-2.2565-5.48-.1658-.1566-.3177-.3131-.4651-.4697.5342,1.9341,1.2756,3.7347,2.2289,5.3649.0368.046.0737.0875.1105.1335.129.1566.2625.3177.396.4743-.0046-.0092-.0092-.0138-.0138-.023ZM20.3257,59.4963c-.2118-.2072-.4145-.4191-.6171-.6217-.6908,4.5084-.5618,8.7358.3546,12.4751.1519.1658.3131.3224.4697.4835-.8473-3.6886-.9394-7.8608-.2072-12.3369ZM24.8018,43.8023c-2.5144,4.8675-4.1491,9.6706-4.9458,14.2112.2026.2072.4006.4099.6171.6263.8335-4.5129,2.4821-9.2884,4.9919-14.1559-.2303-.2349-.4467-.4513-.6631-.6815ZM35.0895,30.0332c-.1013-.1013-.2072-.2072-.3086-.3131-3.6472,3.8959-6.8937,8.3305-9.4956,13.1612.2211.2303.4421.4513.6723.6815,0,0,0-.0046.0046-.0046,2.5973-4.8307,5.8254-9.2791,9.4403-13.2119-.1059-.1105-.2118-.2118-.3131-.3131ZM47.7672,19.5245c-.0783-.0783-.1566-.1566-.2349-.2394-4.2504,2.588-8.3443,5.8622-12.0468,9.689v.0046h-.0046c.1013.1059.2072.2118.3085.3131.1013.1059.2072.2072.3086.3085,3.661-3.859,7.7134-7.1885,11.904-9.841-.0829-.0829-.1566-.1566-.2349-.2349ZM61.3705,13.5518c-4.3333.9486-8.745,2.7492-13.0139,5.2498h-.0046c.1474.1566.2993.3039.4559.4605h.0046c4.2136-2.5558,8.5516-4.4255,12.8066-5.4524v-.0046c-.0829-.0829-.1612-.1658-.2487-.2533ZM72.5423,13.1189c-3.288-.548-6.7832-.4375-10.3475.2625l.2349.2349c3.4998-.7552,6.9214-.9486,10.1403-.4697-.0092-.0046-.0138-.0184-.0276-.0276Z" fill="url(#f)"/><path d="M31.0416,80.463c-.2441-.1474-.4835-.3085-.7276-.4559-.2072,1.8881-.1336,3.4308.221,4.5774.0184.0138.0322.0276.0506.0368.1474.0967.2993.1934.4467.2855.0046.0046.0138.0092.0184.0092-.2855-1.096-.2809-2.5972-.0092-4.4531ZM33.0771,69.4201c-1.4368,3.9281-2.3394,7.3266-2.6986,10.0712.2441.1566.4927.3177.746.4697.4513-2.6847,1.4322-6.0372,2.9104-9.9331-.3223-.2026-.6355-.4052-.9578-.6079ZM39.3998,55.3241c-2.5282,4.8537-4.5498,9.3482-6.051,13.3316,0,.0046.0046.0046.0046.0046.1658.1059.3224.2118.4881.3131.1612.1059.3224.2072.4881.3086v-.0046c1.5473-3.9557,3.6011-8.4318,6.1247-13.2856-.3546-.2256-.7046-.4467-1.0545-.6677ZM48.2231,40.3209h-.0046c-2.9288,4.4623-5.7701,9.2147-8.3305,14.0776-.0046,0-.0046.0046-.0046.0046.175.1105.35.221.5296.3315.175.1105.3454.221.525.3316,2.565-4.8583,5.3695-9.6338,8.2568-14.1283-.3269-.2118-.6447-.4144-.9717-.6171ZM57.7417,27.3347h-.0046c-2.9703,3.6058-6.005,7.7134-8.9568,12.1389h.0046c.3223.2072.6355.4099.9578.6079,2.892-4.4577,5.8576-8.616,8.7358-12.2816-.2487-.1474-.4974-.3085-.7368-.4651ZM66.7676,17.8114c-2.6295,2.2979-5.503,5.305-8.4595,8.8463.2394.1473.4743.2993.7184.4513,2.8597-3.5919,5.6273-6.6819,8.1325-9.0489-.1335-.0875-.2579-.1658-.3914-.2487ZM73.0903,13.5518c-1.7039.7-3.6702,2.017-5.8162,3.836.1151.0783.2395.1566.3638.2256,2.04-1.8743,3.8958-3.2604,5.4938-4.034-.0138-.0138-.0276-.0184-.0415-.0276Z" fill="url(#g)"/><path d="M43.5305,86.9331c-1.0914.9532-2.0999,1.6624-3.0209,2.1045.2625.0737.525.1381.7875.2026.9532-.4237,1.9802-1.0822,3.0623-1.9663-.2763-.1105-.5572-.2211-.8289-.3408ZM50.6177,78.6118h-.0046c-2.3992,3.4216-4.6695,6.1109-6.6957,7.9759l.8427.3546c2.1321-1.8282,4.4853-4.4807,6.9444-7.8792-.3638-.1428-.7276-.2947-1.0868-.4513ZM58.5614,65.3723c-2.542,4.8399-5.084,9.0719-7.4878,12.581.3684.1566.7322.3039,1.1052.4559,2.4637-3.486,5.0379-7.6996,7.5799-12.5487-.4006-.1566-.7921-.327-1.1973-.4882ZM65.8604,49.5678h-.0046c-1.994,4.9504-4.2919,9.9929-6.8155,14.8743h.0046c.396.1704.7875.3315,1.1927.4974,2.5236-4.886,4.78-9.9423,6.7234-14.9157-.3684-.152-.7368-.2993-1.1006-.4559ZM71.1332,34.3573h-.0046c-1.2802,4.4853-2.938,9.3298-4.8906,14.2664.3592.152.7276.2993,1.0914.4513,1.8881-4.9642,3.4584-9.8364,4.6373-14.3723-.2809-.1105-.5526-.2303-.8335-.3454ZM73.8593,21.5277c-.4052,3.4584-1.2572,7.5338-2.4867,11.9777.1335.0553.2717.1105.4052.1658.1381.0553.2717.1105.4052.1704v-.0046c1.1236-4.4853,1.8512-8.6068,2.1137-12.1251-.1428-.0598-.2901-.1243-.4375-.1842ZM73.8501,13.9432c-.0138-.0046-.0322-.0092-.0461-.0184.3822,1.8006.4052,4.1629.1197,6.949.1474.0598.2855.1151.4191.175.1704-2.8367.0138-5.2543-.4927-7.1056Z" fill="url(#h)"/><path d="M67.4675,83.7096c-2.3117,2.1782-4.7386,3.9511-7.2253,5.2912.6263-.1658,1.2479-.35,1.8696-.5526.0046-.0046.0092-.0092.0138-.0092,2.1137-1.2434,4.1814-2.786,6.1523-4.6188-.2671-.0322-.5342-.0737-.8105-.1105ZM76.9723,70.9398c-2.5604,4.8399-5.5859,8.9154-8.8785,12.1619h.0046c.2809.0461.5526.0783.8243.1151,3.3387-3.2419,6.3826-7.3128,8.9384-12.1527-.2901-.0415-.5848-.0783-.8888-.1243ZM83.2214,54.7531c-.1381-.0184-.2717-.0414-.4099-.0644h-.0046c-1.0914,5.2267-2.8736,10.4258-5.3511,15.321h.0046c.2993.0461.5848.0829.8842.1243,2.4729-4.8952,4.232-10.0942,5.282-15.3256-.1335-.0184-.2671-.0368-.4052-.0553ZM84.6213,38.3315c-.2026-.023-.4144-.0506-.6217-.0829.3362,4.9781.0184,10.2186-.9901,15.4453h.0046c.2671.0461.5434.0783.8013.1197.9671-5.2405,1.2203-10.4903.8059-15.4822ZM80.9971,23.6322c-.1105-.0138-.221-.0322-.3315-.0461h-.0046c1.7407,4.1123,2.8321,8.768,3.265,13.7138h.0046c.2026.0322.4007.0599.6033.0829-.5112-4.9504-1.6947-9.6291-3.5367-13.7507ZM74.5271,14.1412c-.0138,0-.023-.0046-.0368-.0046,2.3854,2.3992,4.3241,5.3418,5.83,8.6713h.0046c.1059.023.2026.0322.3085.0461-1.5934-3.3433-3.6288-6.2997-6.1063-8.7128Z" fill="url(#i)"/><path d="M54.555,90.0784c-.4099.0506-.8151.0921-1.2203.1197-1.6855-.3914-3.5183-.9302-5.48-1.6072-1.1651-.4006-2.3302-.8473-3.4952-1.317-.2763-.1105-.5572-.2211-.8289-.3408-4.3379-1.8098-8.6298-4.057-12.4889-6.4701-.2441-.1474-.4835-.3085-.7276-.4559-3.7992-2.4361-7.1286-5.0103-9.6015-7.4786-.1658-.1566-.3177-.3131-.4651-.4697-1.2295-1.2756-2.2242-2.5189-2.9196-3.6886-.3592-.6033-.6263-1.1651-.8059-1.69l-.2533-.769c.1842.5204.4559,1.073.8059,1.667.7138,1.1973,1.7269,2.4637,2.9887,3.7715.1519.1658.3131.3224.4697.4835,2.5374,2.5282,5.9543,5.1715,9.8456,7.6582.2441.1566.4927.3177.746.4697,3.9465,2.4729,8.3489,4.7662,12.7928,6.6266l.8427.3546c1.1973.4835,2.3854.9348,3.5781,1.3447,2.2473.7829,4.3288,1.3769,6.2168,1.7914Z" fill="url(#j)"/><path d="M72.3719,83.4747c-.3039.2072-.594.4052-.9026.5986h-.0184c-.9763-.023-2.0354-.1059-3.1729-.2533-.2671-.0322-.5342-.0737-.8105-.1105-3.1867-.4835-6.926-1.4414-11.1212-2.9012-1.5427-.5342-3.0854-1.119-4.6373-1.7453h-.0046c-.3638-.1428-.7276-.2947-1.0868-.4513h-.0046c-5.7563-2.4084-11.4527-5.3833-16.5735-8.5838h-.0046c-.3223-.2026-.6355-.4052-.9578-.6079-5.0425-3.2235-9.4634-6.6543-12.7514-9.9239-.2072-.2072-.4099-.4191-.6125-.6217-1.6348-1.6947-2.9518-3.3433-3.8729-4.8952-.8427-1.4322-1.3078-2.6847-1.4183-3.7715-.0138-.1428-.0276-.2809-.0276-.419,0-.1428,0-.2809.0138-.4191l.0737-.8013c0,.0875-.0046.175-.0046.2625v.0046c.0092.129.0138.2671.0276.4006v.023c.1105,1.0914.5802,2.367,1.4414,3.8084.9256,1.5703,2.2611,3.2374,3.9097,4.9458.2026.2072.4006.4099.6171.6263l.0046.0046c3.3156,3.3064,7.7825,6.7648,12.8711,10.0114,0,.0046.0046.0046.0046.0046.1658.1059.3224.2118.4881.3131.1612.1059.3224.2072.4881.3039v.0046h.0046c5.1668,3.2327,10.9231,6.2352,16.7393,8.6713.3684.1566.7322.3039,1.1052.4559,1.5657.6355,3.1268,1.2249,4.6879,1.7683,4.2366,1.469,8.0128,2.4361,11.2271,2.9242h.0046c.2809.0461.5526.0783.8243.1151,1.2434.1658,2.3992.2487,3.4492.2579Z" fill="url(#k)"/><path d="M85.3535,70.1754c-.0184.0276-.0322.0506-.0506.0783-.1842.2901-.373.5802-.5664.8749-1.842.2993-4.1537.2855-6.8753-.0644-.2901-.0415-.5848-.0783-.8888-.1243-3.4722-.5296-7.5615-1.5795-12.1481-3.1683-1.6808-.5802-3.3755-1.2249-5.0655-1.9111-.4006-.1566-.7921-.327-1.1973-.4882-6.2951-2.6295-12.5165-5.8898-18.107-9.3805-.3546-.2256-.7046-.4467-1.0545-.6677-5.5076-3.5229-10.3383-7.2622-13.9349-10.8403-.2303-.2349-.4467-.4513-.6631-.6815-1.7868-1.8512-3.2235-3.6518-4.232-5.3464-.6723-1.1421-1.2664-2.3762-1.492-3.6933-.023-.1428-.046-.2809-.0645-.419v-.0046c-.0184-.1428-.0322-.2855-.046-.4283-.0967-1.1329.0276-2.169.2395-3.4216v-.0046s0-.0046.0046-.0092c.2165-.396.4421-.7829.677-1.1697-.2256.6217-.4237,2.9794-.4099,3.6426v.0092c0,.1474.0138.2993.023.4559.1243,1.1835.6309,2.5604,1.5611,4.1215,1.0039,1.6947,2.4361,3.4952,4.2228,5.3464.2256.2256.4467.4513.677.6769,3.5827,3.5827,8.418,7.3174,13.9256,10.8403.1704.1151.3454.2256.525.3362.175.1105.3454.221.525.3316h.0046c5.5905,3.4952,11.8027,6.7464,18.0978,9.3759h.0046c.396.1704.7875.3315,1.1927.4974h.0046c1.69.6815,3.3801,1.3216,5.0609,1.9019,4.5866,1.598,8.6667,2.6433,12.1527,3.1683h.0046c.2993.0461.5848.0829.8842.1243h.0046c2.7815.3638,5.1392.373,7.0043.0415Z" fill="url(#l)"/><path d="M91.7545,53.4453c0,.0092-.0046.023-.0046.0322-.0092.046-.0138.0967-.0184.1428-.046.2855-.1013.5664-.1566.8473-1.8743.6493-4.5728.7736-7.9483.3362-.1335-.0138-.2717-.0322-.4052-.0507-.1381-.0184-.2717-.0414-.4099-.0644h-.0046c-3.2005-.4836-6.9629-1.446-11.1857-2.9104-1.5427-.5388-3.0992-1.1282-4.6557-1.7545h-.0046c-.3684-.152-.7368-.2993-1.1006-.4559h-.0046c-5.7839-2.4223-11.5172-5.4201-16.6564-8.6299h-.0046c-.3269-.2118-.6447-.4144-.9717-.6171h-.0046c-5.0655-3.2419-9.514-6.6865-12.8112-9.9745h-.0046c-.1059-.1105-.2118-.2118-.3131-.3131-.1013-.1059-.2026-.2118-.3039-.3177-1.644-1.7038-2.9656-3.3617-3.8913-4.9182-.8519-1.4368-1.317-2.7078-1.4276-3.7946-.0184-.1428-.0276-.2855-.0276-.4237-.0184-1.1973.8869-3.2615,1.7435-3.9799l.4496-.3386c-.7921.7-1.4563,2.5317-1.4379,3.6738v.0046c0,.0645.0046.1335.0092.2026.0046.0737.0092.1428.0138.2164.1151,1.0776.571,2.3348,1.4138,3.7531.9256,1.5427,2.2288,3.1821,3.8544,4.8629v.0046c.1013.1059.2026.2072.3039.3131.1013.1059.2072.2072.3086.3085,3.265,3.2558,7.6628,6.6635,12.6823,9.8732h.0046c.3223.2072.6355.4099.9578.6079h.0046c5.0886,3.1867,10.762,6.1477,16.4907,8.5423.3592.152.7276.2993,1.0914.4513,1.5381.6217,3.0762,1.2019,4.6143,1.7407,4.1722,1.446,7.8931,2.3992,11.0659,2.8782h.0046c.2671.0461.5434.0783.8013.1197,3.3893.4375,6.0833.3039,7.9391-.3684Z" fill="url(#m)"/><path d="M91.3078,36.9684c.0553.2487.1105.4974.1658.746-1.3953.8013-3.7485,1.0223-6.8523.6171-.2026-.023-.4098-.0506-.6217-.0829-2.4269-.3684-5.2866-1.1006-8.4917-2.2104-1.1743-.4145-2.3624-.8566-3.5367-1.3355h-.0046c-.2809-.1105-.5526-.2303-.8335-.3454h-.0046c-4.3978-1.842-8.7404-4.1123-12.65-6.5576-.2487-.1474-.4974-.3085-.7368-.4651h-.0046c-3.8452-2.4591-7.2253-5.0748-9.7305-7.5753h-.0046c-.0829-.0829-.1566-.1566-.2349-.2349-.0737-.0783-.152-.1566-.2303-.2394-1.2434-1.2894-2.2519-2.5512-2.9518-3.7393-.6493-1.0822-1.0085-2.0446-1.0914-2.8782-.0092-.1105-.0138-.2165-.0184-.3177-.023-1.2572.9117-2.3799,2.1413-2.9371.2625-.0691.4935-.118.756-.1917-1.1513.548-2.0039,1.6091-1.9855,2.8064,0,.0553,0,.1059.0046.1566.0046.0553.0138.1059.0184.1566.0829.8105.4283,1.7499,1.0592,2.8137.6861,1.1605,1.667,2.3808,2.8828,3.6426v.0046h.0046c.1474.1566.2993.3039.4513.4605h.0046c2.4453,2.4407,5.7425,4.9919,9.4956,7.3957.2394.1473.4743.2993.7184.4513h.0046c3.8084,2.3854,8.0542,4.605,12.3415,6.3964.1335.0553.2717.1105.4052.1658.1335.0553.2717.1105.4052.1658h.0046c1.1559.4743,2.3071.9026,3.4538,1.3032,3.1268,1.0868,5.9083,1.8006,8.2845,2.1598h.0046c.2026.0322.4007.0599.6033.0829h.0046c3.0578.396,5.3557.1704,6.7188-.6355.0184.0737.0368.1474.0506.221Z" fill="url(#n)"/><path d="M85.0081,23.0013c-.0506.0553-.1105.1105-.175.1612h-.0046c-.0414.0322-.0829.0599-.1289.0921-.7322.4651-1.9986.594-3.7025.3776-.1105-.0138-.221-.0322-.3315-.0461h-.0046c-1.2848-.1934-2.7907-.5802-4.4899-1.1697-.6217-.2165-1.2434-.4513-1.8743-.7046-.1428-.0598-.2901-.1243-.4375-.1842-2.3255-.9763-4.6327-2.1782-6.6957-3.4676h-.0046c-.1335-.0875-.2579-.1658-.3914-.2487-2.0308-1.3032-3.8176-2.6847-5.1484-4.0064-.0829-.0829-.1612-.1658-.2487-.2533-.6585-.6861-1.1881-1.3493-1.5611-1.9756-.3408-.5756-.5296-1.0868-.5756-1.5243-.0092-.0599-.0092-.1197-.0092-.1704-.0092-.7138.3868-1.2249,1.1467-1.515.1842.023.3684.0461.5526.0691.1289.0184.2579.0368.3868.0599-.746.2579-1.1467.746-1.1374,1.4368v.0046c.0092.0553.0092.1013.0138.1566.0415.4099.2165.8888.5388,1.4322.35.5895.8473,1.2157,1.469,1.8558l.2349.2349c1.2433,1.2434,2.9242,2.5466,4.8445,3.7715.1151.0783.2395.1566.3638.2256,1.9433,1.2203,4.1031,2.3486,6.2859,3.2604.1474.0598.2855.1151.4191.175.5894.2349,1.1789.4605,1.7637.6631,1.5934.5526,3.0071.9118,4.2136,1.096h.0046c.1059.023.2026.0322.3085.0461h.0046c1.5934.2118,2.7907.0783,3.4768-.3592h.0046c.046-.0276.0783-.0506.1197-.0829h.0046c.0691-.0553.1381-.1151.1934-.1796l.571.7691Z" fill="url(#o)"/><path d="M78.4689,48.4211c-.921.9532-1.8743,1.8927-2.8597,2.7907-.9947.9072-2.0308,1.773-3.1038,2.5926-.7368.5664-1.492,1.1006-2.2518,1.6348-2.3532-11.0705-11.9731-20.4372-17.6419-24.8396-.0092.0046-.0138.0092-.0184.0138-2.6479-2.6893-7.9161-7.0319-11.8442-3.9327,2.2979-2.786,4.8123-5.1162,7.4694-6.728h.0046c3.2419-1.971,7.101.8473,8.5516,1.9065,4.5129,3.2972,14.6394,12.9632,20.0458,23.0897l.0092-.0046s.0599.1197.1704.35c.5204.9993,1.05,2.1275,1.469,3.1268Z" fill="url(#p)"/><path d="M80.2603,79.7216c-2.3348,2.6709-7.299,6.3273-11.31,7.7779,1.4552-3.2097,2.8551-7.1102,2.8551-14.3539,0-1.8236.0184-4.209-.0783-5.2497,1.2296-.8197,2.4269-1.6716,3.5781-2.5098,1.8558-1.3216,5.1116-4.4254,5.4616-4.8491.5112,5.3649.7783,11.3745-.5065,19.1846Z" fill="url(#q)"/><path d="M44.5206,73.4311c.1566.1013.3177.2072.4789.3086-.1888-.1105-.3684-.2303-.5434-.3454-.1105-.0737-.221-.152-.327-.2256.129.0875.2579.1796.3914.2625Z" fill="url(#r)"/><path d="M49.0565,75.7843c-.0138.0046-.023.0046-.0368.0046-.0276-.0138-.0553-.023-.0783-.0368.0138,0,.023,0,.0322-.0046.0276.0138.0553.0276.0829.0368Z" fill="url(#s)"/><path d="M38.0965,61.3567c-.0368.6079-.0506,1.2111-.0184,1.8144.0184.327.046.6539.1013.9763.0368.2118.0737.4237.1151.6355.0138.0783.0322.1566.0507.2349v.0046c.1335.6539.3131,1.3032.5572,1.9249.4421,1.1144,1.073,2.1459,1.8236,3.0808.3315.4098.6861.8013,1.0592,1.1743.175.1704.3546.3454.5434.5204.0737.0645.1428.1289.2164.198.129.1105.2625.2256.4006.3408.0967.0829.198.1612.3039.2487.1428.1151.2947.2257.4467.3408.0184.0184.0415.0322.0599.046.1243.0921.2441.1842.373.2717.1059.0737.2165.1519.327.2256.175.1151.3546.2349.5434.3454.4743.2993.9809.5848,1.5197.8704.746.396,1.5657.7736,2.4545,1.1374-.0092.0046-.0184.0046-.0322.0046.023.0138.0506.023.0783.0368h-.0138c-3.0393.4098-5.7932.4559-8.2522.1105-3.4215-.4789-6.2767-1.6809-8.5377-3.6058-2.8045-2.39-4.3057-6.0464-4.4623-10.8633-.327-10.0114,5.0379-25.1159,12.9954-34.7496,3.9281-3.0992,9.1963,1.2434,11.8442,3.9327-.7322.5941-1.4183,1.2341-2.0723,1.9111-.6861.7092-1.3308,1.4552-1.9387,2.2288-.6355.8013-1.2296,1.6302-1.796,2.4775-.5802.8704-1.1282,1.7637-1.644,2.6755-.525.921-1.0223,1.8605-1.492,2.8137-.4697.9486-.9118,1.9157-1.3309,2.892-.4099.9579-.7967,1.9295-1.1605,2.9104-.35.9486-.6816,1.9111-.9855,2.8735-.2901.921-.5618,1.8466-.8059,2.7814-.2303.8704-.4375,1.7453-.6171,2.6249-.1658.8013-.3085,1.6072-.4283,2.413-.1013.7138-.1796,1.4276-.2256,2.1414Z" fill="url(#t)"/><path d="M92.1229,43.7839c-.4329,1.0868-.8934,2.1552-1.3953,3.1913-2.5005,5.1254-5.9359,9.6153-9.9929,13.4789,0,.0046-.0092.023-.0322.0461-.35.4237-3.6058,3.5275-5.4616,4.8491-1.1513.8381-2.3486,1.6901-3.5781,2.5098-.1013.0737-.2072.1428-.3131.2118-5.3419,3.0485-11.7244,5.2866-15.1322,6.2306-2.542.7092-4.9228,1.1973-7.1608,1.5012-.0138-.0046-.023-.0092-.0368-.0138-.0276-.0138-.0553-.023-.0783-.0368.0138,0,.023,0,.0322-.0046.0046.0046.0138,0,.0184,0-.8934-.3638-1.7177-.746-2.4729-1.1374-.5388-.2855-1.0453-.571-1.5197-.8704-.1888-.1105-.3684-.2303-.5434-.3454-.1105-.0737-.221-.152-.327-.2256-.1289-.0875-.2487-.1796-.373-.2717-.0184-.0138-.0414-.0276-.0599-.046-.1519-.1151-.3039-.2257-.4467-.3408-.1059-.0875-.2072-.1658-.3039-.2487-.1381-.1151-.2717-.2303-.4006-.3408-.0737-.0691-.1428-.1335-.2164-.198-.1888-.175-.3684-.35-.5434-.5204-.373-.373-.7276-.7645-1.0592-1.1743-.7506-.9348-1.3815-1.9664-1.8236-3.0808-.2441-.6217-.4237-1.271-.5572-1.9249v-.0046c0-.0046.0046-.0046.0046-.0046.7691.396,2.6709.8381,5.9543.5894,3.9327-.3131,8.2661-1.4506,12.2402-2.915,0,0,3.4123-1.3401,5.084-2.1183.1566-.0644.2993-.1335.4375-.2118.7368-.35,1.4828-.7184,2.1966-1.1052.1197-.0645.2395-.1289.3684-.198.4467-.2487.8888-.502,1.317-.7506,1.2111-.7,2.321-1.5473,3.4538-2.3486.2625-.1842.525-.3684.7875-.5526.7598-.5342,1.515-1.0684,2.2519-1.6348,1.073-.8197,2.1091-1.6855,3.1038-2.5926.9855-.898,1.9387-1.8374,2.8597-2.7907.0092-.0092.0138-.0138.023-.023.0875-.1013.175-.2165.2625-.3177,1.9019-2.192,3.5781-4.605,4.9504-7.2299,1.9848-3.8314,4.8445-9.2884,5.5261-13.4099,2.3578,2.3762,4.5267,9.4634,2.9564,16.3801Z" fill="url(#u)"/><path d="M49.0565,75.7843c-.0184.0046-.0322.0046-.0506.0046-1.7729-.723-3.2512-1.5243-4.4853-2.3578,1.2479.8289,2.7446,1.6256,4.536,2.3532Z" fill="url(#v)"/></svg>